<svg width="20" height="20" viewBox="0 0 24 24" fill="none" xmlns="http://www.w3.org/2000/svg">
<path fill-rule="evenodd" clip-rule="evenodd" d="M2 12C2 6.48 6.48 2 12 2C17.52 2 22 6.48 22 12C22 17.52 17.52 22 12 22C6.48 22 2 17.52 2 12ZM12 9.5C12.6904 9.5 13.25 8.94036 13.25 8.25C13.25 7.55964 12.6904 7 12 7C11.3096 7 10.75 7.55964 10.75 8.25C10.75 8.94036 11.3096 9.5 12 9.5ZM11 12C11 11.4477 11.4477 11 12 11C12.5523 11 13 11.4477 13 12V16C13 16.5523 12.5523 17 12 17C11.4477 17 11 16.5523 11 16V12Z" fill="#121212"/>
</svg>
