<svg width="16" height="16" viewBox="0 0 40 40"  xmlns="http://www.w3.org/2000/svg">
<path d="M22.3505 20.0008L32.8338 9.51756C33.4838 8.86756 33.4838 7.81756 32.8338 7.16756C32.1838 6.51756 31.1338 6.51756 30.4838 7.16756L20.0005 17.6508L9.51719 7.15089C8.86719 6.50089 7.81719 6.50089 7.16719 7.15089C6.51719 7.80089 6.51719 8.85089 7.16719 9.50089L17.6505 20.0008L7.16719 30.4841C6.51719 31.1341 6.51719 32.1841 7.16719 32.8341C7.48385 33.1675 7.90052 33.3341 8.33385 33.3341C8.76719 33.3341 9.18385 33.1675 9.51719 32.8508L20.0005 22.3508L30.4838 32.8341C30.8172 33.1675 31.2338 33.3341 31.6672 33.3341C32.1005 33.3341 32.5172 33.1675 32.8505 32.8508C33.5005 32.2008 33.5005 31.1508 32.8505 30.5008L22.3505 20.0008Z" />
</svg>
