<svg width="20" height="20" viewBox="0 0 41 40"  xmlns="http://www.w3.org/2000/svg">
<path d="M24.3672 7.2002C27.2838 4.28353 32.0338 4.28353 34.9672 7.2002C37.8838 10.1169 37.8838 14.8669 34.9672 17.8002L27.4672 25.3002C26.0172 26.7669 24.0838 27.5002 22.1672 27.5002C20.2505 27.5002 18.3338 26.7669 16.8672 25.3002C16.1172 24.5669 15.5672 23.7169 15.1838 22.7502C14.8338 21.8835 15.2672 20.9169 16.1172 20.5835C16.9838 20.2502 17.9505 20.6669 18.2838 21.5169C18.5005 22.0502 18.8005 22.5169 19.2172 22.9335C20.8505 24.5502 23.5005 24.5502 25.1172 22.9335L32.6172 15.4335C34.2338 13.8002 34.2338 11.1502 32.6172 9.53353C30.9838 7.9002 28.3338 7.91686 26.7172 9.53353L25.0172 11.2335C24.3672 11.8835 23.3172 11.8835 22.6672 11.2335C22.0172 10.5835 22.0172 9.53353 22.6672 8.88353L24.3672 7.2002Z" />
<path d="M12.6171 30.4335L14.4005 28.6502C15.0505 28.0002 16.1005 28.0168 16.7505 28.6668C17.4005 29.3168 17.4005 30.3668 16.7505 31.0168L14.9671 32.8002C13.5171 34.2668 11.5838 35.0002 9.66712 35.0002C7.75046 35.0002 5.81712 34.2668 4.38379 32.7835C1.46712 29.8668 1.46712 25.1002 4.38379 22.1835L11.8838 14.6835C14.8005 11.7668 19.5505 11.7668 22.4838 14.6835C23.1171 15.3335 23.6338 16.0668 24.0005 16.8668C24.3671 17.7168 24.0005 18.7002 23.1671 19.0835C22.3171 19.4502 21.3338 19.0835 20.9505 18.2502C20.7505 17.8002 20.4671 17.3835 20.1171 17.0335C18.4838 15.4002 15.8338 15.4168 14.2171 17.0335L6.71712 24.5335C5.10046 26.1668 5.08379 28.8168 6.71712 30.4335C8.35046 32.0502 11.0005 32.0502 12.6171 30.4335Z" />
</svg>
