<svg width="18" height="18" viewBox="0 0 41 40"  xmlns="http://www.w3.org/2000/svg">
<path fill-rule="evenodd" clip-rule="evenodd" d="M20.5007 3.33301C11.3007 3.33301 3.83398 10.7997 3.83398 19.9997C3.83398 29.1997 11.3007 36.6663 20.5007 36.6663C29.7007 36.6663 37.1673 29.1997 37.1673 19.9997C37.1673 10.7997 29.7007 3.33301 20.5007 3.33301ZM20.5007 33.333C13.1507 33.333 7.16732 27.3497 7.16732 19.9997C7.16732 12.6497 13.1507 6.66634 20.5007 6.66634C27.8507 6.66634 33.834 12.6497 33.834 19.9997C33.834 27.3497 27.8507 33.333 20.5007 33.333ZM27.1673 18.333H22.1673V13.333C22.1673 12.4163 21.4173 11.6663 20.5007 11.6663C19.584 11.6663 18.834 12.4163 18.834 13.333V18.333H13.834C12.9173 18.333 12.1673 19.083 12.1673 19.9997C12.1673 20.9163 12.9173 21.6663 13.834 21.6663H18.834V26.6663C18.834 27.583 19.584 28.333 20.5007 28.333C21.4173 28.333 22.1673 27.583 22.1673 26.6663V21.6663H27.1673C28.084 21.6663 28.834 20.9163 28.834 19.9997C28.834 19.083 28.084 18.333 27.1673 18.333Z" />
</svg>
