<svg width="24" height="24" viewBox="0 0 41 40"  xmlns="http://www.w3.org/2000/svg">
<path fill-rule="evenodd" clip-rule="evenodd" d="M34.1755 8.67051C34.8255 8.00384 34.8255 6.95384 34.1755 6.32051C33.5255 5.67051 32.4755 5.67051 31.8255 6.32051L27.8422 10.3038C25.5922 9.13717 23.1089 8.33717 20.4922 8.33717C11.7589 8.32051 4.27552 17.2538 2.54219 19.4872C2.30885 19.7872 2.30885 20.1872 2.54219 20.4872C3.52552 21.7538 6.35885 25.1705 10.2255 27.9038L6.79219 31.3372C6.14219 31.9872 6.14219 33.0372 6.79219 33.6872C7.12552 34.0205 7.54219 34.1705 7.97552 34.1705C8.40885 34.1705 8.82552 34.0038 9.15885 33.6872L34.1755 8.67051ZM6.45885 19.9872C9.02552 17.0705 14.5922 11.6538 20.5089 11.6538C22.1755 11.6538 23.8089 12.0872 25.3589 12.7705L20.4922 17.6372V14.9872C17.7255 14.9872 15.4922 17.2205 15.4922 19.9872C15.4922 20.7538 15.6755 21.4872 15.9922 22.1372L12.6089 25.5205C9.99219 23.7538 7.80885 21.5205 6.45885 19.9872ZM20.4921 28.3204C26.4088 28.3204 31.9755 22.9037 34.5421 19.9871C33.6921 19.0037 32.4755 17.7537 31.0421 16.5204L33.4088 14.1537C35.9088 16.3371 37.7088 18.5204 38.4255 19.4871C38.6588 19.7871 38.6588 20.1871 38.4255 20.4871C36.6921 22.7204 29.2255 31.6537 20.4755 31.6537C19.1088 31.6537 17.7755 31.4204 16.4921 31.0371L19.2921 28.2371C19.6921 28.2871 20.0921 28.3204 20.4921 28.3204Z" />
</svg>
