<svg width="16" height="16" viewBox="0 0 41 40"  xmlns="http://www.w3.org/2000/svg">
<path d="M27.1664 5H33.833C34.6664 5 35.4997 5.66667 35.4997 6.66667V13.3333C35.4997 14.3333 34.833 15 33.833 15C32.833 15 32.1664 14.3333 32.1664 13.3333V10.1667L21.6664 21.1667C20.9997 21.8333 19.9997 21.8333 19.333 21.1667C18.6664 20.5 18.6664 19.5 19.333 18.8333L30.333 8.33333H27.1664C26.1664 8.33333 25.4997 7.66667 25.4997 6.66667C25.4997 5.66667 26.1664 5 27.1664 5Z" />
<path d="M30.5 21.6667C30.5 20.6667 31.1667 20 32.1667 20C33.1667 20 33.8333 20.6667 33.8333 21.6667V31.6667C33.8333 33.5 32.3333 35 30.5 35H8.83333C7 35 5.5 33.5 5.5 31.6667V9.99996C5.5 8.16663 7 6.66663 8.83333 6.66663H18.8333C19.8333 6.66663 20.5 7.33329 20.5 8.33329C20.5 9.33329 19.8333 9.99996 18.8333 9.99996H8.83333V31.6667H30.5V21.6667Z" />
</svg>
