<svg width="24" height="24" viewBox="0 0 41 40"  xmlns="http://www.w3.org/2000/svg">
<path fill-rule="evenodd" clip-rule="evenodd" d="M32.1667 4.99984V7.49984C32.1667 7.9665 31.8 8.33317 31.3333 8.33317H30.5V3.29984C30.4833 2.39984 29.75 1.6665 28.8333 1.6665C27.9167 1.6665 27.1667 2.4165 27.1667 3.33317V4.99984H15.5V7.49984C15.5 7.9665 15.1333 8.33317 14.6667 8.33317H13.8333V3.33317C13.8333 2.4165 13.0833 1.6665 12.1667 1.6665C11.25 1.6665 10.5 2.4165 10.5 3.33317V4.99984H8.83333C7 4.99984 5.5 6.49984 5.5 8.33317V31.6665C5.5 33.4998 7 34.9998 8.83333 34.9998H32.1667C34 34.9998 35.5 33.4998 35.5 31.6665V8.33317C35.5 6.49984 34 4.99984 32.1667 4.99984ZM8.83333 31.6665V13.3332H32.1667V31.6665H8.83333ZM13.8336 21.6665C12.917 21.6665 12.167 22.4165 12.167 23.3332V26.6665C12.167 27.5832 12.917 28.3332 13.8336 28.3332H17.167C18.0836 28.3332 18.8336 27.5832 18.8336 26.6665V23.3332C18.8336 22.4165 18.0836 21.6665 17.167 21.6665H13.8336Z" />
</svg>
