<svg width="24" height="24" viewBox="0 0 41 40"  xmlns="http://www.w3.org/2000/svg">
<path d="M33.8339 8.38951C33.8339 7.38951 34.5006 6.72285 35.5006 6.72285C36.5006 6.72285 37.1673 7.38951 37.1673 8.38951V15.0562C37.1673 16.0562 36.5006 16.7228 35.5006 16.7228H28.8339C27.8339 16.7228 27.1673 16.0562 27.1673 15.0562C27.1673 14.0562 27.8339 13.3895 28.8339 13.3895H31.6673C30.3339 11.7228 29.0006 10.2228 27.3339 9.05618C25.0006 7.38951 22.3339 6.55618 19.5006 6.72285C16.6673 6.88951 14.0006 8.05618 11.8339 9.88951C9.66727 11.7228 8.16727 14.3895 7.5006 17.0562C7.33394 18.0562 6.33394 18.5562 5.5006 18.3895C4.66727 18.2228 4.0006 17.2228 4.33394 16.3895C5.0006 12.8895 7.0006 9.72285 9.66727 7.38951C12.3339 5.05618 15.8339 3.72285 19.3339 3.38951C22.8339 3.05618 26.5006 4.22285 29.3339 6.22285C31.1673 7.55618 32.6673 9.05618 33.8339 10.8895V8.38951Z" />
<path d="M33.5007 23.0313C33.6673 22.0313 34.6673 21.5313 35.5007 21.6979C36.334 22.0313 37.0007 22.8646 36.834 23.6979C36.1673 27.1979 34.1673 30.3646 31.5007 32.6979C28.834 35.0313 25.334 36.5313 21.834 36.6979C18.1673 37.0313 14.5007 35.8646 11.6673 33.8646C9.83398 32.5313 8.33398 31.0313 7.16732 29.1979V31.6979C7.16732 32.6979 6.50065 33.3646 5.50065 33.3646C4.50065 33.3646 3.83398 32.6979 3.83398 31.6979V25.0313C3.83398 24.0313 4.50065 23.3646 5.50065 23.3646H12.1673C13.1673 23.3646 13.834 24.0313 13.834 25.0313C13.834 26.0313 13.1673 26.6979 12.1673 26.6979H9.33398C10.6673 28.3646 12.0007 29.8646 13.6673 31.0313C16.0007 32.6979 18.6673 33.5313 21.5007 33.3646C24.334 33.1979 27.0007 32.0313 29.1673 30.1979C31.334 28.3646 32.834 25.8646 33.5007 23.0313Z" />
</svg>
