<svg width="10" height="10" viewBox="0 0 41 40"  xmlns="http://www.w3.org/2000/svg">
<path d="M20.5007 17.6427L24.0362 14.1072C24.6844 13.459 25.745 13.459 26.3933 14.1072C27.0414 14.7553 27.0414 15.816 26.3932 16.4642L22.8576 19.9997L26.3932 23.5352C27.0414 24.1834 27.0414 25.2441 26.3933 25.8922C25.7451 26.5404 24.6844 26.5404 24.0362 25.8922L20.5007 22.3567L16.9651 25.8922C16.3169 26.5404 15.2563 26.5404 14.6081 25.8923C13.9599 25.2441 13.9599 24.1834 14.6081 23.5352L18.1437 19.9997L14.6081 16.4642C13.9599 15.816 13.9599 14.7553 14.6081 14.1071C15.2563 13.459 16.3169 13.459 16.9651 14.1072L20.5007 17.6427Z" />
<path fill-rule="evenodd" clip-rule="evenodd" d="M3.83398 19.9997C3.83398 10.7997 11.3007 3.33301 20.5007 3.33301C29.7007 3.33301 37.1673 10.7997 37.1673 19.9997C37.1673 29.1997 29.7007 36.6663 20.5007 36.6663C11.3007 36.6663 3.83398 29.1997 3.83398 19.9997ZM7.16732 19.9997C7.16732 27.3497 13.1507 33.333 20.5007 33.333C27.8507 33.333 33.834 27.3497 33.834 19.9997C33.834 12.6497 27.8507 6.66634 20.5007 6.66634C13.1507 6.66634 7.16732 12.6497 7.16732 19.9997Z" />
</svg>
