<svg width="20" height="20" viewBox="0 0 41 40" fill="none" xmlns="http://www.w3.org/2000/svg">
<path d="M6.83333 4.81876C5.88986 4.81876 5.125 5.53509 5.125 6.41876V12.8188C5.125 13.7024 5.88986 14.4188 6.83333 14.4188C7.77681 14.4188 8.54167 13.7024 8.54167 12.8188V9.84474L14.555 15.9068C14.5721 15.9388 14.6062 15.9708 14.6404 15.9868C15.3237 16.5947 16.4 16.5467 17.0491 15.9068C17.6983 15.2668 17.6471 14.2588 16.9637 13.6508L10.4913 8.01876H13.6667C14.6101 8.01876 15.375 7.3024 15.375 6.41876C15.375 5.53509 14.6101 4.81876 13.6667 4.81876H6.83333Z" fill="#121212"/>
<path d="M27.3333 4.81876C26.3898 4.81876 25.625 5.53509 25.625 6.41876C25.625 7.3024 26.3898 8.01876 27.3333 8.01876H30.509L24.0363 13.6509C24.0142 13.6613 23.9992 13.6783 23.9823 13.6976C23.9729 13.7083 23.963 13.7196 23.9508 13.7309C23.3017 14.3709 23.3529 15.3789 24.0363 15.9869C24.7196 16.5949 25.7958 16.5469 26.445 15.9069L32.4583 9.84487V12.8188C32.4583 13.7024 33.2232 14.4188 34.1667 14.4188C35.1102 14.4188 35.875 13.7024 35.875 12.8188V6.41876C35.875 5.53509 35.1102 4.81876 34.1667 4.81876H27.3333Z" fill="#121212"/>
<path d="M34.1667 24.0187C35.1102 24.0187 35.875 24.735 35.875 25.6187V32.0187C35.875 32.9024 35.1102 33.6187 34.1667 33.6187H27.3333C26.3898 33.6187 25.625 32.9024 25.625 32.0187C25.625 31.135 26.3898 30.4187 27.3333 30.4187H30.5083L24.0363 24.7871C23.3529 24.1791 23.3017 23.171 23.9508 22.531C24.6 21.891 25.6763 21.8431 26.3596 22.4511C26.3717 22.4624 26.3837 22.4718 26.3951 22.4805C26.4158 22.4965 26.4339 22.5104 26.445 22.531L32.4583 28.5931V25.6187C32.4583 24.735 33.2232 24.0187 34.1667 24.0187Z" fill="#121212"/>
<path d="M8.54167 25.6187C8.54167 24.735 7.77681 24.0187 6.83333 24.0187C5.88986 24.0187 5.125 24.735 5.125 25.6187V32.0187C5.125 32.9024 5.88986 33.6187 6.83333 33.6187H13.6667C14.6101 33.6187 15.375 32.9024 15.375 32.0187C15.375 31.135 14.6101 30.4187 13.6667 30.4187H10.4917L16.9638 24.7871C16.9858 24.7768 17.0008 24.7598 17.0178 24.7403C17.0271 24.7298 17.0371 24.7184 17.0492 24.7071C17.6983 24.0671 17.6471 23.0591 16.9638 22.4511C16.2804 21.8431 15.2042 21.891 14.555 22.531L8.54167 28.5931V25.6187Z" fill="#121212"/>
</svg>
