<svg width="12" height="12" viewBox="0 0 41 40"  xmlns="http://www.w3.org/2000/svg">
<path d="M33.6497 15.9175C33.3664 15.3509 32.7997 15.0009 32.1664 15.0009H24.0497L25.4831 3.5342C25.5831 2.80087 25.1664 2.0842 24.483 1.80087C23.7997 1.51753 23.0164 1.70087 22.5331 2.2842L7.53305 20.6175C7.13305 21.1175 7.04972 21.8009 7.31638 22.3842C7.59972 22.9675 8.18305 23.3342 8.81639 23.3342H18.3997L15.5164 36.3009C15.3497 37.0675 15.7331 37.8509 16.4497 38.1675C16.6664 38.2675 16.9164 38.3175 17.1497 38.3175C17.6664 38.3175 18.1664 38.0842 18.4831 37.6509L33.4831 17.6509C33.8831 17.1675 33.9331 16.4842 33.6497 15.9175Z" />
</svg>
