<svg width="18" height="18" viewBox="0 0 41 40"  xmlns="http://www.w3.org/2000/svg">
<path d="M35.5007 18.3259H9.51732L16.6673 11.172C17.3173 10.5217 17.3173 9.47112 16.6673 8.82077C16.0173 8.17042 14.9673 8.17042 14.3173 8.82077L4.31732 18.8261C4.16732 18.9762 4.05065 19.1596 3.96732 19.3597C3.90065 19.5265 3.86732 19.7266 3.85065 19.91C3.85065 19.9267 3.83398 19.9601 3.83398 19.9934C3.83398 20.0434 3.85065 20.0768 3.86732 20.1268C3.88398 20.2936 3.90065 20.477 3.96732 20.6271C4.05065 20.8439 4.16732 21.0273 4.33398 21.1774L14.334 31.1827C14.6507 31.4996 15.0673 31.6663 15.5007 31.6663C15.934 31.6663 16.3507 31.4996 16.684 31.1827C17.334 30.5324 17.334 29.4818 16.684 28.8315L9.51732 21.661H35.5007C36.4173 21.661 37.1673 20.9106 37.1673 19.9934C37.1673 19.0763 36.4173 18.3259 35.5007 18.3259Z" />
</svg>
