<svg width="16" height="16" viewBox="0 0 16 16" fill="none" xmlns="http://www.w3.org/2000/svg">
<path d="M3.44703 5.9998H11.7723L10.7966 6.7998C10.5365 7.06644 10.5365 7.46644 10.7966 7.73312C11.0568 7.9998 11.447 7.9998 11.7072 7.73312L13.7235 5.73312C13.7885 5.5998 13.8535 5.46644 13.8535 5.33312C13.8535 5.26644 13.8535 5.13312 13.7235 4.9998C13.7235 4.93313 13.6584 4.86644 13.5934 4.7998L11.6421 2.79979C11.382 2.59979 10.9918 2.59979 10.7316 2.86646C10.5365 3.13312 10.5365 3.53312 10.7966 3.79979L11.7723 4.66645H3.44703C3.12183 4.66645 2.79663 4.93312 2.79663 5.33312C2.79663 5.73312 3.12183 5.9998 3.44703 5.9998Z" fill="#121212"/>
<path d="M12.5528 9.99974H4.22753L5.20314 9.19974C5.46331 8.9331 5.46331 8.5331 5.20314 8.26642C4.943 7.99974 4.55276 7.99974 4.29258 8.26642L2.27632 10.2664C2.21128 10.3997 2.14624 10.5331 2.14624 10.6664C2.14624 10.7331 2.14624 10.8664 2.27632 10.9997C2.27632 11.0664 2.34136 11.1331 2.4064 11.1997L4.35764 13.1997C4.61777 13.3997 5.00802 13.3997 5.26819 13.1331C5.46331 12.8664 5.46331 12.4664 5.20314 12.1997L4.22753 11.3331H12.5528C12.8779 11.3331 13.2031 11.0664 13.2031 10.6664C13.2031 10.2664 12.8779 9.99974 12.5528 9.99974Z" fill="#121212"/>
</svg>
