<svg width="20" height="20" viewBox="0 0 41 40"  xmlns="http://www.w3.org/2000/svg">
<path d="M19.8333 26.4997C19.6667 26.4997 19.5 26.333 19.3333 26.1663L12.6667 19.4997C12 18.833 12 17.833 12.6667 17.1663C13.3333 16.4997 14.3333 16.4997 15 17.1663L18.8333 20.9997V4.99967C18.8333 3.99967 19.5 3.33301 20.5 3.33301C21.5 3.33301 22.1667 3.99967 22.1667 4.99967V20.9997L26 17.1663C26.6667 16.4997 27.6667 16.4997 28.3333 17.1663C29 17.833 29 18.833 28.3333 19.4997L21.6667 26.1663C21.5833 26.2497 21.5 26.2913 21.4167 26.333C21.3333 26.3747 21.25 26.4163 21.1667 26.4997C21 26.6663 20.6667 26.6663 20.5 26.6663C20.3333 26.6663 20 26.6663 19.8333 26.4997Z" />
<path d="M32.1667 26.6664C32.1667 25.6664 32.8333 24.9998 33.8333 24.9998C34.8333 24.9998 35.5 25.6664 35.5 26.6664V31.6664C35.5 33.4998 34 34.9998 32.1667 34.9998H8.83333C7 34.9998 5.5 33.4998 5.5 31.6664V26.6664C5.5 25.6664 6.16667 24.9998 7.16667 24.9998C8.16667 24.9998 8.83333 25.6664 8.83333 26.6664V31.6664H32.1667V26.6664Z" />
</svg>