<svg width="40" height="40" viewBox="0 0 40 40"  xmlns="http://www.w3.org/2000/svg">
<path d="M28.4387 16.0762C29.0332 15.3736 28.9456 14.3219 28.2429 13.7274C27.5402 13.1328 26.4886 13.2204 25.894 13.9231L17.8974 23.3737L15.0115 20.4878C14.3606 19.837 13.3054 19.837 12.6545 20.4878C12.0036 21.1387 12.0036 22.194 12.6545 22.8449L16.8212 27.0115C17.1507 27.3411 17.6033 27.5176 18.0689 27.4982C18.5346 27.4789 18.9709 27.2654 19.272 26.9096L28.4387 16.0762Z" />
<path fill-rule="evenodd" clip-rule="evenodd" d="M37.1663 19.9997C37.1663 29.2044 29.7044 36.6663 20.4997 36.6663C11.2949 36.6663 3.83301 29.2044 3.83301 19.9997C3.83301 10.7949 11.2949 3.33301 20.4997 3.33301C29.7044 3.33301 37.1663 10.7949 37.1663 19.9997ZM33.833 19.9997C33.833 27.3635 27.8635 33.333 20.4997 33.333C13.1359 33.333 7.16634 27.3635 7.16634 19.9997C7.16634 12.6359 13.1359 6.66634 20.4997 6.66634C27.8635 6.66634 33.833 12.6359 33.833 19.9997Z" />
</svg>
