<svg width="16" height="16" viewBox="0 0 41 40"  xmlns="http://www.w3.org/2000/svg">
<path d="M22.5827 13.7501C22.5827 14.9007 21.65 15.8334 20.4994 15.8334C19.3488 15.8334 18.416 14.9007 18.416 13.7501C18.416 12.5995 19.3488 11.6667 20.4994 11.6667C21.65 11.6667 22.5827 12.5995 22.5827 13.7501Z" />
<path fill-rule="evenodd" clip-rule="evenodd" d="M3.83301 20.0002C3.83301 10.8002 11.2997 3.3335 20.4997 3.3335C29.6997 3.3335 37.1663 10.8002 37.1663 20.0002C37.1663 29.2002 29.6997 36.6668 20.4997 36.6668C11.2997 36.6668 3.83301 29.2002 3.83301 20.0002ZM7.16634 20.0002C7.16634 27.3502 13.1497 33.3335 20.4997 33.3335C27.8497 33.3335 33.833 27.3502 33.833 20.0002C33.833 12.6502 27.8497 6.66683 20.4997 6.66683C13.1497 6.66683 7.16634 12.6502 7.16634 20.0002Z" />
<path d="M18.833 20.0002C18.833 19.0797 19.5792 18.3335 20.4997 18.3335C21.4202 18.3335 22.1663 19.0797 22.1663 20.0002V26.6668C22.1663 27.5873 21.4202 28.3335 20.4997 28.3335C19.5792 28.3335 18.833 27.5873 18.833 26.6668V20.0002Z" />
</svg>
