<svg width="41" height="40" viewBox="0 0 41 40"  xmlns="http://www.w3.org/2000/svg">
<path d="M32.1667 5H18.8333C17 5 15.5 6.5 15.5 8.33333V10H13.8333C12 10 10.5 11.5 10.5 13.3333V15H8.83333C7 15 5.5 16.5 5.5 18.3333V31.6667C5.5 33.5 7 35 8.83333 35H22.1667C24 35 25.5 33.5 25.5 31.6667V30H27.1667C29 30 30.5 28.5 30.5 26.6667V25H32.1667C34 25 35.5 23.5 35.5 21.6667V8.33333C35.5 6.5 34 5 32.1667 5ZM8.83333 18.3333H10.5V26.6667C10.5 28.5 12 30 13.8333 30H22.1667V31.6667H8.83333V18.3333ZM13.8333 26.6667V13.3333H15.5V21.6667C15.5 23.5 17 25 18.8333 25H27.1667V26.6667H13.8333ZM18.8333 21.6667V8.33333H32.1667V21.6667H18.8333Z" />
</svg>
