<svg width="18" height="18" viewBox="0 0 24 24"  xmlns="http://www.w3.org/2000/svg">
<path d="M12.0979 2.04877C6.71253 2.04877 2.3418 6.4195 2.3418 11.8049C2.3418 17.1902 6.71253 21.561 12.0979 21.561C17.4833 21.561 21.854 17.1902 21.854 11.8049C21.854 6.4195 17.4833 2.04877 12.0979 2.04877ZM16.4101 14.5658C16.7906 14.9463 16.7906 15.561 16.4101 15.9415C16.215 16.1366 15.9711 16.2244 15.7174 16.2244C15.4637 16.2244 15.2198 16.1268 15.0247 15.9415L12.2637 13.1805L9.50277 15.9415C9.30765 16.1366 9.06375 16.2244 8.81009 16.2244C8.55643 16.2244 8.31253 16.1268 8.11741 15.9415C7.73692 15.561 7.73692 14.9463 8.11741 14.5658L10.8979 11.8049L8.13692 9.04389C7.75643 8.6634 7.75643 8.04877 8.13692 7.66828C8.51741 7.28779 9.13204 7.28779 9.51253 7.66828L12.2735 10.4293L15.0345 7.66828C15.415 7.28779 16.0296 7.28779 16.4101 7.66828C16.7906 8.04877 16.7906 8.6634 16.4101 9.04389L13.6589 11.8049L16.4101 14.5658Z" />
</svg>
