<svg width="41" height="40" viewBox="0 0 41 40" fill="none" xmlns="http://www.w3.org/2000/svg">
<path d="M21.1667 3.49968C21.3333 3.49968 21.5 3.66634 21.6667 3.83301L28.3333 10.4997C29 11.1663 29 12.1663 28.3333 12.833C27.6667 13.4997 26.6667 13.4997 26 12.833L22.1667 8.99967V24.9997C22.1667 25.9997 21.5 26.6663 20.5 26.6663C19.5 26.6663 18.8333 25.9997 18.8333 24.9997V8.99967L15 12.833C14.3333 13.4997 13.3333 13.4997 12.6667 12.833C12 12.1663 12 11.1663 12.6667 10.4997L19.3333 3.83301C19.4167 3.74967 19.5 3.70801 19.5833 3.66634C19.6667 3.62468 19.75 3.58301 19.8333 3.49968C20 3.33301 20.3333 3.33301 20.5 3.33301C20.6667 3.33301 21 3.33301 21.1667 3.49968Z" fill="#121212"/>
<path d="M32.1667 26.6663C32.1667 25.6663 32.8333 24.9997 33.8333 24.9997C34.8333 24.9997 35.5 25.6663 35.5 26.6663V31.6663C35.5 33.4997 34 34.9997 32.1667 34.9997H8.83333C7 34.9997 5.5 33.4997 5.5 31.6663V26.6663C5.5 25.6663 6.16667 24.9997 7.16667 24.9997C8.16667 24.9997 8.83333 25.6663 8.83333 26.6663V31.6663H32.1667V26.6663Z" fill="#121212"/>
</svg>
