<svg width="20" height="20" viewBox="0 0 41 40"  xmlns="http://www.w3.org/2000/svg">
<path d="M21.1333 3.45801C20.7333 3.29134 20.2666 3.29134 19.8666 3.45801C19.6666 3.54134 19.4666 3.65801 19.3166 3.80801L9.3166 13.808C8.6666 14.458 8.6666 15.508 9.3166 16.158C9.9666 16.808 11.0166 16.808 11.6666 16.158L18.8333 9.00801V34.9913C18.8333 35.908 19.5833 36.658 20.4999 36.658C21.4166 36.658 22.1666 35.908 22.1666 34.9913V9.00801L29.3166 16.158C29.9666 16.808 31.0166 16.808 31.6666 16.158C31.9999 15.8413 32.1666 15.408 32.1666 14.9913C32.1666 14.5747 31.9999 14.1413 31.6833 13.808L21.6833 3.80801C21.5333 3.65801 21.3333 3.54134 21.1333 3.45801Z" />
</svg>
