<svg width="21" height="18" viewBox="0 0 41 30"  xmlns="http://www.w3.org/2000/svg">
<path fill-rule="evenodd" clip-rule="evenodd" d="M29.667 12.4997C29.667 17.5497 25.5503 21.6663 20.5003 21.6663C15.4503 21.6663 11.3337 17.5497 11.3337 12.4997C11.3337 7.44967 15.4503 3.33301 20.5003 3.33301C25.5503 3.33301 29.667 7.44967 29.667 12.4997ZM26.3337 12.4997C26.3337 9.28301 23.717 6.66634 20.5003 6.66634C17.2837 6.66634 14.667 9.28301 14.667 12.4997C14.667 15.7163 17.2837 18.333 20.5003 18.333C23.717 18.333 26.3337 15.7163 26.3337 12.4997Z" />
<path d="M7.16699 33.333C7.16699 29.0997 12.9837 24.1663 20.5003 24.1663C28.017 24.1663 33.8337 29.0997 33.8337 33.333C33.8337 34.2497 33.0837 34.9997 32.167 34.9997C31.2503 34.9997 30.5003 34.2497 30.5003 33.333C30.5003 31.283 26.3837 27.4997 20.5003 27.4997C14.617 27.4997 10.5003 31.283 10.5003 33.333C10.5003 34.2497 9.75033 34.9997 8.83366 34.9997C7.91699 34.9997 7.16699 34.2497 7.16699 33.333Z" />
</svg>
