<svg width="16" height="16" viewBox="0 0 16 16" fill="none" xmlns="http://www.w3.org/2000/svg">
<path fill-rule="evenodd" clip-rule="evenodd" d="M8 15.5C12.1421 15.5 15.5 12.1421 15.5 8C15.5 3.85786 12.1421 0.5 8 0.5C3.85786 0.5 0.5 3.85786 0.5 8C0.5 12.1421 3.85786 15.5 8 15.5ZM11.5725 6.23446C11.8401 5.91825 11.8006 5.44502 11.4844 5.17746C11.1682 4.9099 10.6951 4.94934 10.4275 5.26554L6.82895 9.5183L5.53033 8.21968C5.23744 7.9268 4.76257 7.9268 4.46967 8.21968C4.17678 8.51255 4.17678 8.98745 4.46967 9.28032L6.34467 11.1553C6.49298 11.3037 6.69658 11.3831 6.9062 11.3743C7.11575 11.3656 7.31203 11.2696 7.44755 11.1094L11.5725 6.23446Z" fill="#1F7D08"/>
</svg>
