<svg width="24" height="24" viewBox="0 0 41 40"  xmlns="http://www.w3.org/2000/svg">
<path d="M19.8673 36.533C20.2673 36.6997 20.734 36.6997 21.134 36.533C21.334 36.4497 21.5173 36.333 21.684 36.1663L31.684 26.1663C32.334 25.5163 32.334 24.4663 31.684 23.8163C31.034 23.1663 29.984 23.1663 29.334 23.8163L22.1673 30.983V4.99967C22.1673 4.08301 21.4173 3.33301 20.5007 3.33301C19.584 3.33301 18.834 4.08301 18.834 4.99967V30.983L11.684 23.833C11.034 23.183 9.98398 23.183 9.33398 23.833C9.00065 24.1497 8.83398 24.5663 8.83398 24.9997C8.83398 25.433 9.00065 25.8497 9.31732 26.183L19.3173 36.183C19.4673 36.333 19.6673 36.4497 19.8673 36.533Z" />
</svg>
