<svg width="41" height="40" viewBox="0 0 41 40" fill="none" xmlns="http://www.w3.org/2000/svg">
<path d="M19.6667 27.5V24.85C18.7 24.5 18 23.5833 18 22.5C18 21.1167 19.1167 20 20.5 20C21.8834 20 23 21.1167 23 22.5C23 23.5833 22.3 24.5 21.3334 24.85V27.5C21.3334 27.9667 20.9667 28.3333 20.5 28.3333C20.0334 28.3333 19.6667 27.9667 19.6667 27.5Z" fill="#121212"/>
<path fill-rule="evenodd" clip-rule="evenodd" d="M29.667 13.3333H30.5003C32.3337 13.3333 33.8337 14.8333 33.8337 16.6667V25C33.8337 30.5167 29.3503 35 23.8337 35H17.167C11.6503 35 7.16699 30.5167 7.16699 25V16.6667C7.16699 14.8333 8.66699 13.3333 10.5003 13.3333H11.3337V11.6667C11.3337 6.61667 15.4503 2.5 20.5003 2.5C25.5503 2.5 29.667 6.61667 29.667 11.6667V13.3333ZM20.5003 5.83333C17.2837 5.83333 14.667 8.45 14.667 11.6667V13.3333H26.3337V11.6667C26.3337 8.45 23.717 5.83333 20.5003 5.83333ZM23.8337 31.6667C27.517 31.6667 30.5003 28.6833 30.5003 25V16.6667H10.5003V25C10.5003 28.6833 13.4837 31.6667 17.167 31.6667H23.8337Z" fill="#121212"/>
</svg>
