<svg width="12" height="12" viewBox="0 0 41 40"  xmlns="http://www.w3.org/2000/svg">
<path d="M37.033 20.6333C37.1997 20.2333 37.1997 19.7666 37.033 19.3666C36.9497 19.1666 36.833 18.9833 36.6663 18.8166L26.6663 8.8166C26.0163 8.1666 24.9663 8.1666 24.3163 8.8166C23.6663 9.4666 23.6663 10.5166 24.3163 11.1666L31.483 18.3333H5.49967C4.58301 18.3333 3.83301 19.0833 3.83301 19.9999C3.83301 20.9166 4.58301 21.6666 5.49967 21.6666H31.483L24.333 28.8166C23.683 29.4666 23.683 30.5166 24.333 31.1666C24.6497 31.4999 25.0663 31.6666 25.4997 31.6666C25.933 31.6666 26.3497 31.4999 26.683 31.1833L36.683 21.1833C36.833 21.0333 36.9497 20.8333 37.033 20.6333Z" />
</svg>
