<svg width="20" height="20" viewBox="0 0 41 40"  xmlns="http://www.w3.org/2000/svg">
<path fill-rule="evenodd" clip-rule="evenodd" d="M20.5069 8.33398C29.2569 8.33398 36.7236 17.2673 38.4569 19.5007C38.6902 19.8007 38.6902 20.2007 38.4569 20.5007C36.7236 22.734 29.2569 31.6673 20.5069 31.6673C11.7569 31.6673 4.27357 22.734 2.54023 20.5007C2.3069 20.2007 2.3069 19.8007 2.54023 19.5007C4.27357 17.2673 11.7569 8.33398 20.5069 8.33398ZM6.4569 20.0007C9.04024 22.9173 14.5902 28.334 20.5069 28.334C26.4236 28.334 31.9736 22.9173 34.5569 20.0007C31.9736 17.084 26.4236 11.6673 20.5069 11.6673C14.5902 11.6673 9.04024 17.084 6.4569 20.0007ZM15.5069 20.0007C15.5069 17.234 17.7403 15.0007 20.5069 15.0007V20.0007L24.0403 16.4673C24.9403 17.3673 25.5069 18.6173 25.5069 20.0007C25.5069 22.7673 23.2736 25.0007 20.5069 25.0007C17.7403 25.0007 15.5069 22.7673 15.5069 20.0007Z" fill="#231F20"/>
</svg>
