<svg width="40" height="40" viewBox="0 0 40 40" fill="none" xmlns="http://www.w3.org/2000/svg">
<path d="M16.3125 8.35865C16.8419 7.79515 16.8143 6.90915 16.2508 6.37971C15.6874 5.85026 14.8014 5.87787 14.272 6.44136L6.37973 14.8414C5.99743 15.2483 5.89344 15.8434 6.1151 16.3558C6.33676 16.8683 6.84169 17.2 7.4 17.2H21.3927C22.1658 17.2 22.7926 16.5732 22.7926 15.8C22.7926 15.0268 22.1658 14.4 21.3927 14.4H10.6363L16.3125 8.35865Z" fill="#121212"/>
<path d="M26.9893 14.4C26.2161 14.4 25.5893 15.0268 25.5893 15.8C25.5893 16.5732 26.2161 17.2 26.9893 17.2H32.586C33.3592 17.2 33.986 16.5732 33.986 15.8C33.986 15.0268 33.3592 14.4 32.586 14.4H26.9893Z" fill="#121212"/>
<path d="M17.2074 24.2C17.2074 23.4268 17.8342 22.8 18.6073 22.8H32.6C33.1581 22.8 33.6629 23.1315 33.8847 23.6436C34.1065 24.1557 34.0029 24.7507 33.6211 25.1577L25.7429 33.5577C25.214 34.1217 24.328 34.1501 23.7641 33.6211C23.2001 33.0922 23.1717 32.2062 23.7006 31.6423L29.3676 25.6H18.6073C17.8342 25.6 17.2074 24.9732 17.2074 24.2Z" fill="#121212"/>
<path d="M7.41401 22.8C6.64083 22.8 6.01405 23.4268 6.01405 24.2C6.01405 24.9732 6.64083 25.6 7.41401 25.6H13.0107C13.7839 25.6 14.4107 24.9732 14.4107 24.2C14.4107 23.4268 13.7839 22.8 13.0107 22.8H7.41401Z" fill="#121212"/>
</svg>
