<svg width="20" height="20" viewBox="0 0 24 24"  xmlns="http://www.w3.org/2000/svg">
<path d="M22.2288 17.01L13.9788 2.99C13.6188 2.37 12.9688 2 12.2588 2C11.5488 2 10.8888 2.37 10.5288 2.99L2.27876 17.01C1.90876 17.64 1.90876 18.39 2.26876 19.02C2.62876 19.65 3.27876 20.03 3.99876 20.03H20.4988C21.2288 20.03 21.8788 19.65 22.2388 19.02C22.5988 18.39 22.5988 17.64 22.2288 17.01ZM12.2588 14.78C12.9488 14.78 13.5088 15.34 13.5088 16.03C13.5088 16.72 12.9488 17.28 12.2588 17.28C11.5688 17.28 11.0088 16.72 11.0088 16.03C11.0088 15.34 11.5688 14.78 12.2588 14.78ZM11.2588 12.28V8.03C11.2588 7.48 11.7088 7.03 12.2588 7.03C12.8088 7.03 13.2588 7.48 13.2588 8.03V12.28C13.2588 12.83 12.8088 13.28 12.2588 13.28C11.7088 13.28 11.2588 12.83 11.2588 12.28Z" />
</svg>
