<svg width="20" height="20" viewBox="0 0 24 24"  xmlns="http://www.w3.org/2000/svg">
<path fill-rule="evenodd" clip-rule="evenodd" d="M12 22C17.5228 22 22 17.5228 22 12C22 6.47715 17.5228 2 12 2C6.47715 2 2 6.47715 2 12C2 17.5228 6.47715 22 12 22ZM16.7634 9.64594C17.1201 9.22434 17.0675 8.59336 16.6459 8.23661C16.2243 7.87987 15.5934 7.93245 15.2366 8.35406L10.4386 14.0244L8.70711 12.2929C8.31658 11.9024 7.68342 11.9024 7.29289 12.2929C6.90237 12.6834 6.90237 13.3166 7.29289 13.7071L9.79289 16.2071C9.99064 16.4049 10.2621 16.5108 10.5416 16.4991C10.821 16.4875 11.0827 16.3594 11.2634 16.1459L16.7634 9.64594Z" fill="#1F7D08"/>
</svg>
