<svg width="24" height="24" viewBox="0 0 24 24" fill="none" xmlns="http://www.w3.org/2000/svg">
<path d="M8.83333 9.99967C8.83333 10.9201 8.08714 11.6663 7.16667 11.6663C6.24619 11.6663 5.5 10.9201 5.5 9.99967C5.5 9.0792 6.24619 8.33301 7.16667 8.33301C8.08714 8.33301 8.83333 9.0792 8.83333 9.99967Z" fill="#121212"/>
<path d="M8.83333 19.9997C8.83333 20.9201 8.08714 21.6663 7.16667 21.6663C6.24619 21.6663 5.5 20.9201 5.5 19.9997C5.5 19.0792 6.24619 18.333 7.16667 18.333C8.08714 18.333 8.83333 19.0792 8.83333 19.9997Z" fill="#121212"/>
<path d="M8.83333 29.9997C8.83333 30.9201 8.08714 31.6663 7.16667 31.6663C6.24619 31.6663 5.5 30.9201 5.5 29.9997C5.5 29.0792 6.24619 28.333 7.16667 28.333C8.08714 28.333 8.83333 29.0792 8.83333 29.9997Z" fill="#121212"/>
<path d="M12.1667 9.99967C12.1667 9.0792 12.9129 8.33301 13.8333 8.33301H33.8333C34.7538 8.33301 35.5 9.0792 35.5 9.99967C35.5 10.9201 34.7538 11.6663 33.8333 11.6663H13.8333C12.9129 11.6663 12.1667 10.9201 12.1667 9.99967Z" fill="#121212"/>
<path d="M12.1667 19.9997C12.1667 19.0792 12.9129 18.333 13.8333 18.333H33.8333C34.7538 18.333 35.5 19.0792 35.5 19.9997C35.5 20.9201 34.7538 21.6663 33.8333 21.6663H13.8333C12.9129 21.6663 12.1667 20.9201 12.1667 19.9997Z" fill="#121212"/>
<path d="M12.1667 29.9997C12.1667 29.0792 12.9129 28.333 13.8333 28.333H33.8333C34.7538 28.333 35.5 29.0792 35.5 29.9997C35.5 30.9201 34.7538 31.6663 33.8333 31.6663H13.8333C12.9129 31.6663 12.1667 30.9201 12.1667 29.9997Z" fill="#121212"/>
</svg>
