<svg width="16" height="16" viewBox="0 0 41 40"  xmlns="http://www.w3.org/2000/svg">
<path d="M34.5007 29.333L28.6673 23.4997C29.834 21.4997 30.5007 19.1663 30.5007 16.6663C30.5007 9.33301 24.5007 3.33301 17.1673 3.33301C9.83398 3.33301 3.83398 9.33301 3.83398 16.6663C3.83398 23.9997 9.83398 29.9997 17.1673 29.9997C19.6673 29.9997 22.0007 29.333 24.0007 28.1663L29.834 33.9997C30.5007 34.6663 31.334 34.9997 32.1673 34.9997C33.0007 34.9997 33.834 34.6663 34.5007 33.9997C35.834 32.6663 35.834 30.6663 34.5007 29.333ZM17.1673 26.6663C11.6673 26.6663 7.16732 22.1663 7.16732 16.6663C7.16732 11.1663 11.6673 6.66634 17.1673 6.66634C22.6673 6.66634 27.1673 11.1663 27.1673 16.6663C27.1673 22.1663 22.6673 26.6663 17.1673 26.6663Z" />
</svg>
