<svg width="24" height="24" viewBox="0 0 41 40"  xmlns="http://www.w3.org/2000/svg">
<path d="M36.383 23.7503L34.533 22.117C34.633 21.417 34.6996 20.717 34.6996 20.0003C34.6996 19.2837 34.633 18.5837 34.533 17.8837L36.383 16.2503C37.283 15.467 37.483 14.1503 36.8997 13.117L34.2496 8.53366C33.6496 7.50033 32.3996 7.03366 31.283 7.41699L28.9496 8.21699C27.8496 7.35033 26.6163 6.63366 25.283 6.10033L24.7997 3.68366C24.5663 2.51699 23.533 1.66699 22.3496 1.66699H17.0496C15.8663 1.66699 14.833 2.51699 14.5996 3.68366L14.1163 6.08366C12.783 6.61699 11.5663 7.33366 10.4496 8.20033L8.11631 7.41699C6.99965 7.03366 5.74965 7.50033 5.14965 8.53366L2.49965 13.1337C1.89965 14.167 2.11631 15.4837 3.01631 16.267L4.86631 17.9003C4.76631 18.6003 4.69965 19.3003 4.69965 20.017C4.69965 20.7337 4.76631 21.4337 4.86631 22.1337L3.01631 23.767C2.11631 24.5503 1.89965 25.867 2.49965 26.9003L5.14965 31.467C5.59965 32.2503 6.44965 32.717 7.31631 32.717C7.58298 32.717 7.84965 32.667 8.11631 32.5837L10.4496 31.7837C11.5496 32.6503 12.783 33.367 14.1163 33.9003L14.5996 36.317C14.833 37.4837 15.8663 38.3337 17.0496 38.3337H22.3496C23.533 38.3337 24.5663 37.4837 24.7997 36.317L25.283 33.9003C26.6163 33.367 27.833 32.6503 28.9496 31.7837L31.2996 32.5837C31.5663 32.667 31.833 32.717 32.0996 32.717C32.9663 32.717 33.8163 32.2503 34.2663 31.467L35.0997 30.0003L36.8997 26.8837C37.4997 25.8503 37.283 24.5337 36.383 23.7503ZM19.6996 35.0003C19.0163 35.0003 18.3496 34.9337 17.6996 34.8503L16.9996 31.3337C16.1163 31.117 15.283 30.817 14.483 30.417C14.233 30.2837 13.9663 30.1503 13.7163 30.0003C13.5663 29.917 13.433 29.8337 13.283 29.7337C12.533 29.2337 11.8496 28.6503 11.233 28.0003L7.83298 29.1503C7.01631 28.1003 6.33298 26.9503 5.81631 25.7003L8.53298 23.3337C8.28298 22.4837 8.13298 21.6003 8.08298 20.7003C8.04965 20.467 8.03298 20.2337 8.03298 20.0003C8.03298 19.767 8.04965 19.5337 8.06631 19.3003C8.13298 18.3837 8.28298 17.5003 8.53298 16.667L5.83298 14.3003C6.34965 13.0503 7.03298 11.9003 7.84965 10.8503L11.233 12.0003C11.8496 11.3503 12.533 10.767 13.283 10.267C13.6663 10.017 14.083 9.78366 14.4996 9.58366C15.283 9.18366 16.1163 8.86699 16.9996 8.66699L17.6996 5.15033C18.3663 5.06699 19.0163 5.00033 19.6996 5.00033C20.383 5.00033 21.033 5.06699 21.6996 5.15033L22.3997 8.66699C23.283 8.88366 24.1163 9.18366 24.9163 9.58366C25.333 9.80033 25.733 10.017 26.133 10.2837C26.883 10.7837 27.5663 11.367 28.183 12.017L31.583 10.867C32.3996 11.917 33.083 13.067 33.5997 14.317L30.883 16.667C31.133 17.517 31.283 18.4003 31.333 19.3003C31.3496 19.5337 31.3663 19.767 31.3663 20.0003C31.3663 20.2337 31.3496 20.467 31.333 20.7003C31.283 21.617 31.133 22.5003 30.883 23.3337L33.583 25.7003C33.0663 26.9503 32.383 28.1003 31.5663 29.1503L28.1663 28.0003C27.5497 28.6503 26.8663 29.2337 26.1163 29.7337C25.983 29.8337 25.833 29.917 25.683 30.0003C25.433 30.1503 25.1663 30.3003 24.8997 30.4337C24.1163 30.8337 23.2663 31.1337 22.383 31.3503L21.683 34.867C21.0496 34.9337 20.383 35.0003 19.6996 35.0003Z" />
<path d="M19.6995 15.0003C22.4495 15.0003 24.6995 17.2503 24.6995 20.0003C24.6995 22.7503 22.4495 25.0003 19.6995 25.0003C16.9495 25.0003 14.6995 22.7503 14.6995 20.0003C14.6995 17.2503 16.9495 15.0003 19.6995 15.0003ZM19.6995 11.667C15.0995 11.667 11.3662 15.4003 11.3662 20.0003C11.3662 24.6003 15.0995 28.3337 19.6995 28.3337C24.2995 28.3337 28.0329 24.6003 28.0329 20.0003C28.0329 15.4003 24.2995 11.667 19.6995 11.667Z" />
</svg>
