<svg width="34" height="34" viewBox="0 0 34 34" fill="none" xmlns="http://www.w3.org/2000/svg">
<path fill-rule="evenodd" clip-rule="evenodd" d="M17 33.6668C26.2047 33.6668 33.6667 26.2048 33.6667 17.0002C33.6667 7.79541 26.2047 0.333496 17 0.333496C7.79529 0.333496 0.333374 7.79541 0.333374 17.0002C0.333374 26.2048 7.79529 33.6668 17 33.6668ZM24.939 13.0767C25.5335 12.3741 25.4459 11.3224 24.7432 10.7278C24.0405 10.1333 22.989 10.2209 22.3944 10.9236L14.3977 20.3742L11.5119 17.4883C10.861 16.8375 9.80574 16.8375 9.15486 17.4883C8.50399 18.1392 8.50399 19.1945 9.15486 19.8453L13.3215 24.012C13.6511 24.3417 14.1035 24.5182 14.5694 24.4987C15.035 24.4793 15.4712 24.2658 15.7724 23.91L24.939 13.0767Z" fill="#1F7D08"/>
</svg>
