<svg width="24" height="24" viewBox="0 0 41 40"  xmlns="http://www.w3.org/2000/svg">
<path fill-rule="evenodd" clip-rule="evenodd" d="M33.8333 8.33366H26.3333V5.00033C26.3333 3.16699 24.8333 1.66699 23 1.66699H18C16.1667 1.66699 14.6667 3.16699 14.6667 5.00033V8.33366H7.16667C6.25 8.33366 5.5 9.08366 5.5 10.0003C5.5 10.917 6.25 11.667 7.16667 11.667H9.03333L10.3167 33.5337C10.4167 35.3003 11.8833 36.667 13.65 36.667H27.3667C29.1333 36.667 30.5833 35.2837 30.7 33.5337L31.9667 11.667H33.8333C34.75 11.667 35.5 10.917 35.5 10.0003C35.5 9.08366 34.75 8.33366 33.8333 8.33366ZM18 5.00033H23V8.33366H18V5.00033ZM27.35 33.3337H13.65L12.3667 11.667H28.6333L27.35 33.3337Z" />
</svg>
