<svg width="12" height="13" viewBox="0 0 12 13" fill="none" xmlns="http://www.w3.org/2000/svg">
<path d="M0.878052 7.5835C0.878052 10.5002 3.15449 12.8335 6 12.8335C8.84552 12.8335 11.122 10.5002 11.122 7.5835C11.122 6.5335 10.8374 5.4835 10.2114 4.6085C10.0406 4.37515 9.69918 4.2585 9.41464 4.49184C9.18698 4.66684 9.1301 5.01684 9.30083 5.25015C9.7561 5.95015 9.98375 6.76684 9.98375 7.5835C9.98375 9.8585 8.21952 11.6668 6 11.6668C3.78049 11.6668 2.01626 9.8585 2.01626 7.5835C2.01626 5.42515 3.66668 3.61684 5.77235 3.50015L5.03253 4.2585C4.80488 4.49184 4.80488 4.84184 5.03253 5.07515C5.14634 5.19184 5.26015 5.25015 5.43089 5.25015C5.60162 5.25015 5.71546 5.19184 5.82927 5.07515L7.53659 3.32516C7.76424 3.09183 7.76424 2.74183 7.53659 2.50849L5.82927 0.758494C5.60162 0.525163 5.26015 0.525163 5.03253 0.758494C4.80488 0.991829 4.80488 1.34183 5.03253 1.57516L5.77235 2.33349C3.04064 2.45016 0.878052 4.7835 0.878052 7.5835Z" fill="#6E6E6E"/>
</svg>
