<svg width="24" height="24" viewBox="0 0 41 40"  xmlns="http://www.w3.org/2000/svg">
<path d="M35.5013 8.33301H5.5013C3.66797 8.33301 2.16797 9.83301 2.16797 11.6663V28.333C2.16797 30.1663 3.66797 31.6663 5.5013 31.6663H35.5013C37.3346 31.6663 38.8346 30.1663 38.8346 28.333V11.6663C38.8346 9.83301 37.3346 8.33301 35.5013 8.33301ZM32.8346 11.6663L20.5013 21.333L8.16797 11.833L32.8346 11.6663ZM5.5013 28.333V13.6663L19.5013 24.4997C19.8346 24.6663 20.168 24.833 20.5013 24.833C20.8346 24.833 21.168 24.6663 21.5013 24.4997L35.5013 13.6663V28.1663L5.5013 28.333Z" />
</svg>
