<svg width="16" height="16" viewBox="0 0 41 40" fill="none" xmlns="http://www.w3.org/2000/svg">
<path d="M21.183 20.0003L31.6663 9.51699C31.8206 9.36269 31.943 9.1795 32.0266 8.9779C32.1101 8.77629 32.153 8.56021 32.153 8.34199C32.153 8.12377 32.1101 7.90769 32.0266 7.70609C31.943 7.50448 31.8206 7.3213 31.6663 7.16699C31.512 7.01269 31.3289 6.89029 31.1272 6.80678C30.9256 6.72327 30.7096 6.68029 30.4913 6.68029C30.2731 6.68029 30.057 6.72327 29.8554 6.80678C29.6538 6.89029 29.4706 7.01269 29.3163 7.16699L17.6497 18.8337C17.4952 18.9878 17.3726 19.171 17.289 19.3726C17.2053 19.5742 17.1623 19.7904 17.1623 20.0087C17.1623 20.2269 17.2053 20.4431 17.289 20.6447C17.3726 20.8463 17.4952 21.0295 17.6497 21.1837L29.3163 32.8503C29.4706 33.0046 29.6538 33.127 29.8554 33.2105C30.057 33.294 30.2731 33.337 30.4913 33.337C30.7096 33.337 30.9256 33.294 31.1272 33.2105C31.3289 33.127 31.512 33.0046 31.6663 32.8503C31.8206 32.696 31.943 32.5128 32.0266 32.3112C32.1101 32.1096 32.153 31.8935 32.153 31.6753C32.153 31.4571 32.1101 31.241 32.0266 31.0394C31.943 30.8378 31.8206 30.6546 31.6663 30.5003L21.183 20.0003ZM10.4997 6.66699C9.58301 6.66699 8.83301 7.41699 8.83301 8.33366V31.667C8.83301 32.5837 9.58301 33.3337 10.4997 33.3337C11.4163 33.3337 12.1663 32.5837 12.1663 31.667V8.33366C12.1663 7.41699 11.4163 6.66699 10.4997 6.66699Z" fill="#121212"/>
</svg>
