<svg width="16" height="16" viewBox="0 0 16 16" fill="none" xmlns="http://www.w3.org/2000/svg">
<path d="M14.1982 9.50032L13.4763 8.847C13.5153 8.567 13.5413 8.287 13.5413 8.00032C13.5413 7.71368 13.5153 7.43368 13.4763 7.15368L14.1982 6.50032C14.5495 6.187 14.6275 5.66032 14.3999 5.247L13.3657 3.41366C13.1316 3.00033 12.6437 2.81366 12.208 2.96699L11.2974 3.28699C10.8681 2.94033 10.3868 2.65366 9.86654 2.44033L9.67793 1.47366C9.58685 1.00699 9.18361 0.666992 8.72179 0.666992H6.6535C6.19173 0.666992 5.78849 1.00699 5.6974 1.47366L5.5088 2.43366C4.98849 2.64699 4.51368 2.93366 4.07789 3.28033L3.16734 2.96699C2.73157 2.81366 2.24377 3.00033 2.00962 3.41366L0.975473 5.25368C0.741327 5.667 0.825877 6.19368 1.1771 6.507L1.89905 7.16032C1.86002 7.44032 1.83401 7.72032 1.83401 8.007C1.83401 8.29368 1.86002 8.57368 1.89905 8.85368L1.1771 9.507C0.825877 9.82032 0.741327 10.347 0.975473 10.7603L2.00962 12.587C2.18523 12.9003 2.51694 13.087 2.85514 13.087C2.95921 13.087 3.06328 13.067 3.16734 13.0337L4.07789 12.7137C4.50716 13.0603 4.98849 13.347 5.5088 13.5603L5.6974 14.527C5.78849 14.9937 6.19173 15.3337 6.6535 15.3337H8.72179C9.18361 15.3337 9.58685 14.9937 9.67793 14.527L9.86654 13.5603C10.3868 13.347 10.8617 13.0603 11.2974 12.7137L12.2145 13.0337C12.3186 13.067 12.4226 13.087 12.5267 13.087C12.8649 13.087 13.1966 12.9003 13.3722 12.587L13.6974 12.0003L14.3999 10.7537C14.634 10.3403 14.5495 9.81368 14.1982 9.50032ZM7.68765 14.0003C7.42099 14.0003 7.16082 13.9737 6.90716 13.9403L6.63399 12.5337C6.28929 12.447 5.9641 12.327 5.6519 12.167C5.55434 12.1137 5.45026 12.0603 5.3527 12.0003C5.29417 11.967 5.24215 11.9337 5.18361 11.8937C4.89093 11.6937 4.62423 11.4603 4.38361 11.2003L3.05677 11.6603C2.73807 11.2403 2.47141 10.7803 2.26978 10.2803L3.32994 9.33368C3.23238 8.99368 3.17385 8.64032 3.15433 8.28032C3.14133 8.187 3.13482 8.09368 3.13482 8.00032C3.13482 7.907 3.14133 7.81368 3.14783 7.72032C3.17385 7.35368 3.23238 7.00032 3.32994 6.667L2.27628 5.72032C2.47791 5.22032 2.74458 4.76032 3.06328 4.34032L4.38361 4.80032C4.62423 4.54032 4.89093 4.307 5.18361 4.107C5.33319 4.007 5.4958 3.91366 5.65838 3.83366C5.9641 3.67366 6.28929 3.54699 6.63399 3.46699L6.90716 2.06033C7.16734 2.02699 7.42099 2.00033 7.68765 2.00033C7.95434 2.00033 8.208 2.02699 8.46814 2.06033L8.74135 3.46699C9.08605 3.55366 9.41124 3.67366 9.72343 3.83366C9.88605 3.92033 10.0421 4.007 10.1982 4.11368C10.4909 4.31368 10.7576 4.547 10.9982 4.807L12.3251 4.347C12.6437 4.767 12.9104 5.227 13.1121 5.727L12.0519 6.667C12.1495 7.007 12.208 7.36032 12.2275 7.72032C12.234 7.81368 12.2405 7.907 12.2405 8.00032C12.2405 8.09368 12.234 8.187 12.2275 8.28032C12.208 8.647 12.1495 9.00032 12.0519 9.33368L13.1056 10.2803C12.9039 10.7803 12.6373 11.2403 12.3186 11.6603L10.9917 11.2003C10.7511 11.4603 10.4844 11.6937 10.1917 11.8937C10.1397 11.9337 10.0812 11.967 10.0226 12.0003C9.92507 12.0603 9.821 12.1203 9.71696 12.1737C9.41124 12.3337 9.07953 12.4537 8.73483 12.5403L8.46166 13.947C8.21448 13.9737 7.95434 14.0003 7.68765 14.0003Z" fill="#121212"/>
<path d="M7.68757 6.00031C8.76074 6.00031 9.63879 6.90031 9.63879 8.00031C9.63879 9.10031 8.76074 10.0003 7.68757 10.0003C6.6144 10.0003 5.73635 9.10031 5.73635 8.00031C5.73635 6.90031 6.6144 6.00031 7.68757 6.00031ZM7.68757 4.66699C5.89244 4.66699 4.43555 6.16031 4.43555 8.00031C4.43555 9.84031 5.89244 11.3337 7.68757 11.3337C9.48269 11.3337 10.9396 9.84031 10.9396 8.00031C10.9396 6.16031 9.48269 4.66699 7.68757 4.66699Z" fill="#121212"/>
</svg>
