<svg width="16" height="16" viewBox="0 0 16 16" fill="none" xmlns="http://www.w3.org/2000/svg">
<path d="M7.7399 10.5997C7.67489 10.5997 7.60983 10.533 7.54478 10.4663L4.94318 7.79968C4.683 7.533 4.683 7.133 4.94318 6.86632C5.20332 6.59968 5.59356 6.59968 5.85373 6.86632L7.34966 8.39968V1.99967C7.34966 1.59967 7.60983 1.33301 8.00008 1.33301C8.39032 1.33301 8.6505 1.59967 8.6505 1.99967V8.39968L10.1464 6.86632C10.4066 6.59968 10.7968 6.59968 11.057 6.86632C11.3171 7.133 11.3171 7.533 11.057 7.79968L8.45537 10.4663C8.42283 10.4997 8.39032 10.5163 8.35781 10.533C8.32527 10.5497 8.29276 10.5663 8.26025 10.5997C8.1952 10.6663 8.06513 10.6663 8.00008 10.6663C7.93502 10.6663 7.80495 10.6663 7.7399 10.5997Z" fill="#121212"/>
<path d="M12.5528 10.6666C12.5528 10.2666 12.8129 10 13.2031 10C13.5934 10 13.8536 10.2666 13.8536 10.6666V12.6666C13.8536 13.4 13.2682 14 12.5528 14H3.44705C2.73161 14 2.14624 13.4 2.14624 12.6666V10.6666C2.14624 10.2666 2.4064 10 2.79665 10C3.18689 10 3.44705 10.2666 3.44705 10.6666V12.6666H12.5528V10.6666Z" fill="#121212"/>
</svg>
