<svg width="20" height="20" viewBox="0 0 41 40"  xmlns="http://www.w3.org/2000/svg">
<path d="M8.83316 15H30.1665L27.6665 17C26.9998 17.6666 26.9998 18.6666 27.6665 19.3333C28.3331 20 29.3331 20 29.9998 19.3333L35.1665 14.3333C35.3331 14 35.4998 13.6666 35.4998 13.3333C35.4998 13.1666 35.4998 12.8333 35.1665 12.5C35.1665 12.3333 34.9998 12.1666 34.8331 12L29.8331 6.99996C29.1665 6.49996 28.1665 6.49996 27.4998 7.16663C26.9998 7.83329 26.9998 8.83329 27.6665 9.49996L30.1665 11.6666H8.83316C7.99983 11.6666 7.1665 12.3333 7.1665 13.3333C7.1665 14.3333 7.99983 15 8.83316 15Z" />
<path d="M32.1667 24.999H10.8333L13.3333 22.999C14 22.3324 14 21.3324 13.3333 20.6657C12.6667 19.999 11.6667 19.999 11 20.6657L5.83333 25.6657C5.66667 25.999 5.5 26.3324 5.5 26.6657C5.5 26.8324 5.5 27.1657 5.83333 27.499C5.83333 27.6657 6 27.8324 6.16667 27.999L11.1667 32.999C11.8333 33.499 12.8333 33.499 13.5 32.8324C14 32.1657 14 31.1657 13.3333 30.499L10.8333 28.3324H32.1667C33 28.3324 33.8333 27.6657 33.8333 26.6657C33.8333 25.6657 33 24.999 32.1667 24.999Z" />
</svg>
