<svg width="16" height="16" viewBox="0 0 41 40"  xmlns="http://www.w3.org/2000/svg">
<path d="M20.9329 27.9669C22.0835 27.9669 23.0163 27.0341 23.0163 25.8835C23.0163 24.733 22.0835 23.8002 20.9329 23.8002C19.7823 23.8002 18.8496 24.733 18.8496 25.8835C18.8496 27.0341 19.7823 27.9669 20.9329 27.9669Z" />
<path d="M19.2666 20.4669V14.2169C19.2666 13.2835 20.0166 12.5502 20.9332 12.5502C21.8499 12.5502 22.5999 13.3002 22.5999 14.2169V20.4669C22.5999 21.3835 21.8499 22.1335 20.9332 22.1335C20.0166 22.1335 19.2666 21.3835 19.2666 20.4669Z" />
<path fill-rule="evenodd" clip-rule="evenodd" d="M37.5496 28.3502L23.7996 4.9835C23.1996 3.95016 22.1162 3.3335 20.9329 3.3335C19.7496 3.3335 18.6496 3.95016 18.0496 4.9835L4.29957 28.3502C3.6829 29.4002 3.6829 30.6502 4.2829 31.7002C4.8829 32.7502 5.96623 33.3835 7.16623 33.3835H34.6662C35.8829 33.3835 36.9662 32.7502 37.5662 31.7002C38.1662 30.6502 38.1662 29.4002 37.5496 28.3502ZM7.16623 30.0502L20.9162 6.66683L34.6662 30.0502H7.16623Z" />
</svg>
