<svg width="18" height="18" viewBox="0 0 40 40"  xmlns="http://www.w3.org/2000/svg">
<path d="M31.7715 5.99482L14.9718 5.90081C13.2118 5.89097 11.7637 7.32289 11.7539 9.08286L11.7405 11.4828L9.34049 11.4694C7.58052 11.4595 6.13249 12.8915 6.12263 14.6514L6.02863 31.4512C6.01877 33.2112 7.45069 34.6592 9.21066 34.669L26.0104 34.763C27.7704 34.773 29.2184 33.341 29.2283 31.581L29.2418 29.181L31.6416 29.1944C33.4016 29.2043 34.8496 27.7723 34.8595 26.0125L34.9534 9.21268C34.9634 7.45271 33.5315 6.00468 31.7715 5.99482ZM26.0283 31.563L9.22857 31.4691L9.32258 14.6693L11.7226 14.6828L11.6599 25.8826C11.65 27.6426 13.0819 29.0906 14.8419 29.1005L26.0418 29.163L26.0283 31.563ZM31.6595 25.9946L14.8598 25.9005L14.9538 9.10076L31.7536 9.19478L31.6595 25.9946Z" />
</svg>
