<svg width="24" height="24" viewBox="0 0 41 40"  xmlns="http://www.w3.org/2000/svg">
<path d="M12.9786 5.54046C12.6629 5.19608 12.2172 5 11.75 5C11.2828 5 10.8371 5.19608 10.5214 5.54046L5.93809 10.5405C5.3161 11.219 5.36194 12.2733 6.04047 12.8953C6.719 13.5172 7.77328 13.4714 8.39527 12.7929L10.0833 10.9513V20C10.0833 20.9205 10.8295 21.6667 11.75 21.6667C12.6705 21.6667 13.4167 20.9205 13.4167 20V10.9513L15.1048 12.7929C15.7267 13.4714 16.781 13.5172 17.4595 12.8953C18.1381 12.2733 18.1839 11.219 17.5619 10.5405L12.9786 5.54046Z" />
<path d="M23.5405 27.1047C24.219 26.4828 25.2733 26.5286 25.8953 27.2071L27.5833 29.0487V20C27.5833 19.0795 28.3295 18.3333 29.25 18.3333C30.1705 18.3333 30.9167 19.0795 30.9167 20V29.0487L32.6048 27.2071C33.2267 26.5286 34.281 26.4828 34.9595 27.1047C35.6381 27.7267 35.6839 28.781 35.0619 29.4595L30.4786 34.4595C30.1629 34.8039 29.7172 35 29.25 35C28.7828 35 28.3371 34.8039 28.0214 34.4595L23.4381 29.4595C22.8161 28.781 22.8619 27.7267 23.5405 27.1047Z" />
<path d="M11.75 28.3333C12.6667 28.3333 13.4167 27.5833 13.4167 26.6667C13.4167 25.75 12.6667 25 11.75 25C10.8333 25 10.0833 25.75 10.0833 26.6667C10.0833 27.5833 10.8333 28.3333 11.75 28.3333Z" />
<path d="M13.4167 33.3333C13.4167 34.25 12.6667 35 11.75 35C10.8333 35 10.0833 34.25 10.0833 33.3333C10.0833 32.4167 10.8333 31.6667 11.75 31.6667C12.6667 31.6667 13.4167 32.4167 13.4167 33.3333Z" />
<path d="M29.25 8.33333C30.1667 8.33333 30.9167 7.58333 30.9167 6.66667C30.9167 5.75 30.1667 5 29.25 5C28.3333 5 27.5833 5.75 27.5833 6.66667C27.5833 7.58333 28.3333 8.33333 29.25 8.33333Z" />
<path d="M30.9167 13.3333C30.9167 14.25 30.1667 15 29.25 15C28.3333 15 27.5833 14.25 27.5833 13.3333C27.5833 12.4167 28.3333 11.6667 29.25 11.6667C30.1667 11.6667 30.9167 12.4167 30.9167 13.3333Z" />
</svg>
