<svg width="41" height="40" viewBox="0 0 41 40" fill="none" xmlns="http://www.w3.org/2000/svg">
<path d="M19.8167 19.9998L9.33338 30.4831C9.02175 30.7948 8.84668 31.2174 8.84668 31.6581C8.84668 32.0988 9.02175 32.5215 9.33338 32.8331C9.64501 33.1448 10.0677 33.3198 10.5084 33.3198C10.9491 33.3198 11.3718 33.1448 11.6834 32.8331L23.35 21.1665C23.5046 21.0123 23.6271 20.8291 23.7108 20.6275C23.7944 20.4259 23.8375 20.2097 23.8375 19.9915C23.8375 19.7732 23.7944 19.557 23.7108 19.3554C23.6271 19.1538 23.5046 18.9706 23.35 18.8165L11.6834 7.14979C11.5291 6.99548 11.3459 6.87308 11.1443 6.78958C10.9427 6.70607 10.7266 6.66309 10.5084 6.66309C10.2902 6.66309 10.0741 6.70607 9.87248 6.78958C9.67087 6.87308 9.48768 6.99548 9.33338 7.14979C9.17908 7.30409 9.05668 7.48727 8.97317 7.68888C8.88966 7.89049 8.84668 8.10657 8.84668 8.32479C8.84668 8.543 8.88966 8.75909 8.97317 8.96069C9.05668 9.1623 9.17908 9.34548 9.33338 9.49979L19.8167 19.9998ZM30.5 33.3331C31.4167 33.3331 32.1667 32.5831 32.1667 31.6665V8.33312C32.1667 7.41645 31.4167 6.66645 30.5 6.66645C29.5834 6.66645 28.8334 7.41645 28.8334 8.33312V31.6665C28.8334 32.5831 29.5834 33.3331 30.5 33.3331Z" fill="#121212"/>
</svg>
