<svg width="24" height="24" viewBox="0 0 41 40"  xmlns="http://www.w3.org/2000/svg">
<path fill-rule="evenodd" clip-rule="evenodd" d="M32.1667 5H8.83333C7 5 5.5 6.5 5.5 8.33333V31.6667C5.5 33.5 7 35 8.83333 35H32.1667C34 35 35.5 33.5 35.5 31.6667V8.33333C35.5 6.5 34 5 32.1667 5ZM8.83333 31.6667V8.33333H32.1667V31.6667H8.83333ZM27.1667 11.6667H13.8333C12.8333 11.6667 12.1667 12.3333 12.1667 13.3333C12.1667 14.3333 12.8333 15 13.8333 15H27.1667C28.1667 15 28.8333 14.3333 28.8333 13.3333C28.8333 12.3333 28.1667 11.6667 27.1667 11.6667ZM13.8333 18.3333H27.1667C28.1667 18.3333 28.8333 19 28.8333 20C28.8333 21 28.1667 21.6667 27.1667 21.6667H13.8333C12.8333 21.6667 12.1667 21 12.1667 20C12.1667 19 12.8333 18.3333 13.8333 18.3333ZM13.8333 25H20.5C21.5 25 22.1667 25.6667 22.1667 26.6667C22.1667 27.6667 21.5 28.3333 20.5 28.3333H13.8333C12.8333 28.3333 12.1667 27.6667 12.1667 26.6667C12.1667 25.6667 12.8333 25 13.8333 25Z" />
</svg>
