<svg width="24" height="24" viewBox="0 0 41 40"  xmlns="http://www.w3.org/2000/svg">
<path fill-rule="evenodd" clip-rule="evenodd" d="M20.5002 12.5C20.5002 15.8333 18.1669 18.6667 15.1669 19.6667C14.5002 19.8333 13.8336 20 13.0002 20C12.643 20 12.3336 19.9521 12.0464 19.9077C11.7977 19.8692 11.5656 19.8333 11.3336 19.8333C8.00024 19 5.50024 16 5.50024 12.5C5.50024 8.33333 8.83357 5 13.0002 5C17.1669 5 20.5002 8.33333 20.5002 12.5ZM13.0002 8.33333C10.6669 8.33333 8.83357 10.1667 8.83357 12.5C8.83357 14.8333 10.6669 16.6667 13.0002 16.6667C15.3336 16.6667 17.1669 14.8333 17.1669 12.5C17.1669 10.1667 15.3336 8.33333 13.0002 8.33333Z" />
<path fill-rule="evenodd" clip-rule="evenodd" d="M35.5003 12.5C35.5003 15.6667 32.8337 18.3333 29.667 18.3333C26.5003 18.3333 23.8337 15.6667 23.8337 12.5C23.8337 9.33329 26.5003 6.66663 29.667 6.66663C32.8337 6.66663 35.5003 9.33329 35.5003 12.5ZM32.167 12.5C32.167 11.1667 31.0003 9.99996 29.667 9.99996C28.3337 9.99996 27.167 11.1667 27.167 12.5C27.167 13.8333 28.3337 15 29.667 15C31.0003 15 32.167 13.8333 32.167 12.5Z" />
<path d="M23.5002 22.6667C25.0002 21.5 27.0002 20.8333 29.3335 20.8333C34.3335 20.8333 38.8335 25 38.8335 28.3333C38.8335 29.1667 38.0002 30 37.1669 30C36.1669 30 35.5002 29.1667 35.5002 28.3333C35.5002 27.1667 32.8335 24.1667 29.3335 24.1667C28.1669 24.1667 27.0002 24.5 26.0002 25C25.3335 24.1667 24.5002 23.3333 23.5002 22.6667Z" />
<path d="M3.83366 33.3333C4.83366 33.3333 5.50033 32.6667 5.50033 31.6667C5.50033 28.5 9.33366 25.8333 13.8337 25.8333C18.3337 25.8333 22.167 28.5 22.167 31.6667C22.167 32.6667 22.8337 33.3333 23.8337 33.3333C24.8337 33.3333 25.5003 32.6667 25.5003 31.6667C25.5003 26.6667 20.3337 22.5 13.8337 22.5C7.33366 22.5 2.16699 26.6667 2.16699 31.6667C2.16699 32.6667 2.83366 33.3333 3.83366 33.3333Z" />
</svg>
