<svg width="24" height="24" viewBox="0 0 24 24" fill="none" xmlns="http://www.w3.org/2000/svg">
<g clip-path="url(#clip0_3200_9507)">
<path d="M12 22C17.5228 22 22 17.5228 22 12C22 6.47719 17.5228 2 12 2C6.47719 2 2 6.47719 2 12C2 17.5228 6.47719 22 12 22Z" fill="#2CA01C"/>
<path d="M4.77734 12C4.77734 13.0315 5.18707 14.0206 5.91639 14.7499C6.64571 15.4792 7.63488 15.889 8.66629 15.889H9.22177V14.4444H8.66629C8.34363 14.447 8.02366 14.3857 7.72482 14.264C7.42597 14.1423 7.15418 13.9627 6.92511 13.7354C6.69604 13.5082 6.51422 13.2378 6.39015 12.94C6.26607 12.6421 6.20219 12.3226 6.20219 12C6.20219 11.6773 6.26607 11.3578 6.39015 11.06C6.51422 10.7621 6.69604 10.4918 6.92511 10.2645C7.15418 10.0373 7.42597 9.85764 7.72482 9.73595C8.02366 9.61426 8.34363 9.55294 8.66629 9.55552H9.99959V17.1111C9.99971 17.4942 10.1519 17.8615 10.4228 18.1324C10.6936 18.4033 11.0609 18.5555 11.444 18.5557V8.11114H8.66629C8.15558 8.11112 7.64986 8.2117 7.17801 8.40712C6.70616 8.60255 6.27743 8.889 5.91629 9.25012C5.55515 9.61124 5.26868 10.04 5.07323 10.5118C4.87778 10.9836 4.77734 11.4893 4.77734 12ZM15.3329 8.11114H14.7775V9.55567H15.3329C15.9764 9.56295 16.5911 9.82369 17.0436 10.2813C17.4961 10.7389 17.7498 11.3565 17.7498 12C17.7498 12.6436 17.4961 13.2612 17.0436 13.7188C16.5911 14.1764 15.9764 14.4371 15.3329 14.4444H13.9996V6.88911C13.9997 6.69942 13.9623 6.51158 13.8897 6.33632C13.8172 6.16107 13.7108 6.00182 13.5766 5.86768C13.4425 5.73354 13.2833 5.62714 13.108 5.55454C12.9328 5.48195 12.7449 5.44458 12.5552 5.44458V15.8891H15.3329C16.3643 15.8891 17.3535 15.4794 18.0828 14.7501C18.8121 14.0208 19.2219 13.0316 19.2219 12.0002C19.2219 10.9688 18.8121 9.97964 18.0828 9.25033C17.3535 8.52102 16.3643 8.11114 15.3329 8.11114Z" fill="white"/>
</g>
<defs>
<clipPath id="clip0_3200_9507">
<rect width="20" height="20" fill="white" transform="translate(2 2)"/>
</clipPath>
</defs>
</svg>
