<svg width="16" height="18" viewBox="0 0 16 18" fill="none" xmlns="http://www.w3.org/2000/svg">
<path d="M7.17715 17.2928C7.23213 17.6922 7.57953 18 7.99989 18C8.45846 18 8.83021 17.6337 8.83021 17.1818V2.80004L14.0813 7.99528L14.1743 8.07469C14.4989 8.31301 14.9602 8.28755 15.2556 7.99768C15.5805 7.67882 15.5816 7.16077 15.258 6.84059L8.59955 0.252234C8.56142 0.213015 8.51937 0.177529 8.47401 0.146389C8.14976 -0.0766617 7.69994 -0.0452419 7.41106 0.240643L0.741932 6.84064L0.661737 6.93258C0.421253 7.25339 0.449045 7.70788 0.744461 7.99772C1.06942 8.31656 1.59515 8.31544 1.91871 7.99523L7.16957 2.79875V17.1818L7.17715 17.2928Z" fill="#24A148"/>
</svg>
