<svg width="16" height="16" viewBox="0 0 16 16" fill="none" xmlns="http://www.w3.org/2000/svg">
<path d="M1.3335 2.25255C1.3335 1.7447 1.73147 1.33301 2.22238 1.33301H13.7779C14.2689 1.33301 14.6668 1.7447 14.6668 2.25255V13.7468C14.6668 14.2547 14.2689 14.6663 13.7779 14.6663H2.22238C1.73147 14.6663 1.3335 14.2546 1.3335 13.7468V2.25255Z" fill="white"/>
<path fill-rule="evenodd" clip-rule="evenodd" d="M6.90244 1.33301H2.02456C1.64289 1.33301 1.3335 1.64241 1.3335 2.02407V13.9753C1.3335 14.3569 1.64289 14.6663 2.02456 14.6663H13.9758C14.3574 14.6663 14.6668 14.3569 14.6668 13.9753V2.02407C14.6668 1.64241 14.3574 1.33301 13.9758 1.33301H7.81948V1.61211C7.81948 1.68047 7.81948 9.81145 7.81948 9.9026V9.99374C7.7967 10.4267 7.65998 10.7684 7.39795 11.0305C6.88527 11.5432 5.99664 11.6115 5.22193 11.6115C4.17379 11.6115 2.76109 11.4748 2.52184 10.3469L2.48766 10.0621C2.47627 10.0051 2.47627 9.84563 2.47627 9.43549C2.47627 9.04814 2.47627 8.50129 2.47627 7.93165V3.53404C2.47627 3.26061 2.56741 3.03276 2.76109 2.83908C2.95477 2.6454 3.18262 2.55426 3.45605 2.55426L6.01942 2.56565L6.11056 2.58844V3.45429H3.5358C3.46744 3.45429 3.43326 3.48847 3.43326 3.53404C3.43326 3.67075 3.43326 3.73911 3.43326 3.73911V5.47081H5.37003V6.35944H3.43326V10.0051C3.45605 10.6431 4.40165 10.7684 5.19914 10.7684C5.55232 10.7571 6.30424 10.7571 6.64602 10.4153C6.73717 10.3241 6.82264 10.1532 6.90244 9.9026V1.33301Z" fill="#FF3366"/>
</svg>
