<svg width="20" height="20" viewBox="0 0 20 20" fill="none" xmlns="http://www.w3.org/2000/svg">
<path d="M9.31429 16.9107C9.36011 17.2435 9.64961 17.5 9.99991 17.5C10.3821 17.5 10.6918 17.1947 10.6918 16.8182V4.83339L15.0678 9.16275L15.1453 9.22893C15.4157 9.42753 15.8002 9.40631 16.0463 9.16475C16.3171 8.89904 16.318 8.46733 16.0483 8.20052L10.4996 2.71022C10.4679 2.67753 10.4328 2.64796 10.395 2.62201C10.1248 2.43614 9.74995 2.46232 9.50922 2.70056L3.95161 8.20056L3.88478 8.27717C3.68438 8.54451 3.70754 8.92325 3.95372 9.16479C4.22452 9.43048 4.66262 9.42955 4.93226 9.16271L9.30797 4.83231V16.8182L9.31429 16.9107Z" fill="none"/>
</svg>
