<svg width="20" height="20" viewBox="0 0 20 20" fill="none" xmlns="http://www.w3.org/2000/svg">
<path fill-rule="evenodd" clip-rule="evenodd" d="M10.6857 3.0893C10.6399 2.7565 10.3504 2.5 10.0001 2.5C9.61795 2.5 9.30816 2.80526 9.30816 3.18182V15.1666L4.93222 10.8372L4.85475 10.7711C4.58429 10.5725 4.19984 10.5937 3.95368 10.8352C3.6829 11.101 3.68199 11.5327 3.95165 11.7995L9.50037 17.2898C9.53215 17.3225 9.56719 17.352 9.60499 17.378C9.8752 17.5639 10.2501 17.5377 10.4908 17.2994L16.0484 11.7994L16.1152 11.7228C16.3156 11.4555 16.2925 11.0767 16.0463 10.8352C15.7755 10.5695 15.3374 10.5704 15.0677 10.8373L10.692 15.1677V3.18182L10.6857 3.0893Z" fill="none"/>
</svg>
