<svg width="20" height="20" viewBox="0 0 20 20" fill="none" xmlns="http://www.w3.org/2000/svg">
<path d="M10.3034 3.33337C13.2493 3.33337 15.7088 5.54005 16.2904 8.47867L17.1983 6.64295L17.2505 6.55533C17.4244 6.31028 17.7455 6.22814 18.0105 6.37574C18.305 6.53974 18.4188 6.92528 18.2647 7.23685L16.0282 11.7596L12.4558 8.50884L12.3799 8.4263C12.1998 8.19137 12.198 7.84695 12.3901 7.60973L12.4679 7.52958C12.6892 7.33938 13.0143 7.33826 13.2386 7.54243L15.1956 9.32295C14.9612 6.67824 12.8604 4.60862 10.3034 4.60862C9.10347 4.60862 8.00402 5.06436 7.15076 5.8214C6.921 6.02525 6.66184 6.29634 6.30815 5.92597C5.95446 5.5556 6.14972 5.05161 6.30812 4.90672C7.37997 3.92629 8.77634 3.33337 10.3034 3.33337Z" fill="#007E45"/>
<path d="M9.6968 16.6667C6.75087 16.6667 4.29132 14.46 3.70977 11.5214L2.80187 13.3571L2.74963 13.4448C2.57575 13.6898 2.25471 13.7719 1.98967 13.6243C1.69519 13.4603 1.58137 13.0748 1.73544 12.7632L3.97193 8.24052L7.54441 11.4912L7.62026 11.5738C7.80034 11.8087 7.8022 12.1531 7.61003 12.3903L7.53231 12.4705C7.311 12.6607 6.9859 12.6618 6.76152 12.4576L4.80461 10.6771C5.03895 13.3218 7.1398 15.3915 9.6968 15.3915C10.8967 15.3915 11.9961 14.9357 12.8494 14.1787C13.0792 13.9748 13.3383 13.7037 13.692 14.0741C14.0457 14.4445 13.8504 14.9485 13.692 15.0934C12.6202 16.0738 11.2238 16.6667 9.6968 16.6667Z" fill="#007E45"/>
</svg>
