<svg width="16" height="16" viewBox="0 0 18 18" fill="none" xmlns="http://www.w3.org/2000/svg">
<path d="M3.93442 14.8192C3.71088 14.6001 3.69056 14.2571 3.87346 14.0155L3.93442 13.9462L8.98006 9L3.93442 4.05377C3.71088 3.83462 3.69056 3.49169 3.87346 3.25003L3.93442 3.1808C4.15797 2.96165 4.50778 2.94173 4.75428 3.12103L4.8249 3.1808L10.3156 8.56351C10.5391 8.78266 10.5594 9.1256 10.3765 9.36725L10.3156 9.43649L4.8249 14.8192C4.579 15.0603 4.18032 15.0603 3.93442 14.8192Z" fill="#2C304E"/>
<path fill-rule="evenodd" clip-rule="evenodd" d="M12.5625 3C12.8732 3 13.125 3.25184 13.125 3.5625L13.125 14.4375C13.125 14.7482 12.8732 15 12.5625 15C12.2518 15 12 14.7482 12 14.4375L12 3.5625C12 3.25184 12.2518 3 12.5625 3Z" fill="#2C304E"/>
</svg>
