<svg width="16" height="16" viewBox="0 0 24 24" fill="none" xmlns="http://www.w3.org/2000/svg">
<path d="M5.2459 19.7589C4.94784 19.4667 4.92074 19.0095 5.16461 18.6873L5.2459 18.595L11.9734 12L5.2459 5.40503C4.94784 5.11283 4.92074 4.65558 5.16461 4.33338L5.2459 4.24106C5.54396 3.94887 6.01037 3.9223 6.33904 4.16137L6.43321 4.24106L13.7541 11.418C14.0522 11.7102 14.0793 12.1675 13.8354 12.4897L13.7541 12.582L6.43321 19.7589C6.10534 20.0804 5.57376 20.0804 5.2459 19.7589Z" fill="black"/>
<path fill-rule="evenodd" clip-rule="evenodd" d="M16.75 4C17.1642 4 17.5 4.33579 17.5 4.75L17.5 19.25C17.5 19.6642 17.1642 20 16.75 20C16.3358 20 16 19.6642 16 19.25L16 4.75C16 4.33579 16.3358 4 16.75 4Z" fill="black"/>
</svg>
