<svg width="32" height="32" viewBox="0 0 32 32" fill="none" xmlns="http://www.w3.org/2000/svg">
<path fill-rule="evenodd" clip-rule="evenodd" d="M29.3333 16.0003C29.3333 8.63648 23.3634 2.66699 16 2.66699C8.63656 2.66699 2.66663 8.63648 2.66663 16.0003C2.66663 23.3633 8.63701 29.3337 16 29.3337C23.3629 29.3337 29.3333 23.3633 29.3333 16.0003ZM27.3333 16.0003C27.3333 22.2587 22.2583 27.3337 16 27.3337C9.74158 27.3337 4.66663 22.2587 4.66663 16.0003C4.66663 9.74109 9.7411 4.66699 16 4.66699C22.2588 4.66699 27.3333 9.74109 27.3333 16.0003ZM18.7257 11.9687C19.017 11.5779 18.9859 11.0223 18.6317 10.6665C18.242 10.2751 17.6088 10.2737 17.2174 10.6634L12.5694 15.2914L12.4721 15.4037C12.1801 15.7958 12.2126 16.3534 12.5694 16.7087L17.2174 21.3367L17.3298 21.4333C17.7219 21.7229 18.2774 21.6894 18.6317 21.3336L18.7282 21.2213C19.0179 20.8292 18.9844 20.2737 18.6286 19.9194L14.6933 15.9987L18.6286 12.0807L18.7257 11.9687Z" fill="#335B70"/>
</svg>
