<svg width="14" height="14" viewBox="0 0 14 14" fill="none" xmlns="http://www.w3.org/2000/svg">
<path d="M7.21263 2.33337C9.27477 2.33337 10.9965 3.87804 11.4035 5.93508L12.0391 4.65008L12.0756 4.58874C12.1974 4.41721 12.4221 4.35971 12.6076 4.46303C12.8137 4.57783 12.8934 4.84771 12.7856 5.06581L11.22 8.2317L8.7193 5.9562L8.6662 5.89842C8.54014 5.73397 8.53884 5.49288 8.67336 5.32683L8.72777 5.27072C8.88268 5.13758 9.11025 5.13679 9.26732 5.27972L10.6372 6.52607C10.4731 4.67478 9.00252 3.22605 7.21263 3.22605C6.3727 3.22605 5.60309 3.54506 5.0058 4.07499C4.84497 4.21769 4.66356 4.40745 4.41598 4.14819C4.16839 3.88893 4.30507 3.53614 4.41596 3.43471C5.16625 2.74841 6.1437 2.33337 7.21263 2.33337Z" fill="url(#paint0_linear_2860_41082)"/>
<path d="M6.78802 11.6667C4.72588 11.6667 3.00419 10.122 2.5971 8.065L1.96157 9.35L1.92501 9.41134C1.8033 9.58287 1.57857 9.64037 1.39304 9.53705C1.1869 9.42225 1.10723 9.15238 1.21508 8.93427L2.78062 5.76838L5.28135 8.04388L5.33445 8.10166C5.46051 8.26611 5.46181 8.50721 5.32729 8.67326L5.27288 8.72936C5.11797 8.8625 4.8904 8.86329 4.73333 8.72037L3.36349 7.47401C3.52754 9.3253 4.99813 10.774 6.78802 10.774C7.62795 10.774 8.39756 10.455 8.99485 9.92509C9.15568 9.7824 9.33709 9.59263 9.58467 9.85189C9.83226 10.1112 9.69558 10.4639 9.58469 10.5654C8.8344 11.2517 7.85695 11.6667 6.78802 11.6667Z" fill="url(#paint1_linear_2860_41082)"/>
<defs>
<linearGradient id="paint0_linear_2860_41082" x1="5.44891" y1="1.61543" x2="8.63325" y2="14.1481" gradientUnits="userSpaceOnUse">
<stop stop-color="#FF3366"/>
<stop offset="1" stop-color="#FE5196"/>
</linearGradient>
<linearGradient id="paint1_linear_2860_41082" x1="5.44891" y1="1.61543" x2="8.63325" y2="14.1481" gradientUnits="userSpaceOnUse">
<stop stop-color="#FF3366"/>
<stop offset="1" stop-color="#FE5196"/>
</linearGradient>
</defs>
</svg>
