<svg width="24" height="24" viewBox="0 0 24 24" fill="none" xmlns="http://www.w3.org/2000/svg">
<g id="arrow-tail-up-down">
<g id="Vector">
<path fill-rule="evenodd" clip-rule="evenodd" d="M16.8396 5.79656C17.2538 5.79656 17.5896 6.13235 17.5896 6.54656V20.1643C17.5896 20.5786 17.2538 20.9143 16.8396 20.9143C16.4254 20.9143 16.0896 20.5786 16.0896 20.1643V6.54656C16.0896 6.13235 16.4254 5.79656 16.8396 5.79656Z" fill="none"/>
<path fill-rule="evenodd" clip-rule="evenodd" d="M12.2326 15.5367C12.5262 15.2445 13.0011 15.2456 13.2933 15.5391L16.8395 19.1018L20.3857 15.5391C20.6779 15.2456 21.1528 15.2445 21.4464 15.5367C21.7399 15.8289 21.741 16.3038 21.4488 16.5973L17.371 20.694C17.2303 20.8354 17.0391 20.9143 16.8396 20.9143C16.6401 20.9143 16.4487 20.8354 16.3079 20.694L12.2302 16.5973C11.9379 16.3038 11.939 15.8289 12.2326 15.5367Z" fill="none"/>
<path fill-rule="evenodd" clip-rule="evenodd" d="M6.91116 3.08301C7.32538 3.08301 7.66116 3.41879 7.66116 3.83301V17.4508C7.66116 17.865 7.32538 18.2008 6.91116 18.2008C6.49695 18.2008 6.16116 17.865 6.16116 17.4508V3.83301C6.16116 3.41879 6.49695 3.08301 6.91116 3.08301Z" fill="none"/>
<path fill-rule="evenodd" clip-rule="evenodd" d="M6.91116 3.08301C7.11068 3.08301 7.30208 3.16195 7.44283 3.30335L11.5206 7.40002C11.8128 7.69359 11.8117 8.16846 11.5182 8.46067C11.2246 8.75289 10.7497 8.75179 10.4575 8.45822L6.91127 4.89557L3.36505 8.45822C3.07283 8.75179 2.59796 8.75289 2.30439 8.46067C2.01082 8.16846 2.00973 7.69359 2.30194 7.40002L6.37972 3.30335C6.52047 3.16195 6.71165 3.08301 6.91116 3.08301Z" fill="none"/>
</g>
</g>
</svg>
