<svg width="24" height="24" viewBox="0 0 24 24" fill="none" xmlns="http://www.w3.org/2000/svg">
<g id="arrow-rotate">
<g id="Vector">
<path d="M12.3639 4C15.899 4 18.8505 6.64801 19.5484 10.1744L20.6379 7.97149L20.7005 7.86634C20.9092 7.57229 21.2944 7.47372 21.6125 7.65084C21.9659 7.84764 22.1025 8.31028 21.9176 8.68418L19.2338 14.1114L14.9468 10.2106L14.8558 10.1115C14.6397 9.82959 14.6375 9.41629 14.8681 9.13163L14.9613 9.03545C15.2269 8.80721 15.617 8.80586 15.8863 9.05087L18.2346 11.1875C17.9534 8.01384 15.4323 5.5303 12.3639 5.5303C10.9241 5.5303 9.60473 6.07718 8.58081 6.98563C8.3051 7.23025 7.99411 7.55556 7.56969 7.11111C7.14526 6.66667 7.37957 6.06188 7.56965 5.88801C8.85587 4.7115 10.5315 4 12.3639 4Z" fill="none"/>
<path d="M11.6361 20C8.10095 20 5.14948 17.352 4.45162 13.8257L3.36214 16.0285L3.29946 16.1337C3.09081 16.4277 2.70555 16.5263 2.38751 16.3492C2.03413 16.1524 1.89754 15.6897 2.08243 15.3158L4.76621 9.88858L9.05319 13.7894L9.14422 13.8885C9.36031 14.1704 9.36254 14.5837 9.13194 14.8684L9.03867 14.9646C8.7731 15.1928 8.38298 15.1941 8.11372 14.9491L5.76543 12.8125C6.04665 15.9862 8.56766 18.4697 11.6361 18.4697C13.0759 18.4697 14.3953 17.9228 15.4192 17.0144C15.6949 16.7697 16.0059 16.4444 16.4303 16.8889C16.8547 17.3333 16.6204 17.9381 16.4303 18.112C15.1441 19.2885 13.4685 20 11.6361 20Z" fill="none"/>
</g>
</g>
</svg>
