<svg width="32" height="32" viewBox="0 0 32 32" fill="none" xmlns="http://www.w3.org/2000/svg">
<path fill-rule="evenodd" clip-rule="evenodd" d="M2.66663 15.9993C2.66663 23.3632 8.63656 29.3327 16 29.3327C23.3634 29.3327 29.3333 23.3632 29.3333 15.9993C29.3333 8.6364 23.3629 2.66602 16 2.66602C8.63701 2.66602 2.66663 8.6364 2.66663 15.9993ZM4.66663 15.9993C4.66663 9.74097 9.74158 4.66602 16 4.66602C22.2583 4.66602 27.3333 9.74097 27.3333 15.9993C27.3333 22.2586 22.2588 27.3327 16 27.3327C9.7411 27.3327 4.66663 22.2586 4.66663 15.9993ZM13.2742 20.0309C12.9829 20.4218 13.014 20.9774 13.3683 21.3332C13.7579 21.7246 14.3911 21.7259 14.7825 21.3362L19.4305 16.7082L19.5278 16.5959C19.8198 16.2038 19.7873 15.6463 19.4305 15.291L14.7825 10.663L14.6701 10.5664C14.278 10.2768 13.7225 10.3102 13.3683 10.666L13.2717 10.7784C12.9821 11.1705 13.0155 11.726 13.3713 12.0802L17.3066 16.0009L13.3713 19.919L13.2742 20.0309Z" fill="#335B70"/>
</svg>
