<svg width="24" height="24" viewBox="0 0 24 24" fill="none" xmlns="http://www.w3.org/2000/svg">
<path d="M18.7541 4.24106C19.0522 4.53326 19.0793 4.99051 18.8354 5.31272L18.7541 5.40503L12.0266 12L18.7541 18.595C19.0522 18.8872 19.0793 19.3444 18.8354 19.6666L18.7541 19.7589C18.456 20.0511 17.9896 20.0777 17.661 19.8386L17.5668 19.7589L10.2459 12.582C9.94784 12.2898 9.92074 11.8325 10.1646 11.5103L10.2459 11.418L17.5668 4.24106C17.8947 3.91965 18.4262 3.91965 18.7541 4.24106Z" fill="black"/>
<path fill-rule="evenodd" clip-rule="evenodd" d="M7.25 20C6.83579 20 6.5 19.6642 6.5 19.25L6.5 4.75C6.5 4.33579 6.83579 4 7.25 4C7.66421 4 8 4.33579 8 4.75L8 19.25C8 19.6642 7.66421 20 7.25 20Z" fill="black"/>
</svg>
