<svg width="18" height="20" viewBox="0 0 18 20" fill="none" xmlns="http://www.w3.org/2000/svg">
<path fill-rule="evenodd" clip-rule="evenodd" d="M0.085514 7.58535C0.085514 7.20004 0.395471 6.88768 0.777822 6.88768H17.2307C17.613 6.88768 17.923 7.20004 17.923 7.58535C17.923 7.97067 17.613 8.28303 17.2307 8.28303H0.777822C0.395471 8.28303 0.085514 7.97067 0.085514 7.58535Z" fill="#FF3366"/>
<path fill-rule="evenodd" clip-rule="evenodd" d="M12.4081 11.2183C12.4081 10.833 12.718 10.5206 13.1004 10.5206H13.1089C13.4913 10.5206 13.8012 10.833 13.8012 11.2183C13.8012 11.6036 13.4913 11.916 13.1089 11.916H13.1004C12.718 11.916 12.4081 11.6036 12.4081 11.2183Z" fill="#FF3366"/>
<path fill-rule="evenodd" clip-rule="evenodd" d="M8.31195 11.2183C8.31195 10.833 8.62191 10.5206 9.00426 10.5206H9.01281C9.39516 10.5206 9.70512 10.833 9.70512 11.2183C9.70512 11.6036 9.39516 11.916 9.01281 11.916H9.00426C8.62191 11.916 8.31195 11.6036 8.31195 11.2183Z" fill="#FF3366"/>
<path fill-rule="evenodd" clip-rule="evenodd" d="M4.20728 11.2183C4.20728 10.833 4.51724 10.5206 4.89959 10.5206H4.90814C5.29049 10.5206 5.60045 10.833 5.60045 11.2183C5.60045 11.6036 5.29049 11.916 4.90814 11.916H4.89959C4.51724 11.916 4.20728 11.6036 4.20728 11.2183Z" fill="#FF3366"/>
<path fill-rule="evenodd" clip-rule="evenodd" d="M12.4081 14.8337C12.4081 14.4484 12.718 14.136 13.1004 14.136H13.1089C13.4913 14.136 13.8012 14.4484 13.8012 14.8337C13.8012 15.219 13.4913 15.5314 13.1089 15.5314H13.1004C12.718 15.5314 12.4081 15.219 12.4081 14.8337Z" fill="#FF3366"/>
<path fill-rule="evenodd" clip-rule="evenodd" d="M8.31195 14.8337C8.31195 14.4484 8.62191 14.136 9.00426 14.136H9.01281C9.39516 14.136 9.70512 14.4484 9.70512 14.8337C9.70512 15.219 9.39516 15.5314 9.01281 15.5314H9.00426C8.62191 15.5314 8.31195 15.219 8.31195 14.8337Z" fill="#FF3366"/>
<path fill-rule="evenodd" clip-rule="evenodd" d="M4.20728 14.8337C4.20728 14.4484 4.51724 14.136 4.89959 14.136H4.90814C5.29049 14.136 5.60045 14.4484 5.60045 14.8337C5.60045 15.219 5.29049 15.5314 4.90814 15.5314H4.89959C4.51724 15.5314 4.20728 15.219 4.20728 14.8337Z" fill="#FF3366"/>
<path fill-rule="evenodd" clip-rule="evenodd" d="M12.7327 0C13.115 0 13.425 0.312359 13.425 0.697674V3.75887C13.425 4.14418 13.115 4.45654 12.7327 4.45654C12.3503 4.45654 12.0404 4.14418 12.0404 3.75887V0.697674C12.0404 0.312359 12.3503 0 12.7327 0Z" fill="#FF3366"/>
<path fill-rule="evenodd" clip-rule="evenodd" d="M5.27585 0C5.6582 0 5.96816 0.312359 5.96816 0.697674V3.75887C5.96816 4.14418 5.6582 4.45654 5.27585 4.45654C4.8935 4.45654 4.58355 4.14418 4.58355 3.75887V0.697674C4.58355 0.312359 4.8935 0 5.27585 0Z" fill="#FF3366"/>
<path fill-rule="evenodd" clip-rule="evenodd" d="M1.40076 2.77159C2.32536 1.88585 3.61617 1.46902 5.09627 1.46902H12.9122C14.396 1.46902 15.6876 1.88553 16.6106 2.77227C17.5388 3.66397 18.0044 4.94473 18 6.48676V14.9744C18 16.5165 17.532 17.7986 16.6035 18.692C15.6799 19.5806 14.3886 20 12.9037 20H5.09627C3.61201 20 2.31972 19.572 1.39592 18.6697C0.468684 17.764 0 16.4658 0 14.9041V6.48579C0 4.94269 0.470805 3.66246 1.40076 2.77159ZM2.35473 3.78292C1.7604 4.35227 1.38462 5.23159 1.38462 6.48579V14.9041C1.38462 16.1836 1.76252 17.0845 2.35957 17.6677C2.96006 18.2542 3.86974 18.6047 5.09627 18.6047H12.9037C14.1381 18.6047 15.0488 18.2587 15.6473 17.6828C16.241 17.1115 16.6154 16.2297 16.6154 14.9744V6.48579L16.6154 6.48364C16.6192 5.2289 16.2468 4.35054 15.6552 3.78224C15.0583 3.20875 14.1478 2.86437 12.9122 2.86437H5.09627C3.86559 2.86437 2.95441 3.20844 2.35473 3.78292Z" fill="#FF3366"/>
</svg>
