<svg width="20" height="20" viewBox="0 0 20 20" fill="none" xmlns="http://www.w3.org/2000/svg">
<path fill-rule="evenodd" clip-rule="evenodd" d="M10.0002 2.91675C6.08868 2.91675 2.91684 6.08859 2.91684 10.0001C2.91684 13.9116 6.08789 17.0834 10.0002 17.0834C13.9117 17.0834 17.0835 13.9116 17.0835 10.0001C17.0835 6.0878 13.9117 2.91675 10.0002 2.91675ZM1.66684 10.0001C1.66684 5.39824 5.39833 1.66675 10.0002 1.66675C14.602 1.66675 18.3335 5.39736 18.3335 10.0001C18.3335 14.6019 14.602 18.3334 10.0002 18.3334C5.39745 18.3334 1.66684 14.6019 1.66684 10.0001Z" fill="white"/>
<path fill-rule="evenodd" clip-rule="evenodd" d="M13.4084 7.5807C13.6525 7.82478 13.6525 8.22051 13.4084 8.46459L9.45343 12.4196C9.20939 12.6636 8.81373 12.6637 8.56964 12.4197L6.5913 10.4422C6.34717 10.1982 6.34709 9.80242 6.59112 9.55829C6.83514 9.31417 7.23087 9.31408 7.475 9.55811L9.01139 11.0939L12.5245 7.5807C12.7686 7.33662 13.1643 7.33662 13.4084 7.5807Z" fill="white"/>
</svg>
