<svg width="20" height="20" viewBox="0 0 20 20" fill="none" xmlns="http://www.w3.org/2000/svg">
<path fill-rule="evenodd" clip-rule="evenodd" d="M9.99984 18.3333C14.6023 18.3333 18.3332 14.6033 18.3332 9.99996C18.3332 5.39829 14.6023 1.66663 9.99984 1.66663C5.39734 1.66663 1.6665 5.39829 1.6665 9.99996C1.6665 14.6033 5.39734 18.3333 9.99984 18.3333ZM13.4085 8.46467C13.6526 8.22059 13.6526 7.82486 13.4085 7.58078C13.1644 7.33671 12.7687 7.33671 12.5246 7.58078L9.01146 11.0939L7.47507 9.55819C7.23094 9.31416 6.83521 9.31425 6.59119 9.55838C6.34716 9.80251 6.34725 10.1982 6.59137 10.4423L8.56971 12.4198C8.8138 12.6637 9.20946 12.6637 9.4535 12.4197L13.4085 8.46467Z" fill="#24A148"/>
<path fill-rule="evenodd" clip-rule="evenodd" d="M9.99984 18.3333C14.6023 18.3333 18.3332 14.6033 18.3332 9.99996C18.3332 5.39829 14.6023 1.66663 9.99984 1.66663C5.39734 1.66663 1.6665 5.39829 1.6665 9.99996C1.6665 14.6033 5.39734 18.3333 9.99984 18.3333ZM13.4085 8.46467C13.6526 8.22059 13.6526 7.82486 13.4085 7.58078C13.1644 7.33671 12.7687 7.33671 12.5246 7.58078L9.01146 11.0939L7.47507 9.55819C7.23094 9.31416 6.83521 9.31425 6.59119 9.55838C6.34716 9.80251 6.34725 10.1982 6.59137 10.4423L8.56971 12.4198C8.8138 12.6637 9.20946 12.6637 9.4535 12.4197L13.4085 8.46467Z" fill="#F1F1F1" fill-opacity="0.35"/>
</svg>
