<svg width="18" height="18" viewBox="0 0 18 18" fill="none" xmlns="http://www.w3.org/2000/svg">
<path fill-rule="evenodd" clip-rule="evenodd" d="M9 2.625C5.47966 2.625 2.625 5.47966 2.625 9C2.625 12.5204 5.47895 15.375 9 15.375C12.5203 15.375 15.375 12.5203 15.375 9C15.375 5.47895 12.5204 2.625 9 2.625ZM1.5 9C1.5 4.85834 4.85834 1.5 9 1.5C13.1416 1.5 16.5 4.85755 16.5 9C16.5 13.1417 13.1417 16.5 9 16.5C4.85755 16.5 1.5 13.1416 1.5 9Z" fill="#24A148"/>
<path fill-rule="evenodd" clip-rule="evenodd" d="M12.0674 6.82256C12.2871 7.04223 12.2871 7.39838 12.0674 7.61805L8.50793 11.1776C8.28829 11.3972 7.9322 11.3972 7.71252 11.1776L5.93202 9.39789C5.7123 9.17826 5.71223 8.82211 5.93185 8.60239C6.15147 8.38268 6.50763 8.3826 6.72735 8.60222L8.1101 9.98439L11.2719 6.82256C11.4916 6.60289 11.8478 6.60289 12.0674 6.82256Z" fill="#24A148"/>
</svg>
