<svg width="24" height="20" viewBox="0 0 24 20" fill="none" xmlns="http://www.w3.org/2000/svg">
<path fill-rule="evenodd" clip-rule="evenodd" d="M12 19.9999C17.523 19.9999 22 15.5239 22 9.99988C22 4.47788 17.523 -0.00012207 12 -0.00012207C6.477 -0.00012207 2 4.47788 2 9.99988C2 15.5239 6.477 19.9999 12 19.9999ZM16.0904 8.15753C16.3833 7.86463 16.3833 7.38976 16.0904 7.09687C15.7975 6.80397 15.3226 6.80397 15.0297 7.09687L10.814 11.3126L8.97028 9.46976C8.67733 9.17692 8.20245 9.17702 7.90962 9.46998C7.61679 9.76293 7.61689 10.2378 7.90985 10.5306L10.2838 12.9036C10.5768 13.1964 11.0515 13.1964 11.3444 12.9035L16.0904 8.15753Z" fill="#24A148"/>
</svg>
