<svg width="20" height="20" viewBox="0 0 20 20" fill="none" xmlns="http://www.w3.org/2000/svg">
<rect width="20" height="20" fill="#E5E5E5"/>
<path d="M-16535 -957C-16535 -968.046 -16526 -977 -16515 -977H6398C6409.04 -977 6418 -968.046 6418 -957V4994C6418 5005.05 6409.04 5014 6398 5014H-16515C-16526 5014 -16535 5005.05 -16535 4994V-957Z" fill="#E5E5E5"/>
<path d="M-16515 -974H6398V-980H-16515V-974ZM6415 -957V4994H6421V-957H6415ZM6398 5011H-16515V5017H6398V5011ZM-16532 4994V-957H-16538V4994H-16532ZM-16515 5011C-16524.4 5011 -16532 5003.39 -16532 4994H-16538C-16538 5006.7 -16527.7 5017 -16515 5017V5011ZM6415 4994C6415 5003.39 6407.39 5011 6398 5011V5017C6410.7 5017 6421 5006.7 6421 4994H6415ZM6398 -974C6407.39 -974 6415 -966.389 6415 -957H6421C6421 -969.703 6410.7 -980 6398 -980V-974ZM-16515 -980C-16527.7 -980 -16538 -969.703 -16538 -957H-16532C-16532 -966.389 -16524.4 -974 -16515 -974V-980Z" fill="black"/>
<g clip-path="url(#clip0_12925_49445)">
<rect width="1449" height="1202" transform="translate(-1259 -461)" fill="white"/>
<g filter="url(#filter0_d_12925_49445)">
<path d="M-889.5 -47.5H69.5V692C69.5 695.038 67.0376 697.5 64 697.5H-884C-887.038 697.5 -889.5 695.038 -889.5 692V-47.5Z" fill="white"/>
<path d="M-889.5 -47.5H69.5V692C69.5 695.038 67.0376 697.5 64 697.5H-884C-887.038 697.5 -889.5 695.038 -889.5 692V-47.5Z" stroke="#ECECEE"/>
<path d="M-866 -20C-866 -22.2091 -864.209 -24 -862 -24H42C44.2092 -24 46 -22.2091 46 -20V40C46 42.2091 44.2092 44 42 44H-862C-864.209 44 -866 42.2091 -866 40V-20Z" fill="white"/>
<path d="M-865.5 -20C-865.5 -21.933 -863.933 -23.5 -862 -23.5H42C43.933 -23.5 45.5 -21.933 45.5 -20V40C45.5 41.933 43.933 43.5 42 43.5H-862C-863.933 43.5 -865.5 41.933 -865.5 40V-20Z" stroke="#5C98E5" stroke-opacity="0.1"/>
<g clip-path="url(#clip1_12925_49445)">
<path fill-rule="evenodd" clip-rule="evenodd" d="M10 19.9999C15.523 19.9999 20 15.5239 20 9.99988C20 4.47788 15.523 -0.00012207 10 -0.00012207C4.477 -0.00012207 0 4.47788 0 9.99988C0 15.5239 4.477 19.9999 10 19.9999ZM14.0904 8.15753C14.3833 7.86463 14.3833 7.38976 14.0904 7.09687C13.7975 6.80397 13.3226 6.80397 13.0297 7.09687L8.81395 11.3126L6.97028 9.46976C6.67733 9.17692 6.20245 9.17702 5.90962 9.46998C5.61679 9.76293 5.61689 10.2378 5.90985 10.5306L8.28384 12.9036C8.57676 13.1964 9.05154 13.1964 9.34439 12.9035L14.0904 8.15753Z" fill="#24A148"/>
</g>
</g>
</g>
<defs>
<filter id="filter0_d_12925_49445" x="-900" y="-143" width="980" height="853" filterUnits="userSpaceOnUse" color-interpolation-filters="sRGB">
<feFlood flood-opacity="0" result="BackgroundImageFix"/>
<feColorMatrix in="SourceAlpha" type="matrix" values="0 0 0 0 0 0 0 0 0 0 0 0 0 0 0 0 0 0 127 0" result="hardAlpha"/>
<feOffset dy="2"/>
<feGaussianBlur stdDeviation="5"/>
<feComposite in2="hardAlpha" operator="out"/>
<feColorMatrix type="matrix" values="0 0 0 0 0.172549 0 0 0 0 0.188235 0 0 0 0 0.305882 0 0 0 0.1 0"/>
<feBlend mode="normal" in2="BackgroundImageFix" result="effect1_dropShadow_12925_49445"/>
<feBlend mode="normal" in="SourceGraphic" in2="effect1_dropShadow_12925_49445" result="shape"/>
</filter>
<clipPath id="clip0_12925_49445">
<rect width="1449" height="1202" fill="white" transform="translate(-1259 -461)"/>
</clipPath>
<clipPath id="clip1_12925_49445">
<rect width="864" height="20" fill="white" transform="translate(-842)"/>
</clipPath>
</defs>
</svg>
