<svg width="10" height="10" viewBox="0 0 10 10" fill="none" xmlns="http://www.w3.org/2000/svg">
<path fill-rule="evenodd" clip-rule="evenodd" d="M9.26564 0.768092C9.4118 0.914828 9.41133 1.15226 9.26459 1.29842L1.26565 9.26577C1.11891 9.41193 0.881478 9.41146 0.735321 9.26472C0.589165 9.11798 0.589635 8.88055 0.736371 8.73439L8.73531 0.767043C8.88205 0.620886 9.11949 0.621356 9.26564 0.768092Z" fill="#A9ACBC"/>
<path fill-rule="evenodd" clip-rule="evenodd" d="M0.733821 0.735853C0.879705 0.588846 1.11714 0.587936 1.26415 0.733821L9.26415 8.67274C9.41115 8.81862 9.41206 9.05606 9.26618 9.20306C9.12029 9.35007 8.88286 9.35098 8.73585 9.2051L0.735853 1.26618C0.588846 1.1203 0.587936 0.88286 0.733821 0.735853Z" fill="#A9ACBC"/>
</svg>
