<svg width="18" height="18" viewBox="0 0 18 18" fill="none" xmlns="http://www.w3.org/2000/svg">
<path fill-rule="evenodd" clip-rule="evenodd" d="M6.25424 1.5C5.91725 1.5 5.64407 1.78376 5.64407 2.1338C5.64407 2.48384 5.91725 2.76761 6.25424 2.76761H11.9492C12.9601 2.76761 13.7797 3.6189 13.7797 4.66901V13.1197C13.7797 13.4698 14.0528 13.7535 14.3898 13.7535C14.7268 13.7535 15 13.4698 15 13.1197V4.66901C15 2.91882 13.6341 1.5 11.9492 1.5H6.25424ZM5.44068 5.09155H10.322C10.996 5.09155 11.5424 5.65908 11.5424 6.35915V13.9648C11.5424 14.6649 10.996 15.2324 10.322 15.2324H5.44068C4.7667 15.2324 4.22034 14.6649 4.22034 13.9648V6.35915C4.22034 5.65908 4.7667 5.09155 5.44068 5.09155ZM3 6.35915C3 4.959 4.09273 3.82394 5.44068 3.82394H10.322C11.67 3.82394 12.7627 4.959 12.7627 6.35915V13.9648C12.7627 15.3649 11.67 16.5 10.322 16.5H5.44068C4.09273 16.5 3 15.3649 3 13.9648V6.35915Z" fill="#404040"/>
<path fill-rule="evenodd" clip-rule="evenodd" d="M5.79944 2.55634C5.70282 2.44421 5.64407 2.29613 5.64407 2.1338C5.64407 1.78376 5.91725 1.5 6.25424 1.5H11.9492C13.6341 1.5 15 2.91882 15 4.66901V13.1197C15 13.4698 14.7268 13.7535 14.3898 13.7535C14.2336 13.7535 14.091 13.6925 13.9831 13.5921C13.8582 13.4761 13.7797 13.3074 13.7797 13.1197V4.66901C13.7797 3.6189 12.9601 2.76761 11.9492 2.76761H6.25424C6.07353 2.76761 5.91116 2.686 5.79944 2.55634ZM12.7626 13.9914C12.7627 13.9825 12.7627 13.9737 12.7627 13.9648V6.35915C12.7627 5.99832 12.6901 5.65508 12.5593 5.34435C12.3134 4.76008 11.8615 4.29071 11.299 4.03521C10.9999 3.89933 10.6694 3.82394 10.322 3.82394H5.44068C5.43213 3.82394 5.42359 3.82399 5.41506 3.82408C4.07891 3.83835 3 4.96788 3 6.35915V13.9648C3 15.3649 4.09273 16.5 5.44068 16.5H10.322C11.6614 16.5 12.7488 15.3793 12.7626 13.9914ZM5.44068 5.09155C4.7667 5.09155 4.22034 5.65908 4.22034 6.35915V13.9648C4.22034 14.6649 4.7667 15.2324 5.44068 15.2324H10.322C10.996 15.2324 11.5424 14.6649 11.5424 13.9648V6.35915C11.5424 5.65908 10.996 5.09155 10.322 5.09155H5.44068Z" fill="#404040"/>
</svg>
