<svg width="12" height="16" viewBox="0 0 12 16" fill="none" xmlns="http://www.w3.org/2000/svg">
<path fill-rule="evenodd" clip-rule="evenodd" d="M3.25424 0.5C2.91725 0.5 2.64407 0.783763 2.64407 1.1338C2.64407 1.48384 2.91725 1.76761 3.25424 1.76761H8.94915C9.96012 1.76761 10.7797 2.6189 10.7797 3.66901V12.1197C10.7797 12.4698 11.0528 12.7535 11.3898 12.7535C11.7268 12.7535 12 12.4698 12 12.1197V3.66901C12 1.91882 10.6341 0.5 8.94915 0.5H3.25424ZM2.44068 4.09155H7.32203C7.99601 4.09155 8.54237 4.65908 8.54237 5.35915V12.9648C8.54237 13.6649 7.99601 14.2324 7.32203 14.2324H2.44068C1.7667 14.2324 1.22034 13.6649 1.22034 12.9648V5.35915C1.22034 4.65908 1.7667 4.09155 2.44068 4.09155ZM0 5.35915C0 3.959 1.09273 2.82394 2.44068 2.82394H7.32203C8.66998 2.82394 9.76271 3.959 9.76271 5.35915V12.9648C9.76271 14.3649 8.66998 15.5 7.32203 15.5H2.44068C1.09273 15.5 0 14.3649 0 12.9648V5.35915Z" fill="#0062FF"/>
<path fill-rule="evenodd" clip-rule="evenodd" d="M2.79944 1.55634C2.70282 1.44421 2.64407 1.29613 2.64407 1.1338C2.64407 0.783763 2.91725 0.5 3.25424 0.5H8.94915C10.6341 0.5 12 1.91882 12 3.66901V12.1197C12 12.4698 11.7268 12.7535 11.3898 12.7535C11.2336 12.7535 11.091 12.6925 10.9831 12.5921C10.8582 12.4761 10.7797 12.3074 10.7797 12.1197V3.66901C10.7797 2.6189 9.96012 1.76761 8.94915 1.76761H3.25424C3.07353 1.76761 2.91116 1.686 2.79944 1.55634ZM9.76258 12.9914C9.76267 12.9825 9.76271 12.9737 9.76271 12.9648V5.35915C9.76271 4.99831 9.69014 4.65508 9.55932 4.34435C9.31335 3.76008 8.86148 3.29071 8.299 3.03521C7.99985 2.89933 7.66942 2.82394 7.32203 2.82394H2.44068C2.43213 2.82394 2.42359 2.82399 2.41506 2.82408C1.07891 2.83835 0 3.96788 0 5.35915V12.9648C0 14.3649 1.09273 15.5 2.44068 15.5H7.32203C8.66144 15.5 9.74884 14.3793 9.76258 12.9914ZM2.44068 4.09155C1.7667 4.09155 1.22034 4.65908 1.22034 5.35915V12.9648C1.22034 13.6649 1.7667 14.2324 2.44068 14.2324H7.32203C7.99601 14.2324 8.54237 13.6649 8.54237 12.9648V5.35915C8.54237 4.65908 7.99601 4.09155 7.32203 4.09155H2.44068Z" fill="#0062FF"/>
</svg>
