<svg width="20" height="20" viewBox="0 0 20 20" fill="none" xmlns="http://www.w3.org/2000/svg">
<path fill-rule="evenodd" clip-rule="evenodd" d="M1.25313 5.10766C2.08345 4.21696 3.26423 3.72093 4.65249 3.72093H11.6266C13.0179 3.72093 14.1991 4.21668 15.0289 5.10799C15.8535 5.99366 16.2791 7.21313 16.2791 8.575V15.1459C16.2791 16.5078 15.8535 17.7273 15.0289 18.6129C14.1991 19.5043 13.0179 20 11.6266 20H4.65249C3.26113 20 2.07998 19.5043 1.25017 18.6129C0.4256 17.7273 0 16.5078 0 15.1459V8.575C0 7.21228 0.427881 5.99292 1.25313 5.10766ZM2.27378 6.05912C1.72937 6.64311 1.39535 7.50195 1.39535 8.575V15.1459C1.39535 16.2198 1.72811 17.0786 2.27143 17.6621C2.8095 18.2401 3.60575 18.6047 4.65249 18.6047H11.6266C12.6733 18.6047 13.4696 18.2401 14.0076 17.6621C14.551 17.0786 14.8837 16.2198 14.8837 15.1459V8.575C14.8837 7.5011 14.551 6.64237 14.0076 6.05879C13.4696 5.48084 12.6733 5.11628 11.6266 5.11628H4.65249C3.60974 5.11628 2.81312 5.48056 2.27378 6.05912Z" fill="#FF3366"/>
<path fill-rule="evenodd" clip-rule="evenodd" d="M5.01377 1.12968C5.86421 0.352596 7.04143 0 8.37342 0H15.3475C16.7389 0 17.92 0.495749 18.7498 1.38706C19.5744 2.27273 20 3.4922 20 4.85407V11.425C20 12.7578 19.6492 13.9741 18.8874 14.8689C18.1124 15.7791 16.9773 16.2791 15.5814 16.2791C15.1961 16.2791 14.8837 15.9667 14.8837 15.5814C14.8837 15.1961 15.1961 14.8837 15.5814 14.8837C16.6236 14.8837 17.3489 14.5234 17.8249 13.9643C18.3141 13.3898 18.6047 12.5279 18.6047 11.425V4.85407C18.6047 3.78017 18.2719 2.92144 17.7286 2.33786C17.1905 1.75991 16.3942 1.39535 15.3475 1.39535H8.37342C7.27441 1.39535 6.47422 1.68533 5.955 2.15977C5.44543 2.62539 5.11628 3.35098 5.11628 4.4186C5.11628 4.80392 4.80392 5.11628 4.4186 5.11628C4.03329 5.11628 3.72093 4.80392 3.72093 4.4186C3.72093 3.05045 4.15369 1.91558 5.01377 1.12968Z" fill="#FF3366"/>
</svg>
