<svg width="10" height="10" viewBox="0 0 12 12" fill="none" xmlns="http://www.w3.org/2000/svg">
<path fill-rule="evenodd" clip-rule="evenodd" d="M10.2656 1.76809C10.4118 1.91483 10.4113 2.15226 10.2646 2.29842L2.26565 10.2658C2.11891 10.4119 1.88148 10.4115 1.73532 10.2647C1.58916 10.118 1.58963 9.88055 1.73637 9.73439L9.73531 1.76704C9.88205 1.62089 10.1195 1.62136 10.2656 1.76809Z" fill="#A9ACBC"/>
<path fill-rule="evenodd" clip-rule="evenodd" d="M1.73382 1.73585C1.87971 1.58885 2.11714 1.58794 2.26415 1.73382L10.2641 9.67274C10.4112 9.81862 10.4121 10.0561 10.2662 10.2031C10.1203 10.3501 9.88286 10.351 9.73585 10.2051L1.73585 2.26618C1.58885 2.1203 1.58794 1.88286 1.73382 1.73585Z" fill="#A9ACBC"/>
</svg>
