<svg width="16" height="16" viewBox="0 0 16 16" fill="none" xmlns="http://www.w3.org/2000/svg">
<path fill-rule="evenodd" clip-rule="evenodd" d="M13.1822 2.81784C13.3837 3.0194 13.3837 3.3462 13.1822 3.54776L3.54775 13.1822C3.34619 13.3837 3.0194 13.3837 2.81783 13.1822C2.61627 12.9806 2.61627 12.6538 2.81783 12.4522L12.4522 2.81784C12.6538 2.61628 12.9806 2.61628 13.1822 2.81784Z" fill="white"/>
<path fill-rule="evenodd" clip-rule="evenodd" d="M2.81783 2.81784C3.0194 2.61628 3.34619 2.61628 3.54775 2.81784L13.1822 12.4522C13.3837 12.6538 13.3837 12.9806 13.1822 13.1822C12.9806 13.3837 12.6538 13.3837 12.4522 13.1822L2.81783 3.54776C2.61627 3.3462 2.61627 3.0194 2.81783 2.81784Z" fill="white"/>
</svg>
