<svg width="20" height="20" viewBox="0 0 20 20" fill="none" xmlns="http://www.w3.org/2000/svg">
<path fill-rule="evenodd" clip-rule="evenodd" d="M1.66699 9.99941C1.66699 5.40024 5.40033 1.66608 10.0003 1.66608C14.6087 1.66608 18.3337 5.40024 18.3337 9.99941C18.3337 14.6002 14.6087 18.3327 10.0003 18.3327C5.40033 18.3327 1.66699 14.6002 1.66699 9.99941ZM9.26699 6.84108C9.26699 6.44191 9.60033 6.10774 10.0003 6.10774C10.4003 6.10774 10.7253 6.44191 10.7253 6.84108V10.5244C10.7253 10.9252 10.4003 11.2494 10.0003 11.2494C9.60033 11.2494 9.26699 10.9252 9.26699 10.5244V6.84108ZM10.0087 13.9002C9.60033 13.9002 9.27533 13.5669 9.27533 13.1669C9.27533 12.7669 9.60033 12.4419 10.0003 12.4419C10.4087 12.4419 10.7337 12.7669 10.7337 13.1669C10.7337 13.5669 10.4087 13.9002 10.0087 13.9002Z" fill="#DA1E28"/>
</svg>
