<svg width="18" height="20" viewBox="0 0 18 20" fill="none" xmlns="http://www.w3.org/2000/svg">
<path fill-rule="evenodd" clip-rule="evenodd" d="M4.70249 14.2879C4.70249 13.8718 5.03523 13.5345 5.44568 13.5345H12.6001C13.0106 13.5345 13.3433 13.8718 13.3433 14.2879C13.3433 14.704 13.0106 15.0413 12.6001 15.0413H5.44568C5.03523 15.0413 4.70249 14.704 4.70249 14.2879Z" fill="none"/>
<path fill-rule="evenodd" clip-rule="evenodd" d="M4.70249 10.0825C4.70249 9.66638 5.03523 9.32908 5.44568 9.32908H12.6001C13.0106 9.32908 13.3433 9.66638 13.3433 10.0825C13.3433 10.4986 13.0106 10.8359 12.6001 10.8359H5.44568C5.03523 10.8359 4.70249 10.4986 4.70249 10.0825Z" fill="none"/>
<path fill-rule="evenodd" clip-rule="evenodd" d="M4.70259 5.88679C4.70259 5.4707 5.03533 5.1334 5.44578 5.1334H8.17576C8.58621 5.1334 8.91894 5.4707 8.91894 5.88679C8.91894 6.30288 8.58621 6.64018 8.17576 6.64018H5.44578C5.03533 6.64018 4.70259 6.30288 4.70259 5.88679Z" fill="none"/>
<path fill-rule="evenodd" clip-rule="evenodd" d="M12.7908 0C14.337 1.19748e-07 15.6582 0.517278 16.592 1.49434C17.5231 2.46847 18 3.82705 18 5.38122V14.6188C18 16.1656 17.5266 17.5181 16.6032 18.4907C15.677 19.4661 14.3663 19.9874 12.832 19.997L12.8274 19.997L5.2089 20C3.66263 20 2.34099 19.4827 1.40737 18.5056C0.476577 17.5314 0 16.1728 0 14.6188V5.38122C0 3.8345 0.473118 2.48222 1.39632 1.50983C2.32229 0.534539 3.63276 0.0136123 5.16702 0.00403252L5.17159 0.0040039L12.7908 0ZM12.7909 1.50678C12.791 1.50678 12.7909 1.50678 12.7909 1.50678L5.17617 1.51078C5.1755 1.51079 5.17483 1.51079 5.17415 1.5108C3.97448 1.51873 3.07143 1.91835 2.46726 2.55471C1.85999 3.19433 1.48637 4.14541 1.48637 5.38122V14.6188C1.48637 15.8613 1.86298 16.8167 2.47504 17.4573C3.08424 18.0949 3.99571 18.4932 5.20805 18.4932C5.20799 18.4932 5.20812 18.4932 5.20805 18.4932L12.8228 18.4902C12.8235 18.4902 12.8241 18.4902 12.8248 18.4902C14.0244 18.4823 14.9277 18.0825 15.5322 17.4458C16.1398 16.8059 16.5136 15.8545 16.5136 14.6188V5.38122C16.5136 4.1388 16.1368 3.18346 15.5246 2.54283C14.9151 1.90518 14.0032 1.50685 12.7909 1.50678Z" fill="none"/>
</svg>
