<svg width="24" height="24" viewBox="0 0 24 24" fill="none" xmlns="http://www.w3.org/2000/svg">
<g id="download">
<g id="Vector">
<path fill-rule="evenodd" clip-rule="evenodd" d="M12.0011 16.1919C11.5871 16.1919 11.2511 15.8646 11.2511 15.4612V3.73078C11.2511 3.32746 11.5871 3.00012 12.0011 3.00012C12.4151 3.00012 12.7511 3.32746 12.7511 3.73078V15.4612C12.7511 15.8646 12.4151 16.1919 12.0011 16.1919Z" fill="black"/>
<path fill-rule="evenodd" clip-rule="evenodd" d="M12.0011 16.1919C11.8021 16.1919 11.6101 16.1149 11.4701 15.9766L8.55406 13.1251C8.26206 12.8387 8.26306 12.3759 8.55606 12.0915C8.85006 11.807 9.32406 11.807 9.61606 12.0934L12.0011 14.4266L14.3861 12.0934C14.6781 11.807 15.1521 11.807 15.4461 12.0915C15.7391 12.3759 15.7401 12.8387 15.4481 13.1251L12.5321 15.9766C12.3921 16.1149 12.2001 16.1919 12.0011 16.1919Z" fill="black"/>
<path fill-rule="evenodd" clip-rule="evenodd" d="M17.5752 21.0001H6.43524C3.99024 21.0001 2.00024 19.0624 2.00024 16.6795V11.9205C2.00024 9.54341 3.98524 7.61058 6.42624 7.61058H7.36724C7.78124 7.61058 8.11724 7.93791 8.11724 8.34123C8.11724 8.74456 7.78124 9.07189 7.36724 9.07189H6.42624C4.81224 9.07189 3.50024 10.3491 3.50024 11.9205V16.6795C3.50024 18.2567 4.81624 19.5388 6.43524 19.5388H17.5752C19.1872 19.5388 20.5002 18.2597 20.5002 16.6892V11.9312C20.5002 10.354 19.1832 9.07189 17.5662 9.07189H16.6342C16.2202 9.07189 15.8842 8.74456 15.8842 8.34123C15.8842 7.93791 16.2202 7.61058 16.6342 7.61058H17.5662C20.0112 7.61058 22.0002 9.54926 22.0002 11.9312V16.6892C22.0002 19.0663 20.0142 21.0001 17.5752 21.0001Z" fill="black"/>
</g>
</g>
</svg>
