<svg width="18" height="18" viewBox="0 0 18 18" fill="none" xmlns="http://www.w3.org/2000/svg">
<path fill-rule="evenodd" clip-rule="evenodd" d="M8.50071 11.2946C8.22471 11.2946 8.00071 11.0764 8.00071 10.8075V2.98723C8.00071 2.71835 8.22471 2.50012 8.50071 2.50012C8.77671 2.50012 9.00071 2.71835 9.00071 2.98723V10.8075C9.00071 11.0764 8.77671 11.2946 8.50071 11.2946Z" fill="#5A5D72"/>
<path fill-rule="evenodd" clip-rule="evenodd" d="M8.50071 11.2946C8.36804 11.2946 8.24004 11.2433 8.14671 11.1511L6.20271 9.2501C6.00804 9.05915 6.00871 8.75065 6.20404 8.56101C6.40004 8.37136 6.71604 8.37136 6.91071 8.56231L8.50071 10.1178L10.0907 8.56231C10.2854 8.37136 10.6014 8.37136 10.7974 8.56101C10.9927 8.75065 10.9934 9.05915 10.7987 9.2501L8.85471 11.1511C8.76137 11.2433 8.63337 11.2946 8.50071 11.2946Z" fill="#5A5D72"/>
<path fill-rule="evenodd" clip-rule="evenodd" d="M12.2168 14.5001H4.79016C3.16016 14.5001 1.8335 13.2083 1.8335 11.6197V8.44703C1.8335 6.86231 3.15683 5.57376 4.78416 5.57376H5.4115C5.6875 5.57376 5.9115 5.79198 5.9115 6.06086C5.9115 6.32975 5.6875 6.54797 5.4115 6.54797H4.78416C3.70816 6.54797 2.8335 7.39943 2.8335 8.44703V11.6197C2.8335 12.6712 3.71083 13.5259 4.79016 13.5259H12.2168C13.2915 13.5259 14.1668 12.6732 14.1668 11.6262V8.45417C14.1668 7.40268 13.2888 6.54797 12.2108 6.54797H11.5895C11.3135 6.54797 11.0895 6.32975 11.0895 6.06086C11.0895 5.79198 11.3135 5.57376 11.5895 5.57376H12.2108C13.8408 5.57376 15.1668 6.86621 15.1668 8.45417V11.6262C15.1668 13.2109 13.8428 14.5001 12.2168 14.5001Z" fill="#5A5D72"/>
</svg>
