<svg width="16" height="14" viewBox="0 0 16 14" fill="none" xmlns="http://www.w3.org/2000/svg">
<path fill-rule="evenodd" clip-rule="evenodd" d="M8.00061 10.1438C7.69011 10.1438 7.43811 9.89833 7.43811 9.59584V0.797993C7.43811 0.495501 7.69011 0.25 8.00061 0.25C8.31111 0.25 8.56311 0.495501 8.56311 0.797993V9.59584C8.56311 9.89833 8.31111 10.1438 8.00061 10.1438Z" fill="white"/>
<path fill-rule="evenodd" clip-rule="evenodd" d="M8.00061 10.1438C7.85136 10.1438 7.70736 10.0861 7.60236 9.98236L5.41536 7.84372C5.19636 7.62891 5.19711 7.28185 5.41686 7.0685C5.63736 6.85514 5.99286 6.85514 6.21186 7.06996L8.00061 8.81988L9.78936 7.06996C10.0084 6.85514 10.3639 6.85514 10.5844 7.0685C10.8041 7.28185 10.8049 7.62891 10.5859 7.84372L8.39886 9.98236C8.29386 10.0861 8.14986 10.1438 8.00061 10.1438Z" fill="white"/>
<path fill-rule="evenodd" clip-rule="evenodd" d="M12.1812 13.75H3.82625C1.9925 13.75 0.5 12.2967 0.5 10.5095V6.94027C0.5 5.15747 1.98875 3.70784 3.8195 3.70784H4.52525C4.83575 3.70784 5.08775 3.95334 5.08775 4.25583C5.08775 4.55833 4.83575 4.80383 4.52525 4.80383H3.8195C2.609 4.80383 1.625 5.76172 1.625 6.94027V10.5095C1.625 11.6925 2.612 12.654 3.82625 12.654H12.1812C13.3903 12.654 14.375 11.6947 14.375 10.5168V6.94831C14.375 5.76537 13.3872 4.80383 12.1745 4.80383H11.4755C11.165 4.80383 10.913 4.55833 10.913 4.25583C10.913 3.95334 11.165 3.70784 11.4755 3.70784H12.1745C14.0083 3.70784 15.5 5.16185 15.5 6.94831V10.5168C15.5 12.2996 14.0105 13.75 12.1812 13.75Z" fill="white"/>
</svg>
