<svg width="15" height="13" viewBox="0 0 15 13" fill="none" xmlns="http://www.w3.org/2000/svg">
<path fill-rule="evenodd" clip-rule="evenodd" d="M7.50071 9.29464C7.22471 9.29464 7.00071 9.07642 7.00071 8.80754V0.987227C7.00071 0.718345 7.22471 0.500122 7.50071 0.500122C7.77671 0.500122 8.00071 0.718345 8.00071 0.987227V8.80754C8.00071 9.07642 7.77671 9.29464 7.50071 9.29464Z" fill="#5A5D72"/>
<path fill-rule="evenodd" clip-rule="evenodd" d="M7.50071 9.29464C7.36804 9.29464 7.24004 9.24333 7.14671 9.15111L5.20271 7.2501C5.00804 7.05915 5.00871 6.75065 5.20404 6.56101C5.40004 6.37136 5.71604 6.37136 5.91071 6.56231L7.50071 8.1178L9.09071 6.56231C9.28537 6.37136 9.60137 6.37136 9.79737 6.56101C9.99271 6.75065 9.99337 7.05915 9.79871 7.2501L7.85471 9.15111C7.76137 9.24333 7.63337 9.29464 7.50071 9.29464Z" fill="#5A5D72"/>
<path fill-rule="evenodd" clip-rule="evenodd" d="M11.2168 12.5001H3.79016C2.16016 12.5001 0.833496 11.2083 0.833496 9.61971V6.44703C0.833496 4.86231 2.15683 3.57376 3.78416 3.57376H4.4115C4.6875 3.57376 4.9115 3.79198 4.9115 4.06086C4.9115 4.32975 4.6875 4.54797 4.4115 4.54797H3.78416C2.70816 4.54797 1.8335 5.39943 1.8335 6.44703V9.61971C1.8335 10.6712 2.71083 11.5259 3.79016 11.5259H11.2168C12.2915 11.5259 13.1668 10.6732 13.1668 9.6262V6.45417C13.1668 5.40268 12.2888 4.54797 11.2108 4.54797H10.5895C10.3135 4.54797 10.0895 4.32975 10.0895 4.06086C10.0895 3.79198 10.3135 3.57376 10.5895 3.57376H11.2108C12.8408 3.57376 14.1668 4.86621 14.1668 6.45417V9.6262C14.1668 11.2109 12.8428 12.5001 11.2168 12.5001Z" fill="#5A5D72"/>
</svg>
