<svg width="20" height="20" viewBox="0 0 20 20" fill="none" xmlns="http://www.w3.org/2000/svg">
<path fill-rule="evenodd" clip-rule="evenodd" d="M16.9236 17.4999H11.3445C11.026 17.4999 10.7676 17.2338 10.7676 16.9059C10.7676 16.578 11.026 16.3119 11.3445 16.3119H16.9236C17.242 16.3119 17.5005 16.578 17.5005 16.9059C17.5005 17.2338 17.242 17.4999 16.9236 17.4999Z" fill="#007E45"/>
<path fill-rule="evenodd" clip-rule="evenodd" d="M11.0466 4.09716L3.80451 13.4228C3.67298 13.5923 3.62452 13.8109 3.67298 14.0208L4.19681 16.3057L6.53445 16.2756C6.75675 16.2732 6.96213 16.171 7.09828 15.9968C9.57283 12.809 14.2904 6.73132 14.4243 6.55312C14.5504 6.34245 14.5996 6.04466 14.5335 5.75796C14.4658 5.46413 14.2881 5.21466 14.032 5.05547C13.9773 5.01666 12.6812 3.98074 12.6412 3.94827C12.1535 3.54594 11.442 3.61563 11.0466 4.09716ZM3.74144 17.5C3.47452 17.5 3.24222 17.3115 3.17991 17.043L2.54993 14.294C2.41993 13.7246 2.54916 13.1369 2.90377 12.6807L10.1497 3.34952C10.1528 3.34635 10.1551 3.34239 10.1582 3.33923C10.9528 2.36112 12.3897 2.21698 13.3589 3.01768C13.3974 3.04857 14.6842 4.07815 14.6842 4.07815C15.1519 4.36485 15.5173 4.87727 15.6558 5.48393C15.7935 6.08426 15.6935 6.7036 15.3727 7.2271C15.3488 7.26591 15.3281 7.29917 7.99903 16.7397C7.64596 17.1927 7.11674 17.4564 6.54829 17.4636L3.74913 17.5H3.74144Z" fill="#007E45"/>
<path fill-rule="evenodd" clip-rule="evenodd" d="M13.441 9.37815C13.318 9.37815 13.1949 9.33776 13.0895 9.25539L8.89577 5.93854C8.64347 5.73895 8.59578 5.36672 8.78962 5.10536C8.98423 4.84559 9.34576 4.79728 9.59883 4.99686L13.7933 8.31292C14.0456 8.5125 14.0933 8.88553 13.8987 9.14609C13.7857 9.29816 13.6141 9.37815 13.441 9.37815Z" fill="#007E45"/>
</svg>
