<svg width="20" height="18" viewBox="0 0 20 18" fill="none" xmlns="http://www.w3.org/2000/svg">
<path fill-rule="evenodd" clip-rule="evenodd" d="M10.0251 10.5829C9.40279 10.5829 8.78233 10.3789 8.26326 9.97089L4.09116 6.63305C3.7907 6.39305 3.74419 5.95643 3.98512 5.6592C4.22791 5.36289 4.66698 5.31582 4.96651 5.55489L9.13488 8.88905C9.6586 9.30074 10.3963 9.30074 10.9237 8.88535L15.0502 5.55674C15.3498 5.31397 15.7888 5.36012 16.0326 5.65735C16.2753 5.95366 16.2298 6.38935 15.9312 6.6312L11.7972 9.96535C11.2744 10.377 10.6493 10.5829 10.0251 10.5829Z" fill="#FF3366"/>
<path fill-rule="evenodd" clip-rule="evenodd" d="M14.5665 16.6154C14.5684 16.6135 14.5758 16.6154 14.5814 16.6154C15.6428 16.6154 16.5842 16.2388 17.306 15.5234C18.1442 14.6954 18.6047 13.5055 18.6047 12.1735V5.83385C18.6047 3.25569 16.906 1.38462 14.5665 1.38462H5.43349C3.09395 1.38462 1.39535 3.25569 1.39535 5.83385V12.1735C1.39535 13.5055 1.85674 14.6954 2.69395 15.5234C3.41581 16.2388 4.35814 16.6154 5.4186 16.6154H14.5665ZM5.41581 18C3.98047 18 2.6986 17.4831 1.70884 16.5046C0.606512 15.4135 0 13.8757 0 12.1735V5.83385C0 2.508 2.33581 0 5.43349 0H14.5665C17.6642 0 20 2.508 20 5.83385V12.1735C20 13.8757 19.3935 15.4135 18.2912 16.5046C17.3023 17.4822 16.0195 18 14.5814 18H5.41581Z" fill="#FF3366"/>
</svg>
