<svg width="18" height="18" viewBox="0 0 18 18" fill="none" xmlns="http://www.w3.org/2000/svg">
<path fill-rule="evenodd" clip-rule="evenodd" d="M9 2.625C5.47891 2.625 2.625 5.47891 2.625 9C2.625 12.5204 5.47895 15.375 9 15.375C12.5203 15.375 15.375 12.5203 15.375 9C15.375 5.47895 12.5204 2.625 9 2.625ZM1.5 9C1.5 4.85759 4.85759 1.5 9 1.5C13.1416 1.5 16.5 4.85755 16.5 9C16.5 13.1417 13.1417 16.5 9 16.5C4.85755 16.5 1.5 13.1416 1.5 9Z" fill="#DA1E28"/>
<path fill-rule="evenodd" clip-rule="evenodd" d="M8.99633 5.59057C9.30699 5.59057 9.55882 5.84241 9.55882 6.15307V9.46733C9.55882 9.77799 9.30699 10.0298 8.99633 10.0298C8.68566 10.0298 8.43383 9.77799 8.43383 9.46733V6.15307C8.43383 5.84241 8.68566 5.59057 8.99633 5.59057Z" fill="#DA1E28"/>
<path fill-rule="evenodd" clip-rule="evenodd" d="M8.24617 11.847C8.24617 11.4328 8.58196 11.097 8.99617 11.097H9.00367C9.41789 11.097 9.75368 11.4328 9.75368 11.847C9.75368 12.2612 9.41789 12.597 9.00367 12.597H8.99617C8.58196 12.597 8.24617 12.2612 8.24617 11.847Z" fill="#DA1E28"/>
</svg>
