<svg width="17" height="17" viewBox="0 0 17 17" fill="none" xmlns="http://www.w3.org/2000/svg">
<path d="M14.6775 1.83379C14.6592 1.83421 14.6417 1.83587 14.6246 1.83838L14.6271 1.83796H10.8784C10.8763 1.83796 10.8742 1.83796 10.8717 1.83796C10.6087 1.83796 10.3958 2.05094 10.3958 2.31394C10.3958 2.57694 10.6087 2.78992 10.8717 2.78992C10.8742 2.78992 10.8763 2.78992 10.8788 2.78992H13.5376L10.5421 5.78544C10.4562 5.87172 10.4033 5.99009 10.4033 6.12138C10.4033 6.38438 10.6167 6.59736 10.8797 6.59736C11.0105 6.59736 11.1293 6.54443 11.2152 6.45899L14.2107 3.46347V6.12221C14.2107 6.1243 14.2107 6.12638 14.2107 6.12888C14.2107 6.39188 14.4237 6.60487 14.6867 6.60487C14.9497 6.60487 15.1627 6.39188 15.1627 6.12888C15.1627 6.12638 15.1627 6.1243 15.1627 6.1218V6.12221V2.37229C15.1652 2.35354 15.1668 2.33145 15.1668 2.30936C15.1668 2.04636 14.9538 1.83337 14.6908 1.83337C14.6863 1.83337 14.6813 1.83337 14.6767 1.83379H14.6775ZM2.30281 10.4002C2.04273 10.4044 1.8335 10.6157 1.8335 10.8762C1.8335 10.8787 1.8335 10.8808 1.8335 10.8833V10.8829V14.6911C1.8335 14.6916 1.8335 14.692 1.8335 14.6924C1.8335 14.6928 1.8335 14.6932 1.8335 14.6936C1.8335 14.7074 1.83433 14.7212 1.83558 14.7345L1.83516 14.7324C1.83558 14.7362 1.83558 14.7382 1.83558 14.7403V14.7387C1.83683 14.7528 1.83891 14.7649 1.841 14.777L1.84058 14.7741C1.84183 14.7816 1.84267 14.7862 1.8435 14.7903L1.84308 14.7874C1.85309 14.8337 1.86851 14.8749 1.88851 14.9125L1.88726 14.91C1.89018 14.9162 1.89226 14.9195 1.89435 14.9229L1.8931 14.9204C1.90018 14.9329 1.90602 14.9429 1.91269 14.9529L1.91144 14.9512C1.91435 14.9562 1.91644 14.9591 1.91852 14.9621L1.91727 14.9604C1.94395 14.9983 1.97437 15.0312 2.00897 15.0592L2.0098 15.06C2.01105 15.0608 2.0123 15.0625 2.01397 15.0638L2.01439 15.0642C2.09191 15.1254 2.19027 15.1634 2.29739 15.1659H2.29781C2.29948 15.1659 2.30156 15.1659 2.30323 15.1659C2.30489 15.1659 2.30698 15.1659 2.30906 15.1659H6.11692C6.119 15.1659 6.12109 15.1659 6.12359 15.1659C6.38659 15.1659 6.59957 14.9529 6.59957 14.6899C6.59957 14.4269 6.38659 14.2139 6.12359 14.2139C6.12109 14.2139 6.119 14.2139 6.1165 14.2139H3.45817L6.45327 11.2184C6.54205 11.1317 6.59707 11.0112 6.59707 10.8774C6.59707 10.6145 6.38409 10.4015 6.12109 10.4015C6.1165 10.4015 6.1115 10.4015 6.10692 10.4019H6.10775C5.97938 10.4056 5.86392 10.4598 5.78056 10.5453L2.78504 13.5416V10.8825C2.78504 10.8804 2.78504 10.8783 2.78504 10.8762C2.78504 10.6132 2.57164 10.4002 2.30906 10.4002C2.30656 10.4002 2.30406 10.4002 2.30156 10.4002H2.30198H2.30281Z" fill="#5A5D72"/>
</svg>
