<svg width="15" height="15" viewBox="0 0 15 15" fill="none" xmlns="http://www.w3.org/2000/svg">
<path d="M13.6775 0.833791C13.6592 0.834208 13.6417 0.835875 13.6246 0.838376L13.6271 0.837959H9.87841C9.87632 0.837959 9.87424 0.837959 9.87174 0.837959C9.60874 0.837959 9.39576 1.05094 9.39576 1.31394C9.39576 1.57694 9.60874 1.78992 9.87174 1.78992C9.87424 1.78992 9.87632 1.78992 9.87882 1.78992H12.5376L9.54205 4.78544C9.45619 4.87172 9.40326 4.99009 9.40326 5.12138C9.40326 5.38438 9.61666 5.59736 9.87966 5.59736C10.0105 5.59736 10.1293 5.54443 10.2152 5.45899L13.2107 2.46347V5.12221C13.2107 5.1243 13.2107 5.12638 13.2107 5.12888C13.2107 5.39188 13.4237 5.60487 13.6867 5.60487C13.9497 5.60487 14.1627 5.39188 14.1627 5.12888C14.1627 5.12638 14.1627 5.1243 14.1627 5.1218V5.12221V1.37229C14.1652 1.35354 14.1668 1.33145 14.1668 1.30936C14.1668 1.04636 13.9538 0.833374 13.6908 0.833374C13.6863 0.833374 13.6813 0.833374 13.6767 0.833791H13.6775ZM1.30281 9.40022C1.04273 9.40439 0.833496 9.6157 0.833496 9.8762C0.833496 9.8787 0.833496 9.88078 0.833496 9.88329V9.88287V13.6911C0.833496 13.6916 0.833496 13.692 0.833496 13.6924C0.833496 13.6928 0.833496 13.6932 0.833496 13.6936C0.833496 13.7074 0.83433 13.7212 0.83558 13.7345L0.835163 13.7324C0.83558 13.7362 0.83558 13.7382 0.83558 13.7403V13.7387C0.83683 13.7528 0.838914 13.7649 0.840998 13.777L0.840582 13.7741C0.841832 13.7816 0.842666 13.7862 0.843499 13.7903L0.843082 13.7874C0.853086 13.8337 0.868507 13.8749 0.888513 13.9125L0.887263 13.91C0.89018 13.9162 0.892264 13.9195 0.894348 13.9229L0.893098 13.9204C0.900184 13.9329 0.906019 13.9429 0.912688 13.9529L0.911437 13.9512C0.914355 13.9562 0.916439 13.9591 0.918523 13.9621L0.917272 13.9604C0.943947 13.9983 0.974373 14.0312 1.00897 14.0592L1.0098 14.06C1.01105 14.0608 1.0123 14.0625 1.01397 14.0638L1.01439 14.0642C1.09191 14.1254 1.19027 14.1634 1.29739 14.1659H1.29781C1.29948 14.1659 1.30156 14.1659 1.30323 14.1659C1.30489 14.1659 1.30698 14.1659 1.30906 14.1659H5.11692C5.119 14.1659 5.12109 14.1659 5.12359 14.1659C5.38659 14.1659 5.59957 13.9529 5.59957 13.6899C5.59957 13.4269 5.38659 13.2139 5.12359 13.2139C5.12109 13.2139 5.119 13.2139 5.1165 13.2139H2.45817L5.45327 10.2184C5.54205 10.1317 5.59707 10.0112 5.59707 9.87745C5.59707 9.61445 5.38409 9.40147 5.12109 9.40147C5.1165 9.40147 5.1115 9.40147 5.10692 9.40189H5.10775C4.97938 9.40564 4.86392 9.45982 4.78056 9.54526L1.78504 12.5416V9.88245C1.78504 9.88037 1.78504 9.87828 1.78504 9.8762C1.78504 9.6132 1.57164 9.40022 1.30906 9.40022C1.30656 9.40022 1.30406 9.40022 1.30156 9.40022H1.30198H1.30281Z" fill="#5A5D72"/>
</svg>
