<svg xmlns="http://www.w3.org/2000/svg" width="18" height="18" viewBox="0 0 18 18" fill="none">
  <path fill-rule="evenodd" clip-rule="evenodd" d="M9 7.11278C10.003 7.11278 10.8105 7.95428 10.8105 9.00094C10.8105 9.52272 10.6118 9.98486 10.2818 10.3281C10.062 10.5568 10.0617 10.928 10.2812 11.1571C10.5006 11.3862 10.8568 11.3865 11.0767 11.1578C11.6092 10.6038 11.9355 9.84682 11.9355 9.00094C11.9355 7.30758 10.625 5.9405 9 5.9405C8.19727 5.9405 7.45486 6.27916 6.92662 6.83837C6.70869 7.06908 6.71151 7.44019 6.93291 7.66727C7.15431 7.89436 7.51045 7.89143 7.72838 7.66072C8.04763 7.32275 8.50223 7.11278 9 7.11278Z" fill="#A9ACBC"/>
  <path fill-rule="evenodd" clip-rule="evenodd" d="M6.57153 8.86256C6.26578 8.91986 6.06249 9.22459 6.11748 9.5432C6.333 10.7919 7.27552 11.7762 8.47338 12.0028C8.77904 12.0606 9.07182 11.8493 9.1273 11.5308C9.18279 11.2123 8.97999 10.9072 8.67432 10.8494C7.93868 10.7102 7.3572 10.1033 7.22472 9.3357C7.16973 9.01709 6.87729 8.80526 6.57153 8.86256Z" fill="#A9ACBC"/>
  <path fill-rule="evenodd" clip-rule="evenodd" d="M9 3.87924C10.2839 3.87924 11.5364 4.35891 12.6379 5.2673L12.6393 5.26841C13.6998 6.13751 14.6249 7.40228 15.3225 9.00119C14.6321 10.5916 13.7139 11.8479 12.6614 12.7089C12.417 12.9088 12.3745 13.2773 12.5663 13.5319C12.7582 13.7865 13.1118 13.8309 13.3561 13.631C14.6335 12.5859 15.6939 11.0779 16.4544 9.23175C16.5154 9.08373 16.5152 8.91609 16.4539 8.7682C15.6861 6.91506 14.6194 5.39999 13.3354 4.3475C12.0565 3.29307 10.5628 2.70696 9 2.70696C7.42668 2.70696 5.93364 3.30251 4.64873 4.36307C4.40521 4.56407 4.36417 4.93272 4.55707 5.18648C4.74996 5.44023 5.10375 5.483 5.34726 5.282C6.45786 4.36531 7.70982 3.87924 9 3.87924Z" fill="#A9ACBC"/>
  <path fill-rule="evenodd" clip-rule="evenodd" d="M3.75229 6.07319C3.50408 5.87851 3.15142 5.93035 2.96459 6.18899C2.41899 6.94427 1.94365 7.80984 1.54621 8.7675C1.48465 8.91583 1.4846 9.08407 1.54606 9.23244C3.07746 12.9294 5.84771 15.293 9 15.293C9.70851 15.293 10.4069 15.1731 11.0771 14.9401C11.3718 14.8376 11.5309 14.5056 11.4326 14.1985C11.3342 13.8914 11.0156 13.7256 10.7209 13.8281C10.1641 14.0217 9.58599 14.1207 9 14.1207C6.50023 14.1207 4.10976 12.2807 2.6778 9.00032C3.02198 8.21259 3.42017 7.50758 3.86341 6.89399C4.05024 6.63536 4.00049 6.26787 3.75229 6.07319Z" fill="#A9ACBC"/>
  <path fill-rule="evenodd" clip-rule="evenodd" d="M2.6867 2.42168C2.46703 2.65058 2.46703 3.0217 2.6867 3.25061L14.5172 15.5783C14.7369 15.8072 15.093 15.8072 15.3127 15.5783C15.5324 15.3494 15.5324 14.9783 15.3127 14.7494L3.4822 2.42168C3.26253 2.19277 2.90637 2.19277 2.6867 2.42168Z" fill="#A9ACBC"/>
</svg>