<svg xmlns="http://www.w3.org/2000/svg" width="18" height="18" viewBox="0 0 24 24" fill="none">
  <path fill-rule="evenodd" clip-rule="evenodd" d="M11.9996 9.60426C10.6696 9.60426 9.5886 10.6792 9.5886 12.0004C9.5886 13.3207 10.6696 14.3946 11.9996 14.3946C13.3296 14.3946 14.4116 13.3207 14.4116 12.0004C14.4116 10.6792 13.3296 9.60426 11.9996 9.60426ZM11.9996 15.8848C9.8426 15.8848 8.0886 14.1423 8.0886 12.0004C8.0886 9.85759 9.8426 8.11411 11.9996 8.11411C14.1566 8.11411 15.9116 9.85759 15.9116 12.0004C15.9116 14.1423 14.1566 15.8848 11.9996 15.8848Z" fill="#161528"/>
  <path fill-rule="evenodd" clip-rule="evenodd" d="M3.5699 11.9996C5.4299 16.0817 8.5629 18.5086 11.9999 18.5096C15.4369 18.5086 18.5699 16.0817 20.4299 11.9996C18.5699 7.9186 15.4369 5.49165 11.9999 5.49065C8.5639 5.49165 5.4299 7.9186 3.5699 11.9996ZM11.9969 19.9998C7.8609 19.9968 4.1469 17.1168 2.0609 12.2937C1.9799 12.1059 1.9799 11.8933 2.0609 11.7056C4.1469 6.88345 7.8619 4.00348 11.9969 4.0005C11.9989 3.99951 11.9989 3.99951 11.9999 4.0005C12.0019 3.99951 12.0019 3.99951 12.0029 4.0005C16.1389 4.00348 19.8529 6.88345 21.9389 11.7056C22.0209 11.8933 22.0209 12.1059 21.9389 12.2937C19.8539 17.1168 16.1389 19.9968 12.0029 19.9998H11.9969Z" fill="#161528"/>
</svg>