<svg width="24" height="24" viewBox="0 0 24 24" fill="none" xmlns="http://www.w3.org/2000/svg">
<path fill-rule="evenodd" clip-rule="evenodd" d="M8.3031 2.01188H14.544C14.7356 2.01188 14.9189 2.09572 15.0516 2.24404L19.8038 7.55583C19.9297 7.69645 19.9999 7.88383 19.9999 8.07876V17.3043C20.0153 19.8206 18.1689 21.8969 15.826 21.9989C15.8165 21.9993 15.807 21.9996 15.7975 21.9996H8.31122C8.28796 22.0001 8.26759 22 8.25288 21.9999C8.2305 21.9997 8.22665 21.9996 8.21549 21.9996L8.19984 21.9994C5.83143 21.9428 3.95365 19.8392 4.00087 17.2991V6.52126L4.00107 6.50347C4.05607 3.99948 5.96923 2.00306 8.3031 2.01188ZM5.40825 6.53064V17.3069L5.40808 17.3234C5.37341 19.0324 6.63464 20.4487 8.22636 20.4894L8.24434 20.4896L8.26442 20.4898L8.27583 20.4898C8.27829 20.4898 8.27912 20.4898 8.27912 20.4898C8.28668 20.4895 8.29424 20.4894 8.30181 20.4894H15.7825C17.3617 20.4129 18.6039 19.0104 18.5925 17.3123L18.5925 17.3069L18.5925 8.38254L14.2441 3.52206H8.2991C6.73312 3.51559 5.44928 4.85287 5.40825 6.53064Z" fill="#335B70"/>
<path fill-rule="evenodd" clip-rule="evenodd" d="M14.2975 2C14.6861 2 15.0012 2.33806 15.0012 2.75509V5.68382C15.0012 6.69686 15.7639 7.51784 16.708 7.5212H19.2918C19.6804 7.5212 19.9955 7.85926 19.9955 8.27629C19.9955 8.69331 19.6804 9.03138 19.2918 9.03138H16.7069L16.7049 9.03137C14.9849 9.02617 13.5938 7.52974 13.5938 5.68382V2.75509C13.5938 2.33806 13.9089 2 14.2975 2Z" fill="#335B70"/>
<path d="M8.88001 17.0952C8.75001 17.0952 8.60501 17.0736 8.44501 17.0302C8.28501 16.9902 8.12334 16.9252 7.96001 16.8352C7.80001 16.7452 7.65167 16.6286 7.51501 16.4852C7.38167 16.3419 7.27334 16.1702 7.19001 15.9702C7.11001 15.7702 7.07001 15.5386 7.07001 15.2752C7.07001 15.0219 7.11001 14.7986 7.19001 14.6052C7.27334 14.4119 7.38167 14.2452 7.51501 14.1052C7.64834 13.9652 7.79501 13.8519 7.95501 13.7652C8.11834 13.6786 8.28167 13.6152 8.44501 13.5752C8.60834 13.5319 8.75834 13.5102 8.89501 13.5102C9.06501 13.5102 9.21501 13.5319 9.34501 13.5752C9.47501 13.6152 9.58001 13.6586 9.66001 13.7052C9.74334 13.7486 9.79501 13.7769 9.81501 13.7902C9.88167 13.8336 9.94334 13.8819 10 13.9352C10.06 13.9852 10.09 14.0536 10.09 14.1402C10.09 14.1836 10.08 14.2286 10.06 14.2752C10.0433 14.3219 10.0167 14.3702 9.98001 14.4202C9.91334 14.5136 9.85001 14.5819 9.79001 14.6252C9.73334 14.6686 9.67667 14.6902 9.62001 14.6902C9.57667 14.6902 9.53501 14.6802 9.49501 14.6602C9.45501 14.6402 9.40667 14.6119 9.35001 14.5752C9.32667 14.5586 9.29667 14.5402 9.26001 14.5202C9.22334 14.4969 9.17334 14.4769 9.11001 14.4602C9.04667 14.4402 8.96334 14.4302 8.86001 14.4302C8.77334 14.4302 8.67834 14.4469 8.57501 14.4802C8.47501 14.5102 8.38001 14.5602 8.29001 14.6302C8.20001 14.6969 8.12667 14.7869 8.07001 14.9002C8.01334 15.0102 7.98501 15.1436 7.98501 15.3002C7.98501 15.4602 8.01334 15.5952 8.07001 15.7052C8.13001 15.8152 8.20501 15.9052 8.29501 15.9752C8.38501 16.0419 8.48001 16.0919 8.58001 16.1252C8.68334 16.1552 8.77667 16.1702 8.86001 16.1702C8.94667 16.1702 9.02001 16.1636 9.08001 16.1502C9.14001 16.1336 9.19334 16.1119 9.24001 16.0852C9.29001 16.0586 9.33501 16.0319 9.37501 16.0052C9.41167 15.9786 9.45167 15.9552 9.49501 15.9352C9.53834 15.9152 9.58167 15.9052 9.62501 15.9052C9.68167 15.9052 9.73834 15.9286 9.79501 15.9752C9.85167 16.0219 9.91167 16.0936 9.97501 16.1902C10.0117 16.2469 10.0383 16.3002 10.055 16.3502C10.075 16.3969 10.085 16.4402 10.085 16.4802C10.085 16.5636 10.055 16.6302 9.99501 16.6802C9.93834 16.7302 9.87667 16.7752 9.81001 16.8152C9.78667 16.8286 9.73667 16.8586 9.66001 16.9052C9.58334 16.9519 9.48001 16.9952 9.35001 17.0352C9.22001 17.0752 9.06334 17.0952 8.88001 17.0952Z" fill="#335B70"/>
<path d="M11.7593 17.0952C11.556 17.0952 11.3826 17.0702 11.2393 17.0202C11.0993 16.9702 10.9843 16.9119 10.8943 16.8452C10.8043 16.7752 10.736 16.7119 10.6893 16.6552C10.6426 16.5986 10.6143 16.5636 10.6043 16.5502C10.5376 16.4669 10.496 16.3919 10.4793 16.3252C10.466 16.2586 10.476 16.1919 10.5093 16.1252C10.546 16.0586 10.606 15.9852 10.6893 15.9052C10.766 15.8319 10.841 15.7919 10.9143 15.7852C10.9876 15.7752 11.0593 15.7902 11.1293 15.8302C11.2026 15.8702 11.2726 15.9286 11.3393 16.0052C11.4193 16.0952 11.4876 16.1569 11.5443 16.1902C11.601 16.2202 11.666 16.2352 11.7393 16.2352C11.8293 16.2352 11.9026 16.2252 11.9593 16.2052C12.016 16.1819 12.0576 16.1486 12.0843 16.1052C12.111 16.0586 12.1243 16.0002 12.1243 15.9302C12.1243 15.8736 12.096 15.8302 12.0393 15.8002C11.9826 15.7669 11.9076 15.7386 11.8143 15.7152C11.7243 15.6919 11.6226 15.6669 11.5093 15.6402C11.396 15.6102 11.2843 15.5719 11.1743 15.5252C11.1076 15.4986 11.0426 15.4652 10.9793 15.4252C10.916 15.3852 10.856 15.3402 10.7993 15.2902C10.746 15.2369 10.6993 15.1752 10.6593 15.1052C10.6193 15.0319 10.5876 14.9502 10.5643 14.8602C10.5443 14.7702 10.5343 14.6686 10.5343 14.5552C10.5343 14.3519 10.5843 14.1702 10.6843 14.0102C10.7876 13.8502 10.9276 13.7236 11.1043 13.6302C11.2843 13.5369 11.4876 13.4902 11.7143 13.4902C11.8776 13.4902 12.0176 13.5036 12.1343 13.5302C12.251 13.5569 12.346 13.5886 12.4193 13.6252C12.496 13.6619 12.5543 13.6969 12.5943 13.7302C12.6343 13.7602 12.6593 13.7802 12.6693 13.7902C12.7793 13.8902 12.8393 13.9769 12.8493 14.0502C12.8593 14.1202 12.8193 14.2219 12.7293 14.3552C12.6293 14.4986 12.531 14.5802 12.4343 14.6002C12.3376 14.6169 12.226 14.5852 12.0993 14.5052C12.0726 14.4852 12.046 14.4636 12.0193 14.4402C11.9926 14.4136 11.956 14.3919 11.9093 14.3752C11.866 14.3552 11.7993 14.3452 11.7093 14.3452C11.676 14.3452 11.6426 14.3519 11.6093 14.3652C11.576 14.3752 11.5476 14.3902 11.5243 14.4102C11.501 14.4269 11.481 14.4486 11.4643 14.4752C11.451 14.5019 11.4443 14.5302 11.4443 14.5602C11.4443 14.6302 11.471 14.6852 11.5243 14.7252C11.5776 14.7619 11.6476 14.7902 11.7343 14.8102C11.8243 14.8302 11.9226 14.8502 12.0293 14.8702C12.136 14.8902 12.2443 14.9169 12.3543 14.9502C12.4443 14.9802 12.531 15.0186 12.6143 15.0652C12.6976 15.1119 12.771 15.1719 12.8343 15.2452C12.8976 15.3186 12.9476 15.4102 12.9843 15.5202C13.0243 15.6269 13.0443 15.7586 13.0443 15.9152C13.0443 16.1319 13.0026 16.3169 12.9193 16.4702C12.836 16.6202 12.7276 16.7419 12.5943 16.8352C12.4643 16.9252 12.3243 16.9902 12.1743 17.0302C12.0276 17.0736 11.8893 17.0952 11.7593 17.0952Z" fill="#335B70"/>
<path d="M15.0429 17.0402C14.9329 17.0402 14.8396 17.0202 14.7629 16.9802C14.6862 16.9369 14.6296 16.8736 14.5929 16.7902L13.4079 14.1852C13.3446 14.0386 13.3279 13.9236 13.3579 13.8402C13.3912 13.7536 13.4846 13.6736 13.6379 13.6002C13.7446 13.5402 13.8346 13.5102 13.9079 13.5102C13.9846 13.5069 14.0496 13.5302 14.1029 13.5802C14.1562 13.6302 14.2029 13.7069 14.2429 13.8102L15.0329 15.7552L15.8229 13.8102C15.8662 13.7069 15.9146 13.6302 15.9679 13.5802C16.0212 13.5302 16.0862 13.5069 16.1629 13.5102C16.2396 13.5136 16.3279 13.5436 16.4279 13.6002C16.5946 13.6802 16.6912 13.7619 16.7179 13.8452C16.7446 13.9252 16.7246 14.0386 16.6579 14.1852L15.4729 16.7902C15.4396 16.8636 15.3829 16.9236 15.3029 16.9702C15.2262 17.0169 15.1396 17.0402 15.0429 17.0402Z" fill="#335B70"/>
</svg>
