<svg width="8" height="10" viewBox="0 0 8 10" fill="none" xmlns="http://www.w3.org/2000/svg">
<path d="M0.851542 5.25862L3.99417 0.375745C4.00265 0.362564 4.01696 0.354643 4.03228 0.354643H7.11025C7.14959 0.354643 7.17059 0.402542 7.14465 0.433105L4.52491 3.51985C4.5002 3.54897 4.51799 3.59475 4.55532 3.59813L7.11165 3.82983C7.15067 3.83336 7.16764 3.88264 7.13954 3.91085L1.44417 9.62879C1.40758 9.66553 1.34905 9.6222 1.37094 9.57459L3.29022 5.39966C3.30465 5.36829 3.2825 5.33209 3.24889 5.33209H0.889649C0.853121 5.33209 0.831315 5.29005 0.851542 5.25862Z" fill="#A9ACBC"/>
<path fill-rule="evenodd" clip-rule="evenodd" d="M4.1917 0.709286L1.4447 4.97745H3.24889C3.53464 4.97745 3.72286 5.28514 3.60026 5.55182L2.38976 8.18498L6.43426 4.12444L4.52533 3.95142C4.20798 3.92266 4.05681 3.53351 4.26685 3.28603L6.45375 0.709286H4.1917ZM3.70836 0.179365C3.78047 0.0673258 3.90206 0 4.03228 0H7.11025C7.44465 0 7.6232 0.407139 7.40272 0.666931L5.16986 3.29783L7.14164 3.47654C7.47338 3.50661 7.61756 3.92542 7.37873 4.16519L1.68336 9.88314C1.37238 10.1954 0.874867 9.82712 1.06091 9.42243L2.77827 5.68673H0.889649C0.579163 5.68673 0.393807 5.32937 0.565736 5.06224L3.70836 0.179365Z" fill="#A9ACBC"/>
</svg>
