<svg width="20" height="20" viewBox="0 0 20 20" fill="none" xmlns="http://www.w3.org/2000/svg">
<path fill-rule="evenodd" clip-rule="evenodd" d="M9.99996 11.25C10.6903 11.25 11.25 10.6904 11.25 10C11.25 9.30965 10.6903 8.75001 9.99996 8.75001C9.3096 8.75001 8.74996 9.30965 8.74996 10C8.74996 10.6904 9.3096 11.25 9.99996 11.25ZM9.99996 12.5C11.3807 12.5 12.5 11.3807 12.5 10C12.5 8.61929 11.3807 7.50001 9.99996 7.50001C8.61925 7.50001 7.49996 8.61929 7.49996 10C7.49996 11.3807 8.61925 12.5 9.99996 12.5Z" fill="#A9ACBC"/>
<path fill-rule="evenodd" clip-rule="evenodd" d="M2.36639 6.55503C1.90615 7.35218 2.17928 8.3715 2.97643 8.83174L3.77757 9.29427C4.02663 9.43807 4.16662 9.71241 4.16662 10C4.16662 10.2876 4.02662 10.562 3.77755 10.7058L2.97647 11.1683C2.17932 11.6285 1.90619 12.6478 2.36643 13.445L3.19977 14.8884C3.66 15.6855 4.67932 15.9586 5.47647 15.4984L6.27669 15.0364C6.52608 14.8924 6.83322 14.9082 7.08246 15.0525C7.33136 15.1965 7.49996 15.4552 7.49996 15.7428V16.6667C7.49996 17.5871 8.24615 18.3333 9.16662 18.3333H10.8333C11.7538 18.3333 12.5 17.5871 12.5 16.6667V15.7428C12.5 15.4552 12.6686 15.1965 12.9174 15.0525C13.1667 14.9082 13.4738 14.8924 13.7232 15.0364L14.5234 15.4984C15.3206 15.9586 16.3399 15.6855 16.8001 14.8884L17.6335 13.445C18.0937 12.6478 17.8206 11.6285 17.0234 11.1683L16.2224 10.7058C15.9733 10.562 15.8333 10.2876 15.8333 10C15.8333 9.71241 15.9733 9.43807 16.2223 9.29427L17.0235 8.83174C17.8206 8.3715 18.0938 7.35218 17.6335 6.55503L16.8002 5.11165C16.34 4.3145 15.3206 4.04137 14.5235 4.50161L13.7233 4.96362C13.4739 5.10761 13.1667 5.09179 12.9175 4.94755C12.6686 4.80352 12.5 4.54478 12.5 4.25721V3.33334C12.5 2.41286 11.7538 1.66667 10.8333 1.66667H9.16662C8.24615 1.66667 7.49996 2.41286 7.49996 3.33334V4.25721C7.49996 4.54478 7.33135 4.80352 7.08246 4.94755C6.83321 5.09179 6.52605 5.10761 6.27666 4.96362L5.47643 4.50161C4.67928 4.04137 3.65996 4.3145 3.19972 5.11165L2.36639 6.55503ZM9.16662 2.91667C8.93651 2.91667 8.74996 3.10322 8.74996 3.33334V4.25721C8.74996 5.04736 8.2921 5.69176 7.70854 6.02945C7.12041 6.3698 6.33396 6.44008 5.65166 6.04615L4.85143 5.58414C4.65215 5.46908 4.39732 5.53736 4.28226 5.73665L3.44892 7.18003C3.33386 7.37932 3.40215 7.63415 3.60143 7.7492L4.40257 8.21174C5.08489 8.60568 5.41662 9.32226 5.41662 10C5.41662 10.6778 5.08489 11.3944 4.40255 11.7883L3.60147 12.2508C3.40219 12.3659 3.3339 12.6207 3.44896 12.82L4.2823 14.2634C4.39736 14.4626 4.65219 14.5309 4.85147 14.4159L5.65169 13.9539C6.33398 13.5599 7.12042 13.6302 7.70855 13.9706C8.29211 14.3083 8.74996 14.9526 8.74996 15.7428V16.6667C8.74996 16.8968 8.9365 17.0833 9.16662 17.0833H10.8333C11.0634 17.0833 11.25 16.8968 11.25 16.6667V15.7428C11.25 14.9526 11.7078 14.3083 12.2914 13.9706C12.8795 13.6302 13.6659 13.5599 14.3482 13.9539L15.1484 14.4159C15.3477 14.5309 15.6026 14.4626 15.7176 14.2634L16.551 12.82C16.666 12.6207 16.5977 12.3659 16.3984 12.2508L15.5974 11.7883C14.915 11.3944 14.5833 10.6778 14.5833 10C14.5833 9.32226 14.915 8.60568 15.5973 8.21174L16.3985 7.7492C16.5978 7.63414 16.6661 7.37932 16.551 7.18003L15.7177 5.73665C15.6026 5.53736 15.3478 5.46908 15.1485 5.58414L14.3483 6.04615C13.666 6.44008 12.8795 6.3698 12.2914 6.02945C11.7078 5.69176 11.25 5.04736 11.25 4.25721V3.33334C11.25 3.10322 11.0634 2.91667 10.8333 2.91667H9.16662Z" fill="#A9ACBC"/>
</svg>
