<svg width="18" height="18" viewBox="0 0 18 18" fill="none" xmlns="http://www.w3.org/2000/svg">
<path fill-rule="evenodd" clip-rule="evenodd" d="M9.00012 2.625C5.47978 2.625 2.62512 5.47966 2.62512 9C2.62512 12.5204 5.47907 15.375 9.00012 15.375C12.5205 15.375 15.3751 12.5203 15.3751 9C15.3751 5.47895 12.5205 2.625 9.00012 2.625ZM1.50012 9C1.50012 4.85834 4.85846 1.5 9.00012 1.5C13.1417 1.5 16.5001 4.85755 16.5001 9C16.5001 13.1417 13.1418 16.5 9.00012 16.5C4.85767 16.5 1.50012 13.1416 1.50012 9Z" fill="#24A148"/>
<path fill-rule="evenodd" clip-rule="evenodd" d="M12.0676 6.82256C12.2872 7.04223 12.2872 7.39838 12.0676 7.61805L8.50805 11.1776C8.28841 11.3972 7.93232 11.3972 7.71264 11.1776L5.93214 9.39789C5.71242 9.17826 5.71235 8.82211 5.93197 8.60239C6.1516 8.38268 6.50775 8.3826 6.72747 8.60222L8.11022 9.98439L11.2721 6.82256C11.4917 6.60289 11.8479 6.60289 12.0676 6.82256Z" fill="#24A148"/>
</svg>
