<svg xmlns="http://www.w3.org/2000/svg" width="18" height="18" viewBox="0 0 18 18" fill="none">
  <path fill-rule="evenodd" clip-rule="evenodd" d="M3.80769 5.8125C3.80769 3.84499 5.44358 2.25 7.46154 2.25H10.5385C12.5564 2.25 14.1923 3.84499 14.1923 5.8125V6.375H14.3846C15.5529 6.375 16.5 7.29841 16.5 8.4375V9.9375C16.5 11.0766 15.5529 12 14.3846 12H14.147C13.8704 13.7002 12.3601 15 10.5385 15H9.83199C9.61594 15.4434 9.15238 15.75 8.61538 15.75H7.46154C6.71808 15.75 6.11538 15.1624 6.11538 14.4375C6.11538 13.7126 6.71808 13.125 7.46154 13.125H8.61538C9.15238 13.125 9.61594 13.4316 9.83199 13.875H10.5385C11.9192 13.875 13.0385 12.7837 13.0385 11.4375V5.8125C13.0385 4.46631 11.9192 3.375 10.5385 3.375H7.46154C6.08083 3.375 4.96154 4.46631 4.96154 5.8125V10.6875C4.96154 11.4124 4.35884 12 3.61538 12C2.44709 12 1.5 11.0766 1.5 9.9375V8.4375C1.5 7.29841 2.44709 6.375 3.61538 6.375H3.80769V5.8125ZM3.80769 7.5H3.61538C3.08434 7.5 2.65385 7.91973 2.65385 8.4375V9.9375C2.65385 10.4553 3.08434 10.875 3.61538 10.875C3.72159 10.875 3.80769 10.7911 3.80769 10.6875V7.5ZM14.1923 10.875H14.3846C14.9157 10.875 15.3462 10.4553 15.3462 9.9375V8.4375C15.3462 7.91973 14.9157 7.5 14.3846 7.5H14.1923V10.875ZM8.80769 14.4375C8.80769 14.3339 8.72159 14.25 8.61538 14.25H7.46154C7.35533 14.25 7.26923 14.3339 7.26923 14.4375C7.26923 14.5411 7.35533 14.625 7.46154 14.625H8.61538C8.72159 14.625 8.80769 14.5411 8.80769 14.4375Z" fill="#2C304E"/>
</svg>