<svg width="20" height="20" viewBox="0 0 20 20" fill="none" xmlns="http://www.w3.org/2000/svg">
<g id="info_filled">
<path id="Vector" d="M10 2C5.58179 2 2 5.58179 2 10C2 14.4188 5.5821 18 10.0003 18C14.4188 18 18 14.4188 18 10C18 5.58179 14.4188 2 10 2ZM10.3384 5.16452C10.9191 5.16452 11.3897 5.63545 11.3897 6.21621C11.3897 6.79697 10.9191 7.26789 10.3384 7.26789C9.75759 7.26789 9.28667 6.79697 9.28667 6.21621C9.28667 5.63545 9.75759 5.16452 10.3384 5.16452ZM11.2811 14.4693C11.2811 14.4693 10.4526 15.164 9.40882 14.6401C9.17715 14.5243 8.98146 14.3232 8.85647 14.1019C8.50201 13.4751 8.63837 12.8025 8.63837 12.8025L8.74252 11.9777L9.01302 9.82703L8.27634 9.84313C7.93135 9.85102 7.64665 9.57737 7.63908 9.2327C7.63308 8.96504 7.79878 8.73274 8.03425 8.639L9.92204 7.89568C10.3715 7.71861 10.879 7.93956 11.0558 8.38902C11.1233 8.55977 11.1331 8.73779 11.0946 8.90381L11.0697 9.01586L10.3314 12.2577L10.1471 13.0683C10.1199 13.1904 10.1158 13.2182 10.1079 13.2823C10.0881 13.6471 10.607 13.3735 10.607 13.3735C10.9185 13.2015 11.3105 13.3154 11.4816 13.6269C11.6429 13.9195 11.5494 14.2838 11.2811 14.4693Z" fill="#5C98E5"/>
</g>
</svg>
