<svg width="16" height="16" viewBox="0 0 16 16" fill="none" xmlns="http://www.w3.org/2000/svg">
<g id="info-circle-fill">
<path id="Vector" d="M7.99961 1.6001C4.46504 1.6001 1.59961 4.46553 1.59961 8.0001C1.59961 11.5352 4.46529 14.4001 7.99986 14.4001C11.5347 14.4001 14.3996 11.5352 14.3996 8.0001C14.3996 4.46553 11.5347 1.6001 7.99961 1.6001ZM8.2703 4.13172C8.7349 4.13172 9.11139 4.50845 9.11139 4.97306C9.11139 5.43767 8.7349 5.81441 8.2703 5.81441C7.80569 5.81441 7.42895 5.43767 7.42895 4.97306C7.42895 4.50845 7.80569 4.13172 8.2703 4.13172ZM9.02453 11.5756C9.02453 11.5756 8.3617 12.1313 7.52667 11.7122C7.34133 11.6195 7.18477 11.4587 7.08478 11.2817C6.80122 10.7802 6.9103 10.2421 6.9103 10.2421L6.99363 9.5823L7.21002 7.86172L6.62068 7.8746C6.34469 7.88091 6.11693 7.66199 6.11087 7.38626C6.10607 7.17213 6.23864 6.98629 6.42701 6.91129L7.93724 6.31664C8.29681 6.17499 8.70284 6.35174 8.84424 6.71131C8.89828 6.84792 8.9061 6.99033 8.8753 7.12315L8.85535 7.21279L8.26474 9.80627L8.11728 10.4547C8.09556 10.5524 8.09228 10.5746 8.08597 10.6259C8.07006 10.9178 8.48518 10.6989 8.48518 10.6989C8.7344 10.5613 9.04801 10.6524 9.18487 10.9016C9.3139 11.1357 9.23916 11.4271 9.02453 11.5756Z" fill="none"/>
</g>
</svg>
