<svg width="20" height="20" viewBox="0 0 20 20" fill="none" xmlns="http://www.w3.org/2000/svg">
<path fill-rule="evenodd" clip-rule="evenodd" d="M5.83325 4.87183C5.83325 3.10169 7.306 1.6667 9.12273 1.6667H10.8771C12.6938 1.6667 14.1666 3.10169 14.1666 4.87183V9.14534C14.1666 10.9155 12.6938 12.3505 10.8771 12.3505H9.99992C9.63657 12.3505 9.34202 12.0635 9.34202 11.7094C9.34202 11.3554 9.63657 11.0684 9.99992 11.0684H10.8771C11.9671 11.0684 12.8508 10.2074 12.8508 9.14534V4.87183C12.8508 3.80974 11.9671 2.94875 10.8771 2.94875H9.12273C8.03269 2.94875 7.14904 3.80974 7.14904 4.87183V6.58123C7.14904 6.93526 6.85449 7.22226 6.49115 7.22226C6.1278 7.22226 5.83325 6.93526 5.83325 6.58123V4.87183ZM5.83325 10.8547C5.83325 9.08459 7.306 7.64961 9.12273 7.64961H9.99992C10.3633 7.64961 10.6578 7.93661 10.6578 8.29063C10.6578 8.64466 10.3633 8.93166 9.99992 8.93166H9.12273C8.03269 8.93166 7.14904 9.79265 7.14904 10.8547L7.14904 15.1282C7.14904 16.1903 8.03269 17.0513 9.12273 17.0513H10.8771C11.9671 17.0513 12.8508 16.1903 12.8508 15.1282V13.4188C12.8508 13.0648 13.1453 12.7778 13.5087 12.7778C13.872 12.7778 14.1666 13.0648 14.1666 13.4188V15.1282C14.1666 16.8984 12.6938 18.3334 10.8771 18.3334H9.12273C7.306 18.3334 5.83325 16.8984 5.83325 15.1282V10.8547Z" fill="none"/>
</svg>
