<svg width="24" height="24" viewBox="0 0 24 24" fill="none" xmlns="http://www.w3.org/2000/svg">
<g id="list">
<g id="Vector">
<path fill-rule="evenodd" clip-rule="evenodd" d="M7.5731 3.51166C5.9161 3.51166 4.5401 4.85366 4.5011 6.50866V17.2037C4.4641 18.9167 5.8141 20.3277 7.5101 20.3657H15.5741C17.2431 20.2967 18.5651 18.9097 18.5531 17.2097V8.33966L13.9181 3.51166H7.5731ZM7.4761 21.8657C4.9541 21.8087 2.9461 19.7107 3.0011 17.1877V6.49066C3.0591 4.00966 5.1081 2.01166 7.5711 2.01166H14.2381C14.4421 2.01166 14.6371 2.09466 14.7791 2.24166L19.8441 7.51866C19.9781 7.65766 20.0531 7.84466 20.0531 8.03766V17.2037C20.0711 19.7127 18.1171 21.7627 15.6041 21.8647L7.4761 21.8657Z" fill="none"/>
<path fill-rule="evenodd" clip-rule="evenodd" d="M19.2983 8.98424H16.5433C14.7133 8.97924 13.2253 7.48724 13.2253 5.65924V2.75024C13.2253 2.33624 13.5613 2.00024 13.9753 2.00024C14.3893 2.00024 14.7253 2.33624 14.7253 2.75024V5.65924C14.7253 6.66324 15.5423 7.48124 16.5453 7.48424H19.2983C19.7123 7.48424 20.0483 7.82024 20.0483 8.23424C20.0483 8.64824 19.7123 8.98424 19.2983 8.98424Z" fill="none"/>
<path fill-rule="evenodd" clip-rule="evenodd" d="M13.7885 16.1083H8.38846C7.97446 16.1083 7.63846 15.7723 7.63846 15.3583C7.63846 14.9443 7.97446 14.6083 8.38846 14.6083H13.7885C14.2025 14.6083 14.5385 14.9443 14.5385 15.3583C14.5385 15.7723 14.2025 16.1083 13.7885 16.1083Z" fill="none"/>
<path fill-rule="evenodd" clip-rule="evenodd" d="M11.7436 12.3563H8.38756C7.97356 12.3563 7.63756 12.0203 7.63756 11.6063C7.63756 11.1923 7.97356 10.8563 8.38756 10.8563H11.7436C12.1576 10.8563 12.4936 11.1923 12.4936 11.6063C12.4936 12.0203 12.1576 12.3563 11.7436 12.3563Z" fill="none"/>
</g>
</g>
</svg>
