<svg width="16" height="16" viewBox="0 0 16 16" fill="none" xmlns="http://www.w3.org/2000/svg">
<path fill-rule="evenodd" clip-rule="evenodd" d="M11.2818 6.80001C11.0058 6.80001 10.7818 6.57601 10.7818 6.30001V4.86867C10.7818 3.47134 9.6451 2.33467 8.24777 2.33467H8.2371C7.56177 2.33467 6.9291 2.59467 6.4511 3.06867C5.96977 3.54467 5.70377 4.18001 5.7011 4.85734V6.30001C5.7011 6.57601 5.4771 6.80001 5.2011 6.80001C4.9251 6.80001 4.7011 6.57601 4.7011 6.30001V4.86867C4.7051 3.90867 5.07644 3.02267 5.74644 2.35867C6.4171 1.69401 7.30244 1.30934 8.24977 1.33467C10.1964 1.33467 11.7818 2.92001 11.7818 4.86867V6.30001C11.7818 6.57601 11.5578 6.80001 11.2818 6.80001Z" fill="#2C304E"/>
<path fill-rule="evenodd" clip-rule="evenodd" d="M5.6945 6.75254C4.57584 6.75254 3.6665 7.66187 3.6665 8.78054V11.6399C3.6665 12.7585 4.57584 13.6679 5.6945 13.6679H10.7885C11.9065 13.6679 12.8165 12.7585 12.8165 11.6399V8.78054C12.8165 7.66187 11.9065 6.75254 10.7885 6.75254H5.6945ZM10.7885 14.6679H5.6945C4.0245 14.6679 2.6665 13.3099 2.6665 11.6399V8.78054C2.6665 7.11054 4.0245 5.75254 5.6945 5.75254H10.7885C12.4585 5.75254 13.8165 7.11054 13.8165 8.78054V11.6399C13.8165 13.3099 12.4585 14.6679 10.7885 14.6679Z" fill="#2C304E"/>
<path fill-rule="evenodd" clip-rule="evenodd" d="M8.24137 11.4504C7.96537 11.4504 7.74137 11.2264 7.74137 10.9504V9.46974C7.74137 9.19374 7.96537 8.96974 8.24137 8.96974C8.51737 8.96974 8.74137 9.19374 8.74137 9.46974V10.9504C8.74137 11.2264 8.51737 11.4504 8.24137 11.4504Z" fill="#2C304E"/>
</svg>
