<svg width="20" height="20" viewBox="0 0 20 20" fill="none" xmlns="http://www.w3.org/2000/svg">
<path fill-rule="evenodd" clip-rule="evenodd" d="M1.74218 3.35684C1.64161 3.28971 1.64161 3.14173 1.74218 3.0746L3.80822 1.69544C3.92078 1.6203 4.07156 1.7011 4.07156 1.83656V2.57969H6.08892C6.65031 2.57969 7.16352 2.89729 7.41458 3.40006L10.0001 8.57781L12.5856 3.40006C12.8366 2.89729 13.3498 2.57969 13.9112 2.57969H15.9286V1.83656C15.9286 1.7011 16.0794 1.6203 16.1919 1.69544L18.258 3.0746C18.3586 3.14173 18.3586 3.28971 18.258 3.35684L16.1919 4.736C16.0794 4.81114 15.9286 4.73034 15.9286 4.59488V3.85175H13.9112C13.831 3.85175 13.7577 3.89712 13.7219 3.96894L10.7103 10L13.7219 16.0311C13.7577 16.1029 13.831 16.1483 13.9112 16.1483H15.9286V15.4051C15.9286 15.2697 16.0794 15.1889 16.1919 15.264L18.258 16.6432C18.3586 16.7103 18.3586 16.8583 18.258 16.9254L16.1919 18.3046C16.0794 18.3797 15.9286 18.2989 15.9286 18.1634V17.4203H13.9112C13.3498 17.4203 12.8366 17.1027 12.5856 16.5999L10.0001 11.4222L7.41458 16.5999C7.16352 17.1027 6.65031 17.4203 6.08892 17.4203H4.07156V18.1634C4.07156 18.2989 3.92078 18.3797 3.80822 18.3046L1.74218 16.9254C1.64161 16.8583 1.64161 16.7103 1.74218 16.6432L3.80822 15.264C3.92078 15.1889 4.07156 15.2697 4.07156 15.4051V16.1483H6.08892C6.16912 16.1483 6.24244 16.1029 6.2783 16.0311L9.28991 10L6.2783 3.96894C6.24244 3.89712 6.16912 3.85175 6.08892 3.85175H4.07156V4.59488C4.07156 4.73034 3.92078 4.81114 3.80822 4.736L1.74218 3.35684Z" fill="none"/>
</svg>
