<svg width="16" height="16" viewBox="0 0 16 16" fill="none" xmlns="http://www.w3.org/2000/svg">
<path fill-rule="evenodd" clip-rule="evenodd" d="M10.8928 14.6663H5.1059C2.84925 14.6663 1.33301 13.0826 1.33301 10.7258V5.27359C1.33301 2.91672 2.84925 1.33301 5.1059 1.33301H7.55798C7.82949 1.33301 8.04984 1.55335 8.04984 1.82484C8.04984 2.09634 7.82949 2.31668 7.55798 2.31668H5.1059C3.41128 2.31668 2.31673 3.47741 2.31673 5.27359V10.7258C2.31673 12.5219 3.41128 13.6827 5.1059 13.6827H10.8928C12.5874 13.6827 13.6826 12.5219 13.6826 10.7258V8.08427C13.6826 7.81278 13.903 7.59243 14.1745 7.59243C14.446 7.59243 14.6663 7.81278 14.6663 8.08427V10.7258C14.6663 13.0826 13.1494 14.6663 10.8928 14.6663Z" fill="#2C304E"/>
<path fill-rule="evenodd" clip-rule="evenodd" d="M8.14584 7.85351C7.95095 7.65862 7.95095 7.34228 8.14584 7.14739L13.8141 1.47917C14.0089 1.28429 14.3253 1.28429 14.5202 1.47917C14.7151 1.67406 14.7151 1.9904 14.5202 2.18529L8.85196 7.85351C8.65707 8.0484 8.34073 8.0484 8.14584 7.85351Z" fill="#2C304E"/>
<path fill-rule="evenodd" clip-rule="evenodd" d="M10.8221 2.24928C10.7261 2.15335 10.6663 2.02025 10.6663 1.87359C10.6658 1.57977 10.9029 1.34069 11.1978 1.34019L14.1329 1.33366C14.4162 1.33266 14.6673 1.58379 14.6663 1.86706L14.6603 4.80227C14.6593 5.09659 14.4207 5.33416 14.1268 5.33366C13.8325 5.33265 13.5944 5.09458 13.5954 4.80026L13.5999 2.39996L11.1998 2.40498C11.0521 2.40599 10.9185 2.34572 10.8221 2.24928Z" fill="#2C304E"/>
</svg>
