<svg width="20" height="20" viewBox="0 0 20 20" fill="none" xmlns="http://www.w3.org/2000/svg">
<path fill-rule="evenodd" clip-rule="evenodd" d="M1.83881 15.1547C1.61795 15.3861 1.49902 15.6567 1.49902 16.0188C1.49902 16.3791 1.61794 16.647 1.83896 16.8761C2.07786 17.1238 2.46363 17.3518 3.02413 17.5392C4.15273 17.9166 5.7616 18.0568 7.59102 18.0568C9.42912 18.0568 11.0372 17.9115 12.1624 17.5299C12.721 17.3404 13.1053 17.1106 13.3435 16.8614C13.5642 16.6304 13.683 16.3604 13.683 15.9988C13.683 15.6388 13.5641 15.3706 13.3428 15.141C13.1036 14.8929 12.7176 14.6644 12.157 14.4765C11.0283 14.0981 9.4195 13.9568 7.59102 13.9568C5.75264 13.9568 4.14469 14.1027 3.01977 14.4851C2.46125 14.675 2.07696 14.9052 1.83881 15.1547ZM2.53702 13.0649C3.90536 12.5998 5.71841 12.4568 7.59102 12.4568C9.45154 12.4568 11.2637 12.5949 12.6338 13.0543C13.3226 13.2852 13.9554 13.6152 14.4227 14.0999C14.9078 14.6032 15.183 15.2423 15.183 15.9988C15.183 16.7536 14.9104 17.3929 14.4279 17.8977C13.9628 18.3844 13.3323 18.717 12.6442 18.9504C11.2759 19.4145 9.46292 19.5568 7.59102 19.5568C5.73044 19.5568 3.91832 19.4199 2.54842 18.9618C1.85967 18.7315 1.22681 18.4021 0.759398 17.9176C0.274102 17.4145 -0.000976562 16.7754 -0.000976562 16.0188C-0.000976562 15.2639 0.271469 14.6244 0.753647 14.1191C1.21853 13.632 1.84892 13.2988 2.53702 13.0649Z" fill="none"/>
<path fill-rule="evenodd" clip-rule="evenodd" d="M7.59102 1.99976C5.58301 1.99976 3.95502 3.62719 3.95502 5.63476C3.95502 7.64232 5.58301 9.26976 7.59102 9.26976H7.62045C9.61903 9.26164 11.2335 7.63558 11.226 5.63755L11.226 5.63476C11.226 3.62708 9.59792 1.99976 7.59102 1.99976ZM2.45502 5.63476C2.45502 2.79832 4.75503 0.499756 7.59102 0.499756C10.4256 0.499756 12.7252 2.7976 12.726 5.63322C12.7359 8.46021 10.4513 10.7592 7.62482 10.7698L7.62202 10.7698H7.59102C4.75503 10.7698 2.45502 8.47119 2.45502 5.63476Z" fill="none"/>
<path fill-rule="evenodd" clip-rule="evenodd" d="M13.8175 2.24217C13.8845 1.83342 14.2703 1.55641 14.679 1.62344C16.6026 1.93893 18.0696 3.60722 18.0696 5.61956L18.0696 5.62091C18.0659 7.66255 16.5525 9.34803 14.587 9.62426C14.1768 9.6819 13.7976 9.39612 13.7399 8.98593C13.6823 8.57575 13.9681 8.1965 14.3782 8.13885C15.6145 7.96511 16.567 6.90293 16.5696 5.61887C16.5693 4.35351 15.6464 3.30215 14.4362 3.10367C14.0275 3.03663 13.7505 2.65092 13.8175 2.24217Z" fill="none"/>
<path fill-rule="evenodd" clip-rule="evenodd" d="M15.8531 12.6217C15.9141 12.212 16.2957 11.9293 16.7054 11.9903C17.5216 12.1119 18.3063 12.3264 18.905 12.7192C19.5413 13.1368 19.9789 13.7705 19.9789 14.6272C19.9789 15.1957 19.7845 15.6902 19.4326 16.0879C19.0947 16.4698 18.6414 16.7299 18.1612 16.9123C17.774 17.0594 17.3409 16.8647 17.1938 16.4775C17.0467 16.0903 17.2414 15.6571 17.6286 15.51C17.9725 15.3794 18.1862 15.233 18.3092 15.0939C18.4184 14.9706 18.4789 14.8296 18.4789 14.6272C18.4789 14.3638 18.375 14.1655 18.0821 13.9733C17.7515 13.7564 17.2193 13.5834 16.4844 13.474C16.0747 13.413 15.7921 13.0314 15.8531 12.6217Z" fill="none"/>
</svg>
