<svg width="18" height="18" viewBox="0 0 18 18" fill="none" xmlns="http://www.w3.org/2000/svg">
<path d="M8.99934 5.57188C9.32044 5.57188 9.58074 5.83218 9.58074 6.15328V8.41156H11.8417C12.1628 8.41156 12.4231 8.67185 12.4231 8.99295C12.4231 9.31405 12.1628 9.57435 11.8417 9.57435H9.58074V11.8326C9.58074 12.1537 9.32044 12.414 8.99934 12.414C8.67825 12.414 8.41795 12.1537 8.41795 11.8326V9.57435H6.15697C5.83587 9.57435 5.57557 9.31405 5.57557 8.99295C5.57557 8.67185 5.83587 8.41156 6.15697 8.41156H8.41795V6.15328C8.41795 5.83218 8.67825 5.57188 8.99934 5.57188Z" fill="none"/>
<path fill-rule="evenodd" clip-rule="evenodd" d="M5.36701 0.666992C3.9569 0.666992 2.76693 1.16997 1.93233 2.06526C1.10195 2.95602 0.666016 4.18864 0.666016 5.57797V12.4227C0.666016 13.8113 1.09968 15.044 1.92931 15.9351C2.7633 16.8309 3.95358 17.3337 5.36701 17.3337H12.6317C14.0451 17.3337 15.2354 16.8309 16.0694 15.9351C16.899 15.044 17.3327 13.8113 17.3327 12.4227V5.57797C17.3327 4.18935 16.899 2.95664 16.0694 2.06554C15.2354 1.16973 14.0451 0.666992 12.6317 0.666992H5.36701ZM1.82881 5.57797C1.82881 4.43003 2.18652 3.49785 2.78287 2.85814C3.37499 2.22297 4.24483 1.82978 5.36701 1.82978H12.6317C13.7579 1.82978 14.6275 2.2232 15.2183 2.85787C15.8136 3.49724 16.1699 4.42932 16.1699 5.57797V12.4227C16.1699 13.5713 15.8136 14.5034 15.2183 15.1428C14.6275 15.7775 13.7579 16.1709 12.6317 16.1709H5.36701C4.24076 16.1709 3.37124 15.7775 2.78036 15.1428C2.1851 14.5034 1.82881 13.5713 1.82881 12.4227V5.57797Z" fill="none"/>
</svg>
