<svg width="24" height="24" viewBox="0 0 24 24" fill="none" xmlns="http://www.w3.org/2000/svg">
<g id="question-square-outline">
<g id="Vector">
<path fill-rule="evenodd" clip-rule="evenodd" d="M3.526 3.6865C4.53348 2.60562 5.96871 2 7.665 2H16.334C18.0343 2 19.4701 2.6053 20.4771 3.68678C21.4785 4.76222 22 6.2476 22 7.916V16.084C22 17.7524 21.4785 19.2378 20.477 20.3133C19.4698 21.3948 18.0337 22 16.333 22H7.665C5.9647 22 4.52906 21.3947 3.52228 20.3131C2.52115 19.2377 2 17.7523 2 16.084V7.916C2 6.24677 2.52396 4.76152 3.526 3.6865ZM4.62325 4.70925C3.92304 5.46048 3.5 6.55823 3.5 7.916V16.084C3.5 17.4427 3.92135 18.5403 4.62022 19.2911C5.31344 20.0358 6.3353 20.5 7.665 20.5H16.333C17.6633 20.5 18.6857 20.0357 19.3793 19.291C20.0785 18.5402 20.5 17.4426 20.5 16.084V7.916C20.5 6.5574 20.0785 5.45978 19.3794 4.70897C18.6859 3.9642 17.6637 3.5 16.334 3.5H7.665C6.34029 3.5 5.31802 3.96388 4.62325 4.70925Z" fill="none"/>
<path d="M14.9328 9.95232C14.9328 11.5544 13.6705 12.71 13.0506 13.2776L13.0385 13.2887L12.8605 13.4481C12.7587 13.6291 12.7063 13.8336 12.7085 14.0413C12.7085 14.2379 12.6304 14.4265 12.4914 14.5655C12.3523 14.7046 12.1638 14.7827 11.9671 14.7827C11.7705 14.7827 11.5819 14.7046 11.4429 14.5655C11.3038 14.4265 11.2257 14.2379 11.2257 14.0413C11.2186 13.4431 11.4279 12.8624 11.8151 12.4064C11.8707 12.3471 11.9486 12.2767 12.0413 12.1914C12.5009 11.7799 13.45 10.9199 13.45 9.96715C13.4631 9.76903 13.4337 9.57039 13.3638 9.38454C13.2939 9.19869 13.1851 9.02992 13.0448 8.88952C12.9044 8.74912 12.7356 8.64034 12.5497 8.57046C12.3639 8.50057 12.1652 8.4712 11.9671 8.48431C11.769 8.4712 11.5704 8.50057 11.3845 8.57046C11.1987 8.64034 11.0299 8.74912 10.8895 8.88952C10.7491 9.02992 10.6403 9.19869 10.5704 9.38454C10.5006 9.57039 10.4712 9.76903 10.4843 9.96715C10.4843 10.1638 10.4062 10.3524 10.2671 10.4914C10.1281 10.6305 9.9395 10.7086 9.74286 10.7086C9.54623 10.7086 9.35765 10.6305 9.2186 10.4914C9.07956 10.3524 9.00144 10.1638 9.00144 9.96715C8.98855 9.57421 9.05644 9.1828 9.20092 8.81715C9.3454 8.45151 9.56338 8.11941 9.84138 7.8414C10.1194 7.5634 10.4515 7.34542 10.8171 7.20094C11.1828 7.05647 11.5742 6.98857 11.9671 7.00147C12.3588 6.98868 12.7489 7.05614 13.1135 7.19972C13.4781 7.34329 13.8095 7.55994 14.0873 7.83633C14.3651 8.11273 14.5834 8.44303 14.7288 8.80692C14.8742 9.17081 14.9436 9.5606 14.9328 9.95232Z" fill="none"/>
<path d="M12.3786 15.639C12.3387 15.612 12.2965 15.5884 12.2526 15.5686C12.2068 15.5511 12.1597 15.5375 12.1117 15.5278C12.003 15.5062 11.8908 15.5092 11.7834 15.5366C11.676 15.5641 11.5762 15.6152 11.4912 15.6864C11.4062 15.7575 11.3382 15.8468 11.2923 15.9476C11.2463 16.0485 11.2236 16.1584 11.2257 16.2692C11.2202 16.3173 11.2202 16.3658 11.2257 16.4138C11.2354 16.4618 11.249 16.5089 11.2665 16.5547C11.2863 16.5986 11.3099 16.6408 11.3369 16.6807C11.3633 16.7214 11.3931 16.7599 11.4259 16.7956C11.4981 16.8635 11.5833 16.9162 11.6762 16.9505C11.7692 16.9849 11.8681 17.0003 11.9671 16.9958C12.0152 17.0013 12.0637 17.0013 12.1117 16.9958C12.1601 16.9879 12.2074 16.9742 12.2526 16.955C12.2972 16.9367 12.3396 16.913 12.3786 16.8846C12.4628 16.8351 12.533 16.7649 12.5825 16.6807C12.6109 16.6417 12.6346 16.5993 12.6529 16.5547C12.6721 16.5095 12.6858 16.4622 12.6937 16.4138C12.6992 16.3658 12.6992 16.3173 12.6937 16.2692C12.6943 16.1716 12.6756 16.0749 12.6387 15.9846C12.6018 15.8942 12.5474 15.8121 12.4787 15.7428C12.4483 15.7055 12.4148 15.6708 12.3786 15.639Z" fill="none"/>
</g>
</g>
</svg>
