<svg width="20" height="20" viewBox="0 0 20 20" fill="none" xmlns="http://www.w3.org/2000/svg">
<path fill-rule="evenodd" clip-rule="evenodd" d="M1.52609 1.6865C2.53358 0.605621 3.9688 0 5.66509 0H14.3341C16.0344 0 17.4702 0.605298 18.4772 1.68678C19.4786 2.76222 20.0001 4.2476 20.0001 5.916V14.084C20.0001 15.7524 19.4786 17.2378 18.4771 18.3133C17.4699 19.3948 16.0338 20 14.3331 20H5.66509C3.96479 20 2.52915 19.3947 1.52238 18.3131C0.521245 17.2377 9.15527e-05 15.7523 9.15527e-05 14.084V5.916C9.15527e-05 4.24677 0.524054 2.76152 1.52609 1.6865ZM2.62334 2.70925C1.92313 3.46048 1.50009 4.55823 1.50009 5.916V14.084C1.50009 15.4427 1.92144 16.5403 2.62031 17.2911C3.31353 18.0358 4.3354 18.5 5.66509 18.5H14.3331C15.6634 18.5 16.6858 18.0357 17.3794 17.291C18.0786 16.5402 18.5001 15.4426 18.5001 14.084V5.916C18.5001 4.5574 18.0786 3.45978 17.3794 2.70897C16.686 1.9642 15.6638 1.5 14.3341 1.5H5.66509C4.34038 1.5 3.31811 1.96388 2.62334 2.70925Z" fill="none"/>
<path d="M12.9329 7.95232C12.9329 9.55436 11.6706 10.71 11.0507 11.2776L11.0386 11.2887L10.8606 11.4481C10.7588 11.6291 10.7063 11.8336 10.7086 12.0413C10.7086 12.2379 10.6305 12.4265 10.4915 12.5655C10.3524 12.7046 10.1639 12.7827 9.96722 12.7827C9.77058 12.7827 9.582 12.7046 9.44295 12.5655C9.30391 12.4265 9.2258 12.2379 9.2258 12.0413C9.21866 11.4431 9.428 10.8624 9.81523 10.4064C9.87083 10.3471 9.94868 10.2767 10.0414 10.1914C10.501 9.77992 11.4501 8.91987 11.4501 7.96715C11.4632 7.76903 11.4338 7.57039 11.3639 7.38454C11.294 7.19869 11.1852 7.02992 11.0448 6.88952C10.9044 6.74912 10.7357 6.64034 10.5498 6.57046C10.364 6.50057 10.1653 6.4712 9.96722 6.48431C9.7691 6.4712 9.57046 6.50057 9.38461 6.57046C9.19876 6.64034 9.02999 6.74912 8.88959 6.88952C8.74919 7.02992 8.64041 7.19869 8.57053 7.38454C8.50064 7.57039 8.47127 7.76903 8.48438 7.96715C8.48438 8.16378 8.40626 8.35237 8.26722 8.49141C8.12818 8.63045 7.93959 8.70857 7.74296 8.70857C7.54632 8.70857 7.35774 8.63045 7.21869 8.49141C7.07965 8.35237 7.00154 8.16378 7.00154 7.96715C6.98864 7.57421 7.05653 7.1828 7.20101 6.81715C7.34549 6.45151 7.56347 6.11941 7.84147 5.8414C8.11948 5.5634 8.45158 5.34542 8.81722 5.20094C9.18287 5.05647 9.57427 4.98857 9.96722 5.00147C10.3589 4.98868 10.749 5.05614 11.1136 5.19972C11.4782 5.34329 11.8096 5.55994 12.0874 5.83633C12.3652 6.11273 12.5835 6.44303 12.7289 6.80692C12.8743 7.17081 12.9437 7.5606 12.9329 7.95232Z" fill="none"/>
<path d="M10.3787 13.639C10.3388 13.612 10.2966 13.5884 10.2527 13.5686C10.2069 13.5511 10.1598 13.5375 10.1118 13.5278C10.0031 13.5062 9.89091 13.5092 9.78353 13.5366C9.67614 13.5641 9.57627 13.6152 9.49127 13.6864C9.40626 13.7575 9.33829 13.8468 9.29235 13.9476C9.24641 14.0485 9.22367 14.1584 9.2258 14.2692C9.22031 14.3173 9.22031 14.3658 9.2258 14.4138C9.23546 14.4618 9.2491 14.5089 9.26657 14.5547C9.2864 14.5986 9.30996 14.6408 9.33701 14.6807C9.3634 14.7214 9.39316 14.7599 9.42598 14.7956C9.49823 14.8635 9.58336 14.9162 9.67632 14.9505C9.76929 14.9849 9.8682 15.0003 9.96722 14.9958C10.0153 15.0013 10.0638 15.0013 10.1118 14.9958C10.1602 14.9879 10.2075 14.9742 10.2527 14.955C10.2973 14.9367 10.3397 14.913 10.3787 14.8846C10.4629 14.8351 10.5331 14.7649 10.5826 14.6807C10.611 14.6417 10.6347 14.5993 10.653 14.5547C10.6722 14.5095 10.6859 14.4622 10.6938 14.4138C10.6993 14.3658 10.6993 14.3173 10.6938 14.2692C10.6944 14.1716 10.6757 14.0749 10.6388 13.9846C10.6019 13.8942 10.5475 13.8121 10.4788 13.7428C10.4484 13.7055 10.4149 13.6708 10.3787 13.639Z" fill="none"/>
</svg>
