<svg width="20" height="20" viewBox="0 0 20 20" fill="none" xmlns="http://www.w3.org/2000/svg">
<path d="M12.1764 1.6724H7.8055C6.18042 1.6724 4.33261 1.51147 2.92505 2.92138C1.45885 4.39003 1.67813 6.18214 1.67813 7.8099V12.188C1.67813 13.8158 1.56192 15.7111 2.92504 17.0765C4.32863 18.4824 6.18042 18.3255 7.8055 18.3255H12.1764C13.8014 18.3255 15.6237 18.5119 17.0568 17.0765C18.4899 15.6411 18.3037 13.8158 18.3037 12.188V7.8099C18.3037 6.18214 18.6376 4.50476 17.0568 2.92136C15.6481 1.51038 13.8014 1.6724 12.1764 1.6724ZM10.6717 14.0531C10.6629 14.0962 10.6504 14.1384 10.6343 14.1793C10.6168 14.2211 10.5951 14.2611 10.5696 14.2986C10.5453 14.3369 10.5167 14.3724 10.4845 14.4043C10.3563 14.5318 10.1828 14.6031 10.0021 14.6025C9.82147 14.6018 9.64846 14.5293 9.52116 14.4009C9.39386 14.2725 9.32271 14.0987 9.32335 13.9177C9.32398 13.7368 9.39636 13.5635 9.52457 13.4359C9.65496 13.3144 9.82645 13.2469 10.0045 13.2469C10.1826 13.2469 10.3541 13.3144 10.4845 13.4359C10.5167 13.4679 10.5453 13.5034 10.5696 13.5416C10.5945 13.5784 10.6161 13.6172 10.6343 13.6576C10.6503 13.6997 10.6629 13.743 10.6717 13.7872C10.6899 13.8749 10.6899 13.9654 10.6717 14.0531ZM10.9883 11.1855L10.8249 11.3321C10.7314 11.4986 10.6833 11.6867 10.6854 11.8777C10.6854 12.0586 10.6136 12.232 10.486 12.3599C10.3583 12.4878 10.1851 12.5596 10.0045 12.5596C9.82398 12.5596 9.65081 12.4878 9.52313 12.3599C9.39545 12.232 9.32372 12.0586 9.32372 11.8777C9.31717 11.3275 9.5094 10.7935 9.86497 10.374C9.91604 10.3195 9.98752 10.2547 10.0726 10.1763C10.4947 9.79777 11.3662 9.00672 11.3662 8.13042C11.3782 7.94819 11.3512 7.76549 11.2871 7.59455C11.2229 7.42361 11.123 7.26837 10.9941 7.13924C10.8652 7.0101 10.7102 6.91004 10.5395 6.84577C10.3689 6.78149 10.1865 6.75447 10.0045 6.76653C9.82262 6.75447 9.64022 6.78149 9.46956 6.84577C9.2989 6.91004 9.14392 7.0101 9.015 7.13924C8.88608 7.26837 8.78618 7.42361 8.72201 7.59455C8.65784 7.76549 8.63087 7.94819 8.64291 8.13042C8.64291 8.31128 8.57118 8.48474 8.4435 8.61263C8.31582 8.74052 8.14265 8.81236 7.96209 8.81236C7.78152 8.81236 7.60835 8.74052 7.48068 8.61263C7.353 8.48474 7.28127 8.31128 7.28127 8.13042C7.26943 7.769 7.33177 7.40899 7.46444 7.07267C7.59711 6.73636 7.79727 6.4309 8.05255 6.1752C8.30783 5.9195 8.61279 5.719 8.94855 5.58611C9.2843 5.45322 9.64372 5.39078 10.0045 5.40264C10.3654 5.39078 10.7248 5.45322 11.0605 5.58611C11.3963 5.719 11.7013 5.9195 11.9565 6.1752C12.2118 6.4309 12.412 6.73636 12.5446 7.07267C12.6773 7.40899 12.7397 7.769 12.7278 8.13042C12.7142 9.60683 11.5398 10.6809 10.9747 11.1855H10.9883Z" fill="#A9ACBC"/>
</svg>
