<svg width="18" height="14" viewBox="0 0 18 14" fill="none" xmlns="http://www.w3.org/2000/svg">
<path d="M9.30264 0.333008C12.2486 0.333008 14.7081 2.53968 15.2897 5.4783L16.1976 3.64258L16.2498 3.55496C16.4237 3.30992 16.7447 3.22777 17.0098 3.37537C17.3042 3.53938 17.4181 3.92491 17.264 4.23649L15.0275 8.75919L11.455 5.50847L11.3792 5.42593C11.1991 5.191 11.1972 4.84658 11.3894 4.60937L11.4671 4.52921C11.6884 4.33901 12.0135 4.33789 12.2379 4.54207L14.1948 6.32258C13.9605 3.67788 11.8596 1.60826 9.30264 1.60826C8.10274 1.60826 7.00329 2.06399 6.15003 2.82103C5.92027 3.02488 5.66111 3.29597 5.30742 2.9256C4.95373 2.55523 5.14899 2.05124 5.30739 1.90635C6.37924 0.925921 7.7756 0.333008 9.30264 0.333008Z" fill="#5A5D72"/>
<path d="M8.69606 13.6663C5.75014 13.6663 3.29058 11.4597 2.70903 8.52105L1.80113 10.3568L1.7489 10.4444C1.57502 10.6894 1.25398 10.7716 0.988942 10.624C0.694458 10.46 0.580635 10.0744 0.734711 9.76286L2.97119 5.24016L6.54368 8.49087L6.61953 8.57342C6.79961 8.80835 6.80147 9.15277 6.6093 9.38998L6.53157 9.47014C6.31026 9.66033 5.98517 9.66146 5.76079 9.45728L3.80387 7.67677C4.03822 10.3215 6.13906 12.3911 8.69606 12.3911C9.89596 12.3911 10.9954 11.9354 11.8487 11.1783C12.0784 10.9745 12.3376 10.7034 12.6913 11.0737C13.045 11.4441 12.8497 11.9481 12.6913 12.093C11.6195 13.0734 10.2231 13.6663 8.69606 13.6663Z" fill="#5A5D72"/>
</svg>
