<svg width="24" height="24" viewBox="0 0 24 24" fill="none" xmlns="http://www.w3.org/2000/svg">
<path fill-rule="evenodd" clip-rule="evenodd" d="M3.25313 7.10766C4.08345 6.21696 5.26423 5.72093 6.65249 5.72093H13.6266C15.0179 5.72093 16.1991 6.21668 17.0289 7.10799C17.8535 7.99366 18.2791 9.21313 18.2791 10.575V17.1459C18.2791 18.5078 17.8535 19.7273 17.0289 20.6129C16.1991 21.5043 15.0179 22 13.6266 22H6.65249C5.26113 22 4.07998 21.5043 3.25017 20.6129C2.4256 19.7273 2 18.5078 2 17.1459V10.575C2 9.21228 2.42788 7.99292 3.25313 7.10766ZM4.27378 8.05912C3.72937 8.64311 3.39535 9.50195 3.39535 10.575V17.1459C3.39535 18.2198 3.72811 19.0786 4.27143 19.6621C4.8095 20.2401 5.60575 20.6047 6.65249 20.6047H13.6266C14.6733 20.6047 15.4696 20.2401 16.0076 19.6621C16.551 19.0786 16.8837 18.2198 16.8837 17.1459V10.575C16.8837 9.5011 16.551 8.64237 16.0076 8.05879C15.4696 7.48084 14.6733 7.11628 13.6266 7.11628H6.65249C5.60974 7.11628 4.81312 7.48056 4.27378 8.05912Z" fill="black"/>
<path fill-rule="evenodd" clip-rule="evenodd" d="M7.01377 3.12968C7.86421 2.3526 9.04143 2 10.3734 2H17.3475C18.7389 2 19.92 2.49575 20.7498 3.38706C21.5744 4.27273 22 5.4922 22 6.85407V13.425C22 14.7578 21.6492 15.9741 20.8874 16.8689C20.1124 17.7791 18.9773 18.2791 17.5814 18.2791C17.1961 18.2791 16.8837 17.9667 16.8837 17.5814C16.8837 17.1961 17.1961 16.8837 17.5814 16.8837C18.6236 16.8837 19.3489 16.5234 19.8249 15.9643C20.3141 15.3898 20.6047 14.5279 20.6047 13.425V6.85407C20.6047 5.78017 20.2719 4.92144 19.7286 4.33786C19.1905 3.75991 18.3942 3.39535 17.3475 3.39535H10.3734C9.27441 3.39535 8.47422 3.68533 7.955 4.15977C7.44543 4.62539 7.11628 5.35098 7.11628 6.4186C7.11628 6.80392 6.80392 7.11628 6.4186 7.11628C6.03329 7.11628 5.72093 6.80392 5.72093 6.4186C5.72093 5.05045 6.15369 3.91558 7.01377 3.12968Z" fill="black"/>
</svg>
