<svg width="22" height="18" viewBox="0 0 22 18" fill="none" xmlns="http://www.w3.org/2000/svg">
<path fill-rule="evenodd" clip-rule="evenodd" d="M16.2137 2.09835C16.2808 1.6896 16.6665 1.41262 17.0753 1.4797C18.7966 1.76217 20.1098 3.25426 20.1098 5.0558L20.1098 5.05735C20.106 6.88507 18.7514 8.39232 16.9922 8.63951C16.582 8.69714 16.2027 8.41134 16.1451 8.00115C16.0875 7.59097 16.3733 7.21173 16.7834 7.1541C17.8139 7.00931 18.6072 6.12494 18.6098 5.055C18.6094 4.0009 17.8408 3.12538 16.8323 2.9599C16.4236 2.89282 16.1466 2.50709 16.2137 2.09835Z" fill="#FF3366"/>
<path fill-rule="evenodd" clip-rule="evenodd" d="M17.9868 11.1395C18.0481 10.7298 18.4298 10.4474 18.8395 10.5086C19.5554 10.6157 20.255 10.8051 20.7935 11.1584C21.3698 11.5363 21.7726 12.1161 21.7726 12.9004C21.7726 13.419 21.5946 13.8724 21.2728 14.2365C20.9649 14.5849 20.5549 14.8192 20.128 14.9821C19.741 15.1298 19.3076 14.9358 19.1599 14.5488C19.0122 14.1618 19.2062 13.7284 19.5932 13.5807C19.8843 13.4696 20.0553 13.3489 20.1489 13.2431C20.2286 13.1529 20.2726 13.0528 20.2726 12.9004C20.2726 12.7097 20.2039 12.5655 19.9709 12.4127C19.7002 12.2352 19.2528 12.0871 18.6177 11.9922C18.208 11.9309 17.9256 11.5492 17.9868 11.1395Z" fill="#FF3366"/>
<path fill-rule="evenodd" clip-rule="evenodd" d="M6.46358 11.4394C7.67234 11.0341 9.26379 10.9139 10.8868 10.9139C12.5194 10.9139 14.1114 11.0382 15.3188 11.4485C15.9264 11.6551 16.4913 11.9519 16.9108 12.3915C17.3476 12.8492 17.5948 13.43 17.5948 14.1129C17.5948 14.7974 17.3453 15.378 16.9057 15.8339C16.484 16.2712 15.9169 16.5646 15.3089 16.7679C14.1005 17.172 12.5093 17.2909 10.8868 17.2909C9.25437 17.2909 7.66222 17.1671 6.4548 16.7577C5.84719 16.5516 5.28212 16.2554 4.8624 15.8163C4.42529 15.3591 4.1778 14.7786 4.1778 14.0959C4.1778 13.4115 4.42744 12.8309 4.86686 12.3749C5.28849 11.9374 5.85542 11.6434 6.46358 11.4394ZM5.94699 13.4158C5.77128 13.5981 5.6778 13.8078 5.6778 14.0959C5.6778 14.3852 5.77131 14.5964 5.94667 14.7798C6.13942 14.9814 6.45828 15.1749 6.93655 15.3371C7.90088 15.6642 9.28823 15.7909 10.8868 15.7909C12.4783 15.7909 13.8661 15.6688 14.8332 15.3454C15.3129 15.1849 15.6328 14.993 15.826 14.7926C16.0013 14.6108 16.0948 14.4014 16.0948 14.1129C16.0948 13.8228 16.0011 13.6109 15.8256 13.4271C15.6329 13.225 15.3141 13.0312 14.8361 12.8688C13.8722 12.5411 12.4852 12.4139 10.8868 12.4139C9.2958 12.4139 7.90776 12.5372 6.94052 12.8616C6.46068 13.0225 6.14049 13.215 5.94699 13.4158Z" fill="#FF3366"/>
<path fill-rule="evenodd" clip-rule="evenodd" d="M6.3178 5.06757C6.31857 2.54501 8.36406 0.5 10.8868 0.5C13.41 0.5 15.4558 2.54579 15.4558 5.069C15.4558 7.59334 13.4099 9.638 10.8868 9.638H10.8588L10.8563 9.638C8.34021 9.62962 6.309 7.58305 6.3178 5.06757ZM6.3178 5.06757C6.3178 5.0671 6.3178 5.06662 6.31781 5.06615L7.0678 5.069H6.3178C6.3178 5.06852 6.3178 5.06805 6.3178 5.06757ZM10.8868 2C9.19201 2 7.8178 3.37421 7.8178 5.069V5.07185C7.81138 6.75932 9.17321 8.13172 10.8601 8.138H10.8868C12.5817 8.138 13.9558 6.76466 13.9558 5.069C13.9558 3.37421 12.5816 2 10.8868 2Z" fill="#FF3366"/>
<path fill-rule="evenodd" clip-rule="evenodd" d="M5.559 2.09835C5.62608 2.50709 5.3491 2.89282 4.94035 2.9599C3.93194 3.12538 3.16328 4.00091 3.1629 5.05502C3.1655 6.12518 3.958 7.00931 4.98918 7.15408C5.39937 7.21168 5.68521 7.59089 5.62762 8.00108C5.57002 8.41127 5.19081 8.69711 4.78062 8.63951C3.02005 8.39233 1.66669 6.88485 1.6629 5.05735L1.6629 5.0558C1.6629 3.25426 2.97611 1.76217 4.69745 1.4797C5.10619 1.41262 5.49192 1.6896 5.559 2.09835Z" fill="#FF3366"/>
<path fill-rule="evenodd" clip-rule="evenodd" d="M3.78575 11.1395C3.84701 11.5492 3.56457 11.9309 3.15491 11.9922C2.51977 12.0871 2.07237 12.2352 1.80169 12.4127C1.56875 12.5655 1.5 12.7097 1.5 12.9004C1.5 13.0528 1.54401 13.1529 1.6237 13.2431C1.71728 13.3489 1.88833 13.4696 2.1794 13.5807C2.56639 13.7284 2.76039 14.1618 2.61271 14.5488C2.46503 14.9358 2.03159 15.1298 1.6446 14.9821C1.21767 14.8192 0.807722 14.5849 0.499796 14.2365C0.177985 13.8724 0 13.419 0 12.9004C0 12.1161 0.402753 11.5363 0.979056 11.1584C1.51763 10.8051 2.21723 10.6157 2.93309 10.5086C3.34275 10.4474 3.7245 10.7298 3.78575 11.1395Z" fill="#FF3366"/>
</svg>
