<svg width="24" height="27" viewBox="0 0 24 27" fill="#335B70" xmlns="http://www.w3.org/2000/svg">
<g clip-path="url(#clip0_1244_9122)">
<path d="M13.25 13.5L17.3125 17.5625C17.375 17.6562 17.4062 17.75 17.4062 17.8438C17.4062 17.9688 17.375 18.0312 17.3125 18.0938L16.5938 18.8125C16.5312 18.875 16.4375 18.9062 16.3438 18.9062C16.2188 18.9062 16.125 18.875 16.0625 18.8125L12 14.75L7.9375 18.8125C7.84375 18.875 7.75 18.9062 7.65625 18.9062C7.53125 18.9062 7.46875 18.875 7.40625 18.8125L6.6875 18.0938C6.625 18.0312 6.59375 17.9688 6.59375 17.8438C6.59375 17.75 6.625 17.6562 6.6875 17.5625L10.75 13.5L6.6875 9.4375C6.625 9.375 6.59375 9.28125 6.59375 9.15625C6.59375 9.0625 6.625 8.96875 6.6875 8.90625L7.40625 8.1875C7.46875 8.125 7.53125 8.09375 7.65625 8.09375C7.75 8.09375 7.84375 8.125 7.9375 8.1875L12 12.25L16.0625 8.1875C16.125 8.125 16.2188 8.09375 16.3438 8.09375C16.4375 8.09375 16.5312 8.125 16.5938 8.1875L17.3125 8.90625C17.375 8.96875 17.4062 9.0625 17.4062 9.15625C17.4062 9.28125 17.375 9.375 17.3125 9.4375L13.25 13.5Z" fill="#335B70"/>
</g>
<defs>
<clipPath id="clip0_1244_9122">
<rect y="0.5" width="24" height="26" rx="4" fill="white"/>
</clipPath>
</defs>
</svg>
