<svg width="24" height="24" viewBox="0 0 24 24" fill="none" xmlns="http://www.w3.org/2000/svg">
<g id="2_users">
<g id="Vector">
<path fill-rule="evenodd" clip-rule="evenodd" d="M3.83978 17.1547C3.61893 17.3861 3.5 17.6567 3.5 18.0188C3.5 18.3791 3.61892 18.647 3.83994 18.8761C4.07884 19.1238 4.4646 19.3518 5.0251 19.5392C6.1537 19.9166 7.76258 20.0568 9.592 20.0568C11.4301 20.0568 13.0382 19.9115 14.1633 19.5299C14.722 19.3404 15.1063 19.1106 15.3444 18.8614C15.5652 18.6304 15.684 18.3604 15.684 17.9988C15.684 17.6388 15.5651 17.3706 15.3437 17.141C15.1046 16.8929 14.7185 16.6644 14.158 16.4765C13.0293 16.0981 11.4205 15.9568 9.592 15.9568C7.75361 15.9568 6.14567 16.1027 5.02075 16.4851C4.46223 16.675 4.07793 16.9052 3.83978 17.1547ZM4.538 15.0649C5.90633 14.5998 7.71939 14.4568 9.592 14.4568C11.4525 14.4568 13.2647 14.5949 14.6348 15.0543C15.3236 15.2852 15.9564 15.6152 16.4237 16.0999C16.9088 16.6032 17.184 17.2423 17.184 17.9988C17.184 18.7536 16.9113 19.3929 16.4289 19.8977C15.9638 20.3844 15.3332 20.717 14.6452 20.9504C13.2768 21.4145 11.4639 21.5568 9.592 21.5568C7.73142 21.5568 5.9193 21.4199 4.5494 20.9618C3.86065 20.7315 3.22779 20.4021 2.76037 19.9176C2.27508 19.4145 2 18.7754 2 18.0188C2 17.2639 2.27245 16.6244 2.75462 16.1191C3.21951 15.632 3.8499 15.2988 4.538 15.0649Z" fill="#FF3366"/>
<path fill-rule="evenodd" clip-rule="evenodd" d="M9.592 3.99976C7.58399 3.99976 5.956 5.62719 5.956 7.63476C5.956 9.64232 7.58399 11.2698 9.592 11.2698H9.62143C11.62 11.2616 13.2345 9.63558 13.227 7.63755L13.227 7.63476C13.227 5.62708 11.5989 3.99976 9.592 3.99976ZM4.456 7.63476C4.456 4.79832 6.75601 2.49976 9.592 2.49976C12.4266 2.49976 14.7262 4.7976 14.727 7.63322C14.7369 10.4602 12.4522 12.7592 9.6258 12.7698L9.623 12.7698H9.592C6.75601 12.7698 4.456 10.4712 4.456 7.63476Z" fill="#FF3366"/>
<path fill-rule="evenodd" clip-rule="evenodd" d="M15.8185 4.24217C15.8855 3.83342 16.2712 3.55641 16.68 3.62344C18.6036 3.93893 20.0706 5.60722 20.0706 7.61956L20.0706 7.62091C20.0669 9.66255 18.5535 11.348 16.588 11.6243C16.1778 11.6819 15.7985 11.3961 15.7409 10.9859C15.6833 10.5758 15.969 10.1965 16.3792 10.1389C17.6155 9.96511 18.568 8.90293 18.5706 7.61887C18.5703 6.35351 17.6474 5.30215 16.4372 5.10367C16.0285 5.03663 15.7514 4.65092 15.8185 4.24217Z" fill="#FF3366"/>
<path fill-rule="evenodd" clip-rule="evenodd" d="M17.8541 14.6217C17.9151 14.212 18.2967 13.9293 18.7064 13.9903C19.5225 14.1119 20.3073 14.3264 20.906 14.7192C21.5423 15.1368 21.9799 15.7705 21.9799 16.6272C21.9799 17.1957 21.7854 17.6902 21.4336 18.0879C21.0956 18.4698 20.6424 18.7299 20.1622 18.9123C19.775 19.0594 19.3419 18.8647 19.1948 18.4775C19.0477 18.0903 19.2424 17.6571 19.6296 17.51C19.9734 17.3794 20.1872 17.233 20.3102 17.0939C20.4193 16.9706 20.4799 16.8296 20.4799 16.6272C20.4799 16.3638 20.376 16.1655 20.0831 15.9733C19.7525 15.7564 19.2203 15.5834 18.4854 15.474C18.0757 15.413 17.7931 15.0314 17.8541 14.6217Z" fill="#FF3366"/>
</g>
</g>
</svg>
