<svg width="16" height="16" viewBox="0 0 16 16" fill="none" xmlns="http://www.w3.org/2000/svg">
<path fill-rule="evenodd" clip-rule="evenodd" d="M11.7102 14.6668H4.29016C2.66016 14.6668 1.3335 13.3755 1.3335 11.7876V8.6227C1.3335 7.0354 2.66016 5.74413 4.29016 5.74413H4.91216C5.18816 5.74413 5.41216 5.96226 5.41216 6.23103C5.41216 6.4998 5.18816 6.71794 4.91216 6.71794H4.29016C3.21083 6.71794 2.3335 7.57229 2.3335 8.6227V11.7876C2.3335 12.8386 3.21083 13.693 4.29016 13.693H11.7102C12.7888 13.693 13.6668 12.8386 13.6668 11.7876V8.61685C13.6668 7.56969 12.7922 6.71794 11.7175 6.71794H11.0888C10.8128 6.71794 10.5888 6.4998 10.5888 6.23103C10.5888 5.96226 10.8128 5.74413 11.0888 5.74413H11.7175C13.3435 5.74413 14.6668 7.0328 14.6668 8.61685V11.7876C14.6668 13.3755 13.3402 14.6668 11.7102 14.6668Z" fill="#2C304E"/>
<path fill-rule="evenodd" clip-rule="evenodd" d="M7.9999 10.1242C7.7239 10.1242 7.4999 9.9061 7.4999 9.63733V1.82028C7.4999 1.55151 7.7239 1.33337 7.9999 1.33337C8.2759 1.33337 8.4999 1.55151 8.4999 1.82028V9.63733C8.4999 9.9061 8.2759 10.1242 7.9999 10.1242Z" fill="#2C304E"/>
<path fill-rule="evenodd" clip-rule="evenodd" d="M6.05656 4.20866C5.92923 4.20866 5.80123 4.16127 5.7039 4.06649C5.50856 3.87692 5.50723 3.5692 5.70256 3.37833L7.6459 1.47747C7.83323 1.29374 8.16656 1.29374 8.3539 1.47747L10.2979 3.37833C10.4926 3.5692 10.4919 3.87692 10.2966 4.06649C10.1006 4.25606 9.78456 4.25606 9.5899 4.06519L7.9999 2.511L6.41056 4.06519C6.31323 4.16127 6.18456 4.20866 6.05656 4.20866Z" fill="#2C304E"/>
</svg>
