<svg width="24" height="24" viewBox="0 0 24 24" fill="none" xmlns="http://www.w3.org/2000/svg">
<g id="user-plus">
<g id="Vector">
<path fill-rule="evenodd" clip-rule="evenodd" d="M4.6336 15.0767C6.05564 14.6 7.93913 14.4563 9.877 14.4563C11.8267 14.4563 13.711 14.6056 15.1313 15.0886C15.8454 15.3315 16.497 15.6765 16.9765 16.179C17.4733 16.6997 17.754 17.3581 17.754 18.1363C17.754 18.916 17.4709 19.5742 16.9713 20.0928C16.4894 20.5931 15.8356 20.9348 15.1209 21.1745C13.6989 21.6514 11.8154 21.7953 9.877 21.7953C7.92787 21.7953 6.04357 21.6463 4.62311 21.1634C3.90895 20.9206 3.25728 20.5756 2.77764 20.073C2.28071 19.5523 2 18.8937 2 18.1153C2 17.3353 2.28315 16.6771 2.78289 16.1583C3.26484 15.658 3.91878 15.3163 4.6336 15.0767ZM3.86317 17.199C3.62723 17.4439 3.5 17.7313 3.5 18.1153C3.5 18.5009 3.62717 18.7905 3.8628 19.0374C4.11572 19.3025 4.5213 19.5445 5.10589 19.7432C6.28293 20.1433 7.96213 20.2953 9.877 20.2953C11.7836 20.2953 13.4636 20.1482 14.6439 19.7523C15.2303 19.5557 15.6373 19.3156 15.8909 19.0522C16.1268 18.8073 16.254 18.5201 16.254 18.1363C16.254 17.751 16.1269 17.4614 15.8913 17.2146C15.6384 16.9496 15.2329 16.7075 14.6484 16.5087C13.4715 16.1085 11.7923 15.9563 9.877 15.9563C7.97087 15.9563 6.29086 16.1031 5.1104 16.4989C4.52397 16.6955 4.11691 16.9356 3.86317 17.199Z" fill="none"/>
<path fill-rule="evenodd" clip-rule="evenodd" d="M4.56 7.31666C4.56073 4.38017 6.94113 2 9.877 2C12.8142 2 15.195 4.38079 15.195 7.318C15.195 10.2552 12.8142 12.636 9.877 12.636H9.846L9.84332 12.636C6.91457 12.6255 4.55024 10.2443 4.56 7.31666ZM9.877 3.5C7.76932 3.5 6.06 5.20911 6.06 7.318V7.32068C6.05248 9.42003 7.74719 11.1278 9.84741 11.136H9.877C11.9858 11.136 13.695 9.42679 13.695 7.318C13.695 5.20921 11.9858 3.5 9.877 3.5Z" fill="none"/>
<path fill-rule="evenodd" clip-rule="evenodd" d="M19.2041 7.9192C19.6183 7.9192 19.9541 8.25499 19.9541 8.6692V12.6792C19.9541 13.0934 19.6183 13.4292 19.2041 13.4292C18.7899 13.4292 18.4541 13.0934 18.4541 12.6792V8.6692C18.4541 8.25499 18.7899 7.9192 19.2041 7.9192Z" fill="none"/>
<path fill-rule="evenodd" clip-rule="evenodd" d="M16.41 10.6741C16.41 10.2599 16.7458 9.9241 17.16 9.9241H21.25C21.6642 9.9241 22 10.2599 22 10.6741C22 11.0883 21.6642 11.4241 21.25 11.4241H17.16C16.7458 11.4241 16.41 11.0883 16.41 10.6741Z" fill="none"/>
</g>
</g>
</svg>
