<svg width="19" height="18" viewBox="0 0 19 18" fill="none" xmlns="http://www.w3.org/2000/svg">
<path fill-rule="evenodd" clip-rule="evenodd" d="M5.53295 11.4152C6.60541 11.0556 8.02618 10.9472 9.48845 10.9472C10.9596 10.9472 12.3808 11.0599 13.4518 11.4241C13.9903 11.6073 14.4813 11.8674 14.8425 12.246C15.2167 12.6382 15.4281 13.1342 15.4281 13.7204C15.4281 14.3078 15.2148 14.8036 14.8385 15.1943C14.4754 15.5712 13.9827 15.8288 13.4437 16.0096C12.3714 16.3693 10.9508 16.4779 9.48845 16.4779C8.0174 16.4779 6.59601 16.3654 5.52481 16.0013C4.98626 15.8182 4.49516 15.5581 4.13381 15.1794C3.75949 14.7872 3.5481 14.2911 3.5481 13.7047C3.5481 13.1171 3.76139 12.6213 4.13787 12.2305C4.501 11.8535 4.99386 11.596 5.53295 11.4152ZM4.94807 13.011C4.76944 13.1964 4.6731 13.4141 4.6731 13.7047C4.6731 13.9965 4.76938 14.2159 4.94772 14.4028C5.13903 14.6033 5.44555 14.7861 5.88691 14.9361C6.77553 15.2382 8.04307 15.3529 9.48845 15.3529C10.9268 15.3529 12.1948 15.2419 13.0859 14.943C13.5286 14.7945 13.8363 14.6131 14.0282 14.4138C14.2068 14.2284 14.3031 14.0108 14.3031 13.7204C14.3031 13.4288 14.2069 13.2095 14.0286 13.0226C13.8373 12.8221 13.5308 12.6393 13.0896 12.4892C12.2011 12.187 10.9338 12.0722 9.48845 12.0722C8.05001 12.0722 6.78185 12.183 5.89057 12.4819C5.44777 12.6303 5.14006 12.8117 4.94807 13.011Z" fill="#5A5D72"/>
<path fill-rule="evenodd" clip-rule="evenodd" d="M5.5056 5.55643C5.50609 3.35726 7.28946 1.5752 9.48845 1.5752C11.6879 1.5752 13.4706 3.3579 13.4706 5.55734C13.4706 7.75663 11.688 9.54019 9.48845 9.54019H9.46417L9.46235 9.54019C7.27023 9.53276 5.49866 7.74889 5.5056 5.55643ZM5.5056 5.55643C5.5056 5.55613 5.5056 5.55583 5.5056 5.55552L6.04131 5.55734H5.5056C5.5056 5.55704 5.5056 5.55673 5.5056 5.55643ZM9.48845 2.64662C7.8806 2.64662 6.57702 3.94978 6.57702 5.55734V5.55915C6.5716 7.16029 7.86511 8.4629 9.46517 8.46877H9.48845C11.096 8.46877 12.3992 7.16519 12.3992 5.55734C12.3992 3.94963 11.0962 2.64662 9.48845 2.64662Z" fill="#5A5D72"/>
</svg>
