<svg width="16" height="16" viewBox="0 0 16 16" fill="none" xmlns="http://www.w3.org/2000/svg">
<path fill-rule="evenodd" clip-rule="evenodd" d="M6.37954 2.93301C7.09924 1.68835 8.91124 1.68934 9.62997 2.93391L14.4174 11.2245C15.1318 12.4613 14.2293 14 12.7918 14H3.20953C1.77099 14 0.869802 12.4602 1.58394 11.2239L6.37954 2.93301ZM8.76249 3.42527C8.42724 2.84478 7.58235 2.84446 7.24675 3.42486L2.45137 11.7153C2.11848 12.2921 2.53891 13.0103 3.20953 13.0103H12.7918C13.4624 13.0103 13.883 12.2924 13.55 11.716L8.76249 3.42527Z" fill="none"/>
<path fill-rule="evenodd" clip-rule="evenodd" d="M7.99869 6.33156C8.27465 6.33156 8.49836 6.55312 8.49836 6.82643V8.87187C8.49836 9.14518 8.27465 9.36674 7.99869 9.36674C7.72273 9.36674 7.49902 9.14518 7.49902 8.87187V6.82643C7.49902 6.55312 7.72273 6.33156 7.99869 6.33156Z" fill="none"/>
<path fill-rule="evenodd" clip-rule="evenodd" d="M7.32747 10.9076C7.32747 10.5431 7.62575 10.2477 7.9937 10.2477H8.00036C8.36831 10.2477 8.66658 10.5431 8.66658 10.9076C8.66658 11.272 8.36831 11.5674 8.00036 11.5674H7.9937C7.62575 11.5674 7.32747 11.272 7.32747 10.9076Z" fill="none"/>
</svg>
