<svg width="20" height="20" viewBox="0 0 20 20" fill="none" xmlns="http://www.w3.org/2000/svg">
<path fill-rule="evenodd" clip-rule="evenodd" d="M7.9736 3.66627C8.87322 2.11044 11.1382 2.11168 12.0366 3.66738L18.021 14.0307C18.9139 15.5766 17.7858 17.5 15.989 17.5H4.01109C2.21291 17.5 1.08643 15.5753 1.9791 14.0298L7.9736 3.66627ZM10.9523 4.28159C10.5332 3.55598 9.47711 3.55557 9.05761 4.28107L3.06339 14.6441C2.64727 15.3651 3.17281 16.2628 4.01109 16.2628H15.989C16.8271 16.2628 17.3529 15.3655 16.9367 14.645L10.9523 4.28159Z" fill="white"/>
<path fill-rule="evenodd" clip-rule="evenodd" d="M9.99754 7.91445C10.3425 7.91445 10.6221 8.1914 10.6221 8.53303V11.0898C10.6221 11.4315 10.3425 11.7084 9.99754 11.7084C9.65259 11.7084 9.37296 11.4315 9.37296 11.0898V8.53303C9.37296 8.1914 9.65259 7.91445 9.99754 7.91445Z" fill="white"/>
<path fill-rule="evenodd" clip-rule="evenodd" d="M9.15852 13.6344C9.15852 13.1789 9.53136 12.8097 9.9913 12.8097H9.99963C10.4596 12.8097 10.8324 13.1789 10.8324 13.6344C10.8324 14.09 10.4596 14.4592 9.99963 14.4592H9.9913C9.53136 14.4592 9.15852 14.09 9.15852 13.6344Z" fill="white"/>
</svg>
