<svg width="12" height="12" viewBox="0 0 12 12" fill="none" xmlns="http://www.w3.org/2000/svg">
<path d="M5.99585 0C6.47552 0 6.95519 0.3 7.19502 0.78L11.8118 9.84C12.0517 10.26 12.0517 10.8 11.8718 11.28C11.572 11.7 11.1523 12 10.6726 12H1.37905C0.899377 12 0.41971 11.7 0.179876 11.28C-0.0599585 10.86 -0.0599585 10.32 0.179876 9.84L4.79668 0.78C5.03651 0.3 5.51618 0 5.99585 0ZM6 8.4C5.64 8.4 5.4 8.64 5.4 9C5.4 9.36 5.64 9.6 6 9.6C6.36 9.6 6.6 9.36 6.6 9C6.6 8.64 6.36 8.4 6 8.4ZM6 2.4C5.66571 2.4 5.4349 2.56555 5.40363 2.81979L5.4 2.88V6.72C5.4 7.008 5.64 7.2 6 7.2C6.33429 7.2 6.5651 7.03445 6.59637 6.78021L6.6 6.72V2.88C6.6 2.592 6.36 2.4 6 2.4Z" fill="#EF6700"/>
</svg>
