<svg width="10" height="20" viewBox="0 0 10 20" fill="none" xmlns="http://www.w3.org/2000/svg">
<path fill-rule="evenodd" clip-rule="evenodd" d="M0 3.84615C0 1.72198 1.7673 0 3.94737 0L6.05263 0C8.2327 0 10 1.72198 10 3.84615V8.97436C10 11.0985 8.2327 12.8205 6.05263 12.8205H5C4.56399 12.8205 4.21053 12.4761 4.21053 12.0513C4.21053 11.6264 4.56399 11.2821 5 11.2821H6.05263C7.36067 11.2821 8.42105 10.2489 8.42105 8.97436V3.84615C8.42105 2.57165 7.36067 1.53846 6.05263 1.53846L3.94737 1.53846C2.63933 1.53846 1.57895 2.57165 1.57895 3.84615V5.89744C1.57895 6.32227 1.22549 6.66667 0.789474 6.66667C0.353459 6.66667 0 6.32227 0 5.89744L0 3.84615ZM0 11.0256C0 8.90147 1.7673 7.17949 3.94737 7.17949H5C5.43601 7.17949 5.78947 7.52388 5.78947 7.94872C5.78947 8.37355 5.43601 8.71795 5 8.71795H3.94737C2.63933 8.71795 1.57895 9.75114 1.57895 11.0256L1.57895 16.1538C1.57895 17.4284 2.63933 18.4615 3.94737 18.4615H6.05263C7.36067 18.4615 8.42105 17.4284 8.42105 16.1538L8.42105 14.1026C8.42105 13.6777 8.77451 13.3333 9.21053 13.3333C9.64654 13.3333 10 13.6777 10 14.1026L10 16.1538C10 18.278 8.2327 20 6.05263 20H3.94737C1.7673 20 0 18.278 0 16.1538L0 11.0256Z" fill="#A9ACBC"/>
</svg>
