<svg width="32" height="32" viewBox="0 0 32 32" fill="none" xmlns="http://www.w3.org/2000/svg">
<rect width="32" height="32" rx="4" fill="#FCF7E6"/>
<path fill-rule="evenodd" clip-rule="evenodd" d="M14.1763 10.2996C14.9859 8.8994 17.0244 8.90051 17.833 10.3006L23.2189 19.6276C24.0225 21.0189 23.0072 22.75 21.3901 22.75H10.61C8.99163 22.75 7.97779 21.0178 8.7812 19.6268L14.1763 10.2996ZM16.8571 10.8534C16.4799 10.2004 15.5294 10.2 15.1519 10.853L9.75706 20.1797C9.38256 20.8286 9.85554 21.6366 10.61 21.6366H21.3901C22.1444 21.6366 22.6176 20.829 22.243 20.1805L16.8571 10.8534Z" fill="#E1AF05"/>
<path fill-rule="evenodd" clip-rule="evenodd" d="M15.9978 14.123C16.3082 14.123 16.5599 14.3723 16.5599 14.6797V16.9809C16.5599 17.2883 16.3082 17.5376 15.9978 17.5376C15.6873 17.5376 15.4357 17.2883 15.4357 16.9809V14.6797C15.4357 14.3723 15.6873 14.123 15.9978 14.123Z" fill="#E1AF05"/>
<path fill-rule="evenodd" clip-rule="evenodd" d="M15.2427 19.271C15.2427 18.861 15.5782 18.5287 15.9922 18.5287H15.9997C16.4136 18.5287 16.7492 18.861 16.7492 19.271C16.7492 19.681 16.4136 20.0133 15.9997 20.0133H15.9922C15.5782 20.0133 15.2427 19.681 15.2427 19.271Z" fill="#E1AF05"/>
</svg>
