<svg width="16" height="16" viewBox="0 0 16 16" fill="none" xmlns="http://www.w3.org/2000/svg">
<path fill-rule="evenodd" clip-rule="evenodd" d="M15.1101 0.9468C15.3537 1.19136 15.3529 1.58709 15.1083 1.83068L1.77673 15.1096C1.53217 15.3532 1.13645 15.3524 0.892853 15.1078C0.649259 14.8633 0.650042 14.4676 0.894602 14.224L14.2262 0.945051C14.4707 0.701456 14.8665 0.702239 15.1101 0.9468Z" fill="#A9ACBC"/>
<path fill-rule="evenodd" clip-rule="evenodd" d="M0.890352 0.893068C1.13349 0.648057 1.52922 0.64654 1.77423 0.889681L15.1076 14.1212C15.3526 14.3644 15.3541 14.7601 15.1109 15.0051C14.8678 15.2501 14.4721 15.2516 14.2271 15.0085L0.89374 1.77695C0.648728 1.5338 0.647212 1.13808 0.890352 0.893068Z" fill="#A9ACBC"/>
</svg>
