<svg width="16" height="17" viewBox="0 0 16 17" fill="none" xmlns="http://www.w3.org/2000/svg">
<path fill-rule="evenodd" clip-rule="evenodd" d="M4.79238 1.42163C4.99075 0.679734 5.66253 0.167236 6.427 0.167236H9.9545C10.719 0.167236 11.3908 0.679735 11.5891 1.42163C11.5926 1.43452 11.5956 1.44751 11.5982 1.46059L11.8007 2.47368C11.8707 2.82267 12.1778 3.07474 12.5337 3.07474L15.2567 3.07474C15.6018 3.07474 15.8817 3.35456 15.8817 3.69974C15.8817 4.04491 15.6018 4.32474 15.2567 4.32474H1.125C0.779822 4.32474 0.5 4.04491 0.5 3.69974C0.5 3.35456 0.779822 3.07474 1.125 3.07474H3.84733C4.20318 3.07474 4.51077 2.82292 4.58078 2.47393L4.78328 1.46059C4.7859 1.44751 4.78893 1.43452 4.79238 1.42163ZM5.70028 3.07474H10.6812C10.6355 2.96138 10.5997 2.84253 10.575 2.71913L10.3772 1.72942C10.3207 1.54445 10.1498 1.41724 9.9545 1.41724H6.427C6.23174 1.41724 6.0608 1.54445 6.00428 1.72941L5.80655 2.71888C5.78184 2.84228 5.746 2.96138 5.70028 3.07474ZM14.1541 5.76718C14.4982 5.79491 14.7546 6.09632 14.7269 6.44038L13.4809 6.33993C13.5087 5.99587 13.8101 5.73944 14.1541 5.76718ZM14.0101 14.4358C13.935 15.1135 13.6797 15.713 13.2134 16.1462C12.7455 16.5808 12.127 16.7908 11.4353 16.8034C9.25416 16.8427 7.06913 16.8452 4.88657 16.7992C4.20899 16.7852 3.60439 16.5679 3.14855 16.1334C2.69558 15.7017 2.44475 15.1085 2.37105 14.4415C2.23798 13.2401 2.05882 11.2369 1.91339 9.54041C1.84055 8.6908 1.77599 7.91587 1.72963 7.35336C1.70646 7.07209 1.68783 6.84389 1.67499 6.68597L1.6551 6.44031C1.62744 6.09624 1.88393 5.79482 2.228 5.76716C2.57207 5.7395 2.87341 5.996 2.90107 6.34007L2.92088 6.58469C2.93368 6.7422 2.95228 6.96994 2.97541 7.2507C3.02169 7.81225 3.08613 8.58576 3.15882 9.43365C3.30442 11.1321 3.48235 13.1202 3.61345 14.3038C3.66227 14.7459 3.81563 15.0424 4.01095 15.2286C4.20336 15.4119 4.49112 15.5408 4.91254 15.5495C7.0766 15.5951 9.24539 15.5926 11.4125 15.5536C11.8634 15.5454 12.1648 15.4141 12.3626 15.2304C12.5618 15.0453 12.7177 14.7494 12.7677 14.2981C12.898 13.1249 13.0761 11.1381 13.2221 9.43843C13.295 8.58996 13.3598 7.81522 13.4062 7.25259C13.4295 6.97128 13.4482 6.74304 13.461 6.58516L13.4809 6.33993L14.7269 6.44038" fill="#414562"/>
</svg>
