<svg width="18" height="20" viewBox="0 0 18 20" fill="none" xmlns="http://www.w3.org/2000/svg">
<path fill-rule="evenodd" clip-rule="evenodd" d="M4.5731 1.51191C2.9161 1.51191 1.5401 2.85391 1.5011 4.50891V15.2039C1.4641 16.9169 2.8141 18.3279 4.5101 18.3659H12.5741C14.2431 18.2969 15.5651 16.9099 15.5531 15.2099V6.33991L10.9181 1.51191H4.5731ZM4.4761 19.8659C1.9541 19.8089 -0.0538966 17.7109 0.00110343 15.1879V4.49091C0.0591034 2.00991 2.1081 0.0119071 4.5711 0.0119071H11.2381C11.4421 0.0119071 11.6371 0.0949071 11.7791 0.241907L16.8441 5.51891C16.9781 5.65791 17.0531 5.84491 17.0531 6.03791V15.2039C17.0711 17.7129 15.1171 19.7629 12.6041 19.8649L4.4761 19.8659Z" fill="#FF3366"/>
<path fill-rule="evenodd" clip-rule="evenodd" d="M16.2983 6.98449H13.5433C11.7133 6.97949 10.2253 5.48749 10.2253 3.65949V0.750488C10.2253 0.336488 10.5613 0.000488281 10.9753 0.000488281C11.3893 0.000488281 11.7253 0.336488 11.7253 0.750488V3.65949C11.7253 4.66349 12.5423 5.48149 13.5453 5.48449H16.2983C16.7123 5.48449 17.0483 5.82049 17.0483 6.23449C17.0483 6.64849 16.7123 6.98449 16.2983 6.98449Z" fill="#FF3366"/>
<path fill-rule="evenodd" clip-rule="evenodd" d="M10.7885 14.1086H5.38846C4.97446 14.1086 4.63846 13.7726 4.63846 13.3586C4.63846 12.9446 4.97446 12.6086 5.38846 12.6086H10.7885C11.2025 12.6086 11.5385 12.9446 11.5385 13.3586C11.5385 13.7726 11.2025 14.1086 10.7885 14.1086Z" fill="#FF3366"/>
<path fill-rule="evenodd" clip-rule="evenodd" d="M8.74356 10.3566H5.38756C4.97356 10.3566 4.63756 10.0206 4.63756 9.60659C4.63756 9.19259 4.97356 8.85659 5.38756 8.85659H8.74356C9.15756 8.85659 9.49356 9.19259 9.49356 9.60659C9.49356 10.0206 9.15756 10.3566 8.74356 10.3566Z" fill="#FF3366"/>
</svg>
