<svg width="49" height="48" viewBox="0 0 49 48" fill="none" xmlns="http://www.w3.org/2000/svg">
<circle cx="24.5" cy="24" r="23.25" fill="white" stroke="#DFDFE2" stroke-width="1.5"/>
<path fill-rule="evenodd" clip-rule="evenodd" d="M24.4989 25.8115C25.3273 25.8115 25.9989 25.14 25.9989 24.3115C25.9989 23.4831 25.3273 22.8115 24.4989 22.8115C23.6704 22.8115 22.9989 23.4831 22.9989 24.3115C22.9989 25.14 23.6704 25.8115 24.4989 25.8115ZM24.4989 27.3115C26.1557 27.3115 27.4989 25.9684 27.4989 24.3115C27.4989 22.6547 26.1557 21.3115 24.4989 21.3115C22.842 21.3115 21.4989 22.6547 21.4989 24.3115C21.4989 25.9684 22.842 27.3115 24.4989 27.3115Z" fill="#A9ACBC"/>
<path fill-rule="evenodd" clip-rule="evenodd" d="M15.3386 20.1775C14.7863 21.1341 15.1141 22.3573 16.0706 22.9096L17.032 23.4646C17.3309 23.6372 17.4989 23.9664 17.4989 24.3115C17.4989 24.6567 17.3309 24.9859 17.032 25.1584L16.0707 25.7134C15.1141 26.2657 14.7864 27.4889 15.3386 28.4455L16.3386 30.1775C16.8909 31.1341 18.1141 31.4619 19.0707 30.9096L20.031 30.3552C20.3302 30.1824 20.6988 30.2014 20.9979 30.3745C21.2966 30.5473 21.4989 30.8578 21.4989 31.2029V32.3115C21.4989 33.4161 22.3943 34.3115 23.4989 34.3115H25.4989C26.6034 34.3115 27.4989 33.4161 27.4989 32.3115V31.2029C27.4989 30.8578 27.7012 30.5473 27.9999 30.3745C28.299 30.2014 28.6675 30.1824 28.9668 30.3552L29.9271 30.9096C30.8836 31.4619 32.1068 31.1341 32.6591 30.1775L33.6591 28.4455C34.2114 27.4889 33.8836 26.2657 32.9271 25.7134L31.9658 25.1584C31.6669 24.9859 31.4989 24.6567 31.4989 24.3115C31.4989 23.9664 31.6669 23.6372 31.9657 23.4646L32.9271 22.9096C33.8837 22.3573 34.2114 21.1341 33.6592 20.1775L32.6592 18.4455C32.1069 17.4889 30.8837 17.1612 29.9271 17.7134L28.9668 18.2679C28.6676 18.4406 28.299 18.4217 27.9999 18.2486C27.7012 18.0757 27.4989 17.7653 27.4989 17.4202V16.3115C27.4989 15.207 26.6034 14.3115 25.4989 14.3115H23.4989C22.3943 14.3115 21.4989 15.207 21.4989 16.3115V17.4202C21.4989 17.7653 21.2965 18.0757 20.9979 18.2486C20.6988 18.4217 20.3302 18.4406 20.0309 18.2679L19.0706 17.7134C18.1141 17.1612 16.8909 17.4889 16.3386 18.4455L15.3386 20.1775ZM23.4989 15.8115C23.2227 15.8115 22.9989 16.0354 22.9989 16.3115V17.4202C22.9989 18.3683 22.4494 19.1416 21.7492 19.5469C21.0434 19.9553 20.0997 20.0396 19.2809 19.5669L18.3206 19.0125C18.0815 18.8744 17.7757 18.9564 17.6376 19.1955L16.6376 20.9275C16.4996 21.1667 16.5815 21.4725 16.8206 21.6106L17.782 22.1656C18.6008 22.6383 18.9989 23.4982 18.9989 24.3115C18.9989 25.1248 18.6008 25.9847 17.782 26.4575L16.8207 27.0125C16.5815 27.1506 16.4996 27.4564 16.6377 27.6955L17.6377 29.4275C17.7758 29.6667 18.0815 29.7486 18.3207 29.6106L19.281 29.0562C20.0997 28.5834 21.0434 28.6678 21.7492 29.0762C22.4495 29.4814 22.9989 30.2547 22.9989 31.2029V32.3115C22.9989 32.5877 23.2227 32.8115 23.4989 32.8115H25.4989C25.775 32.8115 25.9989 32.5877 25.9989 32.3115V31.2029C25.9989 30.2547 26.5483 29.4814 27.2486 29.0762C27.9543 28.6678 28.898 28.5834 29.7168 29.0562L30.6771 29.6106C30.9162 29.7486 31.222 29.6667 31.3601 29.4275L32.3601 27.6955C32.4981 27.4564 32.4162 27.1506 32.1771 27.0125L31.2158 26.4575C30.397 25.9847 29.9989 25.1248 29.9989 24.3115C29.9989 23.4982 30.397 22.6383 31.2157 22.1656L32.1771 21.6106C32.4162 21.4725 32.4982 21.1667 32.3601 20.9275L31.3601 19.1955C31.222 18.9564 30.9162 18.8744 30.6771 19.0125L29.7168 19.5669C28.8981 20.0396 27.9543 19.9553 27.2486 19.5469C26.5483 19.1416 25.9989 18.3683 25.9989 17.4202V16.3115C25.9989 16.0354 25.775 15.8115 25.4989 15.8115H23.4989Z" fill="#A9ACBC"/>
</svg>
