<svg width="25" height="25" viewBox="0 0 25 25" fill="none" xmlns="http://www.w3.org/2000/svg">
<g id="connect">
<path id="Vector" fill-rule="evenodd" clip-rule="evenodd" d="M7.5 6.15768C7.5 4.03351 9.2673 2.31152 11.4474 2.31152L13.5526 2.31152C15.7327 2.31152 17.5 4.03351 17.5 6.15768V11.2859C17.5 13.4101 15.7327 15.132 13.5526 15.132H12.5C12.064 15.132 11.7105 14.7876 11.7105 14.3628C11.7105 13.938 12.064 13.5936 12.5 13.5936H13.5526C14.8607 13.5936 15.9211 12.5604 15.9211 11.2859V6.15768C15.9211 4.88317 14.8607 3.84999 13.5526 3.84999L11.4474 3.84999C10.1393 3.84999 9.07895 4.88317 9.07895 6.15768V8.20896C9.07895 8.63379 8.72549 8.97819 8.28947 8.97819C7.85346 8.97819 7.5 8.63379 7.5 8.20896V6.15768ZM7.5 13.3372C7.5 11.213 9.2673 9.49101 11.4474 9.49101H12.5C12.936 9.49101 13.2895 9.83541 13.2895 10.2602C13.2895 10.6851 12.936 11.0295 12.5 11.0295H11.4474C10.1393 11.0295 9.07895 12.0627 9.07895 13.3372V18.4654C9.07895 19.7399 10.1393 20.7731 11.4474 20.7731H13.5526C14.8607 20.7731 15.9211 19.7399 15.9211 18.4654L15.9211 16.4141C15.9211 15.9893 16.2745 15.6449 16.7105 15.6449C17.1465 15.6449 17.5 15.9893 17.5 16.4141V18.4654C17.5 20.5895 15.7327 22.3115 13.5526 22.3115H11.4474C9.2673 22.3115 7.5 20.5895 7.5 18.4654V13.3372Z" fill="#24A148"/>
</g>
</svg>
