<svg width="49" height="48" viewBox="0 0 49 48" fill="none" xmlns="http://www.w3.org/2000/svg">
<circle cx="24.5" cy="24" r="23.25" fill="white" stroke="#24A148" stroke-width="1.5"/>
<path fill-rule="evenodd" clip-rule="evenodd" d="M19.5 18.1577C19.5 16.0335 21.2673 14.3115 23.4474 14.3115H25.5526C27.7327 14.3115 29.5 16.0335 29.5 18.1577V23.2859C29.5 25.4101 27.7327 27.132 25.5526 27.132H24.5C24.064 27.132 23.7105 26.7876 23.7105 26.3628C23.7105 25.938 24.064 25.5936 24.5 25.5936H25.5526C26.8607 25.5936 27.9211 24.5604 27.9211 23.2859V18.1577C27.9211 16.8832 26.8607 15.85 25.5526 15.85H23.4474C22.1393 15.85 21.0789 16.8832 21.0789 18.1577V20.209C21.0789 20.6338 20.7255 20.9782 20.2895 20.9782C19.8535 20.9782 19.5 20.6338 19.5 20.209V18.1577ZM19.5 25.3372C19.5 23.213 21.2673 21.491 23.4474 21.491H24.5C24.936 21.491 25.2895 21.8354 25.2895 22.2602C25.2895 22.6851 24.936 23.0295 24.5 23.0295H23.4474C22.1393 23.0295 21.0789 24.0627 21.0789 25.3372V30.4654C21.0789 31.7399 22.1393 32.7731 23.4474 32.7731H25.5526C26.8607 32.7731 27.9211 31.7399 27.9211 30.4654V28.4141C27.9211 27.9893 28.2745 27.6449 28.7105 27.6449C29.1465 27.6449 29.5 27.9893 29.5 28.4141V30.4654C29.5 32.5895 27.7327 34.3115 25.5526 34.3115H23.4474C21.2673 34.3115 19.5 32.5895 19.5 30.4654V25.3372Z" fill="#24A148"/>
</svg>
