<svg width="24" height="25" viewBox="0 0 24 25" fill="none" xmlns="http://www.w3.org/2000/svg">
<path fill-rule="evenodd" clip-rule="evenodd" d="M7 6.15774C7 4.03357 8.7673 2.31158 10.9474 2.31158L13.0526 2.31158C15.2327 2.31158 17 4.03357 17 6.15774V11.2859C17 13.4101 15.2327 15.1321 13.0526 15.1321H12C11.564 15.1321 11.2105 14.7877 11.2105 14.3629C11.2105 13.938 11.564 13.5936 12 13.5936H13.0526C14.3607 13.5936 15.4211 12.5604 15.4211 11.2859V6.15774C15.4211 4.88323 14.3607 3.85005 13.0526 3.85005L10.9474 3.85005C9.63933 3.85005 8.57895 4.88324 8.57895 6.15774V8.20902C8.57895 8.63386 8.22549 8.97825 7.78947 8.97825C7.35346 8.97825 7 8.63386 7 8.20902V6.15774ZM7 13.3372C7 11.2131 8.7673 9.49107 10.9474 9.49107H12C12.436 9.49107 12.7895 9.83547 12.7895 10.2603C12.7895 10.6851 12.436 11.0295 12 11.0295H10.9474C9.63933 11.0295 8.57895 12.0627 8.57895 13.3372V18.4654C8.57895 19.7399 9.63933 20.7731 10.9474 20.7731H13.0526C14.3607 20.7731 15.4211 19.7399 15.4211 18.4654L15.4211 16.4141C15.4211 15.9893 15.7745 15.6449 16.2105 15.6449C16.6465 15.6449 17 15.9893 17 16.4141V18.4654C17 20.5896 15.2327 22.3116 13.0526 22.3116H10.9474C8.7673 22.3116 7 20.5896 7 18.4654V13.3372Z" fill="#A9ACBC"/>
</svg>
