<svg width="49" height="48" viewBox="0 0 49 48" fill="none" xmlns="http://www.w3.org/2000/svg">
<circle cx="24.5" cy="24" r="23.25" fill="white" stroke="#DFDFE2" stroke-width="1.5"/>
<path d="M23.6771 32.6043C23.7321 33.0037 24.0795 33.3115 24.4999 33.3115C24.9585 33.3115 25.3302 32.9452 25.3302 32.4933V18.1116L30.5813 23.3068L30.6743 23.3862C30.9989 23.6245 31.4602 23.5991 31.7556 23.3092C32.0805 22.9903 32.0816 22.4723 31.758 22.1521L25.0996 15.5638C25.0614 15.5245 25.0194 15.4891 24.974 15.4579C24.6498 15.2349 24.1999 15.2663 23.9111 15.5522L17.2419 22.1522L17.1617 22.2441C16.9213 22.5649 16.949 23.0194 17.2445 23.3092C17.5694 23.6281 18.0951 23.627 18.4187 23.3068L23.6696 18.1103V32.4933L23.6771 32.6043Z" fill="#A9ACBC"/>
</svg>
