<svg width="240" height="240" viewBox="0 0 240 240" fill="none" xmlns="http://www.w3.org/2000/svg">
<path fill-rule="evenodd" clip-rule="evenodd" d="M123.268 0.0740102C168.092 1.21115 210.66 23.9244 226.849 69.2326C246.362 123.844 248.24 192.475 204.067 226.214C161.08 259.047 106.764 227.265 64.6643 193.108C25.0647 160.98 -11.8581 114.49 3.60107 63.569C18.9458 13.0247 74.1781 -1.17134 123.268 0.0740102Z" fill="#F5F5F5"/>
<ellipse cx="120" cy="224.4" rx="72" ry="4.8" fill="#DFDFE2"/>
<path d="M71.9721 169.805C80.6906 138.656 83.7665 97.0306 84.3795 68.1108C84.5882 58.2664 93.2658 50.603 103.017 51.9734L183.22 63.2452C191.003 64.339 196.855 70.9237 196.761 78.7824C196.401 108.863 193.285 156.079 183.155 189.406C180.093 199.479 169.826 204.96 159.4 203.495L86.1126 193.195C75.4467 191.696 69.0691 180.177 71.9721 169.805Z" fill="white"/>
<path d="M193.128 137.345C195.577 116.083 196.568 94.9524 196.761 78.7773C196.855 70.9187 191.003 64.339 183.22 63.2452L103.017 51.9734C93.2658 50.603 84.5881 58.2838 84.3791 68.1282C84.2751 73.0298 84.1003 78.2961 83.8393 83.8143L83.0288 97.636C82.876 99.8138 82.7095 102.014 82.5285 104.231M190.457 153.919C188.525 165.732 186.045 178.347 182.917 189.312C180.028 199.437 169.826 204.96 159.4 203.495L86.1126 193.195C75.4467 191.696 69.0702 180.174 71.9731 169.802C77.0242 151.754 80.1812 130.19 82.0625 109.618" stroke="#2C304E" stroke-linecap="round"/>
<path d="M110.977 131.039L158.51 137.719" stroke="#ECECEE" stroke-width="4" stroke-linecap="round"/>
<path d="M97.3401 141.846L152.597 149.612M168.639 151.866L161.51 150.864" stroke="#ECECEE" stroke-width="4" stroke-linecap="round"/>
<path d="M71.1763 191.096C42.949 186.73 44.8559 175.796 46.1957 167.633C46.6034 165.149 48.992 163.136 51.4844 163.487L130.16 174.544C132.055 174.81 133.464 176.387 133.239 178.287C132.254 186.587 129.062 198.807 159.112 203.454L71.1763 191.096Z" fill="white"/>
<path d="M46.1957 167.633L45.7023 167.552L46.1957 167.633ZM71.1763 191.096L71.0999 191.59L71.1068 191.591L71.1763 191.096ZM159.112 203.454L159.043 203.95C159.315 203.988 159.567 203.799 159.607 203.527C159.647 203.256 159.46 203.002 159.189 202.96L159.112 203.454ZM133.239 178.287L133.735 178.346L133.735 178.346L133.239 178.287ZM45.7023 167.552C45.0376 171.602 44.1727 176.579 47.1831 181.067C50.1895 185.549 56.9538 189.402 71.0999 191.59L71.2528 190.602C57.1715 188.424 50.7756 184.627 48.0136 180.51C45.2556 176.398 46.0141 171.826 46.6891 167.714L45.7023 167.552ZM51.4148 163.982L130.09 175.039L130.23 174.049L51.554 162.991L51.4148 163.982ZM159.182 202.959L71.2459 190.601L71.1068 191.591L159.043 203.95L159.182 202.959ZM132.742 178.228C132.258 182.309 131.165 187.646 134.11 192.5C137.065 197.37 143.973 201.619 159.036 203.949L159.189 202.96C144.201 200.642 137.681 196.457 134.965 191.981C132.239 187.488 133.235 182.565 133.735 178.346L132.742 178.228ZM130.09 175.039C131.757 175.273 132.931 176.638 132.742 178.228L133.735 178.346C133.997 176.136 132.352 174.347 130.23 174.049L130.09 175.039ZM46.6891 167.714C47.0593 165.459 49.2292 163.675 51.4148 163.982L51.554 162.991C48.7547 162.598 46.1476 164.839 45.7023 167.552L46.6891 167.714Z" fill="#2C304E"/>
<rect x="124.514" y="76.2969" width="38.4" height="29.5094" rx="8" transform="rotate(8 124.514 76.2969)" fill="#ECECEE"/>
<path d="M148.29 162.358C154.374 161.453 160.143 160.464 165.574 159.408M222.172 134.834C221.517 130.428 211.081 130.597 194.4 130.2M74.4 166.8C87.2777 168.593 108.516 167.17 132.513 164.433M176.615 157.07C200.072 151.659 215.536 145.056 220.492 139.245" stroke="#2C304E" stroke-linecap="round"/>
<path d="M144.887 121.385C149.328 120.755 153.674 120.066 157.895 119.326M81.6 104.4C69.3168 108.943 63.4073 113.076 63.9743 117.075C64.1728 118.476 65.3122 119.698 67.27 120.737M77.27 123.609C89.9418 125.663 110.536 125.468 134.145 122.763M167.895 117.433C181.07 114.748 192.653 111.603 201.645 108.346" stroke="#2C304E" stroke-linecap="round"/>
<g clip-path="url(#clip0_3130_240821)">
<path d="M214.72 105.6C214.72 102.102 213.718 98.838 211.985 96.0797M205.2 89.7664C202.695 88.4344 199.835 87.6797 196.8 87.6797C186.903 87.6797 178.88 95.7027 178.88 105.6C178.88 115.497 186.903 123.52 196.8 123.52C205.15 123.52 212.166 117.809 214.155 110.08" stroke="#2C304E" stroke-linecap="round"/>
<ellipse cx="196.64" cy="105.439" rx="16.64" ry="16.64" fill="url(#paint0_linear_3130_240821)"/>
<path d="M195.8 114C195.8 114.552 196.248 115 196.8 115C197.352 115 197.8 114.552 197.8 114H195.8ZM197.507 96.4929C197.117 96.1024 196.483 96.1024 196.093 96.4929L189.729 102.857C189.338 103.247 189.338 103.881 189.729 104.271C190.12 104.662 190.753 104.662 191.143 104.271L196.8 98.6142L202.457 104.271C202.847 104.662 203.481 104.662 203.871 104.271C204.262 103.881 204.262 103.247 203.871 102.857L197.507 96.4929ZM197.8 114V97.2H195.8V114H197.8Z" fill="white"/>
<path d="M196.8 120.991C196.8 121.68 196.24 122.244 195.553 122.192C192.481 121.961 189.525 120.881 187.019 119.061C184.514 117.241 182.573 114.763 181.404 111.912C181.143 111.275 181.506 110.568 182.161 110.355C182.817 110.142 183.516 110.504 183.786 111.138C184.786 113.488 186.408 115.531 188.486 117.042C190.565 118.552 193.009 119.463 195.554 119.688C196.24 119.749 196.8 120.302 196.8 120.991Z" fill="url(#paint1_linear_3130_240821)"/>
<path d="M198.593 90.313C198.673 89.6284 199.295 89.1338 199.971 89.2652C202.03 89.6648 203.998 90.4508 205.771 91.5853C207.543 92.7198 209.081 94.1782 210.306 95.8803C210.709 96.4397 210.52 97.2111 209.932 97.5706C209.344 97.9302 208.58 97.7411 208.17 97.187C207.147 95.805 205.879 94.6181 204.425 93.6876C202.971 92.757 201.362 92.1023 199.679 91.7523C199.004 91.612 198.513 90.9976 198.593 90.313Z" fill="#007E45"/>
</g>
<defs>
<linearGradient id="paint0_linear_3130_240821" x1="180" y1="105.439" x2="213.28" y2="105.439" gradientUnits="userSpaceOnUse">
<stop stop-color="#007E45"/>
<stop offset="1" stop-color="#007E45"/>
</linearGradient>
<linearGradient id="paint1_linear_3130_240821" x1="192.374" y1="86.399" x2="206.099" y2="129.613" gradientUnits="userSpaceOnUse">
<stop stop-color="#007E45"/>
<stop offset="1" stop-color="#007E45"/>
</linearGradient>
<clipPath id="clip0_3130_240821">
<rect width="38.4" height="38.4" fill="white" transform="translate(177.6 86.4004)"/>
</clipPath>
</defs>
</svg>
