<svg width="200" height="200" fill="none" xmlns="http://www.w3.org/2000/svg"><path fill-rule="evenodd" clip-rule="evenodd" d="M95.718.022c45.708-.937 87.938 27.541 101.081 70.407 12.362 40.321-12.694 79.62-47.504 104.339-34.714 24.652-80.971 36.145-115.767 11.604-35.14-24.784-40.1-71.748-26.65-112.05C20.25 34.252 52.666.905 95.718.022Z" fill="#F2F5F6"/><path d="m58.014 70-10 16M44 92l-5 7.5" stroke="#000"/><ellipse cx="99" cy="149.5" rx="50" ry="4.5" fill="#CCD6DB"/><path d="M56.713 137h86.602c12.317 0 20.015-13.333 13.857-24l-3.897-6.75L147.014 96l-8-15-3.493-5.5L113.87 38c-6.158-10.667-21.554-10.667-27.712 0l-43.302 75c-6.158 10.667 1.54 24 13.857 24Z" fill="#fff"/><path d="m139.014 81-3.493-5.5L113.87 38c-6.158-10.667-21.554-10.667-27.712 0l-43.302 75c-6.158 10.667 1.54 24 13.857 24h86.602c12.317 0 20.015-13.333 13.857-24l-3.897-6.75L147.014 96" stroke="#1A1A1A"/><path d="M93.514 20.5c1.167-.5 4.3-1.5 7.5-1.5 4 0 9.5 1 14.5 5.5m5 5 5.5 8m3 6.5 5.5 8" stroke="#000"/><circle cx="101" cy="120" r="7" fill="#B3D9C8"/><path d="M99 109h4l.25-7.75.062-1.938.063-1.937.063-1.938.062-1.937.5-15.5.888-27.513a3.38 3.38 0 1 0-6.753.021L98.5 60v3l.5 46Z" fill="#B3D9C8"/><path d="M105.514 114.5c-.5-.5-2-1.5-4.5-1.5a7 7 0 1 0 7 7c0-2-.667-3.167-1-3.5m-8.5-53.5.5 46h4l.25-7.75M98.514 60l-.365-9.492a3.38 3.38 0 1 1 6.753-.021L104.014 78l-.5 15.5m-.062 1.938-.063 1.937-.062 1.938" stroke="#000"/></svg>