<svg width="150" height="150" viewBox="0 0 150 150" fill="none" xmlns="http://www.w3.org/2000/svg">
<path fill-rule="evenodd" clip-rule="evenodd" d="M71.7883 0.0168378C106.069 -0.685966 137.742 20.6723 147.599 52.8215C156.871 83.0622 138.078 112.537 111.971 131.076C85.9357 149.565 51.2428 158.185 25.1462 139.779C-1.20871 121.191 -4.92899 85.9679 5.15821 55.7417C15.1873 25.6896 39.4996 0.678795 71.7883 0.0168378Z" fill="#F5F5F5"/>
<ellipse cx="75" cy="115" rx="40" ry="4" fill="#DFDFE2"/>
<path d="M66.1211 36.4466L36.7097 87.3886C32.7636 94.2236 37.6963 102.767 45.5886 102.767H104.411C112.304 102.767 117.236 94.2236 113.29 87.3886L83.8789 36.4466C79.9327 29.6116 70.0673 29.6117 66.1211 36.4466Z" fill="white"/>
<path fill-rule="evenodd" clip-rule="evenodd" d="M83.6014 36.6068C79.7786 29.9854 70.2214 29.9854 66.3986 36.6068L36.9872 87.5488C33.1643 94.1702 37.9429 102.447 45.5886 102.447H46.4134C46.5904 102.447 46.7338 102.59 46.7338 102.767C46.7338 102.944 46.5904 103.088 46.4134 103.088H45.5886C37.4496 103.088 32.3628 94.277 36.4323 87.2284L65.8436 36.2864C69.9131 29.2379 80.0869 29.2378 84.1564 36.2864L98.8621 61.7574C98.9505 61.9107 98.898 62.1066 98.7448 62.1951C98.5915 62.2836 98.3956 62.231 98.3071 62.0778L83.6014 36.6068ZM104.321 71.8526C104.474 71.7641 104.67 71.8166 104.758 71.9698L113.568 87.2284C117.637 94.277 112.55 103.088 104.411 103.088H52.8212C52.6443 103.088 52.5008 102.944 52.5008 102.767C52.5008 102.59 52.6443 102.447 52.8212 102.447H104.411C112.057 102.447 116.836 94.1702 113.013 87.5488L104.203 72.2902C104.115 72.137 104.167 71.941 104.321 71.8526Z" fill="#2C304E"/>
<path fill-rule="evenodd" clip-rule="evenodd" d="M75.5689 87.0682C73.2686 87.0682 71.4038 88.933 71.4038 91.2333C71.4038 93.5336 73.2686 95.3984 75.5689 95.3984C77.5092 95.3984 79.1404 94.0713 79.6028 92.2748C79.6469 92.1034 79.8216 92.0003 79.9929 92.0444C80.1643 92.0885 80.2674 92.2631 80.2233 92.4345C79.6899 94.5072 77.8087 96.0391 75.5689 96.0391C72.9147 96.0391 70.7631 93.8875 70.7631 91.2333C70.7631 88.5791 72.9147 86.4274 75.5689 86.4274C76.3824 86.4274 77.1496 86.6298 77.8219 86.9872C77.9781 87.0703 78.0374 87.2643 77.9544 87.4205C77.8713 87.5768 77.6773 87.6361 77.5211 87.553C76.9391 87.2436 76.275 87.0682 75.5689 87.0682ZM79.1993 88.5791C79.3491 88.485 79.5469 88.5301 79.6411 88.6799C80.1059 89.4199 80.3748 90.2957 80.3748 91.2333C80.3748 91.4102 80.2313 91.5537 80.0544 91.5537C79.8774 91.5537 79.734 91.4102 79.734 91.2333C79.734 90.4198 79.5011 89.6617 79.0985 89.0208C79.0043 88.871 79.0495 88.6732 79.1993 88.5791Z" fill="#2C304E"/>
<path d="M79.734 91.2333C79.734 93.5336 77.8692 95.3984 75.5689 95.3984C73.2686 95.3984 71.4038 93.5336 71.4038 91.2333C71.4038 88.933 73.2686 87.0682 75.5689 87.0682C77.8692 87.0682 79.734 88.933 79.734 91.2333Z" fill="url(#paint0_linear_4825_1064)"/>
<path d="M75.5689 95.086C75.5689 95.2585 75.4289 95.3996 75.2568 95.3867C74.4879 95.3289 73.7479 95.0585 73.1208 94.6029C72.4936 94.1473 72.0078 93.527 71.7153 92.8136C71.6498 92.6539 71.7407 92.4771 71.9048 92.4238C72.0689 92.3705 72.2438 92.461 72.3114 92.6198C72.5617 93.208 72.9676 93.7194 73.488 94.0975C74.0083 94.4755 74.6201 94.7035 75.2569 94.7598C75.4288 94.775 75.5689 94.9135 75.5689 95.086Z" fill="url(#paint1_linear_4825_1064)"/>
<path d="M76.0177 87.4068C76.0378 87.2355 76.1933 87.1117 76.3627 87.1446C76.8779 87.2446 77.3706 87.4413 77.8143 87.7253C78.258 88.0093 78.6429 88.3743 78.9495 88.8003C79.0503 88.9404 79.003 89.1334 78.8558 89.2234C78.7086 89.3134 78.5174 89.2661 78.4148 89.1274C78.1588 88.7815 77.8414 88.4844 77.4775 88.2515C77.1136 88.0186 76.7109 87.8547 76.2895 87.7671C76.1206 87.732 75.9976 87.5782 76.0177 87.4068Z" fill="#007E45"/>
<path d="M76.6448 83.8644H74.1166L73.3513 44.173C73.3375 43.4581 73.9114 42.8702 74.6264 42.8668L75.869 42.8608C76.5847 42.8573 77.1645 43.4406 77.1567 44.1563L76.795 77.3591L76.6448 83.8644Z" fill="url(#paint2_linear_4825_1064)"/>
<path d="M76.8096 54.8884C76.8084 55.1597 76.8018 55.4102 76.7901 55.6356L76.8096 54.8884C76.8244 51.5449 76.0169 45.0559 73.8164 43.8035L74.601 42.9557L76.8155 43.31L77.0433 45.9421L76.8096 54.8884Z" fill="url(#paint3_linear_4825_1064)"/>
<path fill-rule="evenodd" clip-rule="evenodd" d="M74.553 74.3469C74.3761 74.3493 74.2307 74.2078 74.2283 74.0309L74.0361 59.9337C74.0337 59.7568 74.1751 59.6114 74.3521 59.609C74.529 59.6066 74.6744 59.7481 74.6768 59.925L74.869 74.0222C74.8714 74.1991 74.73 74.3445 74.553 74.3469Z" fill="#007E45"/>
<path fill-rule="evenodd" clip-rule="evenodd" d="M76.7223 83.8704C76.719 84.0449 76.5765 84.1847 76.4019 84.1847H74.3514C74.1776 84.1847 74.0355 84.0461 74.0312 83.8724L73.2717 53.4935C73.2673 53.3166 73.4071 53.1696 73.584 53.1652C73.7609 53.1607 73.9078 53.3006 73.9123 53.4774L74.6639 83.544H76.0875L76.1699 79.1491C76.1732 78.9722 76.3193 78.8315 76.4962 78.8348C76.6732 78.8381 76.8139 78.9842 76.8106 79.1611L76.7223 83.8704ZM76.5177 77.6902C76.3408 77.6869 76.2001 77.5408 76.2034 77.3639L76.2674 73.9514C76.2707 73.7744 76.4168 73.6337 76.5937 73.637C76.7706 73.6403 76.9113 73.7865 76.908 73.9634L76.844 77.3759C76.8407 77.5528 76.6946 77.6936 76.5177 77.6902ZM76.6145 72.5282C76.4376 72.5249 76.2968 72.3788 76.3002 72.2019L76.8261 44.154C76.8361 43.6162 76.403 43.1748 75.8651 43.1748H74.6402C74.0999 43.1748 73.6658 43.62 73.6793 44.16L73.8584 51.3232C73.8628 51.5 73.723 51.647 73.5461 51.6515C73.3692 51.6559 73.2222 51.5161 73.2178 51.3392L73.0387 44.176C73.0162 43.2759 73.7398 42.5341 74.6402 42.5341H75.8651C76.7615 42.5341 77.4835 43.2697 77.4667 44.166L76.9408 72.2139C76.9375 72.3908 76.7914 72.5315 76.6145 72.5282Z" fill="#2C304E"/>
<path d="M35 77L37.4211 73M46.5 58L39.6774 69.2721" stroke="#2C304E" stroke-width="0.5" stroke-linecap="round"/>
<path d="M70 25.0185C72 24 79.9 22.8188 85.5 28.0188M97 45.5186C96.441 44.7733 95.4794 42.8755 94.2029 40.5185M87.8199 30.5185C89.3516 32.3905 90.7593 34.5367 92 36.6189" stroke="#2C304E" stroke-width="0.5" stroke-linecap="round"/>
<defs>
<linearGradient id="paint0_linear_4825_1064" x1="35" y1="67.0439" x2="115" y2="67.0439" gradientUnits="userSpaceOnUse">
<stop stop-color="#007E45"/>
<stop offset="1" stop-color="#007E45"/>
</linearGradient>
<linearGradient id="paint1_linear_4825_1064" x1="64.3617" y1="25.4548" x2="91.6204" y2="120.701" gradientUnits="userSpaceOnUse">
<stop stop-color="#007E45"/>
<stop offset="1" stop-color="#007E45"/>
</linearGradient>
<linearGradient id="paint2_linear_4825_1064" x1="35" y1="67.0439" x2="115" y2="67.0439" gradientUnits="userSpaceOnUse">
<stop stop-color="#007E45"/>
<stop offset="1" stop-color="#007E45"/>
</linearGradient>
<linearGradient id="paint3_linear_4825_1064" x1="64.3617" y1="25.4548" x2="91.6204" y2="120.701" gradientUnits="userSpaceOnUse">
<stop stop-color="#007E45"/>
<stop offset="1" stop-color="#007E45"/>
</linearGradient>
</defs>
</svg>
