<svg width="76" height="74" viewBox="0 0 76 74" fill="none" xmlns="http://www.w3.org/2000/svg">
<path d="M13.1539 56.3013C16.9311 42.2015 18.2726 23.6242 18.543 10.4956C18.6416 5.70975 22.8408 2.00482 27.5743 2.68897L63.0255 7.81293C66.8131 8.36037 69.6692 11.5776 69.6265 15.4079C69.4735 29.1254 68.1145 50.31 63.6957 65.4775C62.2615 70.4004 57.2748 73.0672 52.1942 72.3329L20.1025 67.6945C14.929 66.9468 11.8026 61.3456 13.1539 56.3013Z" fill="white"/>
<path d="M68.0364 41.9982C69.1106 32.3758 69.5439 22.8103 69.6265 15.4142C69.6693 11.5839 66.8132 8.36039 63.0256 7.81295L27.5743 2.68897C22.8408 2.00482 18.6416 5.71866 18.5428 10.5045C18.4991 12.6236 18.4275 14.8846 18.3222 17.2457L17.9674 23.6078C17.9001 24.6102 17.8266 25.6229 17.7465 26.6431M66.8388 49.6251C65.9998 54.89 64.9278 60.5001 63.5796 65.431C62.2271 70.3776 57.2749 73.0673 52.1943 72.333L20.1025 67.6946C14.929 66.9469 11.8041 61.341 13.1552 56.2966C15.3502 48.1012 16.7225 38.3937 17.5399 29.1229" stroke="#414562" stroke-width="0.902439" stroke-linecap="round"/>
<path d="M30.7168 39.0381L52.2749 42.1176" stroke="#ECECEE" stroke-width="1.94509" stroke-linecap="round"/>
<path d="M24.5312 44.0195L49.5926 47.5995M56.8685 48.6388L53.6347 48.1769" stroke="#ECECEE" stroke-width="1.94509" stroke-linecap="round"/>
<path d="M12.671 66.6701C0.0146221 64.6657 0.698646 59.7513 1.2954 56.0273C1.48883 54.8203 2.65313 53.8465 3.86329 54.021L39.3024 59.1286C40.2245 59.2615 40.909 60.0318 40.7994 60.9571C40.3492 64.7568 39.0484 70.279 52.5713 72.4207L12.671 66.6701Z" fill="white"/>
<path d="M1.2954 56.0273L0.8503 55.9529L1.2954 56.0273ZM12.671 66.6701L12.6035 67.1162L12.6097 67.1171L12.671 66.6701ZM52.5713 72.4207L52.5101 72.8677C52.7555 72.9031 52.9821 72.7336 53.0175 72.4882C53.0529 72.2427 52.8838 72.0134 52.6388 71.9746L52.5713 72.4207ZM40.7994 60.9571L40.3517 60.9009L40.3517 60.9009L40.7994 60.9571ZM0.8503 55.9529C0.555134 57.7948 0.190001 60.1345 1.64254 62.248C3.08947 64.3534 6.2452 66.1092 12.6035 67.1162L12.7385 66.224C6.44042 65.2266 3.60997 63.523 2.38401 61.7391C1.16366 59.9634 1.43891 57.9839 1.7405 56.1018L0.8503 55.9529ZM3.80203 54.468L39.2411 59.5756L39.3637 58.6815L3.92456 53.5739L3.80203 54.468ZM52.6326 71.9736L12.7323 66.2231L12.6097 67.1171L52.5101 72.8677L52.6326 71.9736ZM40.3517 60.9009C40.1331 62.7458 39.6528 65.2597 41.0623 67.5461C42.4795 69.845 45.7078 71.7905 52.5038 72.8668L52.6388 71.9746C45.9119 70.9092 43.0292 69.0228 41.8285 67.0752C40.6202 65.1152 41.0154 62.9681 41.247 61.0133L40.3517 60.9009ZM39.2411 59.5756C39.9571 59.6788 40.4282 60.2558 40.3517 60.9009L41.247 61.0133C41.3898 59.8079 40.4919 58.8441 39.3637 58.6815L39.2411 59.5756ZM1.7405 56.1018C1.90047 55.1036 2.86658 54.3332 3.80203 54.468L3.92456 53.5739C2.43967 53.3599 1.0772 54.5369 0.8503 55.9529L1.7405 56.1018Z" fill="#414562"/>
<rect width="17.4216" height="13.5991" rx="3.89019" transform="matrix(0.989951 0.141411 -0.136969 0.990575 36.8564 13.8027)" fill="#ECECEE"/>
<g clip-path="url(#clip0_5458_163633)">
<circle cx="62.1527" cy="50.0326" r="13.4779" fill="white"/>
<path d="M75.0591 49.6526C75.0591 47.1021 74.3224 44.7222 73.0486 42.7109M68.0612 38.1075C66.2194 37.1362 64.1178 36.5859 61.8865 36.5859C54.6115 36.5859 48.7139 42.4361 48.7139 49.6526C48.7139 56.8691 54.6115 62.7193 61.8865 62.7193C68.0244 62.7193 73.1818 58.555 74.6441 52.9193" stroke="#414562" stroke-width="0.902439" stroke-linecap="round"/>
</g>
<path d="M61.2823 55.6994C61.3227 55.9906 61.578 56.215 61.887 56.215C62.2241 56.215 62.4974 55.9479 62.4974 55.6184V45.1317L66.3574 48.9199L66.4257 48.9778C66.6643 49.1516 67.0034 49.133 67.2206 48.9217C67.4594 48.6892 67.4602 48.3114 67.2223 48.078L62.3278 43.2739C62.2998 43.2453 62.2689 43.2195 62.2356 43.1968C61.9972 43.0341 61.6666 43.057 61.4542 43.2655L56.5519 48.078L56.4929 48.145C56.3161 48.379 56.3366 48.7103 56.5537 48.9217C56.7926 49.1542 57.179 49.1534 57.4169 48.9199L61.2767 45.1308V55.6184L61.2823 55.6994Z" fill="#414562"/>
<defs>
<clipPath id="clip0_5458_163633">
<rect width="28.2271" height="28" fill="white" transform="translate(47.7725 35.6523)"/>
</clipPath>
</defs>
</svg>
