<svg width="200" height="200" viewBox="0 0 200 200" fill="none" xmlns="http://www.w3.org/2000/svg">
<path fill-rule="evenodd" clip-rule="evenodd" d="M102.723 0.0616752C140.076 1.00929 175.55 19.937 189.041 57.6938C205.301 103.204 206.867 160.396 170.056 188.511C134.233 215.873 88.9702 189.388 53.8869 160.924C20.8873 134.15 -9.88174 95.4084 3.00089 52.9742C15.7882 10.8539 61.8151 -0.976115 102.723 0.0616752Z" fill="#F5F5F5"/>
<ellipse cx="100" cy="187" rx="60" ry="4" fill="#DFDFE2"/>
<path d="M60.9129 138.012C67.1731 113.635 69.6091 82.69 70.2395 59.8901C70.5116 50.0473 79.1937 42.3764 88.9445 43.7468L150.432 52.3883C158.215 53.4821 164.068 60.0528 163.934 67.9108C163.524 92.1641 161.004 128.28 153.46 155C150.6 165.132 140.336 170.634 129.91 169.169L75.3389 161.499C64.673 160 58.2338 148.444 60.9129 138.012Z" fill="white"/>
<path d="M160.94 114.455C162.868 97.7181 163.711 81.0789 163.934 67.9259C164.068 60.0678 158.215 53.4821 150.432 52.3883L88.9445 43.7468C79.1937 42.3764 70.5115 50.0572 70.2392 59.9001C70.1515 63.071 70.0288 66.3993 69.8658 69.8456L69.1904 81.3636C69.0631 83.1785 68.9243 85.012 68.7735 86.8591M158.714 128.266C157.269 137.103 155.455 146.478 153.214 154.914C150.51 165.089 140.336 170.634 129.91 169.169L75.3389 161.499C64.673 160 58.2346 148.442 60.9136 138.009C64.5819 123.724 66.937 107.184 68.3852 91.3488" stroke="#2C304E" stroke-linecap="round"/>
<path d="M92.4807 109.199L132.091 114.766" stroke="#ECECEE" stroke-width="4" stroke-linecap="round"/>
<path d="M81.1167 118.205L127.164 124.677M140.533 126.555L134.591 125.72" stroke="#ECECEE" stroke-width="4" stroke-linecap="round"/>
<path d="M59.3135 159.247C36.7009 155.75 37.2944 147.194 38.3661 140.494C38.7637 138.008 41.2128 136.001 43.7053 136.352L107.923 145.377C109.818 145.643 111.205 147.217 110.965 149.116C110.093 156.011 108.199 165.773 132.593 169.546L59.3135 159.247Z" fill="white"/>
<path d="M38.3661 140.494L38.8598 140.573L38.3661 140.494ZM59.3135 159.247L59.2371 159.741L59.2439 159.742L59.3135 159.247ZM132.593 169.546L132.524 170.041C132.796 170.079 133.048 169.891 133.088 169.619C133.128 169.347 132.941 169.094 132.67 169.052L132.593 169.546ZM110.965 149.116L110.469 149.053L110.469 149.053L110.965 149.116ZM37.8724 140.415C37.3368 143.763 36.8767 147.773 39.5573 151.37C42.2235 154.947 47.898 157.987 59.2371 159.741L59.3899 158.753C48.1164 157.009 42.7813 154.022 40.3591 150.772C37.9512 147.542 38.3237 143.924 38.8598 140.573L37.8724 140.415ZM43.6357 136.847L107.853 145.872L107.992 144.882L43.7748 135.857L43.6357 136.847ZM132.663 169.051L59.3831 158.752L59.2439 159.742L132.524 170.041L132.663 169.051ZM110.469 149.053C110.038 152.456 109.3 156.82 111.886 160.775C114.473 164.734 120.282 168.148 132.517 170.04L132.67 169.052C120.51 167.171 115.069 163.818 112.723 160.228C110.374 156.635 111.019 152.671 111.461 149.178L110.469 149.053ZM107.853 145.872C109.517 146.106 110.67 147.464 110.469 149.053L111.461 149.178C111.741 146.97 110.118 145.181 107.992 144.882L107.853 145.872ZM38.8598 140.573C39.2192 138.326 41.4421 136.539 43.6357 136.847L43.7748 135.857C40.9835 135.464 38.3082 137.69 37.8724 140.415L38.8598 140.573Z" fill="#2C304E"/>
<rect x="103.761" y="63.5801" width="32" height="24.5911" rx="8" transform="rotate(8 103.761 63.5801)" fill="#ECECEE"/>
<path d="M123.575 135.298C128.645 134.544 133.452 133.72 137.979 132.841M185.144 112.362C184.598 108.691 175.901 108.831 162 108.5M62 139C72.7314 140.494 90.4298 139.309 110.427 137.028M147.179 130.892C166.726 126.383 179.613 120.88 183.743 116.037" stroke="#2C304E" stroke-linecap="round"/>
<path d="M120.739 101.154C124.44 100.629 128.061 100.054 131.579 99.4373M67.9999 86.9996C57.7639 90.785 52.8394 94.2293 53.3118 97.5619C53.4773 98.7289 54.4267 99.7479 56.0582 100.613M64.3916 103.007C74.9514 104.718 92.1132 104.556 111.787 102.302M139.912 97.8599C150.891 95.6228 160.544 93.0021 168.037 90.2875" stroke="#2C304E" stroke-linecap="round"/>
<g clip-path="url(#clip0_3130_241317)">
<path d="M178.933 87.9997C178.933 85.0848 178.098 82.365 176.654 80.0664M171 74.8053C168.912 73.6953 166.529 73.0664 164 73.0664C155.753 73.0664 149.067 79.7523 149.067 87.9997C149.067 96.2472 155.753 102.933 164 102.933C170.958 102.933 176.805 98.1739 178.463 91.7331" stroke="#2C304E" stroke-linecap="round"/>
<ellipse cx="163.867" cy="87.8667" rx="13.8667" ry="13.8667" fill="url(#paint0_linear_3130_241317)"/>
<path d="M163 95C163 95.5523 163.448 96 164 96C164.552 96 165 95.5523 165 95H163ZM164.707 80.2929C164.317 79.9024 163.683 79.9024 163.293 80.2929L156.929 86.6569C156.538 87.0474 156.538 87.6805 156.929 88.0711C157.319 88.4616 157.953 88.4616 158.343 88.0711L164 82.4142L169.657 88.0711C170.047 88.4616 170.681 88.4616 171.071 88.0711C171.462 87.6805 171.462 87.0474 171.071 86.6569L164.707 80.2929ZM165 95V81H163V95H165Z" fill="white"/>
<path d="M164 100.826C164 101.401 163.534 101.87 162.961 101.827C160.401 101.635 157.937 100.735 155.849 99.2178C153.762 97.7009 152.144 95.6359 151.17 93.2607C150.952 92.7292 151.255 92.1406 151.801 91.9631C152.347 91.7856 152.93 92.087 153.155 92.6155C153.988 94.5738 155.34 96.2765 157.072 97.5351C158.804 98.7937 160.841 99.5528 162.961 99.7403C163.533 99.7909 164 100.252 164 100.826Z" fill="url(#paint1_linear_3130_241317)"/>
<path d="M165.494 75.2602C165.561 74.6897 166.079 74.2776 166.643 74.387C168.358 74.72 169.998 75.375 171.476 76.3204C172.953 77.2659 174.234 78.4812 175.255 79.8996C175.591 80.3658 175.433 81.0086 174.943 81.3082C174.453 81.6079 173.816 81.4503 173.475 80.9886C172.623 79.8369 171.566 78.8478 170.354 78.0723C169.143 77.2968 167.802 76.7513 166.399 76.4596C165.837 76.3427 165.427 75.8307 165.494 75.2602Z" fill="#007E45"/>
</g>
<defs>
<linearGradient id="paint0_linear_3130_241317" x1="150" y1="87.8667" x2="177.733" y2="87.8667" gradientUnits="userSpaceOnUse">
<stop stop-color="#007E45"/>
<stop offset="1" stop-color="#007E45"/>
</linearGradient>
<linearGradient id="paint1_linear_3130_241317" x1="160.312" y1="71.9995" x2="171.749" y2="108.011" gradientUnits="userSpaceOnUse">
<stop stop-color="#007E45"/>
<stop offset="1" stop-color="#007E45"/>
</linearGradient>
<clipPath id="clip0_3130_241317">
<rect width="32" height="32" fill="white" transform="translate(148 72)"/>
</clipPath>
</defs>
</svg>
