<svg width="158" height="150" viewBox="0 0 158 150" fill="none" xmlns="http://www.w3.org/2000/svg">
<path fill-rule="evenodd" clip-rule="evenodd" d="M72.6076 0.0168378C106.889 -0.685966 138.562 20.6723 148.419 52.8215C157.69 83.0622 138.898 112.537 112.79 131.076C86.755 149.565 52.0621 158.185 25.9656 139.779C-0.389375 121.191 -4.10965 85.9679 5.97754 55.7417C16.0067 25.6896 40.3189 0.678795 72.6076 0.0168378Z" fill="#F5F5F5"/>
<ellipse cx="72.2532" cy="121" rx="45.2532" ry="3" fill="#DFDFE2"/>
<path d="M24.5984 34.4685L17.5193 84.8385C16.5918 91.4383 21.1901 97.5405 27.7899 98.468L28.9589 98.6323L34.2885 99.3814L106.383 109.514C112.982 110.441 119.085 105.843 120.012 99.2429L127.091 48.873C128.019 42.2731 123.42 36.171 116.821 35.2434L105.402 33.6387L91.8732 31.7373L64.4051 27.8769L60.3054 27.3007L56.2057 26.7246L48.8262 25.6874L38.2279 24.1979C31.6281 23.2704 25.5259 27.8687 24.5984 34.4685Z" fill="white"/>
<path d="M28.9589 98.6323L27.7899 98.468C21.1901 97.5405 16.5918 91.4383 17.5193 84.8385L24.5984 34.4685C25.5259 27.8687 31.6281 23.2704 38.2279 24.1979L48.8262 25.6874L56.2057 26.7246L60.3054 27.3007L64.4051 27.8769L91.8732 31.7373M34.2885 99.3814L106.383 109.514C112.982 110.441 119.085 105.843 120.012 99.2429L127.091 48.873C128.019 42.2731 123.42 36.171 116.821 35.2434L105.402 33.6387" stroke="#2C304E" stroke-width="0.754219" stroke-linecap="round"/>
<g clip-path="url(#clip0_924_40513)">
<circle cx="23.3795" cy="50.3001" r="11.2643" transform="rotate(-17.389 23.3795 50.3001)" fill="white"/>
<path d="M34.0447 46.9408C33.3914 44.8545 32.184 43.095 30.6352 41.7736M25.4093 39.2754C23.6661 38.9489 21.8198 39.0329 20.0094 39.5998C14.1065 41.4484 10.8199 47.7323 12.6685 53.6352C14.5171 59.5381 20.8009 62.8247 26.7038 60.9761C31.6841 59.4164 34.802 54.6997 34.5448 49.7183" stroke="#2C304E" stroke-width="0.754219" stroke-linecap="round"/>
<ellipse cx="23.356" cy="50.288" rx="10.4" ry="10.4" transform="rotate(-17.389 23.356 50.288)" fill="url(#paint0_linear_924_40513)"/>
<path d="M26.2311 59.4684C26.3598 59.8795 26.1313 60.3201 25.7117 60.4177C23.8364 60.8539 21.8713 60.7619 20.037 60.1442C18.2027 59.5265 16.5822 58.411 15.3527 56.9293C15.0776 56.5978 15.1623 56.1087 15.5134 55.8592V55.8592C15.8646 55.6097 16.3491 55.6948 16.6285 56.0227C17.664 57.2375 19.0128 58.1532 20.5348 58.6658C22.0568 59.1783 23.6848 59.265 25.2442 58.924C25.6651 58.832 26.1023 59.0573 26.2311 59.4684V59.4684Z" fill="url(#paint1_linear_924_40513)"/>
<path d="M21.5698 40.8352C21.4898 40.4119 21.768 40.0008 22.1961 39.9528C23.4986 39.8066 24.8194 39.9077 26.0885 40.2533C27.3576 40.5989 28.5473 41.1815 29.5958 41.9678C29.9404 42.2263 29.9718 42.7217 29.6882 43.046V43.046C29.4047 43.3703 28.9137 43.4002 28.5657 43.1463C27.6976 42.513 26.7195 42.042 25.6786 41.7585C24.6376 41.475 23.5557 41.3851 22.4864 41.4908C22.0577 41.5331 21.6498 41.2585 21.5698 40.8352V40.8352Z" fill="#007E45"/>
</g>
<path fill-rule="evenodd" clip-rule="evenodd" d="M19.1828 46.0281C17.6744 46.5005 17.0229 47.8395 17.5241 49.4397L19.0498 54.3114C19.5509 55.9117 20.8498 56.6399 22.3582 56.1675L27.5281 54.5485C29.0382 54.0755 29.6903 52.7363 29.1892 51.1361L27.6635 46.2644C27.1624 44.6642 25.8629 43.9361 24.3539 44.4087L19.1828 46.0281ZM27.8082 55.4431L22.6383 57.0622C20.6176 57.695 18.816 56.7018 18.1551 54.5916L16.6294 49.7199C15.9686 47.6097 16.8819 45.7663 18.9026 45.1335L24.0737 43.514C26.0951 42.881 27.8973 43.874 28.5582 45.9842L30.0838 50.8559C30.7447 52.9661 29.8308 54.8097 27.8082 55.4431Z" fill="white"/>
<path fill-rule="evenodd" clip-rule="evenodd" d="M21.2654 50.2213C20.9016 50.3353 20.6992 50.7222 20.8128 51.0848C20.9264 51.4475 21.3133 51.6498 21.6759 51.5363C22.0379 51.4229 22.2409 51.0358 22.1273 50.6732C22.014 50.3111 21.627 50.1087 21.2654 50.2213ZM21.9561 52.4309C21.1002 52.699 20.186 52.2203 19.9181 51.365C19.6501 50.5091 20.1282 49.5951 20.984 49.3271C21.8413 49.0592 22.7541 49.5377 23.022 50.393C23.2898 51.2483 22.812 52.1629 21.9561 52.4309Z" fill="white"/>
<path fill-rule="evenodd" clip-rule="evenodd" d="M26.8307 50.9044C26.5838 50.9817 26.3206 50.8441 26.2433 50.5972L26.0373 49.9393L22.7163 50.9793C22.4694 51.0566 22.2064 50.9196 22.1289 50.6721C22.0516 50.4252 22.1892 50.162 22.4361 50.0847L26.2044 48.9045C26.4513 48.8272 26.7145 48.9649 26.7918 49.2118L27.1379 50.317C27.2153 50.5639 27.0776 50.8271 26.8307 50.9044Z" fill="white"/>
<path fill-rule="evenodd" clip-rule="evenodd" d="M25.1439 51.4327C24.8969 51.51 24.6338 51.3724 24.5565 51.1254L24.2103 50.0202C24.133 49.7733 24.2707 49.5101 24.5176 49.4328C24.7645 49.3555 25.0277 49.4931 25.105 49.7401L25.4511 50.8452C25.5284 51.0922 25.3908 51.3553 25.1439 51.4327Z" fill="white"/>
<path d="M110.026 86.4027C110.329 84.2473 112.322 82.7456 114.477 83.0485L137.179 86.239C139.334 86.542 140.836 88.5348 140.533 90.6902L139.125 100.71C138.822 102.865 136.829 104.367 134.674 104.064L111.972 100.873C109.816 100.57 108.315 98.5775 108.618 96.4221L110.026 86.4027Z" fill="url(#paint2_linear_924_40513)"/>
<path d="M128.326 103.172L111.972 100.873C109.816 100.57 108.315 98.5775 108.618 96.4221L110.026 86.4027C110.329 84.2473 112.322 82.7456 114.477 83.0485L116.483 83.3304M132.547 103.765L134.974 104.106C137.13 104.409 139.123 102.907 139.426 100.752L140.834 90.7325C141.137 88.5771 139.635 86.5842 137.479 86.2813L120.703 83.9235" stroke="#2C304E" stroke-width="0.754219" stroke-linecap="round"/>
<line x1="124.665" y1="85.6664" x2="133.3" y2="86.88" stroke="#007E45" stroke-width="1.50844" stroke-linecap="round"/>
<line x1="135.635" y1="87.2082" x2="137.518" y2="87.4727" stroke="#007E45" stroke-width="1.50844" stroke-linecap="round"/>
<path d="M115.257 94.051L115.52 92.6607L114.224 93.2305L114 92.6503L115.345 92.1918L114.198 91.3539L114.584 90.8666L115.652 91.7964L115.814 90.3906L116.424 90.4835L116.16 91.8738L117.456 91.304L117.68 91.8842L116.336 92.3427L117.483 93.1806L117.097 93.6679L116.029 92.7381L115.867 94.1439L115.257 94.051ZM119.73 94.7322L119.994 93.3419L118.698 93.9118L118.474 93.3315L119.818 92.873L118.672 92.0352L119.058 91.5478L120.126 92.4777L120.288 91.0719L120.898 91.1648L120.634 92.5551L121.93 91.9852L122.154 92.5654L120.81 93.024L121.957 93.8618L121.57 94.3492L120.502 93.4193L120.34 94.8251L119.73 94.7322ZM124.204 95.4134L124.468 94.0231L123.172 94.593L122.948 94.0128L124.292 93.5542L123.145 92.7164L123.532 92.229L124.599 93.1589L124.761 91.7531L125.372 91.846L125.108 93.2363L126.404 92.6664L126.628 93.2467L125.283 93.7052L126.43 94.543L126.044 95.0304L124.976 94.1005L124.814 95.5063L124.204 95.4134ZM128.678 96.0947L128.942 94.7044L127.645 95.2742L127.422 94.694L128.766 94.2355L127.619 93.3976L128.005 92.9103L129.073 93.8401L129.235 92.4343L129.845 92.5272L129.582 93.9175L130.878 93.3477L131.101 93.9279L129.757 94.3864L130.904 95.2243L130.518 95.7116L129.45 94.7818L129.288 96.1876L128.678 96.0947ZM133.152 96.7759L133.415 95.3856L132.119 95.9555L131.895 95.3752L133.24 94.9167L132.093 94.0789L132.479 93.5915L133.547 94.5214L133.709 93.1156L134.319 93.2085L134.055 94.5988L135.351 94.0289L135.575 94.6091L134.231 95.0677L135.378 95.9055L134.992 96.3929L133.924 95.463L133.762 96.8688L133.152 96.7759Z" fill="white"/>
<path d="M72.2095 53.4239C72.7226 52.6687 73.5477 52.184 74.4571 52.1033L76.2591 51.9435C77.2943 51.8518 78.3369 51.9965 79.308 52.3668L81.0414 53.0277C81.9081 53.3582 82.5766 54.0661 82.857 54.9503V54.9503C83.5337 57.0841 81.7512 59.1932 79.5344 58.8817L74.3024 58.1464C72.0713 57.8328 70.9432 55.2874 72.2095 53.4239V53.4239Z" fill="white"/>
<ellipse cx="78.5537" cy="47.1995" rx="3.60294" ry="3.56796" transform="rotate(8 78.5537 47.1995)" fill="white"/>
<path d="M82.8281 54.8592V54.8592C82.5659 54.0326 81.941 53.3708 81.1307 53.0618L79.308 52.3668C78.3369 51.9965 77.2943 51.8518 76.2591 51.9435L74.4571 52.1033C73.5477 52.184 72.7226 52.6687 72.2095 53.4239L71.3637 54.6686C70.4874 55.9583 71.2681 57.7199 72.8123 57.9369V57.9369M83.243 56.1675V56.1675C83.7407 57.7371 82.4296 59.2886 80.7989 59.0594L76.2345 58.4179" stroke="#2C304E" stroke-width="0.754219" stroke-linecap="round"/>
<path d="M80.8012 44.4159C80.3124 44.0273 79.7153 43.7597 79.0503 43.6662C77.0798 43.3893 75.2601 44.7467 74.9859 46.698C74.7116 48.6494 76.0867 50.4558 78.0572 50.7327C80.0277 51.0096 81.8474 49.6523 82.1216 47.7009C82.1672 47.3764 82.1672 47.0558 82.1264 46.7457" stroke="#2C304E" stroke-width="0.754219" stroke-linecap="round"/>
<path d="M65.2406 65.9611L57.0709 64.8129C55.02 64.5247 53.1238 65.9536 52.8355 68.0045V68.0045C52.5473 70.0554 53.9762 71.9517 56.0271 72.2399L93.9049 77.5633C95.9558 77.8515 97.852 76.4226 98.1403 74.3717V74.3717C98.4285 72.3208 96.9996 70.4245 94.9487 70.1363L69.6968 66.5874" stroke="#2C304E" stroke-width="0.754219" stroke-linecap="round"/>
<line x1="58.0445" y1="68.7279" x2="86.2504" y2="72.692" stroke="#ECECEE" stroke-width="3.01688" stroke-linecap="round"/>
<path d="M59.9607 76.5796L55.5045 75.9533C53.4536 75.6651 51.5574 77.094 51.2691 79.1449V79.1449C50.9809 81.1958 52.4098 83.0921 54.4607 83.3803L92.3385 88.7037C94.3894 88.9919 96.2856 87.563 96.5739 85.5121V85.5121C96.8621 83.4612 95.4332 81.5649 93.3823 81.2767L64.4169 77.2059" stroke="#2C304E" stroke-width="0.754219" stroke-linecap="round"/>
<line x1="56.4781" y1="79.8683" x2="57.2041" y2="79.9703" stroke="#ECECEE" stroke-width="3.01688" stroke-linecap="round"/>
<line x1="61.6763" y1="80.5987" x2="62.4023" y2="80.7008" stroke="#ECECEE" stroke-width="3.01688" stroke-linecap="round"/>
<line x1="66.8756" y1="81.3295" x2="67.6016" y2="81.4315" stroke="#ECECEE" stroke-width="3.01688" stroke-linecap="round"/>
<line x1="72.0748" y1="82.0602" x2="72.8008" y2="82.1622" stroke="#ECECEE" stroke-width="3.01688" stroke-linecap="round"/>
<path d="M23.3908 98.1133C23.5224 97.9519 23.4983 97.7143 23.3369 97.5827C23.1755 97.4511 22.9379 97.4753 22.8063 97.6367L23.3908 98.1133ZM23.0985 115.443L22.9959 115.08L23.0985 115.443ZM143.353 52.3462C143.507 52.2058 143.517 51.9673 143.377 51.8134C143.237 51.6596 142.998 51.6487 142.844 51.7891L143.353 52.3462ZM128.042 42.7864C127.855 42.878 127.777 43.1039 127.869 43.2909C127.961 43.4779 128.186 43.5553 128.373 43.4636L128.042 42.7864ZM43.48 109.022C43.6752 108.949 43.7746 108.732 43.702 108.537C43.6294 108.342 43.4122 108.242 43.217 108.315L43.48 109.022ZM72.0658 96.3161C71.8766 96.4032 71.7939 96.6272 71.881 96.8164C71.9681 97.0055 72.1921 97.0883 72.3813 97.0012L72.0658 96.3161ZM60.2235 101.957L60.3705 102.304C60.5615 102.223 60.6514 102.004 60.5717 101.812C60.4921 101.621 60.2727 101.529 60.0808 101.608L60.2235 101.957ZM50.8485 105.791L50.7058 105.442C50.5138 105.521 50.4213 105.739 50.4986 105.932C50.576 106.124 50.7942 106.218 50.9871 106.142L50.8485 105.791ZM139.722 55.0677L139.475 54.7825L139.722 55.0677ZM148.377 46.5498C148.229 46.6965 148.228 46.9352 148.374 47.0832C148.521 47.2311 148.76 47.2321 148.908 47.0855L148.377 46.5498ZM142.962 36.5702C142.768 36.6458 142.672 36.8644 142.747 37.0585C142.823 37.2526 143.041 37.3486 143.236 37.2729L142.962 36.5702ZM136.876 39.9326C137.067 39.8483 137.153 39.6256 137.068 39.4352C136.984 39.2447 136.761 39.1587 136.571 39.243L136.876 39.9326ZM22.8063 97.6367C21.1448 99.6744 19.3142 102.08 17.7519 104.474C16.1937 106.862 14.8855 109.263 14.2899 111.287C13.9922 112.298 13.8633 113.245 13.9919 114.063C14.1229 114.895 14.5221 115.591 15.2571 116.057C15.9766 116.514 16.9778 116.725 18.2719 116.69C19.5697 116.655 21.1969 116.373 23.2012 115.806L22.9959 115.08C21.0252 115.638 19.4641 115.904 18.2517 115.936C17.0355 115.969 16.2045 115.765 15.6611 115.42C15.1332 115.085 14.8389 114.593 14.7369 113.945C14.6327 113.283 14.7314 112.458 15.0134 111.5C15.5772 109.584 16.8363 107.258 18.3835 104.887C19.9267 102.522 21.7399 100.138 23.3908 98.1133L22.8063 97.6367ZM23.2012 115.806C27.9166 114.471 34.9613 112.191 43.48 109.022L43.217 108.315C34.713 111.479 27.6878 113.752 22.9959 115.08L23.2012 115.806ZM50.9871 106.142C53.9947 104.954 57.1322 103.674 60.3705 102.304L60.0766 101.61C56.8441 102.977 53.7122 104.255 50.71 105.44L50.9871 106.142ZM60.0808 101.608L50.7058 105.442L50.9913 106.14L60.3663 102.306L60.0808 101.608ZM72.3813 97.0012C94.7809 86.6873 119.999 72.6345 139.969 55.3528L139.475 54.7825C119.581 71.999 94.4337 86.0168 72.0658 96.3161L72.3813 97.0012ZM139.969 55.3528C141.114 54.3613 142.243 53.359 143.353 52.3462L142.844 51.7891C141.74 52.7973 140.616 53.7952 139.475 54.7825L139.969 55.3528ZM148.908 47.0855C152.871 43.1575 155.322 40.2413 156.557 38.1495C157.172 37.1074 157.509 36.2316 157.553 35.5144C157.599 34.7654 157.322 34.1831 156.745 33.8192C156.205 33.4783 155.446 33.358 154.57 33.3743C153.684 33.3908 152.624 33.5488 151.436 33.8163C149.061 34.3516 146.126 35.337 142.962 36.5702L143.236 37.2729C146.386 36.0451 149.28 35.0752 151.602 34.5521C152.764 34.2904 153.769 34.1436 154.584 34.1284C155.411 34.113 155.99 34.2343 156.343 34.4571C156.66 34.6568 156.831 34.9604 156.8 35.4683C156.767 36.008 156.501 36.7602 155.907 37.7661C154.724 39.7703 152.331 42.6303 148.377 46.5498L148.908 47.0855ZM136.571 39.243C135.185 39.8564 133.728 40.4127 132.274 40.9823C130.824 41.5502 129.38 42.1306 128.042 42.7864L128.373 43.4636C129.681 42.8229 131.1 42.2524 132.549 41.6846C133.994 41.1186 135.471 40.5545 136.876 39.9326L136.571 39.243Z" fill="#2C304E"/>
<defs>
<linearGradient id="paint0_linear_924_40513" x1="12.9561" y1="50.288" x2="33.756" y2="50.288" gradientUnits="userSpaceOnUse">
<stop stop-color="#007E45"/>
<stop offset="1" stop-color="#007E45"/>
</linearGradient>
<linearGradient id="paint1_linear_924_40513" x1="17.1302" y1="39.6631" x2="33.3879" y2="62.8737" gradientUnits="userSpaceOnUse">
<stop stop-color="#007E45"/>
<stop offset="1" stop-color="#007E45"/>
</linearGradient>
<linearGradient id="paint2_linear_924_40513" x1="109.322" y1="91.4124" x2="139.829" y2="95.6999" gradientUnits="userSpaceOnUse">
<stop stop-color="#007E45"/>
<stop offset="1" stop-color="#007E45"/>
</linearGradient>
<clipPath id="clip0_924_40513">
<rect width="24" height="24" fill="white" transform="translate(8.31934 42.4226) rotate(-17.389)"/>
</clipPath>
</defs>
</svg>
