<svg width="200" height="200" viewBox="0 0 200 200" fill="none" xmlns="http://www.w3.org/2000/svg">
<path fill-rule="evenodd" clip-rule="evenodd" d="M95.7177 0.0224504C141.426 -0.914621 183.656 27.5631 196.799 70.4286C209.161 110.75 184.105 150.049 149.295 174.768C114.581 199.42 68.3237 210.913 33.5283 186.372C-1.61161 161.588 -6.57198 114.624 6.87761 74.3223C20.2498 34.2528 52.6661 0.90506 95.7177 0.0224504Z" fill="#F2F5F6"/>
<ellipse cx="84.5" cy="162" rx="66.5" ry="4" fill="#CCD6DB"/>
<path d="M28.3009 46.9491L18.104 119.504C17.1765 126.104 21.7748 132.206 28.3746 133.133L33.6668 133.877L40.6714 134.861L139.179 148.706C145.779 149.633 151.881 145.035 152.809 138.435L163.006 65.8806C163.933 59.2808 159.335 53.1786 152.735 52.2511L133.972 49.6142L116.191 47.1152L80.0905 42.0416L74.7024 41.2843L69.3142 40.5271L59.6154 39.164L41.9305 36.6785C35.3306 35.751 29.2285 40.3493 28.3009 46.9491Z" fill="white"/>
<path d="M33.6668 133.877L28.3746 133.133C21.7748 132.206 17.1765 126.104 18.104 119.504L28.3009 46.9491C29.2285 40.3493 35.3306 35.751 41.9305 36.6785L59.6154 39.164L69.3142 40.5271L74.7024 41.2843L80.0905 42.0416L116.191 47.1152M40.6714 134.861L139.179 148.706C145.779 149.633 151.881 145.035 152.809 138.435L163.006 65.8806C163.933 59.2808 159.335 53.1786 152.735 52.2511L133.972 49.6142" stroke="#1A1A1A" stroke-linecap="round"/>
<path d="M137.957 123.903C138.26 121.747 140.252 120.246 142.408 120.548L165.11 123.739C167.265 124.042 168.767 126.035 168.464 128.19L167.056 138.21C166.753 140.365 164.76 141.867 162.605 141.564L139.903 138.373C137.747 138.07 136.246 136.078 136.549 133.922L137.957 123.903Z" fill="#B3D9C8"/>
<path d="M156.257 140.672L139.903 138.373C137.747 138.07 136.246 136.078 136.549 133.922L137.957 123.903C138.26 121.747 140.252 120.246 142.408 120.548L144.413 120.83M160.478 141.265L162.905 141.606C165.061 141.909 167.053 140.407 167.356 138.252L168.765 128.232C169.067 126.077 167.566 124.084 165.41 123.781L148.634 121.423" stroke="#1A1A1A" stroke-width="0.754219" stroke-linecap="round"/>
<line x1="152.596" y1="123.166" x2="161.231" y2="124.38" stroke="#F2F9F6" stroke-width="1.50844" stroke-linecap="round"/>
<line x1="163.566" y1="124.708" x2="165.448" y2="124.973" stroke="#F2F9F6" stroke-width="1.50844" stroke-linecap="round"/>
<path d="M143.187 131.551L143.451 130.161L142.155 130.731L141.931 130.15L143.275 129.692L142.128 128.854L142.515 128.367L143.583 129.296L143.745 127.891L144.355 127.984L144.091 129.374L145.387 128.804L145.611 129.384L144.267 129.843L145.413 130.681L145.027 131.168L143.959 130.238L143.797 131.644L143.187 131.551ZM147.661 132.232L147.925 130.842L146.629 131.412L146.405 130.832L147.749 130.373L146.602 129.535L146.989 129.048L148.056 129.978L148.218 128.572L148.828 128.665L148.565 130.055L149.861 129.485L150.085 130.065L148.74 130.524L149.887 131.362L149.501 131.849L148.433 130.919L148.271 132.325L147.661 132.232ZM152.135 132.913L152.398 131.523L151.102 132.093L150.879 131.513L152.223 131.054L151.076 130.216L151.462 129.729L152.53 130.659L152.692 129.253L153.302 129.346L153.038 130.736L154.335 130.166L154.558 130.747L153.214 131.205L154.361 132.043L153.975 132.53L152.907 131.601L152.745 133.006L152.135 132.913ZM156.609 133.595L156.872 132.204L155.576 132.774L155.352 132.194L156.697 131.735L155.55 130.898L155.936 130.41L157.004 131.34L157.166 129.934L157.776 130.027L157.512 131.418L158.808 130.848L159.032 131.428L157.688 131.886L158.835 132.724L158.448 133.212L157.381 132.282L157.219 133.688L156.609 133.595ZM161.082 134.276L161.346 132.886L160.05 133.455L159.826 132.875L161.17 132.417L160.023 131.579L160.41 131.092L161.478 132.021L161.64 130.616L162.25 130.708L161.986 132.099L163.282 131.529L163.506 132.109L162.162 132.568L163.308 133.406L162.922 133.893L161.854 132.963L161.692 134.369L161.082 134.276Z" fill="white"/>
<path d="M79.8832 90.6701L71.7135 89.5219C69.6626 89.2337 67.7663 90.6626 67.4781 92.7135V92.7135C67.1899 94.7644 68.6188 96.6607 70.6697 96.9489L108.547 102.272C110.598 102.561 112.495 101.132 112.783 99.0807V99.0807C113.071 97.0298 111.642 95.1335 109.591 94.8453L84.3394 91.2964" stroke="#1A1A1A" stroke-width="0.754219" stroke-linecap="round"/>
<line x1="75.6871" y1="93.4369" x2="103.893" y2="97.401" stroke="#ECECEE" stroke-width="3.01688" stroke-linecap="round"/>
<path d="M76.1697 101.289L71.7135 100.662C69.6626 100.374 67.7663 101.803 67.4781 103.854V103.854C67.1899 105.905 68.6188 107.801 70.6697 108.089L108.547 113.413C110.598 113.701 112.495 112.272 112.783 110.221V110.221C113.071 108.17 111.642 106.274 109.591 105.986L80.6259 101.915" stroke="#1A1A1A" stroke-width="0.754219" stroke-linecap="round"/>
<line x1="72.6868" y1="104.577" x2="73.4128" y2="104.679" stroke="#ECECEE" stroke-width="3.01688" stroke-linecap="round"/>
<line x1="77.8853" y1="105.308" x2="78.6113" y2="105.41" stroke="#ECECEE" stroke-width="3.01688" stroke-linecap="round"/>
<line x1="83.0846" y1="106.039" x2="83.8105" y2="106.141" stroke="#ECECEE" stroke-width="3.01688" stroke-linecap="round"/>
<line x1="88.2838" y1="106.769" x2="89.0098" y2="106.871" stroke="#ECECEE" stroke-width="3.01688" stroke-linecap="round"/>
<g clip-path="url(#clip0_2077_2676)">
<path d="M36.2597 63.6129C35.4075 60.8253 33.8136 58.4685 31.7606 56.6926M24.8154 53.3144C22.4942 52.8634 20.0318 52.9586 17.6128 53.6981C9.72577 56.1094 5.28679 64.4579 7.69812 72.345C10.1094 80.2321 18.4579 84.6711 26.345 82.2598C32.9993 80.2253 37.1991 73.9647 36.9013 67.3206" stroke="#1A1A1A" stroke-linecap="round"/>
<ellipse cx="21.8125" cy="67.8904" rx="13.8667" ry="13.8667" transform="rotate(-17 21.8125 67.8904)" fill="#B3D9C8"/>
<path d="M25.7292 80.2452C25.8971 80.7945 25.5885 81.38 25.0282 81.5063C22.5239 82.0708 19.9046 81.9304 17.4645 81.0902C15.0244 80.25 12.8739 78.748 11.248 76.7614C10.8843 76.3169 11.0015 75.6655 11.472 75.3361C11.9426 75.0066 12.5877 75.1245 12.9573 75.5641C14.327 77.1932 16.117 78.4264 18.1417 79.1235C20.1663 79.8207 22.3361 79.951 24.4184 79.5105C24.9803 79.3916 25.5613 79.6959 25.7292 80.2452Z" fill="#62AE8B"/>
<path d="M19.6831 55.3594C19.5803 54.7943 19.955 54.2487 20.5262 54.1885C22.2641 54.0054 24.0242 54.1522 25.7132 54.6245C27.4021 55.0968 28.9831 55.8842 30.374 56.9422C30.8311 57.2899 30.8685 57.9507 30.4875 58.3805C30.1065 58.8103 29.4516 58.8457 28.9899 58.5041C27.8383 57.6519 26.5384 57.015 25.1531 56.6276C23.7677 56.2403 22.326 56.1105 20.8994 56.2418C20.3274 56.2944 19.7859 55.9245 19.6831 55.3594Z" fill="#F2F9F6"/>
<path fill-rule="evenodd" clip-rule="evenodd" d="M16.4522 62.2616C14.4368 62.8777 13.5561 64.6571 14.2098 66.7953L16.1998 73.3045C16.8535 75.4427 18.5787 76.4254 20.5942 75.8092L27.5019 73.6973C29.5197 73.0804 30.4012 71.3007 29.7475 69.1626L27.7574 62.6534C27.1037 60.5152 25.3777 59.5328 23.3615 60.1492L16.4522 62.2616ZM27.8673 74.8927L20.9596 77.0046C18.2597 77.83 15.8665 76.4895 15.0045 73.67L13.0144 67.1607C12.1524 64.3412 13.3868 61.8916 16.0868 61.0662L22.9961 58.9538C25.6968 58.1281 28.0908 59.4684 28.9528 62.2879L30.9429 68.7971C31.8049 71.6166 30.5697 74.0665 27.8673 74.8927Z" fill="white"/>
<path fill-rule="evenodd" clip-rule="evenodd" d="M19.191 67.8713C18.7049 68.0199 18.4316 68.5339 18.5797 69.0184C18.7278 69.503 19.2419 69.7763 19.7264 69.6282C20.2101 69.4803 20.4843 68.966 20.3361 68.4815C20.1882 67.9977 19.6742 67.7244 19.191 67.8713ZM20.0919 70.8235C18.9483 71.1732 17.7337 70.5267 17.3843 69.3839C17.0347 68.2403 17.6804 67.026 18.824 66.6764C19.9694 66.327 21.1821 66.9732 21.5315 68.116C21.8809 69.2588 21.2355 70.4739 20.0919 70.8235Z" fill="white"/>
<path fill-rule="evenodd" clip-rule="evenodd" d="M26.605 68.8323C26.2751 68.9332 25.9255 68.7473 25.8246 68.4174L25.5559 67.5384L21.1186 68.895C20.7887 68.9959 20.4393 68.8108 20.3382 68.48C20.2373 68.1501 20.4232 67.8005 20.7532 67.6996L25.7881 66.1603C26.118 66.0594 26.4677 66.2453 26.5685 66.5752L27.02 68.0519C27.1209 68.3819 26.935 68.7315 26.605 68.8323Z" fill="white"/>
<path fill-rule="evenodd" clip-rule="evenodd" d="M24.3512 69.5214C24.0213 69.6223 23.6716 69.4364 23.5708 69.1065L23.1193 67.6298C23.0184 67.2998 23.2043 66.9502 23.5343 66.8493C23.8642 66.7485 24.2138 66.9344 24.3147 67.2643L24.7662 68.741C24.867 69.0709 24.6811 69.4206 24.3512 69.5214Z" fill="white"/>
<path fill-rule="evenodd" clip-rule="evenodd" d="M16.4522 62.2616C14.4368 62.8777 13.5561 64.6571 14.2098 66.7953L16.1998 73.3045C16.8535 75.4427 18.5787 76.4254 20.5942 75.8092L27.5019 73.6973C29.5197 73.0804 30.4012 71.3007 29.7475 69.1626L27.7574 62.6534C27.1037 60.5152 25.3777 59.5328 23.3615 60.1492L16.4522 62.2616ZM27.8673 74.8927L20.9596 77.0046C18.2597 77.83 15.8665 76.4895 15.0045 73.67L13.0144 67.1607C12.1524 64.3412 13.3868 61.8916 16.0868 61.0662L22.9961 58.9538C25.6968 58.1281 28.0908 59.4684 28.9528 62.2879L30.9429 68.7971C31.8049 71.6166 30.5697 74.0665 27.8673 74.8927Z" stroke="white"/>
<path fill-rule="evenodd" clip-rule="evenodd" d="M19.191 67.8713C18.7049 68.0199 18.4316 68.5339 18.5797 69.0184C18.7278 69.503 19.2419 69.7763 19.7264 69.6282C20.2101 69.4803 20.4843 68.966 20.3361 68.4815C20.1882 67.9977 19.6742 67.7244 19.191 67.8713ZM20.0919 70.8235C18.9483 71.1732 17.7337 70.5267 17.3843 69.3839C17.0347 68.2403 17.6804 67.026 18.824 66.6764C19.9694 66.327 21.1821 66.9732 21.5315 68.116C21.8809 69.2588 21.2355 70.4739 20.0919 70.8235Z" stroke="white"/>
<path fill-rule="evenodd" clip-rule="evenodd" d="M26.605 68.8323C26.2751 68.9332 25.9255 68.7473 25.8246 68.4174L25.5559 67.5384L21.1186 68.895C20.7887 68.9959 20.4393 68.8108 20.3382 68.48C20.2373 68.1501 20.4232 67.8005 20.7532 67.6996L25.7881 66.1603C26.118 66.0594 26.4677 66.2453 26.5685 66.5752L27.02 68.0519C27.1209 68.3819 26.935 68.7315 26.605 68.8323Z" stroke="white"/>
<path fill-rule="evenodd" clip-rule="evenodd" d="M24.3512 69.5214C24.0213 69.6223 23.6716 69.4364 23.5708 69.1065L23.1193 67.6298C23.0184 67.2998 23.2043 66.9502 23.5343 66.8493C23.8642 66.7485 24.2138 66.9344 24.3147 67.2643L24.7662 68.741C24.867 69.0709 24.6811 69.4206 24.3512 69.5214Z" stroke="white"/>
</g>
<path d="M94.0843 80.5438C94.9077 80.4708 95.7378 80.5862 96.5102 80.8808L98.4936 81.6368C99.2927 81.9415 99.9099 82.5944 100.168 83.4096C100.792 85.377 99.1486 87.3221 97.1048 87.0351L91.872 86.2997C89.8152 86.0104 88.7753 83.663 89.9427 81.9449C90.4158 81.2487 91.1767 80.8017 92.0152 80.7273L94.0843 80.5438Z" fill="white" stroke="white" stroke-width="0.474319"/>
<path d="M96.554 72.289C98.3969 72.548 99.6796 74.2366 99.4238 76.0561C99.1679 77.8754 97.4697 79.1443 95.6269 78.8853C93.7843 78.6261 92.5025 76.9385 92.7579 75.1193C93.0136 73.2999 94.7112 72.0302 96.554 72.289Z" fill="white" stroke="white" stroke-width="0.474319"/>
<path d="M100.365 83.247V83.247C100.103 82.4204 99.4781 81.7586 98.6678 81.4496L96.5943 80.6589C95.7882 80.3516 94.9229 80.2315 94.0636 80.3076L91.9942 80.4911C91.0848 80.5718 90.2597 81.0566 89.7466 81.8117L88.9009 83.0564C88.0245 84.3461 88.8053 86.1077 90.3494 86.3247V86.3247M100.78 84.5553V84.5553C101.278 86.125 99.9667 87.6764 98.336 87.4472L93.7716 86.8057" stroke="#1A1A1A" stroke-width="0.75" stroke-linecap="round"/>
<path d="M98.3384 72.8037C97.8495 72.4151 97.2524 72.1475 96.5874 72.054C94.6169 71.7771 92.7972 73.1345 92.523 75.0859C92.2487 77.0372 93.6238 78.8436 95.5943 79.1205C97.5648 79.3975 99.3845 78.0401 99.6587 76.0887C99.7043 75.7642 99.7043 75.4436 99.6635 75.1335" stroke="#1A1A1A" stroke-width="0.75" stroke-linecap="round"/>
<path d="M19.0931 127.816C19.2676 127.602 19.2356 127.287 19.0216 127.112C18.8076 126.938 18.4926 126.97 18.3181 127.184L18.7056 127.5L19.0931 127.816ZM18.7056 150.924L18.5695 150.442L18.7056 150.924ZM179.043 66.7929C179.247 66.6067 179.261 66.2905 179.075 66.0865C178.889 65.8825 178.573 65.8681 178.369 66.0542L178.706 66.4235L179.043 66.7929ZM158.631 54.051C158.383 54.1725 158.28 54.472 158.402 54.72C158.523 54.968 158.823 55.0705 159.071 54.949L158.851 54.5L158.631 54.051ZM45.88 142.36C46.1388 142.263 46.2705 141.975 46.1742 141.717C46.0779 141.458 45.7901 141.326 45.5312 141.422L45.7056 141.891L45.88 142.36ZM83.9965 125.424C83.7457 125.54 83.6359 125.836 83.7514 126.087C83.8669 126.338 84.1639 126.448 84.4147 126.332L84.2056 125.878L83.9965 125.424ZM68.2056 132.943L68.4004 133.403C68.6537 133.296 68.7729 133.004 68.6673 132.751C68.5616 132.497 68.2708 132.376 68.0163 132.48L68.2056 132.943ZM55.7056 138.055L55.5163 137.592C55.2618 137.696 55.1391 137.986 55.2417 138.241C55.3442 138.497 55.6335 138.621 55.8893 138.52L55.7056 138.055ZM174.203 70.4236L173.876 70.0455L174.203 70.4236ZM185.745 59.0685C185.549 59.2629 185.547 59.5794 185.742 59.7756C185.936 59.9717 186.253 59.9731 186.449 59.7787L186.097 59.4236L185.745 59.0685ZM178.524 45.7629C178.267 45.8632 178.139 46.153 178.24 46.4103C178.34 46.6676 178.63 46.7949 178.887 46.6946L178.706 46.2287L178.524 45.7629ZM170.408 50.241C170.66 50.1292 170.775 49.8339 170.663 49.5814C170.551 49.3288 170.256 49.2148 170.003 49.3265L170.206 49.7837L170.408 50.241ZM18.7056 127.5L18.3181 127.184C16.1028 129.901 13.6621 133.109 11.5791 136.301C9.50149 139.484 7.75747 142.686 6.96347 145.383C6.56661 146.731 6.39476 147.994 6.56619 149.083C6.7407 150.192 7.27264 151.119 8.25181 151.74C9.21052 152.349 10.5448 152.63 12.2699 152.584C14.0001 152.538 16.1695 152.161 18.8418 151.405L18.7056 150.924L18.5695 150.442C15.9418 151.186 13.8601 151.541 12.2432 151.584C10.6214 151.628 9.51269 151.356 8.78754 150.896C8.08286 150.449 7.69006 149.792 7.55403 148.928C7.41491 148.044 7.54671 146.943 7.92277 145.665C8.67461 143.111 10.3535 140.009 12.4165 136.847C14.4742 133.694 16.8918 130.516 19.0931 127.816L18.7056 127.5ZM18.7056 150.924L18.8418 151.405C25.1288 149.625 34.5217 146.586 45.88 142.36L45.7056 141.891L45.5312 141.422C34.1925 145.641 24.8255 148.672 18.5695 150.442L18.7056 150.924ZM55.7056 138.055L55.8893 138.52C59.8994 136.936 64.0827 135.23 68.4004 133.403L68.2056 132.943L68.0108 132.482C63.7007 134.305 59.5248 136.009 55.5219 137.59L55.7056 138.055ZM68.2056 132.943L68.0163 132.48L55.5163 137.592L55.7056 138.055L55.8949 138.518L68.3949 133.405L68.2056 132.943ZM84.2056 125.878L84.4147 126.332C114.281 112.581 147.905 93.8437 174.531 70.8017L174.203 70.4236L173.876 70.0455C147.351 93.001 113.82 111.692 83.9965 125.424L84.2056 125.878ZM174.203 70.4236L174.531 70.8017C176.058 69.4796 177.563 68.1433 179.043 66.7929L178.706 66.4235L178.369 66.0542C176.896 67.3985 175.397 68.729 173.876 70.0455L174.203 70.4236ZM186.097 59.4236L186.449 59.7787C191.733 54.5413 195.001 50.6534 196.648 47.8646C197.468 46.4752 197.917 45.308 197.975 44.3524C198.037 43.3546 197.668 42.5793 196.9 42.0947C196.18 41.6406 195.169 41.4802 194.002 41.5019C192.82 41.5239 191.406 41.7346 189.823 42.0912C186.656 42.8048 182.743 44.1187 178.524 45.7629L178.706 46.2287L178.887 46.6946C183.088 45.0575 186.947 43.7642 190.043 43.0667C191.592 42.7178 192.932 42.522 194.02 42.5017C195.122 42.4812 195.895 42.6429 196.366 42.9404C196.789 43.2074 197.019 43.6131 196.977 44.2912C196.933 45.0115 196.579 46.0149 195.787 47.3562C194.209 50.0288 191.018 53.8423 185.745 59.0685L186.097 59.4236ZM170.206 49.7837L170.003 49.3265C168.155 50.1444 166.212 50.8862 164.274 51.6457C162.341 52.4029 160.415 53.1768 158.631 54.051L158.851 54.5L159.071 54.949C160.815 54.0947 162.706 53.3339 164.638 52.5768C166.565 51.8222 168.535 51.0701 170.408 50.241L170.206 49.7837Z" fill="#1A1A1A"/>
<defs>
<clipPath id="clip0_2077_2676">
<rect width="32" height="32" fill="white" transform="translate(2 57.356) rotate(-17)"/>
</clipPath>
</defs>
</svg>
