<svg width="24" height="25" viewBox="0 0 24 25" fill="none" xmlns="http://www.w3.org/2000/svg">
<g clip-path="url(#clip0_5458_163629)">
<path d="M23.5858 12.7065C23.5858 10.4853 22.9494 8.41272 21.8489 6.6612M17.5405 2.6522C15.9495 1.80638 14.134 1.32715 12.2065 1.32715C5.92184 1.32715 0.827148 6.42184 0.827148 12.7065C0.827148 18.9911 5.92184 24.0858 12.2065 24.0858C17.5088 24.0858 21.964 20.4593 23.2273 15.5513" stroke="#414562" stroke-linecap="round"/>
<ellipse cx="12.2474" cy="12.7474" rx="10.5931" ry="10.5931" fill="url(#paint0_linear_5458_163629)"/>
<path d="M12.4134 22.712C12.4134 23.1508 12.0572 23.5096 11.6196 23.4767C9.66406 23.3298 7.78189 22.6422 6.18694 21.4834C4.59199 20.3246 3.35642 18.747 2.61238 16.9326C2.44591 16.5266 2.67707 16.0769 3.09437 15.9414C3.51168 15.8058 3.95665 16.0359 4.12848 16.4397C4.76522 17.9357 5.79753 19.2364 7.12091 20.1979C8.4443 21.1594 10.0003 21.7393 11.6199 21.8825C12.057 21.9212 12.4134 22.2733 12.4134 22.712Z" fill="url(#paint1_linear_5458_163629)"/>
<path d="M13.5551 3.18181C13.6062 2.74602 14.0018 2.43115 14.4325 2.51477C15.743 2.76918 16.9961 3.26952 18.1245 3.99177C19.2528 4.71402 20.2319 5.64241 21.0117 6.72595C21.268 7.08209 21.1477 7.57316 20.7734 7.80206C20.399 8.03096 19.9128 7.91057 19.6518 7.55785C19.0008 6.67806 18.1934 5.92248 17.2679 5.33006C16.3423 4.73765 15.3181 4.32088 14.2465 4.0981C13.8169 4.00879 13.504 3.61761 13.5551 3.18181Z" fill="#007E45"/>
<line x1="6.49429" y1="13.04" x2="10.1371" y2="16.6829" stroke="white" stroke-width="2" stroke-linecap="round"/>
<line x1="10.1387" y1="16.6815" x2="17.5743" y2="9.24589" stroke="white" stroke-width="2" stroke-linecap="round"/>
</g>
<defs>
<linearGradient id="paint0_linear_5458_163629" x1="1.6543" y1="12.7474" x2="22.8405" y2="12.7474" gradientUnits="userSpaceOnUse">
<stop stop-color="#007E45"/>
<stop offset="1" stop-color="#007E45"/>
</linearGradient>
<linearGradient id="paint1_linear_5458_163629" x1="9.5961" y1="0.690604" x2="18.3334" y2="28.2006" gradientUnits="userSpaceOnUse">
<stop stop-color="#007E45"/>
<stop offset="1" stop-color="#007E45"/>
</linearGradient>
<clipPath id="clip0_5458_163629">
<rect width="24" height="24" fill="white" transform="translate(0 0.5)"/>
</clipPath>
</defs>
</svg>
