<svg width="32" height="32" viewBox="0 0 32 32" fill="none" xmlns="http://www.w3.org/2000/svg">
<path d="M31.4482 16.2758C31.4482 13.3143 30.5997 10.5509 29.1325 8.21549M23.3879 2.87017C21.2666 1.74241 18.8458 1.10342 16.2758 1.10342C7.89631 1.10342 1.10339 7.89634 1.10339 16.2758C1.10339 24.6553 7.89631 31.4483 16.2758 31.4483C23.3455 31.4483 29.2859 26.6129 30.9702 20.0689" stroke="#1A1A1A" stroke-linecap="round"/>
<ellipse cx="16.331" cy="16.331" rx="14.1241" ry="14.1241" fill="#B3D9C8"/>
<path d="M16.5516 29.6165C16.5516 30.2016 16.0767 30.68 15.4933 30.6362C12.8858 30.4403 10.3763 29.5235 8.24966 27.9784C6.12306 26.4333 4.47563 24.3299 3.48358 21.9106C3.26161 21.3693 3.56983 20.7698 4.12624 20.589C4.68264 20.4082 5.27593 20.7151 5.50505 21.2534C6.35404 23.2481 7.73044 24.9824 9.49496 26.2644C11.2595 27.5464 13.3342 28.3195 15.4936 28.5105C16.0764 28.5621 16.5516 29.0315 16.5516 29.6165Z" fill="#62AE8B"/>
<path d="M18.0736 3.57581C18.1417 2.99475 18.6692 2.57493 19.2435 2.68643C20.9908 3.02564 22.6616 3.69276 24.1661 4.65575C25.6706 5.61875 26.976 6.85661 28.0157 8.30133C28.3575 8.77618 28.1971 9.43094 27.698 9.73615C27.1988 10.0413 26.5505 9.88082 26.2025 9.41053C25.3345 8.23748 24.258 7.23003 23.0239 6.44015C21.7899 5.65026 20.4242 5.09457 18.9955 4.79753C18.4227 4.67844 18.0054 4.15687 18.0736 3.57581Z" fill="#F2F9F6"/>
<line x1="8.18765" y1="16.7206" x2="13.5161" y2="22.049" stroke="white" stroke-width="2" stroke-linecap="round"/>
<line x1="13.5184" y1="22.0481" x2="23.904" y2="11.6626" stroke="white" stroke-width="2" stroke-linecap="round"/>
</svg>
