<svg width="200" height="200" viewBox="0 0 200 200" fill="none" xmlns="http://www.w3.org/2000/svg">
<path fill-rule="evenodd" clip-rule="evenodd" d="M102.723 0.0616752C140.076 1.00929 175.55 19.937 189.041 57.6938C205.301 103.204 206.867 160.396 170.056 188.511C134.233 215.873 88.9702 189.388 53.8869 160.924C20.8873 134.15 -9.88174 95.4084 3.00089 52.9742C15.7882 10.8539 61.8151 -0.976115 102.723 0.0616752Z" fill="#F5F5F5"/>
<circle cx="99" cy="87" r="54" fill="white"/>
<path d="M153 87C153 116.823 128.823 141 99 141C69.1766 141 45 116.823 45 87C45 57.1766 69.1766 33 99 33C122.512 33 142.514 48.0265 149.927 69" stroke="#2C304E"/>
<path d="M54.3478 99.0004C53.3232 95.1755 52.7769 91.155 52.7769 87.0069C52.7769 61.475 73.4745 40.7773 99.0064 40.7773C124.538 40.7773 145.236 61.475 145.236 87.0069C145.236 112.539 124.538 133.236 99.0064 133.236C82.8964 133.236 68.7111 124.996 60.4355 112.5" stroke="#2C304E" stroke-linecap="round"/>
<circle opacity="0.4" cx="99" cy="87" r="45" fill="#ECECEE"/>
<path d="M136.416 89.5C138.395 89.5 140.015 87.8927 139.852 85.9201C139.482 81.434 138.417 77.0253 136.689 72.8533C134.503 67.5756 131.298 62.7802 127.259 58.7409C123.22 54.7015 118.424 51.4973 113.147 49.3112C108.975 47.5831 104.566 46.518 100.08 46.1476C98.1073 45.9847 96.5 47.6046 96.5 49.584C96.5 51.5633 98.1084 53.1496 100.078 53.3445C103.622 53.6953 107.102 54.5658 110.404 55.9335C114.812 57.7594 118.817 60.4356 122.191 63.8093C125.564 67.1831 128.241 71.1883 130.066 75.5963C131.434 78.8984 132.305 82.378 132.655 85.9218C132.85 87.8916 134.437 89.5 136.416 89.5Z" fill="white"/>
<rect x="135.137" y="127.188" width="5.91282" height="16.2821" transform="rotate(-45 135.137 127.188)" stroke="#2C304E"/>
<path d="M150.128 135.345L147.073 138.4C145.723 139.75 145.723 141.938 147.073 143.288L157.676 153.891L164.378 160.593L169.342 165.556C170.692 166.906 172.88 166.906 174.23 165.556L177.285 162.501C178.635 161.151 178.635 158.963 177.285 157.613L155.016 135.345C153.667 133.995 151.478 133.995 150.128 135.345Z" fill="white"/>
<path d="M147.009 138.334L150.064 135.279C151.218 134.125 153.09 134.125 154.245 135.279L176.931 157.966C178.086 159.121 178.086 160.992 176.931 162.147L173.876 165.202C172.722 166.357 170.85 166.357 169.695 165.202L164.618 160.124L157.812 153.319L147.009 142.515C145.854 141.361 145.854 139.489 147.009 138.334Z" stroke="#2C304E" stroke-linecap="round"/>
<ellipse cx="106" cy="187" rx="46" ry="4" fill="#DFDFE2"/>
<g clip-path="url(#clip0_3130_241073)">
<circle cx="53.935" cy="61.935" r="14.935" fill="white"/>
<path d="M68.9333 61.9997C68.9333 59.0848 68.0981 56.365 66.654 54.0664M61 48.8053C58.9121 47.6953 56.5295 47.0664 54 47.0664C45.7525 47.0664 39.0667 53.7523 39.0667 61.9997C39.0667 70.2472 45.7525 76.9331 54 76.9331C60.9583 76.9331 66.8051 72.1739 68.4628 65.7331" stroke="#2C304E" stroke-linecap="round"/>
<ellipse cx="54" cy="62.0005" rx="13.8667" ry="13.8667" fill="url(#paint0_linear_3130_241073)"/>
<path d="M54 74.8271C54 75.4015 53.5337 75.8712 52.9609 75.8281C50.401 75.6358 47.9372 74.7357 45.8493 73.2188C43.7615 71.7019 42.1441 69.6368 41.1701 67.2617C40.9522 66.7302 41.2548 66.1416 41.8011 65.9641C42.3473 65.7866 42.9298 66.0879 43.1548 66.6164C43.9883 68.5748 45.3396 70.2774 47.0719 71.5361C48.8043 72.7947 50.8412 73.5537 52.9613 73.7413C53.5334 73.7919 54 74.2527 54 74.8271Z" fill="url(#paint1_linear_3130_241073)"/>
<path d="M55.4941 49.2602C55.561 48.6897 56.0788 48.2776 56.6427 48.387C58.3582 48.72 59.9985 49.375 61.4755 50.3204C62.9526 51.2659 64.2343 52.4812 65.255 53.8996C65.5905 54.3658 65.4331 55.0086 64.9431 55.3082C64.453 55.6079 63.8165 55.4503 63.4748 54.9886C62.6226 53.8369 61.5658 52.8478 60.3542 52.0723C59.1427 51.2968 57.8019 50.7513 56.3992 50.4596C55.8369 50.3427 55.4272 49.8307 55.4941 49.2602Z" fill="#007E45"/>
<path d="M53.1751 65.6534C53.0376 65.6534 52.9261 65.542 52.9261 65.4045C52.9356 64.5001 53.0303 63.9441 53.2102 63.4091C53.3902 62.8741 53.6458 62.4408 53.9773 62.1094C54.3087 61.7779 54.7064 61.4725 55.1705 61.1932C55.4498 61.0227 55.7008 60.8215 55.9233 60.5895C56.1458 60.3527 56.321 60.0805 56.4489 59.7727C56.5814 59.465 56.6477 59.1241 56.6477 58.75C56.6477 58.286 56.5388 57.8835 56.321 57.5426C56.1032 57.2017 55.812 56.9389 55.4474 56.7543C55.0829 56.5696 54.678 56.4773 54.233 56.4773C53.8447 56.4773 53.4706 56.5578 53.1108 56.7188C52.7509 56.8797 52.4503 57.133 52.2088 57.4787C52.1004 57.6338 52.0126 57.8104 51.9452 58.0084C51.7923 58.458 51.421 58.8352 50.9462 58.8352C50.431 58.8352 50.0079 58.3997 50.1335 57.9C50.2383 57.4827 50.4022 57.1055 50.625 56.7685C51.0085 56.1955 51.5128 55.7576 52.1378 55.4545C52.7675 55.1515 53.4659 55 54.233 55C55.0663 55 55.7907 55.1657 56.4063 55.4972C57.0265 55.8286 57.5047 56.2831 57.8409 56.8608C58.1818 57.4384 58.3523 58.0966 58.3523 58.8352C58.3523 59.3561 58.2718 59.8272 58.1108 60.2486C57.9545 60.67 57.7273 61.0464 57.429 61.3778C57.1354 61.7093 56.7803 62.0028 56.3636 62.2585C55.947 62.5189 55.6132 62.7936 55.3622 63.0824C55.1113 63.3665 54.929 63.705 54.8153 64.098C54.7017 64.491 54.6402 64.8174 54.6307 65.4045C54.6307 65.542 54.5192 65.6534 54.3818 65.6534H53.1751Z" fill="white"/>
<circle cx="53.7046" cy="68.2441" r="1" fill="white"/>
</g>
<path d="M72.5642 25.9316C74.5749 25.0554 76.6054 24.2872 78.6492 23.6245M137.69 33.0019C129.34 26.9569 119.671 22.9413 109.516 21.2818M95.8278 20.4909C92.5526 20.6445 89.2657 21.0449 85.9928 21.7024" stroke="#2C304E" stroke-linecap="round"/>
<path d="M100 154C97.8067 154 95.6384 153.893 93.5 153.684M76.5 149.694C79.5638 150.861 82.737 151.807 86 152.512" stroke="#2C304E" stroke-linecap="round"/>
<defs>
<linearGradient id="paint0_linear_3130_241073" x1="40.1333" y1="62.0005" x2="67.8666" y2="62.0005" gradientUnits="userSpaceOnUse">
<stop stop-color="#007E45"/>
<stop offset="1" stop-color="#007E45"/>
</linearGradient>
<linearGradient id="paint1_linear_3130_241073" x1="50.312" y1="46.0005" x2="61.7494" y2="82.0118" gradientUnits="userSpaceOnUse">
<stop stop-color="#007E45"/>
<stop offset="1" stop-color="#007E45"/>
</linearGradient>
<clipPath id="clip0_3130_241073">
<rect width="32" height="32" fill="white" transform="translate(38 46)"/>
</clipPath>
</defs>
</svg>
