<svg width="100" height="170" fill="none" xmlns="http://www.w3.org/2000/svg"><path d="m50.15 3-.3 53" stroke="#F2F5F6"/><g clip-path="url(#Vertical Divider__a)"><path d="M79.97 87.38c0 17.299-14.023 31.323-31.323 31.323-17.299 0-31.323-14.024-31.323-31.323 0-17.3 14.024-31.323 31.323-31.323 17.3 0 31.323 14.024 31.323 31.323Z" fill="#F2F5F6"/><path d="M38.477 74.564a1.366 1.366 0 0 0-1.634 1.031l-.119.526-6.1-1.38a1.367 1.367 0 0 0-1.03.177l-2.278 1.438c-.306.193-.523.5-.603.853l-1.682 7.432c-.08.353-.016.723.177 1.03l1.438 2.278c.193.306.5.523.853.603l6.1 1.38-.119.526a1.365 1.365 0 1 0 2.664.603l3.363-14.863a1.366 1.366 0 0 0-1.03-1.634Z" fill="#B3D9C8"/><path d="M23.444 79.283a18.45 18.45 0 0 0-14.01 2.407 18.45 18.45 0 0 0-8.202 11.608 18.45 18.45 0 0 0 2.407 14.007c.202.319.513.526.854.603a1.366 1.366 0 0 0 1.456-2.06A15.738 15.738 0 0 1 3.896 93.9a15.737 15.737 0 0 1 6.996-9.9 15.735 15.735 0 0 1 11.949-2.054 1.365 1.365 0 0 0 .603-2.663Z" fill="#62AE8B"/><path d="m44.785 87.709-5.115-1.157a1.365 1.365 0 1 0-.602 2.663l5.114 1.158a1.366 1.366 0 0 0 .603-2.664Zm-4.036-5.925 5.115 1.157a1.365 1.365 0 1 0 .602-2.663l-5.114-1.157a1.365 1.365 0 1 0-.603 2.663Z" fill="#060606"/><path d="M57.31 99.319c.743.13 1.45-.366 1.582-1.109l.093-.531 6.16 1.084c.356.062.723-.02 1.02-.227l2.206-1.547c.297-.208.499-.525.561-.882l1.32-7.504a1.365 1.365 0 0 0-.227-1.02l-1.546-2.206a1.368 1.368 0 0 0-.881-.561l-6.16-1.083.093-.532a1.365 1.365 0 1 0-2.69-.473l-2.639 15.009a1.365 1.365 0 0 0 1.108 1.582Z" fill="#B3D9C8"/><path d="M72.097 93.878c4.886.86 9.813-.235 13.876-3.082a18.45 18.45 0 0 0 7.632-11.99 18.45 18.45 0 0 0-3.083-13.876 1.362 1.362 0 0 0-1.902-.335 1.366 1.366 0 0 0-.335 1.902 15.738 15.738 0 0 1 2.63 11.835 15.738 15.738 0 0 1-6.51 10.227 15.736 15.736 0 0 1-11.835 2.63 1.365 1.365 0 1 0-.473 2.69Z" fill="#62AE8B"/><path d="m58.9 68.2 2.967-4.325c.427-.621.469-1.334.094-1.591-.375-.257-1.025.039-1.451.66l-2.967 4.325c-.426.622-.469 1.335-.094 1.592.375.257 1.025-.04 1.452-.661Zm5.137 7.17 2.88-1.604c.415-.23.571-.739.35-1.136-.22-.397-.736-.532-1.15-.301l-2.88 1.602c-.414.23-.571.74-.35 1.137.221.397.736.532 1.15.301Zm-14.023-8.275-.442-3.266c-.063-.47-.48-.801-.93-.74-.45.06-.764.49-.7.96l.441 3.267c.064.47.48.801.93.74.451-.06.764-.49.7-.96ZM38.52 105.981l-2.966 4.324c-.427.622-.469 1.335-.094 1.592.375.257 1.025-.039 1.45-.661l2.968-4.324c.426-.622.469-1.335.094-1.592-.375-.257-1.025.038-1.451.661Zm-5.24-7.17-2.88 1.603c-.415.231-.572.739-.35 1.136.22.398.735.533 1.15.302l2.88-1.603c.414-.23.57-.739.35-1.136-.221-.397-.736-.532-1.15-.302Zm13.813 9.111.442 3.267c.064.469.48.801.93.74.451-.061.765-.491.701-.961l-.442-3.266c-.063-.47-.48-.802-.93-.741-.45.061-.764.491-.7.961Z" fill="#B3D9C8"/></g><path opacity=".9" d="M50 170v-51.239" stroke="#F2F5F6"/><defs><clipPath id="Vertical Divider__a"><path fill="#fff" transform="translate(0 56)" d="M0 0h100v62.761H0z"/></clipPath></defs></svg>