<svg width="116" height="240" viewBox="0 0 116 240" fill="none" xmlns="http://www.w3.org/2000/svg">
<rect width="116" height="240" fill="white"/>
<path d="M58 0L58.0001 132.999" stroke="#F5F5F5"/>
<g clip-path="url(#clip0_2615_346097)">
<path d="M87.9703 120C87.9703 137.299 73.9466 151.323 56.6473 151.323C39.348 151.323 25.3242 137.299 25.3242 120C25.3242 102.701 39.348 88.6768 56.6473 88.6768C73.9466 88.6768 87.9703 102.701 87.9703 120Z" fill="#F2F2F2"/>
<path d="M46.4766 107.184C45.7408 107.017 45.0096 107.479 44.8432 108.214L44.7244 108.74L38.6242 107.36C38.2712 107.28 37.9004 107.344 37.594 107.537L35.3158 108.975C35.0098 109.168 34.7928 109.475 34.7128 109.829L33.0314 117.26C32.9516 117.613 33.0152 117.983 33.2084 118.29L34.6457 120.568C34.8394 120.874 35.1463 121.092 35.4995 121.172L41.5995 122.552L41.4801 123.078C41.3136 123.813 41.775 124.544 42.5107 124.711C43.2465 124.877 43.9775 124.416 44.144 123.681L47.507 108.817C47.6733 108.081 47.2123 107.35 46.4766 107.184Z" fill="#007E45"/>
<path d="M31.4436 111.902C26.6057 110.808 21.631 111.662 17.4349 114.31C13.2398 116.957 10.3269 121.079 9.23229 125.917C8.1379 130.755 8.99236 135.73 11.6393 139.924C11.8405 140.244 12.1519 140.451 12.4931 140.528C12.8339 140.605 13.2042 140.552 13.5227 140.351C14.1605 139.949 14.3515 139.106 13.9493 138.468C11.6916 134.889 10.9622 130.646 11.8957 126.52C12.8295 122.393 15.3143 118.877 18.8923 116.619C22.4711 114.361 26.7141 113.632 30.8408 114.566C31.5762 114.732 32.3074 114.271 32.4738 113.535C32.6403 112.8 32.179 112.068 31.4436 111.902Z" fill="#007E45"/>
<path d="M52.7849 120.328L47.6701 119.171C46.9343 119.005 46.2031 119.466 46.0367 120.202C45.8702 120.937 46.3317 121.668 47.0675 121.835L52.1823 122.992C52.9176 123.159 53.6488 122.697 53.8153 121.962C53.9818 121.226 53.5204 120.495 52.7849 120.328Z" fill="#060606"/>
<path d="M48.7489 114.404L53.8637 115.561C54.5992 115.727 55.3302 115.266 55.4967 114.531C55.6632 113.795 55.2018 113.064 54.4663 112.897L49.3515 111.74C48.6157 111.573 47.8845 112.035 47.7181 112.771C47.5516 113.506 48.0131 114.237 48.7489 114.404Z" fill="#060606"/>
<path d="M65.3101 131.938C66.0532 132.069 66.7608 131.573 66.8916 130.83L66.985 130.299L73.1447 131.382C73.5013 131.445 73.8682 131.363 74.1651 131.155L76.3712 129.609C76.6676 129.401 76.8695 129.084 76.9323 128.727L78.2521 121.223C78.3147 120.867 78.2333 120.5 78.0254 120.203L76.4794 117.997C76.2713 117.7 75.9542 117.498 75.5977 117.435L69.4382 116.352L69.5315 115.821C69.6622 115.078 69.1662 114.37 68.4231 114.24C67.6803 114.109 66.9726 114.605 66.8417 115.348L64.2021 130.356C64.0713 131.099 64.5674 131.808 65.3101 131.938Z" fill="#007E45"/>
<path d="M80.0973 126.498C84.9826 127.357 89.9096 126.263 93.9728 123.416C98.0349 120.569 100.745 116.31 101.604 111.425C102.464 106.54 101.369 101.612 98.5223 97.55C98.3059 97.2409 97.9847 97.0491 97.6404 96.9885C97.2964 96.928 96.9289 96.9987 96.6203 97.2149C96.0028 97.6476 95.8529 98.4993 96.2854 99.1169C98.7136 102.582 99.648 106.785 98.9151 110.951C98.182 115.119 95.87 118.751 92.4053 121.179C88.9402 123.608 84.7373 124.541 80.5701 123.808C79.8275 123.678 79.1195 124.174 78.9889 124.917C78.8581 125.659 79.3548 126.367 80.0973 126.498Z" fill="#007E45"/>
<path d="M66.9006 100.819L69.8671 96.4947C70.2934 95.873 70.3357 95.1604 69.961 94.9033C69.5859 94.6462 68.9361 94.942 68.5095 95.5638L65.5432 99.8882C65.1165 100.51 65.0742 101.223 65.4491 101.48C65.824 101.737 66.4738 101.441 66.9006 100.819Z" fill="#007E45"/>
<path d="M72.0374 107.989L74.9177 106.386C75.3317 106.156 75.4882 105.647 75.2673 105.25C75.0461 104.853 74.5315 104.718 74.1173 104.948L71.2372 106.551C70.8227 106.782 70.666 107.29 70.8872 107.688C71.1081 108.085 71.6231 108.22 72.0374 107.989Z" fill="#007E45"/>
<path d="M58.0139 99.7146L57.5723 96.4483C57.5087 95.9786 57.0924 95.647 56.642 95.7079C56.1913 95.7688 55.8779 96.1991 55.9415 96.6688L56.3832 99.9351C56.4468 100.405 56.8631 100.737 57.3137 100.675C57.7641 100.615 58.0775 100.184 58.0139 99.7146Z" fill="#007E45"/>
<path d="M46.5207 138.6L43.5539 142.925C43.1274 143.547 43.0853 144.259 43.46 144.516C43.8351 144.774 44.4847 144.478 44.9111 143.856L47.8778 139.531C48.3046 138.909 48.3468 138.197 47.9717 137.939C47.597 137.682 46.9475 137.978 46.5207 138.6Z" fill="#007E45"/>
<path d="M41.2794 131.431L38.3991 133.034C37.9849 133.264 37.8282 133.773 38.0493 134.17C38.2704 134.567 38.7853 134.702 39.1993 134.472L42.0796 132.869C42.4938 132.639 42.6507 132.13 42.4296 131.732C42.2085 131.335 41.6936 131.2 41.2794 131.431Z" fill="#007E45"/>
<path d="M55.0934 140.542L55.535 143.808C55.5986 144.278 56.0152 144.609 56.4656 144.548C56.9162 144.487 57.2296 144.058 57.166 143.588L56.7244 140.321C56.6608 139.851 56.2444 139.52 55.7938 139.581C55.3434 139.642 55.0298 140.072 55.0934 140.542Z" fill="#007E45"/>
</g>
<path opacity="0.9" d="M58 240L58 151.381" stroke="#F5F5F5"/>
<defs>
<clipPath id="clip0_2615_346097">
<rect width="100" height="62.7612" fill="white" transform="translate(8 88.6196)"/>
</clipPath>
</defs>
</svg>
