<svg width="200" height="200" viewBox="0 0 200 200" fill="none" xmlns="http://www.w3.org/2000/svg">
<path fill-rule="evenodd" clip-rule="evenodd" d="M97.0948 199.935C135.904 200.441 182.093 199.105 195.693 153.426C210.503 103.685 185.093 51.3033 150.353 21.0552C118.139 -6.99443 75.9751 -7.13972 44.005 21.3475C10.8165 50.9205 -9.64504 103.044 4.59242 150.937C17.538 194.485 60.1025 199.453 97.0948 199.935Z" fill="#F5F5F5"/>
<ellipse cx="100" cy="187" rx="60" ry="4" fill="#DFDFE2"/>
<path d="M59.8041 158.194L127.142 167.657C135.893 168.887 143.984 162.79 145.213 154.04L146.953 141.662L153.912 92.1481L154.608 87.1968L155.303 82.2455L156.556 73.333C159.339 53.5277 164.443 46.6712 170.286 47.4924L77.2007 34.4101C68.4502 33.1803 60.3595 39.2771 59.1297 48.0276L58.2251 54.4644L46.1866 140.123C44.9568 148.873 51.0535 156.964 59.8041 158.194Z" fill="white"/>
<path d="M174.427 72.7592C177.14 64.0086 179.087 48.7291 170.286 47.4922C161.853 45.55 157.894 61.6176 156.749 71.4455C156.626 72.5021 157.382 73.4489 158.435 73.597L170.298 75.2642C172.116 75.5196 173.883 74.5123 174.427 72.7592Z" fill="white"/>
<path d="M59.1297 48.0276V48.0276C60.3595 39.2771 68.4502 33.1803 77.2007 34.4101L170.286 47.4924M58.2251 54.4644L46.1866 140.123C44.9568 148.873 51.0535 156.964 59.8041 158.194L127.142 167.657C135.893 168.887 143.984 162.79 145.213 154.04L146.953 141.662M149.249 125.322L153.912 92.1481L154.608 87.1968L155.303 82.2455L156.556 73.333C159.339 53.5277 164.938 46.7408 170.781 47.562C179.582 48.7988 177.635 64.0783 174.922 72.829C174.378 74.5821 172.611 75.5894 170.793 75.3339L157.051 73.4026" stroke="#2C304E" stroke-linecap="round"/>
<path d="M76.9902 61.6504L105.708 65.6864" stroke="#ECECEE" stroke-width="4" stroke-linecap="round"/>
<path d="M75.459 72.5435L115.07 78.1104" stroke="#ECECEE" stroke-width="4" stroke-linecap="round"/>
<path d="M73.9287 83.4363L113.539 89.0032" stroke="#ECECEE" stroke-width="4" stroke-linecap="round"/>
<path d="M72.3975 94.3293L118.445 100.801M131.814 102.68L125.872 101.845" stroke="#ECECEE" stroke-width="4" stroke-linecap="round"/>
<path d="M70.8662 105.222L116.914 111.694M130.282 113.573L124.341 112.738" stroke="#ECECEE" stroke-width="4" stroke-linecap="round"/>
<path d="M56.8341 157.776C33.436 154.488 29.6712 143.798 30.9924 136.902C31.3248 135.168 33.0879 134.242 34.8372 134.488L98.3607 143.416C101.014 143.789 102.567 146.699 102.555 149.378C102.525 156.139 107.791 164.938 128.629 167.866L56.8341 157.776Z" fill="white" stroke="#2C304E" stroke-linejoin="round"/>
<g clip-path="url(#clip0_5456_169938)">
<circle cx="55.935" cy="60.935" r="14.935" fill="white"/>
<path d="M70.9331 61C70.9331 58.0851 70.0979 55.3652 68.6538 53.0667M62.9997 47.8056C60.9118 46.6956 58.5292 46.0667 55.9997 46.0667C47.7523 46.0667 41.0664 52.7525 41.0664 61C41.0664 69.2474 47.7523 75.9333 55.9997 75.9333C62.9581 75.9333 68.8048 71.1742 70.4626 64.7333" stroke="#2C304E" stroke-linecap="round"/>
<ellipse cx="56.0004" cy="61" rx="13.8667" ry="13.8667" fill="url(#paint0_linear_5456_169938)"/>
<path d="M56.0004 73.8266C56.0004 74.401 55.5341 74.8707 54.9614 74.8277C52.4015 74.6353 49.9377 73.7352 47.8498 72.2183C45.762 70.7014 44.1446 68.6363 43.1706 66.2612C42.9527 65.7297 43.2553 65.1411 43.8016 64.9636C44.3478 64.7861 44.9303 65.0874 45.1552 65.6159C45.9888 67.5743 47.3401 69.277 49.0724 70.5356C50.8048 71.7942 52.8416 72.5532 54.9617 72.7408C55.5339 72.7914 56.0004 73.2523 56.0004 73.8266Z" fill="url(#paint1_linear_5456_169938)"/>
<path d="M57.4936 48.2607C57.5605 47.6902 58.0783 47.278 58.6422 47.3875C60.3577 47.7205 61.998 48.3755 63.475 49.3209C64.9521 50.2664 66.2338 51.4817 67.2545 52.9001C67.59 53.3663 67.4326 54.0091 66.9426 54.3087C66.4525 54.6083 65.816 54.4508 65.4743 53.989C64.6221 52.8374 63.5653 51.8483 62.3537 51.0728C61.1422 50.2973 59.8014 49.7517 58.3987 49.4601C57.8364 49.3432 57.4267 48.8311 57.4936 48.2607Z" fill="#FFC2D6"/>
<path d="M55.1751 64.6534C55.0376 64.6534 54.9261 64.542 54.9261 64.4045C54.9356 63.5001 55.0303 62.9441 55.2102 62.4091C55.3902 61.8741 55.6458 61.4408 55.9773 61.1094C56.3087 60.7779 56.7064 60.4725 57.1705 60.1932C57.4498 60.0227 57.7008 59.8215 57.9233 59.5895C58.1458 59.3527 58.321 59.0805 58.4489 58.7727C58.5814 58.465 58.6477 58.1241 58.6477 57.75C58.6477 57.286 58.5388 56.8835 58.321 56.5426C58.1032 56.2017 57.812 55.9389 57.4474 55.7543C57.0829 55.5696 56.678 55.4773 56.233 55.4773C55.8447 55.4773 55.4706 55.5578 55.1108 55.7188C54.7509 55.8797 54.4503 56.133 54.2088 56.4787C54.1004 56.6338 54.0126 56.8104 53.9452 57.0084C53.7923 57.458 53.421 57.8352 52.9462 57.8352C52.431 57.8352 52.0079 57.3997 52.1335 56.9C52.2383 56.4827 52.4022 56.1055 52.625 55.7685C53.0085 55.1955 53.5128 54.7576 54.1378 54.4545C54.7675 54.1515 55.4659 54 56.233 54C57.0663 54 57.7907 54.1657 58.4063 54.4972C59.0265 54.8286 59.5047 55.2831 59.8409 55.8608C60.1818 56.4384 60.3523 57.0966 60.3523 57.8352C60.3523 58.3561 60.2718 58.8272 60.1108 59.2486C59.9545 59.67 59.7273 60.0464 59.429 60.3778C59.1354 60.7093 58.7803 61.0028 58.3636 61.2585C57.947 61.5189 57.6132 61.7936 57.3622 62.0824C57.1113 62.3665 56.929 62.705 56.8153 63.098C56.7017 63.491 56.6402 63.8174 56.6307 64.4045C56.6307 64.542 56.5192 64.6534 56.3818 64.6534L55.1751 64.6534Z" fill="white"/>
<circle cx="55.7041" cy="67.2444" r="1" fill="white"/>
</g>
<ellipse cx="131.676" cy="114.6" rx="37.6757" ry="37.6" fill="white"/>
<path d="M169.351 114.6C169.351 135.366 152.483 152.2 131.676 152.2C110.868 152.2 94 135.366 94 114.6C94 93.8341 110.868 77 131.676 77C148.08 77 162.035 87.4629 167.207 102.067" stroke="#2C304E"/>
<path d="M100.522 122.956C99.807 120.292 99.4258 117.493 99.4258 114.604C99.4258 96.8267 113.866 82.415 131.68 82.415C149.493 82.415 163.934 96.8267 163.934 114.604C163.934 132.382 149.493 146.794 131.68 146.794C120.44 146.794 110.543 141.056 104.769 132.356" stroke="#2C304E" stroke-linecap="round"/>
<ellipse opacity="0.4" cx="131.676" cy="114.6" rx="31.3964" ry="31.3333" fill="#ECECEE"/>
<path d="M157.781 116.341C159.162 116.341 160.292 115.219 160.178 113.843C159.919 110.721 159.176 107.653 157.971 104.75C156.446 101.075 154.211 97.7358 151.392 94.9232C148.574 92.1106 145.228 89.8795 141.546 88.3574C138.634 87.1535 135.556 86.4117 132.425 86.1541C131.051 86.0411 129.932 87.169 129.932 88.5473C129.932 89.9255 131.052 91.03 132.423 91.1652C134.898 91.4091 137.327 92.0154 139.632 92.9684C142.708 94.2398 145.502 96.1032 147.856 98.4523C150.21 100.801 152.077 103.59 153.351 106.66C154.305 108.957 154.912 111.378 155.157 113.844C155.293 115.218 156.4 116.341 157.781 116.341Z" fill="white"/>
<rect x="0.707817" width="3.81822" height="11.0455" transform="matrix(0.707817 -0.706396 0.707817 0.706396 156.601 143.082)" stroke="#2C304E"/>
<path d="M166.606 149.002L165.957 149.649C164.606 150.998 164.606 153.184 165.957 154.533L172.614 161.176L177.29 165.842L180.011 168.559C181.362 169.907 183.553 169.907 184.904 168.559L185.553 167.911C186.904 166.562 186.904 164.376 185.553 163.028L171.499 149.002C170.148 147.653 167.957 147.653 166.606 149.002Z" fill="white"/>
<path d="M166.019 149.711L166.668 149.064C167.824 147.91 169.698 147.91 170.853 149.064L185.199 163.381C186.355 164.534 186.355 166.404 185.199 167.558L184.55 168.205C183.395 169.359 181.521 169.359 180.365 168.205L177.564 165.41L172.816 160.671L166.019 153.888C164.863 152.735 164.863 150.865 166.019 149.711Z" stroke="#2C304E" stroke-linecap="round"/>
<defs>
<linearGradient id="paint0_linear_5456_169938" x1="42.1338" y1="61" x2="69.8671" y2="61" gradientUnits="userSpaceOnUse">
<stop stop-color="#FF758C"/>
<stop offset="1" stop-color="#FF7EB3"/>
</linearGradient>
<linearGradient id="paint1_linear_5456_169938" x1="52.3125" y1="45" x2="63.7499" y2="81.0113" gradientUnits="userSpaceOnUse">
<stop stop-color="#FF3366"/>
<stop offset="1" stop-color="#FE5196"/>
</linearGradient>
<clipPath id="clip0_5456_169938">
<rect width="32" height="32" fill="white" transform="translate(40 45)"/>
</clipPath>
</defs>
</svg>
