<svg width="200" height="200" fill="none" xmlns="http://www.w3.org/2000/svg"><path fill-rule="evenodd" clip-rule="evenodd" d="M97.095 199.935c38.809.506 84.998-.83 98.598-46.509 14.81-49.741-10.6-102.123-45.34-132.37-32.214-28.05-74.378-28.196-106.348.291-33.189 29.573-53.65 81.697-39.413 129.59 12.946 43.548 55.51 48.516 92.503 48.998Z" fill="#F2F5F6"/><path d="m53.153 148.194 67.338 9.463c8.751 1.23 16.841-4.867 18.071-13.617l1.74-12.378 6.958-49.514.696-4.951.696-4.951 1.253-8.913c2.783-19.805 7.886-26.662 13.73-25.84L70.549 24.41c-8.75-1.23-16.84 4.867-18.07 13.618l-.905 6.436-12.039 85.659c-1.23 8.75 4.867 16.841 13.618 18.071Z" fill="#fff"/><path d="M167.775 62.76c2.714-8.751 4.66-24.03-4.14-25.268-8.433-1.942-12.392 14.126-13.537 23.954-.123 1.056.632 2.003 1.686 2.151l11.863 1.667c1.817.256 3.584-.752 4.128-2.505Z" fill="#fff"/><path d="M52.478 38.028v0c1.23-8.75 9.32-14.848 18.071-13.618l93.086 13.082M51.574 44.464l-12.039 85.659c-1.23 8.75 4.867 16.841 13.618 18.071l67.338 9.463c8.751 1.23 16.841-4.867 18.071-13.617l1.74-12.378m2.296-16.34 4.662-33.174.696-4.951.696-4.951 1.253-8.913c2.783-19.805 8.382-26.592 14.225-25.771 8.8 1.237 6.854 16.516 4.14 25.267-.543 1.753-2.311 2.76-4.128 2.505L150.4 63.403" stroke="#1A1A1A" stroke-linecap="round"/><path d="m68.808 65.543 39.611 5.567M70.823 54.718l28.718 4.036M67.416 75.446l46.048 6.471m13.368 1.88-5.941-.836" stroke="#ECECEE" stroke-width="4" stroke-linecap="round"/><path d="M50.182 147.776c-23.398-3.288-27.163-13.978-25.842-20.874.333-1.734 2.096-2.66 3.845-2.414l63.523 8.928c2.654.373 4.207 3.283 4.195 5.962-.03 6.761 5.236 15.56 26.073 18.488l-71.794-10.09Z" fill="#fff" stroke="#1A1A1A" stroke-linejoin="round"/><g clip-path="url(#Group 35403__a)"><path d="M65.076 58.34a14.862 14.862 0 0 0-1.66-8.085m-5.23-5.682a14.867 14.867 0 0 0-6.846-2.274c-8.223-.637-15.405 5.513-16.041 13.736-.637 8.222 5.513 15.404 13.736 16.041 6.937.537 13.134-3.756 15.284-10.05" stroke="#1A1A1A" stroke-linecap="round"/><circle cx="50.065" cy="57.044" transform="rotate(4.428 50.065 57.044)" fill="#B3D9C8" r="13.867"/><path d="M49.197 69.976c-.044.572-.545 1.005-1.113.918a13.867 13.867 0 0 1-11.094-9.452c-.177-.546.17-1.11.729-1.245.558-.134 1.116.211 1.3.755a11.786 11.786 0 0 0 9.227 7.86c.566.096.996.591.951 1.164Z" fill="#62AE8B"/><path d="M52.66 44.601c.111-.563.66-.934 1.213-.781a13.866 13.866 0 0 1 8.161 6.16c.299.491.092 1.12-.42 1.38-.511.262-1.134.056-1.439-.431a11.787 11.787 0 0 0-6.705-5.062c-.551-.16-.92-.702-.81-1.266Z" fill="#F2F9F6"/></g><path d="M43.893 99.999a.5.5 0 1 0-.089-.996l.044.498.045.498Zm-19.955 10.778-.041.499.04-.499Zm139.669-18.952a.5.5 0 0 0-.388-.922l.194.46.194.462Zm-16.493-9.37a.5.5 0 1 0 .283.96l-.142-.48-.141-.48ZM42.35 111.881a.5.5 0 0 0-.003-1l.002.5v.5Zm38.08-2.252.034.499.007-.001-.04-.498Zm-26.253 1.752-.034-.499a.5.5 0 0 0 .045.998l-.011-.499Zm104.821-18.233-.181-.466.181.466Zm11.581-5.497a.5.5 0 1 0 .425.905l-.213-.453-.212-.452Zm-1.892-9.085a.5.5 0 1 0 .086.996l-.043-.498-.043-.498Zm-4.724 1.71a.5.5 0 0 0-.066-.998l.033.499.033.498ZM43.849 99.5l-.045-.499c-5.69.508-14.949 2.995-20.677 5.534-1.435.636-2.668 1.283-3.575 1.915-.454.316-.84.637-1.13.962-.287.32-.51.677-.582 1.064-.077.413.029.807.303 1.144.259.318.653.569 1.14.773.972.41 2.487.706 4.614.882l.04-.499.042-.498c-2.1-.173-3.486-.46-4.309-.806-.41-.173-.638-.344-.752-.484-.098-.12-.116-.22-.095-.329.025-.135.12-.329.344-.58.22-.247.54-.518.956-.808.833-.58 2.001-1.198 3.409-1.822 5.64-2.5 14.792-4.955 20.36-5.451l-.044-.498Zm-19.911 11.276-.041.499c5.019.413 9.083.63 18.453.605l-.002-.5v-.5c-9.347.025-13.382-.191-18.369-.602l-.041.498Zm30.239.604.011.499c1.682-.039 7.357-.434 13.042-.84 5.7-.406 11.42-.823 13.225-.912l-.025-.499-.024-.5c-1.82.09-7.56.508-13.248.914-5.703.407-11.343.799-12.993.838l.012.5Zm26.253-1.752-.033-.499-26.254 1.752.034.499.033.499 26.254-1.752-.034-.499Zm0 0 .041.498c25.431-2.081 52.772-6.422 78.709-16.513l-.182-.466-.181-.466c-25.81 10.042-53.045 14.371-78.427 16.449l.04.498Zm78.568-16.48.182.465a180.95 180.95 0 0 0 4.427-1.79l-.194-.46-.194-.461c-1.454.61-2.922 1.203-4.402 1.78l.181.465Zm11.793-5.046.213.453c5.341-2.507 8.586-4.405 10.262-5.84.823-.705 1.355-1.37 1.488-2.013.07-.343.026-.674-.139-.971-.159-.286-.41-.504-.694-.673-.559-.331-1.359-.537-2.272-.666-.925-.132-2.02-.192-3.206-.204-2.372-.022-5.153.153-7.756.377l.043.498.043.499c2.592-.224 5.336-.396 7.661-.374 1.162.011 2.209.07 3.075.194.878.125 1.517.308 1.902.536.187.111.284.216.33.299.04.073.059.158.033.283-.061.295-.363.773-1.159 1.455-1.563 1.34-4.699 3.19-10.036 5.695l.212.452Zm-6.861-8.326-.033-.5c-1.61.107-5.03.674-8.411 1.322-3.385.648-6.788 1.39-8.372 1.856l.141.48.142.48c1.531-.452 4.891-1.186 8.277-1.834 3.391-.65 6.751-1.204 8.289-1.306l-.033-.498Z" fill="#1A1A1A"/><ellipse cx="100" cy="174.5" rx="71" ry="5.5" fill="#CCD6DB"/><path d="m48.398 61.051.013-.085c.143-.902.34-1.607.59-2.116.25-.509.557-.905.92-1.19a5.985 5.985 0 0 1 1.267-.746c.29-.13.558-.296.803-.496a2.73 2.73 0 0 0 .62-.742c.171-.288.285-.62.34-.993.07-.463.026-.88-.13-1.251a2.144 2.144 0 0 0-.71-.911 2.431 2.431 0 0 0-1.11-.448 2.493 2.493 0 0 0-1.098.083c-.365.11-.688.32-.968.631s-.48.743-.599 1.295l-1.695-.252c.156-.799.455-1.457.9-1.976a3.668 3.668 0 0 1 1.628-1.098 4.372 4.372 0 0 1 2.053-.158c.79.117 1.45.385 1.985.803.538.419.923.94 1.156 1.564.237.625.3 1.307.19 2.044a4.15 4.15 0 0 1-.439 1.377c-.21.399-.482.743-.814 1.032a4.53 4.53 0 0 1-1.14.729c-.434.2-.79.428-1.071.68a2.68 2.68 0 0 0-.67.938c-.166.376-.297.857-.394 1.442l-.012.085-1.615-.241Zm.235 4.327a1.15 1.15 0 0 1-.798-.504 1.276 1.276 0 0 1-.223-.953 1.28 1.28 0 0 1 .491-.848 1.15 1.15 0 0 1 .91-.248c.333.05.599.217.8.503.2.286.274.604.222.954a1.265 1.265 0 0 1-.264.613 1.308 1.308 0 0 1-.507.403 1.122 1.122 0 0 1-.63.08Z" fill="#fff"/><defs><clipPath id="Group 35403__a"><path fill="#fff" transform="rotate(4.428 -499.612 478.764)" d="M0 0h32v32H0z"/></clipPath></defs></svg>