<svg width="172" height="171" viewBox="0 0 172 171" fill="none" xmlns="http://www.w3.org/2000/svg">
<path fill-rule="evenodd" clip-rule="evenodd" d="M83.516 170.945C116.698 171.377 156.19 170.234 167.818 131.179C180.48 88.6506 158.754 43.8643 129.052 18.0022C101.509 -5.98024 65.4587 -6.10446 38.1243 18.2521C9.74807 43.5371 -7.74651 88.1025 4.42652 129.051C15.495 166.284 51.8876 170.533 83.516 170.945Z" fill="#F5F5F5"/>
<ellipse cx="86.0002" cy="159.885" rx="51.3" ry="3.42" fill="#DFDFE2"/>
<path d="M53.9301 135.578L106.909 143.024C115.66 144.254 123.751 138.157 124.981 129.407L126.145 121.12L132.095 78.7865L132.69 74.5531L133.285 70.3197L134.356 62.6996C136.735 45.766 141.099 39.9037 146.095 40.6058L68.8042 29.7434C60.0537 28.5136 51.963 34.6103 50.7332 43.3609L50.2826 46.5669L40.3126 117.507C39.0828 126.258 45.1796 134.348 53.9301 135.578Z" fill="white"/>
<path d="M149.768 61.7736C152.016 54.2317 153.476 41.6438 146.095 40.6066C138.962 38.9636 135.573 52.3937 134.553 60.8171C134.425 61.8731 135.182 62.8164 136.235 62.9644L145.657 64.2885C147.475 64.544 149.244 63.5326 149.768 61.7736Z" fill="white"/>
<path d="M51.0561 41.0635V41.0635C52.1076 33.5817 59.0251 28.369 66.5068 29.4205L146.095 40.6058M50.2826 46.5669L40.3126 117.507C39.0828 126.258 45.1796 134.348 53.9301 135.578L106.909 143.024C115.66 144.254 123.751 138.157 124.981 129.407L126.145 121.12M128.108 107.15L132.095 78.7865L132.69 74.5531L133.285 70.3197L134.356 62.6996C136.735 45.766 141.522 39.9632 146.518 40.6653C153.898 41.7026 152.439 54.2904 150.191 61.8324C149.666 63.5914 147.897 64.6028 146.08 64.3473L134.779 62.7591" stroke="#2C304E" stroke-linecap="round"/>
<path d="M70.8203 57.3008L99.5381 61.3368" stroke="#ECECEE" stroke-width="4" stroke-linecap="round"/>
<path d="M69.2891 68.1934L108.9 73.7603" stroke="#ECECEE" stroke-width="4" stroke-linecap="round"/>
<path d="M67.7588 79.0869L107.37 84.6538" stroke="#ECECEE" stroke-width="4" stroke-linecap="round"/>
<path d="M66.2275 89.9795L112.275 96.451M125.644 98.3299L119.702 97.4948" stroke="#ECECEE" stroke-width="4" stroke-linecap="round"/>
<path d="M64.6963 100.873L110.744 107.345M124.112 109.223L118.171 108.388" stroke="#ECECEE" stroke-width="4" stroke-linecap="round"/>
<path d="M49.093 134.898C29.5631 132.154 26.0313 123.378 26.9254 117.477C27.19 115.731 28.9638 114.801 30.713 115.047L83.8263 122.512C86.4797 122.885 88.0309 125.823 88.2084 128.497C88.5841 134.156 93.4513 141.133 110.477 143.525L49.093 134.898Z" fill="white" stroke="#2C304E" stroke-linejoin="round"/>
<g clip-path="url(#clip0_5458_161234)">
<circle cx="46.935" cy="51.935" r="14.935" fill="white"/>
<path d="M61.9331 51.9997C61.9331 49.0848 61.0979 46.365 59.6538 44.0664M53.9997 38.8053C51.9118 37.6953 49.5292 37.0664 46.9997 37.0664C38.7523 37.0664 32.0664 43.7523 32.0664 51.9997C32.0664 60.2472 38.7523 66.9331 46.9997 66.9331C53.9581 66.9331 59.8048 62.1739 61.4626 55.7331" stroke="#2C304E" stroke-linecap="round"/>
<ellipse cx="47.0004" cy="52.0005" rx="13.8667" ry="13.8667" fill="url(#paint0_linear_5458_161234)"/>
<path d="M47.0004 64.8271C47.0004 65.4015 46.5341 65.8712 45.9614 65.8281C43.4015 65.6358 40.9377 64.7357 38.8498 63.2188C36.762 61.7019 35.1446 59.6368 34.1706 57.2617C33.9527 56.7302 34.2553 56.1416 34.8016 55.9641C35.3478 55.7866 35.9303 56.0879 36.1552 56.6164C36.9888 58.5748 38.3401 60.2774 40.0724 61.5361C41.8048 62.7947 43.8416 63.5537 45.9617 63.7413C46.5339 63.7919 47.0004 64.2527 47.0004 64.8271Z" fill="url(#paint1_linear_5458_161234)"/>
<path d="M48.4936 39.2602C48.5605 38.6897 49.0783 38.2776 49.6422 38.387C51.3577 38.72 52.998 39.375 54.475 40.3204C55.9521 41.2659 57.2338 42.4812 58.2545 43.8996C58.59 44.3658 58.4326 45.0086 57.9426 45.3082C57.4525 45.6079 56.816 45.4503 56.4743 44.9886C55.6221 43.8369 54.5653 42.8478 53.3537 42.0723C52.1422 41.2968 50.8014 40.7513 49.3987 40.4596C48.8364 40.3427 48.4267 39.8307 48.4936 39.2602Z" fill="#007E45"/>
<path d="M46.1751 55.6534C46.0376 55.6534 45.9261 55.542 45.9261 55.4045C45.9356 54.5001 46.0303 53.9441 46.2102 53.4091C46.3902 52.8741 46.6458 52.4408 46.9773 52.1094C47.3087 51.7779 47.7064 51.4725 48.1705 51.1932C48.4498 51.0227 48.7008 50.8215 48.9233 50.5895C49.1458 50.3527 49.321 50.0805 49.4489 49.7727C49.5814 49.465 49.6477 49.1241 49.6477 48.75C49.6477 48.286 49.5388 47.8835 49.321 47.5426C49.1032 47.2017 48.812 46.9389 48.4474 46.7543C48.0829 46.5696 47.678 46.4773 47.233 46.4773C46.8447 46.4773 46.4706 46.5578 46.1108 46.7188C45.7509 46.8797 45.4503 47.133 45.2088 47.4787C45.1004 47.6338 45.0126 47.8104 44.9452 48.0084C44.7923 48.458 44.421 48.8352 43.9462 48.8352C43.431 48.8352 43.0079 48.3997 43.1335 47.9C43.2383 47.4827 43.4022 47.1055 43.625 46.7685C44.0085 46.1955 44.5128 45.7576 45.1378 45.4545C45.7675 45.1515 46.4659 45 47.233 45C48.0663 45 48.7907 45.1657 49.4063 45.4972C50.0265 45.8286 50.5047 46.2831 50.8409 46.8608C51.1818 47.4384 51.3523 48.0966 51.3523 48.8352C51.3523 49.3561 51.2718 49.8272 51.1108 50.2486C50.9545 50.67 50.7273 51.0464 50.429 51.3778C50.1354 51.7093 49.7803 52.0028 49.3636 52.2585C48.947 52.5189 48.6132 52.7936 48.3622 53.0824C48.1113 53.3665 47.929 53.705 47.8153 54.098C47.7017 54.491 47.6402 54.8174 47.6307 55.4045C47.6307 55.542 47.5192 55.6534 47.3818 55.6534L46.1751 55.6534Z" fill="white"/>
<circle cx="46.7041" cy="58.2441" r="1" fill="white"/>
</g>
<defs>
<linearGradient id="paint0_linear_5458_161234" x1="33.1338" y1="52.0005" x2="60.8671" y2="52.0005" gradientUnits="userSpaceOnUse">
<stop stop-color="#007E45"/>
<stop offset="1" stop-color="#007E45"/>
</linearGradient>
<linearGradient id="paint1_linear_5458_161234" x1="43.3125" y1="36.0005" x2="54.7499" y2="72.0118" gradientUnits="userSpaceOnUse">
<stop stop-color="#007E45"/>
<stop offset="1" stop-color="#007E45"/>
</linearGradient>
<clipPath id="clip0_5458_161234">
<rect width="32" height="32" fill="white" transform="translate(31 36)"/>
</clipPath>
</defs>
</svg>
