<svg width="151" height="30" viewBox="0 0 151 30" fill="none" xmlns="http://www.w3.org/2000/svg">
<path d="M149.306 22.3629C149.306 22.0629 149.047 21.9536 148.781 21.9536H148.284V23.3518H148.538V22.7666H148.72L149.051 23.3508H149.361L148.98 22.7397C149.178 22.6962 149.306 22.5647 149.306 22.3629ZM148.538 22.5647V22.1666H148.769C148.902 22.1666 149.051 22.2045 149.051 22.3573C149.051 22.5268 148.886 22.5647 148.742 22.5647H148.539H148.538ZM148.776 21.4184C148.079 21.4184 147.516 21.9703 147.516 22.6583C147.516 23.3453 148.079 23.886 148.776 23.886C149.472 23.886 150.035 23.3453 150.035 22.6583C150.035 21.9703 149.472 21.4184 148.776 21.4184ZM148.776 23.7055C148.496 23.7062 148.228 23.5966 148.029 23.4004C147.831 23.2043 147.717 22.9375 147.714 22.6583C147.716 22.3786 147.829 22.1112 148.028 21.9147C148.227 21.7182 148.496 21.6086 148.776 21.6101C149.361 21.6101 149.836 22.0795 149.836 22.6583C149.836 23.2305 149.361 23.7055 148.776 23.7055ZM67.7348 21.6286C65.8922 21.6286 64.9626 20.0018 64.9626 18.4295C64.9626 16.8573 65.9709 15.2999 67.6459 15.2999C68.4311 15.2999 69.4228 15.6888 69.8126 16.2351L71.7626 14.3147C70.8181 13.3323 69.3135 12.7453 67.6459 12.7453C64.2533 12.7453 61.7913 15.1508 61.7913 18.4638C61.7913 21.8314 64.2265 24.1823 67.7126 24.1823C69.3718 24.1823 70.9043 23.7027 71.8135 22.7379L69.9154 20.7258C69.4774 21.2536 68.5589 21.6286 67.7348 21.6286ZM56.8246 23.8777H59.8524V13.0499H56.8246V23.8777ZM51.3218 18.986C51.3218 20.2592 50.482 21.6286 48.9172 21.6286C47.7107 21.6286 47.0663 20.7786 47.0663 19.0305V13.0499H44.0404V19.7703C44.0404 22.0064 45.17 24.1823 48.1894 24.1823C49.6144 24.1823 50.807 23.0749 51.4089 22.2573H51.4533V23.8777H54.3478V13.0499H51.3218V18.986ZM38.5802 14.4258H38.5126C38.0848 13.9592 36.9265 12.7462 35.0459 12.7462C31.9598 12.7462 29.582 15.1333 29.582 18.4221C29.582 21.7601 31.7765 24.1833 34.9006 24.1833C36.3191 24.1833 37.6524 23.4407 38.4246 22.5768H38.4691V29.2101H41.4968V13.0499H38.5802V14.4249V14.4258ZM35.6413 21.6295C33.77 21.6295 32.7061 20.0157 32.7061 18.4212C32.7061 16.8971 33.683 15.2573 35.6413 15.2573C37.4422 15.2573 38.558 16.9221 38.558 18.4647C38.558 20.0203 37.4663 21.6295 35.6413 21.6295ZM104.582 12.7462C101.138 12.7462 98.6385 15.1333 98.6385 18.4221C98.6385 21.824 101.194 24.2129 104.582 24.2129C107.97 24.2129 110.525 21.8018 110.525 18.4212C110.525 15.1333 108.025 12.7462 104.582 12.7462ZM104.582 21.6295C102.608 21.6295 101.709 19.9666 101.709 18.4212C101.709 16.8971 102.608 15.2573 104.582 15.2573C106.555 15.2573 107.454 16.8971 107.454 18.4212C107.454 19.9666 106.556 21.6295 104.582 21.6295ZM142.421 17.2147C140.864 16.8471 140.314 16.6499 140.314 16.0268C140.314 15.1675 141.416 14.9786 141.916 14.9786C142.855 14.9786 143.916 15.5323 144.314 16.0583L146.1 14.3675C145.274 13.3434 143.651 12.7471 141.938 12.7471C139.747 12.7471 137.447 13.8351 137.447 16.2657C137.447 18.3536 139.103 18.9833 140.725 19.3675C142.432 19.7601 143.042 20.0471 143.042 20.7268C143.042 21.7295 141.891 21.8934 141.495 21.8934C140.504 21.8934 139.357 21.3323 138.739 20.6064L136.901 22.4471C137.905 23.5462 139.624 24.2083 141.385 24.2083C144.343 24.2083 146.1 22.8147 146.1 20.5157C146.1 18.3157 143.951 17.5768 142.421 17.2147ZM136.699 13.0508H132.796L128.889 17.5444H128.821V7.08325H125.794V23.8768H128.821V18.537H128.889L132.942 23.8777H136.926L132.214 17.961L136.7 13.0499L136.699 13.0508ZM91.8181 12.7462C90.4339 12.7462 89.4144 13.3444 88.4515 14.2351H88.3941V7.08418H85.3681V23.8777H88.2626V22.3471H88.308C88.9904 23.4527 90.3459 24.1823 91.7524 24.1823C94.8765 24.1823 97.245 21.7592 97.245 18.4203C97.245 15.1323 94.9043 12.7453 91.8181 12.7453V12.7462ZM91.2228 21.6295C89.3968 21.6295 88.3061 20.0203 88.3061 18.4647C88.3061 16.9221 89.4218 15.2573 91.2228 15.2573C93.1811 15.2573 94.1561 16.8971 94.1561 18.4212C94.1561 20.0157 93.095 21.6295 91.2228 21.6295ZM84.2293 13.0508H80.3265L76.4191 17.5444H76.3515V7.08325H73.3237V23.8768H76.3515V18.537H76.4181L80.4728 23.8777H84.4552L79.7441 17.961L84.2293 13.0499V13.0508ZM117.882 12.7462C114.438 12.7462 111.938 15.1333 111.938 18.4221C111.938 21.824 114.493 24.2129 117.882 24.2129C121.27 24.2129 123.825 21.8018 123.825 18.4212C123.825 15.1333 121.325 12.7462 117.882 12.7462ZM117.882 21.6295C115.908 21.6295 115.009 19.9666 115.009 18.4212C115.009 16.8971 115.907 15.2573 117.882 15.2573C119.855 15.2573 120.754 16.8971 120.754 18.4212C120.754 19.9666 119.855 21.6295 117.882 21.6295Z" fill="black"/>
<path d="M13.4288 25.9782C20.4699 25.9782 26.1778 20.3395 26.1778 13.3838C26.1778 6.42803 20.4699 0.789307 13.4288 0.789307C6.38764 0.789307 0.679688 6.42803 0.679688 13.3838C0.679688 20.3395 6.38764 25.9782 13.4288 25.9782Z" fill="#2CA01C"/>
<path d="M4.21875 13.3837C4.21875 16.0884 6.43819 18.2819 9.17708 18.2819H9.88542V16.4615H9.17708C7.45856 16.4615 6.06042 15.081 6.06042 13.3837C6.06042 11.6856 7.45856 10.305 9.17708 10.305H10.8789V19.8208C10.8789 20.8254 11.703 21.6393 12.7206 21.6393V8.48558H9.17708C6.43819 8.48558 4.21875 10.6782 4.21875 13.3837ZM17.6789 8.48558H16.9706V10.306H17.6789C19.3975 10.306 20.7956 11.6865 20.7956 13.3837C20.7956 15.0819 19.3975 16.4624 17.6789 16.4624H15.9771V6.94669C15.9771 5.94206 15.153 5.12817 14.1345 5.12817V18.2819H17.6789C20.4169 18.2819 22.6373 16.0893 22.6373 13.3837C22.6373 10.68 20.4169 8.48558 17.6789 8.48558Z" fill="white"/>
<path d="M42.0645 3.65732C42.5302 3.65732 42.9071 3.28509 42.9071 2.82491C42.9064 2.71499 42.884 2.60628 42.8413 2.50501C42.7985 2.40373 42.7362 2.31187 42.658 2.23466C42.5798 2.15744 42.4871 2.0964 42.3852 2.05501C42.2834 2.01362 42.1744 1.99269 42.0645 1.99343C41.9546 1.99269 41.8456 2.01362 41.7438 2.05501C41.6419 2.0964 41.5492 2.15744 41.471 2.23466C41.3927 2.31187 41.3305 2.40373 41.2877 2.50501C41.245 2.60628 41.2226 2.71499 41.2219 2.82491C41.2219 3.28509 41.5997 3.65732 42.0645 3.65732ZM37.0367 4.21843C36.2126 4.21843 35.5506 4.71195 35.3071 5.26287H35.283V4.37954H33.9589V9.88787H35.3534V6.85732C35.3534 6.12398 35.7719 5.36658 36.6543 5.36658C37.5488 5.36658 37.7006 6.18139 37.7006 6.83509V9.88787H39.0941V6.44435C39.0941 5.32028 38.4895 4.21843 37.0367 4.21843ZM31.1367 9.88787H32.5302V4.37861H31.1367V9.88787ZM56.4886 3.65732C56.9543 3.65732 57.3312 3.28509 57.3312 2.82491C57.3304 2.71499 57.3081 2.60628 57.2653 2.50501C57.2226 2.40373 57.1603 2.31187 57.0821 2.23466C57.0038 2.15744 56.9112 2.0964 56.8093 2.05501C56.7075 2.01362 56.5985 1.99269 56.4886 1.99343C56.3787 1.99269 56.2697 2.01362 56.1678 2.05501C56.066 2.0964 55.9733 2.15744 55.8951 2.23466C55.8168 2.31187 55.7546 2.40373 55.7118 2.50501C55.6691 2.60628 55.6467 2.71499 55.646 2.82491C55.646 3.28509 56.0238 3.65732 56.4886 3.65732ZM54.2293 4.37583V5.5962H55.7923V9.88787H57.1858V5.5962H58.7488V4.37583H54.2293ZM51.858 9.88787H53.2525V4.37861H51.858V9.88787ZM39.8043 5.5962H41.3673V9.88787H42.7617V5.5962H44.3247V4.37583H39.8043V5.5962ZM49.0358 7.40917C49.0358 8.14343 48.6182 8.89991 47.7358 8.89991C46.8404 8.89991 46.6895 8.08509 46.6895 7.43139V4.37954H45.2951V7.82213C45.2951 8.94713 45.8997 10.0481 47.3515 10.0481C48.1765 10.0481 48.8395 9.55454 49.083 9.00361H49.1062V9.88787H50.4302V4.37861H49.0367L49.0358 7.40917Z" fill="black"/>
</svg>
