<svg width="68" height="68" viewBox="0 0 68 68" fill="none" xmlns="http://www.w3.org/2000/svg">
<path d="M60.0701 0H7.92464C5.8246 0.00701178 3.81261 0.844543 2.3279 2.32976C0.843184 3.81497 0.00630742 5.82724 0 7.92729V60.0727C0.00631103 62.1732 0.843519 64.1859 2.32881 65.6712C3.8141 67.1565 5.8268 67.9937 7.9273 68H60.0727C62.1732 67.9937 64.1859 67.1565 65.6712 65.6712C67.1564 64.1859 67.9937 62.1732 68 60.0727V7.92729C67.9937 5.82632 67.1561 3.81325 65.6702 2.32789C64.1844 0.842526 62.171 0.00560997 60.0701 0Z" fill="black"/>
<path d="M18.4167 58.084C20.7639 58.084 22.6667 56.1812 22.6667 53.834C22.6667 51.4868 20.7639 49.584 18.4167 49.584C16.0694 49.584 14.1667 51.4868 14.1667 53.834C14.1667 56.1812 16.0694 58.084 18.4167 58.084Z" fill="#00D639"/>
<path d="M39.5146 33.6262C40.5663 33.6262 41.2386 32.8849 41.2386 30.4541C41.2386 28.0233 40.5663 27.282 39.5146 27.282C38.463 27.282 37.8252 28.0233 37.8079 30.4541C37.8252 32.8849 38.4803 33.6262 39.5146 33.6262Z" fill="white"/>
<path fill-rule="evenodd" clip-rule="evenodd" d="M34 49.5827C44.9536 49.5827 53.8333 40.703 53.8333 29.7494C53.8333 18.7957 44.9536 9.91602 34 9.91602C23.0463 9.91602 14.1667 18.7957 14.1667 29.7494C14.1667 40.703 23.0463 49.5827 34 49.5827ZM39.5146 36.6259C36.6012 36.6259 34.2738 34.833 34.2738 30.4541C34.2738 26.0753 36.6012 24.2823 39.5146 24.2823C42.4626 24.2823 44.7555 26.0753 44.7727 30.4541C44.7555 34.833 42.4626 36.6259 39.5146 36.6259ZM24.5682 31.023C24.4475 30.9713 24.3613 30.8679 24.3786 30.6955L24.6199 24.6789C24.6199 24.5065 24.7406 24.403 24.8957 24.403H32.7225C32.8949 24.403 32.9983 24.5065 32.9983 24.6616V26.989C32.9983 27.1269 32.8949 27.2476 32.7225 27.2476H27.5851L27.5162 28.7819C27.9816 28.7302 28.4299 28.6957 28.8436 28.6957C31.9467 28.6957 33.3949 30.1783 33.3949 32.247C33.3949 34.9019 31.0675 36.6087 27.5679 36.6087C26.4645 36.6087 25.2578 36.4535 24.1372 36.1087C23.9476 36.057 23.9131 35.8846 23.9476 35.7294L24.4303 33.4021C24.4648 33.2125 24.6027 33.1607 24.7406 33.1952C25.775 33.4883 26.7231 33.6434 27.4472 33.6434C28.947 33.6434 29.5849 33.0745 29.5849 32.385C29.5849 31.7643 28.9298 31.2989 27.8265 31.2989C27.4989 31.2989 27.1369 31.3506 26.7404 31.4368C26.5163 31.4885 26.3439 31.4713 26.2232 31.4368L24.5682 31.023Z" fill="white"/>
</svg>
