<svg width="40" height="40" viewBox="0 0 40 40" fill="none" xmlns="http://www.w3.org/2000/svg">
<path d="M35.3369 0H4.66311C2.08774 0 0 2.08774 0 4.66311V35.3369C0 37.9123 2.08774 40 4.66311 40H35.3369C37.9123 40 40 37.9123 40 35.3369V4.66311C40 2.08774 37.9123 0 35.3369 0Z" fill="black"/>
<path d="M20 10C21.3807 10 22.5 8.88071 22.5 7.5C22.5 6.11929 21.3807 5 20 5C18.6193 5 17.5 6.11929 17.5 7.5C17.5 8.88071 18.6193 10 20 10Z" fill="#00D639"/>
<path fill-rule="evenodd" clip-rule="evenodd" d="M12.6384 24.8079L10.4706 24.8161C10.3112 24.8161 10.1433 24.7026 10.1433 24.5094V23.1394C10.1433 22.9463 10.3106 22.8328 10.47 22.8328H15.17C15.2914 22.8328 15.3991 22.8764 15.4731 22.9652C15.5431 23.0493 15.5667 23.1542 15.5667 23.2494V24.4694C15.5667 24.5983 15.5057 24.7295 15.4179 24.8173L15.4134 24.8217L14.2989 25.7806C14.773 25.9126 15.1513 26.1292 15.4246 26.4172C15.7602 26.7707 15.9267 27.2204 15.9267 27.7194C15.9267 29.2055 14.5438 30.2461 12.79 30.2461C11.6837 30.2461 10.7283 29.9794 9.97822 29.2831C9.92218 29.2335 9.86483 29.1606 9.85118 29.0624C9.83685 28.9591 9.87553 28.8645 9.93988 28.7853L10.8155 27.6709C10.8649 27.5996 10.9355 27.5462 11.02 27.5287C11.1058 27.511 11.1962 27.5335 11.2626 27.5964C11.6914 27.9672 12.1531 28.1928 12.7 28.1928C12.941 28.1928 13.1479 28.1436 13.2885 28.0582C13.4227 27.9768 13.4933 27.8665 13.4933 27.7194C13.4933 27.6236 13.4301 27.4891 13.2279 27.3922C13.0248 27.2948 12.6884 27.2423 12.19 27.3334L12.1814 27.3349L12.1728 27.3356C12.0955 27.3416 12.0125 27.3382 11.933 27.2985C11.8549 27.2595 11.8029 27.1966 11.7617 27.1325L11.2351 26.3873C11.1128 26.2217 11.1811 26.0249 11.2933 25.9314M11.2933 25.9314L12.6384 24.8079ZM22.5432 26.5088L22.5432 26.5101C22.5381 27.8079 22.1954 28.7491 21.61 29.3666C21.0237 29.9851 20.2154 30.2561 19.3266 30.2561C18.4474 30.2561 17.6394 29.9849 17.052 29.3667C16.4653 28.7493 16.1199 27.808 16.1199 26.5094C16.1199 25.2109 16.4653 24.2695 17.052 23.6521C17.6394 23.034 18.4474 22.7628 19.3266 22.7628C20.2154 22.7628 21.0237 23.0338 21.61 23.6523C22.1954 24.2698 22.5381 25.211 22.5432 26.5088ZM19.9132 27.8711C20.0623 27.6276 20.1599 27.2059 20.1599 26.5094C20.1599 25.8129 20.0623 25.3912 19.9132 25.1477C19.8407 25.0294 19.7568 24.9542 19.6645 24.9071C19.571 24.8595 19.4597 24.8361 19.3266 24.8361C19.1935 24.8361 19.0838 24.8595 18.9925 24.9067C18.9024 24.9533 18.8205 25.028 18.7495 25.1463C18.6034 25.3903 18.5083 25.8125 18.5032 26.5094C18.5083 27.2058 18.6057 27.628 18.753 27.8721C18.8246 27.9907 18.907 28.0656 18.9969 28.1123C19.0879 28.1595 19.1964 28.1828 19.3266 28.1828C19.4597 28.1828 19.571 28.1593 19.6645 28.1117C19.7568 28.0647 19.8407 27.9895 19.9132 27.8711ZM29.2425 26.5088L29.2425 26.5101C29.2374 27.8079 28.8947 28.7491 28.3092 29.3666C27.7229 29.9851 26.9146 30.2561 26.0258 30.2561C25.1466 30.2561 24.3386 29.9849 23.7512 29.3667C23.1645 28.7493 22.8191 27.808 22.8191 26.5094C22.8191 25.2109 23.1645 24.2695 23.7512 23.6521C24.3386 23.034 25.1466 22.7628 26.0258 22.7628C26.9146 22.7628 27.7229 23.0338 28.3092 23.6523C28.8947 24.2698 29.2374 25.211 29.2425 26.5088ZM26.6124 27.8711C26.7615 27.6276 26.8591 27.2059 26.8591 26.5094C26.8591 25.8129 26.7615 25.3912 26.6124 25.1477C26.54 25.0294 26.456 24.9542 26.3637 24.9071C26.2703 24.8595 26.1589 24.8361 26.0258 24.8361C25.8927 24.8361 25.783 24.8595 25.6917 24.9067C25.6016 24.9533 25.5197 25.028 25.4488 25.1463C25.3026 25.3903 25.2075 25.8125 25.2025 26.5094C25.2075 27.2058 25.3049 27.628 25.4522 27.8721C25.5238 27.9907 25.6062 28.0656 25.6961 28.1123C25.7871 28.1595 25.8956 28.1828 26.0258 28.1828C26.1589 28.1828 26.2703 28.1593 26.3637 28.1117C26.456 28.0647 26.54 27.9895 26.6124 27.8711Z" fill="white"/>
<path d="M3.48943 18.7816C3.40323 18.5682 3.50631 18.3253 3.71968 18.2391L19.9887 11.666L19.9922 11.6745L19.9941 11.6696L36.2547 18.2393C36.4681 18.3256 36.5712 18.5684 36.485 18.7818L35.5484 21.0997C35.4622 21.3131 35.2194 21.4162 35.006 21.33L19.9869 15.2619L4.96836 21.3298C4.755 21.416 4.51216 21.3129 4.42595 21.0995L3.48943 18.7816Z" fill="white"/>
</svg>
