<svg width="987" height="242" viewBox="0 0 987 242" fill="none" xmlns="http://www.w3.org/2000/svg">
<path d="M337.364 100.518C336.877 100.518 336.449 100.843 336.319 101.313L314.191 181.311H308.393L286.051 101.311C285.92 100.842 285.493 100.518 285.006 100.518H262.792C262.068 100.518 261.547 101.215 261.752 101.91L290.76 200.191C290.896 200.653 291.319 200.969 291.8 200.969H330.569C331.05 200.969 331.473 200.653 331.609 200.192L360.625 101.91C360.83 101.215 360.309 100.518 359.585 100.518H337.364Z" fill="#14140F"/>
<path d="M412.167 97.0588C412.164 97.056 412.16 97.0545 412.156 97.0545C381.649 97.0574 361.03 118.875 361.03 150.841C361.03 182.81 382.299 204.203 413.026 204.203C436.818 204.203 456.484 189.268 460.497 168.956C460.627 168.299 460.116 167.697 459.448 167.697H438.295C437.832 167.697 437.422 167.993 437.259 168.426C433.452 178.539 424.567 183.903 412.81 183.903C396.692 183.903 386.381 173.536 384.663 156.255H459.917C460.492 156.255 460.967 155.807 460.995 155.233C461.154 151.982 461.135 149.097 460.94 146.747C459.87 115.422 441.39 97.0657 412.177 97.0631C412.174 97.0631 412.17 97.0616 412.167 97.0588ZM385.733 138.531C388.96 123.627 397.977 115.845 411.947 115.845C425.917 115.845 434.933 124.052 436.866 138.531H385.733Z" fill="#14140F"/>
<path d="M496.365 59.4507H474.684C474.085 59.4507 473.6 59.9364 473.6 60.5355V199.86C473.6 200.459 474.085 200.945 474.684 200.945H496.365C496.964 200.945 497.449 200.459 497.449 199.86V60.5355C497.449 59.9364 496.964 59.4507 496.365 59.4507Z" fill="#14140F"/>
<path d="M679.634 97.0574C679.632 97.0546 679.628 97.0531 679.624 97.0531C649.117 97.056 628.497 118.874 628.497 150.84C628.497 182.808 649.767 204.202 680.493 204.202C704.285 204.202 723.951 189.267 727.964 168.954C728.094 168.298 727.584 167.696 726.915 167.696H705.762C705.3 167.696 704.89 167.992 704.726 168.425C700.919 178.538 692.035 183.902 680.277 183.902C664.159 183.902 653.848 173.535 652.131 156.253H727.385C727.959 156.253 728.434 155.806 728.462 155.232C728.621 151.981 728.603 149.096 728.407 146.745C727.337 115.421 708.857 97.0643 679.645 97.0617C679.641 97.0617 679.637 97.0602 679.634 97.0574ZM653.201 138.53C656.428 123.626 665.445 115.844 679.414 115.844C693.384 115.844 702.401 124.051 704.334 138.53H653.201Z" fill="#14140F"/>
<path d="M861.598 142.404L901.65 101.279C901.734 101.193 901.781 101.077 901.781 100.956C901.781 100.701 901.574 100.494 901.319 100.494H872.594C872.3 100.494 872.018 100.613 871.814 100.826L832.597 141.536V60.5355C832.597 59.9364 832.112 59.4507 831.513 59.4507H809.832C809.233 59.4507 808.748 59.9364 808.748 60.5355V199.86C808.748 200.459 809.233 200.945 809.832 200.945H831.513C832.112 200.945 832.597 200.459 832.597 199.86V160.648H846.74L875.674 200.498C875.878 200.779 876.204 200.945 876.552 200.945H903.12C903.567 200.945 903.93 200.582 903.93 200.135C903.93 199.962 903.874 199.794 903.772 199.655L861.598 142.404Z" fill="#14140F"/>
<path d="M571.181 97.0531C555.123 97.0531 543.681 108.773 541.749 113.944H537.098V101.599C537.098 101 536.612 100.515 536.014 100.515H515.128C514.506 100.515 514.011 101.037 514.041 101.659C514.236 105.646 514.413 111.835 514.413 119.088V240.915C514.413 241.514 514.899 242 515.498 242H536.963C537.562 242 538.047 241.514 538.047 240.915V193.227H542.698C547.133 200.228 558.065 204.41 570.059 204.41C600.354 204.41 619.69 180.431 619.69 150.623C619.69 120.815 602.114 97.0531 571.181 97.0531ZM566.185 183.459C548.997 183.459 536.753 170.281 536.753 150.623C536.753 130.965 548.997 118.221 566.185 118.221C583.373 118.221 595.194 130.965 595.194 150.623C595.194 170.281 583.166 183.459 566.185 183.459Z" fill="#14140F"/>
<path d="M251.159 101.644C251.159 101.045 250.674 100.559 250.075 100.559H228.61C228.011 100.559 227.526 101.045 227.526 101.644V110.614H222.875C217.741 101.314 207.507 96.8285 195.514 96.8285C165.219 96.8285 145.882 120.807 145.882 150.615C145.882 180.424 163.459 204.185 194.392 204.185C210.45 204.185 219.579 196.022 223.824 189.897H228.475V199.639C228.475 200.238 228.96 200.724 229.559 200.724H250.444C251.067 200.724 251.562 200.201 251.531 199.579C251.337 195.592 251.159 189.404 251.159 182.15V101.644ZM199.379 183.026C182.623 183.026 170.37 170.282 170.37 150.624C170.37 130.966 182.398 117.788 199.379 117.788C216.36 117.788 228.811 130.966 228.811 150.624C228.811 170.282 216.567 183.026 199.379 183.026Z" fill="#14140F"/>
<path d="M45.5674 67.9576C45.5674 67.3585 45.082 66.8729 44.4831 66.8729H22.8024C22.2036 66.8729 21.7181 67.3585 21.7181 67.9576V100.464H1.08433C0.48547 100.464 0 100.949 0 101.548V118.82C0 119.419 0.485468 119.905 1.08432 119.905H21.7181V181.127C21.7181 192.457 30.8557 201.644 42.1246 201.644H67.5818C68.1806 201.644 68.6661 201.158 68.6661 200.559V183.114C68.6661 182.515 68.1806 182.029 67.5818 182.029H45.5588V119.905H72.3879C72.9867 119.905 73.4722 119.419 73.4722 118.82V101.548C73.4722 100.949 72.9867 100.464 72.3879 100.464H45.5674V67.9576Z" fill="#14140F"/>
<path d="M113.81 110.876H109.159L109.105 101.561C109.102 100.965 108.617 100.483 108.021 100.483H86.3868C85.7677 100.483 85.2744 100.999 85.3014 101.618C85.4986 106.129 85.6811 112.505 85.6811 119.057V199.841C85.6811 200.44 86.1666 200.926 86.7654 200.926H108.446C109.045 200.926 109.53 200.44 109.53 199.841V151.025C109.53 131.801 120.273 121.217 138.324 121.217C140.075 121.217 141.825 121.361 143.576 121.532C144.215 121.594 144.769 121.093 144.769 120.451V100.432C144.769 99.9483 144.45 99.5219 143.978 99.421C142.738 99.1565 140.952 98.9206 139.144 98.8087C128.03 99.121 118.659 102.088 113.819 110.867L113.81 110.876Z" fill="#14140F"/>
<path d="M768.194 110.875H763.544L763.49 101.56C763.486 100.963 763.002 100.482 762.405 100.482H740.771C740.152 100.482 739.659 100.998 739.686 101.616C739.883 106.128 740.065 112.503 740.065 119.055V199.84C740.065 200.439 740.551 200.924 741.15 200.924H762.83C763.429 200.924 763.915 200.439 763.915 199.84V151.024C763.915 131.799 774.657 121.216 792.708 121.216C794.459 121.216 796.21 121.36 797.96 121.53C798.599 121.593 799.154 121.092 799.154 120.45V100.43C799.154 99.9469 798.834 99.5205 798.362 99.4196C797.123 99.1551 795.337 98.9192 793.528 98.8073C782.414 99.1196 773.044 102.087 768.203 110.866L768.194 110.875Z" fill="#14140F"/>
<path d="M931.922 0.938163C931.995 0.400699 932.454 0 932.996 0H940.523C941.065 0 941.524 0.400699 941.598 0.938163L945.981 33.0944C946.08 33.8185 945.449 34.4311 944.728 34.311L936.938 33.0121C936.82 32.9924 936.699 32.9924 936.581 33.0121L928.791 34.311C928.071 34.4311 927.44 33.8185 927.538 33.0944L931.922 0.938163Z" fill="#14140F"/>
<path d="M986.006 58.1947C986.568 58.1478 987 57.6778 987 57.1137V49.676C987 49.1162 986.574 48.6483 986.017 48.596L936.861 43.986C936.794 43.9797 936.726 43.9797 936.658 43.986L887.502 48.596C886.945 48.6483 886.519 49.1162 886.519 49.676V57.1137C886.519 57.6778 886.952 58.1478 887.514 58.1947L923.804 61.22C924.059 61.2413 924.299 61.3525 924.48 61.5339L927.079 64.1333C927.248 64.3024 927.356 64.5228 927.387 64.76L931.927 99.5733C931.997 100.114 932.457 100.518 933.002 100.518H940.518C941.062 100.518 941.522 100.114 941.593 99.5732L946.132 64.76C946.163 64.5228 946.271 64.3024 946.441 64.1333L949.039 61.5339C949.22 61.3525 949.46 61.2413 949.716 61.22L986.006 58.1947Z" fill="#14140F"/>
</svg>
