<?xml version="1.0" encoding="utf-8"?>
<!-- Generator: Adobe Illustrator 24.1.0, SVG Export Plug-In . SVG Version: 6.00 Build 0)  -->
<svg version="1.1" id="Layer_1" xmlns="http://www.w3.org/2000/svg" xmlns:xlink="http://www.w3.org/1999/xlink" x="0px" y="0px"
	 viewBox="0 0 106.54 34.36" style="enable-background:new 0 0 106.54 34.36;" xml:space="preserve">
<style type="text/css">
	.st0{clip-path:url(#SVGID_2_);}
	.st1{clip-path:url(#SVGID_6_);}
	.st2{clip-path:url(#SVGID_10_);}
	.st3{clip-path:url(#SVGID_14_);}
	.st4{clip-path:url(#SVGID_18_);}
</style>
<g>
	<g>
		<defs>
			<path id="SVGID_1_" d="M44.49,5.44v4.09h6.14v4.17h-6.14v11.81h-4.22V5.44c0-2.39,1.96-4.36,4.42-4.36h7.59v4.21h-7.59
				C44.57,5.24,44.49,5.32,44.49,5.44z"/>
		</defs>
		<use xlink:href="#SVGID_1_"  style="overflow:visible;"/>
		<clipPath id="SVGID_2_">
			<use xlink:href="#SVGID_1_"  style="overflow:visible;"/>
		</clipPath>
		<g class="st0">
			<g>
				<defs>
					<rect id="SVGID_3_" x="-18" y="-18.14" width="706.5" height="433.81"/>
				</defs>
				<clipPath id="SVGID_4_">
					<use xlink:href="#SVGID_3_"  style="overflow:visible;"/>
				</clipPath>
			</g>
		</g>
	</g>
</g>
<g>
	<g>
		<defs>
			<path id="SVGID_5_" d="M68.78,33.91H57.36V29.7h11.42c0.08,0,0.2-0.08,0.2-0.19v-2.93H58.69c-2.43,0-4.42-1.97-4.42-4.36V8.28
				h4.22v13.97c0,0.12,0.08,0.23,0.23,0.23h10.05c0.08,0,0.2-0.08,0.2-0.23V8.28h4.22v21.27C73.17,31.94,71.21,33.91,68.78,33.91z"
				/>
		</defs>
		<use xlink:href="#SVGID_5_"  style="overflow:visible;"/>
		<clipPath id="SVGID_6_">
			<use xlink:href="#SVGID_5_"  style="overflow:visible;"/>
		</clipPath>
		<g class="st1">
			<g>
				<defs>
					<rect id="SVGID_7_" x="-18" y="-18.14" width="706.5" height="433.81"/>
				</defs>
				<clipPath id="SVGID_8_">
					<use xlink:href="#SVGID_7_"  style="overflow:visible;"/>
				</clipPath>
			</g>
		</g>
	</g>
</g>
<g>
	<defs>
		<path id="SVGID_9_" d="M80.75,1.08v20.07c0,0.12,0.08,0.23,0.2,0.23h3.76v4.17h-3.76c-2.43,0-4.42-1.97-4.42-4.36V1.11h4.22V1.08z
			"/>
	</defs>
	<use xlink:href="#SVGID_9_"  style="overflow:visible;"/>
	<clipPath id="SVGID_10_">
		<use xlink:href="#SVGID_9_"  style="overflow:visible;"/>
	</clipPath>
	<g class="st2">
		<g>
			<defs>
				<rect id="SVGID_11_" x="-18" y="-18.14" width="706.5" height="433.81"/>
			</defs>
			<clipPath id="SVGID_12_">
				<use xlink:href="#SVGID_11_"  style="overflow:visible;"/>
			</clipPath>
		</g>
	</g>
</g>
<g>
	<g>
		<defs>
			<path id="SVGID_13_" d="M101.76,14.2v-2.74c0-0.12-0.08-0.23-0.23-0.23H91.47c-0.12,0-0.23,0.08-0.23,0.23v2.74H101.76z
				 M105.94,11.46v6.91H91.2v2.74c0,0.12,0.08,0.23,0.23,0.23h14.51v4.17H91.47c-2.43,0-4.42-1.97-4.42-4.36V11.5
				c0-2.39,1.99-4.36,4.42-4.36h10.05C103.95,7.1,105.94,9.07,105.94,11.46z"/>
		</defs>
		<use xlink:href="#SVGID_13_"  style="overflow:visible;"/>
		<clipPath id="SVGID_14_">
			<use xlink:href="#SVGID_13_"  style="overflow:visible;"/>
		</clipPath>
		<g class="st3">
			<g>
				<defs>
					<rect id="SVGID_15_" x="-18" y="-18.14" width="706.5" height="433.81"/>
				</defs>
				<clipPath id="SVGID_16_">
					<use xlink:href="#SVGID_15_"  style="overflow:visible;"/>
				</clipPath>
			</g>
		</g>
	</g>
</g>
<g>
	<g>
		<defs>
			<path id="SVGID_17_" d="M14.57,0.45H2.33c-0.96,0-1.73,0.76-1.73,1.7v29.44c0,0.94,0.78,1.7,1.73,1.7h30
				c0.96,0,1.73-0.76,1.73-1.7V2.15c0-0.94-0.78-1.7-1.73-1.7h-4.7H16.87v0.69c0,0.17,0,20.2,0,20.42v0.22
				c-0.06,1.07-0.4,1.91-1.06,2.55c-1.29,1.26-3.52,1.43-5.46,1.43c-2.63,0-6.18-0.34-6.78-3.12l-0.09-0.7
				c-0.03-0.14-0.03-0.53-0.03-1.54c0-0.95,0-2.3,0-3.7v-0.28V5.87c0-0.67,0.23-1.23,0.71-1.71c0.49-0.48,1.06-0.7,1.74-0.7
				l6.43,0.03l0.23,0.06v1.91v0.22h-0.23h-0.34h-0.86H6.12c-0.17,0-0.26,0.08-0.26,0.2c0,0.34,0,0.51,0,0.51v4.27h4.63h0.23v0.22
				v1.74v0.22H10.5H5.86v4.71v0.34v3.93c0.06,1.57,2.43,1.88,4.43,1.88c0.89-0.03,2.77-0.03,3.63-0.87
				c0.23-0.22,0.44-0.65,0.64-1.26V1.72L14.57,0.45L14.57,0.45z"/>
		</defs>
		<use xlink:href="#SVGID_17_"  style="overflow:visible;fill:#FF3366;"/>
		<clipPath id="SVGID_18_">
			<use xlink:href="#SVGID_17_"  style="overflow:visible;"/>
		</clipPath>
		<g class="st4">
			<g>
				<defs>
					<rect id="SVGID_19_" x="-18" y="-18.14" width="706.5" height="433.81"/>
				</defs>
				<clipPath id="SVGID_20_">
					<use xlink:href="#SVGID_19_"  style="overflow:visible;"/>
				</clipPath>
			</g>
		</g>
	</g>
</g>
</svg>
