<svg width="315" height="189" viewBox="0 0 315 189" fill="none" xmlns="http://www.w3.org/2000/svg">
<path d="M1.09922 170.898C-2.88399 149.826 3.90169 125.804 22.3785 120.856C34.557 117.612 47.549 113.145 59.0365 107.542C69.1596 102.599 85.4911 75.0453 110.021 66.2444C161.362 47.8236 186.512 110.646 198.281 107.542C210.05 104.438 223.857 105.453 232.215 115.359C238.245 122.511 240.873 133.577 248.646 138.056C255.384 141.934 263.504 139.37 271.013 140.35C288.284 142.609 299.226 162.566 314.991 170.898" fill="#E9EDF1"/>
<path d="M36.8594 140.745C36.8594 154.275 28.8005 159 18.8594 159C8.91825 159 0.859375 154.275 0.859375 140.745C0.859375 127.214 18.8594 110 18.8594 110C18.8594 110 36.8594 127.214 36.8594 140.745Z" fill="#DFE4EA"/>
<path d="M18.0504 156.67L18.2336 145.408L25.8594 131.476L18.2623 143.642L18.3446 138.578L23.6004 128.499L18.3665 137.238L18.5146 128.131L24.1425 120.107L18.5379 126.699L18.6305 110L18.0488 132.107L18.0965 131.195L12.3746 122.448L18.0048 132.945L17.4716 143.116L17.4558 142.846L10.8594 133.642L17.4358 143.8L17.3691 145.072L17.3572 145.091L17.3626 145.195L16.01 171H17.8173L18.0341 157.671L24.5944 147.538L18.0504 156.67Z" fill="#3F3D56"/>
<rect x="112.359" y="34.5" width="87" height="131" rx="5.5" fill="white" fill-opacity="0.5" stroke="#464D5F" stroke-dasharray="4 4"/>
<path fill-rule="evenodd" clip-rule="evenodd" d="M73.3919 32.4843C72.4212 29.3091 74.2136 25.9493 77.3915 24.9873L139.415 6.21307L148.975 12.5225L161.388 19.8555L192.324 120.534C193.298 123.705 191.514 127.065 188.342 128.034L115.671 150.252C112.502 151.221 109.148 149.437 108.179 146.269L73.3919 32.4843Z" fill="#DDE3E9"/>
<path fill-rule="evenodd" clip-rule="evenodd" d="M69.5355 33.4449C68.5666 30.2759 70.3502 26.9216 73.5191 25.9528L134.811 7.21412L147.57 16.0045L157.991 21.7841L188.483 121.516C189.451 124.685 187.668 128.04 184.499 129.008L111.82 151.229C108.651 152.198 105.297 150.414 104.328 147.245L69.5355 33.4449Z" fill="white"/>
<path fill-rule="evenodd" clip-rule="evenodd" d="M103.006 47.9821L134.09 38.4787L103.006 47.9821Z" fill="#D8D8D8"/>
<path d="M103.006 47.9821L134.09 38.4787" stroke="#DFE4EA" stroke-linecap="round"/>
<path fill-rule="evenodd" clip-rule="evenodd" d="M109.302 52.8648L131.297 46.1403L109.302 52.8648Z" fill="#D8D8D8"/>
<path d="M109.302 52.8648L131.297 46.1403" stroke="#DFE4EA" stroke-linecap="round"/>
<path fill-rule="evenodd" clip-rule="evenodd" d="M158.154 21.8677L146.437 25.4428C143.732 26.2684 140.881 24.6869 140.149 21.9546L136.828 9.5625L158.154 21.8677Z" fill="#BDC2CD" fill-opacity="0.272645"/>
<path d="M74.4291 28.7647L74.0139 29.0433L74.2924 29.4585L74.7076 29.18L74.4291 28.7647ZM75.7554 28.1355L75.9016 28.6137L76.3798 28.4675L76.2336 27.9894L75.7554 28.1355ZM73.3149 27.1038L73.0364 26.6886L72.6211 26.9672L72.8997 27.3824L73.3149 27.1038ZM75.1707 26.2229L75.6488 26.0767L75.5027 25.5986L75.0245 25.7448L75.1707 26.2229ZM75.3169 26.7011L74.8387 26.8473L74.9849 27.3254L75.4631 27.1792L75.3169 26.7011ZM83.2712 24.2692L83.7494 24.123L83.6032 23.6449L83.125 23.791L83.2712 24.2692ZM83.5636 25.2255L83.7098 25.7037L84.1879 25.5575L84.0417 25.0793L83.5636 25.2255ZM75.6093 27.6574L75.4631 27.1792L74.9849 27.3254L75.1311 27.8036L75.6093 27.6574ZM72.2157 32.9275L72.7157 32.9262L72.7145 32.4262L72.2145 32.4275L72.2157 32.9275ZM72.9809 36.1621L73.1271 36.6402L73.6053 36.4941L73.4591 36.0159L72.9809 36.1621ZM71.0683 36.7468L70.5902 36.893L70.7364 37.3712L71.2145 37.225L71.0683 36.7468ZM70.5232 34.9637L71.0013 34.8175L70.5232 34.9637ZM70.2157 32.9325L70.2145 32.4325L69.7145 32.4338L69.7157 32.9338L70.2157 32.9325ZM75.8885 45.6723L76.0347 46.1504L76.5128 46.0042L76.3667 45.5261L75.8885 45.6723ZM74.7982 42.106L75.2763 41.9598L75.1301 41.4816L74.652 41.6278L74.7982 42.106ZM73.9759 46.257L73.4977 46.4032L73.6439 46.8814L74.1221 46.7352L73.9759 46.257ZM72.8856 42.6907L72.7394 42.2125L72.2612 42.3587L72.4074 42.8369L72.8856 42.6907ZM78.2509 53.3993L78.3971 53.8775L78.8752 53.7313L78.729 53.2531L78.2509 53.3993ZM77.7057 51.6162L78.1839 51.47L78.0377 50.9918L77.5595 51.138L77.7057 51.6162ZM76.3383 53.9841L75.8601 54.1302L76.0063 54.6084L76.4845 54.4622L76.3383 53.9841ZM75.7931 52.2009L75.6469 51.7227L75.1688 51.8689L75.315 52.3471L75.7931 52.2009ZM80.1056 64.5963L79.6275 64.7425L79.7737 65.2207L80.2518 65.0745L80.1056 64.5963ZM77.8571 57.2417L77.7109 56.7635L77.2327 56.9097L77.3789 57.3879L77.8571 57.2417ZM81.0619 64.304L81.2081 64.7821L81.6863 64.6359L81.5401 64.1578L81.0619 64.304ZM78.8134 56.9493L79.2915 56.8031L79.1454 56.325L78.6672 56.4711L78.8134 56.9493ZM74.7076 29.18C75.0651 28.9402 75.4646 28.7473 75.9016 28.6137L75.6093 27.6574C75.0773 27.82 74.5887 28.0556 74.1506 28.3495L74.7076 29.18ZM72.8997 27.3824L74.0139 29.0433L74.8443 28.4862L73.7301 26.8253L72.8997 27.3824ZM75.0245 25.7448C74.3026 25.9655 73.6358 26.2865 73.0364 26.6886L73.5935 27.5191C74.1123 27.171 74.6899 26.8928 75.3169 26.7011L75.0245 25.7448ZM75.795 26.5549L75.6488 26.0767L74.6925 26.3691L74.8387 26.8473L75.795 26.5549ZM83.125 23.791L75.1707 26.2229L75.4631 27.1792L83.4174 24.7473L83.125 23.791ZM84.0417 25.0793L83.7494 24.123L82.7931 24.4154L83.0854 25.3717L84.0417 25.0793ZM75.7554 28.1355L83.7098 25.7037L83.4174 24.7473L75.4631 27.1792L75.7554 28.1355ZM76.2336 27.9894L76.0874 27.5112L75.1311 27.8036L75.2773 28.2817L76.2336 27.9894ZM72.9139 34.2327C72.7803 33.7957 72.7168 33.3566 72.7157 32.9262L71.7157 32.9288C71.7171 33.4563 71.795 33.9931 71.9576 34.5251L72.9139 34.2327ZM73.4591 36.0159L72.9139 34.2327L71.9576 34.5251L72.5028 36.3083L73.4591 36.0159ZM71.2145 37.225L73.1271 36.6402L72.8348 35.6839L70.9221 36.2687L71.2145 37.225ZM70.045 35.1099L70.5902 36.893L71.5465 36.6006L71.0013 34.8175L70.045 35.1099ZM69.7157 32.9338C69.7176 33.6557 69.8243 34.3879 70.045 35.1099L71.0013 34.8175C70.8096 34.1905 70.7173 33.556 70.7157 32.9313L69.7157 32.9338ZM72.2145 32.4275L70.2145 32.4325L70.217 33.4325L72.217 33.4275L72.2145 32.4275ZM76.3667 45.5261L75.2763 41.9598L74.32 42.2521L75.4103 45.8185L76.3667 45.5261ZM74.1221 46.7352L76.0347 46.1504L75.7423 45.1941L73.8297 45.7789L74.1221 46.7352ZM72.4074 42.8369L73.4977 46.4032L74.454 46.1108L73.3637 42.5445L72.4074 42.8369ZM74.652 41.6278L72.7394 42.2125L73.0317 43.1689L74.9444 42.5841L74.652 41.6278ZM78.729 53.2531L78.1839 51.47L77.2276 51.7623L77.7727 53.5455L78.729 53.2531ZM76.4845 54.4622L78.3971 53.8775L78.1047 52.9212L76.1921 53.5059L76.4845 54.4622ZM75.315 52.3471L75.8601 54.1302L76.8164 53.8379L76.2713 52.0547L75.315 52.3471ZM77.5595 51.138L75.6469 51.7227L75.9393 52.6791L77.8519 52.0943L77.5595 51.138ZM80.5838 64.4501L78.3352 57.0955L77.3789 57.3879L79.6275 64.7425L80.5838 64.4501ZM80.9157 63.8258L79.9594 64.1182L80.2518 65.0745L81.2081 64.7821L80.9157 63.8258ZM78.3352 57.0955L80.5838 64.4501L81.5401 64.1578L79.2915 56.8031L78.3352 57.0955ZM78.0033 57.7198L78.9596 57.4275L78.6672 56.4711L77.7109 56.7635L78.0033 57.7198Z" fill="#C3C8CD" fill-opacity="0.341865"/>
<path fill-rule="evenodd" clip-rule="evenodd" d="M70.527 82.5243C72.1319 83.8066 73.7815 84.5491 74.6176 84.4581C76.7141 84.2301 77.9226 76.9818 76.7592 73.8938C75.5958 70.8058 67.7185 68.4241 66.5141 74.0491C66.096 76.0014 66.6917 77.8798 67.7355 79.491L64.065 89.4019L70.5528 90.3137L70.527 82.5243Z" fill="#CDD2DD"/>
<path fill-rule="evenodd" clip-rule="evenodd" d="M74.2164 70.366C73.3672 69.9759 72.5159 69.7509 71.966 69.7357C72.3758 69.0543 72.6114 68.2641 72.6223 67.4639C72.6328 66.6864 70.1069 65.1373 67.3317 65.9716C64.5565 66.806 63.4537 69.1209 63.9526 69.8579C64.3979 70.5157 65.1189 71.0099 65.8433 71.2836C65.2684 71.7713 63.9526 72.0932 63.6705 75.4105C63.3884 78.7277 65.7953 80.4464 66.102 80.5549C66.6825 80.7602 67.374 80.8362 67.9 80.4337C68.0896 80.2886 68.3018 80.1026 68.4517 79.9138C68.5056 79.846 68.5387 79.8013 68.496 79.7215C68.4448 79.626 68.3517 79.5452 68.2798 79.466C67.8701 79.0145 67.6553 78.4583 67.6691 77.8352C67.683 77.203 67.9659 76.4241 68.6197 76.2392C69.4267 76.011 70.2095 76.5132 70.8345 76.9666C71.2614 76.0118 71.9767 75.1987 72.9649 74.8721C74.0582 74.5108 75.2396 74.6166 76.3511 74.331C76.6407 74.2566 76.6543 74.3627 76.8882 74.1609C76.9859 74.0766 75.0656 70.7561 74.2164 70.366Z" fill="#3B4151"/>
<path fill-rule="evenodd" clip-rule="evenodd" d="M59.6016 112.117L66.1766 147.218L66.1766 175.48L71.0506 176.165L69.7079 114.985L59.6016 112.117Z" fill="#CDD3DE"/>
<path fill-rule="evenodd" clip-rule="evenodd" d="M59.4013 110.845C57.5684 129.114 51.4545 139.604 51.0612 141.232C50.668 142.86 47.6375 156.23 38.6806 174.703L43.8713 174.703C54.7405 157.301 59.618 144.921 60.908 142.616C62.198 140.312 66.3887 130.796 72.9164 113.989L59.4013 110.845Z" fill="#CDD3DE"/>
<path fill-rule="evenodd" clip-rule="evenodd" d="M59.3828 112.086C60.3771 124.497 67.8897 140.155 65.329 171.461L71.6565 171.672C75.989 144.665 74.4036 128.252 72.3127 114.985L59.3828 112.086Z" fill="#3B4151"/>
<path fill-rule="evenodd" clip-rule="evenodd" d="M58.8203 111.72C57.5218 113.942 52.0837 120.027 50.994 125.534C47.1836 144.788 49.2128 149.082 39.4206 171.038L46.3935 171.038C57.239 153.914 62.8837 133.364 70.0031 112.121L58.8203 111.72Z" fill="#464D5F"/>
<path fill-rule="evenodd" clip-rule="evenodd" d="M37.6119 176.599L38.6996 173.546C38.9141 172.944 39.6384 172.689 40.2402 172.904C42.4323 173.687 45.2449 173.549 45.2449 173.549C47.3605 176.147 50.643 178.215 52.6724 179.34C53.6166 179.863 53.9736 181.084 53.4 181.999L43.6254 179.196L37.9236 177.561L37.6119 176.599Z" fill="#8A92A2"/>
<path fill-rule="evenodd" clip-rule="evenodd" d="M64.7852 179.74L65.102 176.515C65.1645 175.879 65.8058 175.456 66.4417 175.519C68.7581 175.749 71.4535 174.934 71.4535 174.934C74.135 176.943 77.8202 178.155 80.0614 178.756C81.1042 179.035 81.746 180.134 81.4108 181.16L71.2485 180.805L65.3205 180.598L64.7852 179.74Z" fill="#8A92A2"/>
<path fill-rule="evenodd" clip-rule="evenodd" d="M86.2413 95.3011L76.4359 98.1145L78.1467 100.945L86.7835 98.1145C88.6543 97.8691 89.7955 97.8627 90.4435 97.8592C91.1159 97.8554 91.2571 97.8546 91.1312 97.5927C90.9193 97.1518 90.197 96.8889 89.5543 96.655C89.0721 96.4795 88.6348 96.3203 88.4915 96.1145C88.1573 95.6345 87.9107 95.1125 87.9107 94.0017C87.9107 93.2942 87.9791 93.0366 87.8993 92.9769C87.8538 92.9428 87.7603 92.9731 87.5785 93.0209C87.2714 93.5331 87.2078 93.8957 87.1564 94.1888C87.0798 94.6257 87.0303 94.9081 86.2413 95.3011ZM94.84 104.056L90.3025 105.788L89.9457 110.066C89.9457 110.066 92.9509 108.472 95.3897 108.145C98.4992 107.727 99.7995 107.258 101.524 105.592C102.447 104.701 103.394 102.782 102.742 102.021C102.491 101.73 101.344 102.174 100.173 102.628C99.2804 102.973 98.3744 103.324 97.8418 103.358C97.1248 103.405 97.3339 102.509 97.5009 101.793C97.6208 101.28 97.719 100.859 97.438 100.945C96.2024 100.793 94.84 104.056 94.84 104.056Z" fill="#CED4DE"/>
<path fill-rule="evenodd" clip-rule="evenodd" d="M71.4065 97.062C74.7677 97.4056 79.3455 97.3231 84.5588 95.376L85.8298 99.0021C82.0635 101.308 77.0439 102.989 73.0107 102.446C69.8322 102.019 68.7591 98.6829 71.4065 97.062Z" fill="#8A92A2"/>
<path fill-rule="evenodd" clip-rule="evenodd" d="M52.8635 122.543C52.2492 122.807 51.8194 122.991 51.6432 123.001C56.1783 111.007 56.8841 103.382 57.3801 98.0234C57.7266 94.2805 57.9707 91.6431 59.3459 89.3949C60.6226 87.3075 65.2404 85.6465 65.4726 85.6792L65.7138 85.7131L72.3736 86.649L73.136 86.7562C73.0833 87.6025 72.9843 88.2101 72.8997 88.7301C72.7501 89.6488 72.645 90.2939 72.9178 91.4982C73.0522 92.0919 73.78 93.3925 74.4461 94.5829C74.9582 95.4981 75.4339 96.3482 75.5755 96.7618C76.3081 98.9019 75.1394 102.211 73.9579 104.233C74.0951 104.334 74.2394 104.423 74.3911 104.501C79.3446 107.028 93.3643 104.133 93.3643 104.133C93.3643 104.133 93.9881 105.779 93.3643 108.509C84.5419 111.665 77.565 112.688 72.3434 112.14C72.5044 112.697 72.6949 113.311 72.9178 113.991C74.539 118.934 74.4321 127.584 74.3744 132.251C74.3561 133.731 74.3428 134.811 74.3911 135.245C74.4262 135.56 73.5109 134.088 72.2252 132.019C70.1184 128.628 67.017 123.638 65.4726 122.294C61.4999 118.836 55.4924 121.415 52.8635 122.543Z" fill="#8A92A2"/>
<path fill-rule="evenodd" clip-rule="evenodd" d="M280.338 110.303C281.073 110.212 281.857 110.244 282.54 110.537C283.993 111.159 284.406 112.89 284.386 114.298C284.364 115.812 284.046 117.467 285.187 118.688C285.712 119.249 286.365 119.678 286.88 120.25C287.43 120.86 287.862 121.559 288.182 122.309C288.769 123.687 289.058 125.308 288.521 126.754C288.048 128.027 286.858 129.175 287.115 130.623C287.383 132.133 288.892 133.287 289.835 134.411C290.903 135.684 291.886 137.311 292.047 138.98C292.202 140.579 291.512 142.197 290.453 143.406C288.337 145.822 285.156 147.006 281.949 146.999C280.588 146.996 279.046 146.934 277.871 146.196C277.508 145.967 277.316 145.711 277.1 145.355C276.907 145.036 276.651 144.829 276.355 144.603C275.705 144.107 275.235 143.438 274.935 142.69C273.772 139.784 274.702 136.188 276.331 133.607C276.717 132.996 277.033 132.407 276.845 131.679C276.65 130.918 276.169 130.232 275.743 129.578C275.323 128.931 274.843 128.315 274.514 127.616C274.17 126.884 274.073 126.117 274.134 125.316C274.248 123.811 274.892 122.422 275.804 121.212C276.682 120.046 277.713 118.93 277.716 117.403C277.718 115.784 276.645 114.344 277.102 112.697C277.292 112.016 277.672 111.317 278.284 110.908C278.872 110.516 279.647 110.388 280.338 110.303Z" fill="#DDE3E9"/>
<path fill-rule="evenodd" clip-rule="evenodd" d="M279.855 112.89C279.869 112.673 280.125 112.542 280.326 112.599C280.591 112.674 280.586 112.924 280.579 113.146C280.558 113.83 280.656 114.495 280.819 115.158C281.157 116.538 281.783 117.809 282.279 119.134C282.774 120.458 283.007 121.825 282.716 123.226C282.442 124.548 282.012 125.834 281.732 127.157C281.484 128.323 281.221 129.552 281.598 130.715C281.96 131.834 282.761 132.746 283.337 133.758C284.531 135.851 285.06 138.174 285.131 140.565C285.164 141.675 285.134 142.795 284.879 143.884C284.732 144.511 284.535 145.358 284.002 145.791C283.757 145.991 283.337 146.06 283.13 145.764C282.936 145.487 283.106 145.058 283.168 144.762C283.435 143.483 283.488 142.176 283.425 140.877C283.363 139.619 283.215 138.363 282.823 137.162C282.459 136.047 281.905 135.045 281.254 134.07C280.59 133.076 279.901 132.08 279.626 130.902C279.348 129.706 279.574 128.489 279.877 127.315C280.197 126.074 280.616 124.869 281.049 123.661C281.472 122.485 281.621 121.372 281.388 120.14C280.928 117.707 279.695 115.424 279.855 112.89Z" fill="white"/>
<path fill-rule="evenodd" clip-rule="evenodd" d="M299.33 114.398C300.285 114.668 301.233 115.105 301.913 115.79C303.36 117.245 302.916 119.445 302.117 121.052C301.258 122.782 299.955 124.521 300.689 126.505C301.027 127.418 301.594 128.244 301.914 129.163C302.257 130.146 302.404 131.169 302.385 132.194C302.351 134.077 301.814 136.086 300.358 137.474C299.075 138.695 296.979 139.409 296.499 141.203C295.999 143.074 297.222 145.17 297.765 146.943C298.379 148.95 298.695 151.321 297.976 153.321C297.287 155.238 295.548 156.744 293.579 157.594C289.644 159.291 285.076 159.03 281.131 157.386C279.456 156.688 277.592 155.83 276.551 154.382C276.23 153.935 276.135 153.543 276.064 153.024C276.002 152.559 275.801 152.19 275.561 151.779C275.033 150.878 274.822 149.87 274.865 148.858C275.03 144.925 278.153 141.267 281.578 139.133C282.39 138.627 283.103 138.112 283.273 137.179C283.45 136.205 283.235 135.171 283.071 134.203C282.909 133.246 282.657 132.292 282.637 131.322C282.616 130.305 282.918 129.375 283.434 128.485C284.402 126.814 285.959 125.547 287.747 124.621C289.47 123.729 291.353 122.973 292.196 121.219C293.089 119.36 292.561 117.158 294.029 115.499C294.637 114.813 295.489 114.203 296.468 114.046C297.407 113.895 298.433 114.143 299.33 114.398Z" fill="#DDE3E9"/>
<path fill-rule="evenodd" clip-rule="evenodd" d="M297.383 117.473C297.518 117.23 297.903 117.212 298.119 117.38C298.404 117.602 298.261 117.887 298.131 118.139C297.732 118.915 297.491 119.73 297.329 120.578C296.993 122.339 297.069 124.123 296.955 125.903C296.842 127.681 296.382 129.373 295.262 130.836C294.206 132.216 292.976 133.475 291.911 134.853C290.972 136.067 289.979 137.347 289.808 138.878C289.642 140.352 290.128 141.812 290.285 143.272C290.609 146.295 289.993 149.24 288.777 152.027C288.213 153.321 287.566 154.595 286.659 155.716C286.137 156.362 285.433 157.236 284.544 157.46C284.133 157.564 283.58 157.427 283.488 156.981C283.401 156.562 283.843 156.156 284.08 155.848C285.105 154.513 285.883 153.037 286.512 151.509C287.122 150.03 287.625 148.509 287.799 146.925C287.959 145.455 287.826 144.018 287.558 142.562C287.285 141.077 286.981 139.576 287.286 138.08C287.596 136.561 288.537 135.277 289.548 134.082C290.617 132.818 291.789 131.647 292.979 130.48C294.138 129.343 294.929 128.139 295.313 126.603C296.074 123.567 295.805 120.306 297.383 117.473Z" fill="white"/>
<path fill-rule="evenodd" clip-rule="evenodd" d="M271.186 125C272.659 125 273.955 125.787 274.848 126.904C275.893 128.212 276.104 129.809 276.528 131.368C276.739 132.143 277.102 132.913 277.739 133.44C278.318 133.92 279.052 134.016 279.745 134.25C281.13 134.718 282.248 135.845 282.69 137.22C283.228 138.898 282.658 140.59 282.756 142.29C282.846 143.852 284.374 144.826 285.603 145.575C286.815 146.313 287.907 147.004 288.272 148.442C288.659 149.967 288.788 151.669 288.252 153.176C287.36 155.684 284.747 156.789 282.223 156.96C279.933 157.116 277.052 156.872 275.332 155.196C274.303 154.193 273.93 152.79 273.976 151.395C274.005 150.527 274.175 149.668 274.396 148.829C274.552 148.235 274.763 147.643 274.823 147.029C274.983 145.395 273.485 145.081 272.21 144.632C270.589 144.062 269.454 142.985 268.665 141.485C267.931 140.088 267.622 138.52 268.063 136.982C268.288 136.197 268.696 135.484 269.249 134.878C269.493 134.612 269.836 134.389 270.056 134.109C270.261 133.847 270.216 133.508 270.146 133.202C269.819 131.786 268.8 130.613 268.436 129.2C268.107 127.924 268.301 126.336 269.458 125.513C269.958 125.158 270.575 125.004 271.186 125Z" fill="#C5CFD6"/>
<path fill-rule="evenodd" clip-rule="evenodd" d="M273.194 128.689C274.756 130.366 275.18 132.641 275.305 134.846C275.375 136.082 275.302 137.386 275.662 138.586C275.971 139.612 276.694 140.397 277.439 141.139C278.939 142.631 280.612 144.149 281.051 146.31C281.308 147.578 281.135 148.887 281.49 150.141C281.814 151.281 282.383 152.401 283.076 153.363C283.634 154.139 284.36 154.732 284.97 155.455C285.156 155.675 285.423 156 285.346 156.311C285.256 156.676 284.795 156.791 284.468 156.734C283.706 156.6 283.064 155.867 282.566 155.333C281.837 154.553 281.217 153.715 280.714 152.774C280.155 151.729 279.705 150.62 279.513 149.447C279.313 148.231 279.413 146.963 278.957 145.796C278.19 143.832 276.331 142.673 274.986 141.142C273.311 139.234 273.561 136.86 273.733 134.514C273.827 133.224 273.921 131.768 273.274 130.591C273.027 130.141 272.477 129.722 272.371 129.212C272.274 128.744 272.804 128.271 273.194 128.689Z" fill="white"/>
<ellipse cx="285.859" cy="163.5" rx="10" ry="7.5" fill="#8A92A2"/>
<path fill-rule="evenodd" clip-rule="evenodd" d="M225.052 78.5568C223.286 79.9255 221.482 80.7036 220.576 80.5877C218.304 80.2968 217.124 72.3557 218.443 69.0059C219.762 65.6562 228.356 63.2115 229.562 69.3795C229.98 71.5202 229.299 73.5601 228.137 75.2992L231.942 86.1976L224.883 87.0644L225.052 78.5568Z" fill="#CDD2DD"/>
<path fill-rule="evenodd" clip-rule="evenodd" d="M223.739 70.7935C223.018 69.9697 222.348 69.3562 221.536 69.0517C218.439 69.4812 218.008 68.9759 217.78 67.1223C218.238 66.7062 219.933 65.892 221.893 65.4808C222.869 65.071 224.072 64.9778 225.284 65.3129C226.756 65.5374 228.067 66.2492 228.797 67.7934C231.127 70.8426 230.085 74.4425 228.258 75.8528C227.658 75.303 227.127 74.764 226.649 74.2444C226.938 73.8873 227.088 73.4202 227.028 72.9311C226.909 71.9676 226.023 71.2836 225.049 71.4033C224.977 71.4121 224.907 71.425 224.838 71.4417C224.942 72.6517 225.262 76.7493 224.962 78.2232C224.608 79.9607 221.397 80.771 220.259 80.9107C219.277 81.0313 219.197 80.1075 219.14 79.4454C219.132 79.3501 219.124 79.2602 219.114 79.1796C219.094 79.0112 219.315 78.9844 219.566 78.9542C219.891 78.9149 220.264 78.8698 220.219 78.5011C220.17 78.0992 219.57 77.86 219.034 77.6459C218.699 77.5123 218.389 77.3885 218.252 77.2411C217.82 76.7762 217.612 76.1033 218.168 76.035C218.472 75.9977 218.911 76.1197 219.438 76.2666C220.234 76.4883 221.234 76.7664 222.28 76.638C224.008 76.4258 223.742 70.8631 223.739 70.7935Z" fill="#3B4151"/>
<path fill-rule="evenodd" clip-rule="evenodd" d="M236.891 111L226.023 147.97L220.912 175.728H215.782L220.903 111H236.891Z" fill="#B28B67"/>
<path fill-rule="evenodd" clip-rule="evenodd" d="M236.891 111L226.023 147.97L220.912 175.728H215.782L220.903 111H236.891Z" fill="#CED4DE"/>
<path fill-rule="evenodd" clip-rule="evenodd" d="M241.779 111C241.02 130.206 241.319 140.681 241.489 142.426C241.659 144.171 242.622 155.857 249.188 176.314H243.852C235.157 156.689 232.122 145.003 231.124 142.426C230.127 139.849 227.182 129.374 222.882 111H241.779Z" fill="#CED4DE"/>
<path fill-rule="evenodd" clip-rule="evenodd" d="M237.125 111C234.298 123.722 229.409 144.028 222.458 171.921L215.31 170.125C217.337 141.568 217.885 125.807 220.904 111H237.125Z" fill="#3B4151"/>
<path fill-rule="evenodd" clip-rule="evenodd" d="M239.763 111C239.606 115.048 241.629 120.11 240.955 125.484C238.93 141.63 244.256 153.995 248.961 172.22H240.955C232.244 152.888 226.001 134.06 221.734 111H239.763Z" fill="#464D5F"/>
<path fill-rule="evenodd" clip-rule="evenodd" d="M246.9 175.881C248.041 175.658 249.346 176.031 249.583 177.169C249.624 177.363 249.648 177.541 249.648 177.686C249.648 178.478 249.381 179.998 249.381 179.998C248.45 179.998 232.649 179.998 232.649 179.998C232.649 179.998 231.996 177.87 233.402 177.7C234.807 177.53 235.736 177.393 235.736 177.393L242.859 174.258C243.372 174.033 243.969 174.272 244.185 174.788L244.408 175.323C244.408 175.323 245.709 175.923 246.523 175.923C246.636 175.923 246.763 175.907 246.9 175.881Z" fill="#8A92A2"/>
<path fill-rule="evenodd" clip-rule="evenodd" d="M219.017 174.881C220.159 174.658 221.463 175.031 221.701 176.169C221.741 176.363 221.766 176.541 221.766 176.686C221.766 177.478 221.498 178.998 221.498 178.998C220.567 178.998 204.766 178.998 204.766 178.998C204.766 178.998 204.113 176.87 205.519 176.7C206.924 176.53 207.853 176.393 207.853 176.393L214.976 173.258C215.489 173.033 216.086 173.272 216.302 173.788L216.526 174.323C216.526 174.323 217.826 174.923 218.64 174.923C218.753 174.923 218.881 174.907 219.017 174.881Z" fill="#8A92A2"/>
<path fill-rule="evenodd" clip-rule="evenodd" d="M254.031 123.306C252.957 121.683 245.719 105.175 245.719 105.175L241.81 105.975C241.81 105.975 249.733 123.442 250.323 124.498C251.09 125.87 250.346 128.091 249.842 129.597C249.764 129.83 249.692 130.045 249.632 130.238C250.625 130.539 251.016 129.98 251.428 129.391C251.893 128.725 252.385 128.02 253.803 128.473C254.351 128.647 254.876 128.869 255.389 129.086C257.162 129.834 258.791 130.521 260.705 129.005C261.009 128.764 261.276 127.967 260.335 127.485C257.991 126.284 254.557 124.099 254.031 123.306ZM203.355 117.347L211.901 109.384L214.597 114.198L205.774 119.147C203.521 122.521 202.207 123.973 201.834 123.504C201.519 123.109 201.675 122.683 201.819 122.291C201.931 121.986 202.035 121.701 201.904 121.466C201.604 120.931 199.846 121.207 198.189 121.539C196.532 121.872 196.929 121.076 197.288 120.664C198.871 119.444 200.893 118.338 203.355 117.347Z" fill="#CED4DE"/>
<path fill-rule="evenodd" clip-rule="evenodd" d="M227.355 81.8449L224.759 81.726C221.248 85.5561 218.787 93.1103 216.431 98.3299C213.118 105.671 209.948 110.898 203.776 116.521L206.979 119.591C211.984 117.231 216.38 113.279 219.531 109.941C227.321 101.685 228.811 91.3377 227.355 81.8449Z" fill="#8A92A2"/>
<path fill-rule="evenodd" clip-rule="evenodd" d="M242.32 112.079C242.32 112.079 228.407 110.633 221.2 111.518C220.172 111.644 221.142 111.293 221.2 110.534C221.866 101.775 225.144 95.6102 223.596 81.7543L229.964 79.951C236.381 87.8278 239.528 98.1094 242.32 112.079Z" fill="white"/>
<path fill-rule="evenodd" clip-rule="evenodd" d="M245.685 118.034C246.959 120.244 248.176 122.162 249.282 123.622L254.109 123.029C251.701 118.988 248.891 111.501 247.045 106.584C246.399 104.862 245.871 103.456 245.52 102.622C244.851 101.035 244.143 99.4469 243.337 97.6399C242.332 95.3854 241.174 92.7896 239.751 89.4279C239.599 89.0682 239.444 88.686 239.285 88.2944C239.139 87.9356 238.99 87.5689 238.837 87.2045C239.702 86.8557 240.492 86.2288 241.104 85.1989C243.971 80.3721 242.381 78.1213 239.751 77.6667C238.534 77.4564 237.507 77.9412 236.437 78.4459C236.078 78.6154 235.714 78.7871 235.336 78.9356C234.409 79.3002 232.993 79.6102 231.451 79.7996C231.184 79.8323 230.953 79.8878 230.753 79.9628C230.695 79.9483 230.645 79.9362 230.603 79.9264L230.568 79.8782L230.467 79.8964C230.455 79.8939 230.449 79.8928 230.449 79.8928L230.442 79.9009L227.831 80.3721C227.831 80.3721 227.991 92.9421 228.625 100.161C228.974 104.14 227.831 116.577 225.178 122.001L245.685 118.034Z" fill="#8A92A2"/>
<path fill-rule="evenodd" clip-rule="evenodd" d="M245.602 117.876C243.888 114.888 242.075 111.378 240.299 107.741C240.325 111.983 240.029 116.283 238.953 118.692L245.602 117.876Z" fill="black" fill-opacity="0.1"/>
</svg>
