<svg width="401" height="294" viewBox="0 0 401 294" fill="none" xmlns="http://www.w3.org/2000/svg">
<path d="M222 200C277.228 200 322 155.228 322 100C322 44.7715 277.228 0 222 0C166.772 0 122 44.7715 122 100C122 155.228 166.772 200 222 200Z" fill="#F2F2F2"/>
<path d="M234.536 101.456C231.062 99.8397 226.796 99.3097 223.26 100.812C219.724 102.314 217.314 106.164 218.457 109.571C218.976 111.116 220.156 112.635 219.696 114.195C219.342 115.396 218.107 116.189 216.894 116.753C215.682 117.317 214.355 117.791 213.478 118.741C212.601 119.692 212.418 121.329 213.513 122.067C213.874 122.309 214.326 122.425 214.676 122.681C214.974 122.923 215.189 123.253 215.291 123.623C215.394 123.994 215.378 124.387 215.246 124.748C214.954 125.474 214.472 126.109 213.85 126.584C212.606 127.657 210.962 128.885 211.348 130.407C211.492 130.814 211.731 131.181 212.046 131.475C212.361 131.77 212.743 131.985 213.158 132.1C214.022 132.349 214.917 132.467 215.815 132.451L252.519 133.607C253.731 133.698 254.949 133.63 256.143 133.405C256.723 133.299 257.275 133.075 257.765 132.746C258.255 132.417 258.671 131.99 258.989 131.493C259.692 130.192 259.23 128.589 258.362 127.374C257.494 126.16 256.266 125.201 255.251 124.086C254.236 122.97 253.405 121.578 253.584 120.136C253.727 118.982 254.488 117.984 255.035 116.936C255.581 115.887 255.899 114.577 255.191 113.612C254.194 112.252 251.8 112.375 250.666 111.109C249.81 110.153 249.975 108.776 249.89 107.544C249.685 104.578 247.632 101.778 244.71 100.477C243.224 99.8395 241.608 99.5641 239.994 99.674C238.381 99.7838 236.816 100.276 235.431 101.109L234.536 101.456Z" fill="#2F2E41"/>
<path d="M229.364 120.807C228.99 121.422 228.755 122.112 228.677 122.827C228.599 123.543 228.678 124.267 228.91 124.948C229.141 125.63 229.519 126.252 230.018 126.771C230.516 127.291 231.122 127.695 231.793 127.955L231.172 145.44L239.553 140.651L238.935 124.948C239.297 123.792 238.621 122.423 238.124 121.318C237.627 120.213 236.741 119.329 235.635 118.833C234.529 118.338 233.28 118.265 232.124 118.628C230.968 118.992 229.986 119.767 229.364 120.807Z" fill="#A0616A"/>
<path d="M47.3342 258.814C50.4328 259.903 53.7597 260.176 56.9944 259.606C60.2291 259.036 63.2625 257.643 65.8024 255.56C72.271 250.131 74.2991 241.186 75.9493 232.904L80.8302 208.407L70.6115 215.443C63.2628 220.503 55.7485 225.725 50.6603 233.054C45.572 240.384 43.351 250.389 47.4393 258.319" fill="#E6E6E6"/>
<path d="M48.2166 288.473C47.1823 280.94 46.1188 273.309 46.8443 265.695C47.4886 258.932 49.5517 252.327 53.7519 246.912C55.9814 244.042 58.6943 241.584 61.7686 239.647C62.5702 239.141 63.3081 240.412 62.5099 240.915C57.1905 244.277 53.0762 249.242 50.76 255.092C48.2019 261.599 47.7912 268.692 48.232 275.603C48.4986 279.783 49.0635 283.936 49.6329 288.083C49.6778 288.27 49.6498 288.468 49.5546 288.636C49.4593 288.803 49.304 288.929 49.12 288.986C48.9322 289.037 48.732 289.011 48.5629 288.915C48.3938 288.819 48.2693 288.66 48.2166 288.473Z" fill="#F2F2F2"/>
<path d="M116.66 278.097C117.87 279.526 119.427 280.619 121.181 281.271C122.936 281.924 124.829 282.113 126.678 281.821C131.424 281.016 134.999 277.203 138.198 273.607L147.659 262.969L140.607 263.483C135.535 263.852 130.335 264.254 125.721 266.391C121.106 268.528 117.13 272.807 116.854 277.884" fill="#E6E6E6"/>
<path d="M108.541 292.931C110.204 288.929 111.881 284.871 114.432 281.336C116.698 278.197 119.617 275.544 123.243 274.092C125.166 273.324 127.209 272.898 129.279 272.831C129.819 272.814 129.815 273.651 129.277 273.669C125.693 273.788 122.239 275.043 119.414 277.252C116.28 279.714 114.034 283.083 112.258 286.608C111.185 288.74 110.265 290.945 109.35 293.148C109.318 293.253 109.247 293.342 109.152 293.397C109.057 293.452 108.944 293.469 108.837 293.444C108.73 293.415 108.639 293.345 108.584 293.249C108.528 293.153 108.513 293.039 108.541 292.931H108.541Z" fill="#F2F2F2"/>
<path d="M58.1758 275.142C59.5047 277.162 61.3315 278.805 63.48 279.914C65.6285 281.023 68.0263 281.56 70.4426 281.473C76.6523 281.178 81.8291 276.844 86.4893 272.73L100.273 260.56L91.1505 260.123C84.5901 259.809 77.8604 259.516 71.6118 261.54C65.3632 263.563 59.6004 268.432 58.4578 274.899" fill="#E6E6E6"/>
<path d="M45.2939 292.804C50.2721 283.995 56.0462 274.206 66.3637 271.077C69.2325 270.21 72.2406 269.899 75.226 270.162C76.1669 270.243 75.932 271.693 74.9928 271.612C69.9886 271.197 64.994 272.518 60.85 275.354C56.8622 278.068 53.7573 281.842 51.1294 285.844C49.5197 288.295 48.0778 290.85 46.6357 293.402C46.1748 294.217 44.8277 293.629 45.2939 292.804Z" fill="#F2F2F2"/>
<path d="M223.07 142.454C232.968 137.013 245.287 138.105 255.952 141.825C266.617 145.544 276.281 151.638 286.638 156.145C318.286 169.918 356.43 167.697 386.265 150.344C389.087 156.908 386.06 164.416 382.735 170.739C379.409 177.063 375.62 183.916 376.989 190.928C378.74 199.901 388.148 205.281 391.96 213.591C395.578 221.479 393.636 230.743 390.86 238.965C388.084 247.188 384.482 255.472 384.953 264.138C385.425 272.804 391.721 281.967 400.4 281.974C387.538 283.973 374.424 285.972 361.57 283.924C348.716 281.876 335.93 275.078 329.962 263.512C326.979 257.73 325.829 251.083 322.403 245.552C316.568 236.132 305.37 231.702 294.804 228.363C284.238 225.024 272.93 221.808 265.491 213.596C258.402 205.771 256.157 194.87 252.402 185.003C246.077 168.484 235.091 154.158 220.779 143.764" fill="#FF3366"/>
<path d="M211.338 287.58L205.59 285.852L209.516 262.857L218 265.407L211.338 287.58Z" fill="#A0616A"/>
<path d="M211.137 293.592L192.602 288.023L192.672 287.789C192.957 286.841 193.425 285.959 194.051 285.193C194.676 284.426 195.446 283.791 196.318 283.322C197.189 282.853 198.144 282.561 199.128 282.461C200.112 282.362 201.107 282.457 202.054 282.741L211.46 285.567C212.518 285.885 213.118 287.001 212.8 288.058L211.137 293.592Z" fill="#2F2E41"/>
<path d="M265.59 287.774L259.588 287.774L256.732 264.622L265.591 264.622L265.59 287.774Z" fill="#A0616A"/>
<path d="M267.124 293.593L247.77 293.592V293.347C247.77 292.358 247.964 291.378 248.343 290.464C248.722 289.55 249.276 288.72 249.976 288.02C250.675 287.321 251.506 286.766 252.42 286.387C253.334 286.009 254.313 285.814 255.303 285.814L265.124 285.814C266.229 285.814 267.124 286.71 267.124 287.814L267.124 293.593Z" fill="#2F2E41"/>
<path d="M257.261 270.263C256.737 270.263 256.231 270.076 255.832 269.736C255.434 269.396 255.169 268.925 255.087 268.408L246.174 212.812C246.115 212.444 245.938 212.105 245.668 211.847C245.399 211.588 245.053 211.425 244.683 211.381C244.313 211.338 243.938 211.416 243.616 211.605C243.294 211.793 243.043 212.081 242.9 212.426L219.809 268.013C219.594 268.526 219.194 268.939 218.688 269.17C218.181 269.401 217.607 269.433 217.078 269.258L208.738 266.478C208.219 266.307 207.782 265.948 207.514 265.471C207.245 264.995 207.164 264.436 207.286 263.902L226.208 180.17C226.301 179.767 226.505 179.398 226.797 179.104C227.088 178.811 227.456 178.605 227.859 178.51L253.236 172.619C253.548 172.548 253.872 172.545 254.185 172.61C254.498 172.675 254.794 172.807 255.052 172.996C271.762 185.137 270.35 224.806 267.236 267.879C267.197 268.418 266.961 268.924 266.574 269.301C266.186 269.678 265.673 269.899 265.133 269.923L257.358 270.261C257.325 270.262 257.293 270.263 257.261 270.263Z" fill="#2F2E41"/>
<path d="M235.89 133.323C242.532 133.323 247.915 127.939 247.915 121.298C247.915 114.656 242.532 109.272 235.89 109.272C229.249 109.272 223.865 114.656 223.865 121.298C223.865 127.939 229.249 133.323 235.89 133.323Z" fill="#A0616A"/>
<path d="M236.418 183.622C233.531 183.604 230.685 182.946 228.083 181.696C228.026 181.669 227.981 181.621 227.958 181.562L218.922 158.151C217.764 155.149 217.103 151.977 216.967 148.762C216.899 147.138 217.171 145.518 217.766 144.006C218.361 142.494 219.059 137.875 220.216 136.734C221.373 135.593 222.965 137.955 224.485 137.381C226.005 136.807 227.629 136.558 229.252 136.649L240.702 137.294C243.66 137.462 246.443 138.751 248.484 140.899C249.518 141.987 250.322 143.254 250.866 144.625C251.917 147.272 252.111 148.599 252.437 151.428C252.864 155.128 249.493 160.081 249.722 163.799C249.933 167.24 250.868 171.495 253.819 174.446C253.907 174.534 253.915 174.673 253.838 174.771C253.751 174.882 246.734 183.621 236.418 183.622Z" fill="#3F3D56"/>
<path d="M223.595 119.588C227.392 119.283 230.545 115.49 230.15 111.7C230.106 113.262 230.637 114.786 231.643 115.982C232.648 117.177 234.059 117.962 235.605 118.185C237.347 118.377 239.257 117.85 240.773 118.729C242.452 119.702 242.99 122.066 244.739 122.907C246.429 123.719 248.576 122.611 249.412 120.932C250.247 119.253 250.042 117.235 249.488 115.444C248.699 112.888 247.262 110.581 245.316 108.745C243.371 106.91 240.984 105.609 238.387 104.97C235.79 104.33 233.072 104.374 230.497 105.096C227.922 105.818 225.577 107.194 223.691 109.091C222.095 110.697 220.827 112.744 220.621 115C220.416 117.255 221.462 119.702 223.487 120.716L223.595 119.588Z" fill="#2F2E41"/>
<path d="M195.618 86.278C196.252 86.6195 196.803 87.0958 197.232 87.6733C197.662 88.2508 197.959 88.9155 198.104 89.6205C198.249 90.3255 198.238 91.0537 198.071 91.7538C197.772 93.0062 197.601 94.4013 198.291 95.4881L206.518 108.441L197.428 108.286L191.614 97.4528C190.489 95.3563 188.574 93.5158 188.32 91.1502C188.19 89.9454 188.506 88.7348 189.209 87.7478C189.913 86.7609 190.953 86.0661 192.134 85.7952C193.316 85.5243 194.555 85.6961 195.618 86.278Z" fill="#A0616A"/>
<path d="M203.172 96.7946L215.253 125.339L227.918 146.815C228.453 147.722 228.774 148.738 228.858 149.787C228.943 150.836 228.788 151.891 228.405 152.871C228.022 153.851 227.421 154.732 226.648 155.446C225.875 156.16 224.95 156.69 223.942 156.994C222.344 157.468 221.728 161.894 220.206 161.214C219.227 159.501 216.357 154.794 215.643 153.288L191.233 101.13C191.1 100.846 191.03 100.538 191.026 100.225C191.021 99.9124 191.084 99.6023 191.209 99.3155C191.334 99.0287 191.519 98.7719 191.751 98.562C191.983 98.3522 192.257 98.1941 192.555 98.0984L200.47 95.5559C200.62 95.5077 200.774 95.4753 200.931 95.4593C201.398 95.4121 201.869 95.5164 202.272 95.7569C202.676 95.9973 202.991 96.3611 203.172 96.7946Z" fill="#3F3D56"/>
<path d="M370.627 294H0.4896C0.35975 294 0.235218 293.949 0.1434 293.857C0.0515823 293.765 0 293.64 0 293.511C0 293.381 0.0515823 293.256 0.1434 293.164C0.235218 293.073 0.35975 293.021 0.4896 293.021H370.627C370.757 293.021 370.881 293.073 370.973 293.164C371.065 293.256 371.117 293.381 371.117 293.511C371.117 293.64 371.065 293.765 370.973 293.857C370.881 293.949 370.757 294 370.627 294Z" fill="#CCCCCC"/>
<path d="M238.507 35.9808V76.128C238.507 76.2578 238.455 76.3824 238.363 76.4742C238.271 76.566 238.147 76.6176 238.017 76.6176C237.887 76.6176 237.763 76.566 237.671 76.4742C237.579 76.3824 237.527 76.2578 237.527 76.128V35.9808C237.527 35.851 237.579 35.7264 237.671 35.6346C237.763 35.5428 237.887 35.4912 238.017 35.4912C238.147 35.4912 238.271 35.5428 238.363 35.6346C238.455 35.7264 238.507 35.851 238.507 35.9808Z" fill="#CCCCCC"/>
<path d="M281.015 70.0397L267.167 83.8877C267.075 83.9791 266.951 84.0304 266.821 84.0303C266.691 84.0302 266.567 83.9786 266.475 83.8869C266.384 83.7952 266.332 83.6709 266.332 83.5412C266.332 83.4116 266.383 83.2872 266.475 83.1953L280.323 69.3473C280.368 69.3017 280.422 69.2654 280.481 69.2407C280.541 69.216 280.605 69.2032 280.669 69.2031C280.733 69.2031 280.797 69.2157 280.857 69.2403C280.916 69.2649 280.97 69.301 281.016 69.3465C281.061 69.392 281.097 69.4461 281.122 69.5056C281.147 69.5651 281.159 69.6289 281.159 69.6933C281.159 69.7577 281.146 69.8214 281.122 69.8808C281.097 69.9403 281.061 69.9943 281.015 70.0397Z" fill="#CCCCCC"/>
<path d="M195.011 70.0397L208.859 83.8877C208.951 83.9795 209.076 84.0311 209.206 84.0311C209.335 84.0311 209.46 83.9795 209.552 83.8877C209.644 83.7959 209.695 83.6713 209.695 83.5415C209.695 83.4116 209.644 83.2871 209.552 83.1953L195.704 69.3473C195.658 69.3017 195.604 69.2654 195.545 69.2407C195.485 69.216 195.422 69.2032 195.357 69.2031C195.293 69.2031 195.229 69.2157 195.17 69.2403C195.11 69.2649 195.056 69.301 195.011 69.3465C194.965 69.392 194.929 69.4461 194.904 69.5056C194.88 69.5651 194.867 69.6289 194.867 69.6933C194.867 69.7577 194.88 69.8214 194.905 69.8808C194.93 69.9403 194.966 69.9943 195.011 70.0397Z" fill="#CCCCCC"/>
<path d="M243.534 153.031L276.723 200.358L238.401 227.233L205.211 179.906L243.534 153.031Z" fill="white" stroke="#A9ACBC"/>
<path d="M228.956 193.518L229.721 194.608L251.594 179.269L250.829 178.179L228.956 193.518Z" fill="#FF3366"/>
<path d="M230.947 196.351L231.711 197.441L253.584 182.102L252.819 181.012L230.947 196.351Z" fill="#FF3366"/>
<path d="M232.937 199.187L233.701 200.277L255.574 184.938L254.81 183.848L232.937 199.187Z" fill="#FF3366"/>
<path d="M228.378 195.86C228.557 195.415 228.341 194.909 227.895 194.73C227.45 194.551 226.944 194.767 226.765 195.212C226.586 195.658 226.802 196.164 227.248 196.342C227.693 196.521 228.199 196.305 228.378 195.86Z" fill="#FF3366"/>
<path d="M220.4 181.306L221.164 182.396L243.037 167.057L242.273 165.967L220.4 181.306Z" fill="#E5E5E5"/>
<path d="M222.38 184.141L223.145 185.231L245.017 169.892L244.253 168.802L222.38 184.141Z" fill="#E5E5E5"/>
<path d="M224.37 186.974L225.135 188.064L247.008 172.725L246.243 171.635L224.37 186.974Z" fill="#E5E5E5"/>
<path d="M219.739 183.531C219.918 183.086 219.702 182.58 219.257 182.401C218.811 182.222 218.306 182.438 218.127 182.883C217.948 183.329 218.164 183.834 218.609 184.013C219.054 184.192 219.56 183.976 219.739 183.531Z" fill="#E5E5E5"/>
<path d="M237.607 205.848L238.371 206.938L260.244 191.598L259.48 190.509L237.607 205.848Z" fill="#E5E5E5"/>
<path d="M239.587 208.683L240.352 209.773L262.224 194.434L261.46 193.344L239.587 208.683Z" fill="#E5E5E5"/>
<path d="M241.577 211.515L242.342 212.605L264.215 197.266L263.45 196.176L241.577 211.515Z" fill="#E5E5E5"/>
<path d="M252.493 185.73C253.17 185.485 253.785 185.094 254.294 184.585C254.803 184.077 255.195 183.463 255.441 182.786C255.688 182.11 255.783 181.388 255.72 180.671C255.607 179.389 255.641 177.983 256.483 177.009L266.514 165.396L257.498 164.223L250.164 174.09C248.745 176 246.583 177.541 245.985 179.844C245.68 181.017 245.817 182.261 246.368 183.34C246.92 184.419 247.848 185.258 248.977 185.699C250.106 186.139 251.357 186.15 252.493 185.73Z" fill="#A0616A"/>
<path d="M259.644 175.511C259.214 175.511 258.794 175.385 258.435 175.149L252.778 171.439C252.303 171.128 251.966 170.646 251.838 170.092C251.711 169.539 251.802 168.957 252.094 168.47L256.188 161.59C256.41 161.218 256.55 160.803 256.6 160.373C256.65 159.942 256.608 159.506 256.478 159.093C256.347 158.68 256.131 158.3 255.842 157.976C255.554 157.653 255.201 157.394 254.806 157.217L243.042 151.943C241.595 151.286 240.414 150.157 239.693 148.742C238.971 147.326 238.752 145.707 239.07 144.151C239.29 143.101 239.749 142.116 240.412 141.273C241.074 140.429 238.828 137.931 239.796 137.469C239.433 137.224 241.754 137.224 243.468 137.469C244.692 137.644 248.119 138.886 249.074 139.375L266.921 148.52C268.125 149.137 269.181 150.007 270.018 151.07C270.854 152.134 271.451 153.365 271.768 154.68C272.084 155.996 272.112 157.364 271.851 158.691C271.589 160.018 271.044 161.274 270.252 162.371L261.43 174.596C261.226 174.879 260.958 175.11 260.647 175.269C260.337 175.428 259.993 175.511 259.644 175.511Z" fill="#3F3D56"/>
</svg>
