<svg width="24" height="24" viewBox="0 0 24 24" fill="none" xmlns="http://www.w3.org/2000/svg">
<path fill-rule="evenodd" clip-rule="evenodd" d="M7 5.84615C7 3.72198 8.7673 2 10.9474 2L13.0526 2C15.2327 2 17 3.72198 17 5.84615V10.9744C17 13.0985 15.2327 14.8205 13.0526 14.8205H12C11.564 14.8205 11.2105 14.4761 11.2105 14.0513C11.2105 13.6264 11.564 13.2821 12 13.2821H13.0526C14.3607 13.2821 15.4211 12.2489 15.4211 10.9744V5.84615C15.4211 4.57165 14.3607 3.53846 13.0526 3.53846L10.9474 3.53846C9.63933 3.53846 8.57895 4.57165 8.57895 5.84615V7.89744C8.57895 8.32227 8.22549 8.66667 7.78947 8.66667C7.35346 8.66667 7 8.32227 7 7.89744V5.84615ZM7 13.0256C7 10.9015 8.7673 9.17949 10.9474 9.17949H12C12.436 9.17949 12.7895 9.52388 12.7895 9.94872C12.7895 10.3736 12.436 10.7179 12 10.7179H10.9474C9.63933 10.7179 8.57895 11.7511 8.57895 13.0256V18.1538C8.57895 19.4284 9.63933 20.4615 10.9474 20.4615H13.0526C14.3607 20.4615 15.4211 19.4284 15.4211 18.1538L15.4211 16.1026C15.4211 15.6777 15.7745 15.3333 16.2105 15.3333C16.6465 15.3333 17 15.6777 17 16.1026V18.1538C17 20.278 15.2327 22 13.0526 22H10.9474C8.7673 22 7 20.278 7 18.1538V13.0256Z" fill="black"/>
</svg>
