<svg width="20" height="20" viewBox="0 0 20 20" fill="none" xmlns="http://www.w3.org/2000/svg">
<path fill-rule="evenodd" clip-rule="evenodd" d="M5.39508 14.9032C5.63257 14.9032 5.87006 14.9312 6.10237 14.9891C6.80343 15.1648 7.4122 15.6011 7.7731 16.187C8.00748 16.5547 8.13711 16.9842 8.14126 17.4224C8.14126 18.0498 8.68262 18.5527 9.34842 18.5527H10.6479C11.3106 18.5527 11.8519 18.0527 11.855 17.4359C11.8509 16.7545 12.1371 16.1069 12.6608 15.6194C13.1773 15.1388 13.8991 14.8502 14.6209 14.8695C15.0938 14.8801 15.5491 14.9988 15.9505 15.2111C16.5281 15.519 17.2655 15.3357 17.5994 14.8048L18.288 13.7363C18.4415 13.4902 18.4861 13.1813 18.4042 12.8966C18.3233 12.6118 18.12 12.3648 17.8462 12.219C17.2053 11.8754 16.748 11.3214 16.5582 10.6573C16.3705 10.0058 16.4731 9.29444 16.8392 8.70856C17.0778 8.32248 17.4272 7.99721 17.8462 7.77328C18.4083 7.46731 18.6054 6.78298 18.2787 6.25019C18.2652 6.22895 18.2528 6.20675 18.2424 6.18359L17.6347 5.20294C17.3038 4.66725 16.5675 4.4829 15.9899 4.78887C15.3655 5.13248 14.623 5.23093 13.9095 5.05623C13.197 4.88442 12.5997 4.46456 12.2273 3.87192C11.9888 3.50128 11.8592 3.06984 11.855 2.63067C11.8644 2.30057 11.7399 2.00425 11.5138 1.78708C11.2888 1.57088 10.9725 1.44829 10.6479 1.44829H9.34842C9.02693 1.44829 8.72618 1.56508 8.49906 1.7755C8.27297 1.98688 8.14956 2.26775 8.15163 2.56697C8.12986 3.9781 6.89055 5.11414 5.3899 5.11414C4.90869 5.10932 4.44512 4.98866 4.04274 4.76474C3.47753 4.46552 2.73913 4.64988 2.4083 5.18557L1.7062 6.25984C1.38471 6.77912 1.58175 7.46538 2.15422 7.77521C3.00358 8.23272 3.53353 9.08596 3.53353 10.001C3.53353 10.916 3.00358 11.7683 2.15214 12.2267C1.58279 12.5337 1.38574 13.2161 1.71553 13.7469L2.36993 14.7971C2.53171 15.0683 2.79617 15.2642 3.10211 15.3443C3.40701 15.4235 3.74302 15.3897 4.02303 15.2449C4.43475 15.02 4.91388 14.9032 5.39508 14.9032ZM10.6479 20.0005H9.34842C7.82495 20.0005 6.58565 18.848 6.58565 17.4301C6.58357 17.2554 6.52965 17.074 6.42905 16.9167C6.26623 16.6522 6.00281 16.463 5.69895 16.3877C5.39716 16.3124 5.06633 16.3539 4.79462 16.5007C4.14333 16.8385 3.37693 16.9205 2.67587 16.7371C1.97584 16.5528 1.37123 16.1049 1.01654 15.5113L0.368372 14.4718C-0.389731 13.2479 0.0613971 11.6795 1.37434 10.9729C1.74665 10.7731 1.97792 10.4006 1.97792 10.001C1.97792 9.60138 1.74665 9.22784 1.37434 9.02804C0.0603601 8.31765 -0.389731 6.74534 0.367335 5.52146L1.07047 4.44718C1.81821 3.23682 3.50864 2.8102 4.82677 3.5148C5.00618 3.61421 5.20115 3.6644 5.39923 3.66633C6.04533 3.66633 6.58565 3.17022 6.59602 2.56021C6.59187 1.88746 6.87707 1.24174 7.39664 0.754313C7.91829 0.26785 8.61106 0.000488281 9.34842 0.000488281H10.6479C11.3904 0.000488281 12.1122 0.284258 12.6297 0.777478C13.1462 1.27359 13.4314 1.95406 13.4096 2.64418C13.4117 2.79958 13.4667 2.97911 13.5662 3.13644C13.7311 3.39704 13.9914 3.58043 14.3005 3.65572C14.6095 3.72714 14.9331 3.68853 15.2079 3.537C16.5354 2.83143 18.2248 3.25419 18.9829 4.48L19.629 5.52146C19.6456 5.54945 19.6601 5.57647 19.6725 5.60447C20.3591 6.81194 19.9007 8.33213 18.6251 9.02611C18.4394 9.12553 18.2891 9.26452 18.1854 9.43247C18.0246 9.69211 17.98 10.001 18.0609 10.2847C18.1439 10.5743 18.342 10.8146 18.6209 10.9633C19.2504 11.3001 19.7202 11.8677 19.9079 12.523C20.0956 13.1775 19.993 13.8878 19.6269 14.4737L18.9383 15.5412C18.1802 16.7535 16.4908 17.1734 15.1768 16.4669C15.0015 16.3732 14.7993 16.3221 14.5981 16.3173H14.5919C14.2922 16.3173 13.9842 16.436 13.7601 16.6435C13.533 16.8549 13.4086 17.1367 13.4107 17.4359C13.4034 18.8538 12.1641 20.0005 10.6479 20.0005Z" fill="#A9ACBC"/>
<path fill-rule="evenodd" clip-rule="evenodd" d="M10.0027 8.17974C8.92416 8.17974 8.04679 8.99727 8.04679 10.0011C8.04679 11.0049 8.92416 11.8205 10.0027 11.8205C11.0813 11.8205 11.9586 11.0049 11.9586 10.0011C11.9586 8.99727 11.0813 8.17974 10.0027 8.17974ZM10.0027 13.2683C8.06649 13.2683 6.49117 11.8031 6.49117 10.0011C6.49117 8.19904 8.06649 6.73193 10.0027 6.73193C11.9389 6.73193 13.5143 8.19904 13.5143 10.0011C13.5143 11.8031 11.9389 13.2683 10.0027 13.2683Z" fill="#A9ACBC"/>
</svg>
