<svg width="20" height="21" viewBox="0 0 20 21" fill="none" xmlns="http://www.w3.org/2000/svg">
<path fill-rule="evenodd" clip-rule="evenodd" d="M0.0905131 2.33973C-0.0301711 2.25917 -0.0301711 2.0816 0.0905133 2.00104L2.56976 0.346048C2.70484 0.255878 2.88578 0.352837 2.88578 0.515394V1.40715H5.30661C5.98028 1.40715 6.59613 1.78826 6.8974 2.39159L10 8.60488L13.1026 2.39159C13.4039 1.78826 14.0197 1.40715 14.6934 1.40715H17.1142V0.515394C17.1142 0.352837 17.2952 0.255878 17.4302 0.346048L19.9095 2.00104C20.0302 2.0816 20.0302 2.25917 19.9095 2.33973L17.4302 3.99472C17.2952 4.08489 17.1142 3.98793 17.1142 3.82537V2.93361H14.6934C14.5972 2.93361 14.5092 2.98806 14.4661 3.07425L10.8522 10.3115L14.4661 17.5488C14.5092 17.635 14.5972 17.6894 14.6934 17.6894H17.1142V16.7977C17.1142 16.6351 17.2952 16.5382 17.4302 16.6283L19.9095 18.2833C20.0302 18.3639 20.0302 18.5414 19.9095 18.622L17.4302 20.277C17.2952 20.3672 17.1142 20.2702 17.1142 20.1077V19.2159H14.6934C14.0197 19.2159 13.4039 18.8348 13.1026 18.2315L10 12.0182L6.8974 18.2315C6.59613 18.8348 5.98028 19.2159 5.30661 19.2159H2.88578V20.1077C2.88578 20.2702 2.70484 20.3672 2.56976 20.277L0.0905131 18.622C-0.0301711 18.5414 -0.0301711 18.3639 0.0905133 18.2833L2.56976 16.6283C2.70484 16.5382 2.88578 16.6351 2.88578 16.7977V17.6894H5.30661C5.40285 17.6894 5.49083 17.635 5.53387 17.5488L9.14779 10.3115L5.53387 3.07425C5.49083 2.98806 5.40285 2.93361 5.30661 2.93361H2.88578V3.82537C2.88578 3.98793 2.70484 4.08489 2.56976 3.99472L0.0905131 2.33973Z" fill="#039855"/>
</svg>
