<svg width="25" height="25" viewBox="0 0 25 25" fill="none" xmlns="http://www.w3.org/2000/svg">
<g id="arrow_tail">
<path id="Vector" fill-rule="evenodd" clip-rule="evenodd" d="M13.3229 4.01966C13.2679 3.6203 12.9205 3.3125 12.5001 3.3125C12.0415 3.3125 11.6698 3.67881 11.6698 4.13068V18.5124L6.41866 13.3172L6.3257 13.2378C6.00114 12.9995 5.5398 13.0249 5.24441 13.3148C4.91948 13.6337 4.91839 14.1517 5.24198 14.4719L11.9004 21.0602C11.9386 21.0995 11.9806 21.1349 12.026 21.1661C12.3502 21.3891 12.8001 21.3577 13.0889 21.0718L19.7581 14.4718L19.8383 14.3799C20.0787 14.0591 20.051 13.6046 19.7555 13.3148C19.4306 12.9959 18.9049 12.997 18.5813 13.3172L13.3304 18.5137V4.13068L13.3229 4.01966Z" fill="#24A148"/>
</g>
</svg>
