<svg width="25" height="25" viewBox="0 0 25 25" fill="none" xmlns="http://www.w3.org/2000/svg">
<g id="arrow_tail">
<path id="Vector" fill-rule="evenodd" clip-rule="evenodd" d="M13.3229 4.01868C13.2679 3.61933 12.9205 3.31152 12.5001 3.31152C12.0415 3.31152 11.6698 3.67784 11.6698 4.12971V18.5115L6.41866 13.3162L6.3257 13.2368C6.00114 12.9985 5.5398 13.024 5.24441 13.3138C4.91948 13.6327 4.91839 14.1507 5.24198 14.4709L11.9004 21.0593C11.9386 21.0985 11.9806 21.134 12.026 21.1651C12.3502 21.3882 12.8001 21.3567 13.0889 21.0709L19.7581 14.4709L19.8383 14.3789C20.0787 14.0581 20.051 13.6036 19.7555 13.3138C19.4306 12.9949 18.9049 12.9961 18.5813 13.3163L13.3304 18.5128V4.12971L13.3229 4.01868Z" fill="#A9ACBC"/>
</g>
</svg>
