<svg width="14" height="14" viewBox="0 0 14 14" fill="none" xmlns="http://www.w3.org/2000/svg">
<path d="M7.21165 2.33301C9.27379 2.33301 10.9955 3.87768 11.4026 5.93471L12.0381 4.64971L12.0747 4.58838C12.1964 4.41684 12.4211 4.35934 12.6066 4.46266C12.8128 4.57747 12.8924 4.84734 12.7846 5.06544L11.2191 8.23134L8.71832 5.95584L8.66522 5.89805C8.53917 5.7336 8.53786 5.49251 8.67238 5.32646L8.72679 5.27035C8.88171 5.13721 9.10927 5.13643 9.26634 5.27935L10.6362 6.52571C10.4721 4.67442 9.00155 3.22568 7.21165 3.22568C6.37172 3.22568 5.60211 3.5447 5.00482 4.07463C4.84399 4.21732 4.66258 4.40708 4.415 4.14782C4.16742 3.88856 4.3041 3.53577 4.41498 3.43435C5.16527 2.74805 6.14273 2.33301 7.21165 2.33301Z" fill="url(#paint0_linear_3649_86120)"/>
<path d="M6.78705 11.6663C4.7249 11.6663 3.00321 10.1217 2.59613 8.06464L1.9606 9.34964L1.92404 9.41097C1.80232 9.58251 1.57759 9.64001 1.39206 9.53669C1.18593 9.42189 1.10625 9.15201 1.2141 8.93391L2.77964 5.76801L5.28038 8.04351L5.33347 8.1013C5.45953 8.26575 5.46083 8.50684 5.32631 8.67289L5.27191 8.729C5.11699 8.86214 4.88942 8.86292 4.73235 8.72L3.36252 7.47364C3.52656 9.32493 4.99715 10.7737 6.78705 10.7737C7.62697 10.7737 8.39659 10.4547 8.99387 9.92472C9.15471 9.78203 9.33611 9.59227 9.5837 9.85153C9.83128 10.1108 9.6946 10.4636 9.58372 10.565C8.83343 11.2513 7.85597 11.6663 6.78705 11.6663Z" fill="url(#paint1_linear_3649_86120)"/>
<defs>
<linearGradient id="paint0_linear_3649_86120" x1="5.44793" y1="1.61506" x2="8.63227" y2="14.1477" gradientUnits="userSpaceOnUse">
<stop stop-color="#FF3366"/>
<stop offset="1" stop-color="#FE5196"/>
</linearGradient>
<linearGradient id="paint1_linear_3649_86120" x1="5.44793" y1="1.61506" x2="8.63227" y2="14.1477" gradientUnits="userSpaceOnUse">
<stop stop-color="#FF3366"/>
<stop offset="1" stop-color="#FE5196"/>
</linearGradient>
</defs>
</svg>
