<svg width="18" height="16" viewBox="0 0 18 16" fill="none" xmlns="http://www.w3.org/2000/svg">
<path fill-rule="evenodd" clip-rule="evenodd" d="M6.9736 1.66627C7.87322 0.11044 10.1382 0.111678 11.0366 1.66738L17.021 12.0307C17.9139 13.5766 16.7858 15.5 14.989 15.5H3.01109C1.21291 15.5 0.086428 13.5753 0.979097 12.0298L6.9736 1.66627ZM9.95228 2.28159C9.53323 1.55598 8.47711 1.55557 8.05761 2.28107L2.06339 12.6441C1.64727 13.3651 2.17281 14.2628 3.01109 14.2628H14.989C15.8271 14.2628 16.3529 13.3655 15.9367 12.645L9.95228 2.28159Z" fill="white"/>
<path fill-rule="evenodd" clip-rule="evenodd" d="M8.99754 5.91445C9.34249 5.91445 9.62213 6.1914 9.62213 6.53303V9.08984C9.62213 9.43147 9.34249 9.70842 8.99754 9.70842C8.65259 9.70842 8.37296 9.43147 8.37296 9.08984V6.53303C8.37296 6.1914 8.65259 5.91445 8.99754 5.91445Z" fill="white"/>
<path fill-rule="evenodd" clip-rule="evenodd" d="M8.15852 11.6344C8.15852 11.1789 8.53136 10.8097 8.9913 10.8097H8.99963C9.45956 10.8097 9.83241 11.1789 9.83241 11.6344C9.83241 12.09 9.45956 12.4592 8.99963 12.4592H8.9913C8.53136 12.4592 8.15852 12.09 8.15852 11.6344Z" fill="white"/>
</svg>
