<svg width="18" height="18" viewBox="0 0 18 18" fill="none" xmlns="http://www.w3.org/2000/svg">
<path fill-rule="evenodd" clip-rule="evenodd" d="M8.99935 1.91699C5.08786 1.91699 1.91602 5.08884 1.91602 9.00033C1.91602 12.9119 5.08707 16.0837 8.99935 16.0837C12.9108 16.0837 16.0827 12.9118 16.0827 9.00033C16.0827 5.08805 12.9109 1.91699 8.99935 1.91699ZM0.666016 9.00033C0.666016 4.39848 4.3975 0.666992 8.99935 0.666992C13.6011 0.666992 17.3327 4.3976 17.3327 9.00033C17.3327 13.6022 13.6012 17.3337 8.99935 17.3337C4.39663 17.3337 0.666016 13.6021 0.666016 9.00033Z" fill="white"/>
<path fill-rule="evenodd" clip-rule="evenodd" d="M12.4076 6.58095C12.6517 6.82502 12.6517 7.22075 12.4076 7.46483L8.4526 11.4198C8.20856 11.6639 7.81291 11.6639 7.56881 11.4199L5.59048 9.44242C5.34635 9.1984 5.34627 8.80267 5.59029 8.55854C5.83432 8.31441 6.23005 8.31433 6.47418 8.55835L8.01057 10.0941L11.5237 6.58095C11.7678 6.33687 12.1635 6.33687 12.4076 6.58095Z" fill="white"/>
</svg>
