<svg width="17" height="18" viewBox="0 0 17 18" fill="none" xmlns="http://www.w3.org/2000/svg">
<path d="M8.49983 5.57164C8.82093 5.57164 9.08123 5.83194 9.08123 6.15303V8.41131H11.3422C11.6633 8.41131 11.9236 8.67161 11.9236 8.99271C11.9236 9.3138 11.6633 9.5741 11.3422 9.5741H9.08123V11.8324C9.08123 12.1535 8.82093 12.4138 8.49983 12.4138C8.17874 12.4138 7.91844 12.1535 7.91844 11.8324V9.5741H5.65746C5.33636 9.5741 5.07606 9.3138 5.07606 8.99271C5.07606 8.67161 5.33636 8.41131 5.65746 8.41131H7.91844V6.15303C7.91844 5.83194 8.17874 5.57164 8.49983 5.57164Z" fill="#FF3366"/>
<path fill-rule="evenodd" clip-rule="evenodd" d="M4.8675 0.666748C3.45739 0.666748 2.26742 1.16972 1.43282 2.06502C0.602437 2.95578 0.166504 4.18839 0.166504 5.57772V12.4224C0.166504 13.8111 0.600167 15.0438 1.42979 15.9349C2.26379 16.8307 3.45407 17.3334 4.8675 17.3334H12.1322C13.5456 17.3334 14.7359 16.8307 15.5699 15.9349C16.3995 15.0438 16.8332 13.8111 16.8332 12.4224V5.57772C16.8332 4.1891 16.3995 2.9564 15.5699 2.06529C14.7359 1.16949 13.5456 0.666748 12.1322 0.666748H4.8675ZM1.32929 5.57772C1.32929 4.42979 1.68701 3.49761 2.28336 2.8579C2.87548 2.22272 3.74531 1.82954 4.8675 1.82954H12.1322C13.2584 1.82954 14.1279 2.22296 14.7188 2.85763C15.3141 3.49699 15.6704 4.42908 15.6704 5.57772V12.4224C15.6704 13.5711 15.3141 14.5032 14.7188 15.1425C14.1279 15.7772 13.2584 16.1706 12.1322 16.1706H4.8675C3.74125 16.1706 2.87173 15.7772 2.28084 15.1425C1.68559 14.5032 1.32929 13.5711 1.32929 12.4224V5.57772Z" fill="#FF3366"/>
</svg>
