<svg width="14" height="12" viewBox="0 0 14 12" fill="none" xmlns="http://www.w3.org/2000/svg">
<path d="M0.78037 5.38286C0.480853 5.4241 0.25 5.68465 0.25 5.99992C0.25 6.34385 0.524734 6.62266 0.863636 6.62266H11.65L7.75352 10.561L7.69396 10.6307C7.51522 10.8741 7.53432 11.2201 7.75172 11.4417C7.99087 11.6854 8.3794 11.6862 8.61954 11.4435L13.5608 6.44966C13.5902 6.42107 13.6168 6.38953 13.6402 6.35551C13.8075 6.11232 13.7839 5.77495 13.5695 5.55829L8.6195 0.556449L8.55055 0.496303C8.30994 0.31594 7.96907 0.336784 7.75169 0.558346C7.51256 0.802064 7.5134 1.19636 7.75356 1.43903L11.6509 5.37718H0.863636L0.78037 5.38286Z" fill="white"/>
</svg>
