<svg width="18" height="18" viewBox="0 0 18 18" fill="none" xmlns="http://www.w3.org/2000/svg">
<path fill-rule="evenodd" clip-rule="evenodd" d="M17.5313 0.536184C17.8236 0.829656 17.8227 1.30453 17.5292 1.59684L1.5313 17.5315C1.23783 17.8239 0.762956 17.8229 0.470643 17.5294C0.178329 17.236 0.179269 16.7611 0.472741 16.4688L16.4706 0.534085C16.7641 0.241772 17.239 0.242712 17.5313 0.536184Z" fill="#2C304E"/>
<path fill-rule="evenodd" clip-rule="evenodd" d="M0.467641 0.471706C0.75941 0.177693 1.23428 0.175873 1.52829 0.467641L17.5283 16.3455C17.8223 16.6372 17.8241 17.1121 17.5324 17.4061C17.2406 17.7001 16.7657 17.702 16.4717 17.4102L0.471706 1.53236C0.177693 1.24059 0.175873 0.76572 0.467641 0.471706Z" fill="#2C304E"/>
</svg>
