<svg width="20" height="20" viewBox="0 0 20 20" fill="none" xmlns="http://www.w3.org/2000/svg">
<path fill-rule="evenodd" clip-rule="evenodd" d="M10 20C4.486 20 0 15.514 0 10C0 4.486 4.486 0 10 0C15.514 0 20 4.486 20 10C20 15.514 15.514 20 10 20ZM6.52829 5.46764C6.23428 5.17587 5.75941 5.17769 5.46764 5.47171C5.17587 5.76572 5.17769 6.24059 5.47171 6.53236L8.96011 9.99413L5.47176 13.4687C5.17829 13.761 5.17735 14.2359 5.46966 14.5294C5.76197 14.8228 6.23685 14.8238 6.53032 14.5315L10.0248 11.0507L13.4717 14.4713C13.7657 14.763 14.2406 14.7612 14.5324 14.4672C14.8241 14.1732 14.8223 13.6983 14.5283 13.4066L11.0876 9.99216L14.5293 6.56411C14.8227 6.2718 14.8237 5.79692 14.5314 5.50345C14.239 5.20998 13.7642 5.20904 13.4707 5.50135L10.0229 8.93555L6.52829 5.46764Z" fill="#5A5D72"/>
</svg>
