<svg width="19" height="20" viewBox="0 0 19 20" fill="none" xmlns="http://www.w3.org/2000/svg">
<path fill-rule="evenodd" clip-rule="evenodd" d="M5.15085 1.50527C5.38889 0.614998 6.19504 0 7.1124 0H11.3454C12.2628 0 13.0689 0.614998 13.3069 1.50527C13.3111 1.52074 13.3147 1.53633 13.3179 1.55203L13.5608 2.76773C13.6448 3.18652 14.0134 3.489 14.4404 3.489L17.708 3.489C18.1222 3.489 18.458 3.82479 18.458 4.239C18.458 4.65321 18.1222 4.989 17.708 4.989H0.75C0.335786 4.989 0 4.65321 0 4.239C0 3.82479 0.335786 3.489 0.75 3.489H4.0168C4.44381 3.489 4.81293 3.18683 4.89694 2.76803L5.13994 1.55203C5.14308 1.53633 5.14672 1.52074 5.15085 1.50527ZM6.24034 3.489H12.2175C12.1626 3.35298 12.1197 3.21035 12.09 3.06227L11.8527 1.87462C11.7848 1.65265 11.5797 1.5 11.3454 1.5H7.1124C6.87809 1.5 6.67296 1.65265 6.60514 1.87461L6.36786 3.06197C6.3382 3.21005 6.2952 3.35298 6.24034 3.489ZM16.385 6.71993C16.7978 6.75321 17.1056 7.1149 17.0723 7.52777L15.5771 7.40723C15.6104 6.99435 15.9721 6.68664 16.385 6.71993ZM16.2121 17.1223C16.122 17.9356 15.8157 18.6549 15.256 19.1747C14.6946 19.6963 13.9523 19.9482 13.1224 19.9634C10.505 20.0105 7.88296 20.0136 5.26389 19.9583C4.45078 19.9416 3.72527 19.6808 3.17826 19.1594C2.6347 18.6414 2.3337 17.9295 2.24526 17.1291C2.08558 15.6874 1.87058 13.2835 1.69607 11.2478C1.60866 10.2283 1.53119 9.29836 1.47556 8.62335C1.44775 8.28582 1.42539 8.01198 1.40999 7.82248L1.38612 7.52769C1.35293 7.11481 1.66072 6.75311 2.0736 6.71991C2.48648 6.68672 2.84809 6.99452 2.88129 7.4074L2.90506 7.70094C2.92042 7.88996 2.94273 8.16324 2.97049 8.50015C3.02602 9.17402 3.10336 10.1022 3.19058 11.1197C3.36531 13.1579 3.57882 15.5436 3.73614 16.9639C3.79473 17.4944 3.97875 17.8502 4.21314 18.0736C4.44403 18.2936 4.78934 18.4483 5.29505 18.4587C7.89192 18.5134 10.4945 18.5105 13.095 18.4636C13.6361 18.4538 13.9978 18.2962 14.2351 18.0758C14.4742 17.8537 14.6613 17.4986 14.7213 16.957C14.8776 15.5492 15.0913 13.165 15.2666 11.1254C15.3541 10.1073 15.4317 9.17758 15.4875 8.50242C15.5154 8.16486 15.5378 7.89096 15.5532 7.7015L15.5771 7.40723L17.0723 7.52777" fill="#2C304E"/>
</svg>
