<svg width="20" height="20" viewBox="0 0 20 20" fill="none" xmlns="http://www.w3.org/2000/svg">
<path fill-rule="evenodd" clip-rule="evenodd" d="M14.3397 20H5.65934C2.27436 20 0 17.6244 0 14.0891V5.91088C0 2.37557 2.27436 0 5.65934 0H9.33747C9.74473 0 10.0753 0.330513 10.0753 0.737753C10.0753 1.14499 9.74473 1.47551 9.33747 1.47551H5.65934C3.11741 1.47551 1.47558 3.2166 1.47558 5.91088V14.0891C1.47558 16.7834 3.11741 18.5245 5.65934 18.5245H14.3397C16.8816 18.5245 18.5244 16.7834 18.5244 14.0891V10.1269C18.5244 9.71965 18.855 9.38914 19.2622 9.38914C19.6695 9.38914 20 9.71965 20 10.1269V14.0891C20 17.6244 17.7247 20 14.3397 20Z" fill="#0062FF"/>
<path fill-rule="evenodd" clip-rule="evenodd" d="M10.2192 9.78075C9.92692 9.48842 9.92692 9.01391 10.2192 8.72158L18.7216 0.219249C19.0139 -0.0730829 19.4884 -0.0730829 19.7808 0.219249C20.0731 0.51158 20.0731 0.986089 19.7808 1.27842L11.2784 9.78075C10.9861 10.0731 10.5116 10.0731 10.2192 9.78075Z" fill="#0062FF"/>
<path fill-rule="evenodd" clip-rule="evenodd" d="M14.2336 1.37441C14.0897 1.23051 14 1.03086 14 0.810875C13.9992 0.370142 14.3549 0.0115285 14.7972 0.0107751L19.1998 0.000981067C19.6248 -0.000525715 20.0015 0.376169 20 0.801081L19.991 5.20389C19.9894 5.64538 19.6315 6.00173 19.1908 6.00098C18.7492 5.99947 18.3921 5.64236 18.3936 5.20088L18.4003 1.60043L14.8002 1.60796C14.5787 1.60947 14.3783 1.51906 14.2336 1.37441Z" fill="#0062FF"/>
</svg>
