<svg width="20" height="20" viewBox="0 0 20 20" fill="none" xmlns="http://www.w3.org/2000/svg">
<path fill-rule="evenodd" clip-rule="evenodd" d="M1.52609 1.68656C2.53358 0.605682 3.9688 6.10352e-05 5.66509 6.10352e-05H14.3341C16.0344 6.10352e-05 17.4702 0.605359 18.4772 1.68684C19.4786 2.76228 20.0001 4.24767 20.0001 5.91606V14.0841C20.0001 15.7525 19.4786 17.2379 18.4771 18.3133C17.4699 19.3948 16.0338 20.0001 14.3331 20.0001H5.66509C3.96479 20.0001 2.52915 19.3947 1.52238 18.3132C0.521245 17.2377 9.15527e-05 15.7523 9.15527e-05 14.0841V5.91606C9.15527e-05 4.24683 0.524054 2.76159 1.52609 1.68656ZM2.62334 2.70931C1.92313 3.46054 1.50009 4.55829 1.50009 5.91606V14.0841C1.50009 15.4428 1.92144 16.5404 2.62031 17.2912C3.31353 18.0359 4.3354 18.5001 5.66509 18.5001H14.3331C15.6634 18.5001 16.6858 18.0358 17.3794 17.291C18.0786 16.5403 18.5001 15.4427 18.5001 14.0841V5.91606C18.5001 4.55746 18.0786 3.45984 17.3794 2.70903C16.686 1.96426 15.6638 1.50006 14.3341 1.50006H5.66509C4.34038 1.50006 3.31811 1.96394 2.62334 2.70931Z" fill="#FF3366"/>
<path d="M12.9329 7.95238C12.9329 9.55442 11.6706 10.7101 11.0507 11.2776L11.0386 11.2888L10.8606 11.4482C10.7588 11.6291 10.7063 11.8337 10.7086 12.0413C10.7086 12.2379 10.6305 12.4265 10.4915 12.5656C10.3524 12.7046 10.1639 12.7827 9.96722 12.7827C9.77058 12.7827 9.582 12.7046 9.44295 12.5656C9.30391 12.4265 9.2258 12.2379 9.2258 12.0413C9.21866 11.4431 9.428 10.8625 9.81523 10.4065C9.87083 10.3472 9.94868 10.2767 10.0414 10.1915C10.501 9.77998 11.4501 8.91993 11.4501 7.96721C11.4632 7.76909 11.4338 7.57045 11.3639 7.3846C11.294 7.19876 11.1852 7.02998 11.0448 6.88958C10.9044 6.74919 10.7357 6.6404 10.5498 6.57052C10.364 6.50063 10.1653 6.47126 9.96722 6.48437C9.7691 6.47126 9.57046 6.50063 9.38461 6.57052C9.19876 6.6404 9.02999 6.74919 8.88959 6.88958C8.74919 7.02998 8.64041 7.19876 8.57053 7.3846C8.50064 7.57045 8.47127 7.76909 8.48438 7.96721C8.48438 8.16385 8.40626 8.35243 8.26722 8.49147C8.12818 8.63052 7.93959 8.70863 7.74296 8.70863C7.54632 8.70863 7.35774 8.63052 7.21869 8.49147C7.07965 8.35243 7.00154 8.16385 7.00154 7.96721C6.98864 7.57427 7.05653 7.18286 7.20101 6.81721C7.34549 6.45157 7.56347 6.11947 7.84147 5.84147C8.11948 5.56346 8.45158 5.34548 8.81722 5.201C9.18287 5.05653 9.57427 4.98863 9.96722 5.00153C10.3589 4.98874 10.749 5.0562 11.1136 5.19978C11.4782 5.34335 11.8096 5.56 12.0874 5.8364C12.3652 6.11279 12.5835 6.44309 12.7289 6.80698C12.8743 7.17087 12.9437 7.56066 12.9329 7.95238Z" fill="#FF3366"/>
<path d="M10.3787 13.6391C10.3388 13.612 10.2966 13.5885 10.2527 13.5686C10.2069 13.5512 10.1598 13.5375 10.1118 13.5279C10.0031 13.5062 9.89091 13.5092 9.78353 13.5367C9.67614 13.5641 9.57627 13.6153 9.49127 13.6864C9.40626 13.7576 9.33829 13.8468 9.29235 13.9477C9.24641 14.0486 9.22367 14.1585 9.2258 14.2693C9.22031 14.3173 9.22031 14.3658 9.2258 14.4139C9.23546 14.4619 9.2491 14.509 9.26657 14.5547C9.2864 14.5987 9.30996 14.6409 9.33701 14.6808C9.3634 14.7215 9.39316 14.7599 9.42598 14.7957C9.49823 14.8635 9.58336 14.9162 9.67632 14.9506C9.76929 14.985 9.8682 15.0004 9.96722 14.9959C10.0153 15.0014 10.0638 15.0014 10.1118 14.9959C10.1602 14.9879 10.2075 14.9743 10.2527 14.9551C10.2973 14.9367 10.3397 14.9131 10.3787 14.8847C10.4629 14.8351 10.5331 14.765 10.5826 14.6808C10.611 14.6417 10.6347 14.5994 10.653 14.5547C10.6722 14.5096 10.6859 14.4623 10.6938 14.4139C10.6993 14.3658 10.6993 14.3173 10.6938 14.2693C10.6944 14.1717 10.6757 14.075 10.6388 13.9846C10.6019 13.8943 10.5475 13.8122 10.4788 13.7429C10.4484 13.7056 10.4149 13.6708 10.3787 13.6391Z" fill="#FF3366"/>
</svg>
