<svg width="20" height="21" viewBox="0 0 20 21" fill="none" xmlns="http://www.w3.org/2000/svg">
<path d="M1.5 11C1.5 15.687 5.313 19.5 10 19.5C14.687 19.5 18.5 15.687 18.5 11C18.5 8.65263 17.5436 6.52449 16 4.98476C16 4.98476 15.5371 4.46288 16 3.99998C16.5 3.49996 17.0533 3.91778 17.0533 3.91778C18.8725 5.72967 20 8.23565 20 11C20 16.514 15.514 21 10 21C4.486 21 0 16.514 0 11C0 8.23867 1.12502 5.73515 2.94078 3.92373C2.94078 3.92373 3.50003 3.49996 4 3.99998C4.38236 4.38237 4 4.98476 4 4.98476C2.4564 6.52449 1.5 8.65263 1.5 11Z" fill="#DA1E28"/>
<path fill-rule="evenodd" clip-rule="evenodd" d="M10 0.25C10.4142 0.25 10.75 0.585786 10.75 1V11C10.75 11.4142 10.4142 11.75 10 11.75C9.58579 11.75 9.25 11.4142 9.25 11V1C9.25 0.585786 9.58579 0.25 10 0.25Z" fill="#DA1E28"/>
</svg>
