<svg width="16" height="16" viewBox="0 0 16 16" fill="none" xmlns="http://www.w3.org/2000/svg">
<path d="M8 4.9144C8.28898 4.9144 8.52325 5.14867 8.52325 5.43766V7.47011H10.5581C10.8471 7.47011 11.0814 7.70438 11.0814 7.99336C11.0814 8.28235 10.8471 8.51662 10.5581 8.51662H8.52325V10.5491C8.52325 10.8381 8.28898 11.0723 8 11.0723C7.71101 11.0723 7.47674 10.8381 7.47674 10.5491V8.51662H5.44186C5.15287 8.51662 4.9186 8.28235 4.9186 7.99336C4.9186 7.70438 5.15287 7.47011 5.44186 7.47011H7.47674V5.43766C7.47674 5.14867 7.71101 4.9144 8 4.9144Z" fill="#FF3366"/>
<path fill-rule="evenodd" clip-rule="evenodd" d="M4.7309 0.5C3.4618 0.5 2.39083 0.952676 1.63968 1.75844C0.89234 2.56013 0.5 3.66948 0.5 4.91988V11.0801C0.5 12.3299 0.890297 13.4393 1.63696 14.2413C2.38756 15.0475 3.45881 15.5 4.7309 15.5H11.2691C12.5412 15.5 13.6124 15.0475 14.363 14.2413C15.1097 13.4393 15.5 12.3299 15.5 11.0801V4.91988C15.5 3.67012 15.1097 2.56069 14.363 1.75869C13.6124 0.952466 12.5412 0.5 11.2691 0.5H4.7309ZM1.54651 4.91988C1.54651 3.88674 1.86846 3.04778 2.40517 2.47204C2.93808 1.90038 3.72093 1.54651 4.7309 1.54651H11.2691C12.2827 1.54651 13.0653 1.90059 13.5971 2.47179C14.1328 3.04722 14.4535 3.8861 14.4535 4.91988V11.0801C14.4535 12.1139 14.1328 12.9528 13.5971 13.5282C13.0653 14.0994 12.2827 14.4535 11.2691 14.4535H4.7309C3.71727 14.4535 2.9347 14.0994 2.40291 13.5282C1.86718 12.9528 1.54651 12.1139 1.54651 11.0801V4.91988Z" fill="#FF3366"/>
</svg>
