<svg width="8" height="8" viewBox="0 0 8 8" fill="none" xmlns="http://www.w3.org/2000/svg">
<path fill-rule="evenodd" clip-rule="evenodd" d="M7.76516 0.234835C7.91161 0.381282 7.91161 0.618718 7.76516 0.765165L0.765165 7.76516C0.618718 7.91161 0.381282 7.91161 0.234835 7.76516C0.0883883 7.61872 0.0883883 7.38128 0.234835 7.23483L7.23483 0.234835C7.38128 0.0883883 7.61872 0.0883883 7.76516 0.234835Z" fill="black"/>
<path fill-rule="evenodd" clip-rule="evenodd" d="M0.234835 0.234835C0.381282 0.0883884 0.618718 0.0883884 0.765165 0.234835L7.76516 7.23483C7.91161 7.38128 7.91161 7.61872 7.76516 7.76516C7.61872 7.91161 7.38128 7.91161 7.23483 7.76516L0.234835 0.765165C0.0883884 0.618718 0.0883884 0.381282 0.234835 0.234835Z" fill="black"/>
</svg>
