<svg width="18" height="20" viewBox="0 0 18 20" fill="none" xmlns="http://www.w3.org/2000/svg">
<path fill-rule="evenodd" clip-rule="evenodd" d="M5.57746 1.519V18.2279H11.4085C11.8285 18.2279 12.169 18.5679 12.169 18.9874C12.169 19.4068 11.8285 19.7469 11.4085 19.7469H2.78873C1.24856 19.7469 0 18.5001 0 16.9621V2.78483C0 1.24681 1.24856 1.02611e-05 2.78873 1.02611e-05L14.9578 0C16.4979 7.78634e-06 17.7465 1.24681 17.7465 2.78482V13.4177C17.7465 13.8372 17.406 14.1772 16.9859 14.1772C16.5659 14.1772 16.2254 13.8372 16.2254 13.4177V2.78482C16.2254 2.08572 15.6578 1.51899 14.9578 1.51899L5.57746 1.519ZM4.05634 18.2279V1.519H2.78873C2.08865 1.519 1.52113 2.08573 1.52113 2.78483V16.9621C1.52113 17.6612 2.08865 18.2279 2.78873 18.2279H4.05634Z" fill="#FF3366"/>
<path fill-rule="evenodd" clip-rule="evenodd" d="M7.09859 3.79749C7.09859 3.37803 7.43911 3.03799 7.85915 3.03799H13.9437C14.3637 3.03799 14.7042 3.37803 14.7042 3.79749C14.7042 4.21694 14.3637 4.55698 13.9437 4.55698H7.85915C7.43911 4.55698 7.09859 4.21694 7.09859 3.79749ZM7.09859 6.83547C7.09859 6.41601 7.43911 6.07597 7.85915 6.07597H13.9437C14.3637 6.07597 14.7042 6.41601 14.7042 6.83547C14.7042 7.25492 14.3637 7.59496 13.9437 7.59496H7.85915C7.43911 7.59496 7.09859 7.25492 7.09859 6.83547Z" fill="#FF3366"/>
<path fill-rule="evenodd" clip-rule="evenodd" d="M13.3755 12.5893C13.0901 12.3437 12.6676 12.3437 12.3823 12.5893L10.7597 13.9861C10.4416 14.26 10.406 14.7396 10.6803 15.0573C10.9545 15.375 11.4348 15.4105 11.7529 15.1366L12.1183 14.8221V16.6565C12.1183 17.076 12.4588 17.416 12.8788 17.416C13.2989 17.416 13.6394 17.076 13.6394 16.6565V14.8221L14.0048 15.1366C14.3229 15.4105 14.8032 15.375 15.0775 15.0573C15.3517 14.7396 15.3161 14.26 14.998 13.9861L13.3755 12.5893Z" fill="#FF3366"/>
<path fill-rule="evenodd" clip-rule="evenodd" d="M12.9296 18.481C14.8898 18.481 16.4789 16.8942 16.4789 14.9367C16.4789 12.9792 14.8898 11.3924 12.9296 11.3924C10.9694 11.3924 9.38028 12.9792 9.38028 14.9367C9.38028 16.8942 10.9694 18.481 12.9296 18.481ZM12.9296 20C15.7299 20 18 17.7331 18 14.9367C18 12.1403 15.7299 9.8734 12.9296 9.8734C10.1293 9.8734 7.85915 12.1403 7.85915 14.9367C7.85915 17.7331 10.1293 20 12.9296 20Z" fill="#FF3366"/>
</svg>
