<svg width="20" height="18" viewBox="0 0 20 18" fill="none" xmlns="http://www.w3.org/2000/svg">
<path fill-rule="evenodd" clip-rule="evenodd" d="M7.56833 1.39952C8.64788 -0.467472 11.3659 -0.465987 12.444 1.40086L19.6252 13.8368C20.6966 15.6919 19.3429 18 17.1868 18H2.81332C0.655502 18 -0.696274 15.6904 0.374928 13.8358L7.56833 1.39952ZM11.1428 2.13791C10.6399 1.26717 9.37255 1.26669 8.86914 2.13729L1.67608 14.573C1.17674 15.4381 1.80739 16.5154 2.81332 16.5154H17.1868C18.1926 16.5154 18.8235 15.4386 18.324 14.574L11.1428 2.13791Z" fill="#E1AF05"/>
<path fill-rule="evenodd" clip-rule="evenodd" d="M9.99706 6.49734C10.411 6.49734 10.7466 6.82968 10.7466 7.23964V10.3078C10.7466 10.7178 10.411 11.0501 9.99706 11.0501C9.58312 11.0501 9.24756 10.7178 9.24756 10.3078V7.23964C9.24756 6.82968 9.58312 6.49734 9.99706 6.49734Z" fill="#E1AF05"/>
<path fill-rule="evenodd" clip-rule="evenodd" d="M8.99023 13.3613C8.99023 12.8147 9.43765 12.3716 9.98957 12.3716H9.99956C10.5515 12.3716 10.9989 12.8147 10.9989 13.3613C10.9989 13.9079 10.5515 14.3511 9.99956 14.3511H9.98957C9.43765 14.3511 8.99023 13.9079 8.99023 13.3613Z" fill="#E1AF05"/>
</svg>
