<svg width="20" height="20" viewBox="0 0 20 20" fill="none" xmlns="http://www.w3.org/2000/svg">
<path fill-rule="evenodd" clip-rule="evenodd" d="M1.83929 15.1547C1.61844 15.3861 1.49951 15.6567 1.49951 16.0188C1.49951 16.3791 1.61843 16.647 1.83945 16.8761C2.07835 17.1238 2.46411 17.3518 3.02462 17.5392C4.15321 17.9166 5.76209 18.0568 7.59151 18.0568C9.42961 18.0568 11.0377 17.9115 12.1629 17.5299C12.7215 17.3404 13.1058 17.1106 13.3439 16.8614C13.5647 16.6304 13.6835 16.3604 13.6835 15.9988C13.6835 15.6388 13.5646 15.3706 13.3433 15.141C13.1041 14.8929 12.718 14.6644 12.1575 14.4765C11.0288 14.0981 9.41999 13.9568 7.59151 13.9568C5.75312 13.9568 4.14518 14.1027 3.02026 14.4851C2.46174 14.675 2.07744 14.9052 1.83929 15.1547ZM2.53751 13.0649C3.90584 12.5998 5.7189 12.4568 7.59151 12.4568C9.45203 12.4568 11.2642 12.5949 12.6343 13.0543C13.3231 13.2852 13.9559 13.6152 14.4232 14.0999C14.9083 14.6032 15.1835 15.2423 15.1835 15.9988C15.1835 16.7536 14.9108 17.3929 14.4284 17.8977C13.9633 18.3844 13.3327 18.717 12.6447 18.9504C11.2763 19.4145 9.46341 19.5568 7.59151 19.5568C5.73093 19.5568 3.91881 19.4199 2.54891 18.9618C1.86016 18.7315 1.2273 18.4021 0.759886 17.9176C0.274591 17.4145 -0.000488281 16.7754 -0.000488281 16.0188C-0.000488281 15.2639 0.271957 14.6244 0.754135 14.1191C1.21902 13.632 1.84941 13.2988 2.53751 13.0649Z" fill="#FFFFFF"/>
<path fill-rule="evenodd" clip-rule="evenodd" d="M7.59151 1.99976C5.5835 1.99976 3.95551 3.62719 3.95551 5.63476C3.95551 7.64232 5.5835 9.26976 7.59151 9.26976H7.62094C9.61952 9.26164 11.234 7.63558 11.2265 5.63755L11.2265 5.63476C11.2265 3.62708 9.59841 1.99976 7.59151 1.99976ZM2.45551 5.63476C2.45551 2.79832 4.75552 0.499756 7.59151 0.499756C10.4261 0.499756 12.7257 2.7976 12.7265 5.63322C12.7364 8.46021 10.4517 10.7592 7.62531 10.7698L7.62251 10.7698H7.59151C4.75552 10.7698 2.45551 8.47119 2.45551 5.63476Z" fill="#FFFFFF"/>
<path fill-rule="evenodd" clip-rule="evenodd" d="M13.818 2.24217C13.885 1.83342 14.2707 1.55641 14.6795 1.62344C16.6031 1.93893 18.0701 3.60722 18.0701 5.61956L18.0701 5.62091C18.0664 7.66255 16.553 9.34803 14.5875 9.62426C14.1773 9.6819 13.7981 9.39612 13.7404 8.98593C13.6828 8.57575 13.9686 8.1965 14.3787 8.13885C15.615 7.96511 16.5675 6.90293 16.5701 5.61887C16.5698 4.35351 15.6469 3.30215 14.4367 3.10367C14.028 3.03663 13.751 2.65092 13.818 2.24217Z" fill="#FFFFFF"/>
<path fill-rule="evenodd" clip-rule="evenodd" d="M15.8536 12.6217C15.9146 12.212 16.2962 11.9293 16.7059 11.9903C17.5221 12.1119 18.3068 12.3264 18.9055 12.7192C19.5418 13.1368 19.9794 13.7705 19.9794 14.6272C19.9794 15.1957 19.785 15.6902 19.4331 16.0879C19.0951 16.4698 18.6419 16.7299 18.1617 16.9123C17.7745 17.0594 17.3414 16.8647 17.1943 16.4775C17.0472 16.0903 17.2419 15.6571 17.6291 15.51C17.9729 15.3794 18.1867 15.233 18.3097 15.0939C18.4189 14.9706 18.4794 14.8296 18.4794 14.6272C18.4794 14.3638 18.3755 14.1655 18.0826 13.9733C17.752 13.7564 17.2198 13.5834 16.4849 13.474C16.0752 13.413 15.7926 13.0314 15.8536 12.6217Z" fill="#FFFFFF"/>
</svg>
