<svg width="20" height="20" viewBox="0 0 20 20" fill="none" xmlns="http://www.w3.org/2000/svg">
<path fill-rule="evenodd" clip-rule="evenodd" d="M1.59257 2.75839C1.54151 3.16337 1.53847 3.67158 1.53847 4.35897C1.53847 5.04909 1.53898 5.55757 1.58754 5.96466C1.6354 6.3658 1.72041 6.5652 1.81509 6.68392C1.90056 6.79108 2.06395 6.91994 2.46522 7.02014C2.87878 7.12341 3.47883 7.17949 4.35898 7.17949C5.23912 7.17949 5.83917 7.12341 6.25273 7.02014C6.65401 6.91994 6.8174 6.79108 6.90286 6.68392C6.99754 6.5652 7.08256 6.3658 7.13041 5.96466C7.17898 5.55757 7.17949 5.04909 7.17949 4.35897C7.17949 3.67158 7.17644 3.16337 7.12539 2.75839C7.07508 2.35941 6.98794 2.15822 6.89041 2.0373C6.80152 1.92706 6.63453 1.79775 6.23512 1.69764C5.82349 1.59447 5.2285 1.53846 4.35898 1.53846C3.48946 1.53846 2.89447 1.59447 2.48283 1.69764C2.08342 1.79775 1.91644 1.92706 1.82754 2.0373C1.73002 2.15822 1.64287 2.35941 1.59257 2.75839ZM2.10881 0.20534C2.70409 0.056141 3.44804 0 4.35898 0C5.26991 0 6.01387 0.056141 6.60915 0.20534C7.21665 0.357603 7.72454 0.620878 8.08797 1.07151C8.44276 1.51146 8.58538 2.03943 8.65176 2.56595C8.71739 3.08647 8.71795 3.7001 8.71795 4.35897C8.71795 4.37832 8.71795 4.39762 8.71795 4.41689C8.71801 5.0512 8.71806 5.64378 8.65804 6.1469C8.59549 6.67127 8.45828 7.20101 8.10566 7.64316C7.74382 8.09687 7.23485 8.3606 6.62544 8.51277C6.02832 8.66188 5.27938 8.71795 4.35898 8.71795C3.43858 8.71795 2.68963 8.66188 2.09251 8.51277C1.48311 8.3606 0.974133 8.09687 0.612297 7.64316C0.259681 7.20101 0.122468 6.67127 0.0599148 6.1469C-0.000103517 5.64378 -5.19217e-05 5.0512 3.34248e-06 4.41689C4.99307e-06 4.39762 6.64366e-06 4.37832 6.64366e-06 4.35897C6.64366e-06 3.7001 0.000566251 3.08647 0.0661921 2.56595C0.132574 2.03943 0.275193 1.51146 0.629991 1.07151C0.993412 0.620878 1.50131 0.357603 2.10881 0.20534Z" fill="#A9ACBC"/>
<path fill-rule="evenodd" clip-rule="evenodd" d="M12.8746 2.75839C12.8236 3.16337 12.8205 3.67158 12.8205 4.35897C12.8205 5.04909 12.821 5.55757 12.8696 5.96466C12.9174 6.3658 13.0025 6.5652 13.0971 6.68392C13.1826 6.79108 13.346 6.91994 13.7473 7.02014C14.1608 7.12341 14.7609 7.17949 15.641 7.17949C16.5212 7.17949 17.1212 7.12341 17.5348 7.02014C17.9361 6.91994 18.0994 6.79108 18.1849 6.68392C18.2796 6.5652 18.3646 6.3658 18.4125 5.96466C18.461 5.55757 18.4615 5.04909 18.4615 4.35897C18.4615 3.67158 18.4585 3.16337 18.4074 2.75839C18.3571 2.35941 18.27 2.15822 18.1725 2.0373C18.0836 1.92706 17.9166 1.79775 17.5172 1.69764C17.1055 1.59447 16.5105 1.53846 15.641 1.53846C14.7715 1.53846 14.1765 1.59447 13.7649 1.69764C13.3655 1.79775 13.1985 1.92706 13.1096 2.0373C13.0121 2.15822 12.9249 2.35941 12.8746 2.75839ZM13.3909 0.20534C13.9861 0.056141 14.7301 0 15.641 0C16.552 0 17.2959 0.056141 17.8912 0.20534C18.4987 0.357603 19.0066 0.620878 19.37 1.07151C19.7248 1.51146 19.8674 2.03943 19.9338 2.56595C19.9994 3.08647 20 3.7001 20 4.35897C20 4.37832 20 4.39762 20 4.41689C20.0001 5.0512 20.0001 5.64378 19.9401 6.1469C19.8775 6.67127 19.7403 7.20101 19.3877 7.64316C19.0259 8.09687 18.5169 8.3606 17.9075 8.51277C17.3104 8.66188 16.5614 8.71795 15.641 8.71795C14.7206 8.71795 13.9717 8.66188 13.3746 8.51277C12.7652 8.3606 12.2562 8.09687 11.8943 7.64316C11.5417 7.20101 11.4045 6.67127 11.342 6.1469C11.2819 5.64378 11.282 5.0512 11.282 4.41689C11.282 4.39762 11.2821 4.37832 11.2821 4.35897C11.2821 3.7001 11.2826 3.08647 11.3482 2.56595C11.4146 2.03943 11.5572 1.51146 11.912 1.07151C12.2755 0.620878 12.7834 0.357603 13.3909 0.20534Z" fill="#A9ACBC"/>
<path fill-rule="evenodd" clip-rule="evenodd" d="M1.59257 14.0404C1.54151 14.4454 1.53847 14.9536 1.53847 15.641C1.53847 16.3311 1.53898 16.8396 1.58754 17.2467C1.6354 17.6479 1.72041 17.8473 1.81509 17.966C1.90056 18.0731 2.06395 18.202 2.46522 18.3022C2.87878 18.4055 3.47883 18.4615 4.35898 18.4615C5.23912 18.4615 5.83917 18.4055 6.25273 18.3022C6.65401 18.202 6.8174 18.0731 6.90286 17.966C6.99754 17.8473 7.08256 17.6479 7.13041 17.2467C7.17898 16.8396 7.17949 16.3311 7.17949 15.641C7.17949 14.9536 7.17644 14.4454 7.12539 14.0404C7.07508 13.6415 6.98794 13.4403 6.89041 13.3193C6.80152 13.2091 6.63453 13.0798 6.23512 12.9797C5.82349 12.8765 5.2285 12.8205 4.35898 12.8205C3.48946 12.8205 2.89447 12.8765 2.48283 12.9797C2.08342 13.0798 1.91644 13.2091 1.82754 13.3193C1.73002 13.4403 1.64287 13.6415 1.59257 14.0404ZM2.10881 11.4874C2.70409 11.3382 3.44804 11.2821 4.35898 11.2821C5.26991 11.2821 6.01387 11.3382 6.60915 11.4874C7.21665 11.6397 7.72454 11.9029 8.08797 12.3536C8.44276 12.7935 8.58538 13.3215 8.65176 13.848C8.71739 14.3685 8.71795 14.9822 8.71795 15.641C8.71795 15.6604 8.71795 15.6797 8.71795 15.6989C8.71801 16.3333 8.71806 16.9258 8.65804 17.4289C8.59549 17.9533 8.45828 18.4831 8.10566 18.9252C7.74382 19.3789 7.23485 19.6427 6.62544 19.7948C6.02832 19.9439 5.27938 20 4.35898 20C3.43858 20 2.68963 19.9439 2.09251 19.7948C1.48311 19.6427 0.974133 19.3789 0.612297 18.9252C0.259681 18.4831 0.122468 17.9533 0.0599148 17.4289C-0.000103517 16.9258 -5.19217e-05 16.3333 3.34248e-06 15.6989C4.99307e-06 15.6797 6.64366e-06 15.6604 6.64366e-06 15.641C6.64366e-06 14.9822 0.000566251 14.3685 0.0661921 13.848C0.132574 13.3215 0.275193 12.7935 0.629991 12.3536C0.993412 11.9029 1.50131 11.6397 2.10881 11.4874Z" fill="#A9ACBC"/>
<path fill-rule="evenodd" clip-rule="evenodd" d="M12.8746 14.0404C12.8236 14.4454 12.8205 14.9536 12.8205 15.641C12.8205 16.3311 12.821 16.8396 12.8696 17.2467C12.9174 17.6479 13.0025 17.8473 13.0971 17.966C13.1826 18.0731 13.346 18.202 13.7473 18.3022C14.1608 18.4055 14.7609 18.4615 15.641 18.4615C16.5212 18.4615 17.1212 18.4055 17.5348 18.3022C17.9361 18.202 18.0994 18.0731 18.1849 17.966C18.2796 17.8473 18.3646 17.6479 18.4125 17.2467C18.461 16.8396 18.4615 16.3311 18.4615 15.641C18.4615 14.9536 18.4585 14.4454 18.4074 14.0404C18.3571 13.6415 18.27 13.4403 18.1725 13.3193C18.0836 13.2091 17.9166 13.0798 17.5172 12.9797C17.1055 12.8765 16.5105 12.8205 15.641 12.8205C14.7715 12.8205 14.1765 12.8765 13.7649 12.9797C13.3655 13.0798 13.1985 13.2091 13.1096 13.3193C13.0121 13.4403 12.9249 13.6415 12.8746 14.0404ZM13.3909 11.4874C13.9861 11.3382 14.7301 11.2821 15.641 11.2821C16.552 11.2821 17.2959 11.3382 17.8912 11.4874C18.4987 11.6397 19.0066 11.9029 19.37 12.3536C19.7248 12.7935 19.8674 13.3215 19.9338 13.848C19.9994 14.3685 20 14.9822 20 15.641C20 15.6604 20 15.6797 20 15.6989C20.0001 16.3333 20.0001 16.9258 19.9401 17.4289C19.8775 17.9533 19.7403 18.4831 19.3877 18.9252C19.0259 19.3789 18.5169 19.6427 17.9075 19.7948C17.3104 19.9439 16.5614 20 15.641 20C14.7206 20 13.9717 19.9439 13.3746 19.7948C12.7652 19.6427 12.2562 19.3789 11.8943 18.9252C11.5417 18.4831 11.4045 17.9533 11.342 17.4289C11.2819 16.9258 11.282 16.3333 11.282 15.6989C11.282 15.6797 11.2821 15.6604 11.2821 15.641C11.2821 14.9822 11.2826 14.3685 11.3482 13.848C11.4146 13.3215 11.5572 12.7935 11.912 12.3536C12.2755 11.9029 12.7834 11.6397 13.3909 11.4874Z" fill="#A9ACBC"/>
</svg>
