<svg width="18" height="20" viewBox="0 0 18 20" fill="none" xmlns="http://www.w3.org/2000/svg">
<path fill-rule="evenodd" clip-rule="evenodd" d="M4.57335 1.51166C2.91635 1.51166 1.54035 2.85366 1.50135 4.50866V15.2037C1.46435 16.9167 2.81435 18.3277 4.51035 18.3657H12.5743C14.2433 18.2967 15.5653 16.9097 15.5533 15.2097V6.33966L10.9183 1.51166H4.57335ZM4.47635 19.8657C1.95435 19.8087 -0.0536524 17.7107 0.00134757 15.1877V4.49066C0.0593476 2.00966 2.10835 0.011663 4.57135 0.011663H11.2383C11.4423 0.011663 11.6373 0.094663 11.7793 0.241663L16.8443 5.51866C16.9783 5.65766 17.0533 5.84466 17.0533 6.03766V15.2037C17.0713 17.7127 15.1173 19.7627 12.6043 19.8647L4.47635 19.8657Z" fill="#FF3366"/>
<path fill-rule="evenodd" clip-rule="evenodd" d="M16.2985 6.98424H13.5435C11.7135 6.97924 10.2255 5.48724 10.2255 3.65924V0.750244C10.2255 0.336244 10.5615 0.000244141 10.9755 0.000244141C11.3895 0.000244141 11.7255 0.336244 11.7255 0.750244V3.65924C11.7255 4.66324 12.5425 5.48124 13.5455 5.48424H16.2985C16.7125 5.48424 17.0485 5.82024 17.0485 6.23424C17.0485 6.64824 16.7125 6.98424 16.2985 6.98424Z" fill="#FF3366"/>
<path fill-rule="evenodd" clip-rule="evenodd" d="M10.7887 14.1083H5.3887C4.9747 14.1083 4.6387 13.7723 4.6387 13.3583C4.6387 12.9443 4.9747 12.6083 5.3887 12.6083H10.7887C11.2027 12.6083 11.5387 12.9443 11.5387 13.3583C11.5387 13.7723 11.2027 14.1083 10.7887 14.1083Z" fill="#FF3366"/>
<path fill-rule="evenodd" clip-rule="evenodd" d="M8.7438 10.3563H5.3878C4.9738 10.3563 4.6378 10.0203 4.6378 9.60634C4.6378 9.19234 4.9738 8.85634 5.3878 8.85634H8.7438C9.1578 8.85634 9.4938 9.19234 9.4938 9.60634C9.4938 10.0203 9.1578 10.3563 8.7438 10.3563Z" fill="#FF3366"/>
</svg>
