<svg width="24" height="24" viewBox="0 0 24 24" fill="none" xmlns="http://www.w3.org/2000/svg">
<path fill-rule="evenodd" clip-rule="evenodd" d="M8.57746 3.519V20.2279H14.4085C14.8285 20.2279 15.169 20.5679 15.169 20.9874C15.169 21.4068 14.8285 21.7469 14.4085 21.7469H5.78873C4.24856 21.7469 3 20.5001 3 18.9621V4.78483C3 3.24681 4.24856 2.00001 5.78873 2.00001L17.9578 2C19.4979 2.00001 20.7465 3.24681 20.7465 4.78482V15.4177C20.7465 15.8372 20.406 16.1772 19.9859 16.1772C19.5659 16.1772 19.2254 15.8372 19.2254 15.4177V4.78482C19.2254 4.08572 18.6578 3.51899 17.9578 3.51899L8.57746 3.519ZM7.05634 20.2279V3.519H5.78873C5.08865 3.519 4.52113 4.08573 4.52113 4.78483V18.9621C4.52113 19.6612 5.08865 20.2279 5.78873 20.2279H7.05634Z" fill="#A9ACBC"/>
<path fill-rule="evenodd" clip-rule="evenodd" d="M10.0986 5.79749C10.0986 5.37803 10.4391 5.03799 10.8592 5.03799H16.9437C17.3637 5.03799 17.7042 5.37803 17.7042 5.79749C17.7042 6.21694 17.3637 6.55698 16.9437 6.55698H10.8592C10.4391 6.55698 10.0986 6.21694 10.0986 5.79749ZM10.0986 8.83547C10.0986 8.41601 10.4391 8.07597 10.8592 8.07597H16.9437C17.3637 8.07597 17.7042 8.41601 17.7042 8.83547C17.7042 9.25492 17.3637 9.59496 16.9437 9.59496H10.8592C10.4391 9.59496 10.0986 9.25492 10.0986 8.83547Z" fill="#A9ACBC"/>
<path fill-rule="evenodd" clip-rule="evenodd" d="M16.3755 14.5893C16.0901 14.3437 15.6676 14.3437 15.3823 14.5893L13.7597 15.9861C13.4416 16.26 13.406 16.7396 13.6803 17.0573C13.9545 17.375 14.4348 17.4105 14.7529 17.1366L15.1183 16.8221V18.6565C15.1183 19.076 15.4588 19.416 15.8788 19.416C16.2989 19.416 16.6394 19.076 16.6394 18.6565V16.8221L17.0048 17.1366C17.3229 17.4105 17.8032 17.375 18.0775 17.0573C18.3517 16.7396 18.3161 16.26 17.998 15.9861L16.3755 14.5893Z" fill="#A9ACBC"/>
<path fill-rule="evenodd" clip-rule="evenodd" d="M15.9296 20.481C17.8898 20.481 19.4789 18.8942 19.4789 16.9367C19.4789 14.9792 17.8898 13.3924 15.9296 13.3924C13.9694 13.3924 12.3803 14.9792 12.3803 16.9367C12.3803 18.8942 13.9694 20.481 15.9296 20.481ZM15.9296 22C18.7299 22 21 19.7331 21 16.9367C21 14.1403 18.7299 11.8734 15.9296 11.8734C13.1293 11.8734 10.8592 14.1403 10.8592 16.9367C10.8592 19.7331 13.1293 22 15.9296 22Z" fill="#A9ACBC"/>
</svg>
