<svg width="20" height="20" viewBox="0 0 20 20" fill="none" xmlns="http://www.w3.org/2000/svg">
<path d="M10 0.400024C4.69817 0.400024 0.400024 4.69817 0.400024 10C0.400024 15.3026 4.69855 19.6 10.0004 19.6C15.3026 19.6 19.6 15.3026 19.6 10C19.6 4.69817 15.3026 0.400024 10 0.400024ZM10.4061 4.19745C11.103 4.19745 11.6677 4.76256 11.6677 5.45947C11.6677 6.15639 11.103 6.72149 10.4061 6.72149C9.70914 6.72149 9.14403 6.15639 9.14403 5.45947C9.14403 4.76256 9.70914 4.19745 10.4061 4.19745ZM11.5374 15.3632C11.5374 15.3632 10.5432 16.1969 9.29061 15.5681C9.0126 15.4291 8.77777 15.1879 8.62778 14.9224C8.20244 14.1701 8.36606 13.363 8.36606 13.363L8.49105 12.3733L8.81565 9.79246L7.93163 9.81178C7.51764 9.82125 7.176 9.49287 7.16691 9.07926C7.15972 8.75808 7.35857 8.47931 7.64112 8.36682L9.90647 7.47484C10.4458 7.26236 11.0549 7.52749 11.267 8.06684C11.348 8.27175 11.3598 8.48537 11.3136 8.6846L11.2836 8.81906L10.3977 12.7093L10.1765 13.6819C10.144 13.8285 10.139 13.8618 10.1296 13.9387C10.1057 14.3766 10.7284 14.0482 10.7284 14.0482C11.1022 13.8418 11.5726 13.9785 11.7779 14.3523C11.9715 14.7034 11.8593 15.1405 11.5374 15.3632Z" fill="#DA1E28"/>
</svg>
