<svg width="18" height="20" viewBox="0 0 18 20" fill="none" xmlns="http://www.w3.org/2000/svg">
<path fill-rule="evenodd" clip-rule="evenodd" d="M4.7031 14.2877C4.7031 13.8716 5.03584 13.5343 5.44629 13.5343H12.6007C13.0112 13.5343 13.3439 13.8716 13.3439 14.2877C13.3439 14.7037 13.0112 15.041 12.6007 15.041H5.44629C5.03584 15.041 4.7031 14.7037 4.7031 14.2877Z" fill="#FF3366"/>
<path fill-rule="evenodd" clip-rule="evenodd" d="M4.7031 10.0822C4.7031 9.66614 5.03584 9.32884 5.44629 9.32884H12.6007C13.0112 9.32884 13.3439 9.66614 13.3439 10.0822C13.3439 10.4983 13.0112 10.8356 12.6007 10.8356H5.44629C5.03584 10.8356 4.7031 10.4983 4.7031 10.0822Z" fill="#FF3366"/>
<path fill-rule="evenodd" clip-rule="evenodd" d="M4.7032 5.88655C4.7032 5.47046 5.03594 5.13316 5.44639 5.13316H8.17637C8.58682 5.13316 8.91955 5.47046 8.91955 5.88655C8.91955 6.30263 8.58682 6.63994 8.17637 6.63994H5.44639C5.03594 6.63994 4.7032 6.30263 4.7032 5.88655Z" fill="#FF3366"/>
<path fill-rule="evenodd" clip-rule="evenodd" d="M12.7914 -0.000244141C14.3376 -0.000244021 15.6588 0.517034 16.5927 1.49409C17.5237 2.46823 18.0006 3.8268 18.0006 5.38097V14.6185C18.0006 16.1654 17.5272 17.5179 16.6038 18.4904C15.6776 19.4659 14.367 19.9871 12.8326 19.9967L12.828 19.9967L5.20951 19.9998C3.66324 19.9998 2.3416 19.4825 1.40798 18.5053C0.477188 17.5312 0.000610352 16.1726 0.000610352 14.6185V5.38097C0.000610352 3.83426 0.473729 2.48197 1.39693 1.50959C2.3229 0.534295 3.63337 0.0133682 5.16763 0.00378838L5.1722 0.00375976L12.7914 -0.000244141ZM12.7915 1.50654C12.7916 1.50654 12.7915 1.50654 12.7915 1.50654L5.17678 1.51054C5.17611 1.51054 5.17544 1.51055 5.17477 1.51055C3.97509 1.51848 3.07204 1.91811 2.46787 2.55447C1.86061 3.19408 1.48699 4.14516 1.48699 5.38097V14.6185C1.48699 15.8611 1.86359 16.8164 2.47565 17.457C3.08485 18.0946 3.99632 18.4929 5.20866 18.493C5.2086 18.493 5.20873 18.493 5.20866 18.493L12.8234 18.49C12.8241 18.49 12.8247 18.49 12.8254 18.49C14.025 18.4821 14.9284 18.0822 15.5329 17.4455C16.1404 16.8056 16.5142 15.8542 16.5142 14.6185V5.38097C16.5142 4.13855 16.1375 3.18321 15.5252 2.54259C14.9157 1.90493 14.0038 1.5066 12.7915 1.50654Z" fill="#FF3366"/>
</svg>
