<svg width="20" height="20" viewBox="0 0 20 20" fill="none" xmlns="http://www.w3.org/2000/svg">
<path fill-rule="evenodd" clip-rule="evenodd" d="M0.0905131 2.02821C-0.0301711 1.94764 -0.0301711 1.77007 0.0905133 1.68951L2.56976 0.0345248C2.70484 -0.0556458 2.88578 0.0413134 2.88578 0.203871V1.09563H5.30661C5.98028 1.09563 6.59613 1.47674 6.8974 2.08007L10 8.29336L13.1026 2.08007C13.4039 1.47674 14.0197 1.09563 14.6934 1.09563H17.1142V0.203871C17.1142 0.0413137 17.2952 -0.0556458 17.4302 0.0345248L19.9095 1.68951C20.0302 1.77007 20.0302 1.94764 19.9095 2.02821L17.4302 3.68319C17.2952 3.77336 17.1142 3.6764 17.1142 3.51385V2.62209H14.6934C14.5972 2.62209 14.5092 2.67654 14.4661 2.76273L10.8522 10L14.4661 17.2373C14.5092 17.3235 14.5972 17.3779 14.6934 17.3779H17.1142V16.4862C17.1142 16.3236 17.2952 16.2266 17.4302 16.3168L19.9095 17.9718C20.0302 18.0524 20.0302 18.2299 19.9095 18.3105L17.4302 19.9655C17.2952 20.0556 17.1142 19.9587 17.1142 19.7961V18.9044H14.6934C14.0197 18.9044 13.4039 18.5233 13.1026 17.9199L10 11.7066L6.8974 17.9199C6.59613 18.5233 5.98028 18.9044 5.30661 18.9044H2.88578V19.7961C2.88578 19.9587 2.70484 20.0556 2.56976 19.9655L0.0905131 18.3105C-0.0301711 18.2299 -0.0301711 18.0524 0.0905133 17.9718L2.56976 16.3168C2.70484 16.2266 2.88578 16.3236 2.88578 16.4862V17.3779H5.30661C5.40285 17.3779 5.49083 17.3235 5.53387 17.2373L9.14779 10L5.53387 2.76273C5.49083 2.67654 5.40285 2.62209 5.30661 2.62209H2.88578V3.51385C2.88578 3.6764 2.70484 3.77336 2.56976 3.68319L0.0905131 2.02821Z" fill="#F5F5F5"/>
</svg>
