<svg width="20" height="20" viewBox="0 0 20 20" fill="none" xmlns="http://www.w3.org/2000/svg">
<path fill-rule="evenodd" clip-rule="evenodd" d="M9.99976 19.9999C15.5228 19.9999 19.9998 15.5239 19.9998 9.99988C19.9998 4.47788 15.5228 -0.00012207 9.99976 -0.00012207C4.47676 -0.00012207 -0.000244141 4.47788 -0.000244141 9.99988C-0.000244141 15.5239 4.47676 19.9999 9.99976 19.9999ZM14.0901 8.15753C14.383 7.86463 14.383 7.38976 14.0901 7.09687C13.7973 6.80397 13.3224 6.80397 13.0295 7.09687L8.81371 11.3126L6.97004 9.46976C6.67708 9.17692 6.20221 9.17702 5.90938 9.46998C5.61655 9.76293 5.61665 10.2378 5.9096 10.5306L8.2836 12.9036C8.57651 13.1964 9.0513 13.1964 9.34415 12.9035L14.0901 8.15753Z" fill="#24A148"/>
</svg>
