<?xml version="1.0" encoding="UTF-8" standalone="no"?><svg xmlns="http://www.w3.org/2000/svg" xmlns:xlink="http://www.w3.org/1999/xlink"><symbol id="info" width="16" height="16" viewBox="0 0 16 16" xmlns="http://www.w3.org/2000/svg"><path d="M8 0C3.58179 0 0 3.58179 0 8C0 12.4188 3.5821 16 8.00032 16C12.4188 16 16 12.4188 16 8C16 3.58179 12.4188 0 8 0ZM8.33836 3.16452C8.91912 3.16452 9.38973 3.63545 9.38973 4.21621C9.38973 4.79697 8.91912 5.26789 8.33836 5.26789C7.75759 5.26789 7.28667 4.79697 7.28667 4.21621C7.28667 3.63545 7.75759 3.16452 8.33836 3.16452ZM9.28115 12.4693C9.28115 12.4693 8.45262 13.164 7.40882 12.6401C7.17715 12.5243 6.98146 12.3232 6.85647 12.1019C6.50201 11.4751 6.63837 10.8025 6.63837 10.8025L6.74252 9.97775L7.01302 7.82703L6.27634 7.84313C5.93135 7.85102 5.64665 7.57737 5.63908 7.2327C5.63308 6.96504 5.79878 6.73274 6.03425 6.639L7.92204 5.89568C8.3715 5.71861 8.87903 5.93956 9.05579 6.38902C9.12333 6.55977 9.13312 6.73779 9.09461 6.90381L9.06968 7.01586L8.33141 10.2577L8.14708 11.0683C8.11994 11.1904 8.11584 11.2182 8.10795 11.2823C8.08806 11.6471 8.60696 11.3735 8.60696 11.3735C8.91849 11.2015 9.3105 11.3154 9.48158 11.6269C9.64286 11.9195 9.54944 12.2838 9.28115 12.4693Z"></path></symbol><symbol id="clear" width="16" height="16" viewBox="0 0 16 16" xmlns="http://www.w3.org/2000/svg"><path fill-rule="evenodd" clip-rule="evenodd" d="M15.1101 0.9468C15.3537 1.19136 15.3529 1.58709 15.1083 1.83068L1.77673 15.1096C1.53217 15.3532 1.13645 15.3524 0.892853 15.1078C0.649259 14.8633 0.650042 14.4676 0.894602 14.224L14.2262 0.945051C14.4707 0.701456 14.8665 0.702239 15.1101 0.9468Z"></path><path fill-rule="evenodd" clip-rule="evenodd" d="M0.890352 0.893068C1.13349 0.648057 1.52922 0.64654 1.77423 0.889681L15.1076 14.1212C15.3526 14.3644 15.3541 14.7601 15.1109 15.0051C14.8678 15.2501 14.4721 15.2516 14.2271 15.0085L0.89374 1.77695C0.648728 1.5338 0.647212 1.13808 0.890352 0.893068Z"></path></symbol><symbol id="open-in-new-tab" width="14" height="14" viewBox="0 0 14 14" xmlns="http://www.w3.org/2000/svg"><path fill-rule="evenodd" clip-rule="evenodd" d="M9.89279 13.6663H4.1059C1.84925 13.6663 0.333008 12.0826 0.333008 9.72575V4.27359C0.333008 1.91672 1.84925 0.333008 4.1059 0.333008H6.55798C6.82949 0.333008 7.04984 0.55335 7.04984 0.824843C7.04984 1.09634 6.82949 1.31668 6.55798 1.31668H4.1059C2.41128 1.31668 1.31673 2.47741 1.31673 4.27359V9.72575C1.31673 11.5219 2.41128 12.6827 4.1059 12.6827H9.89279C11.5874 12.6827 12.6826 11.5219 12.6826 9.72575V7.08427C12.6826 6.81278 12.903 6.59243 13.1745 6.59243C13.446 6.59243 13.6663 6.81278 13.6663 7.08427V9.72575C13.6663 12.0826 12.1494 13.6663 9.89279 13.6663Z"></path><path fill-rule="evenodd" clip-rule="evenodd" d="M7.14584 6.85351C6.95095 6.65862 6.95095 6.34228 7.14584 6.14739L12.8141 0.479174C13.0089 0.284286 13.3253 0.284286 13.5202 0.479174C13.7151 0.674061 13.7151 0.990401 13.5202 1.18529L7.85196 6.85351C7.65707 7.0484 7.34073 7.0484 7.14584 6.85351Z"></path><path fill-rule="evenodd" clip-rule="evenodd" d="M9.82206 1.24928C9.72612 1.15335 9.66634 1.02025 9.66634 0.873591C9.66584 0.579769 9.90294 0.340693 10.1978 0.340191L13.1329 0.333662C13.4162 0.332657 13.6673 0.583787 13.6663 0.867062L13.6603 3.80227C13.6593 4.09659 13.4207 4.33416 13.1268 4.33366C12.8325 4.33265 12.5944 4.09458 12.5954 3.80026L12.5999 1.39996L10.1998 1.40498C10.0521 1.40599 9.91851 1.34572 9.82206 1.24928Z"></path></symbol><symbol id="add" width="18" height="18" viewBox="0 0 18 18" xmlns="http://www.w3.org/2000/svg"><path d="M8.99934 5.57188C9.32044 5.57188 9.58074 5.83218 9.58074 6.15328V8.41156H11.8417C12.1628 8.41156 12.4231 8.67185 12.4231 8.99295C12.4231 9.31405 12.1628 9.57435 11.8417 9.57435H9.58074V11.8326C9.58074 12.1537 9.32044 12.414 8.99934 12.414C8.67825 12.414 8.41795 12.1537 8.41795 11.8326V9.57435H6.15697C5.83587 9.57435 5.57557 9.31405 5.57557 8.99295C5.57557 8.67185 5.83587 8.41156 6.15697 8.41156H8.41795V6.15328C8.41795 5.83218 8.67825 5.57188 8.99934 5.57188Z"></path><path fill-rule="evenodd" clip-rule="evenodd" d="M5.36701 0.666992C3.9569 0.666992 2.76693 1.16997 1.93233 2.06526C1.10195 2.95602 0.666016 4.18864 0.666016 5.57797V12.4227C0.666016 13.8113 1.09968 15.044 1.92931 15.9351C2.7633 16.8309 3.95358 17.3337 5.36701 17.3337H12.6317C14.0451 17.3337 15.2354 16.8309 16.0694 15.9351C16.899 15.044 17.3327 13.8113 17.3327 12.4227V5.57797C17.3327 4.18935 16.899 2.95664 16.0694 2.06554C15.2354 1.16973 14.0451 0.666992 12.6317 0.666992H5.36701ZM1.82881 5.57797C1.82881 4.43003 2.18652 3.49785 2.78287 2.85814C3.37499 2.22297 4.24483 1.82978 5.36701 1.82978H12.6317C13.7579 1.82978 14.6275 2.2232 15.2183 2.85787C15.8136 3.49724 16.1699 4.42932 16.1699 5.57797V12.4227C16.1699 13.5713 15.8136 14.5034 15.2183 15.1428C14.6275 15.7775 13.7579 16.1709 12.6317 16.1709H5.36701C4.24076 16.1709 3.37124 15.7775 2.78036 15.1428C2.1851 14.5034 1.82881 13.5713 1.82881 12.4227V5.57797Z"></path></symbol><symbol id="on" width="16" height="17" viewBox="0 0 16 17" xmlns="http://www.w3.org/2000/svg"><path d="M1.625 9C1.625 12.5152 4.48475 15.375 8 15.375C11.5153 15.375 14.375 12.5152 14.375 9C14.375 7.23947 13.6577 5.64337 12.5 4.48857C12.5 4.48857 12.1528 4.09716 12.5 3.74998C12.875 3.37497 13.2899 3.68834 13.2899 3.68834C14.6544 5.04725 15.5 6.92674 15.5 9C15.5 13.1355 12.1355 16.5 8 16.5C3.8645 16.5 0.5 13.1355 0.5 9C0.5 6.929 1.34377 5.05136 2.70559 3.6928C2.70559 3.6928 3.12503 3.37497 3.5 3.74998C3.78677 4.03678 3.5 4.48857 3.5 4.48857C2.3423 5.64337 1.625 7.23947 1.625 9Z"></path><path fill-rule="evenodd" clip-rule="evenodd" d="M8 0.9375C8.31066 0.9375 8.5625 1.18934 8.5625 1.5V9C8.5625 9.31066 8.31066 9.5625 8 9.5625C7.68934 9.5625 7.4375 9.31066 7.4375 9V1.5C7.4375 1.18934 7.68934 0.9375 8 0.9375Z"></path></symbol><symbol id="close" width="10" height="10" viewBox="0 0 10 10" xmlns="http://www.w3.org/2000/svg"><path fill-rule="evenodd" clip-rule="evenodd" d="M9.26564 0.768092C9.4118 0.914828 9.41133 1.15226 9.26459 1.29842L1.26565 9.26577C1.11891 9.41193 0.881478 9.41146 0.735321 9.26472C0.589165 9.11798 0.589635 8.88055 0.736371 8.73439L8.73531 0.767043C8.88205 0.620886 9.11949 0.621356 9.26564 0.768092Z"></path><path fill-rule="evenodd" clip-rule="evenodd" d="M0.733821 0.735853C0.879705 0.588846 1.11714 0.587936 1.26415 0.733821L9.26415 8.67274C9.41115 8.81862 9.41206 9.05606 9.26618 9.20306C9.12029 9.35007 8.88286 9.35098 8.73585 9.2051L0.735853 1.26618C0.588846 1.1203 0.587936 0.88286 0.733821 0.735853Z"></path></symbol><symbol id="search" width="18" height="18" viewBox="0 0 18 18" xmlns="http://www.w3.org/2000/svg"><path fill-rule="evenodd" clip-rule="evenodd" d="M8.78185 1.91602C4.99602 1.91602 1.91602 4.99518 1.91602 8.78102C1.91602 12.5668 4.99602 15.6468 8.78185 15.6468C12.5668 15.6468 15.6468 12.5668 15.6468 8.78102C15.6468 4.99518 12.5668 1.91602 8.78185 1.91602ZM8.78185 16.8968C4.30685 16.8968 0.666016 13.256 0.666016 8.78102C0.666016 4.30602 4.30685 0.666016 8.78185 0.666016C13.2568 0.666016 16.8968 4.30602 16.8968 8.78102C16.8968 13.256 13.2568 16.8968 8.78185 16.8968Z"></path><path fill-rule="evenodd" clip-rule="evenodd" d="M16.9281 17.9341C16.7689 17.9341 16.6089 17.8733 16.4864 17.7516L13.5498 14.8233C13.3056 14.5791 13.3048 14.1833 13.5489 13.9391C13.7923 13.6933 14.1881 13.695 14.4331 13.9374L17.3698 16.8666C17.6139 17.1108 17.6148 17.5058 17.3706 17.75C17.2489 17.8733 17.0881 17.9341 16.9281 17.9341Z"></path></symbol><symbol id="sync" width="18" height="14" viewBox="0 0 18 14" xmlns="http://www.w3.org/2000/svg"><path d="M9.30264 0.333008C12.2486 0.333008 14.7081 2.53968 15.2897 5.4783L16.1976 3.64258L16.2498 3.55496C16.4237 3.30992 16.7447 3.22777 17.0098 3.37537C17.3042 3.53938 17.4181 3.92491 17.264 4.23649L15.0275 8.75919L11.455 5.50847L11.3792 5.42593C11.1991 5.191 11.1972 4.84658 11.3894 4.60937L11.4671 4.52921C11.6884 4.33901 12.0135 4.33789 12.2379 4.54207L14.1948 6.32258C13.9605 3.67788 11.8596 1.60826 9.30264 1.60826C8.10274 1.60826 7.00329 2.06399 6.15003 2.82103C5.92027 3.02488 5.66111 3.29597 5.30742 2.9256C4.95373 2.55523 5.14899 2.05124 5.30739 1.90635C6.37924 0.925921 7.7756 0.333008 9.30264 0.333008Z"></path><path d="M8.69606 13.6663C5.75014 13.6663 3.29058 11.4597 2.70903 8.52105L1.80113 10.3568L1.7489 10.4444C1.57502 10.6894 1.25398 10.7716 0.988942 10.624C0.694458 10.46 0.580635 10.0744 0.734711 9.76286L2.97119 5.24016L6.54368 8.49087L6.61953 8.57342C6.79961 8.80835 6.80147 9.15277 6.6093 9.38998L6.53157 9.47014C6.31026 9.66033 5.98517 9.66146 5.76079 9.45728L3.80387 7.67677C4.03822 10.3215 6.13906 12.3911 8.69606 12.3911C9.89596 12.3911 10.9954 11.9354 11.8487 11.1783C12.0784 10.9745 12.3376 10.7034 12.6913 11.0737C13.045 11.4441 12.8497 11.9481 12.6913 12.093C11.6195 13.0734 10.2231 13.6663 8.69606 13.6663Z"></path></symbol></svg>