<?xml version="1.0" encoding="UTF-8" standalone="no"?><svg xmlns="http://www.w3.org/2000/svg" xmlns:xlink="http://www.w3.org/1999/xlink"><symbol id="on" width="16" height="17" viewBox="0 0 16 17" xmlns="http://www.w3.org/2000/svg"><path d="M1.625 9C1.625 12.5152 4.48475 15.375 8 15.375C11.5153 15.375 14.375 12.5152 14.375 9C14.375 7.23947 13.6577 5.64337 12.5 4.48857C12.5 4.48857 12.1528 4.09716 12.5 3.74998C12.875 3.37497 13.2899 3.68834 13.2899 3.68834C14.6544 5.04725 15.5 6.92674 15.5 9C15.5 13.1355 12.1355 16.5 8 16.5C3.8645 16.5 0.5 13.1355 0.5 9C0.5 6.929 1.34377 5.05136 2.70559 3.6928C2.70559 3.6928 3.12503 3.37497 3.5 3.74998C3.78677 4.03678 3.5 4.48857 3.5 4.48857C2.3423 5.64337 1.625 7.23947 1.625 9Z"></path><path fill-rule="evenodd" clip-rule="evenodd" d="M8 0.9375C8.31066 0.9375 8.5625 1.18934 8.5625 1.5V9C8.5625 9.31066 8.31066 9.5625 8 9.5625C7.68934 9.5625 7.4375 9.31066 7.4375 9V1.5C7.4375 1.18934 7.68934 0.9375 8 0.9375Z"></path></symbol><symbol id="sync" width="18" height="14" viewBox="0 0 18 14" xmlns="http://www.w3.org/2000/svg"><path d="M9.30264 0.333008C12.2486 0.333008 14.7081 2.53968 15.2897 5.4783L16.1976 3.64258L16.2498 3.55496C16.4237 3.30992 16.7447 3.22777 17.0098 3.37537C17.3042 3.53938 17.4181 3.92491 17.264 4.23649L15.0275 8.75919L11.455 5.50847L11.3792 5.42593C11.1991 5.191 11.1972 4.84658 11.3894 4.60937L11.4671 4.52921C11.6884 4.33901 12.0135 4.33789 12.2379 4.54207L14.1948 6.32258C13.9605 3.67788 11.8596 1.60826 9.30264 1.60826C8.10274 1.60826 7.00329 2.06399 6.15003 2.82103C5.92027 3.02488 5.66111 3.29597 5.30742 2.9256C4.95373 2.55523 5.14899 2.05124 5.30739 1.90635C6.37924 0.925921 7.7756 0.333008 9.30264 0.333008Z"></path><path d="M8.69606 13.6663C5.75014 13.6663 3.29058 11.4597 2.70903 8.52105L1.80113 10.3568L1.7489 10.4444C1.57502 10.6894 1.25398 10.7716 0.988942 10.624C0.694458 10.46 0.580635 10.0744 0.734711 9.76286L2.97119 5.24016L6.54368 8.49087L6.61953 8.57342C6.79961 8.80835 6.80147 9.15277 6.6093 9.38998L6.53157 9.47014C6.31026 9.66033 5.98517 9.66146 5.76079 9.45728L3.80387 7.67677C4.03822 10.3215 6.13906 12.3911 8.69606 12.3911C9.89596 12.3911 10.9954 11.9354 11.8487 11.1783C12.0784 10.9745 12.3376 10.7034 12.6913 11.0737C13.045 11.4441 12.8497 11.9481 12.6913 12.093C11.6195 13.0734 10.2231 13.6663 8.69606 13.6663Z"></path></symbol><symbol id="open-in-new-tab" width="14" height="14" viewBox="0 0 14 14" xmlns="http://www.w3.org/2000/svg"><path fill-rule="evenodd" clip-rule="evenodd" d="M9.89279 13.6663H4.1059C1.84925 13.6663 0.333008 12.0826 0.333008 9.72575V4.27359C0.333008 1.91672 1.84925 0.333008 4.1059 0.333008H6.55798C6.82949 0.333008 7.04984 0.55335 7.04984 0.824843C7.04984 1.09634 6.82949 1.31668 6.55798 1.31668H4.1059C2.41128 1.31668 1.31673 2.47741 1.31673 4.27359V9.72575C1.31673 11.5219 2.41128 12.6827 4.1059 12.6827H9.89279C11.5874 12.6827 12.6826 11.5219 12.6826 9.72575V7.08427C12.6826 6.81278 12.903 6.59243 13.1745 6.59243C13.446 6.59243 13.6663 6.81278 13.6663 7.08427V9.72575C13.6663 12.0826 12.1494 13.6663 9.89279 13.6663Z"></path><path fill-rule="evenodd" clip-rule="evenodd" d="M7.14584 6.85351C6.95095 6.65862 6.95095 6.34228 7.14584 6.14739L12.8141 0.479174C13.0089 0.284286 13.3253 0.284286 13.5202 0.479174C13.7151 0.674061 13.7151 0.990401 13.5202 1.18529L7.85196 6.85351C7.65707 7.0484 7.34073 7.0484 7.14584 6.85351Z"></path><path fill-rule="evenodd" clip-rule="evenodd" d="M9.82206 1.24928C9.72612 1.15335 9.66634 1.02025 9.66634 0.873591C9.66584 0.579769 9.90294 0.340693 10.1978 0.340191L13.1329 0.333662C13.4162 0.332657 13.6673 0.583787 13.6663 0.867062L13.6603 3.80227C13.6593 4.09659 13.4207 4.33416 13.1268 4.33366C12.8325 4.33265 12.5944 4.09458 12.5954 3.80026L12.5999 1.39996L10.1998 1.40498C10.0521 1.40599 9.91851 1.34572 9.82206 1.24928Z"></path></symbol></svg>