<?xml version="1.0" encoding="UTF-8" standalone="no"?><svg xmlns="http://www.w3.org/2000/svg" xmlns:xlink="http://www.w3.org/1999/xlink"><symbol id="add" width="18" height="18" viewBox="0 0 18 18" xmlns="http://www.w3.org/2000/svg"><path d="M8.99934 5.57188C9.32044 5.57188 9.58074 5.83218 9.58074 6.15328V8.41156H11.8417C12.1628 8.41156 12.4231 8.67185 12.4231 8.99295C12.4231 9.31405 12.1628 9.57435 11.8417 9.57435H9.58074V11.8326C9.58074 12.1537 9.32044 12.414 8.99934 12.414C8.67825 12.414 8.41795 12.1537 8.41795 11.8326V9.57435H6.15697C5.83587 9.57435 5.57557 9.31405 5.57557 8.99295C5.57557 8.67185 5.83587 8.41156 6.15697 8.41156H8.41795V6.15328C8.41795 5.83218 8.67825 5.57188 8.99934 5.57188Z"></path><path fill-rule="evenodd" clip-rule="evenodd" d="M5.36701 0.666992C3.9569 0.666992 2.76693 1.16997 1.93233 2.06526C1.10195 2.95602 0.666016 4.18864 0.666016 5.57797V12.4227C0.666016 13.8113 1.09968 15.044 1.92931 15.9351C2.7633 16.8309 3.95358 17.3337 5.36701 17.3337H12.6317C14.0451 17.3337 15.2354 16.8309 16.0694 15.9351C16.899 15.044 17.3327 13.8113 17.3327 12.4227V5.57797C17.3327 4.18935 16.899 2.95664 16.0694 2.06554C15.2354 1.16973 14.0451 0.666992 12.6317 0.666992H5.36701ZM1.82881 5.57797C1.82881 4.43003 2.18652 3.49785 2.78287 2.85814C3.37499 2.22297 4.24483 1.82978 5.36701 1.82978H12.6317C13.7579 1.82978 14.6275 2.2232 15.2183 2.85787C15.8136 3.49724 16.1699 4.42932 16.1699 5.57797V12.4227C16.1699 13.5713 15.8136 14.5034 15.2183 15.1428C14.6275 15.7775 13.7579 16.1709 12.6317 16.1709H5.36701C4.24076 16.1709 3.37124 15.7775 2.78036 15.1428C2.1851 14.5034 1.82881 13.5713 1.82881 12.4227V5.57797Z"></path></symbol><symbol id="check-done" width="18" height="18" viewBox="0 0 18 18" xmlns="http://www.w3.org/2000/svg"><path fill-rule="evenodd" clip-rule="evenodd" d="M8.99935 1.91699C5.08786 1.91699 1.91602 5.08884 1.91602 9.00033C1.91602 12.9119 5.08707 16.0837 8.99935 16.0837C12.9108 16.0837 16.0827 12.9118 16.0827 9.00033C16.0827 5.08805 12.9109 1.91699 8.99935 1.91699ZM0.666016 9.00033C0.666016 4.39848 4.3975 0.666992 8.99935 0.666992C13.6011 0.666992 17.3327 4.3976 17.3327 9.00033C17.3327 13.6022 13.6012 17.3337 8.99935 17.3337C4.39663 17.3337 0.666016 13.6021 0.666016 9.00033Z"></path><path fill-rule="evenodd" clip-rule="evenodd" d="M12.4076 6.58095C12.6517 6.82502 12.6517 7.22075 12.4076 7.46483L8.4526 11.4198C8.20856 11.6639 7.81291 11.6639 7.56881 11.4199L5.59048 9.44242C5.34635 9.1984 5.34627 8.80267 5.59029 8.55854C5.83432 8.31441 6.23005 8.31433 6.47418 8.55835L8.01057 10.0941L11.5237 6.58095C11.7678 6.33687 12.1635 6.33687 12.4076 6.58095Z"></path></symbol><symbol id="clear" width="16" height="16" viewBox="0 0 16 16" xmlns="http://www.w3.org/2000/svg"><path fill-rule="evenodd" clip-rule="evenodd" d="M15.1101 0.9468C15.3537 1.19136 15.3529 1.58709 15.1083 1.83068L1.77673 15.1096C1.53217 15.3532 1.13645 15.3524 0.892853 15.1078C0.649259 14.8633 0.650042 14.4676 0.894602 14.224L14.2262 0.945051C14.4707 0.701456 14.8665 0.702239 15.1101 0.9468Z"></path><path fill-rule="evenodd" clip-rule="evenodd" d="M0.890352 0.893068C1.13349 0.648057 1.52922 0.64654 1.77423 0.889681L15.1076 14.1212C15.3526 14.3644 15.3541 14.7601 15.1109 15.0051C14.8678 15.2501 14.4721 15.2516 14.2271 15.0085L0.89374 1.77695C0.648728 1.5338 0.647212 1.13808 0.890352 0.893068Z"></path></symbol><symbol id="close" width="10" height="10" viewBox="0 0 10 10" xmlns="http://www.w3.org/2000/svg"><path fill-rule="evenodd" clip-rule="evenodd" d="M9.26564 0.768092C9.4118 0.914828 9.41133 1.15226 9.26459 1.29842L1.26565 9.26577C1.11891 9.41193 0.881478 9.41146 0.735321 9.26472C0.589165 9.11798 0.589635 8.88055 0.736371 8.73439L8.73531 0.767043C8.88205 0.620886 9.11949 0.621356 9.26564 0.768092Z"></path><path fill-rule="evenodd" clip-rule="evenodd" d="M0.733821 0.735853C0.879705 0.588846 1.11714 0.587936 1.26415 0.733821L9.26415 8.67274C9.41115 8.81862 9.41206 9.05606 9.26618 9.20306C9.12029 9.35007 8.88286 9.35098 8.73585 9.2051L0.735853 1.26618C0.588846 1.1203 0.587936 0.88286 0.733821 0.735853Z"></path></symbol><symbol id="alert" width="18" height="16" viewBox="0 0 18 16" xmlns="http://www.w3.org/2000/svg"><path fill-rule="evenodd" clip-rule="evenodd" d="M6.9736 1.66627C7.87322 0.11044 10.1382 0.111678 11.0366 1.66738L17.021 12.0307C17.9139 13.5766 16.7858 15.5 14.989 15.5H3.01109C1.21291 15.5 0.086428 13.5753 0.979097 12.0298L6.9736 1.66627ZM9.95228 2.28159C9.53323 1.55598 8.47711 1.55557 8.05761 2.28107L2.06339 12.6441C1.64727 13.3651 2.17281 14.2628 3.01109 14.2628H14.989C15.8271 14.2628 16.3529 13.3655 15.9367 12.645L9.95228 2.28159Z"></path><path fill-rule="evenodd" clip-rule="evenodd" d="M8.99754 5.91445C9.34249 5.91445 9.62213 6.1914 9.62213 6.53303V9.08984C9.62213 9.43147 9.34249 9.70842 8.99754 9.70842C8.65259 9.70842 8.37296 9.43147 8.37296 9.08984V6.53303C8.37296 6.1914 8.65259 5.91445 8.99754 5.91445Z"></path><path fill-rule="evenodd" clip-rule="evenodd" d="M8.15852 11.6344C8.15852 11.1789 8.53136 10.8097 8.9913 10.8097H8.99963C9.45956 10.8097 9.83241 11.1789 9.83241 11.6344C9.83241 12.09 9.45956 12.4592 8.99963 12.4592H8.9913C8.53136 12.4592 8.15852 12.09 8.15852 11.6344Z"></path></symbol><symbol id="document" width="18" height="20" viewBox="0 0 18 20" xmlns="http://www.w3.org/2000/svg"><path fill-rule="evenodd" clip-rule="evenodd" d="M4.70249 14.2879C4.70249 13.8718 5.03523 13.5345 5.44568 13.5345H12.6001C13.0106 13.5345 13.3433 13.8718 13.3433 14.2879C13.3433 14.704 13.0106 15.0413 12.6001 15.0413H5.44568C5.03523 15.0413 4.70249 14.704 4.70249 14.2879Z"></path><path fill-rule="evenodd" clip-rule="evenodd" d="M4.70249 10.0825C4.70249 9.66638 5.03523 9.32908 5.44568 9.32908H12.6001C13.0106 9.32908 13.3433 9.66638 13.3433 10.0825C13.3433 10.4986 13.0106 10.8359 12.6001 10.8359H5.44568C5.03523 10.8359 4.70249 10.4986 4.70249 10.0825Z"></path><path fill-rule="evenodd" clip-rule="evenodd" d="M4.70259 5.88679C4.70259 5.4707 5.03533 5.1334 5.44578 5.1334H8.17576C8.58621 5.1334 8.91894 5.4707 8.91894 5.88679C8.91894 6.30288 8.58621 6.64018 8.17576 6.64018H5.44578C5.03533 6.64018 4.70259 6.30288 4.70259 5.88679Z"></path><path fill-rule="evenodd" clip-rule="evenodd" d="M12.7908 0C14.337 1.19748e-07 15.6582 0.517278 16.592 1.49434C17.5231 2.46847 18 3.82705 18 5.38122V14.6188C18 16.1656 17.5266 17.5181 16.6032 18.4907C15.677 19.4661 14.3663 19.9874 12.832 19.997L12.8274 19.997L5.2089 20C3.66263 20 2.34099 19.4827 1.40737 18.5056C0.476577 17.5314 0 16.1728 0 14.6188V5.38122C0 3.8345 0.473118 2.48222 1.39632 1.50983C2.32229 0.534539 3.63276 0.0136123 5.16702 0.00403252L5.17159 0.0040039L12.7908 0ZM12.7909 1.50678C12.791 1.50678 12.7909 1.50678 12.7909 1.50678L5.17617 1.51078C5.1755 1.51079 5.17483 1.51079 5.17415 1.5108C3.97448 1.51873 3.07143 1.91835 2.46726 2.55471C1.85999 3.19433 1.48637 4.14541 1.48637 5.38122V14.6188C1.48637 15.8613 1.86298 16.8167 2.47504 17.4573C3.08424 18.0949 3.99571 18.4932 5.20805 18.4932C5.20799 18.4932 5.20812 18.4932 5.20805 18.4932L12.8228 18.4902C12.8235 18.4902 12.8241 18.4902 12.8248 18.4902C14.0244 18.4823 14.9277 18.0825 15.5322 17.4458C16.1398 16.8059 16.5136 15.8545 16.5136 14.6188V5.38122C16.5136 4.1388 16.1368 3.18346 15.5246 2.54283C14.9151 1.90518 14.0032 1.50685 12.7909 1.50678Z"></path></symbol><symbol id="copy" width="12" height="16" viewBox="0 0 12 16" xmlns="http://www.w3.org/2000/svg"><path fill-rule="evenodd" clip-rule="evenodd" d="M3.25424 0.5C2.91725 0.5 2.64407 0.783763 2.64407 1.1338C2.64407 1.48384 2.91725 1.76761 3.25424 1.76761H8.94915C9.96012 1.76761 10.7797 2.6189 10.7797 3.66901V12.1197C10.7797 12.4698 11.0528 12.7535 11.3898 12.7535C11.7268 12.7535 12 12.4698 12 12.1197V3.66901C12 1.91882 10.6341 0.5 8.94915 0.5H3.25424ZM2.44068 4.09155H7.32203C7.99601 4.09155 8.54237 4.65908 8.54237 5.35915V12.9648C8.54237 13.6649 7.99601 14.2324 7.32203 14.2324H2.44068C1.7667 14.2324 1.22034 13.6649 1.22034 12.9648V5.35915C1.22034 4.65908 1.7667 4.09155 2.44068 4.09155ZM0 5.35915C0 3.959 1.09273 2.82394 2.44068 2.82394H7.32203C8.66998 2.82394 9.76271 3.959 9.76271 5.35915V12.9648C9.76271 14.3649 8.66998 15.5 7.32203 15.5H2.44068C1.09273 15.5 0 14.3649 0 12.9648V5.35915Z"></path><path fill-rule="evenodd" clip-rule="evenodd" d="M2.79944 1.55634C2.70282 1.44421 2.64407 1.29613 2.64407 1.1338C2.64407 0.783763 2.91725 0.5 3.25424 0.5H8.94915C10.6341 0.5 12 1.91882 12 3.66901V12.1197C12 12.4698 11.7268 12.7535 11.3898 12.7535C11.2336 12.7535 11.091 12.6925 10.9831 12.5921C10.8582 12.4761 10.7797 12.3074 10.7797 12.1197V3.66901C10.7797 2.6189 9.96012 1.76761 8.94915 1.76761H3.25424C3.07353 1.76761 2.91116 1.686 2.79944 1.55634ZM9.76258 12.9914C9.76267 12.9825 9.76271 12.9737 9.76271 12.9648V5.35915C9.76271 4.99831 9.69014 4.65508 9.55932 4.34435C9.31335 3.76008 8.86148 3.29071 8.299 3.03521C7.99985 2.89933 7.66942 2.82394 7.32203 2.82394H2.44068C2.43213 2.82394 2.42359 2.82399 2.41506 2.82408C1.07891 2.83835 0 3.96788 0 5.35915V12.9648C0 14.3649 1.09273 15.5 2.44068 15.5H7.32203C8.66144 15.5 9.74884 14.3793 9.76258 12.9914ZM2.44068 4.09155C1.7667 4.09155 1.22034 4.65908 1.22034 5.35915V12.9648C1.22034 13.6649 1.7667 14.2324 2.44068 14.2324H7.32203C7.99601 14.2324 8.54237 13.6649 8.54237 12.9648V5.35915C8.54237 4.65908 7.99601 4.09155 7.32203 4.09155H2.44068Z"></path></symbol><symbol id="line-inactive" width="177" height="2" viewBox="0 0 177 2" xmlns="http://www.w3.org/2000/svg"><line x1="0.75" y1="1.25" x2="176.25" y2="1.25002" stroke-width="1.5" stroke-linecap="square" stroke-dasharray="4 4"></line></symbol><symbol id="open-in-new-tab" width="14" height="14" viewBox="0 0 14 14" xmlns="http://www.w3.org/2000/svg"><path fill-rule="evenodd" clip-rule="evenodd" d="M9.89279 13.6663H4.1059C1.84925 13.6663 0.333008 12.0826 0.333008 9.72575V4.27359C0.333008 1.91672 1.84925 0.333008 4.1059 0.333008H6.55798C6.82949 0.333008 7.04984 0.55335 7.04984 0.824843C7.04984 1.09634 6.82949 1.31668 6.55798 1.31668H4.1059C2.41128 1.31668 1.31673 2.47741 1.31673 4.27359V9.72575C1.31673 11.5219 2.41128 12.6827 4.1059 12.6827H9.89279C11.5874 12.6827 12.6826 11.5219 12.6826 9.72575V7.08427C12.6826 6.81278 12.903 6.59243 13.1745 6.59243C13.446 6.59243 13.6663 6.81278 13.6663 7.08427V9.72575C13.6663 12.0826 12.1494 13.6663 9.89279 13.6663Z"></path><path fill-rule="evenodd" clip-rule="evenodd" d="M7.14584 6.85351C6.95095 6.65862 6.95095 6.34228 7.14584 6.14739L12.8141 0.479174C13.0089 0.284286 13.3253 0.284286 13.5202 0.479174C13.7151 0.674061 13.7151 0.990401 13.5202 1.18529L7.85196 6.85351C7.65707 7.0484 7.34073 7.0484 7.14584 6.85351Z"></path><path fill-rule="evenodd" clip-rule="evenodd" d="M9.82206 1.24928C9.72612 1.15335 9.66634 1.02025 9.66634 0.873591C9.66584 0.579769 9.90294 0.340693 10.1978 0.340191L13.1329 0.333662C13.4162 0.332657 13.6673 0.583787 13.6663 0.867062L13.6603 3.80227C13.6593 4.09659 13.4207 4.33416 13.1268 4.33366C12.8325 4.33265 12.5944 4.09458 12.5954 3.80026L12.5999 1.39996L10.1998 1.40498C10.0521 1.40599 9.91851 1.34572 9.82206 1.24928Z"></path></symbol><symbol id="on" width="16" height="17" viewBox="0 0 16 17" xmlns="http://www.w3.org/2000/svg"><path d="M1.625 9C1.625 12.5152 4.48475 15.375 8 15.375C11.5153 15.375 14.375 12.5152 14.375 9C14.375 7.23947 13.6577 5.64337 12.5 4.48857C12.5 4.48857 12.1528 4.09716 12.5 3.74998C12.875 3.37497 13.2899 3.68834 13.2899 3.68834C14.6544 5.04725 15.5 6.92674 15.5 9C15.5 13.1355 12.1355 16.5 8 16.5C3.8645 16.5 0.5 13.1355 0.5 9C0.5 6.929 1.34377 5.05136 2.70559 3.6928C2.70559 3.6928 3.12503 3.37497 3.5 3.74998C3.78677 4.03678 3.5 4.48857 3.5 4.48857C2.3423 5.64337 1.625 7.23947 1.625 9Z"></path><path fill-rule="evenodd" clip-rule="evenodd" d="M8 0.9375C8.31066 0.9375 8.5625 1.18934 8.5625 1.5V9C8.5625 9.31066 8.31066 9.5625 8 9.5625C7.68934 9.5625 7.4375 9.31066 7.4375 9V1.5C7.4375 1.18934 7.68934 0.9375 8 0.9375Z"></path></symbol><symbol id="info" width="16" height="16" viewBox="0 0 16 16" xmlns="http://www.w3.org/2000/svg"><path d="M8 0C3.58179 0 0 3.58179 0 8C0 12.4188 3.5821 16 8.00032 16C12.4188 16 16 12.4188 16 8C16 3.58179 12.4188 0 8 0ZM8.33836 3.16452C8.91912 3.16452 9.38973 3.63545 9.38973 4.21621C9.38973 4.79697 8.91912 5.26789 8.33836 5.26789C7.75759 5.26789 7.28667 4.79697 7.28667 4.21621C7.28667 3.63545 7.75759 3.16452 8.33836 3.16452ZM9.28115 12.4693C9.28115 12.4693 8.45262 13.164 7.40882 12.6401C7.17715 12.5243 6.98146 12.3232 6.85647 12.1019C6.50201 11.4751 6.63837 10.8025 6.63837 10.8025L6.74252 9.97775L7.01302 7.82703L6.27634 7.84313C5.93135 7.85102 5.64665 7.57737 5.63908 7.2327C5.63308 6.96504 5.79878 6.73274 6.03425 6.639L7.92204 5.89568C8.3715 5.71861 8.87903 5.93956 9.05579 6.38902C9.12333 6.55977 9.13312 6.73779 9.09461 6.90381L9.06968 7.01586L8.33141 10.2577L8.14708 11.0683C8.11994 11.1904 8.11584 11.2182 8.10795 11.2823C8.08806 11.6471 8.60696 11.3735 8.60696 11.3735C8.91849 11.2015 9.3105 11.3154 9.48158 11.6269C9.64286 11.9195 9.54944 12.2838 9.28115 12.4693Z"></path></symbol><symbol id="sync" width="18" height="14" viewBox="0 0 18 14" xmlns="http://www.w3.org/2000/svg"><path d="M9.30264 0.333008C12.2486 0.333008 14.7081 2.53968 15.2897 5.4783L16.1976 3.64258L16.2498 3.55496C16.4237 3.30992 16.7447 3.22777 17.0098 3.37537C17.3042 3.53938 17.4181 3.92491 17.264 4.23649L15.0275 8.75919L11.455 5.50847L11.3792 5.42593C11.1991 5.191 11.1972 4.84658 11.3894 4.60937L11.4671 4.52921C11.6884 4.33901 12.0135 4.33789 12.2379 4.54207L14.1948 6.32258C13.9605 3.67788 11.8596 1.60826 9.30264 1.60826C8.10274 1.60826 7.00329 2.06399 6.15003 2.82103C5.92027 3.02488 5.66111 3.29597 5.30742 2.9256C4.95373 2.55523 5.14899 2.05124 5.30739 1.90635C6.37924 0.925921 7.7756 0.333008 9.30264 0.333008Z"></path><path d="M8.69606 13.6663C5.75014 13.6663 3.29058 11.4597 2.70903 8.52105L1.80113 10.3568L1.7489 10.4444C1.57502 10.6894 1.25398 10.7716 0.988942 10.624C0.694458 10.46 0.580635 10.0744 0.734711 9.76286L2.97119 5.24016L6.54368 8.49087L6.61953 8.57342C6.79961 8.80835 6.80147 9.15277 6.6093 9.38998L6.53157 9.47014C6.31026 9.66033 5.98517 9.66146 5.76079 9.45728L3.80387 7.67677C4.03822 10.3215 6.13906 12.3911 8.69606 12.3911C9.89596 12.3911 10.9954 11.9354 11.8487 11.1783C12.0784 10.9745 12.3376 10.7034 12.6913 11.0737C13.045 11.4441 12.8497 11.9481 12.6913 12.093C11.6195 13.0734 10.2231 13.6663 8.69606 13.6663Z"></path></symbol><symbol id="search" width="18" height="18" viewBox="0 0 18 18" xmlns="http://www.w3.org/2000/svg"><path fill-rule="evenodd" clip-rule="evenodd" d="M8.78185 1.91602C4.99602 1.91602 1.91602 4.99518 1.91602 8.78102C1.91602 12.5668 4.99602 15.6468 8.78185 15.6468C12.5668 15.6468 15.6468 12.5668 15.6468 8.78102C15.6468 4.99518 12.5668 1.91602 8.78185 1.91602ZM8.78185 16.8968C4.30685 16.8968 0.666016 13.256 0.666016 8.78102C0.666016 4.30602 4.30685 0.666016 8.78185 0.666016C13.2568 0.666016 16.8968 4.30602 16.8968 8.78102C16.8968 13.256 13.2568 16.8968 8.78185 16.8968Z"></path><path fill-rule="evenodd" clip-rule="evenodd" d="M16.9281 17.9341C16.7689 17.9341 16.6089 17.8733 16.4864 17.7516L13.5498 14.8233C13.3056 14.5791 13.3048 14.1833 13.5489 13.9391C13.7923 13.6933 14.1881 13.695 14.4331 13.9374L17.3698 16.8666C17.6139 17.1108 17.6148 17.5058 17.3706 17.75C17.2489 17.8733 17.0881 17.9341 16.9281 17.9341Z"></path></symbol><symbol id="tick" width="20" height="14" viewBox="0 0 20 14" xmlns="http://www.w3.org/2000/svg"><path fill-rule="evenodd" clip-rule="evenodd" d="M19.7166 0.299844C20.0945 0.699637 20.0945 1.34783 19.7166 1.74762L7.40099 13.7002C7.02312 14.0999 6.41049 14.1 6.03254 13.7003L0.283589 8.11677C-0.0944171 7.71706 -0.0945462 7.06887 0.283301 6.66899C0.661148 6.26912 1.27389 6.26898 1.65189 6.66869L6.71655 11.5286L18.348 0.299844C18.7259 -0.0999481 19.3386 -0.0999482 19.7166 0.299844Z"></path></symbol><symbol id="line" width="177" height="2" viewBox="0 0 177 2" xmlns="http://www.w3.org/2000/svg"><line x1="0.75" y1="1.25" x2="176.25" y2="1.25002" stroke-width="1.5" stroke-linecap="square"></line></symbol><symbol id="expense" width="18" height="20" viewBox="0 0 18 20" xmlns="http://www.w3.org/2000/svg"><path fill-rule="evenodd" clip-rule="evenodd" d="M4.5731 1.51191C2.9161 1.51191 1.5401 2.85391 1.5011 4.50891V15.2039C1.4641 16.9169 2.8141 18.3279 4.5101 18.3659H12.5741C14.2431 18.2969 15.5651 16.9099 15.5531 15.2099V6.33991L10.9181 1.51191H4.5731ZM4.4761 19.8659C1.9541 19.8089 -0.0538966 17.7109 0.00110343 15.1879V4.49091C0.0591034 2.00991 2.1081 0.0119071 4.5711 0.0119071H11.2381C11.4421 0.0119071 11.6371 0.0949071 11.7791 0.241907L16.8441 5.51891C16.9781 5.65791 17.0531 5.84491 17.0531 6.03791V15.2039C17.0711 17.7129 15.1171 19.7629 12.6041 19.8649L4.4761 19.8659Z"></path><path fill-rule="evenodd" clip-rule="evenodd" d="M16.2983 6.98449H13.5433C11.7133 6.97949 10.2253 5.48749 10.2253 3.65949V0.750488C10.2253 0.336488 10.5613 0.000488281 10.9753 0.000488281C11.3893 0.000488281 11.7253 0.336488 11.7253 0.750488V3.65949C11.7253 4.66349 12.5423 5.48149 13.5453 5.48449H16.2983C16.7123 5.48449 17.0483 5.82049 17.0483 6.23449C17.0483 6.64849 16.7123 6.98449 16.2983 6.98449Z"></path><path fill-rule="evenodd" clip-rule="evenodd" d="M10.7885 14.1086H5.38846C4.97446 14.1086 4.63846 13.7726 4.63846 13.3586C4.63846 12.9446 4.97446 12.6086 5.38846 12.6086H10.7885C11.2025 12.6086 11.5385 12.9446 11.5385 13.3586C11.5385 13.7726 11.2025 14.1086 10.7885 14.1086Z"></path><path fill-rule="evenodd" clip-rule="evenodd" d="M8.74356 10.3566H5.38756C4.97356 10.3566 4.63756 10.0206 4.63756 9.60659C4.63756 9.19259 4.97356 8.85659 5.38756 8.85659H8.74356C9.15756 8.85659 9.49356 9.19259 9.49356 9.60659C9.49356 10.0206 9.15756 10.3566 8.74356 10.3566Z"></path></symbol><symbol id="copy-v2" width="20" height="20" viewBox="0 0 20 20" xmlns="http://www.w3.org/2000/svg"><path fill-rule="evenodd" clip-rule="evenodd" d="M1.25313 5.10766C2.08345 4.21696 3.26423 3.72093 4.65249 3.72093H11.6266C13.0179 3.72093 14.1991 4.21668 15.0289 5.10799C15.8535 5.99366 16.2791 7.21313 16.2791 8.575V15.1459C16.2791 16.5078 15.8535 17.7273 15.0289 18.6129C14.1991 19.5043 13.0179 20 11.6266 20H4.65249C3.26113 20 2.07998 19.5043 1.25017 18.6129C0.4256 17.7273 0 16.5078 0 15.1459V8.575C0 7.21228 0.427881 5.99292 1.25313 5.10766ZM2.27378 6.05912C1.72937 6.64311 1.39535 7.50195 1.39535 8.575V15.1459C1.39535 16.2198 1.72811 17.0786 2.27143 17.6621C2.8095 18.2401 3.60575 18.6047 4.65249 18.6047H11.6266C12.6733 18.6047 13.4696 18.2401 14.0076 17.6621C14.551 17.0786 14.8837 16.2198 14.8837 15.1459V8.575C14.8837 7.5011 14.551 6.64237 14.0076 6.05879C13.4696 5.48084 12.6733 5.11628 11.6266 5.11628H4.65249C3.60974 5.11628 2.81312 5.48056 2.27378 6.05912Z"></path><path fill-rule="evenodd" clip-rule="evenodd" d="M5.01377 1.12968C5.86421 0.352596 7.04143 0 8.37342 0H15.3475C16.7389 0 17.92 0.495749 18.7498 1.38706C19.5744 2.27273 20 3.4922 20 4.85407V11.425C20 12.7578 19.6492 13.9741 18.8874 14.8689C18.1124 15.7791 16.9773 16.2791 15.5814 16.2791C15.1961 16.2791 14.8837 15.9667 14.8837 15.5814C14.8837 15.1961 15.1961 14.8837 15.5814 14.8837C16.6236 14.8837 17.3489 14.5234 17.8249 13.9643C18.3141 13.3898 18.6047 12.5279 18.6047 11.425V4.85407C18.6047 3.78017 18.2719 2.92144 17.7286 2.33786C17.1905 1.75991 16.3942 1.39535 15.3475 1.39535H8.37342C7.27441 1.39535 6.47422 1.68533 5.955 2.15977C5.44543 2.62539 5.11628 3.35098 5.11628 4.4186C5.11628 4.80392 4.80392 5.11628 4.4186 5.11628C4.03329 5.11628 3.72093 4.80392 3.72093 4.4186C3.72093 3.05045 4.15369 1.91558 5.01377 1.12968Z"></path></symbol><symbol id="calender" width="18" height="20" viewBox="0 0 18 20" xmlns="http://www.w3.org/2000/svg"><path fill-rule="evenodd" clip-rule="evenodd" d="M0.085514 7.58535C0.085514 7.20004 0.395471 6.88768 0.777822 6.88768H17.2307C17.613 6.88768 17.923 7.20004 17.923 7.58535C17.923 7.97067 17.613 8.28303 17.2307 8.28303H0.777822C0.395471 8.28303 0.085514 7.97067 0.085514 7.58535Z"></path><path fill-rule="evenodd" clip-rule="evenodd" d="M12.4081 11.2183C12.4081 10.833 12.718 10.5206 13.1004 10.5206H13.1089C13.4913 10.5206 13.8012 10.833 13.8012 11.2183C13.8012 11.6036 13.4913 11.916 13.1089 11.916H13.1004C12.718 11.916 12.4081 11.6036 12.4081 11.2183Z"></path><path fill-rule="evenodd" clip-rule="evenodd" d="M8.31195 11.2183C8.31195 10.833 8.62191 10.5206 9.00426 10.5206H9.01281C9.39516 10.5206 9.70512 10.833 9.70512 11.2183C9.70512 11.6036 9.39516 11.916 9.01281 11.916H9.00426C8.62191 11.916 8.31195 11.6036 8.31195 11.2183Z"></path><path fill-rule="evenodd" clip-rule="evenodd" d="M4.20728 11.2183C4.20728 10.833 4.51724 10.5206 4.89959 10.5206H4.90814C5.29049 10.5206 5.60045 10.833 5.60045 11.2183C5.60045 11.6036 5.29049 11.916 4.90814 11.916H4.89959C4.51724 11.916 4.20728 11.6036 4.20728 11.2183Z"></path><path fill-rule="evenodd" clip-rule="evenodd" d="M12.4081 14.8337C12.4081 14.4484 12.718 14.136 13.1004 14.136H13.1089C13.4913 14.136 13.8012 14.4484 13.8012 14.8337C13.8012 15.219 13.4913 15.5314 13.1089 15.5314H13.1004C12.718 15.5314 12.4081 15.219 12.4081 14.8337Z"></path><path fill-rule="evenodd" clip-rule="evenodd" d="M8.31195 14.8337C8.31195 14.4484 8.62191 14.136 9.00426 14.136H9.01281C9.39516 14.136 9.70512 14.4484 9.70512 14.8337C9.70512 15.219 9.39516 15.5314 9.01281 15.5314H9.00426C8.62191 15.5314 8.31195 15.219 8.31195 14.8337Z"></path><path fill-rule="evenodd" clip-rule="evenodd" d="M4.20728 14.8337C4.20728 14.4484 4.51724 14.136 4.89959 14.136H4.90814C5.29049 14.136 5.60045 14.4484 5.60045 14.8337C5.60045 15.219 5.29049 15.5314 4.90814 15.5314H4.89959C4.51724 15.5314 4.20728 15.219 4.20728 14.8337Z"></path><path fill-rule="evenodd" clip-rule="evenodd" d="M12.7327 0C13.115 0 13.425 0.312359 13.425 0.697674V3.75887C13.425 4.14418 13.115 4.45654 12.7327 4.45654C12.3503 4.45654 12.0404 4.14418 12.0404 3.75887V0.697674C12.0404 0.312359 12.3503 0 12.7327 0Z"></path><path fill-rule="evenodd" clip-rule="evenodd" d="M5.27585 0C5.6582 0 5.96816 0.312359 5.96816 0.697674V3.75887C5.96816 4.14418 5.6582 4.45654 5.27585 4.45654C4.8935 4.45654 4.58355 4.14418 4.58355 3.75887V0.697674C4.58355 0.312359 4.8935 0 5.27585 0Z"></path><path fill-rule="evenodd" clip-rule="evenodd" d="M1.40076 2.77159C2.32536 1.88585 3.61617 1.46902 5.09627 1.46902H12.9122C14.396 1.46902 15.6876 1.88553 16.6106 2.77227C17.5388 3.66397 18.0044 4.94473 18 6.48676V14.9744C18 16.5165 17.532 17.7986 16.6035 18.692C15.6799 19.5806 14.3886 20 12.9037 20H5.09627C3.61201 20 2.31972 19.572 1.39592 18.6697C0.468684 17.764 0 16.4658 0 14.9041V6.48579C0 4.94269 0.470805 3.66246 1.40076 2.77159ZM2.35473 3.78292C1.7604 4.35227 1.38462 5.23159 1.38462 6.48579V14.9041C1.38462 16.1836 1.76252 17.0845 2.35957 17.6677C2.96006 18.2542 3.86974 18.6047 5.09627 18.6047H12.9037C14.1381 18.6047 15.0488 18.2587 15.6473 17.6828C16.241 17.1115 16.6154 16.2297 16.6154 14.9744V6.48579L16.6154 6.48364C16.6192 5.2289 16.2468 4.35054 15.6552 3.78224C15.0583 3.20875 14.1478 2.86437 12.9122 2.86437H5.09627C3.86559 2.86437 2.95441 3.20844 2.35473 3.78292Z"></path></symbol><symbol id="advanced-setting" width="20" height="20" viewBox="0 0 20 20" xmlns="http://www.w3.org/2000/svg"><path fill-rule="evenodd" clip-rule="evenodd" d="M5.39508 14.9032C5.63257 14.9032 5.87006 14.9312 6.10237 14.9891C6.80343 15.1648 7.4122 15.6011 7.7731 16.187C8.00748 16.5547 8.13711 16.9842 8.14126 17.4224C8.14126 18.0498 8.68262 18.5527 9.34842 18.5527H10.6479C11.3106 18.5527 11.8519 18.0527 11.855 17.4359C11.8509 16.7545 12.1371 16.1069 12.6608 15.6194C13.1773 15.1388 13.8991 14.8502 14.6209 14.8695C15.0938 14.8801 15.5491 14.9988 15.9505 15.2111C16.5281 15.519 17.2655 15.3357 17.5994 14.8048L18.288 13.7363C18.4415 13.4902 18.4861 13.1813 18.4042 12.8966C18.3233 12.6118 18.12 12.3648 17.8462 12.219C17.2053 11.8754 16.748 11.3214 16.5582 10.6573C16.3705 10.0058 16.4731 9.29444 16.8392 8.70856C17.0778 8.32248 17.4272 7.99721 17.8462 7.77328C18.4083 7.46731 18.6054 6.78298 18.2787 6.25019C18.2652 6.22895 18.2528 6.20675 18.2424 6.18359L17.6347 5.20294C17.3038 4.66725 16.5675 4.4829 15.9899 4.78887C15.3655 5.13248 14.623 5.23093 13.9095 5.05623C13.197 4.88442 12.5997 4.46456 12.2273 3.87192C11.9888 3.50128 11.8592 3.06984 11.855 2.63067C11.8644 2.30057 11.7399 2.00425 11.5138 1.78708C11.2888 1.57088 10.9725 1.44829 10.6479 1.44829H9.34842C9.02693 1.44829 8.72618 1.56508 8.49906 1.7755C8.27297 1.98688 8.14956 2.26775 8.15163 2.56697C8.12986 3.9781 6.89055 5.11414 5.3899 5.11414C4.90869 5.10932 4.44512 4.98866 4.04274 4.76474C3.47753 4.46552 2.73913 4.64988 2.4083 5.18557L1.7062 6.25984C1.38471 6.77912 1.58175 7.46538 2.15422 7.77521C3.00358 8.23272 3.53353 9.08596 3.53353 10.001C3.53353 10.916 3.00358 11.7683 2.15214 12.2267C1.58279 12.5337 1.38574 13.2161 1.71553 13.7469L2.36993 14.7971C2.53171 15.0683 2.79617 15.2642 3.10211 15.3443C3.40701 15.4235 3.74302 15.3897 4.02303 15.2449C4.43475 15.02 4.91388 14.9032 5.39508 14.9032ZM10.6479 20.0005H9.34842C7.82495 20.0005 6.58565 18.848 6.58565 17.4301C6.58357 17.2554 6.52965 17.074 6.42905 16.9167C6.26623 16.6522 6.00281 16.463 5.69895 16.3877C5.39716 16.3124 5.06633 16.3539 4.79462 16.5007C4.14333 16.8385 3.37693 16.9205 2.67587 16.7371C1.97584 16.5528 1.37123 16.1049 1.01654 15.5113L0.368372 14.4718C-0.389731 13.2479 0.0613971 11.6795 1.37434 10.9729C1.74665 10.7731 1.97792 10.4006 1.97792 10.001C1.97792 9.60138 1.74665 9.22784 1.37434 9.02804C0.0603601 8.31765 -0.389731 6.74534 0.367335 5.52146L1.07047 4.44718C1.81821 3.23682 3.50864 2.8102 4.82677 3.5148C5.00618 3.61421 5.20115 3.6644 5.39923 3.66633C6.04533 3.66633 6.58565 3.17022 6.59602 2.56021C6.59187 1.88746 6.87707 1.24174 7.39664 0.754313C7.91829 0.26785 8.61106 0.000488281 9.34842 0.000488281H10.6479C11.3904 0.000488281 12.1122 0.284258 12.6297 0.777478C13.1462 1.27359 13.4314 1.95406 13.4096 2.64418C13.4117 2.79958 13.4667 2.97911 13.5662 3.13644C13.7311 3.39704 13.9914 3.58043 14.3005 3.65572C14.6095 3.72714 14.9331 3.68853 15.2079 3.537C16.5354 2.83143 18.2248 3.25419 18.9829 4.48L19.629 5.52146C19.6456 5.54945 19.6601 5.57647 19.6725 5.60447C20.3591 6.81194 19.9007 8.33213 18.6251 9.02611C18.4394 9.12553 18.2891 9.26452 18.1854 9.43247C18.0246 9.69211 17.98 10.001 18.0609 10.2847C18.1439 10.5743 18.342 10.8146 18.6209 10.9633C19.2504 11.3001 19.7202 11.8677 19.9079 12.523C20.0956 13.1775 19.993 13.8878 19.6269 14.4737L18.9383 15.5412C18.1802 16.7535 16.4908 17.1734 15.1768 16.4669C15.0015 16.3732 14.7993 16.3221 14.5981 16.3173H14.5919C14.2922 16.3173 13.9842 16.436 13.7601 16.6435C13.533 16.8549 13.4086 17.1367 13.4107 17.4359C13.4034 18.8538 12.1641 20.0005 10.6479 20.0005Z"></path><path fill-rule="evenodd" clip-rule="evenodd" d="M10.0027 8.17974C8.92416 8.17974 8.04679 8.99727 8.04679 10.0011C8.04679 11.0049 8.92416 11.8205 10.0027 11.8205C11.0813 11.8205 11.9586 11.0049 11.9586 10.0011C11.9586 8.99727 11.0813 8.17974 10.0027 8.17974ZM10.0027 13.2683C8.06649 13.2683 6.49117 11.8031 6.49117 10.0011C6.49117 8.19904 8.06649 6.73193 10.0027 6.73193C11.9389 6.73193 13.5143 8.19904 13.5143 10.0011C13.5143 11.8031 11.9389 13.2683 10.0027 13.2683Z"></path></symbol><symbol id="configuration-active" width="20" height="20" viewBox="0 0 20 20" xmlns="http://www.w3.org/2000/svg"><path fill-rule="evenodd" clip-rule="evenodd" d="M5.39508 14.9032C5.63257 14.9032 5.87006 14.9312 6.10237 14.9891C6.80343 15.1648 7.4122 15.6011 7.7731 16.187C8.00748 16.5547 8.13711 16.9842 8.14126 17.4224C8.14126 18.0498 8.68262 18.5527 9.34842 18.5527H10.6479C11.3106 18.5527 11.8519 18.0527 11.855 17.4359C11.8509 16.7545 12.1371 16.1069 12.6608 15.6194C13.1773 15.1388 13.8991 14.8502 14.6209 14.8695C15.0938 14.8801 15.5491 14.9988 15.9505 15.2111C16.5281 15.519 17.2655 15.3357 17.5994 14.8048L18.288 13.7363C18.4415 13.4902 18.4861 13.1813 18.4042 12.8966C18.3233 12.6118 18.12 12.3648 17.8462 12.219C17.2053 11.8754 16.748 11.3214 16.5582 10.6573C16.3705 10.0058 16.4731 9.29444 16.8392 8.70856C17.0778 8.32248 17.4272 7.99721 17.8462 7.77328C18.4083 7.46731 18.6054 6.78298 18.2787 6.25019C18.2652 6.22895 18.2528 6.20675 18.2424 6.18359L17.6347 5.20294C17.3038 4.66725 16.5675 4.4829 15.9899 4.78887C15.3655 5.13248 14.623 5.23093 13.9095 5.05623C13.197 4.88442 12.5997 4.46456 12.2273 3.87192C11.9888 3.50128 11.8592 3.06984 11.855 2.63067C11.8644 2.30057 11.7399 2.00425 11.5138 1.78708C11.2888 1.57088 10.9725 1.44829 10.6479 1.44829H9.34842C9.02693 1.44829 8.72618 1.56508 8.49906 1.7755C8.27297 1.98688 8.14956 2.26775 8.15163 2.56697C8.12986 3.9781 6.89055 5.11414 5.3899 5.11414C4.90869 5.10932 4.44512 4.98866 4.04274 4.76474C3.47753 4.46552 2.73913 4.64988 2.4083 5.18557L1.7062 6.25984C1.38471 6.77912 1.58175 7.46538 2.15422 7.77521C3.00358 8.23272 3.53353 9.08596 3.53353 10.001C3.53353 10.916 3.00358 11.7683 2.15214 12.2267C1.58279 12.5337 1.38574 13.2161 1.71553 13.7469L2.36993 14.7971C2.53171 15.0683 2.79617 15.2642 3.10211 15.3443C3.40701 15.4235 3.74302 15.3897 4.02303 15.2449C4.43475 15.02 4.91388 14.9032 5.39508 14.9032ZM10.6479 20.0005H9.34842C7.82495 20.0005 6.58565 18.848 6.58565 17.4301C6.58357 17.2554 6.52965 17.074 6.42905 16.9167C6.26623 16.6522 6.00281 16.463 5.69895 16.3877C5.39716 16.3124 5.06633 16.3539 4.79462 16.5007C4.14333 16.8385 3.37693 16.9205 2.67587 16.7371C1.97584 16.5528 1.37123 16.1049 1.01654 15.5113L0.368372 14.4718C-0.389731 13.2479 0.0613971 11.6795 1.37434 10.9729C1.74665 10.7731 1.97792 10.4006 1.97792 10.001C1.97792 9.60138 1.74665 9.22784 1.37434 9.02804C0.0603601 8.31765 -0.389731 6.74534 0.367335 5.52146L1.07047 4.44718C1.81821 3.23682 3.50864 2.8102 4.82677 3.5148C5.00618 3.61421 5.20115 3.6644 5.39923 3.66633C6.04533 3.66633 6.58565 3.17022 6.59602 2.56021C6.59187 1.88746 6.87707 1.24174 7.39664 0.754313C7.91829 0.26785 8.61106 0.000488281 9.34842 0.000488281H10.6479C11.3904 0.000488281 12.1122 0.284258 12.6297 0.777478C13.1462 1.27359 13.4314 1.95406 13.4096 2.64418C13.4117 2.79958 13.4667 2.97911 13.5662 3.13644C13.7311 3.39704 13.9914 3.58043 14.3005 3.65572C14.6095 3.72714 14.9331 3.68853 15.2079 3.537C16.5354 2.83143 18.2248 3.25419 18.9829 4.48L19.629 5.52146C19.6456 5.54945 19.6601 5.57647 19.6725 5.60447C20.3591 6.81194 19.9007 8.33213 18.6251 9.02611C18.4394 9.12553 18.2891 9.26452 18.1854 9.43247C18.0246 9.69211 17.98 10.001 18.0609 10.2847C18.1439 10.5743 18.342 10.8146 18.6209 10.9633C19.2504 11.3001 19.7202 11.8677 19.9079 12.523C20.0956 13.1775 19.993 13.8878 19.6269 14.4737L18.9383 15.5412C18.1802 16.7535 16.4908 17.1734 15.1768 16.4669C15.0015 16.3732 14.7993 16.3221 14.5981 16.3173H14.5919C14.2922 16.3173 13.9842 16.436 13.7601 16.6435C13.533 16.8549 13.4086 17.1367 13.4107 17.4359C13.4034 18.8538 12.1641 20.0005 10.6479 20.0005Z"></path><path fill-rule="evenodd" clip-rule="evenodd" d="M10.0027 8.17974C8.92416 8.17974 8.04679 8.99727 8.04679 10.0011C8.04679 11.0049 8.92416 11.8205 10.0027 11.8205C11.0813 11.8205 11.9586 11.0049 11.9586 10.0011C11.9586 8.99727 11.0813 8.17974 10.0027 8.17974ZM10.0027 13.2683C8.06649 13.2683 6.49117 11.8031 6.49117 10.0011C6.49117 8.19904 8.06649 6.73193 10.0027 6.73193C11.9389 6.73193 13.5143 8.19904 13.5143 10.0011C13.5143 11.8031 11.9389 13.2683 10.0027 13.2683Z"></path></symbol><symbol id="advanced-setting-inactive" width="20" height="20" viewBox="0 0 20 20" xmlns="http://www.w3.org/2000/svg"><path fill-rule="evenodd" clip-rule="evenodd" d="M5.39508 14.9032C5.63257 14.9032 5.87006 14.9312 6.10237 14.9891C6.80343 15.1648 7.4122 15.6011 7.7731 16.187C8.00748 16.5547 8.13711 16.9842 8.14126 17.4224C8.14126 18.0498 8.68262 18.5527 9.34842 18.5527H10.6479C11.3106 18.5527 11.8519 18.0527 11.855 17.4359C11.8509 16.7545 12.1371 16.1069 12.6608 15.6194C13.1773 15.1388 13.8991 14.8502 14.6209 14.8695C15.0938 14.8801 15.5491 14.9988 15.9505 15.2111C16.5281 15.519 17.2655 15.3357 17.5994 14.8048L18.288 13.7363C18.4415 13.4902 18.4861 13.1813 18.4042 12.8966C18.3233 12.6118 18.12 12.3648 17.8462 12.219C17.2053 11.8754 16.748 11.3214 16.5582 10.6573C16.3705 10.0058 16.4731 9.29444 16.8392 8.70856C17.0778 8.32248 17.4272 7.99721 17.8462 7.77328C18.4083 7.46731 18.6054 6.78298 18.2787 6.25019C18.2652 6.22895 18.2528 6.20675 18.2424 6.18359L17.6347 5.20294C17.3038 4.66725 16.5675 4.4829 15.9899 4.78887C15.3655 5.13248 14.623 5.23093 13.9095 5.05623C13.197 4.88442 12.5997 4.46456 12.2273 3.87192C11.9888 3.50128 11.8592 3.06984 11.855 2.63067C11.8644 2.30057 11.7399 2.00425 11.5138 1.78708C11.2888 1.57088 10.9725 1.44829 10.6479 1.44829H9.34842C9.02693 1.44829 8.72618 1.56508 8.49906 1.7755C8.27297 1.98688 8.14956 2.26775 8.15163 2.56697C8.12986 3.9781 6.89055 5.11414 5.3899 5.11414C4.90869 5.10932 4.44512 4.98866 4.04274 4.76474C3.47753 4.46552 2.73913 4.64988 2.4083 5.18557L1.7062 6.25984C1.38471 6.77912 1.58175 7.46538 2.15422 7.77521C3.00358 8.23272 3.53353 9.08596 3.53353 10.001C3.53353 10.916 3.00358 11.7683 2.15214 12.2267C1.58279 12.5337 1.38574 13.2161 1.71553 13.7469L2.36993 14.7971C2.53171 15.0683 2.79617 15.2642 3.10211 15.3443C3.40701 15.4235 3.74302 15.3897 4.02303 15.2449C4.43475 15.02 4.91388 14.9032 5.39508 14.9032ZM10.6479 20.0005H9.34842C7.82495 20.0005 6.58565 18.848 6.58565 17.4301C6.58357 17.2554 6.52965 17.074 6.42905 16.9167C6.26623 16.6522 6.00281 16.463 5.69895 16.3877C5.39716 16.3124 5.06633 16.3539 4.79462 16.5007C4.14333 16.8385 3.37693 16.9205 2.67587 16.7371C1.97584 16.5528 1.37123 16.1049 1.01654 15.5113L0.368372 14.4718C-0.389731 13.2479 0.0613971 11.6795 1.37434 10.9729C1.74665 10.7731 1.97792 10.4006 1.97792 10.001C1.97792 9.60138 1.74665 9.22784 1.37434 9.02804C0.0603601 8.31765 -0.389731 6.74534 0.367335 5.52146L1.07047 4.44718C1.81821 3.23682 3.50864 2.8102 4.82677 3.5148C5.00618 3.61421 5.20115 3.6644 5.39923 3.66633C6.04533 3.66633 6.58565 3.17022 6.59602 2.56021C6.59187 1.88746 6.87707 1.24174 7.39664 0.754313C7.91829 0.26785 8.61106 0.000488281 9.34842 0.000488281H10.6479C11.3904 0.000488281 12.1122 0.284258 12.6297 0.777478C13.1462 1.27359 13.4314 1.95406 13.4096 2.64418C13.4117 2.79958 13.4667 2.97911 13.5662 3.13644C13.7311 3.39704 13.9914 3.58043 14.3005 3.65572C14.6095 3.72714 14.9331 3.68853 15.2079 3.537C16.5354 2.83143 18.2248 3.25419 18.9829 4.48L19.629 5.52146C19.6456 5.54945 19.6601 5.57647 19.6725 5.60447C20.3591 6.81194 19.9007 8.33213 18.6251 9.02611C18.4394 9.12553 18.2891 9.26452 18.1854 9.43247C18.0246 9.69211 17.98 10.001 18.0609 10.2847C18.1439 10.5743 18.342 10.8146 18.6209 10.9633C19.2504 11.3001 19.7202 11.8677 19.9079 12.523C20.0956 13.1775 19.993 13.8878 19.6269 14.4737L18.9383 15.5412C18.1802 16.7535 16.4908 17.1734 15.1768 16.4669C15.0015 16.3732 14.7993 16.3221 14.5981 16.3173H14.5919C14.2922 16.3173 13.9842 16.436 13.7601 16.6435C13.533 16.8549 13.4086 17.1367 13.4107 17.4359C13.4034 18.8538 12.1641 20.0005 10.6479 20.0005Z"></path><path fill-rule="evenodd" clip-rule="evenodd" d="M10.0027 8.17974C8.92416 8.17974 8.04679 8.99727 8.04679 10.0011C8.04679 11.0049 8.92416 11.8205 10.0027 11.8205C11.0813 11.8205 11.9586 11.0049 11.9586 10.0011C11.9586 8.99727 11.0813 8.17974 10.0027 8.17974ZM10.0027 13.2683C8.06649 13.2683 6.49117 11.8031 6.49117 10.0011C6.49117 8.19904 8.06649 6.73193 10.0027 6.73193C11.9389 6.73193 13.5143 8.19904 13.5143 10.0011C13.5143 11.8031 11.9389 13.2683 10.0027 13.2683Z"></path></symbol><symbol id="configuration" width="20" height="20" viewBox="0 0 20 20" xmlns="http://www.w3.org/2000/svg"><path fill-rule="evenodd" clip-rule="evenodd" d="M5.39508 14.9032C5.63257 14.9032 5.87006 14.9312 6.10237 14.9891C6.80343 15.1648 7.4122 15.6011 7.7731 16.187C8.00748 16.5547 8.13711 16.9842 8.14126 17.4224C8.14126 18.0498 8.68262 18.5527 9.34842 18.5527H10.6479C11.3106 18.5527 11.8519 18.0527 11.855 17.4359C11.8509 16.7545 12.1371 16.1069 12.6608 15.6194C13.1773 15.1388 13.8991 14.8502 14.6209 14.8695C15.0938 14.8801 15.5491 14.9988 15.9505 15.2111C16.5281 15.519 17.2655 15.3357 17.5994 14.8048L18.288 13.7363C18.4415 13.4902 18.4861 13.1813 18.4042 12.8966C18.3233 12.6118 18.12 12.3648 17.8462 12.219C17.2053 11.8754 16.748 11.3214 16.5582 10.6573C16.3705 10.0058 16.4731 9.29444 16.8392 8.70856C17.0778 8.32248 17.4272 7.99721 17.8462 7.77328C18.4083 7.46731 18.6054 6.78298 18.2787 6.25019C18.2652 6.22895 18.2528 6.20675 18.2424 6.18359L17.6347 5.20294C17.3038 4.66725 16.5675 4.4829 15.9899 4.78887C15.3655 5.13248 14.623 5.23093 13.9095 5.05623C13.197 4.88442 12.5997 4.46456 12.2273 3.87192C11.9888 3.50128 11.8592 3.06984 11.855 2.63067C11.8644 2.30057 11.7399 2.00425 11.5138 1.78708C11.2888 1.57088 10.9725 1.44829 10.6479 1.44829H9.34842C9.02693 1.44829 8.72618 1.56508 8.49906 1.7755C8.27297 1.98688 8.14956 2.26775 8.15163 2.56697C8.12986 3.9781 6.89055 5.11414 5.3899 5.11414C4.90869 5.10932 4.44512 4.98866 4.04274 4.76474C3.47753 4.46552 2.73913 4.64988 2.4083 5.18557L1.7062 6.25984C1.38471 6.77912 1.58175 7.46538 2.15422 7.77521C3.00358 8.23272 3.53353 9.08596 3.53353 10.001C3.53353 10.916 3.00358 11.7683 2.15214 12.2267C1.58279 12.5337 1.38574 13.2161 1.71553 13.7469L2.36993 14.7971C2.53171 15.0683 2.79617 15.2642 3.10211 15.3443C3.40701 15.4235 3.74302 15.3897 4.02303 15.2449C4.43475 15.02 4.91388 14.9032 5.39508 14.9032ZM10.6479 20.0005H9.34842C7.82495 20.0005 6.58565 18.848 6.58565 17.4301C6.58357 17.2554 6.52965 17.074 6.42905 16.9167C6.26623 16.6522 6.00281 16.463 5.69895 16.3877C5.39716 16.3124 5.06633 16.3539 4.79462 16.5007C4.14333 16.8385 3.37693 16.9205 2.67587 16.7371C1.97584 16.5528 1.37123 16.1049 1.01654 15.5113L0.368372 14.4718C-0.389731 13.2479 0.0613971 11.6795 1.37434 10.9729C1.74665 10.7731 1.97792 10.4006 1.97792 10.001C1.97792 9.60138 1.74665 9.22784 1.37434 9.02804C0.0603601 8.31765 -0.389731 6.74534 0.367335 5.52146L1.07047 4.44718C1.81821 3.23682 3.50864 2.8102 4.82677 3.5148C5.00618 3.61421 5.20115 3.6644 5.39923 3.66633C6.04533 3.66633 6.58565 3.17022 6.59602 2.56021C6.59187 1.88746 6.87707 1.24174 7.39664 0.754313C7.91829 0.26785 8.61106 0.000488281 9.34842 0.000488281H10.6479C11.3904 0.000488281 12.1122 0.284258 12.6297 0.777478C13.1462 1.27359 13.4314 1.95406 13.4096 2.64418C13.4117 2.79958 13.4667 2.97911 13.5662 3.13644C13.7311 3.39704 13.9914 3.58043 14.3005 3.65572C14.6095 3.72714 14.9331 3.68853 15.2079 3.537C16.5354 2.83143 18.2248 3.25419 18.9829 4.48L19.629 5.52146C19.6456 5.54945 19.6601 5.57647 19.6725 5.60447C20.3591 6.81194 19.9007 8.33213 18.6251 9.02611C18.4394 9.12553 18.2891 9.26452 18.1854 9.43247C18.0246 9.69211 17.98 10.001 18.0609 10.2847C18.1439 10.5743 18.342 10.8146 18.6209 10.9633C19.2504 11.3001 19.7202 11.8677 19.9079 12.523C20.0956 13.1775 19.993 13.8878 19.6269 14.4737L18.9383 15.5412C18.1802 16.7535 16.4908 17.1734 15.1768 16.4669C15.0015 16.3732 14.7993 16.3221 14.5981 16.3173H14.5919C14.2922 16.3173 13.9842 16.436 13.7601 16.6435C13.533 16.8549 13.4086 17.1367 13.4107 17.4359C13.4034 18.8538 12.1641 20.0005 10.6479 20.0005Z"></path><path fill-rule="evenodd" clip-rule="evenodd" d="M10.0027 8.17974C8.92416 8.17974 8.04679 8.99727 8.04679 10.0011C8.04679 11.0049 8.92416 11.8205 10.0027 11.8205C11.0813 11.8205 11.9586 11.0049 11.9586 10.0011C11.9586 8.99727 11.0813 8.17974 10.0027 8.17974ZM10.0027 13.2683C8.06649 13.2683 6.49117 11.8031 6.49117 10.0011C6.49117 8.19904 8.06649 6.73193 10.0027 6.73193C11.9389 6.73193 13.5143 8.19904 13.5143 10.0011C13.5143 11.8031 11.9389 13.2683 10.0027 13.2683Z"></path></symbol><symbol id="export-setting-inactive" width="16" height="18" viewBox="0 0 16 18" xmlns="http://www.w3.org/2000/svg"><path d="M7.17715 17.2928C7.23213 17.6922 7.57953 18 7.99989 18C8.45846 18 8.83021 17.6337 8.83021 17.1818V2.80004L14.0813 7.99528L14.1743 8.07469C14.4989 8.31301 14.9602 8.28755 15.2556 7.99768C15.5805 7.67882 15.5816 7.16077 15.258 6.84059L8.59955 0.252234C8.56142 0.213015 8.51937 0.177529 8.47401 0.146389C8.14976 -0.0766617 7.69994 -0.0452419 7.41106 0.240643L0.741932 6.84064L0.661737 6.93258C0.421253 7.25339 0.449045 7.70788 0.744461 7.99772C1.06942 8.31656 1.59515 8.31544 1.91871 7.99523L7.16957 2.79875V17.1818L7.17715 17.2928Z"></path></symbol><symbol id="export-setting" width="16" height="18" viewBox="0 0 16 18" xmlns="http://www.w3.org/2000/svg"><path d="M7.17715 17.2928C7.23213 17.6922 7.57953 18 7.99989 18C8.45846 18 8.83021 17.6337 8.83021 17.1818V2.80004L14.0813 7.99528L14.1743 8.07469C14.4989 8.31301 14.9602 8.28755 15.2556 7.99768C15.5805 7.67882 15.5816 7.16077 15.258 6.84059L8.59955 0.252234C8.56142 0.213015 8.51937 0.177529 8.47401 0.146389C8.14976 -0.0766617 7.69994 -0.0452419 7.41106 0.240643L0.741932 6.84064L0.661737 6.93258C0.421253 7.25339 0.449045 7.70788 0.744461 7.99772C1.06942 8.31656 1.59515 8.31544 1.91871 7.99523L7.16957 2.79875V17.1818L7.17715 17.2928Z"></path></symbol><symbol id="field-mapping-inactive" width="20" height="21" viewBox="0 0 20 21" xmlns="http://www.w3.org/2000/svg"><path fill-rule="evenodd" clip-rule="evenodd" d="M0.0905131 2.33973C-0.0301711 2.25917 -0.0301711 2.0816 0.0905133 2.00104L2.56976 0.346048C2.70484 0.255878 2.88578 0.352837 2.88578 0.515394V1.40715H5.30661C5.98028 1.40715 6.59613 1.78826 6.8974 2.39159L10 8.60488L13.1026 2.39159C13.4039 1.78826 14.0197 1.40715 14.6934 1.40715H17.1142V0.515394C17.1142 0.352837 17.2952 0.255878 17.4302 0.346048L19.9095 2.00104C20.0302 2.0816 20.0302 2.25917 19.9095 2.33973L17.4302 3.99472C17.2952 4.08489 17.1142 3.98793 17.1142 3.82537V2.93361H14.6934C14.5972 2.93361 14.5092 2.98806 14.4661 3.07425L10.8522 10.3115L14.4661 17.5488C14.5092 17.635 14.5972 17.6894 14.6934 17.6894H17.1142V16.7977C17.1142 16.6351 17.2952 16.5382 17.4302 16.6283L19.9095 18.2833C20.0302 18.3639 20.0302 18.5414 19.9095 18.622L17.4302 20.277C17.2952 20.3672 17.1142 20.2702 17.1142 20.1077V19.2159H14.6934C14.0197 19.2159 13.4039 18.8348 13.1026 18.2315L10 12.0182L6.8974 18.2315C6.59613 18.8348 5.98028 19.2159 5.30661 19.2159H2.88578V20.1077C2.88578 20.2702 2.70484 20.3672 2.56976 20.277L0.0905131 18.622C-0.0301711 18.5414 -0.0301711 18.3639 0.0905133 18.2833L2.56976 16.6283C2.70484 16.5382 2.88578 16.6351 2.88578 16.7977V17.6894H5.30661C5.40285 17.6894 5.49083 17.635 5.53387 17.5488L9.14779 10.3115L5.53387 3.07425C5.49083 2.98806 5.40285 2.93361 5.30661 2.93361H2.88578V3.82537C2.88578 3.98793 2.70484 4.08489 2.56976 3.99472L0.0905131 2.33973Z"></path></symbol><symbol id="questionmark" width="20" height="20" viewBox="0 0 20 20" xmlns="http://www.w3.org/2000/svg"><path fill-rule="evenodd" clip-rule="evenodd" d="M1.52609 1.6865C2.53358 0.605621 3.9688 0 5.66509 0H14.3341C16.0344 0 17.4702 0.605298 18.4772 1.68678C19.4786 2.76222 20.0001 4.2476 20.0001 5.916V14.084C20.0001 15.7524 19.4786 17.2378 18.4771 18.3133C17.4699 19.3948 16.0338 20 14.3331 20H5.66509C3.96479 20 2.52915 19.3947 1.52238 18.3131C0.521245 17.2377 9.15527e-05 15.7523 9.15527e-05 14.084V5.916C9.15527e-05 4.24677 0.524054 2.76152 1.52609 1.6865ZM2.62334 2.70925C1.92313 3.46048 1.50009 4.55823 1.50009 5.916V14.084C1.50009 15.4427 1.92144 16.5403 2.62031 17.2911C3.31353 18.0358 4.3354 18.5 5.66509 18.5H14.3331C15.6634 18.5 16.6858 18.0357 17.3794 17.291C18.0786 16.5402 18.5001 15.4426 18.5001 14.084V5.916C18.5001 4.5574 18.0786 3.45978 17.3794 2.70897C16.686 1.9642 15.6638 1.5 14.3341 1.5H5.66509C4.34038 1.5 3.31811 1.96388 2.62334 2.70925Z"></path><path d="M12.9329 7.95232C12.9329 9.55436 11.6706 10.71 11.0507 11.2776L11.0386 11.2887L10.8606 11.4481C10.7588 11.6291 10.7063 11.8336 10.7086 12.0413C10.7086 12.2379 10.6305 12.4265 10.4915 12.5655C10.3524 12.7046 10.1639 12.7827 9.96722 12.7827C9.77058 12.7827 9.582 12.7046 9.44295 12.5655C9.30391 12.4265 9.2258 12.2379 9.2258 12.0413C9.21866 11.4431 9.428 10.8624 9.81523 10.4064C9.87083 10.3471 9.94868 10.2767 10.0414 10.1914C10.501 9.77992 11.4501 8.91987 11.4501 7.96715C11.4632 7.76903 11.4338 7.57039 11.3639 7.38454C11.294 7.19869 11.1852 7.02992 11.0448 6.88952C10.9044 6.74912 10.7357 6.64034 10.5498 6.57046C10.364 6.50057 10.1653 6.4712 9.96722 6.48431C9.7691 6.4712 9.57046 6.50057 9.38461 6.57046C9.19876 6.64034 9.02999 6.74912 8.88959 6.88952C8.74919 7.02992 8.64041 7.19869 8.57053 7.38454C8.50064 7.57039 8.47127 7.76903 8.48438 7.96715C8.48438 8.16378 8.40626 8.35237 8.26722 8.49141C8.12818 8.63045 7.93959 8.70857 7.74296 8.70857C7.54632 8.70857 7.35774 8.63045 7.21869 8.49141C7.07965 8.35237 7.00154 8.16378 7.00154 7.96715C6.98864 7.57421 7.05653 7.1828 7.20101 6.81715C7.34549 6.45151 7.56347 6.11941 7.84147 5.8414C8.11948 5.5634 8.45158 5.34542 8.81722 5.20094C9.18287 5.05647 9.57427 4.98857 9.96722 5.00147C10.3589 4.98868 10.749 5.05614 11.1136 5.19972C11.4782 5.34329 11.8096 5.55994 12.0874 5.83633C12.3652 6.11273 12.5835 6.44303 12.7289 6.80692C12.8743 7.17081 12.9437 7.5606 12.9329 7.95232Z"></path><path d="M10.3787 13.639C10.3388 13.612 10.2966 13.5884 10.2527 13.5686C10.2069 13.5511 10.1598 13.5375 10.1118 13.5278C10.0031 13.5062 9.89091 13.5092 9.78353 13.5366C9.67614 13.5641 9.57627 13.6152 9.49127 13.6864C9.40626 13.7575 9.33829 13.8468 9.29235 13.9476C9.24641 14.0485 9.22367 14.1584 9.2258 14.2692C9.22031 14.3173 9.22031 14.3658 9.2258 14.4138C9.23546 14.4618 9.2491 14.5089 9.26657 14.5547C9.2864 14.5986 9.30996 14.6408 9.33701 14.6807C9.3634 14.7214 9.39316 14.7599 9.42598 14.7956C9.49823 14.8635 9.58336 14.9162 9.67632 14.9505C9.76929 14.9849 9.8682 15.0003 9.96722 14.9958C10.0153 15.0013 10.0638 15.0013 10.1118 14.9958C10.1602 14.9879 10.2075 14.9742 10.2527 14.955C10.2973 14.9367 10.3397 14.913 10.3787 14.8846C10.4629 14.8351 10.5331 14.7649 10.5826 14.6807C10.611 14.6417 10.6347 14.5993 10.653 14.5547C10.6722 14.5095 10.6859 14.4622 10.6938 14.4138C10.6993 14.3658 10.6993 14.3173 10.6938 14.2692C10.6944 14.1716 10.6757 14.0749 10.6388 13.9846C10.6019 13.8942 10.5475 13.8121 10.4788 13.7428C10.4484 13.7055 10.4149 13.6708 10.3787 13.639Z"></path></symbol><symbol id="field-mapping" width="20" height="21" viewBox="0 0 20 21" xmlns="http://www.w3.org/2000/svg"><path fill-rule="evenodd" clip-rule="evenodd" d="M0.0905131 2.33973C-0.0301711 2.25917 -0.0301711 2.0816 0.0905133 2.00104L2.56976 0.346048C2.70484 0.255878 2.88578 0.352837 2.88578 0.515394V1.40715H5.30661C5.98028 1.40715 6.59613 1.78826 6.8974 2.39159L10 8.60488L13.1026 2.39159C13.4039 1.78826 14.0197 1.40715 14.6934 1.40715H17.1142V0.515394C17.1142 0.352837 17.2952 0.255878 17.4302 0.346048L19.9095 2.00104C20.0302 2.0816 20.0302 2.25917 19.9095 2.33973L17.4302 3.99472C17.2952 4.08489 17.1142 3.98793 17.1142 3.82537V2.93361H14.6934C14.5972 2.93361 14.5092 2.98806 14.4661 3.07425L10.8522 10.3115L14.4661 17.5488C14.5092 17.635 14.5972 17.6894 14.6934 17.6894H17.1142V16.7977C17.1142 16.6351 17.2952 16.5382 17.4302 16.6283L19.9095 18.2833C20.0302 18.3639 20.0302 18.5414 19.9095 18.622L17.4302 20.277C17.2952 20.3672 17.1142 20.2702 17.1142 20.1077V19.2159H14.6934C14.0197 19.2159 13.4039 18.8348 13.1026 18.2315L10 12.0182L6.8974 18.2315C6.59613 18.8348 5.98028 19.2159 5.30661 19.2159H2.88578V20.1077C2.88578 20.2702 2.70484 20.3672 2.56976 20.277L0.0905131 18.622C-0.0301711 18.5414 -0.0301711 18.3639 0.0905133 18.2833L2.56976 16.6283C2.70484 16.5382 2.88578 16.6351 2.88578 16.7977V17.6894H5.30661C5.40285 17.6894 5.49083 17.635 5.53387 17.5488L9.14779 10.3115L5.53387 3.07425C5.49083 2.98806 5.40285 2.93361 5.30661 2.93361H2.88578V3.82537C2.88578 3.98793 2.70484 4.08489 2.56976 3.99472L0.0905131 2.33973Z"></path></symbol></svg>