<?xml version="1.0" encoding="UTF-8" standalone="no"?><svg xmlns="http://www.w3.org/2000/svg" xmlns:xlink="http://www.w3.org/1999/xlink"><symbol id="calender" width="18" height="20" viewBox="0 0 18 20" xmlns="http://www.w3.org/2000/svg"><path fill-rule="evenodd" clip-rule="evenodd" d="M0.085514 7.58535C0.085514 7.20004 0.395471 6.88768 0.777822 6.88768H17.2307C17.613 6.88768 17.923 7.20004 17.923 7.58535C17.923 7.97067 17.613 8.28303 17.2307 8.28303H0.777822C0.395471 8.28303 0.085514 7.97067 0.085514 7.58535Z"></path><path fill-rule="evenodd" clip-rule="evenodd" d="M12.4081 11.2183C12.4081 10.833 12.718 10.5206 13.1004 10.5206H13.1089C13.4913 10.5206 13.8012 10.833 13.8012 11.2183C13.8012 11.6036 13.4913 11.916 13.1089 11.916H13.1004C12.718 11.916 12.4081 11.6036 12.4081 11.2183Z"></path><path fill-rule="evenodd" clip-rule="evenodd" d="M8.31195 11.2183C8.31195 10.833 8.62191 10.5206 9.00426 10.5206H9.01281C9.39516 10.5206 9.70512 10.833 9.70512 11.2183C9.70512 11.6036 9.39516 11.916 9.01281 11.916H9.00426C8.62191 11.916 8.31195 11.6036 8.31195 11.2183Z"></path><path fill-rule="evenodd" clip-rule="evenodd" d="M4.20728 11.2183C4.20728 10.833 4.51724 10.5206 4.89959 10.5206H4.90814C5.29049 10.5206 5.60045 10.833 5.60045 11.2183C5.60045 11.6036 5.29049 11.916 4.90814 11.916H4.89959C4.51724 11.916 4.20728 11.6036 4.20728 11.2183Z"></path><path fill-rule="evenodd" clip-rule="evenodd" d="M12.4081 14.8337C12.4081 14.4484 12.718 14.136 13.1004 14.136H13.1089C13.4913 14.136 13.8012 14.4484 13.8012 14.8337C13.8012 15.219 13.4913 15.5314 13.1089 15.5314H13.1004C12.718 15.5314 12.4081 15.219 12.4081 14.8337Z"></path><path fill-rule="evenodd" clip-rule="evenodd" d="M8.31195 14.8337C8.31195 14.4484 8.62191 14.136 9.00426 14.136H9.01281C9.39516 14.136 9.70512 14.4484 9.70512 14.8337C9.70512 15.219 9.39516 15.5314 9.01281 15.5314H9.00426C8.62191 15.5314 8.31195 15.219 8.31195 14.8337Z"></path><path fill-rule="evenodd" clip-rule="evenodd" d="M4.20728 14.8337C4.20728 14.4484 4.51724 14.136 4.89959 14.136H4.90814C5.29049 14.136 5.60045 14.4484 5.60045 14.8337C5.60045 15.219 5.29049 15.5314 4.90814 15.5314H4.89959C4.51724 15.5314 4.20728 15.219 4.20728 14.8337Z"></path><path fill-rule="evenodd" clip-rule="evenodd" d="M12.7327 0C13.115 0 13.425 0.312359 13.425 0.697674V3.75887C13.425 4.14418 13.115 4.45654 12.7327 4.45654C12.3503 4.45654 12.0404 4.14418 12.0404 3.75887V0.697674C12.0404 0.312359 12.3503 0 12.7327 0Z"></path><path fill-rule="evenodd" clip-rule="evenodd" d="M5.27585 0C5.6582 0 5.96816 0.312359 5.96816 0.697674V3.75887C5.96816 4.14418 5.6582 4.45654 5.27585 4.45654C4.8935 4.45654 4.58355 4.14418 4.58355 3.75887V0.697674C4.58355 0.312359 4.8935 0 5.27585 0Z"></path><path fill-rule="evenodd" clip-rule="evenodd" d="M1.40076 2.77159C2.32536 1.88585 3.61617 1.46902 5.09627 1.46902H12.9122C14.396 1.46902 15.6876 1.88553 16.6106 2.77227C17.5388 3.66397 18.0044 4.94473 18 6.48676V14.9744C18 16.5165 17.532 17.7986 16.6035 18.692C15.6799 19.5806 14.3886 20 12.9037 20H5.09627C3.61201 20 2.31972 19.572 1.39592 18.6697C0.468684 17.764 0 16.4658 0 14.9041V6.48579C0 4.94269 0.470805 3.66246 1.40076 2.77159ZM2.35473 3.78292C1.7604 4.35227 1.38462 5.23159 1.38462 6.48579V14.9041C1.38462 16.1836 1.76252 17.0845 2.35957 17.6677C2.96006 18.2542 3.86974 18.6047 5.09627 18.6047H12.9037C14.1381 18.6047 15.0488 18.2587 15.6473 17.6828C16.241 17.1115 16.6154 16.2297 16.6154 14.9744V6.48579L16.6154 6.48364C16.6192 5.2289 16.2468 4.35054 15.6552 3.78224C15.0583 3.20875 14.1478 2.86437 12.9122 2.86437H5.09627C3.86559 2.86437 2.95441 3.20844 2.35473 3.78292Z"></path></symbol><symbol id="arrow-line" width="100" height="6" viewBox="0 0 100 6" xmlns="http://www.w3.org/2000/svg"><path d="M100 3L95 0.113249V5.88675L100 3ZM0 3.5H95.5V2.5H0V3.5Z"></path></symbol><symbol id="add" width="18" height="18" viewBox="0 0 18 18" xmlns="http://www.w3.org/2000/svg"><path d="M8.99934 5.57188C9.32044 5.57188 9.58074 5.83218 9.58074 6.15328V8.41156H11.8417C12.1628 8.41156 12.4231 8.67185 12.4231 8.99295C12.4231 9.31405 12.1628 9.57435 11.8417 9.57435H9.58074V11.8326C9.58074 12.1537 9.32044 12.414 8.99934 12.414C8.67825 12.414 8.41795 12.1537 8.41795 11.8326V9.57435H6.15697C5.83587 9.57435 5.57557 9.31405 5.57557 8.99295C5.57557 8.67185 5.83587 8.41156 6.15697 8.41156H8.41795V6.15328C8.41795 5.83218 8.67825 5.57188 8.99934 5.57188Z"></path><path fill-rule="evenodd" clip-rule="evenodd" d="M5.36701 0.666992C3.9569 0.666992 2.76693 1.16997 1.93233 2.06526C1.10195 2.95602 0.666016 4.18864 0.666016 5.57797V12.4227C0.666016 13.8113 1.09968 15.044 1.92931 15.9351C2.7633 16.8309 3.95358 17.3337 5.36701 17.3337H12.6317C14.0451 17.3337 15.2354 16.8309 16.0694 15.9351C16.899 15.044 17.3327 13.8113 17.3327 12.4227V5.57797C17.3327 4.18935 16.899 2.95664 16.0694 2.06554C15.2354 1.16973 14.0451 0.666992 12.6317 0.666992H5.36701ZM1.82881 5.57797C1.82881 4.43003 2.18652 3.49785 2.78287 2.85814C3.37499 2.22297 4.24483 1.82978 5.36701 1.82978H12.6317C13.7579 1.82978 14.6275 2.2232 15.2183 2.85787C15.8136 3.49724 16.1699 4.42932 16.1699 5.57797V12.4227C16.1699 13.5713 15.8136 14.5034 15.2183 15.1428C14.6275 15.7775 13.7579 16.1709 12.6317 16.1709H5.36701C4.24076 16.1709 3.37124 15.7775 2.78036 15.1428C2.1851 14.5034 1.82881 13.5713 1.82881 12.4227V5.57797Z"></path></symbol><symbol id="arrow" width="61" height="10" viewBox="0 0 61 10" xmlns="http://www.w3.org/2000/svg"><path d="M60.25 5L52.75 0.669873V9.33013L60.25 5ZM0.25 5.75H53.5V4.25H0.25V5.75Z"></path></symbol><symbol id="copy" width="12" height="16" viewBox="0 0 12 16" xmlns="http://www.w3.org/2000/svg"><path fill-rule="evenodd" clip-rule="evenodd" d="M3.25424 0.5C2.91725 0.5 2.64407 0.783763 2.64407 1.1338C2.64407 1.48384 2.91725 1.76761 3.25424 1.76761H8.94915C9.96012 1.76761 10.7797 2.6189 10.7797 3.66901V12.1197C10.7797 12.4698 11.0528 12.7535 11.3898 12.7535C11.7268 12.7535 12 12.4698 12 12.1197V3.66901C12 1.91882 10.6341 0.5 8.94915 0.5H3.25424ZM2.44068 4.09155H7.32203C7.99601 4.09155 8.54237 4.65908 8.54237 5.35915V12.9648C8.54237 13.6649 7.99601 14.2324 7.32203 14.2324H2.44068C1.7667 14.2324 1.22034 13.6649 1.22034 12.9648V5.35915C1.22034 4.65908 1.7667 4.09155 2.44068 4.09155ZM0 5.35915C0 3.959 1.09273 2.82394 2.44068 2.82394H7.32203C8.66998 2.82394 9.76271 3.959 9.76271 5.35915V12.9648C9.76271 14.3649 8.66998 15.5 7.32203 15.5H2.44068C1.09273 15.5 0 14.3649 0 12.9648V5.35915Z"></path><path fill-rule="evenodd" clip-rule="evenodd" d="M2.79944 1.55634C2.70282 1.44421 2.64407 1.29613 2.64407 1.1338C2.64407 0.783763 2.91725 0.5 3.25424 0.5H8.94915C10.6341 0.5 12 1.91882 12 3.66901V12.1197C12 12.4698 11.7268 12.7535 11.3898 12.7535C11.2336 12.7535 11.091 12.6925 10.9831 12.5921C10.8582 12.4761 10.7797 12.3074 10.7797 12.1197V3.66901C10.7797 2.6189 9.96012 1.76761 8.94915 1.76761H3.25424C3.07353 1.76761 2.91116 1.686 2.79944 1.55634ZM9.76258 12.9914C9.76267 12.9825 9.76271 12.9737 9.76271 12.9648V5.35915C9.76271 4.99831 9.69014 4.65508 9.55932 4.34435C9.31335 3.76008 8.86148 3.29071 8.299 3.03521C7.99985 2.89933 7.66942 2.82394 7.32203 2.82394H2.44068C2.43213 2.82394 2.42359 2.82399 2.41506 2.82408C1.07891 2.83835 0 3.96788 0 5.35915V12.9648C0 14.3649 1.09273 15.5 2.44068 15.5H7.32203C8.66144 15.5 9.74884 14.3793 9.76258 12.9914ZM2.44068 4.09155C1.7667 4.09155 1.22034 4.65908 1.22034 5.35915V12.9648C1.22034 13.6649 1.7667 14.2324 2.44068 14.2324H7.32203C7.99601 14.2324 8.54237 13.6649 8.54237 12.9648V5.35915C8.54237 4.65908 7.99601 4.09155 7.32203 4.09155H2.44068Z"></path></symbol><symbol id="arrow_tail" width="24" height="24" viewBox="0 0 24 24" xmlns="http://www.w3.org/2000/svg"><g><path d="M11.1771 20.2931C11.2321 20.6924 11.5795 21.0002 11.9999 21.0002C12.4585 21.0002 12.8302 20.6339 12.8302 20.182V5.80028L18.0813 10.9955L18.1743 11.0749C18.4989 11.3133 18.9602 11.2878 19.2556 10.9979C19.5805 10.6791 19.5816 10.161 19.258 9.84084L12.5996 3.25248C12.5614 3.21326 12.5194 3.17777 12.474 3.14663C12.1498 2.92358 11.6999 2.955 11.4111 3.24089L4.74193 9.84089L4.66174 9.93282C4.42125 10.2536 4.44905 10.7081 4.74446 10.998C5.06942 11.3168 5.59515 11.3157 5.91871 10.9955L11.1696 5.79899V20.182L11.1771 20.2931Z"></path></g></symbol><symbol id="copy-v2" width="20" height="20" viewBox="0 0 20 20" xmlns="http://www.w3.org/2000/svg"><path fill-rule="evenodd" clip-rule="evenodd" d="M1.25313 5.10766C2.08345 4.21696 3.26423 3.72093 4.65249 3.72093H11.6266C13.0179 3.72093 14.1991 4.21668 15.0289 5.10799C15.8535 5.99366 16.2791 7.21313 16.2791 8.575V15.1459C16.2791 16.5078 15.8535 17.7273 15.0289 18.6129C14.1991 19.5043 13.0179 20 11.6266 20H4.65249C3.26113 20 2.07998 19.5043 1.25017 18.6129C0.4256 17.7273 0 16.5078 0 15.1459V8.575C0 7.21228 0.427881 5.99292 1.25313 5.10766ZM2.27378 6.05912C1.72937 6.64311 1.39535 7.50195 1.39535 8.575V15.1459C1.39535 16.2198 1.72811 17.0786 2.27143 17.6621C2.8095 18.2401 3.60575 18.6047 4.65249 18.6047H11.6266C12.6733 18.6047 13.4696 18.2401 14.0076 17.6621C14.551 17.0786 14.8837 16.2198 14.8837 15.1459V8.575C14.8837 7.5011 14.551 6.64237 14.0076 6.05879C13.4696 5.48084 12.6733 5.11628 11.6266 5.11628H4.65249C3.60974 5.11628 2.81312 5.48056 2.27378 6.05912Z"></path><path fill-rule="evenodd" clip-rule="evenodd" d="M5.01377 1.12968C5.86421 0.352596 7.04143 0 8.37342 0H15.3475C16.7389 0 17.92 0.495749 18.7498 1.38706C19.5744 2.27273 20 3.4922 20 4.85407V11.425C20 12.7578 19.6492 13.9741 18.8874 14.8689C18.1124 15.7791 16.9773 16.2791 15.5814 16.2791C15.1961 16.2791 14.8837 15.9667 14.8837 15.5814C14.8837 15.1961 15.1961 14.8837 15.5814 14.8837C16.6236 14.8837 17.3489 14.5234 17.8249 13.9643C18.3141 13.3898 18.6047 12.5279 18.6047 11.425V4.85407C18.6047 3.78017 18.2719 2.92144 17.7286 2.33786C17.1905 1.75991 16.3942 1.39535 15.3475 1.39535H8.37342C7.27441 1.39535 6.47422 1.68533 5.955 2.15977C5.44543 2.62539 5.11628 3.35098 5.11628 4.4186C5.11628 4.80392 4.80392 5.11628 4.4186 5.11628C4.03329 5.11628 3.72093 4.80392 3.72093 4.4186C3.72093 3.05045 4.15369 1.91558 5.01377 1.12968Z"></path></symbol><symbol id="clear" width="16" height="16" viewBox="0 0 16 16" xmlns="http://www.w3.org/2000/svg"><path fill-rule="evenodd" clip-rule="evenodd" d="M15.1101 0.9468C15.3537 1.19136 15.3529 1.58709 15.1083 1.83068L1.77673 15.1096C1.53217 15.3532 1.13645 15.3524 0.892853 15.1078C0.649259 14.8633 0.650042 14.4676 0.894602 14.224L14.2262 0.945051C14.4707 0.701456 14.8665 0.702239 15.1101 0.9468Z"></path><path fill-rule="evenodd" clip-rule="evenodd" d="M0.890352 0.893068C1.13349 0.648057 1.52922 0.64654 1.77423 0.889681L15.1076 14.1212C15.3526 14.3644 15.3541 14.7601 15.1109 15.0051C14.8678 15.2501 14.4721 15.2516 14.2271 15.0085L0.89374 1.77695C0.648728 1.5338 0.647212 1.13808 0.890352 0.893068Z"></path></symbol><symbol id="close" width="10" height="10" viewBox="0 0 10 10" xmlns="http://www.w3.org/2000/svg"><path fill-rule="evenodd" clip-rule="evenodd" d="M9.26564 0.768092C9.4118 0.914828 9.41133 1.15226 9.26459 1.29842L1.26565 9.26577C1.11891 9.41193 0.881478 9.41146 0.735321 9.26472C0.589165 9.11798 0.589635 8.88055 0.736371 8.73439L8.73531 0.767043C8.88205 0.620886 9.11949 0.621356 9.26564 0.768092Z"></path><path fill-rule="evenodd" clip-rule="evenodd" d="M0.733821 0.735853C0.879705 0.588846 1.11714 0.587936 1.26415 0.733821L9.26415 8.67274C9.41115 8.81862 9.41206 9.05606 9.26618 9.20306C9.12029 9.35007 8.88286 9.35098 8.73585 9.2051L0.735853 1.26618C0.588846 1.1203 0.587936 0.88286 0.733821 0.735853Z"></path></symbol><symbol id="alert" width="18" height="16" viewBox="0 0 18 16" xmlns="http://www.w3.org/2000/svg"><path fill-rule="evenodd" clip-rule="evenodd" d="M6.9736 1.66627C7.87322 0.11044 10.1382 0.111678 11.0366 1.66738L17.021 12.0307C17.9139 13.5766 16.7858 15.5 14.989 15.5H3.01109C1.21291 15.5 0.086428 13.5753 0.979097 12.0298L6.9736 1.66627ZM9.95228 2.28159C9.53323 1.55598 8.47711 1.55557 8.05761 2.28107L2.06339 12.6441C1.64727 13.3651 2.17281 14.2628 3.01109 14.2628H14.989C15.8271 14.2628 16.3529 13.3655 15.9367 12.645L9.95228 2.28159Z"></path><path fill-rule="evenodd" clip-rule="evenodd" d="M8.99754 5.91445C9.34249 5.91445 9.62213 6.1914 9.62213 6.53303V9.08984C9.62213 9.43147 9.34249 9.70842 8.99754 9.70842C8.65259 9.70842 8.37296 9.43147 8.37296 9.08984V6.53303C8.37296 6.1914 8.65259 5.91445 8.99754 5.91445Z"></path><path fill-rule="evenodd" clip-rule="evenodd" d="M8.15852 11.6344C8.15852 11.1789 8.53136 10.8097 8.9913 10.8097H8.99963C9.45956 10.8097 9.83241 11.1789 9.83241 11.6344C9.83241 12.09 9.45956 12.4592 8.99963 12.4592H8.9913C8.53136 12.4592 8.15852 12.09 8.15852 11.6344Z"></path></symbol><symbol id="check" width="24" height="24" viewBox="0 0 24 24" xmlns="http://www.w3.org/2000/svg"><g><path d="M20.25 6.75L9.75 17.25L4.5 12" stroke-width="1.5" stroke-linecap="round" stroke-linejoin="round"></path></g></symbol><symbol id="document" width="18" height="20" viewBox="0 0 18 20" xmlns="http://www.w3.org/2000/svg"><path fill-rule="evenodd" clip-rule="evenodd" d="M4.70249 14.2879C4.70249 13.8718 5.03523 13.5345 5.44568 13.5345H12.6001C13.0106 13.5345 13.3433 13.8718 13.3433 14.2879C13.3433 14.704 13.0106 15.0413 12.6001 15.0413H5.44568C5.03523 15.0413 4.70249 14.704 4.70249 14.2879Z"></path><path fill-rule="evenodd" clip-rule="evenodd" d="M4.70249 10.0825C4.70249 9.66638 5.03523 9.32908 5.44568 9.32908H12.6001C13.0106 9.32908 13.3433 9.66638 13.3433 10.0825C13.3433 10.4986 13.0106 10.8359 12.6001 10.8359H5.44568C5.03523 10.8359 4.70249 10.4986 4.70249 10.0825Z"></path><path fill-rule="evenodd" clip-rule="evenodd" d="M4.70259 5.88679C4.70259 5.4707 5.03533 5.1334 5.44578 5.1334H8.17576C8.58621 5.1334 8.91894 5.4707 8.91894 5.88679C8.91894 6.30288 8.58621 6.64018 8.17576 6.64018H5.44578C5.03533 6.64018 4.70259 6.30288 4.70259 5.88679Z"></path><path fill-rule="evenodd" clip-rule="evenodd" d="M12.7908 0C14.337 1.19748e-07 15.6582 0.517278 16.592 1.49434C17.5231 2.46847 18 3.82705 18 5.38122V14.6188C18 16.1656 17.5266 17.5181 16.6032 18.4907C15.677 19.4661 14.3663 19.9874 12.832 19.997L12.8274 19.997L5.2089 20C3.66263 20 2.34099 19.4827 1.40737 18.5056C0.476577 17.5314 0 16.1728 0 14.6188V5.38122C0 3.8345 0.473118 2.48222 1.39632 1.50983C2.32229 0.534539 3.63276 0.0136123 5.16702 0.00403252L5.17159 0.0040039L12.7908 0ZM12.7909 1.50678C12.791 1.50678 12.7909 1.50678 12.7909 1.50678L5.17617 1.51078C5.1755 1.51079 5.17483 1.51079 5.17415 1.5108C3.97448 1.51873 3.07143 1.91835 2.46726 2.55471C1.85999 3.19433 1.48637 4.14541 1.48637 5.38122V14.6188C1.48637 15.8613 1.86298 16.8167 2.47504 17.4573C3.08424 18.0949 3.99571 18.4932 5.20805 18.4932C5.20799 18.4932 5.20812 18.4932 5.20805 18.4932L12.8228 18.4902C12.8235 18.4902 12.8241 18.4902 12.8248 18.4902C14.0244 18.4823 14.9277 18.0825 15.5322 17.4458C16.1398 16.8059 16.5136 15.8545 16.5136 14.6188V5.38122C16.5136 4.1388 16.1368 3.18346 15.5246 2.54283C14.9151 1.90518 14.0032 1.50685 12.7909 1.50678Z"></path></symbol><symbol id="export" width="76" height="74" viewBox="0 0 76 74" xmlns="http://www.w3.org/2000/svg"><path d="M13.1539 56.3013C16.9311 42.2015 18.2726 23.6242 18.543 10.4956C18.6416 5.70975 22.8408 2.00482 27.5743 2.68897L63.0255 7.81293C66.8131 8.36037 69.6692 11.5776 69.6265 15.4079C69.4735 29.1254 68.1145 50.31 63.6957 65.4775C62.2615 70.4004 57.2748 73.0672 52.1942 72.3329L20.1025 67.6945C14.929 66.9468 11.8026 61.3456 13.1539 56.3013Z"></path><path d="M68.0364 41.9982C69.1106 32.3758 69.5439 22.8103 69.6265 15.4142C69.6693 11.5839 66.8132 8.36039 63.0256 7.81295L27.5743 2.68897C22.8408 2.00482 18.6416 5.71866 18.5428 10.5045C18.4991 12.6236 18.4275 14.8846 18.3222 17.2457L17.9674 23.6078C17.9001 24.6102 17.8266 25.6229 17.7465 26.6431M66.8388 49.6251C65.9998 54.89 64.9278 60.5001 63.5796 65.431C62.2271 70.3776 57.2749 73.0673 52.1943 72.333L20.1025 67.6946C14.929 66.9469 11.8041 61.341 13.1552 56.2966C15.3502 48.1012 16.7225 38.3937 17.5399 29.1229" stroke-width="0.902439" stroke-linecap="round"></path><path d="M30.7168 39.0381L52.2749 42.1176" stroke-width="1.94509" stroke-linecap="round"></path><path d="M24.5312 44.0195L49.5926 47.5995M56.8685 48.6388L53.6347 48.1769" stroke-width="1.94509" stroke-linecap="round"></path><path d="M12.671 66.6701C0.0146221 64.6657 0.698646 59.7513 1.2954 56.0273C1.48883 54.8203 2.65313 53.8465 3.86329 54.021L39.3024 59.1286C40.2245 59.2615 40.909 60.0318 40.7994 60.9571C40.3492 64.7568 39.0484 70.279 52.5713 72.4207L12.671 66.6701Z"></path><path d="M1.2954 56.0273L0.8503 55.9529L1.2954 56.0273ZM12.671 66.6701L12.6035 67.1162L12.6097 67.1171L12.671 66.6701ZM52.5713 72.4207L52.5101 72.8677C52.7555 72.9031 52.9821 72.7336 53.0175 72.4882C53.0529 72.2427 52.8838 72.0134 52.6388 71.9746L52.5713 72.4207ZM40.7994 60.9571L40.3517 60.9009L40.3517 60.9009L40.7994 60.9571ZM0.8503 55.9529C0.555134 57.7948 0.190001 60.1345 1.64254 62.248C3.08947 64.3534 6.2452 66.1092 12.6035 67.1162L12.7385 66.224C6.44042 65.2266 3.60997 63.523 2.38401 61.7391C1.16366 59.9634 1.43891 57.9839 1.7405 56.1018L0.8503 55.9529ZM3.80203 54.468L39.2411 59.5756L39.3637 58.6815L3.92456 53.5739L3.80203 54.468ZM52.6326 71.9736L12.7323 66.2231L12.6097 67.1171L52.5101 72.8677L52.6326 71.9736ZM40.3517 60.9009C40.1331 62.7458 39.6528 65.2597 41.0623 67.5461C42.4795 69.845 45.7078 71.7905 52.5038 72.8668L52.6388 71.9746C45.9119 70.9092 43.0292 69.0228 41.8285 67.0752C40.6202 65.1152 41.0154 62.9681 41.247 61.0133L40.3517 60.9009ZM39.2411 59.5756C39.9571 59.6788 40.4282 60.2558 40.3517 60.9009L41.247 61.0133C41.3898 59.8079 40.4919 58.8441 39.3637 58.6815L39.2411 59.5756ZM1.7405 56.1018C1.90047 55.1036 2.86658 54.3332 3.80203 54.468L3.92456 53.5739C2.43967 53.3599 1.0772 54.5369 0.8503 55.9529L1.7405 56.1018Z"></path><rect width="17.4216" height="13.5991" rx="3.89019" transform="matrix(0.989951 0.141411 -0.136969 0.990575 36.8564 13.8027)"></rect><g clip-path="url(#clip0_5458_163633)"><circle cx="62.1527" cy="50.0326" r="13.4779"></circle><path d="M75.0591 49.6526C75.0591 47.1021 74.3224 44.7222 73.0486 42.7109M68.0612 38.1075C66.2194 37.1362 64.1178 36.5859 61.8865 36.5859C54.6115 36.5859 48.7139 42.4361 48.7139 49.6526C48.7139 56.8691 54.6115 62.7193 61.8865 62.7193C68.0244 62.7193 73.1818 58.555 74.6441 52.9193" stroke-width="0.902439" stroke-linecap="round"></path></g><path d="M61.2823 55.6994C61.3227 55.9906 61.578 56.215 61.887 56.215C62.2241 56.215 62.4974 55.9479 62.4974 55.6184V45.1317L66.3574 48.9199L66.4257 48.9778C66.6643 49.1516 67.0034 49.133 67.2206 48.9217C67.4594 48.6892 67.4602 48.3114 67.2223 48.078L62.3278 43.2739C62.2998 43.2453 62.2689 43.2195 62.2356 43.1968C61.9972 43.0341 61.6666 43.057 61.4542 43.2655L56.5519 48.078L56.4929 48.145C56.3161 48.379 56.3366 48.7103 56.5537 48.9217C56.7926 49.1542 57.179 49.1534 57.4169 48.9199L61.2767 45.1308V55.6184L61.2823 55.6994Z"></path><defs><clipPath><rect width="28.2271" height="28" transform="translate(47.7725 35.6523)"></rect></clipPath></defs></symbol><symbol id="dashboard-illustration" width="240" height="240" viewBox="0 0 240 240" xmlns="http://www.w3.org/2000/svg"><path fill-rule="evenodd" clip-rule="evenodd" d="M123.268 0.0740102C168.092 1.21115 210.66 23.9244 226.849 69.2326C246.362 123.844 248.24 192.475 204.067 226.214C161.08 259.047 106.764 227.265 64.6643 193.108C25.0647 160.98 -11.8581 114.49 3.60107 63.569C18.9458 13.0247 74.1781 -1.17134 123.268 0.0740102Z"></path><ellipse cx="120" cy="224.4" rx="72" ry="4.8"></ellipse><path d="M71.9721 169.805C80.6906 138.656 83.7665 97.0306 84.3795 68.1108C84.5882 58.2664 93.2658 50.603 103.017 51.9734L183.22 63.2452C191.003 64.339 196.855 70.9237 196.761 78.7824C196.401 108.863 193.285 156.079 183.155 189.406C180.093 199.479 169.826 204.96 159.4 203.495L86.1126 193.195C75.4467 191.696 69.0691 180.177 71.9721 169.805Z"></path><path d="M193.128 137.345C195.577 116.083 196.568 94.9524 196.761 78.7773C196.855 70.9187 191.003 64.339 183.22 63.2452L103.017 51.9734C93.2658 50.603 84.5881 58.2838 84.3791 68.1282C84.2751 73.0298 84.1003 78.2961 83.8393 83.8143L83.0288 97.636C82.876 99.8138 82.7095 102.014 82.5285 104.231M190.457 153.919C188.525 165.732 186.045 178.347 182.917 189.312C180.028 199.437 169.826 204.96 159.4 203.495L86.1126 193.195C75.4467 191.696 69.0702 180.174 71.9731 169.802C77.0242 151.754 80.1812 130.19 82.0625 109.618" stroke-linecap="round"></path><path d="M110.977 131.039L158.51 137.719" stroke-width="4" stroke-linecap="round"></path><path d="M97.3401 141.846L152.597 149.612M168.639 151.866L161.51 150.864" stroke-width="4" stroke-linecap="round"></path><path d="M71.1763 191.096C42.949 186.73 44.8559 175.796 46.1957 167.633C46.6034 165.149 48.992 163.136 51.4844 163.487L130.16 174.544C132.055 174.81 133.464 176.387 133.239 178.287C132.254 186.587 129.062 198.807 159.112 203.454L71.1763 191.096Z"></path><path d="M46.1957 167.633L45.7023 167.552L46.1957 167.633ZM71.1763 191.096L71.0999 191.59L71.1068 191.591L71.1763 191.096ZM159.112 203.454L159.043 203.95C159.315 203.988 159.567 203.799 159.607 203.527C159.647 203.256 159.46 203.002 159.189 202.96L159.112 203.454ZM133.239 178.287L133.735 178.346L133.735 178.346L133.239 178.287ZM45.7023 167.552C45.0376 171.602 44.1727 176.579 47.1831 181.067C50.1895 185.549 56.9538 189.402 71.0999 191.59L71.2528 190.602C57.1715 188.424 50.7756 184.627 48.0136 180.51C45.2556 176.398 46.0141 171.826 46.6891 167.714L45.7023 167.552ZM51.4148 163.982L130.09 175.039L130.23 174.049L51.554 162.991L51.4148 163.982ZM159.182 202.959L71.2459 190.601L71.1068 191.591L159.043 203.95L159.182 202.959ZM132.742 178.228C132.258 182.309 131.165 187.646 134.11 192.5C137.065 197.37 143.973 201.619 159.036 203.949L159.189 202.96C144.201 200.642 137.681 196.457 134.965 191.981C132.239 187.488 133.235 182.565 133.735 178.346L132.742 178.228ZM130.09 175.039C131.757 175.273 132.931 176.638 132.742 178.228L133.735 178.346C133.997 176.136 132.352 174.347 130.23 174.049L130.09 175.039ZM46.6891 167.714C47.0593 165.459 49.2292 163.675 51.4148 163.982L51.554 162.991C48.7547 162.598 46.1476 164.839 45.7023 167.552L46.6891 167.714Z"></path><rect x="124.514" y="76.2969" width="38.4" height="29.5094" rx="8" transform="rotate(8 124.514 76.2969)"></rect><path d="M148.29 162.358C154.374 161.453 160.143 160.464 165.574 159.408M222.172 134.834C221.517 130.428 211.081 130.597 194.4 130.2M74.4 166.8C87.2777 168.593 108.516 167.17 132.513 164.433M176.615 157.07C200.072 151.659 215.536 145.056 220.492 139.245" stroke-linecap="round"></path><path d="M144.887 121.385C149.328 120.755 153.674 120.066 157.895 119.326M81.6 104.4C69.3168 108.943 63.4073 113.076 63.9743 117.075C64.1728 118.476 65.3122 119.698 67.27 120.737M77.27 123.609C89.9418 125.663 110.536 125.468 134.145 122.763M167.895 117.433C181.07 114.748 192.653 111.603 201.645 108.346" stroke-linecap="round"></path><g clip-path="url(#clip0_3130_240821)"><path d="M214.72 105.6C214.72 102.102 213.718 98.838 211.985 96.0797M205.2 89.7664C202.695 88.4344 199.835 87.6797 196.8 87.6797C186.903 87.6797 178.88 95.7027 178.88 105.6C178.88 115.497 186.903 123.52 196.8 123.52C205.15 123.52 212.166 117.809 214.155 110.08" stroke-linecap="round"></path><ellipse cx="196.64" cy="105.439" rx="16.64" ry="16.64"></ellipse><path d="M195.8 114C195.8 114.552 196.248 115 196.8 115C197.352 115 197.8 114.552 197.8 114H195.8ZM197.507 96.4929C197.117 96.1024 196.483 96.1024 196.093 96.4929L189.729 102.857C189.338 103.247 189.338 103.881 189.729 104.271C190.12 104.662 190.753 104.662 191.143 104.271L196.8 98.6142L202.457 104.271C202.847 104.662 203.481 104.662 203.871 104.271C204.262 103.881 204.262 103.247 203.871 102.857L197.507 96.4929ZM197.8 114V97.2H195.8V114H197.8Z"></path><path d="M196.8 120.991C196.8 121.68 196.24 122.244 195.553 122.192C192.481 121.961 189.525 120.881 187.019 119.061C184.514 117.241 182.573 114.763 181.404 111.912C181.143 111.275 181.506 110.568 182.161 110.355C182.817 110.142 183.516 110.504 183.786 111.138C184.786 113.488 186.408 115.531 188.486 117.042C190.565 118.552 193.009 119.463 195.554 119.688C196.24 119.749 196.8 120.302 196.8 120.991Z"></path><path d="M198.593 90.313C198.673 89.6284 199.295 89.1338 199.971 89.2652C202.03 89.6648 203.998 90.4508 205.771 91.5853C207.543 92.7198 209.081 94.1782 210.306 95.8803C210.709 96.4397 210.52 97.2111 209.932 97.5706C209.344 97.9302 208.58 97.7411 208.17 97.187C207.147 95.805 205.879 94.6181 204.425 93.6876C202.971 92.757 201.362 92.1023 199.679 91.7523C199.004 91.612 198.513 90.9976 198.593 90.313Z"></path></g><defs><linearGradient x1="180" y1="105.439" x2="213.28" y2="105.439" gradientUnits="userSpaceOnUse"><stop stop-color="#FF758C"></stop><stop offset="1" stop-color="#FF7EB3"></stop></linearGradient><linearGradient x1="192.374" y1="86.399" x2="206.099" y2="129.613" gradientUnits="userSpaceOnUse"><stop stop-color="#FF3366"></stop><stop offset="1" stop-color="#FE5196"></stop></linearGradient><clipPath><rect width="38.4" height="38.4" transform="translate(177.6 86.4004)"></rect></clipPath></defs></symbol><symbol id="download" width="16" height="14" viewBox="0 0 16 14" xmlns="http://www.w3.org/2000/svg"><path fill-rule="evenodd" clip-rule="evenodd" d="M8.00061 10.1438C7.69011 10.1438 7.43811 9.89833 7.43811 9.59584V0.797993C7.43811 0.495501 7.69011 0.25 8.00061 0.25C8.31111 0.25 8.56311 0.495501 8.56311 0.797993V9.59584C8.56311 9.89833 8.31111 10.1438 8.00061 10.1438Z"></path><path fill-rule="evenodd" clip-rule="evenodd" d="M8.00061 10.1438C7.85136 10.1438 7.70736 10.0861 7.60236 9.98236L5.41536 7.84372C5.19636 7.62891 5.19711 7.28185 5.41686 7.0685C5.63736 6.85514 5.99286 6.85514 6.21186 7.06996L8.00061 8.81988L9.78936 7.06996C10.0084 6.85514 10.3639 6.85514 10.5844 7.0685C10.8041 7.28185 10.8049 7.62891 10.5859 7.84372L8.39886 9.98236C8.29386 10.0861 8.14986 10.1438 8.00061 10.1438Z"></path><path fill-rule="evenodd" clip-rule="evenodd" d="M12.1812 13.75H3.82625C1.9925 13.75 0.5 12.2967 0.5 10.5095V6.94027C0.5 5.15747 1.98875 3.70784 3.8195 3.70784H4.52525C4.83575 3.70784 5.08775 3.95334 5.08775 4.25583C5.08775 4.55833 4.83575 4.80383 4.52525 4.80383H3.8195C2.609 4.80383 1.625 5.76172 1.625 6.94027V10.5095C1.625 11.6925 2.612 12.654 3.82625 12.654H12.1812C13.3903 12.654 14.375 11.6947 14.375 10.5168V6.94831C14.375 5.76537 13.3872 4.80383 12.1745 4.80383H11.4755C11.165 4.80383 10.913 4.55833 10.913 4.25583C10.913 3.95334 11.165 3.70784 11.4755 3.70784H12.1745C14.0083 3.70784 15.5 5.16185 15.5 6.94831V10.5168C15.5 12.2996 14.0105 13.75 12.1812 13.75Z"></path></symbol><symbol id="email" width="20" height="18" viewBox="0 0 20 18" xmlns="http://www.w3.org/2000/svg"><path fill-rule="evenodd" clip-rule="evenodd" d="M10.0251 10.5829C9.40279 10.5829 8.78233 10.3789 8.26326 9.97089L4.09116 6.63305C3.7907 6.39305 3.74419 5.95643 3.98512 5.6592C4.22791 5.36289 4.66698 5.31582 4.96651 5.55489L9.13488 8.88905C9.6586 9.30074 10.3963 9.30074 10.9237 8.88535L15.0502 5.55674C15.3498 5.31397 15.7888 5.36012 16.0326 5.65735C16.2753 5.95366 16.2298 6.38935 15.9312 6.6312L11.7972 9.96535C11.2744 10.377 10.6493 10.5829 10.0251 10.5829Z"></path><path fill-rule="evenodd" clip-rule="evenodd" d="M14.5665 16.6154C14.5684 16.6135 14.5758 16.6154 14.5814 16.6154C15.6428 16.6154 16.5842 16.2388 17.306 15.5234C18.1442 14.6954 18.6047 13.5055 18.6047 12.1735V5.83385C18.6047 3.25569 16.906 1.38462 14.5665 1.38462H5.43349C3.09395 1.38462 1.39535 3.25569 1.39535 5.83385V12.1735C1.39535 13.5055 1.85674 14.6954 2.69395 15.5234C3.41581 16.2388 4.35814 16.6154 5.4186 16.6154H14.5665ZM5.41581 18C3.98047 18 2.6986 17.4831 1.70884 16.5046C0.606512 15.4135 0 13.8757 0 12.1735V5.83385C0 2.508 2.33581 0 5.43349 0H14.5665C17.6642 0 20 2.508 20 5.83385V12.1735C20 13.8757 19.3935 15.4135 18.2912 16.5046C17.3023 17.4822 16.0195 18 14.5814 18H5.41581Z"></path></symbol><symbol id="expense" width="18" height="20" viewBox="0 0 18 20" xmlns="http://www.w3.org/2000/svg"><path fill-rule="evenodd" clip-rule="evenodd" d="M4.5731 1.51191C2.9161 1.51191 1.5401 2.85391 1.5011 4.50891V15.2039C1.4641 16.9169 2.8141 18.3279 4.5101 18.3659H12.5741C14.2431 18.2969 15.5651 16.9099 15.5531 15.2099V6.33991L10.9181 1.51191H4.5731ZM4.4761 19.8659C1.9541 19.8089 -0.0538966 17.7109 0.00110343 15.1879V4.49091C0.0591034 2.00991 2.1081 0.0119071 4.5711 0.0119071H11.2381C11.4421 0.0119071 11.6371 0.0949071 11.7791 0.241907L16.8441 5.51891C16.9781 5.65791 17.0531 5.84491 17.0531 6.03791V15.2039C17.0711 17.7129 15.1171 19.7629 12.6041 19.8649L4.4761 19.8659Z"></path><path fill-rule="evenodd" clip-rule="evenodd" d="M16.2983 6.98449H13.5433C11.7133 6.97949 10.2253 5.48749 10.2253 3.65949V0.750488C10.2253 0.336488 10.5613 0.000488281 10.9753 0.000488281C11.3893 0.000488281 11.7253 0.336488 11.7253 0.750488V3.65949C11.7253 4.66349 12.5423 5.48149 13.5453 5.48449H16.2983C16.7123 5.48449 17.0483 5.82049 17.0483 6.23449C17.0483 6.64849 16.7123 6.98449 16.2983 6.98449Z"></path><path fill-rule="evenodd" clip-rule="evenodd" d="M10.7885 14.1086H5.38846C4.97446 14.1086 4.63846 13.7726 4.63846 13.3586C4.63846 12.9446 4.97446 12.6086 5.38846 12.6086H10.7885C11.2025 12.6086 11.5385 12.9446 11.5385 13.3586C11.5385 13.7726 11.2025 14.1086 10.7885 14.1086Z"></path><path fill-rule="evenodd" clip-rule="evenodd" d="M8.74356 10.3566H5.38756C4.97356 10.3566 4.63756 10.0206 4.63756 9.60659C4.63756 9.19259 4.97356 8.85659 5.38756 8.85659H8.74356C9.15756 8.85659 9.49356 9.19259 9.49356 9.60659C9.49356 10.0206 9.15756 10.3566 8.74356 10.3566Z"></path></symbol><symbol id="people" width="20" height="20" viewBox="0 0 20 20" xmlns="http://www.w3.org/2000/svg"><path fill-rule="evenodd" clip-rule="evenodd" d="M1.83881 15.1547C1.61795 15.3861 1.49902 15.6567 1.49902 16.0188C1.49902 16.3791 1.61794 16.647 1.83896 16.8761C2.07786 17.1238 2.46363 17.3518 3.02413 17.5392C4.15273 17.9166 5.7616 18.0568 7.59102 18.0568C9.42912 18.0568 11.0372 17.9115 12.1624 17.5299C12.721 17.3404 13.1053 17.1106 13.3435 16.8614C13.5642 16.6304 13.683 16.3604 13.683 15.9988C13.683 15.6388 13.5641 15.3706 13.3428 15.141C13.1036 14.8929 12.7176 14.6644 12.157 14.4765C11.0283 14.0981 9.4195 13.9568 7.59102 13.9568C5.75264 13.9568 4.14469 14.1027 3.01977 14.4851C2.46125 14.675 2.07696 14.9052 1.83881 15.1547ZM2.53702 13.0649C3.90536 12.5998 5.71841 12.4568 7.59102 12.4568C9.45154 12.4568 11.2637 12.5949 12.6338 13.0543C13.3226 13.2852 13.9554 13.6152 14.4227 14.0999C14.9078 14.6032 15.183 15.2423 15.183 15.9988C15.183 16.7536 14.9104 17.3929 14.4279 17.8977C13.9628 18.3844 13.3323 18.717 12.6442 18.9504C11.2759 19.4145 9.46292 19.5568 7.59102 19.5568C5.73044 19.5568 3.91832 19.4199 2.54842 18.9618C1.85967 18.7315 1.22681 18.4021 0.759398 17.9176C0.274102 17.4145 -0.000976562 16.7754 -0.000976562 16.0188C-0.000976562 15.2639 0.271469 14.6244 0.753647 14.1191C1.21853 13.632 1.84892 13.2988 2.53702 13.0649Z"></path><path fill-rule="evenodd" clip-rule="evenodd" d="M7.59102 1.99976C5.58301 1.99976 3.95502 3.62719 3.95502 5.63476C3.95502 7.64232 5.58301 9.26976 7.59102 9.26976H7.62045C9.61903 9.26164 11.2335 7.63558 11.226 5.63755L11.226 5.63476C11.226 3.62708 9.59792 1.99976 7.59102 1.99976ZM2.45502 5.63476C2.45502 2.79832 4.75503 0.499756 7.59102 0.499756C10.4256 0.499756 12.7252 2.7976 12.726 5.63322C12.7359 8.46021 10.4513 10.7592 7.62482 10.7698L7.62202 10.7698H7.59102C4.75503 10.7698 2.45502 8.47119 2.45502 5.63476Z"></path><path fill-rule="evenodd" clip-rule="evenodd" d="M13.8175 2.24217C13.8845 1.83342 14.2703 1.55641 14.679 1.62344C16.6026 1.93893 18.0696 3.60722 18.0696 5.61956L18.0696 5.62091C18.0659 7.66255 16.5525 9.34803 14.587 9.62426C14.1768 9.6819 13.7976 9.39612 13.7399 8.98593C13.6823 8.57575 13.9681 8.1965 14.3782 8.13885C15.6145 7.96511 16.567 6.90293 16.5696 5.61887C16.5693 4.35351 15.6464 3.30215 14.4362 3.10367C14.0275 3.03663 13.7505 2.65092 13.8175 2.24217Z"></path><path fill-rule="evenodd" clip-rule="evenodd" d="M15.8531 12.6217C15.9141 12.212 16.2957 11.9293 16.7054 11.9903C17.5216 12.1119 18.3063 12.3264 18.905 12.7192C19.5413 13.1368 19.9789 13.7705 19.9789 14.6272C19.9789 15.1957 19.7845 15.6902 19.4326 16.0879C19.0947 16.4698 18.6414 16.7299 18.1612 16.9123C17.774 17.0594 17.3409 16.8647 17.1938 16.4775C17.0467 16.0903 17.2414 15.6571 17.6286 15.51C17.9725 15.3794 18.1862 15.233 18.3092 15.0939C18.4184 14.9706 18.4789 14.8296 18.4789 14.6272C18.4789 14.3638 18.375 14.1655 18.0821 13.9733C17.7515 13.7564 17.2193 13.5834 16.4844 13.474C16.0747 13.413 15.7921 13.0314 15.8531 12.6217Z"></path></symbol><symbol id="info" width="16" height="16" viewBox="0 0 16 16" xmlns="http://www.w3.org/2000/svg"><path d="M8 0C3.58179 0 0 3.58179 0 8C0 12.4188 3.5821 16 8.00032 16C12.4188 16 16 12.4188 16 8C16 3.58179 12.4188 0 8 0ZM8.33836 3.16452C8.91912 3.16452 9.38973 3.63545 9.38973 4.21621C9.38973 4.79697 8.91912 5.26789 8.33836 5.26789C7.75759 5.26789 7.28667 4.79697 7.28667 4.21621C7.28667 3.63545 7.75759 3.16452 8.33836 3.16452ZM9.28115 12.4693C9.28115 12.4693 8.45262 13.164 7.40882 12.6401C7.17715 12.5243 6.98146 12.3232 6.85647 12.1019C6.50201 11.4751 6.63837 10.8025 6.63837 10.8025L6.74252 9.97775L7.01302 7.82703L6.27634 7.84313C5.93135 7.85102 5.64665 7.57737 5.63908 7.2327C5.63308 6.96504 5.79878 6.73274 6.03425 6.639L7.92204 5.89568C8.3715 5.71861 8.87903 5.93956 9.05579 6.38902C9.12333 6.55977 9.13312 6.73779 9.09461 6.90381L9.06968 7.01586L8.33141 10.2577L8.14708 11.0683C8.11994 11.1904 8.11584 11.2182 8.10795 11.2823C8.08806 11.6471 8.60696 11.3735 8.60696 11.3735C8.91849 11.2015 9.3105 11.3154 9.48158 11.6269C9.64286 11.9195 9.54944 12.2838 9.28115 12.4693Z"></path></symbol><symbol id="flash" width="8" height="10" viewBox="0 0 8 10" xmlns="http://www.w3.org/2000/svg"><path d="M0.851542 5.25862L3.99417 0.375745C4.00265 0.362564 4.01696 0.354643 4.03228 0.354643H7.11025C7.14959 0.354643 7.17059 0.402542 7.14465 0.433105L4.52491 3.51985C4.5002 3.54897 4.51799 3.59475 4.55532 3.59813L7.11165 3.82983C7.15067 3.83336 7.16764 3.88264 7.13954 3.91085L1.44417 9.62879C1.40758 9.66553 1.34905 9.6222 1.37094 9.57459L3.29022 5.39966C3.30465 5.36829 3.2825 5.33209 3.24889 5.33209H0.889649C0.853121 5.33209 0.831315 5.29005 0.851542 5.25862Z"></path><path fill-rule="evenodd" clip-rule="evenodd" d="M4.1917 0.709286L1.4447 4.97745H3.24889C3.53464 4.97745 3.72286 5.28514 3.60026 5.55182L2.38976 8.18498L6.43426 4.12444L4.52533 3.95142C4.20798 3.92266 4.05681 3.53351 4.26685 3.28603L6.45375 0.709286H4.1917ZM3.70836 0.179365C3.78047 0.0673258 3.90206 0 4.03228 0H7.11025C7.44465 0 7.6232 0.407139 7.40272 0.666931L5.16986 3.29783L7.14164 3.47654C7.47338 3.50661 7.61756 3.92542 7.37873 4.16519L1.68336 9.88314C1.37238 10.1954 0.874867 9.82712 1.06091 9.42243L2.77827 5.68673H0.889649C0.579163 5.68673 0.393807 5.32937 0.565736 5.06224L3.70836 0.179365Z"></path></symbol><symbol id="green-tick" width="18" height="18" viewBox="0 0 18 18" xmlns="http://www.w3.org/2000/svg"><path fill-rule="evenodd" clip-rule="evenodd" d="M9.00012 2.625C5.47978 2.625 2.62512 5.47966 2.62512 9C2.62512 12.5204 5.47907 15.375 9.00012 15.375C12.5205 15.375 15.3751 12.5203 15.3751 9C15.3751 5.47895 12.5205 2.625 9.00012 2.625ZM1.50012 9C1.50012 4.85834 4.85846 1.5 9.00012 1.5C13.1417 1.5 16.5001 4.85755 16.5001 9C16.5001 13.1417 13.1418 16.5 9.00012 16.5C4.85767 16.5 1.50012 13.1416 1.50012 9Z"></path><path fill-rule="evenodd" clip-rule="evenodd" d="M12.0676 6.82256C12.2872 7.04223 12.2872 7.39838 12.0676 7.61805L8.50805 11.1776C8.28841 11.3972 7.93232 11.3972 7.71264 11.1776L5.93214 9.39789C5.71242 9.17826 5.71235 8.82211 5.93197 8.60239C6.1516 8.38268 6.50775 8.3826 6.72747 8.60222L8.11022 9.98439L11.2721 6.82256C11.4917 6.60289 11.8479 6.60289 12.0676 6.82256Z"></path></symbol><symbol id="open-in-new-tab" width="14" height="14" viewBox="0 0 14 14" xmlns="http://www.w3.org/2000/svg"><path fill-rule="evenodd" clip-rule="evenodd" d="M9.89279 13.6663H4.1059C1.84925 13.6663 0.333008 12.0826 0.333008 9.72575V4.27359C0.333008 1.91672 1.84925 0.333008 4.1059 0.333008H6.55798C6.82949 0.333008 7.04984 0.55335 7.04984 0.824843C7.04984 1.09634 6.82949 1.31668 6.55798 1.31668H4.1059C2.41128 1.31668 1.31673 2.47741 1.31673 4.27359V9.72575C1.31673 11.5219 2.41128 12.6827 4.1059 12.6827H9.89279C11.5874 12.6827 12.6826 11.5219 12.6826 9.72575V7.08427C12.6826 6.81278 12.903 6.59243 13.1745 6.59243C13.446 6.59243 13.6663 6.81278 13.6663 7.08427V9.72575C13.6663 12.0826 12.1494 13.6663 9.89279 13.6663Z"></path><path fill-rule="evenodd" clip-rule="evenodd" d="M7.14584 6.85351C6.95095 6.65862 6.95095 6.34228 7.14584 6.14739L12.8141 0.479174C13.0089 0.284286 13.3253 0.284286 13.5202 0.479174C13.7151 0.674061 13.7151 0.990401 13.5202 1.18529L7.85196 6.85351C7.65707 7.0484 7.34073 7.0484 7.14584 6.85351Z"></path><path fill-rule="evenodd" clip-rule="evenodd" d="M9.82206 1.24928C9.72612 1.15335 9.66634 1.02025 9.66634 0.873591C9.66584 0.579769 9.90294 0.340693 10.1978 0.340191L13.1329 0.333662C13.4162 0.332657 13.6673 0.583787 13.6663 0.867062L13.6603 3.80227C13.6593 4.09659 13.4207 4.33416 13.1268 4.33366C12.8325 4.33265 12.5944 4.09458 12.5954 3.80026L12.5999 1.39996L10.1998 1.40498C10.0521 1.40599 9.91851 1.34572 9.82206 1.24928Z"></path></symbol><symbol id="questionmark" width="20" height="20" viewBox="0 0 20 20" xmlns="http://www.w3.org/2000/svg"><path fill-rule="evenodd" clip-rule="evenodd" d="M1.52609 1.6865C2.53358 0.605621 3.9688 0 5.66509 0H14.3341C16.0344 0 17.4702 0.605298 18.4772 1.68678C19.4786 2.76222 20.0001 4.2476 20.0001 5.916V14.084C20.0001 15.7524 19.4786 17.2378 18.4771 18.3133C17.4699 19.3948 16.0338 20 14.3331 20H5.66509C3.96479 20 2.52915 19.3947 1.52238 18.3131C0.521245 17.2377 9.15527e-05 15.7523 9.15527e-05 14.084V5.916C9.15527e-05 4.24677 0.524054 2.76152 1.52609 1.6865ZM2.62334 2.70925C1.92313 3.46048 1.50009 4.55823 1.50009 5.916V14.084C1.50009 15.4427 1.92144 16.5403 2.62031 17.2911C3.31353 18.0358 4.3354 18.5 5.66509 18.5H14.3331C15.6634 18.5 16.6858 18.0357 17.3794 17.291C18.0786 16.5402 18.5001 15.4426 18.5001 14.084V5.916C18.5001 4.5574 18.0786 3.45978 17.3794 2.70897C16.686 1.9642 15.6638 1.5 14.3341 1.5H5.66509C4.34038 1.5 3.31811 1.96388 2.62334 2.70925Z"></path><path d="M12.9329 7.95232C12.9329 9.55436 11.6706 10.71 11.0507 11.2776L11.0386 11.2887L10.8606 11.4481C10.7588 11.6291 10.7063 11.8336 10.7086 12.0413C10.7086 12.2379 10.6305 12.4265 10.4915 12.5655C10.3524 12.7046 10.1639 12.7827 9.96722 12.7827C9.77058 12.7827 9.582 12.7046 9.44295 12.5655C9.30391 12.4265 9.2258 12.2379 9.2258 12.0413C9.21866 11.4431 9.428 10.8624 9.81523 10.4064C9.87083 10.3471 9.94868 10.2767 10.0414 10.1914C10.501 9.77992 11.4501 8.91987 11.4501 7.96715C11.4632 7.76903 11.4338 7.57039 11.3639 7.38454C11.294 7.19869 11.1852 7.02992 11.0448 6.88952C10.9044 6.74912 10.7357 6.64034 10.5498 6.57046C10.364 6.50057 10.1653 6.4712 9.96722 6.48431C9.7691 6.4712 9.57046 6.50057 9.38461 6.57046C9.19876 6.64034 9.02999 6.74912 8.88959 6.88952C8.74919 7.02992 8.64041 7.19869 8.57053 7.38454C8.50064 7.57039 8.47127 7.76903 8.48438 7.96715C8.48438 8.16378 8.40626 8.35237 8.26722 8.49141C8.12818 8.63045 7.93959 8.70857 7.74296 8.70857C7.54632 8.70857 7.35774 8.63045 7.21869 8.49141C7.07965 8.35237 7.00154 8.16378 7.00154 7.96715C6.98864 7.57421 7.05653 7.1828 7.20101 6.81715C7.34549 6.45151 7.56347 6.11941 7.84147 5.8414C8.11948 5.5634 8.45158 5.34542 8.81722 5.20094C9.18287 5.05647 9.57427 4.98857 9.96722 5.00147C10.3589 4.98868 10.749 5.05614 11.1136 5.19972C11.4782 5.34329 11.8096 5.55994 12.0874 5.83633C12.3652 6.11273 12.5835 6.44303 12.7289 6.80692C12.8743 7.17081 12.9437 7.5606 12.9329 7.95232Z"></path><path d="M10.3787 13.639C10.3388 13.612 10.2966 13.5884 10.2527 13.5686C10.2069 13.5511 10.1598 13.5375 10.1118 13.5278C10.0031 13.5062 9.89091 13.5092 9.78353 13.5366C9.67614 13.5641 9.57627 13.6152 9.49127 13.6864C9.40626 13.7575 9.33829 13.8468 9.29235 13.9476C9.24641 14.0485 9.22367 14.1584 9.2258 14.2692C9.22031 14.3173 9.22031 14.3658 9.2258 14.4138C9.23546 14.4618 9.2491 14.5089 9.26657 14.5547C9.2864 14.5986 9.30996 14.6408 9.33701 14.6807C9.3634 14.7214 9.39316 14.7599 9.42598 14.7956C9.49823 14.8635 9.58336 14.9162 9.67632 14.9505C9.76929 14.9849 9.8682 15.0003 9.96722 14.9958C10.0153 15.0013 10.0638 15.0013 10.1118 14.9958C10.1602 14.9879 10.2075 14.9742 10.2527 14.955C10.2973 14.9367 10.3397 14.913 10.3787 14.8846C10.4629 14.8351 10.5331 14.7649 10.5826 14.6807C10.611 14.6417 10.6347 14.5993 10.653 14.5547C10.6722 14.5095 10.6859 14.4622 10.6938 14.4138C10.6993 14.3658 10.6993 14.3173 10.6938 14.2692C10.6944 14.1716 10.6757 14.0749 10.6388 13.9846C10.6019 13.8942 10.5475 13.8121 10.4788 13.7428C10.4484 13.7055 10.4149 13.6708 10.3787 13.639Z"></path></symbol><symbol id="info_filled" width="20" height="20" viewBox="0 0 20 20" xmlns="http://www.w3.org/2000/svg"><g><path d="M10 2C5.58179 2 2 5.58179 2 10C2 14.4188 5.5821 18 10.0003 18C14.4188 18 18 14.4188 18 10C18 5.58179 14.4188 2 10 2ZM10.3384 5.16452C10.9191 5.16452 11.3897 5.63545 11.3897 6.21621C11.3897 6.79697 10.9191 7.26789 10.3384 7.26789C9.75759 7.26789 9.28667 6.79697 9.28667 6.21621C9.28667 5.63545 9.75759 5.16452 10.3384 5.16452ZM11.2811 14.4693C11.2811 14.4693 10.4526 15.164 9.40882 14.6401C9.17715 14.5243 8.98146 14.3232 8.85647 14.1019C8.50201 13.4751 8.63837 12.8025 8.63837 12.8025L8.74252 11.9777L9.01302 9.82703L8.27634 9.84313C7.93135 9.85102 7.64665 9.57737 7.63908 9.2327C7.63308 8.96504 7.79878 8.73274 8.03425 8.639L9.92204 7.89568C10.3715 7.71861 10.879 7.93956 11.0558 8.38902C11.1233 8.55977 11.1331 8.73779 11.0946 8.90381L11.0697 9.01586L10.3314 12.2577L10.1471 13.0683C10.1199 13.1904 10.1158 13.2182 10.1079 13.2823C10.0881 13.6471 10.607 13.3735 10.607 13.3735C10.9185 13.2015 11.3105 13.3154 11.4816 13.6269C11.6429 13.9195 11.5494 14.2838 11.2811 14.4693Z"></path></g></symbol><symbol id="on" width="16" height="17" viewBox="0 0 16 17" xmlns="http://www.w3.org/2000/svg"><path d="M1.625 9C1.625 12.5152 4.48475 15.375 8 15.375C11.5153 15.375 14.375 12.5152 14.375 9C14.375 7.23947 13.6577 5.64337 12.5 4.48857C12.5 4.48857 12.1528 4.09716 12.5 3.74998C12.875 3.37497 13.2899 3.68834 13.2899 3.68834C14.6544 5.04725 15.5 6.92674 15.5 9C15.5 13.1355 12.1355 16.5 8 16.5C3.8645 16.5 0.5 13.1355 0.5 9C0.5 6.929 1.34377 5.05136 2.70559 3.6928C2.70559 3.6928 3.12503 3.37497 3.5 3.74998C3.78677 4.03678 3.5 4.48857 3.5 4.48857C2.3423 5.64337 1.625 7.23947 1.625 9Z"></path><path fill-rule="evenodd" clip-rule="evenodd" d="M8 0.9375C8.31066 0.9375 8.5625 1.18934 8.5625 1.5V9C8.5625 9.31066 8.31066 9.5625 8 9.5625C7.68934 9.5625 7.4375 9.31066 7.4375 9V1.5C7.4375 1.18934 7.68934 0.9375 8 0.9375Z"></path></symbol><symbol id="check-done" width="18" height="18" viewBox="0 0 18 18" xmlns="http://www.w3.org/2000/svg"><path fill-rule="evenodd" clip-rule="evenodd" d="M8.99935 1.91699C5.08786 1.91699 1.91602 5.08884 1.91602 9.00033C1.91602 12.9119 5.08707 16.0837 8.99935 16.0837C12.9108 16.0837 16.0827 12.9118 16.0827 9.00033C16.0827 5.08805 12.9109 1.91699 8.99935 1.91699ZM0.666016 9.00033C0.666016 4.39848 4.3975 0.666992 8.99935 0.666992C13.6011 0.666992 17.3327 4.3976 17.3327 9.00033C17.3327 13.6022 13.6012 17.3337 8.99935 17.3337C4.39663 17.3337 0.666016 13.6021 0.666016 9.00033Z"></path><path fill-rule="evenodd" clip-rule="evenodd" d="M12.4076 6.58095C12.6517 6.82502 12.6517 7.22075 12.4076 7.46483L8.4526 11.4198C8.20856 11.6639 7.81291 11.6639 7.56881 11.4199L5.59048 9.44242C5.34635 9.1984 5.34627 8.80267 5.59029 8.55854C5.83432 8.31441 6.23005 8.31433 6.47418 8.55835L8.01057 10.0941L11.5237 6.58095C11.7678 6.33687 12.1635 6.33687 12.4076 6.58095Z"></path></symbol><symbol id="search" width="18" height="18" viewBox="0 0 18 18" xmlns="http://www.w3.org/2000/svg"><path fill-rule="evenodd" clip-rule="evenodd" d="M8.78185 1.91602C4.99602 1.91602 1.91602 4.99518 1.91602 8.78102C1.91602 12.5668 4.99602 15.6468 8.78185 15.6468C12.5668 15.6468 15.6468 12.5668 15.6468 8.78102C15.6468 4.99518 12.5668 1.91602 8.78185 1.91602ZM8.78185 16.8968C4.30685 16.8968 0.666016 13.256 0.666016 8.78102C0.666016 4.30602 4.30685 0.666016 8.78185 0.666016C13.2568 0.666016 16.8968 4.30602 16.8968 8.78102C16.8968 13.256 13.2568 16.8968 8.78185 16.8968Z"></path><path fill-rule="evenodd" clip-rule="evenodd" d="M16.9281 17.9341C16.7689 17.9341 16.6089 17.8733 16.4864 17.7516L13.5498 14.8233C13.3056 14.5791 13.3048 14.1833 13.5489 13.9391C13.7923 13.6933 14.1881 13.695 14.4331 13.9374L17.3698 16.8666C17.6139 17.1108 17.6148 17.5058 17.3706 17.75C17.2489 17.8733 17.0881 17.9341 16.9281 17.9341Z"></path></symbol><symbol id="synced" width="24" height="24" viewBox="0 0 24 24" xmlns="http://www.w3.org/2000/svg"><g><g><path d="M12.3639 4C15.899 4 18.8505 6.64801 19.5484 10.1744L20.6379 7.97149L20.7005 7.86634C20.9092 7.57229 21.2944 7.47372 21.6125 7.65084C21.9659 7.84764 22.1025 8.31028 21.9176 8.68418L19.2338 14.1114L14.9468 10.2106L14.8558 10.1115C14.6397 9.82959 14.6375 9.41629 14.8681 9.13163L14.9613 9.03545C15.2269 8.80721 15.617 8.80586 15.8863 9.05087L18.2346 11.1875C17.9534 8.01384 15.4323 5.5303 12.3639 5.5303C10.9241 5.5303 9.60473 6.07718 8.58081 6.98563C8.3051 7.23025 7.99411 7.55556 7.56969 7.11111C7.14526 6.66667 7.37957 6.06188 7.56965 5.88801C8.85587 4.7115 10.5315 4 12.3639 4Z"></path><path d="M11.6361 20C8.10095 20 5.14948 17.352 4.45162 13.8257L3.36214 16.0285L3.29946 16.1337C3.09081 16.4277 2.70555 16.5263 2.38751 16.3492C2.03413 16.1524 1.89754 15.6897 2.08243 15.3158L4.76621 9.88858L9.05319 13.7894L9.14422 13.8885C9.36031 14.1704 9.36254 14.5837 9.13194 14.8684L9.03867 14.9646C8.7731 15.1928 8.38298 15.1941 8.11372 14.9491L5.76543 12.8125C6.04665 15.9862 8.56766 18.4697 11.6361 18.4697C13.0759 18.4697 14.3953 17.9228 15.4192 17.0144C15.6949 16.7697 16.0059 16.4444 16.4303 16.8889C16.8547 17.3333 16.6204 17.9381 16.4303 18.112C15.1441 19.2885 13.4685 20 11.6361 20Z"></path></g></g></symbol><symbol id="threepeople" width="22" height="18" viewBox="0 0 22 18" xmlns="http://www.w3.org/2000/svg"><path fill-rule="evenodd" clip-rule="evenodd" d="M16.2137 2.09835C16.2808 1.6896 16.6665 1.41262 17.0753 1.4797C18.7966 1.76217 20.1098 3.25426 20.1098 5.0558L20.1098 5.05735C20.106 6.88507 18.7514 8.39232 16.9922 8.63951C16.582 8.69714 16.2027 8.41134 16.1451 8.00115C16.0875 7.59097 16.3733 7.21173 16.7834 7.1541C17.8139 7.00931 18.6072 6.12494 18.6098 5.055C18.6094 4.0009 17.8408 3.12538 16.8323 2.9599C16.4236 2.89282 16.1466 2.50709 16.2137 2.09835Z"></path><path fill-rule="evenodd" clip-rule="evenodd" d="M17.9868 11.1395C18.0481 10.7298 18.4298 10.4474 18.8395 10.5086C19.5554 10.6157 20.255 10.8051 20.7935 11.1584C21.3698 11.5363 21.7726 12.1161 21.7726 12.9004C21.7726 13.419 21.5946 13.8724 21.2728 14.2365C20.9649 14.5849 20.5549 14.8192 20.128 14.9821C19.741 15.1298 19.3076 14.9358 19.1599 14.5488C19.0122 14.1618 19.2062 13.7284 19.5932 13.5807C19.8843 13.4696 20.0553 13.3489 20.1489 13.2431C20.2286 13.1529 20.2726 13.0528 20.2726 12.9004C20.2726 12.7097 20.2039 12.5655 19.9709 12.4127C19.7002 12.2352 19.2528 12.0871 18.6177 11.9922C18.208 11.9309 17.9256 11.5492 17.9868 11.1395Z"></path><path fill-rule="evenodd" clip-rule="evenodd" d="M6.46358 11.4394C7.67234 11.0341 9.26379 10.9139 10.8868 10.9139C12.5194 10.9139 14.1114 11.0382 15.3188 11.4485C15.9264 11.6551 16.4913 11.9519 16.9108 12.3915C17.3476 12.8492 17.5948 13.43 17.5948 14.1129C17.5948 14.7974 17.3453 15.378 16.9057 15.8339C16.484 16.2712 15.9169 16.5646 15.3089 16.7679C14.1005 17.172 12.5093 17.2909 10.8868 17.2909C9.25437 17.2909 7.66222 17.1671 6.4548 16.7577C5.84719 16.5516 5.28212 16.2554 4.8624 15.8163C4.42529 15.3591 4.1778 14.7786 4.1778 14.0959C4.1778 13.4115 4.42744 12.8309 4.86686 12.3749C5.28849 11.9374 5.85542 11.6434 6.46358 11.4394ZM5.94699 13.4158C5.77128 13.5981 5.6778 13.8078 5.6778 14.0959C5.6778 14.3852 5.77131 14.5964 5.94667 14.7798C6.13942 14.9814 6.45828 15.1749 6.93655 15.3371C7.90088 15.6642 9.28823 15.7909 10.8868 15.7909C12.4783 15.7909 13.8661 15.6688 14.8332 15.3454C15.3129 15.1849 15.6328 14.993 15.826 14.7926C16.0013 14.6108 16.0948 14.4014 16.0948 14.1129C16.0948 13.8228 16.0011 13.6109 15.8256 13.4271C15.6329 13.225 15.3141 13.0312 14.8361 12.8688C13.8722 12.5411 12.4852 12.4139 10.8868 12.4139C9.2958 12.4139 7.90776 12.5372 6.94052 12.8616C6.46068 13.0225 6.14049 13.215 5.94699 13.4158Z"></path><path fill-rule="evenodd" clip-rule="evenodd" d="M6.3178 5.06757C6.31857 2.54501 8.36406 0.5 10.8868 0.5C13.41 0.5 15.4558 2.54579 15.4558 5.069C15.4558 7.59334 13.4099 9.638 10.8868 9.638H10.8588L10.8563 9.638C8.34021 9.62962 6.309 7.58305 6.3178 5.06757ZM6.3178 5.06757C6.3178 5.0671 6.3178 5.06662 6.31781 5.06615L7.0678 5.069H6.3178C6.3178 5.06852 6.3178 5.06805 6.3178 5.06757ZM10.8868 2C9.19201 2 7.8178 3.37421 7.8178 5.069V5.07185C7.81138 6.75932 9.17321 8.13172 10.8601 8.138H10.8868C12.5817 8.138 13.9558 6.76466 13.9558 5.069C13.9558 3.37421 12.5816 2 10.8868 2Z"></path><path fill-rule="evenodd" clip-rule="evenodd" d="M5.559 2.09835C5.62608 2.50709 5.3491 2.89282 4.94035 2.9599C3.93194 3.12538 3.16328 4.00091 3.1629 5.05502C3.1655 6.12518 3.958 7.00931 4.98918 7.15408C5.39937 7.21168 5.68521 7.59089 5.62762 8.00108C5.57002 8.41127 5.19081 8.69711 4.78062 8.63951C3.02005 8.39233 1.66669 6.88485 1.6629 5.05735L1.6629 5.0558C1.6629 3.25426 2.97611 1.76217 4.69745 1.4797C5.10619 1.41262 5.49192 1.6896 5.559 2.09835Z"></path><path fill-rule="evenodd" clip-rule="evenodd" d="M3.78575 11.1395C3.84701 11.5492 3.56457 11.9309 3.15491 11.9922C2.51977 12.0871 2.07237 12.2352 1.80169 12.4127C1.56875 12.5655 1.5 12.7097 1.5 12.9004C1.5 13.0528 1.54401 13.1529 1.6237 13.2431C1.71728 13.3489 1.88833 13.4696 2.1794 13.5807C2.56639 13.7284 2.76039 14.1618 2.61271 14.5488C2.46503 14.9358 2.03159 15.1298 1.6446 14.9821C1.21767 14.8192 0.807722 14.5849 0.499796 14.2365C0.177985 13.8724 0 13.419 0 12.9004C0 12.1161 0.402753 11.5363 0.979056 11.1584C1.51763 10.8051 2.21723 10.6157 2.93309 10.5086C3.34275 10.4474 3.7245 10.7298 3.78575 11.1395Z"></path></symbol><symbol id="red-error" width="18" height="18" viewBox="0 0 18 18" xmlns="http://www.w3.org/2000/svg"><g><g><path fill-rule="evenodd" clip-rule="evenodd" d="M9.00012 2.625C5.47903 2.625 2.62512 5.47891 2.62512 9C2.62512 12.5204 5.47907 15.375 9.00012 15.375C12.5205 15.375 15.3751 12.5203 15.3751 9C15.3751 5.47895 12.5205 2.625 9.00012 2.625ZM1.50012 9C1.50012 4.85759 4.85771 1.5 9.00012 1.5C13.1417 1.5 16.5001 4.85755 16.5001 9C16.5001 13.1417 13.1418 16.5 9.00012 16.5C4.85767 16.5 1.50012 13.1416 1.50012 9Z"></path><path fill-rule="evenodd" clip-rule="evenodd" d="M8.99645 5.59057C9.30711 5.59057 9.55895 5.84241 9.55895 6.15307V9.46733C9.55895 9.77799 9.30711 10.0298 8.99645 10.0298C8.68579 10.0298 8.43395 9.77799 8.43395 9.46733V6.15307C8.43395 5.84241 8.68579 5.59057 8.99645 5.59057Z"></path><path fill-rule="evenodd" clip-rule="evenodd" d="M8.2463 11.847C8.2463 11.4328 8.58208 11.097 8.9963 11.097H9.0038C9.41801 11.097 9.7538 11.4328 9.7538 11.847C9.7538 12.2612 9.41801 12.597 9.0038 12.597H8.9963C8.58208 12.597 8.2463 12.2612 8.2463 11.847Z"></path></g></g></symbol><symbol id="pinktick" width="24" height="25" viewBox="0 0 24 25" xmlns="http://www.w3.org/2000/svg"><g clip-path="url(#clip0_5458_163629)"><path d="M23.5858 12.7065C23.5858 10.4853 22.9494 8.41272 21.8489 6.6612M17.5405 2.6522C15.9495 1.80638 14.134 1.32715 12.2065 1.32715C5.92184 1.32715 0.827148 6.42184 0.827148 12.7065C0.827148 18.9911 5.92184 24.0858 12.2065 24.0858C17.5088 24.0858 21.964 20.4593 23.2273 15.5513" stroke-linecap="round"></path><ellipse cx="12.2474" cy="12.7474" rx="10.5931" ry="10.5931"></ellipse><path d="M12.4134 22.712C12.4134 23.1508 12.0572 23.5096 11.6196 23.4767C9.66406 23.3298 7.78189 22.6422 6.18694 21.4834C4.59199 20.3246 3.35642 18.747 2.61238 16.9326C2.44591 16.5266 2.67707 16.0769 3.09437 15.9414C3.51168 15.8058 3.95665 16.0359 4.12848 16.4397C4.76522 17.9357 5.79753 19.2364 7.12091 20.1979C8.4443 21.1594 10.0003 21.7393 11.6199 21.8825C12.057 21.9212 12.4134 22.2733 12.4134 22.712Z"></path><path d="M13.5551 3.18181C13.6062 2.74602 14.0018 2.43115 14.4325 2.51477C15.743 2.76918 16.9961 3.26952 18.1245 3.99177C19.2528 4.71402 20.2319 5.64241 21.0117 6.72595C21.268 7.08209 21.1477 7.57316 20.7734 7.80206C20.399 8.03096 19.9128 7.91057 19.6518 7.55785C19.0008 6.67806 18.1934 5.92248 17.2679 5.33006C16.3423 4.73765 15.3181 4.32088 14.2465 4.0981C13.8169 4.00879 13.504 3.61761 13.5551 3.18181Z"></path><line x1="6.49429" y1="13.04" x2="10.1371" y2="16.6829" stroke-width="2" stroke-linecap="round"></line><line x1="10.1387" y1="16.6815" x2="17.5743" y2="9.24589" stroke-width="2" stroke-linecap="round"></line></g><defs><linearGradient x1="1.6543" y1="12.7474" x2="22.8405" y2="12.7474" gradientUnits="userSpaceOnUse"><stop stop-color="#FF758C"></stop><stop offset="1" stop-color="#FF7EB3"></stop></linearGradient><linearGradient x1="9.5961" y1="0.690604" x2="18.3334" y2="28.2006" gradientUnits="userSpaceOnUse"><stop stop-color="#FF3366"></stop><stop offset="1" stop-color="#FE5196"></stop></linearGradient><clipPath><rect width="24" height="24" transform="translate(0 0.5)"></rect></clipPath></defs></symbol><symbol id="tick" width="20" height="14" viewBox="0 0 20 14" xmlns="http://www.w3.org/2000/svg"><path fill-rule="evenodd" clip-rule="evenodd" d="M19.7166 0.299844C20.0945 0.699637 20.0945 1.34783 19.7166 1.74762L7.40099 13.7002C7.02312 14.0999 6.41049 14.1 6.03254 13.7003L0.283589 8.11677C-0.0944171 7.71706 -0.0945462 7.06887 0.283301 6.66899C0.661148 6.26912 1.27389 6.26898 1.65189 6.66869L6.71655 11.5286L18.348 0.299844C18.7259 -0.0999481 19.3386 -0.0999482 19.7166 0.299844Z"></path></symbol><symbol id="configuration" width="20" height="20" viewBox="0 0 20 20" xmlns="http://www.w3.org/2000/svg"><path fill-rule="evenodd" clip-rule="evenodd" d="M5.39508 14.9032C5.63257 14.9032 5.87006 14.9312 6.10237 14.9891C6.80343 15.1648 7.4122 15.6011 7.7731 16.187C8.00748 16.5547 8.13711 16.9842 8.14126 17.4224C8.14126 18.0498 8.68262 18.5527 9.34842 18.5527H10.6479C11.3106 18.5527 11.8519 18.0527 11.855 17.4359C11.8509 16.7545 12.1371 16.1069 12.6608 15.6194C13.1773 15.1388 13.8991 14.8502 14.6209 14.8695C15.0938 14.8801 15.5491 14.9988 15.9505 15.2111C16.5281 15.519 17.2655 15.3357 17.5994 14.8048L18.288 13.7363C18.4415 13.4902 18.4861 13.1813 18.4042 12.8966C18.3233 12.6118 18.12 12.3648 17.8462 12.219C17.2053 11.8754 16.748 11.3214 16.5582 10.6573C16.3705 10.0058 16.4731 9.29444 16.8392 8.70856C17.0778 8.32248 17.4272 7.99721 17.8462 7.77328C18.4083 7.46731 18.6054 6.78298 18.2787 6.25019C18.2652 6.22895 18.2528 6.20675 18.2424 6.18359L17.6347 5.20294C17.3038 4.66725 16.5675 4.4829 15.9899 4.78887C15.3655 5.13248 14.623 5.23093 13.9095 5.05623C13.197 4.88442 12.5997 4.46456 12.2273 3.87192C11.9888 3.50128 11.8592 3.06984 11.855 2.63067C11.8644 2.30057 11.7399 2.00425 11.5138 1.78708C11.2888 1.57088 10.9725 1.44829 10.6479 1.44829H9.34842C9.02693 1.44829 8.72618 1.56508 8.49906 1.7755C8.27297 1.98688 8.14956 2.26775 8.15163 2.56697C8.12986 3.9781 6.89055 5.11414 5.3899 5.11414C4.90869 5.10932 4.44512 4.98866 4.04274 4.76474C3.47753 4.46552 2.73913 4.64988 2.4083 5.18557L1.7062 6.25984C1.38471 6.77912 1.58175 7.46538 2.15422 7.77521C3.00358 8.23272 3.53353 9.08596 3.53353 10.001C3.53353 10.916 3.00358 11.7683 2.15214 12.2267C1.58279 12.5337 1.38574 13.2161 1.71553 13.7469L2.36993 14.7971C2.53171 15.0683 2.79617 15.2642 3.10211 15.3443C3.40701 15.4235 3.74302 15.3897 4.02303 15.2449C4.43475 15.02 4.91388 14.9032 5.39508 14.9032ZM10.6479 20.0005H9.34842C7.82495 20.0005 6.58565 18.848 6.58565 17.4301C6.58357 17.2554 6.52965 17.074 6.42905 16.9167C6.26623 16.6522 6.00281 16.463 5.69895 16.3877C5.39716 16.3124 5.06633 16.3539 4.79462 16.5007C4.14333 16.8385 3.37693 16.9205 2.67587 16.7371C1.97584 16.5528 1.37123 16.1049 1.01654 15.5113L0.368372 14.4718C-0.389731 13.2479 0.0613971 11.6795 1.37434 10.9729C1.74665 10.7731 1.97792 10.4006 1.97792 10.001C1.97792 9.60138 1.74665 9.22784 1.37434 9.02804C0.0603601 8.31765 -0.389731 6.74534 0.367335 5.52146L1.07047 4.44718C1.81821 3.23682 3.50864 2.8102 4.82677 3.5148C5.00618 3.61421 5.20115 3.6644 5.39923 3.66633C6.04533 3.66633 6.58565 3.17022 6.59602 2.56021C6.59187 1.88746 6.87707 1.24174 7.39664 0.754313C7.91829 0.26785 8.61106 0.000488281 9.34842 0.000488281H10.6479C11.3904 0.000488281 12.1122 0.284258 12.6297 0.777478C13.1462 1.27359 13.4314 1.95406 13.4096 2.64418C13.4117 2.79958 13.4667 2.97911 13.5662 3.13644C13.7311 3.39704 13.9914 3.58043 14.3005 3.65572C14.6095 3.72714 14.9331 3.68853 15.2079 3.537C16.5354 2.83143 18.2248 3.25419 18.9829 4.48L19.629 5.52146C19.6456 5.54945 19.6601 5.57647 19.6725 5.60447C20.3591 6.81194 19.9007 8.33213 18.6251 9.02611C18.4394 9.12553 18.2891 9.26452 18.1854 9.43247C18.0246 9.69211 17.98 10.001 18.0609 10.2847C18.1439 10.5743 18.342 10.8146 18.6209 10.9633C19.2504 11.3001 19.7202 11.8677 19.9079 12.523C20.0956 13.1775 19.993 13.8878 19.6269 14.4737L18.9383 15.5412C18.1802 16.7535 16.4908 17.1734 15.1768 16.4669C15.0015 16.3732 14.7993 16.3221 14.5981 16.3173H14.5919C14.2922 16.3173 13.9842 16.436 13.7601 16.6435C13.533 16.8549 13.4086 17.1367 13.4107 17.4359C13.4034 18.8538 12.1641 20.0005 10.6479 20.0005Z"></path><path fill-rule="evenodd" clip-rule="evenodd" d="M10.0027 8.17974C8.92416 8.17974 8.04679 8.99727 8.04679 10.0011C8.04679 11.0049 8.92416 11.8205 10.0027 11.8205C11.0813 11.8205 11.9586 11.0049 11.9586 10.0011C11.9586 8.99727 11.0813 8.17974 10.0027 8.17974ZM10.0027 13.2683C8.06649 13.2683 6.49117 11.8031 6.49117 10.0011C6.49117 8.19904 8.06649 6.73193 10.0027 6.73193C11.9389 6.73193 13.5143 8.19904 13.5143 10.0011C13.5143 11.8031 11.9389 13.2683 10.0027 13.2683Z"></path></symbol><symbol id="connector" width="25" height="25" viewBox="0 0 25 25" xmlns="http://www.w3.org/2000/svg"><g><path fill-rule="evenodd" clip-rule="evenodd" d="M7.5 6.15768C7.5 4.03351 9.2673 2.31152 11.4474 2.31152L13.5526 2.31152C15.7327 2.31152 17.5 4.03351 17.5 6.15768V11.2859C17.5 13.4101 15.7327 15.132 13.5526 15.132H12.5C12.064 15.132 11.7105 14.7876 11.7105 14.3628C11.7105 13.938 12.064 13.5936 12.5 13.5936H13.5526C14.8607 13.5936 15.9211 12.5604 15.9211 11.2859V6.15768C15.9211 4.88317 14.8607 3.84999 13.5526 3.84999L11.4474 3.84999C10.1393 3.84999 9.07895 4.88317 9.07895 6.15768V8.20896C9.07895 8.63379 8.72549 8.97819 8.28947 8.97819C7.85346 8.97819 7.5 8.63379 7.5 8.20896V6.15768ZM7.5 13.3372C7.5 11.213 9.2673 9.49101 11.4474 9.49101H12.5C12.936 9.49101 13.2895 9.83541 13.2895 10.2602C13.2895 10.6851 12.936 11.0295 12.5 11.0295H11.4474C10.1393 11.0295 9.07895 12.0627 9.07895 13.3372V18.4654C9.07895 19.7399 10.1393 20.7731 11.4474 20.7731H13.5526C14.8607 20.7731 15.9211 19.7399 15.9211 18.4654L15.9211 16.4141C15.9211 15.9893 16.2745 15.6449 16.7105 15.6449C17.1465 15.6449 17.5 15.9893 17.5 16.4141V18.4654C17.5 20.5895 15.7327 22.3115 13.5526 22.3115H11.4474C9.2673 22.3115 7.5 20.5895 7.5 18.4654V13.3372Z"></path></g></symbol><symbol id="twopeople" width="24" height="24" viewBox="0 0 24 24" xmlns="http://www.w3.org/2000/svg"><g><g><path fill-rule="evenodd" clip-rule="evenodd" d="M3.83978 17.1547C3.61893 17.3861 3.5 17.6567 3.5 18.0188C3.5 18.3791 3.61892 18.647 3.83994 18.8761C4.07884 19.1238 4.4646 19.3518 5.0251 19.5392C6.1537 19.9166 7.76258 20.0568 9.592 20.0568C11.4301 20.0568 13.0382 19.9115 14.1633 19.5299C14.722 19.3404 15.1063 19.1106 15.3444 18.8614C15.5652 18.6304 15.684 18.3604 15.684 17.9988C15.684 17.6388 15.5651 17.3706 15.3437 17.141C15.1046 16.8929 14.7185 16.6644 14.158 16.4765C13.0293 16.0981 11.4205 15.9568 9.592 15.9568C7.75361 15.9568 6.14567 16.1027 5.02075 16.4851C4.46223 16.675 4.07793 16.9052 3.83978 17.1547ZM4.538 15.0649C5.90633 14.5998 7.71939 14.4568 9.592 14.4568C11.4525 14.4568 13.2647 14.5949 14.6348 15.0543C15.3236 15.2852 15.9564 15.6152 16.4237 16.0999C16.9088 16.6032 17.184 17.2423 17.184 17.9988C17.184 18.7536 16.9113 19.3929 16.4289 19.8977C15.9638 20.3844 15.3332 20.717 14.6452 20.9504C13.2768 21.4145 11.4639 21.5568 9.592 21.5568C7.73142 21.5568 5.9193 21.4199 4.5494 20.9618C3.86065 20.7315 3.22779 20.4021 2.76037 19.9176C2.27508 19.4145 2 18.7754 2 18.0188C2 17.2639 2.27245 16.6244 2.75462 16.1191C3.21951 15.632 3.8499 15.2988 4.538 15.0649Z"></path><path fill-rule="evenodd" clip-rule="evenodd" d="M9.592 3.99976C7.58399 3.99976 5.956 5.62719 5.956 7.63476C5.956 9.64232 7.58399 11.2698 9.592 11.2698H9.62143C11.62 11.2616 13.2345 9.63558 13.227 7.63755L13.227 7.63476C13.227 5.62708 11.5989 3.99976 9.592 3.99976ZM4.456 7.63476C4.456 4.79832 6.75601 2.49976 9.592 2.49976C12.4266 2.49976 14.7262 4.7976 14.727 7.63322C14.7369 10.4602 12.4522 12.7592 9.6258 12.7698L9.623 12.7698H9.592C6.75601 12.7698 4.456 10.4712 4.456 7.63476Z"></path><path fill-rule="evenodd" clip-rule="evenodd" d="M15.8185 4.24217C15.8855 3.83342 16.2712 3.55641 16.68 3.62344C18.6036 3.93893 20.0706 5.60722 20.0706 7.61956L20.0706 7.62091C20.0669 9.66255 18.5535 11.348 16.588 11.6243C16.1778 11.6819 15.7985 11.3961 15.7409 10.9859C15.6833 10.5758 15.969 10.1965 16.3792 10.1389C17.6155 9.96511 18.568 8.90293 18.5706 7.61887C18.5703 6.35351 17.6474 5.30215 16.4372 5.10367C16.0285 5.03663 15.7514 4.65092 15.8185 4.24217Z"></path><path fill-rule="evenodd" clip-rule="evenodd" d="M17.8541 14.6217C17.9151 14.212 18.2967 13.9293 18.7064 13.9903C19.5225 14.1119 20.3073 14.3264 20.906 14.7192C21.5423 15.1368 21.9799 15.7705 21.9799 16.6272C21.9799 17.1957 21.7854 17.6902 21.4336 18.0879C21.0956 18.4698 20.6424 18.7299 20.1622 18.9123C19.775 19.0594 19.3419 18.8647 19.1948 18.4775C19.0477 18.0903 19.2424 17.6571 19.6296 17.51C19.9734 17.3794 20.1872 17.233 20.3102 17.0939C20.4193 16.9706 20.4799 16.8296 20.4799 16.6272C20.4799 16.3638 20.376 16.1655 20.0831 15.9733C19.7525 15.7564 19.2203 15.5834 18.4854 15.474C18.0757 15.413 17.7931 15.0314 17.8541 14.6217Z"></path></g></g></symbol><symbol id="advanced-setting" width="20" height="20" viewBox="0 0 20 20" xmlns="http://www.w3.org/2000/svg"><path fill-rule="evenodd" clip-rule="evenodd" d="M5.39508 14.9032C5.63257 14.9032 5.87006 14.9312 6.10237 14.9891C6.80343 15.1648 7.4122 15.6011 7.7731 16.187C8.00748 16.5547 8.13711 16.9842 8.14126 17.4224C8.14126 18.0498 8.68262 18.5527 9.34842 18.5527H10.6479C11.3106 18.5527 11.8519 18.0527 11.855 17.4359C11.8509 16.7545 12.1371 16.1069 12.6608 15.6194C13.1773 15.1388 13.8991 14.8502 14.6209 14.8695C15.0938 14.8801 15.5491 14.9988 15.9505 15.2111C16.5281 15.519 17.2655 15.3357 17.5994 14.8048L18.288 13.7363C18.4415 13.4902 18.4861 13.1813 18.4042 12.8966C18.3233 12.6118 18.12 12.3648 17.8462 12.219C17.2053 11.8754 16.748 11.3214 16.5582 10.6573C16.3705 10.0058 16.4731 9.29444 16.8392 8.70856C17.0778 8.32248 17.4272 7.99721 17.8462 7.77328C18.4083 7.46731 18.6054 6.78298 18.2787 6.25019C18.2652 6.22895 18.2528 6.20675 18.2424 6.18359L17.6347 5.20294C17.3038 4.66725 16.5675 4.4829 15.9899 4.78887C15.3655 5.13248 14.623 5.23093 13.9095 5.05623C13.197 4.88442 12.5997 4.46456 12.2273 3.87192C11.9888 3.50128 11.8592 3.06984 11.855 2.63067C11.8644 2.30057 11.7399 2.00425 11.5138 1.78708C11.2888 1.57088 10.9725 1.44829 10.6479 1.44829H9.34842C9.02693 1.44829 8.72618 1.56508 8.49906 1.7755C8.27297 1.98688 8.14956 2.26775 8.15163 2.56697C8.12986 3.9781 6.89055 5.11414 5.3899 5.11414C4.90869 5.10932 4.44512 4.98866 4.04274 4.76474C3.47753 4.46552 2.73913 4.64988 2.4083 5.18557L1.7062 6.25984C1.38471 6.77912 1.58175 7.46538 2.15422 7.77521C3.00358 8.23272 3.53353 9.08596 3.53353 10.001C3.53353 10.916 3.00358 11.7683 2.15214 12.2267C1.58279 12.5337 1.38574 13.2161 1.71553 13.7469L2.36993 14.7971C2.53171 15.0683 2.79617 15.2642 3.10211 15.3443C3.40701 15.4235 3.74302 15.3897 4.02303 15.2449C4.43475 15.02 4.91388 14.9032 5.39508 14.9032ZM10.6479 20.0005H9.34842C7.82495 20.0005 6.58565 18.848 6.58565 17.4301C6.58357 17.2554 6.52965 17.074 6.42905 16.9167C6.26623 16.6522 6.00281 16.463 5.69895 16.3877C5.39716 16.3124 5.06633 16.3539 4.79462 16.5007C4.14333 16.8385 3.37693 16.9205 2.67587 16.7371C1.97584 16.5528 1.37123 16.1049 1.01654 15.5113L0.368372 14.4718C-0.389731 13.2479 0.0613971 11.6795 1.37434 10.9729C1.74665 10.7731 1.97792 10.4006 1.97792 10.001C1.97792 9.60138 1.74665 9.22784 1.37434 9.02804C0.0603601 8.31765 -0.389731 6.74534 0.367335 5.52146L1.07047 4.44718C1.81821 3.23682 3.50864 2.8102 4.82677 3.5148C5.00618 3.61421 5.20115 3.6644 5.39923 3.66633C6.04533 3.66633 6.58565 3.17022 6.59602 2.56021C6.59187 1.88746 6.87707 1.24174 7.39664 0.754313C7.91829 0.26785 8.61106 0.000488281 9.34842 0.000488281H10.6479C11.3904 0.000488281 12.1122 0.284258 12.6297 0.777478C13.1462 1.27359 13.4314 1.95406 13.4096 2.64418C13.4117 2.79958 13.4667 2.97911 13.5662 3.13644C13.7311 3.39704 13.9914 3.58043 14.3005 3.65572C14.6095 3.72714 14.9331 3.68853 15.2079 3.537C16.5354 2.83143 18.2248 3.25419 18.9829 4.48L19.629 5.52146C19.6456 5.54945 19.6601 5.57647 19.6725 5.60447C20.3591 6.81194 19.9007 8.33213 18.6251 9.02611C18.4394 9.12553 18.2891 9.26452 18.1854 9.43247C18.0246 9.69211 17.98 10.001 18.0609 10.2847C18.1439 10.5743 18.342 10.8146 18.6209 10.9633C19.2504 11.3001 19.7202 11.8677 19.9079 12.523C20.0956 13.1775 19.993 13.8878 19.6269 14.4737L18.9383 15.5412C18.1802 16.7535 16.4908 17.1734 15.1768 16.4669C15.0015 16.3732 14.7993 16.3221 14.5981 16.3173H14.5919C14.2922 16.3173 13.9842 16.436 13.7601 16.6435C13.533 16.8549 13.4086 17.1367 13.4107 17.4359C13.4034 18.8538 12.1641 20.0005 10.6479 20.0005Z"></path><path fill-rule="evenodd" clip-rule="evenodd" d="M10.0027 8.17974C8.92416 8.17974 8.04679 8.99727 8.04679 10.0011C8.04679 11.0049 8.92416 11.8205 10.0027 11.8205C11.0813 11.8205 11.9586 11.0049 11.9586 10.0011C11.9586 8.99727 11.0813 8.17974 10.0027 8.17974ZM10.0027 13.2683C8.06649 13.2683 6.49117 11.8031 6.49117 10.0011C6.49117 8.19904 8.06649 6.73193 10.0027 6.73193C11.9389 6.73193 13.5143 8.19904 13.5143 10.0011C13.5143 11.8031 11.9389 13.2683 10.0027 13.2683Z"></path></symbol><symbol id="connector-inactive" width="24" height="24" viewBox="0 0 24 24" xmlns="http://www.w3.org/2000/svg"><path fill-rule="evenodd" clip-rule="evenodd" d="M7 5.84615C7 3.72198 8.7673 2 10.9474 2L13.0526 2C15.2327 2 17 3.72198 17 5.84615V10.9744C17 13.0985 15.2327 14.8205 13.0526 14.8205H12C11.564 14.8205 11.2105 14.4761 11.2105 14.0513C11.2105 13.6264 11.564 13.2821 12 13.2821H13.0526C14.3607 13.2821 15.4211 12.2489 15.4211 10.9744V5.84615C15.4211 4.57165 14.3607 3.53846 13.0526 3.53846L10.9474 3.53846C9.63933 3.53846 8.57895 4.57165 8.57895 5.84615V7.89744C8.57895 8.32227 8.22549 8.66667 7.78947 8.66667C7.35346 8.66667 7 8.32227 7 7.89744V5.84615ZM7 13.0256C7 10.9015 8.7673 9.17949 10.9474 9.17949H12C12.436 9.17949 12.7895 9.52388 12.7895 9.94872C12.7895 10.3736 12.436 10.7179 12 10.7179H10.9474C9.63933 10.7179 8.57895 11.7511 8.57895 13.0256V18.1538C8.57895 19.4284 9.63933 20.4615 10.9474 20.4615H13.0526C14.3607 20.4615 15.4211 19.4284 15.4211 18.1538L15.4211 16.1026C15.4211 15.6777 15.7745 15.3333 16.2105 15.3333C16.6465 15.3333 17 15.6777 17 16.1026V18.1538C17 20.278 15.2327 22 13.0526 22H10.9474C8.7673 22 7 20.278 7 18.1538V13.0256Z"></path></symbol><symbol id="configuration-active" width="20" height="20" viewBox="0 0 20 20" xmlns="http://www.w3.org/2000/svg"><path fill-rule="evenodd" clip-rule="evenodd" d="M5.39508 14.9032C5.63257 14.9032 5.87006 14.9312 6.10237 14.9891C6.80343 15.1648 7.4122 15.6011 7.7731 16.187C8.00748 16.5547 8.13711 16.9842 8.14126 17.4224C8.14126 18.0498 8.68262 18.5527 9.34842 18.5527H10.6479C11.3106 18.5527 11.8519 18.0527 11.855 17.4359C11.8509 16.7545 12.1371 16.1069 12.6608 15.6194C13.1773 15.1388 13.8991 14.8502 14.6209 14.8695C15.0938 14.8801 15.5491 14.9988 15.9505 15.2111C16.5281 15.519 17.2655 15.3357 17.5994 14.8048L18.288 13.7363C18.4415 13.4902 18.4861 13.1813 18.4042 12.8966C18.3233 12.6118 18.12 12.3648 17.8462 12.219C17.2053 11.8754 16.748 11.3214 16.5582 10.6573C16.3705 10.0058 16.4731 9.29444 16.8392 8.70856C17.0778 8.32248 17.4272 7.99721 17.8462 7.77328C18.4083 7.46731 18.6054 6.78298 18.2787 6.25019C18.2652 6.22895 18.2528 6.20675 18.2424 6.18359L17.6347 5.20294C17.3038 4.66725 16.5675 4.4829 15.9899 4.78887C15.3655 5.13248 14.623 5.23093 13.9095 5.05623C13.197 4.88442 12.5997 4.46456 12.2273 3.87192C11.9888 3.50128 11.8592 3.06984 11.855 2.63067C11.8644 2.30057 11.7399 2.00425 11.5138 1.78708C11.2888 1.57088 10.9725 1.44829 10.6479 1.44829H9.34842C9.02693 1.44829 8.72618 1.56508 8.49906 1.7755C8.27297 1.98688 8.14956 2.26775 8.15163 2.56697C8.12986 3.9781 6.89055 5.11414 5.3899 5.11414C4.90869 5.10932 4.44512 4.98866 4.04274 4.76474C3.47753 4.46552 2.73913 4.64988 2.4083 5.18557L1.7062 6.25984C1.38471 6.77912 1.58175 7.46538 2.15422 7.77521C3.00358 8.23272 3.53353 9.08596 3.53353 10.001C3.53353 10.916 3.00358 11.7683 2.15214 12.2267C1.58279 12.5337 1.38574 13.2161 1.71553 13.7469L2.36993 14.7971C2.53171 15.0683 2.79617 15.2642 3.10211 15.3443C3.40701 15.4235 3.74302 15.3897 4.02303 15.2449C4.43475 15.02 4.91388 14.9032 5.39508 14.9032ZM10.6479 20.0005H9.34842C7.82495 20.0005 6.58565 18.848 6.58565 17.4301C6.58357 17.2554 6.52965 17.074 6.42905 16.9167C6.26623 16.6522 6.00281 16.463 5.69895 16.3877C5.39716 16.3124 5.06633 16.3539 4.79462 16.5007C4.14333 16.8385 3.37693 16.9205 2.67587 16.7371C1.97584 16.5528 1.37123 16.1049 1.01654 15.5113L0.368372 14.4718C-0.389731 13.2479 0.0613971 11.6795 1.37434 10.9729C1.74665 10.7731 1.97792 10.4006 1.97792 10.001C1.97792 9.60138 1.74665 9.22784 1.37434 9.02804C0.0603601 8.31765 -0.389731 6.74534 0.367335 5.52146L1.07047 4.44718C1.81821 3.23682 3.50864 2.8102 4.82677 3.5148C5.00618 3.61421 5.20115 3.6644 5.39923 3.66633C6.04533 3.66633 6.58565 3.17022 6.59602 2.56021C6.59187 1.88746 6.87707 1.24174 7.39664 0.754313C7.91829 0.26785 8.61106 0.000488281 9.34842 0.000488281H10.6479C11.3904 0.000488281 12.1122 0.284258 12.6297 0.777478C13.1462 1.27359 13.4314 1.95406 13.4096 2.64418C13.4117 2.79958 13.4667 2.97911 13.5662 3.13644C13.7311 3.39704 13.9914 3.58043 14.3005 3.65572C14.6095 3.72714 14.9331 3.68853 15.2079 3.537C16.5354 2.83143 18.2248 3.25419 18.9829 4.48L19.629 5.52146C19.6456 5.54945 19.6601 5.57647 19.6725 5.60447C20.3591 6.81194 19.9007 8.33213 18.6251 9.02611C18.4394 9.12553 18.2891 9.26452 18.1854 9.43247C18.0246 9.69211 17.98 10.001 18.0609 10.2847C18.1439 10.5743 18.342 10.8146 18.6209 10.9633C19.2504 11.3001 19.7202 11.8677 19.9079 12.523C20.0956 13.1775 19.993 13.8878 19.6269 14.4737L18.9383 15.5412C18.1802 16.7535 16.4908 17.1734 15.1768 16.4669C15.0015 16.3732 14.7993 16.3221 14.5981 16.3173H14.5919C14.2922 16.3173 13.9842 16.436 13.7601 16.6435C13.533 16.8549 13.4086 17.1367 13.4107 17.4359C13.4034 18.8538 12.1641 20.0005 10.6479 20.0005Z"></path><path fill-rule="evenodd" clip-rule="evenodd" d="M10.0027 8.17974C8.92416 8.17974 8.04679 8.99727 8.04679 10.0011C8.04679 11.0049 8.92416 11.8205 10.0027 11.8205C11.0813 11.8205 11.9586 11.0049 11.9586 10.0011C11.9586 8.99727 11.0813 8.17974 10.0027 8.17974ZM10.0027 13.2683C8.06649 13.2683 6.49117 11.8031 6.49117 10.0011C6.49117 8.19904 8.06649 6.73193 10.0027 6.73193C11.9389 6.73193 13.5143 8.19904 13.5143 10.0011C13.5143 11.8031 11.9389 13.2683 10.0027 13.2683Z"></path></symbol><symbol id="delete" width="16" height="17" viewBox="0 0 16 17" xmlns="http://www.w3.org/2000/svg"><path fill-rule="evenodd" clip-rule="evenodd" d="M4.79238 1.42163C4.99075 0.679734 5.66253 0.167236 6.427 0.167236H9.9545C10.719 0.167236 11.3908 0.679735 11.5891 1.42163C11.5926 1.43452 11.5956 1.44751 11.5982 1.46059L11.8007 2.47368C11.8707 2.82267 12.1778 3.07474 12.5337 3.07474L15.2567 3.07474C15.6018 3.07474 15.8817 3.35456 15.8817 3.69974C15.8817 4.04491 15.6018 4.32474 15.2567 4.32474H1.125C0.779822 4.32474 0.5 4.04491 0.5 3.69974C0.5 3.35456 0.779822 3.07474 1.125 3.07474H3.84733C4.20318 3.07474 4.51077 2.82292 4.58078 2.47393L4.78328 1.46059C4.7859 1.44751 4.78893 1.43452 4.79238 1.42163ZM5.70028 3.07474H10.6812C10.6355 2.96138 10.5997 2.84253 10.575 2.71913L10.3772 1.72942C10.3207 1.54445 10.1498 1.41724 9.9545 1.41724H6.427C6.23174 1.41724 6.0608 1.54445 6.00428 1.72941L5.80655 2.71888C5.78184 2.84228 5.746 2.96138 5.70028 3.07474ZM14.1541 5.76718C14.4982 5.79491 14.7546 6.09632 14.7269 6.44038L13.4809 6.33993C13.5087 5.99587 13.8101 5.73944 14.1541 5.76718ZM14.0101 14.4358C13.935 15.1135 13.6797 15.713 13.2134 16.1462C12.7455 16.5808 12.127 16.7908 11.4353 16.8034C9.25416 16.8427 7.06913 16.8452 4.88657 16.7992C4.20899 16.7852 3.60439 16.5679 3.14855 16.1334C2.69558 15.7017 2.44475 15.1085 2.37105 14.4415C2.23798 13.2401 2.05882 11.2369 1.91339 9.54041C1.84055 8.6908 1.77599 7.91587 1.72963 7.35336C1.70646 7.07209 1.68783 6.84389 1.67499 6.68597L1.6551 6.44031C1.62744 6.09624 1.88393 5.79482 2.228 5.76716C2.57207 5.7395 2.87341 5.996 2.90107 6.34007L2.92088 6.58469C2.93368 6.7422 2.95228 6.96994 2.97541 7.2507C3.02169 7.81225 3.08613 8.58576 3.15882 9.43365C3.30442 11.1321 3.48235 13.1202 3.61345 14.3038C3.66227 14.7459 3.81563 15.0424 4.01095 15.2286C4.20336 15.4119 4.49112 15.5408 4.91254 15.5495C7.0766 15.5951 9.24539 15.5926 11.4125 15.5536C11.8634 15.5454 12.1648 15.4141 12.3626 15.2304C12.5618 15.0453 12.7177 14.7494 12.7677 14.2981C12.898 13.1249 13.0761 11.1381 13.2221 9.43843C13.295 8.58996 13.3598 7.81522 13.4062 7.25259C13.4295 6.97128 13.4482 6.74304 13.461 6.58516L13.4809 6.33993L14.7269 6.44038"></path></symbol><symbol id="advanced-setting-inactive" width="20" height="20" viewBox="0 0 20 20" xmlns="http://www.w3.org/2000/svg"><path fill-rule="evenodd" clip-rule="evenodd" d="M5.39508 14.9032C5.63257 14.9032 5.87006 14.9312 6.10237 14.9891C6.80343 15.1648 7.4122 15.6011 7.7731 16.187C8.00748 16.5547 8.13711 16.9842 8.14126 17.4224C8.14126 18.0498 8.68262 18.5527 9.34842 18.5527H10.6479C11.3106 18.5527 11.8519 18.0527 11.855 17.4359C11.8509 16.7545 12.1371 16.1069 12.6608 15.6194C13.1773 15.1388 13.8991 14.8502 14.6209 14.8695C15.0938 14.8801 15.5491 14.9988 15.9505 15.2111C16.5281 15.519 17.2655 15.3357 17.5994 14.8048L18.288 13.7363C18.4415 13.4902 18.4861 13.1813 18.4042 12.8966C18.3233 12.6118 18.12 12.3648 17.8462 12.219C17.2053 11.8754 16.748 11.3214 16.5582 10.6573C16.3705 10.0058 16.4731 9.29444 16.8392 8.70856C17.0778 8.32248 17.4272 7.99721 17.8462 7.77328C18.4083 7.46731 18.6054 6.78298 18.2787 6.25019C18.2652 6.22895 18.2528 6.20675 18.2424 6.18359L17.6347 5.20294C17.3038 4.66725 16.5675 4.4829 15.9899 4.78887C15.3655 5.13248 14.623 5.23093 13.9095 5.05623C13.197 4.88442 12.5997 4.46456 12.2273 3.87192C11.9888 3.50128 11.8592 3.06984 11.855 2.63067C11.8644 2.30057 11.7399 2.00425 11.5138 1.78708C11.2888 1.57088 10.9725 1.44829 10.6479 1.44829H9.34842C9.02693 1.44829 8.72618 1.56508 8.49906 1.7755C8.27297 1.98688 8.14956 2.26775 8.15163 2.56697C8.12986 3.9781 6.89055 5.11414 5.3899 5.11414C4.90869 5.10932 4.44512 4.98866 4.04274 4.76474C3.47753 4.46552 2.73913 4.64988 2.4083 5.18557L1.7062 6.25984C1.38471 6.77912 1.58175 7.46538 2.15422 7.77521C3.00358 8.23272 3.53353 9.08596 3.53353 10.001C3.53353 10.916 3.00358 11.7683 2.15214 12.2267C1.58279 12.5337 1.38574 13.2161 1.71553 13.7469L2.36993 14.7971C2.53171 15.0683 2.79617 15.2642 3.10211 15.3443C3.40701 15.4235 3.74302 15.3897 4.02303 15.2449C4.43475 15.02 4.91388 14.9032 5.39508 14.9032ZM10.6479 20.0005H9.34842C7.82495 20.0005 6.58565 18.848 6.58565 17.4301C6.58357 17.2554 6.52965 17.074 6.42905 16.9167C6.26623 16.6522 6.00281 16.463 5.69895 16.3877C5.39716 16.3124 5.06633 16.3539 4.79462 16.5007C4.14333 16.8385 3.37693 16.9205 2.67587 16.7371C1.97584 16.5528 1.37123 16.1049 1.01654 15.5113L0.368372 14.4718C-0.389731 13.2479 0.0613971 11.6795 1.37434 10.9729C1.74665 10.7731 1.97792 10.4006 1.97792 10.001C1.97792 9.60138 1.74665 9.22784 1.37434 9.02804C0.0603601 8.31765 -0.389731 6.74534 0.367335 5.52146L1.07047 4.44718C1.81821 3.23682 3.50864 2.8102 4.82677 3.5148C5.00618 3.61421 5.20115 3.6644 5.39923 3.66633C6.04533 3.66633 6.58565 3.17022 6.59602 2.56021C6.59187 1.88746 6.87707 1.24174 7.39664 0.754313C7.91829 0.26785 8.61106 0.000488281 9.34842 0.000488281H10.6479C11.3904 0.000488281 12.1122 0.284258 12.6297 0.777478C13.1462 1.27359 13.4314 1.95406 13.4096 2.64418C13.4117 2.79958 13.4667 2.97911 13.5662 3.13644C13.7311 3.39704 13.9914 3.58043 14.3005 3.65572C14.6095 3.72714 14.9331 3.68853 15.2079 3.537C16.5354 2.83143 18.2248 3.25419 18.9829 4.48L19.629 5.52146C19.6456 5.54945 19.6601 5.57647 19.6725 5.60447C20.3591 6.81194 19.9007 8.33213 18.6251 9.02611C18.4394 9.12553 18.2891 9.26452 18.1854 9.43247C18.0246 9.69211 17.98 10.001 18.0609 10.2847C18.1439 10.5743 18.342 10.8146 18.6209 10.9633C19.2504 11.3001 19.7202 11.8677 19.9079 12.523C20.0956 13.1775 19.993 13.8878 19.6269 14.4737L18.9383 15.5412C18.1802 16.7535 16.4908 17.1734 15.1768 16.4669C15.0015 16.3732 14.7993 16.3221 14.5981 16.3173H14.5919C14.2922 16.3173 13.9842 16.436 13.7601 16.6435C13.533 16.8549 13.4086 17.1367 13.4107 17.4359C13.4034 18.8538 12.1641 20.0005 10.6479 20.0005Z"></path><path fill-rule="evenodd" clip-rule="evenodd" d="M10.0027 8.17974C8.92416 8.17974 8.04679 8.99727 8.04679 10.0011C8.04679 11.0049 8.92416 11.8205 10.0027 11.8205C11.0813 11.8205 11.9586 11.0049 11.9586 10.0011C11.9586 8.99727 11.0813 8.17974 10.0027 8.17974ZM10.0027 13.2683C8.06649 13.2683 6.49117 11.8031 6.49117 10.0011C6.49117 8.19904 8.06649 6.73193 10.0027 6.73193C11.9389 6.73193 13.5143 8.19904 13.5143 10.0011C13.5143 11.8031 11.9389 13.2683 10.0027 13.2683Z"></path></symbol><symbol id="export-setting" width="16" height="18" viewBox="0 0 16 18" xmlns="http://www.w3.org/2000/svg"><path d="M7.17715 17.2928C7.23213 17.6922 7.57953 18 7.99989 18C8.45846 18 8.83021 17.6337 8.83021 17.1818V2.80004L14.0813 7.99528L14.1743 8.07469C14.4989 8.31301 14.9602 8.28755 15.2556 7.99768C15.5805 7.67882 15.5816 7.16077 15.258 6.84059L8.59955 0.252234C8.56142 0.213015 8.51937 0.177529 8.47401 0.146389C8.14976 -0.0766617 7.69994 -0.0452419 7.41106 0.240643L0.741932 6.84064L0.661737 6.93258C0.421253 7.25339 0.449045 7.70788 0.744461 7.99772C1.06942 8.31656 1.59515 8.31544 1.91871 7.99523L7.16957 2.79875V17.1818L7.17715 17.2928Z"></path></symbol><symbol id="export-setting-inactive" width="16" height="18" viewBox="0 0 16 18" xmlns="http://www.w3.org/2000/svg"><path d="M7.17715 17.2928C7.23213 17.6922 7.57953 18 7.99989 18C8.45846 18 8.83021 17.6337 8.83021 17.1818V2.80004L14.0813 7.99528L14.1743 8.07469C14.4989 8.31301 14.9602 8.28755 15.2556 7.99768C15.5805 7.67882 15.5816 7.16077 15.258 6.84059L8.59955 0.252234C8.56142 0.213015 8.51937 0.177529 8.47401 0.146389C8.14976 -0.0766617 7.69994 -0.0452419 7.41106 0.240643L0.741932 6.84064L0.661737 6.93258C0.421253 7.25339 0.449045 7.70788 0.744461 7.99772C1.06942 8.31656 1.59515 8.31544 1.91871 7.99523L7.16957 2.79875V17.1818L7.17715 17.2928Z"></path></symbol><symbol id="import-setting" width="16" height="18" viewBox="0 0 16 18" xmlns="http://www.w3.org/2000/svg"><path d="M7.17715 17.2928C7.23213 17.6922 7.57953 18 7.99989 18C8.45846 18 8.83021 17.6337 8.83021 17.1818V2.80004L14.0813 7.99528L14.1743 8.07469C14.4989 8.31301 14.9602 8.28755 15.2556 7.99768C15.5805 7.67882 15.5816 7.16077 15.258 6.84059L8.59955 0.252234C8.56142 0.213015 8.51937 0.177529 8.47401 0.146389C8.14976 -0.0766617 7.69994 -0.0452419 7.41106 0.240643L0.741932 6.84064L0.661737 6.93258C0.421253 7.25339 0.449045 7.70788 0.744461 7.99772C1.06942 8.31656 1.59515 8.31544 1.91871 7.99523L7.16957 2.79875V17.1818L7.17715 17.2928Z"></path></symbol><symbol id="import-setting-inactive" width="16" height="18" viewBox="0 0 16 18" xmlns="http://www.w3.org/2000/svg"><path d="M7.17715 17.2928C7.23213 17.6922 7.57953 18 7.99989 18C8.45846 18 8.83021 17.6337 8.83021 17.1818V2.80004L14.0813 7.99528L14.1743 8.07469C14.4989 8.31301 14.9602 8.28755 15.2556 7.99768C15.5805 7.67882 15.5816 7.16077 15.258 6.84059L8.59955 0.252234C8.56142 0.213015 8.51937 0.177529 8.47401 0.146389C8.14976 -0.0766617 7.69994 -0.0452419 7.41106 0.240643L0.741932 6.84064L0.661737 6.93258C0.421253 7.25339 0.449045 7.70788 0.744461 7.99772C1.06942 8.31656 1.59515 8.31544 1.91871 7.99523L7.16957 2.79875V17.1818L7.17715 17.2928Z"></path></symbol><symbol id="field-mapping" width="20" height="21" viewBox="0 0 20 21" xmlns="http://www.w3.org/2000/svg"><path fill-rule="evenodd" clip-rule="evenodd" d="M0.0905131 2.33973C-0.0301711 2.25917 -0.0301711 2.0816 0.0905133 2.00104L2.56976 0.346048C2.70484 0.255878 2.88578 0.352837 2.88578 0.515394V1.40715H5.30661C5.98028 1.40715 6.59613 1.78826 6.8974 2.39159L10 8.60488L13.1026 2.39159C13.4039 1.78826 14.0197 1.40715 14.6934 1.40715H17.1142V0.515394C17.1142 0.352837 17.2952 0.255878 17.4302 0.346048L19.9095 2.00104C20.0302 2.0816 20.0302 2.25917 19.9095 2.33973L17.4302 3.99472C17.2952 4.08489 17.1142 3.98793 17.1142 3.82537V2.93361H14.6934C14.5972 2.93361 14.5092 2.98806 14.4661 3.07425L10.8522 10.3115L14.4661 17.5488C14.5092 17.635 14.5972 17.6894 14.6934 17.6894H17.1142V16.7977C17.1142 16.6351 17.2952 16.5382 17.4302 16.6283L19.9095 18.2833C20.0302 18.3639 20.0302 18.5414 19.9095 18.622L17.4302 20.277C17.2952 20.3672 17.1142 20.2702 17.1142 20.1077V19.2159H14.6934C14.0197 19.2159 13.4039 18.8348 13.1026 18.2315L10 12.0182L6.8974 18.2315C6.59613 18.8348 5.98028 19.2159 5.30661 19.2159H2.88578V20.1077C2.88578 20.2702 2.70484 20.3672 2.56976 20.277L0.0905131 18.622C-0.0301711 18.5414 -0.0301711 18.3639 0.0905133 18.2833L2.56976 16.6283C2.70484 16.5382 2.88578 16.6351 2.88578 16.7977V17.6894H5.30661C5.40285 17.6894 5.49083 17.635 5.53387 17.5488L9.14779 10.3115L5.53387 3.07425C5.49083 2.98806 5.40285 2.93361 5.30661 2.93361H2.88578V3.82537C2.88578 3.98793 2.70484 4.08489 2.56976 3.99472L0.0905131 2.33973Z"></path></symbol><symbol id="field-mapping-inactive" width="20" height="21" viewBox="0 0 20 21" xmlns="http://www.w3.org/2000/svg"><path fill-rule="evenodd" clip-rule="evenodd" d="M0.0905131 2.33973C-0.0301711 2.25917 -0.0301711 2.0816 0.0905133 2.00104L2.56976 0.346048C2.70484 0.255878 2.88578 0.352837 2.88578 0.515394V1.40715H5.30661C5.98028 1.40715 6.59613 1.78826 6.8974 2.39159L10 8.60488L13.1026 2.39159C13.4039 1.78826 14.0197 1.40715 14.6934 1.40715H17.1142V0.515394C17.1142 0.352837 17.2952 0.255878 17.4302 0.346048L19.9095 2.00104C20.0302 2.0816 20.0302 2.25917 19.9095 2.33973L17.4302 3.99472C17.2952 4.08489 17.1142 3.98793 17.1142 3.82537V2.93361H14.6934C14.5972 2.93361 14.5092 2.98806 14.4661 3.07425L10.8522 10.3115L14.4661 17.5488C14.5092 17.635 14.5972 17.6894 14.6934 17.6894H17.1142V16.7977C17.1142 16.6351 17.2952 16.5382 17.4302 16.6283L19.9095 18.2833C20.0302 18.3639 20.0302 18.5414 19.9095 18.622L17.4302 20.277C17.2952 20.3672 17.1142 20.2702 17.1142 20.1077V19.2159H14.6934C14.0197 19.2159 13.4039 18.8348 13.1026 18.2315L10 12.0182L6.8974 18.2315C6.59613 18.8348 5.98028 19.2159 5.30661 19.2159H2.88578V20.1077C2.88578 20.2702 2.70484 20.3672 2.56976 20.277L0.0905131 18.622C-0.0301711 18.5414 -0.0301711 18.3639 0.0905133 18.2833L2.56976 16.6283C2.70484 16.5382 2.88578 16.6351 2.88578 16.7977V17.6894H5.30661C5.40285 17.6894 5.49083 17.635 5.53387 17.5488L9.14779 10.3115L5.53387 3.07425C5.49083 2.98806 5.40285 2.93361 5.30661 2.93361H2.88578V3.82537C2.88578 3.98793 2.70484 4.08489 2.56976 3.99472L0.0905131 2.33973Z"></path></symbol><symbol id="sync" width="14" height="14" viewBox="0 0 14 14" xmlns="http://www.w3.org/2000/svg"><path d="M7.21165 2.33301C9.27379 2.33301 10.9955 3.87768 11.4026 5.93471L12.0381 4.64971L12.0747 4.58838C12.1964 4.41684 12.4211 4.35934 12.6066 4.46266C12.8128 4.57747 12.8924 4.84734 12.7846 5.06544L11.2191 8.23134L8.71832 5.95584L8.66522 5.89805C8.53917 5.7336 8.53786 5.49251 8.67238 5.32646L8.72679 5.27035C8.88171 5.13721 9.10927 5.13643 9.26634 5.27935L10.6362 6.52571C10.4721 4.67442 9.00155 3.22568 7.21165 3.22568C6.37172 3.22568 5.60211 3.5447 5.00482 4.07463C4.84399 4.21732 4.66258 4.40708 4.415 4.14782C4.16742 3.88856 4.3041 3.53577 4.41498 3.43435C5.16527 2.74805 6.14273 2.33301 7.21165 2.33301Z"></path><path d="M6.78705 11.6663C4.7249 11.6663 3.00321 10.1217 2.59613 8.06464L1.9606 9.34964L1.92404 9.41097C1.80232 9.58251 1.57759 9.64001 1.39206 9.53669C1.18593 9.42189 1.10625 9.15201 1.2141 8.93391L2.77964 5.76801L5.28038 8.04351L5.33347 8.1013C5.45953 8.26575 5.46083 8.50684 5.32631 8.67289L5.27191 8.729C5.11699 8.86214 4.88942 8.86292 4.73235 8.72L3.36252 7.47364C3.52656 9.32493 4.99715 10.7737 6.78705 10.7737C7.62697 10.7737 8.39659 10.4547 8.99387 9.92472C9.15471 9.78203 9.33611 9.59227 9.5837 9.85153C9.83128 10.1108 9.6946 10.4636 9.58372 10.565C8.83343 11.2513 7.85597 11.6663 6.78705 11.6663Z"></path><defs><linearGradient x1="5.44793" y1="1.61506" x2="8.63227" y2="14.1477" gradientUnits="userSpaceOnUse"><stop stop-color="#FF3366"></stop><stop offset="1" stop-color="#FE5196"></stop></linearGradient><linearGradient x1="5.44793" y1="1.61506" x2="8.63227" y2="14.1477" gradientUnits="userSpaceOnUse"><stop stop-color="#FF3366"></stop><stop offset="1" stop-color="#FE5196"></stop></linearGradient></defs></symbol></svg>