<?xml version="1.0" encoding="UTF-8" standalone="no"?><svg xmlns="http://www.w3.org/2000/svg" xmlns:xlink="http://www.w3.org/1999/xlink"><symbol id="open-in-new-tab" width="14" height="14" viewBox="0 0 14 14" xmlns="http://www.w3.org/2000/svg"><path fill-rule="evenodd" clip-rule="evenodd" d="M9.89279 13.6663H4.1059C1.84925 13.6663 0.333008 12.0826 0.333008 9.72575V4.27359C0.333008 1.91672 1.84925 0.333008 4.1059 0.333008H6.55798C6.82949 0.333008 7.04984 0.55335 7.04984 0.824843C7.04984 1.09634 6.82949 1.31668 6.55798 1.31668H4.1059C2.41128 1.31668 1.31673 2.47741 1.31673 4.27359V9.72575C1.31673 11.5219 2.41128 12.6827 4.1059 12.6827H9.89279C11.5874 12.6827 12.6826 11.5219 12.6826 9.72575V7.08427C12.6826 6.81278 12.903 6.59243 13.1745 6.59243C13.446 6.59243 13.6663 6.81278 13.6663 7.08427V9.72575C13.6663 12.0826 12.1494 13.6663 9.89279 13.6663Z"></path><path fill-rule="evenodd" clip-rule="evenodd" d="M7.14584 6.85351C6.95095 6.65862 6.95095 6.34228 7.14584 6.14739L12.8141 0.479174C13.0089 0.284286 13.3253 0.284286 13.5202 0.479174C13.7151 0.674061 13.7151 0.990401 13.5202 1.18529L7.85196 6.85351C7.65707 7.0484 7.34073 7.0484 7.14584 6.85351Z"></path><path fill-rule="evenodd" clip-rule="evenodd" d="M9.82206 1.24928C9.72612 1.15335 9.66634 1.02025 9.66634 0.873591C9.66584 0.579769 9.90294 0.340693 10.1978 0.340191L13.1329 0.333662C13.4162 0.332657 13.6673 0.583787 13.6663 0.867062L13.6603 3.80227C13.6593 4.09659 13.4207 4.33416 13.1268 4.33366C12.8325 4.33265 12.5944 4.09458 12.5954 3.80026L12.5999 1.39996L10.1998 1.40498C10.0521 1.40599 9.91851 1.34572 9.82206 1.24928Z"></path></symbol></svg>