<?xml version="1.0" encoding="UTF-8" standalone="no"?><svg xmlns="http://www.w3.org/2000/svg" xmlns:xlink="http://www.w3.org/1999/xlink"><symbol id="arrow-down" width="18" height="18" viewBox="0 0 18 18" xmlns="http://www.w3.org/2000/svg"><g><path d="M3.1808 5.80942C3.39995 5.58588 3.74288 5.56556 3.98454 5.74846L4.05377 5.80942L9 10.8551L13.9462 5.80942C14.1654 5.58588 14.5083 5.56556 14.75 5.74846L14.8192 5.80942C15.0384 6.03297 15.0583 6.38278 14.879 6.62928L14.8192 6.6999L9.43649 12.1906C9.21734 12.4141 8.8744 12.4344 8.63275 12.2515L8.56351 12.1906L3.1808 6.6999C2.93973 6.454 2.93973 6.05532 3.1808 5.80942Z"></path></g></symbol><symbol id="arrow-rotate-sync" width="14" height="14" viewBox="0 0 14 14" xmlns="http://www.w3.org/2000/svg"><path d="M7.21263 2.33337C9.27477 2.33337 10.9965 3.87804 11.4035 5.93508L12.0391 4.65008L12.0756 4.58874C12.1974 4.41721 12.4221 4.35971 12.6076 4.46303C12.8137 4.57783 12.8934 4.84771 12.7856 5.06581L11.22 8.2317L8.7193 5.9562L8.6662 5.89842C8.54014 5.73397 8.53884 5.49288 8.67336 5.32683L8.72777 5.27072C8.88268 5.13758 9.11025 5.13679 9.26732 5.27972L10.6372 6.52607C10.4731 4.67478 9.00252 3.22605 7.21263 3.22605C6.3727 3.22605 5.60309 3.54506 5.0058 4.07499C4.84497 4.21769 4.66356 4.40745 4.41598 4.14819C4.16839 3.88893 4.30507 3.53614 4.41596 3.43471C5.16625 2.74841 6.1437 2.33337 7.21263 2.33337Z"></path><path d="M6.78802 11.6667C4.72588 11.6667 3.00419 10.122 2.5971 8.065L1.96157 9.35L1.92501 9.41134C1.8033 9.58287 1.57857 9.64037 1.39304 9.53705C1.1869 9.42225 1.10723 9.15238 1.21508 8.93427L2.78062 5.76838L5.28135 8.04388L5.33445 8.10166C5.46051 8.26611 5.46181 8.50721 5.32729 8.67326L5.27288 8.72936C5.11797 8.8625 4.8904 8.86329 4.73333 8.72037L3.36349 7.47401C3.52754 9.3253 4.99813 10.774 6.78802 10.774C7.62795 10.774 8.39756 10.455 8.99485 9.92509C9.15568 9.7824 9.33709 9.59263 9.58467 9.85189C9.83226 10.1112 9.69558 10.4639 9.58469 10.5654C8.8344 11.2517 7.85695 11.6667 6.78802 11.6667Z"></path><defs><linearGradient x1="5.44891" y1="1.61543" x2="8.63325" y2="14.1481" gradientUnits="userSpaceOnUse"><stop stop-color="#FF3366"></stop><stop offset="1" stop-color="#FE5196"></stop></linearGradient><linearGradient x1="5.44891" y1="1.61543" x2="8.63325" y2="14.1481" gradientUnits="userSpaceOnUse"><stop stop-color="#FF3366"></stop><stop offset="1" stop-color="#FE5196"></stop></linearGradient></defs></symbol><symbol id="arrow-tail-down" width="24" height="24" viewBox="0 0 24 24" xmlns="http://www.w3.org/2000/svg"><g><path fill-rule="evenodd" clip-rule="evenodd" d="M12.8229 3.70716C12.7679 3.3078 12.4205 3 12.0001 3C11.5415 3 11.1698 3.36631 11.1698 3.81818V18.1999L5.91866 13.0047L5.8257 12.9253C5.50114 12.687 5.0398 12.7124 4.74441 13.0023C4.41948 13.3212 4.41839 13.8392 4.74198 14.1594L11.4004 20.7477C11.4386 20.787 11.4806 20.8224 11.526 20.8536C11.8502 21.0766 12.3001 21.0452 12.5889 20.7593L19.2581 14.1593L19.3383 14.0674C19.5787 13.7466 19.551 13.2921 19.2555 13.0023C18.9306 12.6834 18.4049 12.6845 18.0813 13.0047L12.8304 18.2012V3.81818L12.8229 3.70716Z"></path></g></symbol><symbol id="add" width="18" height="18" viewBox="0 0 18 18" xmlns="http://www.w3.org/2000/svg"><path d="M8.99934 5.57188C9.32044 5.57188 9.58074 5.83218 9.58074 6.15328V8.41156H11.8417C12.1628 8.41156 12.4231 8.67185 12.4231 8.99295C12.4231 9.31405 12.1628 9.57435 11.8417 9.57435H9.58074V11.8326C9.58074 12.1537 9.32044 12.414 8.99934 12.414C8.67825 12.414 8.41795 12.1537 8.41795 11.8326V9.57435H6.15697C5.83587 9.57435 5.57557 9.31405 5.57557 8.99295C5.57557 8.67185 5.83587 8.41156 6.15697 8.41156H8.41795V6.15328C8.41795 5.83218 8.67825 5.57188 8.99934 5.57188Z"></path><path fill-rule="evenodd" clip-rule="evenodd" d="M5.36701 0.666992C3.9569 0.666992 2.76693 1.16997 1.93233 2.06526C1.10195 2.95602 0.666016 4.18864 0.666016 5.57797V12.4227C0.666016 13.8113 1.09968 15.044 1.92931 15.9351C2.7633 16.8309 3.95358 17.3337 5.36701 17.3337H12.6317C14.0451 17.3337 15.2354 16.8309 16.0694 15.9351C16.899 15.044 17.3327 13.8113 17.3327 12.4227V5.57797C17.3327 4.18935 16.899 2.95664 16.0694 2.06554C15.2354 1.16973 14.0451 0.666992 12.6317 0.666992H5.36701ZM1.82881 5.57797C1.82881 4.43003 2.18652 3.49785 2.78287 2.85814C3.37499 2.22297 4.24483 1.82978 5.36701 1.82978H12.6317C13.7579 1.82978 14.6275 2.2232 15.2183 2.85787C15.8136 3.49724 16.1699 4.42932 16.1699 5.57797V12.4227C16.1699 13.5713 15.8136 14.5034 15.2183 15.1428C14.6275 15.7775 13.7579 16.1709 12.6317 16.1709H5.36701C4.24076 16.1709 3.37124 15.7775 2.78036 15.1428C2.1851 14.5034 1.82881 13.5713 1.82881 12.4227V5.57797Z"></path></symbol><symbol id="arrow-tail-up-down" width="24" height="24" viewBox="0 0 24 24" xmlns="http://www.w3.org/2000/svg"><g><g><path fill-rule="evenodd" clip-rule="evenodd" d="M16.8396 5.79656C17.2538 5.79656 17.5896 6.13235 17.5896 6.54656V20.1643C17.5896 20.5786 17.2538 20.9143 16.8396 20.9143C16.4254 20.9143 16.0896 20.5786 16.0896 20.1643V6.54656C16.0896 6.13235 16.4254 5.79656 16.8396 5.79656Z"></path><path fill-rule="evenodd" clip-rule="evenodd" d="M12.2326 15.5367C12.5262 15.2445 13.0011 15.2456 13.2933 15.5391L16.8395 19.1018L20.3857 15.5391C20.6779 15.2456 21.1528 15.2445 21.4464 15.5367C21.7399 15.8289 21.741 16.3038 21.4488 16.5973L17.371 20.694C17.2303 20.8354 17.0391 20.9143 16.8396 20.9143C16.6401 20.9143 16.4487 20.8354 16.3079 20.694L12.2302 16.5973C11.9379 16.3038 11.939 15.8289 12.2326 15.5367Z"></path><path fill-rule="evenodd" clip-rule="evenodd" d="M6.91116 3.08301C7.32538 3.08301 7.66116 3.41879 7.66116 3.83301V17.4508C7.66116 17.865 7.32538 18.2008 6.91116 18.2008C6.49695 18.2008 6.16116 17.865 6.16116 17.4508V3.83301C6.16116 3.41879 6.49695 3.08301 6.91116 3.08301Z"></path><path fill-rule="evenodd" clip-rule="evenodd" d="M6.91116 3.08301C7.11068 3.08301 7.30208 3.16195 7.44283 3.30335L11.5206 7.40002C11.8128 7.69359 11.8117 8.16846 11.5182 8.46067C11.2246 8.75289 10.7497 8.75179 10.4575 8.45822L6.91127 4.89557L3.36505 8.45822C3.07283 8.75179 2.59796 8.75289 2.30439 8.46067C2.01082 8.16846 2.00973 7.69359 2.30194 7.40002L6.37972 3.30335C6.52047 3.16195 6.71165 3.08301 6.91116 3.08301Z"></path></g></g></symbol><symbol id="arrow" width="61" height="10" viewBox="0 0 61 10" xmlns="http://www.w3.org/2000/svg"><path d="M60.25 5L52.75 0.669873V9.33013L60.25 5ZM0.25 5.75H53.5V4.25H0.25V5.75Z"></path></symbol><symbol id="bin" width="24" height="24" viewBox="0 0 24 24" xmlns="http://www.w3.org/2000/svg"><path fill-rule="evenodd" clip-rule="evenodd" d="M8.15104 3.50594C8.38908 2.61567 9.19522 2.00067 10.1126 2.00067H14.3456C15.2629 2.00067 16.0691 2.61567 16.3071 3.50594C16.3113 3.52141 16.3149 3.537 16.318 3.5527L16.561 4.7684C16.645 5.1872 17.0136 5.48967 17.4406 5.48967L20.7082 5.48967C21.1224 5.48967 21.4582 5.82546 21.4582 6.23967C21.4582 6.65389 21.1224 6.98967 20.7082 6.98967H3.75018C3.33597 6.98967 3.00018 6.65389 3.00018 6.23967C3.00018 5.82546 3.33597 5.48967 3.75018 5.48967H7.01698C7.44399 5.48967 7.81311 5.1875 7.89712 4.7687L8.14012 3.5527C8.14326 3.537 8.1469 3.52141 8.15104 3.50594ZM9.24052 5.48967H15.2176C15.1628 5.35365 15.1198 5.21102 15.0902 5.06294L14.8528 3.87529C14.785 3.65333 14.5799 3.50067 14.3456 3.50067H10.1126C9.87827 3.50067 9.67314 3.65332 9.60532 3.87528L9.36804 5.06264C9.33839 5.21072 9.29538 5.35365 9.24052 5.48967ZM19.3852 8.7206C19.798 8.75389 20.1057 9.11557 20.0725 9.52844L18.5773 9.4079C18.6106 8.99503 18.9723 8.68731 19.3852 8.7206ZM19.2123 19.1229C19.1222 19.9362 18.8158 20.6555 18.2562 21.1754C17.6948 21.697 16.9525 21.9489 16.1226 21.964C13.5052 22.0112 10.8831 22.0142 8.26407 21.959C7.45096 21.9423 6.72545 21.6814 6.17844 21.1601C5.63488 20.642 5.33389 19.9302 5.24544 19.1297C5.08576 17.6881 4.87076 15.2842 4.69625 13.2485C4.60885 12.2289 4.53137 11.299 4.47574 10.624C4.44793 10.2865 4.42558 10.0127 4.41017 9.82315L4.3863 9.52836C4.35311 9.11548 4.6609 8.75378 5.07378 8.72058C5.48666 8.68739 5.84828 8.99519 5.88147 9.40807L5.90524 9.70162C5.9206 9.89063 5.94291 10.1639 5.97068 10.5008C6.02621 11.1747 6.10354 12.1029 6.19077 13.1204C6.36549 15.1585 6.579 17.5443 6.73632 18.9646C6.79491 19.4951 6.97894 19.8509 7.21332 20.0743C7.44421 20.2943 7.78952 20.449 8.29523 20.4593C10.8921 20.5141 13.4946 20.5111 16.0952 20.4643C16.6362 20.4544 16.998 20.2969 17.2353 20.0764C17.4744 19.8544 17.6615 19.4993 17.7214 18.9577C17.8777 17.5499 18.0915 15.1657 18.2668 13.1261C18.3542 12.1079 18.4319 11.1783 18.4877 10.5031C18.5156 10.1655 18.538 9.89164 18.5534 9.70218L18.5773 9.4079L20.0725 9.52844"></path></symbol><symbol id="arrow-line" width="100" height="6" viewBox="0 0 100 6" xmlns="http://www.w3.org/2000/svg"><path d="M100 3L95 0.113249V5.88675L100 3ZM0 3.5H95.5V2.5H0V3.5Z"></path></symbol><symbol id="calendar" width="24" height="24" viewBox="0 0 24 24" xmlns="http://www.w3.org/2000/svg"><g><g><path fill-rule="evenodd" clip-rule="evenodd" d="M3.08551 9.58535C3.08551 9.20004 3.39547 8.88768 3.77782 8.88768H20.2307C20.613 8.88768 20.923 9.20004 20.923 9.58535C20.923 9.97067 20.613 10.283 20.2307 10.283H3.77782C3.39547 10.283 3.08551 9.97067 3.08551 9.58535Z"></path><path fill-rule="evenodd" clip-rule="evenodd" d="M15.4081 13.2183C15.4081 12.833 15.718 12.5206 16.1004 12.5206H16.1089C16.4913 12.5206 16.8012 12.833 16.8012 13.2183C16.8012 13.6036 16.4913 13.916 16.1089 13.916H16.1004C15.718 13.916 15.4081 13.6036 15.4081 13.2183Z"></path><path fill-rule="evenodd" clip-rule="evenodd" d="M11.312 13.2183C11.312 12.833 11.6219 12.5206 12.0043 12.5206H12.0128C12.3952 12.5206 12.7051 12.833 12.7051 13.2183C12.7051 13.6036 12.3952 13.916 12.0128 13.916H12.0043C11.6219 13.916 11.312 13.6036 11.312 13.2183Z"></path><path fill-rule="evenodd" clip-rule="evenodd" d="M7.20728 13.2183C7.20728 12.833 7.51724 12.5206 7.89959 12.5206H7.90814C8.29049 12.5206 8.60045 12.833 8.60045 13.2183C8.60045 13.6036 8.29049 13.916 7.90814 13.916H7.89959C7.51724 13.916 7.20728 13.6036 7.20728 13.2183Z"></path><path fill-rule="evenodd" clip-rule="evenodd" d="M15.4081 16.8337C15.4081 16.4484 15.718 16.136 16.1004 16.136H16.1089C16.4913 16.136 16.8012 16.4484 16.8012 16.8337C16.8012 17.219 16.4913 17.5314 16.1089 17.5314H16.1004C15.718 17.5314 15.4081 17.219 15.4081 16.8337Z"></path><path fill-rule="evenodd" clip-rule="evenodd" d="M11.312 16.8337C11.312 16.4484 11.6219 16.136 12.0043 16.136H12.0128C12.3952 16.136 12.7051 16.4484 12.7051 16.8337C12.7051 17.219 12.3952 17.5314 12.0128 17.5314H12.0043C11.6219 17.5314 11.312 17.219 11.312 16.8337Z"></path><path fill-rule="evenodd" clip-rule="evenodd" d="M7.20728 16.8337C7.20728 16.4484 7.51724 16.136 7.89959 16.136H7.90814C8.29049 16.136 8.60045 16.4484 8.60045 16.8337C8.60045 17.219 8.29049 17.5314 7.90814 17.5314H7.89959C7.51724 17.5314 7.20728 17.219 7.20728 16.8337Z"></path><path fill-rule="evenodd" clip-rule="evenodd" d="M15.7327 2C16.115 2 16.425 2.31236 16.425 2.69767V5.75887C16.425 6.14418 16.115 6.45654 15.7327 6.45654C15.3503 6.45654 15.0404 6.14418 15.0404 5.75887V2.69767C15.0404 2.31236 15.3503 2 15.7327 2Z"></path><path fill-rule="evenodd" clip-rule="evenodd" d="M8.27585 2C8.6582 2 8.96816 2.31236 8.96816 2.69767V5.75887C8.96816 6.14418 8.6582 6.45654 8.27585 6.45654C7.8935 6.45654 7.58355 6.14418 7.58355 5.75887V2.69767C7.58355 2.31236 7.8935 2 8.27585 2Z"></path><path fill-rule="evenodd" clip-rule="evenodd" d="M4.40076 4.77159C5.32536 3.88585 6.61617 3.46902 8.09627 3.46902H15.9122C17.396 3.46902 18.6876 3.88553 19.6106 4.77227C20.5388 5.66397 21.0044 6.94473 21 8.48676V16.9744C21 18.5165 20.532 19.7986 19.6035 20.692C18.6799 21.5806 17.3886 22 15.9037 22H8.09627C6.61201 22 5.31972 21.572 4.39592 20.6697C3.46868 19.764 3 18.4658 3 16.9041V8.48579C3 6.94269 3.4708 5.66246 4.40076 4.77159ZM5.35473 5.78292C4.7604 6.35227 4.38462 7.23159 4.38462 8.48579V16.9041C4.38462 18.1836 4.76252 19.0845 5.35957 19.6677C5.96006 20.2542 6.86974 20.6047 8.09627 20.6047H15.9037C17.1381 20.6047 18.0488 20.2587 18.6473 19.6828C19.241 19.1115 19.6154 18.2297 19.6154 16.9744V8.48579L19.6154 8.48364C19.6192 7.2289 19.2468 6.35054 18.6552 5.78224C18.0583 5.20875 17.1478 4.86437 15.9122 4.86437H8.09627C6.86559 4.86437 5.95441 5.20844 5.35473 5.78292Z"></path></g></g></symbol><symbol id="arrow-tail-up" width="24" height="24" viewBox="0 0 24 24" xmlns="http://www.w3.org/2000/svg"><g><path d="M11.1771 20.2928C11.2321 20.6922 11.5795 21 11.9999 21C12.4585 21 12.8302 20.6337 12.8302 20.1818V5.80007L18.0813 10.9953L18.1743 11.0747C18.4989 11.313 18.9602 11.2876 19.2556 10.9977C19.5805 10.6788 19.5816 10.1608 19.258 9.84062L12.5996 3.25226C12.5614 3.21305 12.5194 3.17756 12.474 3.14642C12.1498 2.92337 11.6999 2.95479 11.4111 3.24067L4.74193 9.84067L4.66174 9.93261C4.42125 10.2534 4.44905 10.7079 4.74446 10.9978C5.06942 11.3166 5.59515 11.3155 5.91871 10.9953L11.1696 5.79878V20.1818L11.1771 20.2928Z"></path></g></symbol><symbol id="check-circle-outline-small" width="18" height="18" viewBox="0 0 18 18" xmlns="http://www.w3.org/2000/svg"><path fill-rule="evenodd" clip-rule="evenodd" d="M9 2.625C5.47966 2.625 2.625 5.47966 2.625 9C2.625 12.5204 5.47895 15.375 9 15.375C12.5203 15.375 15.375 12.5203 15.375 9C15.375 5.47895 12.5204 2.625 9 2.625ZM1.5 9C1.5 4.85834 4.85834 1.5 9 1.5C13.1416 1.5 16.5 4.85755 16.5 9C16.5 13.1417 13.1417 16.5 9 16.5C4.85755 16.5 1.5 13.1416 1.5 9Z"></path><path fill-rule="evenodd" clip-rule="evenodd" d="M12.0674 6.82256C12.2871 7.04223 12.2871 7.39838 12.0674 7.61805L8.50793 11.1776C8.28829 11.3972 7.9322 11.3972 7.71252 11.1776L5.93202 9.39789C5.7123 9.17826 5.71223 8.82211 5.93185 8.60239C6.15147 8.38268 6.50763 8.3826 6.72735 8.60222L8.1101 9.98439L11.2719 6.82256C11.4916 6.60289 11.8478 6.60289 12.0674 6.82256Z"></path></symbol><symbol id="check-circle-outline-standard" width="24" height="24" viewBox="0 0 24 24" xmlns="http://www.w3.org/2000/svg"><path fill-rule="evenodd" clip-rule="evenodd" d="M12.0002 3.50012C7.30646 3.50012 3.50024 7.30634 3.50024 12.0001C3.50024 16.694 7.30551 20.5001 12.0002 20.5001C16.694 20.5001 20.5002 16.6939 20.5002 12.0001C20.5002 7.30539 16.6941 3.50012 12.0002 3.50012ZM2.00024 12.0001C2.00024 6.47791 6.47803 2.00012 12.0002 2.00012C17.5224 2.00012 22.0002 6.47686 22.0002 12.0001C22.0002 17.5223 17.5225 22.0001 12.0002 22.0001C6.47698 22.0001 2.00024 17.5223 2.00024 12.0001Z"></path><path fill-rule="evenodd" clip-rule="evenodd" d="M16.0901 9.09687C16.383 9.38976 16.383 9.86463 16.0901 10.1575L11.3441 14.9035C11.0513 15.1964 10.5765 15.1964 10.2836 14.9036L7.9096 12.5306C7.61665 12.2378 7.61655 11.7629 7.90938 11.47C8.20221 11.177 8.67708 11.1769 8.97004 11.4698L10.8137 13.3126L15.0295 9.09687C15.3224 8.80397 15.7973 8.80397 16.0901 9.09687Z"></path></symbol><symbol id="check" width="24" height="24" viewBox="0 0 24 24" xmlns="http://www.w3.org/2000/svg"><path fill-rule="evenodd" clip-rule="evenodd" d="M20.7803 6.21967C21.0732 6.51256 21.0732 6.98744 20.7803 7.28033L10.2803 17.7803C9.98744 18.0732 9.51256 18.0732 9.21967 17.7803L3.96967 12.5303C3.67678 12.2374 3.67678 11.7626 3.96967 11.4697C4.26256 11.1768 4.73744 11.1768 5.03033 11.4697L9.75 16.1893L19.7197 6.21967C20.0126 5.92678 20.4874 5.92678 20.7803 6.21967Z"></path></symbol><symbol id="check-circle-outline" width="20" height="20" viewBox="0 0 20 20" xmlns="http://www.w3.org/2000/svg"><path fill-rule="evenodd" clip-rule="evenodd" d="M10.0002 2.91675C6.08868 2.91675 2.91684 6.08859 2.91684 10.0001C2.91684 13.9116 6.08789 17.0834 10.0002 17.0834C13.9117 17.0834 17.0835 13.9116 17.0835 10.0001C17.0835 6.0878 13.9117 2.91675 10.0002 2.91675ZM1.66684 10.0001C1.66684 5.39824 5.39833 1.66675 10.0002 1.66675C14.602 1.66675 18.3335 5.39736 18.3335 10.0001C18.3335 14.6019 14.602 18.3334 10.0002 18.3334C5.39745 18.3334 1.66684 14.6019 1.66684 10.0001Z"></path><path fill-rule="evenodd" clip-rule="evenodd" d="M13.4084 7.5807C13.6525 7.82478 13.6525 8.22051 13.4084 8.46459L9.45343 12.4196C9.20939 12.6636 8.81373 12.6637 8.56964 12.4197L6.5913 10.4422C6.34717 10.1982 6.34709 9.80242 6.59112 9.55829C6.83514 9.31417 7.23087 9.31408 7.475 9.55811L9.01139 11.0939L12.5245 7.5807C12.7686 7.33662 13.1643 7.33662 13.4084 7.5807Z"></path></symbol><symbol id="cross" width="24" height="24" viewBox="0 0 24 24" xmlns="http://www.w3.org/2000/svg"><g><g><path fill-rule="evenodd" clip-rule="evenodd" d="M19.7732 4.22676C20.0756 4.5291 20.0756 5.01929 19.7732 5.32163L5.32163 19.7732C5.01929 20.0756 4.5291 20.0756 4.22676 19.7732C3.92441 19.4709 3.92441 18.9807 4.22676 18.6784L18.6784 4.22676C18.9807 3.92441 19.4709 3.92441 19.7732 4.22676Z"></path><path fill-rule="evenodd" clip-rule="evenodd" d="M4.22676 4.22676C4.5291 3.92441 5.01929 3.92441 5.32163 4.22676L19.7732 18.6784C20.0756 18.9807 20.0756 19.4709 19.7732 19.7732C19.4709 20.0756 18.9807 20.0756 18.6784 19.7732L4.22676 5.32163C3.92441 5.01929 3.92441 4.5291 4.22676 4.22676Z"></path></g></g></symbol><symbol id="cross-medium" width="16" height="16" viewBox="0 0 16 16" xmlns="http://www.w3.org/2000/svg"><path fill-rule="evenodd" clip-rule="evenodd" d="M13.1822 2.81784C13.3837 3.0194 13.3837 3.3462 13.1822 3.54776L3.54775 13.1822C3.34619 13.3837 3.0194 13.3837 2.81783 13.1822C2.61627 12.9806 2.61627 12.6538 2.81783 12.4522L12.4522 2.81784C12.6538 2.61628 12.9806 2.61628 13.1822 2.81784Z"></path><path fill-rule="evenodd" clip-rule="evenodd" d="M2.81783 2.81784C3.0194 2.61628 3.34619 2.61628 3.54775 2.81784L13.1822 12.4522C13.3837 12.6538 13.3837 12.9806 13.1822 13.1822C12.9806 13.3837 12.6538 13.3837 12.4522 13.1822L2.81783 3.54776C2.61627 3.3462 2.61627 3.0194 2.81783 2.81784Z"></path></symbol><symbol id="danger-fill" width="20" height="20" viewBox="0 0 20 20" xmlns="http://www.w3.org/2000/svg"><path fill-rule="evenodd" clip-rule="evenodd" d="M1.66699 9.99941C1.66699 5.40024 5.40033 1.66608 10.0003 1.66608C14.6087 1.66608 18.3337 5.40024 18.3337 9.99941C18.3337 14.6002 14.6087 18.3327 10.0003 18.3327C5.40033 18.3327 1.66699 14.6002 1.66699 9.99941ZM9.26699 6.84108C9.26699 6.44191 9.60033 6.10774 10.0003 6.10774C10.4003 6.10774 10.7253 6.44191 10.7253 6.84108V10.5244C10.7253 10.9252 10.4003 11.2494 10.0003 11.2494C9.60033 11.2494 9.26699 10.9252 9.26699 10.5244V6.84108ZM10.0087 13.9002C9.60033 13.9002 9.27533 13.5669 9.27533 13.1669C9.27533 12.7669 9.60033 12.4419 10.0003 12.4419C10.4087 12.4419 10.7337 12.7669 10.7337 13.1669C10.7337 13.5669 10.4087 13.9002 10.0087 13.9002Z"></path></symbol><symbol id="duplicate" width="18" height="18" viewBox="0 0 18 18" xmlns="http://www.w3.org/2000/svg"><path fill-rule="evenodd" clip-rule="evenodd" d="M6.25424 1.5C5.91725 1.5 5.64407 1.78376 5.64407 2.1338C5.64407 2.48384 5.91725 2.76761 6.25424 2.76761H11.9492C12.9601 2.76761 13.7797 3.6189 13.7797 4.66901V13.1197C13.7797 13.4698 14.0528 13.7535 14.3898 13.7535C14.7268 13.7535 15 13.4698 15 13.1197V4.66901C15 2.91882 13.6341 1.5 11.9492 1.5H6.25424ZM5.44068 5.09155H10.322C10.996 5.09155 11.5424 5.65908 11.5424 6.35915V13.9648C11.5424 14.6649 10.996 15.2324 10.322 15.2324H5.44068C4.7667 15.2324 4.22034 14.6649 4.22034 13.9648V6.35915C4.22034 5.65908 4.7667 5.09155 5.44068 5.09155ZM3 6.35915C3 4.959 4.09273 3.82394 5.44068 3.82394H10.322C11.67 3.82394 12.7627 4.959 12.7627 6.35915V13.9648C12.7627 15.3649 11.67 16.5 10.322 16.5H5.44068C4.09273 16.5 3 15.3649 3 13.9648V6.35915Z"></path><path fill-rule="evenodd" clip-rule="evenodd" d="M5.79944 2.55634C5.70282 2.44421 5.64407 2.29613 5.64407 2.1338C5.64407 1.78376 5.91725 1.5 6.25424 1.5H11.9492C13.6341 1.5 15 2.91882 15 4.66901V13.1197C15 13.4698 14.7268 13.7535 14.3898 13.7535C14.2336 13.7535 14.091 13.6925 13.9831 13.5921C13.8582 13.4761 13.7797 13.3074 13.7797 13.1197V4.66901C13.7797 3.6189 12.9601 2.76761 11.9492 2.76761H6.25424C6.07353 2.76761 5.91116 2.686 5.79944 2.55634ZM12.7626 13.9914C12.7627 13.9825 12.7627 13.9737 12.7627 13.9648V6.35915C12.7627 5.99831 12.6901 5.65508 12.5593 5.34435C12.3134 4.76008 11.8615 4.29071 11.299 4.03521C10.9999 3.89933 10.6694 3.82394 10.322 3.82394H5.44068C5.43213 3.82394 5.42359 3.82399 5.41506 3.82408C4.07891 3.83835 3 4.96788 3 6.35915V13.9648C3 15.3649 4.09273 16.5 5.44068 16.5H10.322C11.6614 16.5 12.7488 15.3793 12.7626 13.9914ZM5.44068 5.09155C4.7667 5.09155 4.22034 5.65908 4.22034 6.35915V13.9648C4.22034 14.6649 4.7667 15.2324 5.44068 15.2324H10.322C10.996 15.2324 11.5424 14.6649 11.5424 13.9648V6.35915C11.5424 5.65908 10.996 5.09155 10.322 5.09155H5.44068Z"></path></symbol><symbol id="eye" width="24" height="24" style="margin-top:-4px;" viewBox="0 0 24 24" xmlns="http://www.w3.org/2000/svg"><g><g><path fill-rule="evenodd" clip-rule="evenodd" d="M11.9996 9.60426C10.6696 9.60426 9.58857 10.6792 9.58857 12.0004C9.58857 13.3207 10.6696 14.3946 11.9996 14.3946C13.3296 14.3946 14.4116 13.3207 14.4116 12.0004C14.4116 10.6792 13.3296 9.60426 11.9996 9.60426ZM11.9996 15.8848C9.84257 15.8848 8.08857 14.1423 8.08857 12.0004C8.08857 9.85759 9.84257 8.11411 11.9996 8.11411C14.1566 8.11411 15.9116 9.85759 15.9116 12.0004C15.9116 14.1423 14.1566 15.8848 11.9996 15.8848Z"></path><path fill-rule="evenodd" clip-rule="evenodd" d="M3.56987 11.9996C5.42987 16.0817 8.56287 18.5086 11.9999 18.5096C15.4369 18.5086 18.5699 16.0817 20.4299 11.9996C18.5699 7.9186 15.4369 5.49165 11.9999 5.49065C8.56387 5.49165 5.42987 7.9186 3.56987 11.9996ZM11.9969 19.9998C7.86087 19.9968 4.14687 17.1168 2.06087 12.2937C1.97987 12.1059 1.97987 11.8933 2.06087 11.7056C4.14687 6.88345 7.86187 4.00348 11.9969 4.0005C11.9989 3.99951 11.9989 3.99951 11.9999 4.0005C12.0019 3.99951 12.0019 3.99951 12.0029 4.0005C16.1389 4.00348 19.8529 6.88345 21.9389 11.7056C22.0209 11.8933 22.0209 12.1059 21.9389 12.2937C19.8539 17.1168 16.1389 19.9968 12.0029 19.9998H11.9969Z"></path></g></g></symbol><symbol id="envelope" width="24" height="24" viewBox="0 0 24 24" xmlns="http://www.w3.org/2000/svg"><path fill-rule="evenodd" clip-rule="evenodd" d="M12.0251 13.5829C11.4028 13.5829 10.7823 13.3789 10.2633 12.9709L6.09116 9.63305C5.7907 9.39305 5.74419 8.95643 5.98512 8.6592C6.22791 8.36289 6.66698 8.31582 6.96651 8.55489L11.1349 11.889C11.6586 12.3007 12.3963 12.3007 12.9237 11.8854L17.0502 8.55674C17.3498 8.31397 17.7888 8.36012 18.0326 8.65735C18.2753 8.95366 18.2298 9.38935 17.9312 9.6312L13.7972 12.9654C13.2744 13.377 12.6493 13.5829 12.0251 13.5829Z"></path><path fill-rule="evenodd" clip-rule="evenodd" d="M16.5665 19.6154C16.5684 19.6135 16.5758 19.6154 16.5814 19.6154C17.6428 19.6154 18.5842 19.2388 19.306 18.5234C20.1442 17.6954 20.6047 16.5055 20.6047 15.1735V8.83385C20.6047 6.25569 18.906 4.38462 16.5665 4.38462H7.43349C5.09395 4.38462 3.39535 6.25569 3.39535 8.83385V15.1735C3.39535 16.5055 3.85674 17.6954 4.69395 18.5234C5.41581 19.2388 6.35814 19.6154 7.4186 19.6154H16.5665ZM7.41581 21C5.98047 21 4.6986 20.4831 3.70884 19.5046C2.60651 18.4135 2 16.8757 2 15.1735V8.83385C2 5.508 4.33581 3 7.43349 3H16.5665C19.6642 3 22 5.508 22 8.83385V15.1735C22 16.8757 21.3935 18.4135 20.2912 19.5046C19.3023 20.4822 18.0195 21 16.5814 21H7.41581Z"></path></symbol><symbol id="download" width="24" height="24" viewBox="0 0 24 24" xmlns="http://www.w3.org/2000/svg"><g><g><path fill-rule="evenodd" clip-rule="evenodd" d="M12.0011 16.1919C11.5871 16.1919 11.2511 15.8646 11.2511 15.4612V3.73078C11.2511 3.32746 11.5871 3.00012 12.0011 3.00012C12.4151 3.00012 12.7511 3.32746 12.7511 3.73078V15.4612C12.7511 15.8646 12.4151 16.1919 12.0011 16.1919Z"></path><path fill-rule="evenodd" clip-rule="evenodd" d="M12.0011 16.1919C11.8021 16.1919 11.6101 16.1149 11.4701 15.9766L8.55406 13.1251C8.26206 12.8387 8.26306 12.3759 8.55606 12.0915C8.85006 11.807 9.32406 11.807 9.61606 12.0934L12.0011 14.4266L14.3861 12.0934C14.6781 11.807 15.1521 11.807 15.4461 12.0915C15.7391 12.3759 15.7401 12.8387 15.4481 13.1251L12.5321 15.9766C12.3921 16.1149 12.2001 16.1919 12.0011 16.1919Z"></path><path fill-rule="evenodd" clip-rule="evenodd" d="M17.5752 21.0001H6.43524C3.99024 21.0001 2.00024 19.0624 2.00024 16.6795V11.9205C2.00024 9.54341 3.98524 7.61058 6.42624 7.61058H7.36724C7.78124 7.61058 8.11724 7.93791 8.11724 8.34123C8.11724 8.74456 7.78124 9.07189 7.36724 9.07189H6.42624C4.81224 9.07189 3.50024 10.3491 3.50024 11.9205V16.6795C3.50024 18.2567 4.81624 19.5388 6.43524 19.5388H17.5752C19.1872 19.5388 20.5002 18.2597 20.5002 16.6892V11.9312C20.5002 10.354 19.1832 9.07189 17.5662 9.07189H16.6342C16.2202 9.07189 15.8842 8.74456 15.8842 8.34123C15.8842 7.93791 16.2202 7.61058 16.6342 7.61058H17.5662C20.0112 7.61058 22.0002 9.54926 22.0002 11.9312V16.6892C22.0002 19.0663 20.0142 21.0001 17.5752 21.0001Z"></path></g></g></symbol><symbol id="error-outlined" width="18" height="18" viewBox="0 0 18 18" xmlns="http://www.w3.org/2000/svg"><path fill-rule="evenodd" clip-rule="evenodd" d="M9 2.625C5.47891 2.625 2.625 5.47891 2.625 9C2.625 12.5204 5.47895 15.375 9 15.375C12.5203 15.375 15.375 12.5203 15.375 9C15.375 5.47895 12.5204 2.625 9 2.625ZM1.5 9C1.5 4.85759 4.85759 1.5 9 1.5C13.1416 1.5 16.5 4.85755 16.5 9C16.5 13.1417 13.1417 16.5 9 16.5C4.85755 16.5 1.5 13.1416 1.5 9Z"></path><path fill-rule="evenodd" clip-rule="evenodd" d="M8.99633 5.59057C9.30699 5.59057 9.55882 5.84241 9.55882 6.15307V9.46733C9.55882 9.77799 9.30699 10.0298 8.99633 10.0298C8.68566 10.0298 8.43383 9.77799 8.43383 9.46733V6.15307C8.43383 5.84241 8.68566 5.59057 8.99633 5.59057Z"></path><path fill-rule="evenodd" clip-rule="evenodd" d="M8.24617 11.847C8.24617 11.4328 8.58196 11.097 8.99617 11.097H9.00367C9.41789 11.097 9.75368 11.4328 9.75368 11.847C9.75368 12.2612 9.41789 12.597 9.00367 12.597H8.99617C8.58196 12.597 8.24617 12.2612 8.24617 11.847Z"></path></symbol><symbol id="info-circle-fill-medium" width="20" height="20" viewBox="0 0 20 20" xmlns="http://www.w3.org/2000/svg"><path d="M10 2C5.58179 2 2 5.58179 2 10C2 14.4188 5.5821 18 10.0003 18C14.4188 18 18 14.4188 18 10C18 5.58179 14.4188 2 10 2ZM10.3384 5.16452C10.9191 5.16452 11.3897 5.63545 11.3897 6.21621C11.3897 6.79697 10.9191 7.26789 10.3384 7.26789C9.7576 7.26789 9.28667 6.79697 9.28667 6.21621C9.28667 5.63545 9.7576 5.16452 10.3384 5.16452ZM11.2811 14.4693C11.2811 14.4693 10.4526 15.164 9.40882 14.6401C9.17715 14.5243 8.98146 14.3232 8.85647 14.1019C8.50201 13.4751 8.63837 12.8025 8.63837 12.8025L8.74252 11.9777L9.01302 9.82703L8.27634 9.84313C7.93135 9.85102 7.64665 9.57737 7.63908 9.2327C7.63308 8.96504 7.79878 8.73274 8.03425 8.639L9.92204 7.89568C10.3715 7.71861 10.879 7.93956 11.0558 8.38902C11.1233 8.55977 11.1331 8.73779 11.0946 8.90381L11.0697 9.01586L10.3314 12.2577L10.1471 13.0683C10.1199 13.1904 10.1158 13.2182 10.1079 13.2823C10.0881 13.6471 10.607 13.3735 10.607 13.3735C10.9185 13.2015 11.3105 13.3154 11.4816 13.6269C11.6429 13.9195 11.5494 14.2838 11.2811 14.4693Z"></path></symbol><symbol id="line" width="21" height="49" viewBox="0 0 21 49" xmlns="http://www.w3.org/2000/svg"><path d="M21 46L16 48.8867V43.1132L21 46ZM1 46V46.5H0.5V46H1ZM16.5 46.5H1V45.5H16.5V46.5ZM0.5 46V0H1.5V46H0.5Z"></path></symbol><symbol id="check-medium" width="20" height="20" viewBox="0 0 20 20" xmlns="http://www.w3.org/2000/svg"><path fill-rule="evenodd" clip-rule="evenodd" d="M17.3169 5.18306C17.561 5.42714 17.561 5.82286 17.3169 6.06694L8.56694 14.8169C8.32286 15.061 7.92714 15.061 7.68306 14.8169L3.30806 10.4419C3.06398 10.1979 3.06398 9.80214 3.30806 9.55806C3.55214 9.31398 3.94786 9.31398 4.19194 9.55806L8.125 13.4911L16.4331 5.18306C16.6771 4.93898 17.0729 4.93898 17.3169 5.18306Z"></path></symbol><symbol id="gear" width="24" height="24" viewBox="0 0 24 24" xmlns="http://www.w3.org/2000/svg"><g><g><path fill-rule="evenodd" clip-rule="evenodd" d="M12.0008 13.5C12.8293 13.5 13.5008 12.8284 13.5008 12C13.5008 11.1716 12.8293 10.5 12.0008 10.5C11.1724 10.5 10.5008 11.1716 10.5008 12C10.5008 12.8284 11.1724 13.5 12.0008 13.5ZM12.0008 15C13.6577 15 15.0008 13.6569 15.0008 12C15.0008 10.3431 13.6577 9 12.0008 9C10.344 9 9.00083 10.3431 9.00083 12C9.00083 13.6569 10.344 15 12.0008 15Z"></path><path fill-rule="evenodd" clip-rule="evenodd" d="M2.84055 7.86603C2.28826 8.82261 2.61601 10.0458 3.5726 10.5981L4.53396 11.1531C4.83283 11.3257 5.00083 11.6549 5.00083 12C5.00083 12.3451 4.83283 12.6744 4.53394 12.8469L3.57265 13.4019C2.61606 13.9542 2.28831 15.1774 2.8406 16.134L3.8406 17.866C4.39288 18.8226 5.61606 19.1504 6.57265 18.5981L7.53291 18.0437C7.83217 17.8709 8.20075 17.8899 8.49984 18.063C8.7985 18.2358 9.00083 18.5463 9.00083 18.8913V20C9.00083 21.1046 9.89626 22 11.0008 22H13.0008C14.1054 22 15.0008 21.1046 15.0008 20V18.8913C15.0008 18.5463 15.2031 18.2358 15.5018 18.063C15.8009 17.8899 16.1695 17.8709 16.4687 18.0437L17.429 18.5981C18.3856 19.1504 19.6088 18.8226 20.1611 17.866L21.1611 16.134C21.7133 15.1774 21.3856 13.9542 20.429 13.4019L19.4677 12.8469C19.1688 12.6744 19.0008 12.3451 19.0008 12C19.0008 11.6549 19.1688 11.3257 19.4677 11.1531L20.4291 10.5981C21.3856 10.0458 21.7134 8.82261 21.1611 7.86603L20.1611 6.13398C19.6088 5.17739 18.3856 4.84964 17.4291 5.40192L16.4688 5.95634C16.1695 6.12912 15.8009 6.11014 15.5018 5.93705C15.2032 5.76421 15.0008 5.45373 15.0008 5.10865V4C15.0008 2.89543 14.1054 2 13.0008 2H11.0008C9.89626 2 9.00083 2.89543 9.00083 4V5.10865C9.00083 5.45373 8.7985 5.76421 8.49983 5.93705C8.20073 6.11014 7.83214 6.12912 7.53287 5.95634L6.5726 5.40192C5.61601 4.84964 4.39283 5.17739 3.84055 6.13398L2.84055 7.86603ZM11.0008 3.5C10.7247 3.5 10.5008 3.72386 10.5008 4V5.10865C10.5008 6.05683 9.9514 6.8301 9.25113 7.23534C8.54537 7.64376 7.60164 7.72809 6.78287 7.25538L5.8226 6.70096C5.58345 6.56289 5.27766 6.64483 5.13959 6.88398L4.13959 8.61603C4.00152 8.85517 4.08345 9.16097 4.3226 9.29904L5.28396 9.85408C6.10274 10.3268 6.50083 11.1867 6.50083 12C6.50083 12.8133 6.10274 13.6732 5.28394 14.146L4.32265 14.701C4.0835 14.839 4.00156 15.1448 4.13964 15.384L5.13964 17.116C5.27771 17.3552 5.5835 17.4371 5.82265 17.299L6.78291 16.7446C7.60166 16.2719 8.54538 16.3563 9.25114 16.7647C9.9514 17.1699 10.5008 17.9432 10.5008 18.8913V20C10.5008 20.2761 10.7247 20.5 11.0008 20.5H13.0008C13.277 20.5 13.5008 20.2761 13.5008 20V18.8913C13.5008 17.9432 14.0503 17.1699 14.7505 16.7647C15.4563 16.3563 16.4 16.2719 17.2187 16.7446L18.179 17.299C18.4182 17.4371 18.7239 17.3552 18.862 17.116L19.862 15.384C20.0001 15.1448 19.9182 14.839 19.679 14.701L18.7177 14.146C17.8989 13.6732 17.5008 12.8133 17.5008 12C17.5008 11.1867 17.8989 10.3268 18.7177 9.85408L19.6791 9.29904C19.9182 9.16097 20.0001 8.85517 19.8621 8.61603L18.8621 6.88397C18.724 6.64483 18.4182 6.56289 18.1791 6.70096L17.2188 7.25538C16.4 7.72809 15.4563 7.64376 14.7505 7.23534C14.0503 6.8301 13.5008 6.05682 13.5008 5.10865V4C13.5008 3.72386 13.277 3.5 13.0008 3.5H11.0008Z"></path></g></g><defs><linearGradient x1="9.49323" y1="0.461538" x2="18.1423" y2="26.1375" gradientUnits="userSpaceOnUse"><stop stop-color="#FF3366"></stop><stop offset="1" stop-color="#FE5196"></stop></linearGradient><linearGradient x1="9.49323" y1="0.461538" x2="18.1423" y2="26.1375" gradientUnits="userSpaceOnUse"><stop stop-color="#FF3366"></stop><stop offset="1" stop-color="#FE5196"></stop></linearGradient></defs></symbol><symbol id="eye-slash" width="24" height="24" viewBox="0 0 24 24" xmlns="http://www.w3.org/2000/svg"><g><g><path fill-rule="evenodd" clip-rule="evenodd" d="M12 9.48371C13.3373 9.48371 14.414 10.6057 14.414 12.0012C14.414 12.697 14.1491 13.3131 13.7091 13.7708C13.416 14.0758 13.4156 14.5706 13.7082 14.8761C14.0008 15.1815 14.4757 15.182 14.7689 14.877C15.4789 14.1385 15.914 13.1291 15.914 12.0012C15.914 9.74343 14.1667 7.92067 12 7.92067C10.9297 7.92067 9.93982 8.37221 9.2355 9.11783C8.94493 9.42543 8.94868 9.92025 9.24388 10.223C9.53907 10.5258 10.0139 10.5219 10.3045 10.2143C10.7302 9.76367 11.3363 9.48371 12 9.48371Z"></path><path fill-rule="evenodd" clip-rule="evenodd" d="M8.76205 11.8168C8.35437 11.8932 8.08332 12.2995 8.15664 12.7243C8.44401 14.3893 9.7007 15.7016 11.2978 16.0037C11.7054 16.0808 12.0958 15.799 12.1697 15.3744C12.2437 14.9497 11.9733 14.5429 11.5658 14.4658C10.5849 14.2803 9.8096 13.471 9.63296 12.4476C9.55964 12.0228 9.16972 11.7404 8.76205 11.8168Z"></path><path fill-rule="evenodd" clip-rule="evenodd" d="M12 5.17232C13.7119 5.17232 15.3819 5.81188 16.8506 7.02307L16.8524 7.02454C18.2663 8.18335 19.4998 9.86971 20.4301 12.0016C19.5094 14.1221 18.2852 15.7972 16.8818 16.9453C16.5561 17.2118 16.4993 17.7031 16.7551 18.0426C17.0109 18.3821 17.4824 18.4412 17.8082 18.1746C19.5113 16.7812 20.9252 14.7705 21.9392 12.309C22.0205 12.1116 22.0203 11.8881 21.9386 11.6909C20.9148 9.22008 19.4925 7.19998 17.7805 5.79667C16.0754 4.39076 14.0838 3.60927 12 3.60927C9.90224 3.60927 7.91152 4.40334 6.19831 5.81743C5.87362 6.08543 5.8189 6.57697 6.07609 6.9153C6.33328 7.25364 6.80499 7.31066 7.12969 7.04266C8.61047 5.82042 10.2798 5.17232 12 5.17232Z"></path><path fill-rule="evenodd" clip-rule="evenodd" d="M5.00305 8.09759C4.67211 7.83801 4.20189 7.90714 3.95279 8.25198C3.22532 9.25903 2.59154 10.4131 2.06161 11.69C1.97953 11.8878 1.97946 12.1121 2.06141 12.3099C4.10328 17.2392 7.79695 20.3906 12 20.3906C12.9447 20.3906 13.8758 20.2308 14.7694 19.9201C15.1623 19.7834 15.3746 19.3408 15.2434 18.9313C15.1123 18.5219 14.6875 18.3008 14.2946 18.4374C13.5522 18.6956 12.7813 18.8276 12 18.8276C8.66698 18.8276 5.47968 16.3743 3.5704 12.0004C4.02931 10.9501 4.56023 10.0101 5.15121 9.19199C5.40032 8.84715 5.33398 8.35717 5.00305 8.09759Z"></path><path fill-rule="evenodd" clip-rule="evenodd" d="M3.58227 3.2289C3.28938 3.53411 3.28938 4.02894 3.58227 4.33414L19.3563 20.7711C19.6492 21.0763 20.124 21.0763 20.4169 20.7711C20.7098 20.4659 20.7098 19.9711 20.4169 19.6659L4.64293 3.2289C4.35004 2.9237 3.87516 2.9237 3.58227 3.2289Z"></path></g></g></symbol><symbol id="open-in-new-tab-standard" width="24" height="24" viewBox="0 0 24 24" xmlns="http://www.w3.org/2000/svg"><g><g><path fill-rule="evenodd" clip-rule="evenodd" d="M16.3397 22H7.65934C4.27436 22 2 19.6244 2 16.0891V7.91088C2 4.37557 4.27436 2 7.65934 2H11.3375C11.7447 2 12.0753 2.33051 12.0753 2.73775C12.0753 3.14499 11.7447 3.47551 11.3375 3.47551H7.65934C5.11741 3.47551 3.47558 5.2166 3.47558 7.91088V16.0891C3.47558 18.7834 5.11741 20.5245 7.65934 20.5245H16.3397C18.8816 20.5245 20.5244 18.7834 20.5244 16.0891V12.1269C20.5244 11.7197 20.855 11.3891 21.2622 11.3891C21.6695 11.3891 22 11.7197 22 12.1269V16.0891C22 19.6244 19.7247 22 16.3397 22Z"></path><path fill-rule="evenodd" clip-rule="evenodd" d="M12.2192 11.7808C11.9269 11.4884 11.9269 11.0139 12.2192 10.7216L20.7216 2.21925C21.0139 1.92692 21.4884 1.92692 21.7808 2.21925C22.0731 2.51158 22.0731 2.98609 21.7808 3.27842L13.2784 11.7808C12.9861 12.0731 12.5116 12.0731 12.2192 11.7808Z"></path><path fill-rule="evenodd" clip-rule="evenodd" d="M16.2336 3.37441C16.0897 3.23051 16 3.03086 16 2.81087C15.9992 2.37014 16.3549 2.01153 16.7972 2.01078L21.1998 2.00098C21.6248 1.99947 22.0015 2.37617 22 2.80108L21.991 7.20389C21.9894 7.64538 21.6315 8.00173 21.1908 8.00098C20.7492 7.99947 20.3921 7.64236 20.3936 7.20088L20.4003 3.60043L16.8002 3.60796C16.5787 3.60947 16.3783 3.51906 16.2336 3.37441Z"></path></g></g></symbol><symbol id="open-in-new-tab" width="16" height="16" viewBox="0 0 16 16" xmlns="http://www.w3.org/2000/svg"><path fill-rule="evenodd" clip-rule="evenodd" d="M10.8928 14.6663H5.1059C2.84925 14.6663 1.33301 13.0826 1.33301 10.7258V5.27359C1.33301 2.91672 2.84925 1.33301 5.1059 1.33301H7.55798C7.82949 1.33301 8.04984 1.55335 8.04984 1.82484C8.04984 2.09634 7.82949 2.31668 7.55798 2.31668H5.1059C3.41128 2.31668 2.31673 3.47741 2.31673 5.27359V10.7258C2.31673 12.5219 3.41128 13.6827 5.1059 13.6827H10.8928C12.5874 13.6827 13.6826 12.5219 13.6826 10.7258V8.08427C13.6826 7.81278 13.903 7.59243 14.1745 7.59243C14.446 7.59243 14.6663 7.81278 14.6663 8.08427V10.7258C14.6663 13.0826 13.1494 14.6663 10.8928 14.6663Z"></path><path fill-rule="evenodd" clip-rule="evenodd" d="M8.14584 7.85351C7.95095 7.65862 7.95095 7.34228 8.14584 7.14739L13.8141 1.47917C14.0089 1.28429 14.3253 1.28429 14.5202 1.47917C14.7151 1.67406 14.7151 1.9904 14.5202 2.18529L8.85196 7.85351C8.65707 8.0484 8.34073 8.0484 8.14584 7.85351Z"></path><path fill-rule="evenodd" clip-rule="evenodd" d="M10.8221 2.24928C10.7261 2.15335 10.6663 2.02025 10.6663 1.87359C10.6658 1.57977 10.9029 1.34069 11.1978 1.34019L14.1329 1.33366C14.4162 1.33266 14.6673 1.58379 14.6663 1.86706L14.6603 4.80227C14.6593 5.09659 14.4207 5.33416 14.1268 5.33366C13.8325 5.33265 13.5944 5.09458 13.5954 4.80026L13.5999 2.39996L11.1998 2.40498C11.0521 2.40599 10.9185 2.34572 10.8221 2.24928Z"></path></symbol><symbol id="info" width="16" height="16" viewBox="0 0 16 16" xmlns="http://www.w3.org/2000/svg"><path d="M8 0C3.58179 0 0 3.58179 0 8C0 12.4188 3.5821 16 8.00032 16C12.4188 16 16 12.4188 16 8C16 3.58179 12.4188 0 8 0ZM8.33836 3.16452C8.91912 3.16452 9.38973 3.63545 9.38973 4.21621C9.38973 4.79697 8.91912 5.26789 8.33836 5.26789C7.75759 5.26789 7.28667 4.79697 7.28667 4.21621C7.28667 3.63545 7.75759 3.16452 8.33836 3.16452ZM9.28115 12.4693C9.28115 12.4693 8.45262 13.164 7.40882 12.6401C7.17715 12.5243 6.98146 12.3232 6.85647 12.1019C6.50201 11.4751 6.63837 10.8025 6.63837 10.8025L6.74252 9.97775L7.01302 7.82703L6.27634 7.84313C5.93135 7.85102 5.64665 7.57737 5.63908 7.2327C5.63308 6.96504 5.79878 6.73274 6.03425 6.639L7.92204 5.89568C8.3715 5.71861 8.87903 5.93956 9.05579 6.38902C9.12333 6.55977 9.13312 6.73779 9.09461 6.90381L9.06968 7.01586L8.33141 10.2577L8.14708 11.0683C8.11994 11.1904 8.11584 11.2182 8.10795 11.2823C8.08806 11.6471 8.60696 11.3735 8.60696 11.3735C8.91849 11.2015 9.3105 11.3154 9.48158 11.6269C9.64286 11.9195 9.54944 12.2838 9.28115 12.4693Z"></path></symbol><symbol id="list" width="24" height="24" viewBox="0 0 24 24" xmlns="http://www.w3.org/2000/svg"><g><g><path fill-rule="evenodd" clip-rule="evenodd" d="M7.5731 3.51166C5.9161 3.51166 4.5401 4.85366 4.5011 6.50866V17.2037C4.4641 18.9167 5.8141 20.3277 7.5101 20.3657H15.5741C17.2431 20.2967 18.5651 18.9097 18.5531 17.2097V8.33966L13.9181 3.51166H7.5731ZM7.4761 21.8657C4.9541 21.8087 2.9461 19.7107 3.0011 17.1877V6.49066C3.0591 4.00966 5.1081 2.01166 7.5711 2.01166H14.2381C14.4421 2.01166 14.6371 2.09466 14.7791 2.24166L19.8441 7.51866C19.9781 7.65766 20.0531 7.84466 20.0531 8.03766V17.2037C20.0711 19.7127 18.1171 21.7627 15.6041 21.8647L7.4761 21.8657Z"></path><path fill-rule="evenodd" clip-rule="evenodd" d="M19.2983 8.98424H16.5433C14.7133 8.97924 13.2253 7.48724 13.2253 5.65924V2.75024C13.2253 2.33624 13.5613 2.00024 13.9753 2.00024C14.3893 2.00024 14.7253 2.33624 14.7253 2.75024V5.65924C14.7253 6.66324 15.5423 7.48124 16.5453 7.48424H19.2983C19.7123 7.48424 20.0483 7.82024 20.0483 8.23424C20.0483 8.64824 19.7123 8.98424 19.2983 8.98424Z"></path><path fill-rule="evenodd" clip-rule="evenodd" d="M13.7885 16.1083H8.38846C7.97446 16.1083 7.63846 15.7723 7.63846 15.3583C7.63846 14.9443 7.97446 14.6083 8.38846 14.6083H13.7885C14.2025 14.6083 14.5385 14.9443 14.5385 15.3583C14.5385 15.7723 14.2025 16.1083 13.7885 16.1083Z"></path><path fill-rule="evenodd" clip-rule="evenodd" d="M11.7436 12.3563H8.38756C7.97356 12.3563 7.63756 12.0203 7.63756 11.6063C7.63756 11.1923 7.97356 10.8563 8.38756 10.8563H11.7436C12.1576 10.8563 12.4936 11.1923 12.4936 11.6063C12.4936 12.0203 12.1576 12.3563 11.7436 12.3563Z"></path></g></g></symbol><symbol id="tabs" width="24" height="24" viewBox="0 0 24 24" xmlns="http://www.w3.org/2000/svg"><path fill-rule="evenodd" clip-rule="evenodd" d="M3.25313 7.10766C4.08345 6.21696 5.26423 5.72093 6.65249 5.72093H13.6266C15.0179 5.72093 16.1991 6.21668 17.0289 7.10799C17.8535 7.99366 18.2791 9.21313 18.2791 10.575V17.1459C18.2791 18.5078 17.8535 19.7273 17.0289 20.6129C16.1991 21.5043 15.0179 22 13.6266 22H6.65249C5.26113 22 4.07998 21.5043 3.25017 20.6129C2.4256 19.7273 2 18.5078 2 17.1459V10.575C2 9.21228 2.42788 7.99292 3.25313 7.10766ZM4.27378 8.05912C3.72937 8.64311 3.39535 9.50195 3.39535 10.575V17.1459C3.39535 18.2198 3.72811 19.0786 4.27143 19.6621C4.8095 20.2401 5.60575 20.6047 6.65249 20.6047H13.6266C14.6733 20.6047 15.4696 20.2401 16.0076 19.6621C16.551 19.0786 16.8837 18.2198 16.8837 17.1459V10.575C16.8837 9.5011 16.551 8.64237 16.0076 8.05879C15.4696 7.48084 14.6733 7.11628 13.6266 7.11628H6.65249C5.60974 7.11628 4.81312 7.48056 4.27378 8.05912Z"></path><path fill-rule="evenodd" clip-rule="evenodd" d="M7.01377 3.12968C7.86421 2.3526 9.04143 2 10.3734 2H17.3475C18.7389 2 19.92 2.49575 20.7498 3.38706C21.5744 4.27273 22 5.4922 22 6.85407V13.425C22 14.7578 21.6492 15.9741 20.8874 16.8689C20.1124 17.7791 18.9773 18.2791 17.5814 18.2791C17.1961 18.2791 16.8837 17.9667 16.8837 17.5814C16.8837 17.1961 17.1961 16.8837 17.5814 16.8837C18.6236 16.8837 19.3489 16.5234 19.8249 15.9643C20.3141 15.3898 20.6047 14.5279 20.6047 13.425V6.85407C20.6047 5.78017 20.2719 4.92144 19.7286 4.33786C19.1905 3.75991 18.3942 3.39535 17.3475 3.39535H10.3734C9.27441 3.39535 8.47422 3.68533 7.955 4.15977C7.44543 4.62539 7.11628 5.35098 7.11628 6.4186C7.11628 6.80392 6.80392 7.11628 6.4186 7.11628C6.03329 7.11628 5.72093 6.80392 5.72093 6.4186C5.72093 5.05045 6.15369 3.91558 7.01377 3.12968Z"></path></symbol><symbol id="question-square-outline" width="24" height="24" viewBox="0 0 24 24" xmlns="http://www.w3.org/2000/svg"><g><g><path fill-rule="evenodd" clip-rule="evenodd" d="M3.526 3.6865C4.53348 2.60562 5.96871 2 7.665 2H16.334C18.0343 2 19.4701 2.6053 20.4771 3.68678C21.4785 4.76222 22 6.2476 22 7.916V16.084C22 17.7524 21.4785 19.2378 20.477 20.3133C19.4698 21.3948 18.0337 22 16.333 22H7.665C5.9647 22 4.52906 21.3947 3.52228 20.3131C2.52115 19.2377 2 17.7523 2 16.084V7.916C2 6.24677 2.52396 4.76152 3.526 3.6865ZM4.62325 4.70925C3.92304 5.46048 3.5 6.55823 3.5 7.916V16.084C3.5 17.4427 3.92135 18.5403 4.62022 19.2911C5.31344 20.0358 6.3353 20.5 7.665 20.5H16.333C17.6633 20.5 18.6857 20.0357 19.3793 19.291C20.0785 18.5402 20.5 17.4426 20.5 16.084V7.916C20.5 6.5574 20.0785 5.45978 19.3794 4.70897C18.6859 3.9642 17.6637 3.5 16.334 3.5H7.665C6.34029 3.5 5.31802 3.96388 4.62325 4.70925Z"></path><path d="M14.9328 9.95232C14.9328 11.5544 13.6705 12.71 13.0506 13.2776L13.0385 13.2887L12.8605 13.4481C12.7587 13.6291 12.7063 13.8336 12.7085 14.0413C12.7085 14.2379 12.6304 14.4265 12.4914 14.5655C12.3523 14.7046 12.1638 14.7827 11.9671 14.7827C11.7705 14.7827 11.5819 14.7046 11.4429 14.5655C11.3038 14.4265 11.2257 14.2379 11.2257 14.0413C11.2186 13.4431 11.4279 12.8624 11.8151 12.4064C11.8707 12.3471 11.9486 12.2767 12.0413 12.1914C12.5009 11.7799 13.45 10.9199 13.45 9.96715C13.4631 9.76903 13.4337 9.57039 13.3638 9.38454C13.2939 9.19869 13.1851 9.02992 13.0448 8.88952C12.9044 8.74912 12.7356 8.64034 12.5497 8.57046C12.3639 8.50057 12.1652 8.4712 11.9671 8.48431C11.769 8.4712 11.5704 8.50057 11.3845 8.57046C11.1987 8.64034 11.0299 8.74912 10.8895 8.88952C10.7491 9.02992 10.6403 9.19869 10.5704 9.38454C10.5006 9.57039 10.4712 9.76903 10.4843 9.96715C10.4843 10.1638 10.4062 10.3524 10.2671 10.4914C10.1281 10.6305 9.9395 10.7086 9.74286 10.7086C9.54623 10.7086 9.35765 10.6305 9.2186 10.4914C9.07956 10.3524 9.00144 10.1638 9.00144 9.96715C8.98855 9.57421 9.05644 9.1828 9.20092 8.81715C9.3454 8.45151 9.56338 8.11941 9.84138 7.8414C10.1194 7.5634 10.4515 7.34542 10.8171 7.20094C11.1828 7.05647 11.5742 6.98857 11.9671 7.00147C12.3588 6.98868 12.7489 7.05614 13.1135 7.19972C13.4781 7.34329 13.8095 7.55994 14.0873 7.83633C14.3651 8.11273 14.5834 8.44303 14.7288 8.80692C14.8742 9.17081 14.9436 9.5606 14.9328 9.95232Z"></path><path d="M12.3786 15.639C12.3387 15.612 12.2965 15.5884 12.2526 15.5686C12.2068 15.5511 12.1597 15.5375 12.1117 15.5278C12.003 15.5062 11.8908 15.5092 11.7834 15.5366C11.676 15.5641 11.5762 15.6152 11.4912 15.6864C11.4062 15.7575 11.3382 15.8468 11.2923 15.9476C11.2463 16.0485 11.2236 16.1584 11.2257 16.2692C11.2202 16.3173 11.2202 16.3658 11.2257 16.4138C11.2354 16.4618 11.249 16.5089 11.2665 16.5547C11.2863 16.5986 11.3099 16.6408 11.3369 16.6807C11.3633 16.7214 11.3931 16.7599 11.4259 16.7956C11.4981 16.8635 11.5833 16.9162 11.6762 16.9505C11.7692 16.9849 11.8681 17.0003 11.9671 16.9958C12.0152 17.0013 12.0637 17.0013 12.1117 16.9958C12.1601 16.9879 12.2074 16.9742 12.2526 16.955C12.2972 16.9367 12.3396 16.913 12.3786 16.8846C12.4628 16.8351 12.533 16.7649 12.5825 16.6807C12.6109 16.6417 12.6346 16.5993 12.6529 16.5547C12.6721 16.5095 12.6858 16.4622 12.6937 16.4138C12.6992 16.3658 12.6992 16.3173 12.6937 16.2692C12.6943 16.1716 12.6756 16.0749 12.6387 15.9846C12.6018 15.8942 12.5474 15.8121 12.4787 15.7428C12.4483 15.7055 12.4148 15.6708 12.3786 15.639Z"></path></g></g></symbol><symbol id="twopeople" width="24" height="24" viewBox="0 0 24 24" xmlns="http://www.w3.org/2000/svg"><g><g><path fill-rule="evenodd" clip-rule="evenodd" d="M3.83978 17.1547C3.61893 17.3861 3.5 17.6567 3.5 18.0188C3.5 18.3791 3.61892 18.647 3.83994 18.8761C4.07884 19.1238 4.4646 19.3518 5.0251 19.5392C6.1537 19.9166 7.76258 20.0568 9.592 20.0568C11.4301 20.0568 13.0382 19.9115 14.1633 19.5299C14.722 19.3404 15.1063 19.1106 15.3444 18.8614C15.5652 18.6304 15.684 18.3604 15.684 17.9988C15.684 17.6388 15.5651 17.3706 15.3437 17.141C15.1046 16.8929 14.7185 16.6644 14.158 16.4765C13.0293 16.0981 11.4205 15.9568 9.592 15.9568C7.75361 15.9568 6.14567 16.1027 5.02075 16.4851C4.46223 16.675 4.07793 16.9052 3.83978 17.1547ZM4.538 15.0649C5.90633 14.5998 7.71939 14.4568 9.592 14.4568C11.4525 14.4568 13.2647 14.5949 14.6348 15.0543C15.3236 15.2852 15.9564 15.6152 16.4237 16.0999C16.9088 16.6032 17.184 17.2423 17.184 17.9988C17.184 18.7536 16.9113 19.3929 16.4289 19.8977C15.9638 20.3844 15.3332 20.717 14.6452 20.9504C13.2768 21.4145 11.4639 21.5568 9.592 21.5568C7.73142 21.5568 5.9193 21.4199 4.5494 20.9618C3.86065 20.7315 3.22779 20.4021 2.76037 19.9176C2.27508 19.4145 2 18.7754 2 18.0188C2 17.2639 2.27245 16.6244 2.75462 16.1191C3.21951 15.632 3.8499 15.2988 4.538 15.0649Z"></path><path fill-rule="evenodd" clip-rule="evenodd" d="M9.592 3.99976C7.58399 3.99976 5.956 5.62719 5.956 7.63476C5.956 9.64232 7.58399 11.2698 9.592 11.2698H9.62143C11.62 11.2616 13.2345 9.63558 13.227 7.63755L13.227 7.63476C13.227 5.62708 11.5989 3.99976 9.592 3.99976ZM4.456 7.63476C4.456 4.79832 6.75601 2.49976 9.592 2.49976C12.4266 2.49976 14.7262 4.7976 14.727 7.63322C14.7369 10.4602 12.4522 12.7592 9.6258 12.7698L9.623 12.7698H9.592C6.75601 12.7698 4.456 10.4712 4.456 7.63476Z"></path><path fill-rule="evenodd" clip-rule="evenodd" d="M15.8185 4.24217C15.8855 3.83342 16.2712 3.55641 16.68 3.62344C18.6036 3.93893 20.0706 5.60722 20.0706 7.61956L20.0706 7.62091C20.0669 9.66255 18.5535 11.348 16.588 11.6243C16.1778 11.6819 15.7985 11.3961 15.7409 10.9859C15.6833 10.5758 15.969 10.1965 16.3792 10.1389C17.6155 9.96511 18.568 8.90293 18.5706 7.61887C18.5703 6.35351 17.6474 5.30215 16.4372 5.10367C16.0285 5.03663 15.7514 4.65092 15.8185 4.24217Z"></path><path fill-rule="evenodd" clip-rule="evenodd" d="M17.8541 14.6217C17.9151 14.212 18.2967 13.9293 18.7064 13.9903C19.5225 14.1119 20.3073 14.3264 20.906 14.7192C21.5423 15.1368 21.9799 15.7705 21.9799 16.6272C21.9799 17.1957 21.7854 17.6902 21.4336 18.0879C21.0956 18.4698 20.6424 18.7299 20.1622 18.9123C19.775 19.0594 19.3419 18.8647 19.1948 18.4775C19.0477 18.0903 19.2424 17.6571 19.6296 17.51C19.9734 17.3794 20.1872 17.233 20.3102 17.0939C20.4193 16.9706 20.4799 16.8296 20.4799 16.6272C20.4799 16.3638 20.376 16.1655 20.0831 15.9733C19.7525 15.7564 19.2203 15.5834 18.4854 15.474C18.0757 15.413 17.7931 15.0314 17.8541 14.6217Z"></path></g></g></symbol><symbol id="synced" width="24" height="24" viewBox="0 0 24 24" xmlns="http://www.w3.org/2000/svg"><g><g><path d="M12.3639 4C15.899 4 18.8505 6.64801 19.5484 10.1744L20.6379 7.97149L20.7005 7.86634C20.9092 7.57229 21.2944 7.47372 21.6125 7.65084C21.9659 7.84764 22.1025 8.31028 21.9176 8.68418L19.2338 14.1114L14.9468 10.2106L14.8558 10.1115C14.6397 9.82959 14.6375 9.41629 14.8681 9.13163L14.9613 9.03545C15.2269 8.80721 15.617 8.80586 15.8863 9.05087L18.2346 11.1875C17.9534 8.01384 15.4323 5.5303 12.3639 5.5303C10.9241 5.5303 9.60473 6.07718 8.58081 6.98563C8.3051 7.23025 7.99411 7.55556 7.56969 7.11111C7.14526 6.66667 7.37957 6.06188 7.56965 5.88801C8.85587 4.7115 10.5315 4 12.3639 4Z"></path><path d="M11.6361 20C8.10095 20 5.14948 17.352 4.45162 13.8257L3.36214 16.0285L3.29946 16.1337C3.09081 16.4277 2.70555 16.5263 2.38751 16.3492C2.03413 16.1524 1.89754 15.6897 2.08243 15.3158L4.76621 9.88858L9.05319 13.7894L9.14422 13.8885C9.36031 14.1704 9.36254 14.5837 9.13194 14.8684L9.03867 14.9646C8.7731 15.1928 8.38298 15.1941 8.11372 14.9491L5.76543 12.8125C6.04665 15.9862 8.56766 18.4697 11.6361 18.4697C13.0759 18.4697 14.3953 17.9228 15.4192 17.0144C15.6949 16.7697 16.0059 16.4444 16.4303 16.8889C16.8547 17.3333 16.6204 17.9381 16.4303 18.112C15.1441 19.2885 13.4685 20 11.6361 20Z"></path></g></g></symbol><symbol id="cross-small" width="12" height="12" viewBox="0 0 12 12" xmlns="http://www.w3.org/2000/svg"><path fill-rule="evenodd" clip-rule="evenodd" d="M10.2656 1.76809C10.4118 1.91483 10.4113 2.15226 10.2646 2.29842L2.26565 10.2658C2.11891 10.4119 1.88148 10.4115 1.73532 10.2647C1.58916 10.118 1.58963 9.88055 1.73637 9.73439L9.73531 1.76704C9.88205 1.62089 10.1195 1.62136 10.2656 1.76809Z"></path><path fill-rule="evenodd" clip-rule="evenodd" d="M1.73382 1.73585C1.87971 1.58885 2.11714 1.58794 2.26415 1.73382L10.2641 9.67274C10.4112 9.81862 10.4121 10.0561 10.2662 10.2031C10.1203 10.3501 9.88286 10.351 9.73585 10.2051L1.73585 2.26618C1.58885 2.1203 1.58794 1.88286 1.73382 1.73585Z"></path></symbol><symbol id="info-circle-fill" width="16" height="16" viewBox="0 0 16 16" xmlns="http://www.w3.org/2000/svg"><g><path d="M7.99961 1.6001C4.46504 1.6001 1.59961 4.46553 1.59961 8.0001C1.59961 11.5352 4.46529 14.4001 7.99986 14.4001C11.5347 14.4001 14.3996 11.5352 14.3996 8.0001C14.3996 4.46553 11.5347 1.6001 7.99961 1.6001ZM8.2703 4.13172C8.7349 4.13172 9.11139 4.50845 9.11139 4.97306C9.11139 5.43767 8.7349 5.81441 8.2703 5.81441C7.80569 5.81441 7.42895 5.43767 7.42895 4.97306C7.42895 4.50845 7.80569 4.13172 8.2703 4.13172ZM9.02453 11.5756C9.02453 11.5756 8.3617 12.1313 7.52667 11.7122C7.34133 11.6195 7.18477 11.4587 7.08478 11.2817C6.80122 10.7802 6.9103 10.2421 6.9103 10.2421L6.99363 9.5823L7.21002 7.86172L6.62068 7.8746C6.34469 7.88091 6.11693 7.66199 6.11087 7.38626C6.10607 7.17213 6.23864 6.98629 6.42701 6.91129L7.93724 6.31664C8.29681 6.17499 8.70284 6.35174 8.84424 6.71131C8.89828 6.84792 8.9061 6.99033 8.8753 7.12315L8.85535 7.21279L8.26474 9.80627L8.11728 10.4547C8.09556 10.5524 8.09228 10.5746 8.08597 10.6259C8.07006 10.9178 8.48518 10.6989 8.48518 10.6989C8.7344 10.5613 9.04801 10.6524 9.18487 10.9016C9.3139 11.1357 9.23916 11.4271 9.02453 11.5756Z"></path></g></symbol><symbol id="flash" width="12" height="12" viewBox="0 0 12 12" xmlns="http://www.w3.org/2000/svg"><path d="M2.85154 6.25862L5.99417 1.37574C6.00265 1.36256 6.01696 1.35464 6.03228 1.35464H9.11025C9.14959 1.35464 9.17059 1.40254 9.14465 1.43311L6.52491 4.51985C6.5002 4.54897 6.51799 4.59475 6.55532 4.59813L9.11165 4.82983C9.15067 4.83336 9.16764 4.88264 9.13954 4.91085L3.44417 10.6288C3.40758 10.6655 3.34905 10.6222 3.37094 10.5746L5.29022 6.39966C5.30465 6.36829 5.2825 6.33209 5.24889 6.33209H2.88965C2.85312 6.33209 2.83131 6.29005 2.85154 6.25862Z"></path><path fill-rule="evenodd" clip-rule="evenodd" d="M6.1917 1.70929L3.4447 5.97745H5.24889C5.53464 5.97745 5.72286 6.28514 5.60026 6.55182L4.38976 9.18498L8.43426 5.12444L6.52533 4.95142C6.20798 4.92266 6.05681 4.53351 6.26685 4.28603L8.45375 1.70929H6.1917ZM5.70836 1.17937C5.78047 1.06733 5.90206 1 6.03228 1H9.11025C9.44465 1 9.6232 1.40714 9.40272 1.66693L7.16986 4.29783L9.14164 4.47654C9.47338 4.50661 9.61756 4.92542 9.37873 5.16519L3.68336 10.8831C3.37238 11.1954 2.87487 10.8271 3.06091 10.4224L4.77827 6.68673H2.88965C2.57916 6.68673 2.39381 6.32937 2.56574 6.06224L5.70836 1.17937Z"></path></symbol><symbol id="user-plus" width="24" height="24" viewBox="0 0 24 24" xmlns="http://www.w3.org/2000/svg"><g><g><path fill-rule="evenodd" clip-rule="evenodd" d="M4.6336 15.0767C6.05564 14.6 7.93913 14.4563 9.877 14.4563C11.8267 14.4563 13.711 14.6056 15.1313 15.0886C15.8454 15.3315 16.497 15.6765 16.9765 16.179C17.4733 16.6997 17.754 17.3581 17.754 18.1363C17.754 18.916 17.4709 19.5742 16.9713 20.0928C16.4894 20.5931 15.8356 20.9348 15.1209 21.1745C13.6989 21.6514 11.8154 21.7953 9.877 21.7953C7.92787 21.7953 6.04357 21.6463 4.62311 21.1634C3.90895 20.9206 3.25728 20.5756 2.77764 20.073C2.28071 19.5523 2 18.8937 2 18.1153C2 17.3353 2.28315 16.6771 2.78289 16.1583C3.26484 15.658 3.91878 15.3163 4.6336 15.0767ZM3.86317 17.199C3.62723 17.4439 3.5 17.7313 3.5 18.1153C3.5 18.5009 3.62717 18.7905 3.8628 19.0374C4.11572 19.3025 4.5213 19.5445 5.10589 19.7432C6.28293 20.1433 7.96213 20.2953 9.877 20.2953C11.7836 20.2953 13.4636 20.1482 14.6439 19.7523C15.2303 19.5557 15.6373 19.3156 15.8909 19.0522C16.1268 18.8073 16.254 18.5201 16.254 18.1363C16.254 17.751 16.1269 17.4614 15.8913 17.2146C15.6384 16.9496 15.2329 16.7075 14.6484 16.5087C13.4715 16.1085 11.7923 15.9563 9.877 15.9563C7.97087 15.9563 6.29086 16.1031 5.1104 16.4989C4.52397 16.6955 4.11691 16.9356 3.86317 17.199Z"></path><path fill-rule="evenodd" clip-rule="evenodd" d="M4.56 7.31666C4.56073 4.38017 6.94113 2 9.877 2C12.8142 2 15.195 4.38079 15.195 7.318C15.195 10.2552 12.8142 12.636 9.877 12.636H9.846L9.84332 12.636C6.91457 12.6255 4.55024 10.2443 4.56 7.31666ZM9.877 3.5C7.76932 3.5 6.06 5.20911 6.06 7.318V7.32068C6.05248 9.42003 7.74719 11.1278 9.84741 11.136H9.877C11.9858 11.136 13.695 9.42679 13.695 7.318C13.695 5.20921 11.9858 3.5 9.877 3.5Z"></path><path fill-rule="evenodd" clip-rule="evenodd" d="M19.2041 7.9192C19.6183 7.9192 19.9541 8.25499 19.9541 8.6692V12.6792C19.9541 13.0934 19.6183 13.4292 19.2041 13.4292C18.7899 13.4292 18.4541 13.0934 18.4541 12.6792V8.6692C18.4541 8.25499 18.7899 7.9192 19.2041 7.9192Z"></path><path fill-rule="evenodd" clip-rule="evenodd" d="M16.41 10.6741C16.41 10.2599 16.7458 9.9241 17.16 9.9241H21.25C21.6642 9.9241 22 10.2599 22 10.6741C22 11.0883 21.6642 11.4241 21.25 11.4241H17.16C16.7458 11.4241 16.41 11.0883 16.41 10.6741Z"></path></g></g></symbol><symbol id="user-two" width="24" height="24" viewBox="0 0 24 24" xmlns="http://www.w3.org/2000/svg"><g><g><path fill-rule="evenodd" clip-rule="evenodd" d="M3.83978 17.1547C3.61893 17.3861 3.5 17.6567 3.5 18.0188C3.5 18.3791 3.61892 18.647 3.83994 18.8761C4.07884 19.1238 4.4646 19.3518 5.0251 19.5392C6.1537 19.9166 7.76258 20.0568 9.592 20.0568C11.4301 20.0568 13.0382 19.9115 14.1633 19.5299C14.722 19.3404 15.1063 19.1106 15.3444 18.8614C15.5652 18.6304 15.684 18.3604 15.684 17.9988C15.684 17.6388 15.5651 17.3706 15.3437 17.141C15.1046 16.8929 14.7185 16.6644 14.158 16.4765C13.0293 16.0981 11.4205 15.9568 9.592 15.9568C7.75361 15.9568 6.14567 16.1027 5.02075 16.4851C4.46223 16.675 4.07793 16.9052 3.83978 17.1547ZM4.538 15.0649C5.90633 14.5998 7.71939 14.4568 9.592 14.4568C11.4525 14.4568 13.2647 14.5949 14.6348 15.0543C15.3236 15.2852 15.9564 15.6152 16.4237 16.0999C16.9088 16.6032 17.184 17.2423 17.184 17.9988C17.184 18.7536 16.9113 19.3929 16.4289 19.8977C15.9638 20.3844 15.3332 20.717 14.6452 20.9504C13.2768 21.4145 11.4639 21.5568 9.592 21.5568C7.73142 21.5568 5.9193 21.4199 4.5494 20.9618C3.86065 20.7315 3.22779 20.4021 2.76037 19.9176C2.27508 19.4145 2 18.7754 2 18.0188C2 17.2639 2.27245 16.6244 2.75462 16.1191C3.21951 15.632 3.8499 15.2988 4.538 15.0649Z"></path><path fill-rule="evenodd" clip-rule="evenodd" d="M9.592 3.99976C7.58399 3.99976 5.956 5.62719 5.956 7.63476C5.956 9.64232 7.58399 11.2698 9.592 11.2698H9.62143C11.62 11.2616 13.2345 9.63558 13.227 7.63755L13.227 7.63476C13.227 5.62708 11.5989 3.99976 9.592 3.99976ZM4.456 7.63476C4.456 4.79832 6.75601 2.49976 9.592 2.49976C12.4266 2.49976 14.7262 4.7976 14.727 7.63322C14.7369 10.4602 12.4522 12.7592 9.6258 12.7698L9.623 12.7698H9.592C6.75601 12.7698 4.456 10.4712 4.456 7.63476Z"></path><path fill-rule="evenodd" clip-rule="evenodd" d="M15.8185 4.24217C15.8855 3.83342 16.2712 3.55641 16.68 3.62344C18.6036 3.93893 20.0706 5.60722 20.0706 7.61956L20.0706 7.62091C20.0669 9.66255 18.5535 11.348 16.588 11.6243C16.1778 11.6819 15.7985 11.3961 15.7409 10.9859C15.6833 10.5758 15.969 10.1965 16.3792 10.1389C17.6155 9.96511 18.568 8.90293 18.5706 7.61887C18.5703 6.35351 17.6474 5.30215 16.4372 5.10367C16.0285 5.03663 15.7514 4.65092 15.8185 4.24217Z"></path><path fill-rule="evenodd" clip-rule="evenodd" d="M17.8541 14.6217C17.9151 14.212 18.2967 13.9293 18.7064 13.9903C19.5225 14.1119 20.3073 14.3264 20.906 14.7192C21.5423 15.1368 21.9799 15.7705 21.9799 16.6272C21.9799 17.1957 21.7854 17.6902 21.4336 18.0879C21.0956 18.4698 20.6424 18.7299 20.1622 18.9123C19.775 19.0594 19.3419 18.8647 19.1948 18.4775C19.0477 18.0903 19.2424 17.6571 19.6296 17.51C19.9734 17.3794 20.1872 17.233 20.3102 17.0939C20.4193 16.9706 20.4799 16.8296 20.4799 16.6272C20.4799 16.3638 20.376 16.1655 20.0831 15.9733C19.7525 15.7564 19.2203 15.5834 18.4854 15.474C18.0757 15.413 17.7931 15.0314 17.8541 14.6217Z"></path></g></g></symbol><symbol id="tick-large" width="30" height="30" viewBox="0 0 30 30" xmlns="http://www.w3.org/2000/svg"><path fill-rule="evenodd" clip-rule="evenodd" d="M27.1457 6.62481C27.6181 7.12455 27.6181 7.93479 27.1457 8.43453L11.7512 23.3752C11.2789 23.8749 10.5131 23.8749 10.0407 23.3754L2.85449 16.396C2.38198 15.8963 2.38182 15.0861 2.85413 14.5862C3.32643 14.0864 4.09236 14.0862 4.56487 14.5859L10.8957 20.6608L25.4349 6.62481C25.9074 6.12506 26.6733 6.12506 27.1457 6.62481Z"></path></symbol><symbol id="advanced-setting-inactive" width="20" height="20" viewBox="0 0 20 20" xmlns="http://www.w3.org/2000/svg"><path fill-rule="evenodd" clip-rule="evenodd" d="M5.39508 14.9032C5.63257 14.9032 5.87006 14.9312 6.10237 14.9891C6.80343 15.1648 7.4122 15.6011 7.7731 16.187C8.00748 16.5547 8.13711 16.9842 8.14126 17.4224C8.14126 18.0498 8.68262 18.5527 9.34842 18.5527H10.6479C11.3106 18.5527 11.8519 18.0527 11.855 17.4359C11.8509 16.7545 12.1371 16.1069 12.6608 15.6194C13.1773 15.1388 13.8991 14.8502 14.6209 14.8695C15.0938 14.8801 15.5491 14.9988 15.9505 15.2111C16.5281 15.519 17.2655 15.3357 17.5994 14.8048L18.288 13.7363C18.4415 13.4902 18.4861 13.1813 18.4042 12.8966C18.3233 12.6118 18.12 12.3648 17.8462 12.219C17.2053 11.8754 16.748 11.3214 16.5582 10.6573C16.3705 10.0058 16.4731 9.29444 16.8392 8.70856C17.0778 8.32248 17.4272 7.99721 17.8462 7.77328C18.4083 7.46731 18.6054 6.78298 18.2787 6.25019C18.2652 6.22895 18.2528 6.20675 18.2424 6.18359L17.6347 5.20294C17.3038 4.66725 16.5675 4.4829 15.9899 4.78887C15.3655 5.13248 14.623 5.23093 13.9095 5.05623C13.197 4.88442 12.5997 4.46456 12.2273 3.87192C11.9888 3.50128 11.8592 3.06984 11.855 2.63067C11.8644 2.30057 11.7399 2.00425 11.5138 1.78708C11.2888 1.57088 10.9725 1.44829 10.6479 1.44829H9.34842C9.02693 1.44829 8.72618 1.56508 8.49906 1.7755C8.27297 1.98688 8.14956 2.26775 8.15163 2.56697C8.12986 3.9781 6.89055 5.11414 5.3899 5.11414C4.90869 5.10932 4.44512 4.98866 4.04274 4.76474C3.47753 4.46552 2.73913 4.64988 2.4083 5.18557L1.7062 6.25984C1.38471 6.77912 1.58175 7.46538 2.15422 7.77521C3.00358 8.23272 3.53353 9.08596 3.53353 10.001C3.53353 10.916 3.00358 11.7683 2.15214 12.2267C1.58279 12.5337 1.38574 13.2161 1.71553 13.7469L2.36993 14.7971C2.53171 15.0683 2.79617 15.2642 3.10211 15.3443C3.40701 15.4235 3.74302 15.3897 4.02303 15.2449C4.43475 15.02 4.91388 14.9032 5.39508 14.9032ZM10.6479 20.0005H9.34842C7.82495 20.0005 6.58565 18.848 6.58565 17.4301C6.58357 17.2554 6.52965 17.074 6.42905 16.9167C6.26623 16.6522 6.00281 16.463 5.69895 16.3877C5.39716 16.3124 5.06633 16.3539 4.79462 16.5007C4.14333 16.8385 3.37693 16.9205 2.67587 16.7371C1.97584 16.5528 1.37123 16.1049 1.01654 15.5113L0.368372 14.4718C-0.389731 13.2479 0.0613971 11.6795 1.37434 10.9729C1.74665 10.7731 1.97792 10.4006 1.97792 10.001C1.97792 9.60138 1.74665 9.22784 1.37434 9.02804C0.0603601 8.31765 -0.389731 6.74534 0.367335 5.52146L1.07047 4.44718C1.81821 3.23682 3.50864 2.8102 4.82677 3.5148C5.00618 3.61421 5.20115 3.6644 5.39923 3.66633C6.04533 3.66633 6.58565 3.17022 6.59602 2.56021C6.59187 1.88746 6.87707 1.24174 7.39664 0.754313C7.91829 0.26785 8.61106 0.000488281 9.34842 0.000488281H10.6479C11.3904 0.000488281 12.1122 0.284258 12.6297 0.777478C13.1462 1.27359 13.4314 1.95406 13.4096 2.64418C13.4117 2.79958 13.4667 2.97911 13.5662 3.13644C13.7311 3.39704 13.9914 3.58043 14.3005 3.65572C14.6095 3.72714 14.9331 3.68853 15.2079 3.537C16.5354 2.83143 18.2248 3.25419 18.9829 4.48L19.629 5.52146C19.6456 5.54945 19.6601 5.57647 19.6725 5.60447C20.3591 6.81194 19.9007 8.33213 18.6251 9.02611C18.4394 9.12553 18.2891 9.26452 18.1854 9.43247C18.0246 9.69211 17.98 10.001 18.0609 10.2847C18.1439 10.5743 18.342 10.8146 18.6209 10.9633C19.2504 11.3001 19.7202 11.8677 19.9079 12.523C20.0956 13.1775 19.993 13.8878 19.6269 14.4737L18.9383 15.5412C18.1802 16.7535 16.4908 17.1734 15.1768 16.4669C15.0015 16.3732 14.7993 16.3221 14.5981 16.3173H14.5919C14.2922 16.3173 13.9842 16.436 13.7601 16.6435C13.533 16.8549 13.4086 17.1367 13.4107 17.4359C13.4034 18.8538 12.1641 20.0005 10.6479 20.0005Z"></path><path fill-rule="evenodd" clip-rule="evenodd" d="M10.0027 8.17974C8.92416 8.17974 8.04679 8.99727 8.04679 10.0011C8.04679 11.0049 8.92416 11.8205 10.0027 11.8205C11.0813 11.8205 11.9586 11.0049 11.9586 10.0011C11.9586 8.99727 11.0813 8.17974 10.0027 8.17974ZM10.0027 13.2683C8.06649 13.2683 6.49117 11.8031 6.49117 10.0011C6.49117 8.19904 8.06649 6.73193 10.0027 6.73193C11.9389 6.73193 13.5143 8.19904 13.5143 10.0011C13.5143 11.8031 11.9389 13.2683 10.0027 13.2683Z"></path></symbol><symbol id="warning-outline" width="16" height="16" viewBox="0 0 16 16" xmlns="http://www.w3.org/2000/svg"><path fill-rule="evenodd" clip-rule="evenodd" d="M6.37954 2.93301C7.09924 1.68835 8.91124 1.68934 9.62997 2.93391L14.4174 11.2245C15.1318 12.4613 14.2293 14 12.7918 14H3.20953C1.77099 14 0.869802 12.4602 1.58394 11.2239L6.37954 2.93301ZM8.76249 3.42527C8.42724 2.84478 7.58235 2.84446 7.24675 3.42486L2.45137 11.7153C2.11848 12.2921 2.53891 13.0103 3.20953 13.0103H12.7918C13.4624 13.0103 13.883 12.2924 13.55 11.716L8.76249 3.42527Z"></path><path fill-rule="evenodd" clip-rule="evenodd" d="M7.99869 6.33156C8.27465 6.33156 8.49836 6.55312 8.49836 6.82643V8.87187C8.49836 9.14518 8.27465 9.36674 7.99869 9.36674C7.72273 9.36674 7.49902 9.14518 7.49902 8.87187V6.82643C7.49902 6.55312 7.72273 6.33156 7.99869 6.33156Z"></path><path fill-rule="evenodd" clip-rule="evenodd" d="M7.32747 10.9076C7.32747 10.5431 7.62575 10.2477 7.9937 10.2477H8.00036C8.36831 10.2477 8.66658 10.5431 8.66658 10.9076C8.66658 11.272 8.36831 11.5674 8.00036 11.5674H7.9937C7.62575 11.5674 7.32747 11.272 7.32747 10.9076Z"></path></symbol><symbol id="arrow-rotate" width="24" height="24" viewBox="0 0 24 24" xmlns="http://www.w3.org/2000/svg"><g><g><path d="M12.3639 4C15.899 4 18.8505 6.64801 19.5484 10.1744L20.6379 7.97149L20.7005 7.86634C20.9092 7.57229 21.2944 7.47372 21.6125 7.65084C21.9659 7.84764 22.1025 8.31028 21.9176 8.68418L19.2338 14.1114L14.9468 10.2106L14.8558 10.1115C14.6397 9.82959 14.6375 9.41629 14.8681 9.13163L14.9613 9.03545C15.2269 8.80721 15.617 8.80586 15.8863 9.05087L18.2346 11.1875C17.9534 8.01384 15.4323 5.5303 12.3639 5.5303C10.9241 5.5303 9.60473 6.07718 8.58081 6.98563C8.3051 7.23025 7.99411 7.55556 7.56969 7.11111C7.14526 6.66667 7.37957 6.06188 7.56965 5.88801C8.85587 4.7115 10.5315 4 12.3639 4Z"></path><path d="M11.6361 20C8.10095 20 5.14948 17.352 4.45162 13.8257L3.36214 16.0285L3.29946 16.1337C3.09081 16.4277 2.70555 16.5263 2.38751 16.3492C2.03413 16.1524 1.89754 15.6897 2.08243 15.3158L4.76621 9.88858L9.05319 13.7894L9.14422 13.8885C9.36031 14.1704 9.36254 14.5837 9.13194 14.8684L9.03867 14.9646C8.7731 15.1928 8.38298 15.1941 8.11372 14.9491L5.76543 12.8125C6.04665 15.9862 8.56766 18.4697 11.6361 18.4697C13.0759 18.4697 14.3953 17.9228 15.4192 17.0144C15.6949 16.7697 16.0059 16.4444 16.4303 16.8889C16.8547 17.3333 16.6204 17.9381 16.4303 18.112C15.1441 19.2885 13.4685 20 11.6361 20Z"></path></g></g></symbol><symbol id="advanced-setting" width="20" height="20" viewBox="0 0 20 20" xmlns="http://www.w3.org/2000/svg"><path fill-rule="evenodd" clip-rule="evenodd" d="M5.39508 14.9032C5.63257 14.9032 5.87006 14.9312 6.10237 14.9891C6.80343 15.1648 7.4122 15.6011 7.7731 16.187C8.00748 16.5547 8.13711 16.9842 8.14126 17.4224C8.14126 18.0498 8.68262 18.5527 9.34842 18.5527H10.6479C11.3106 18.5527 11.8519 18.0527 11.855 17.4359C11.8509 16.7545 12.1371 16.1069 12.6608 15.6194C13.1773 15.1388 13.8991 14.8502 14.6209 14.8695C15.0938 14.8801 15.5491 14.9988 15.9505 15.2111C16.5281 15.519 17.2655 15.3357 17.5994 14.8048L18.288 13.7363C18.4415 13.4902 18.4861 13.1813 18.4042 12.8966C18.3233 12.6118 18.12 12.3648 17.8462 12.219C17.2053 11.8754 16.748 11.3214 16.5582 10.6573C16.3705 10.0058 16.4731 9.29444 16.8392 8.70856C17.0778 8.32248 17.4272 7.99721 17.8462 7.77328C18.4083 7.46731 18.6054 6.78298 18.2787 6.25019C18.2652 6.22895 18.2528 6.20675 18.2424 6.18359L17.6347 5.20294C17.3038 4.66725 16.5675 4.4829 15.9899 4.78887C15.3655 5.13248 14.623 5.23093 13.9095 5.05623C13.197 4.88442 12.5997 4.46456 12.2273 3.87192C11.9888 3.50128 11.8592 3.06984 11.855 2.63067C11.8644 2.30057 11.7399 2.00425 11.5138 1.78708C11.2888 1.57088 10.9725 1.44829 10.6479 1.44829H9.34842C9.02693 1.44829 8.72618 1.56508 8.49906 1.7755C8.27297 1.98688 8.14956 2.26775 8.15163 2.56697C8.12986 3.9781 6.89055 5.11414 5.3899 5.11414C4.90869 5.10932 4.44512 4.98866 4.04274 4.76474C3.47753 4.46552 2.73913 4.64988 2.4083 5.18557L1.7062 6.25984C1.38471 6.77912 1.58175 7.46538 2.15422 7.77521C3.00358 8.23272 3.53353 9.08596 3.53353 10.001C3.53353 10.916 3.00358 11.7683 2.15214 12.2267C1.58279 12.5337 1.38574 13.2161 1.71553 13.7469L2.36993 14.7971C2.53171 15.0683 2.79617 15.2642 3.10211 15.3443C3.40701 15.4235 3.74302 15.3897 4.02303 15.2449C4.43475 15.02 4.91388 14.9032 5.39508 14.9032ZM10.6479 20.0005H9.34842C7.82495 20.0005 6.58565 18.848 6.58565 17.4301C6.58357 17.2554 6.52965 17.074 6.42905 16.9167C6.26623 16.6522 6.00281 16.463 5.69895 16.3877C5.39716 16.3124 5.06633 16.3539 4.79462 16.5007C4.14333 16.8385 3.37693 16.9205 2.67587 16.7371C1.97584 16.5528 1.37123 16.1049 1.01654 15.5113L0.368372 14.4718C-0.389731 13.2479 0.0613971 11.6795 1.37434 10.9729C1.74665 10.7731 1.97792 10.4006 1.97792 10.001C1.97792 9.60138 1.74665 9.22784 1.37434 9.02804C0.0603601 8.31765 -0.389731 6.74534 0.367335 5.52146L1.07047 4.44718C1.81821 3.23682 3.50864 2.8102 4.82677 3.5148C5.00618 3.61421 5.20115 3.6644 5.39923 3.66633C6.04533 3.66633 6.58565 3.17022 6.59602 2.56021C6.59187 1.88746 6.87707 1.24174 7.39664 0.754313C7.91829 0.26785 8.61106 0.000488281 9.34842 0.000488281H10.6479C11.3904 0.000488281 12.1122 0.284258 12.6297 0.777478C13.1462 1.27359 13.4314 1.95406 13.4096 2.64418C13.4117 2.79958 13.4667 2.97911 13.5662 3.13644C13.7311 3.39704 13.9914 3.58043 14.3005 3.65572C14.6095 3.72714 14.9331 3.68853 15.2079 3.537C16.5354 2.83143 18.2248 3.25419 18.9829 4.48L19.629 5.52146C19.6456 5.54945 19.6601 5.57647 19.6725 5.60447C20.3591 6.81194 19.9007 8.33213 18.6251 9.02611C18.4394 9.12553 18.2891 9.26452 18.1854 9.43247C18.0246 9.69211 17.98 10.001 18.0609 10.2847C18.1439 10.5743 18.342 10.8146 18.6209 10.9633C19.2504 11.3001 19.7202 11.8677 19.9079 12.523C20.0956 13.1775 19.993 13.8878 19.6269 14.4737L18.9383 15.5412C18.1802 16.7535 16.4908 17.1734 15.1768 16.4669C15.0015 16.3732 14.7993 16.3221 14.5981 16.3173H14.5919C14.2922 16.3173 13.9842 16.436 13.7601 16.6435C13.533 16.8549 13.4086 17.1367 13.4107 17.4359C13.4034 18.8538 12.1641 20.0005 10.6479 20.0005Z"></path><path fill-rule="evenodd" clip-rule="evenodd" d="M10.0027 8.17974C8.92416 8.17974 8.04679 8.99727 8.04679 10.0011C8.04679 11.0049 8.92416 11.8205 10.0027 11.8205C11.0813 11.8205 11.9586 11.0049 11.9586 10.0011C11.9586 8.99727 11.0813 8.17974 10.0027 8.17974ZM10.0027 13.2683C8.06649 13.2683 6.49117 11.8031 6.49117 10.0011C6.49117 8.19904 8.06649 6.73193 10.0027 6.73193C11.9389 6.73193 13.5143 8.19904 13.5143 10.0011C13.5143 11.8031 11.9389 13.2683 10.0027 13.2683Z"></path></symbol><symbol id="connect-to-qbo" width="274" height="48" viewBox="0 0 274 48" xmlns="http://www.w3.org/2000/svg"><rect width="274" height="48" rx="4"></rect><path d="M41.7645 18.64C40.6445 17.16 38.4645 16.48 36.6245 16.48C32.2645 16.48 28.9445 19.34 28.9445 23.88C28.9445 28.3 32.0845 31.36 36.5045 31.36C38.9045 31.36 40.7445 30.44 41.9845 28.88L39.9645 27.46C39.2445 28.44 38.0445 29.1 36.5245 29.1C33.6045 29.1 31.7245 26.96 31.7245 23.88C31.7245 20.96 33.7045 18.7 36.6245 18.7C37.7645 18.7 39.1045 19.14 39.8445 20.16L41.7645 18.64ZM42.6359 26.16C42.6359 29.18 44.9559 31.28 47.8559 31.28C50.7559 31.28 53.0759 29.18 53.0759 26.16C53.0759 23.14 50.7559 21.12 47.8559 21.12C44.9559 21.12 42.6359 23.14 42.6359 26.16ZM45.0759 26.16C45.0759 24.66 45.9559 23.08 47.8559 23.08C49.7559 23.08 50.6359 24.66 50.6359 26.16C50.6359 27.66 49.7559 29.28 47.8559 29.28C45.9559 29.28 45.0759 27.66 45.0759 26.16ZM55.4029 31H57.8029V25.72C57.8029 24.44 58.5229 23.12 60.0429 23.12C61.5829 23.12 61.8429 24.54 61.8429 25.68V31H64.2429V25C64.2429 23.04 63.2029 21.12 60.7029 21.12C59.2829 21.12 58.1429 21.98 57.7229 22.94H57.6829V21.4H55.4029V31ZM67.0435 31H69.4435V25.72C69.4435 24.44 70.1635 23.12 71.6835 23.12C73.2235 23.12 73.4835 24.54 73.4835 25.68V31H75.8835V25C75.8835 23.04 74.8435 21.12 72.3435 21.12C70.9235 21.12 69.7835 21.98 69.3635 22.94H69.3235V21.4H67.0435V31ZM80.5241 25.24C80.6241 23.9 81.7641 22.92 83.1841 22.92C84.7441 22.92 85.4441 24 85.4441 25.24H80.5241ZM87.8441 26.32C87.8441 22.86 85.8841 21.12 83.2041 21.12C80.3041 21.12 78.1241 23.16 78.1241 26.26C78.1241 29.38 80.3241 31.28 83.2841 31.28C85.1041 31.28 86.4641 30.64 87.4041 29.36L85.8041 28.08C85.2641 28.84 84.4641 29.32 83.2641 29.32C81.8641 29.32 80.6241 28.32 80.5241 26.96H87.8241C87.8441 26.74 87.8441 26.54 87.8441 26.32ZM98.3685 22.62C97.6085 21.68 96.1485 21.12 94.7485 21.12C91.9285 21.12 89.6085 23.08 89.6085 26.2C89.6085 29.4 91.9685 31.28 94.8085 31.28C96.2285 31.28 97.5485 30.8 98.3485 29.94L96.8485 28.42C96.3885 28.98 95.5685 29.28 94.8285 29.28C93.0085 29.28 92.1085 27.7 92.1085 26.2C92.1085 24.7 92.9885 23.12 94.7485 23.12C95.5285 23.12 96.3485 23.52 96.7285 24.06L98.3685 22.62ZM100.234 23.32V27.8C100.234 29.64 100.814 31.2 103.354 31.2C103.894 31.2 104.534 31.1 104.954 30.94L104.874 29.06C104.594 29.2 104.174 29.26 103.854 29.26C102.794 29.26 102.594 28.64 102.594 27.78V23.32H104.994V21.4H102.594V18.62H100.234V21.4H98.5541V23.32H100.234ZM112.031 23.32V27.8C112.031 29.64 112.611 31.2 115.151 31.2C115.691 31.2 116.331 31.1 116.751 30.94L116.671 29.06C116.391 29.2 115.971 29.26 115.651 29.26C114.591 29.26 114.391 28.64 114.391 27.78V23.32H116.791V21.4H114.391V18.62H112.031V21.4H110.351V23.32H112.031ZM117.968 26.16C117.968 29.18 120.288 31.28 123.188 31.28C126.088 31.28 128.408 29.18 128.408 26.16C128.408 23.14 126.088 21.12 123.188 21.12C120.288 21.12 117.968 23.14 117.968 26.16ZM120.408 26.16C120.408 24.66 121.288 23.08 123.188 23.08C125.088 23.08 125.968 24.66 125.968 26.16C125.968 27.66 125.088 29.28 123.188 29.28C121.288 29.28 120.408 27.66 120.408 26.16ZM151.115 28.96H147.615V28.92C148.875 28.02 150.135 26.28 150.135 23.74C150.135 19.44 146.955 16.48 142.615 16.48C138.275 16.48 135.035 19.44 135.035 23.74C135.035 28.34 138.055 31 142.575 31H151.115V28.96ZM142.615 18.74C145.475 18.74 147.395 20.86 147.395 23.74C147.395 26.76 145.375 28.8 142.575 28.8C139.735 28.8 137.795 26.76 137.795 23.74C137.795 20.86 139.875 18.74 142.615 18.74ZM161.526 21.4H159.126V26.68C159.126 27.96 158.406 29.28 156.886 29.28C155.346 29.28 155.086 27.86 155.086 26.72V21.4H152.686V27.4C152.686 29.36 153.726 31.28 156.226 31.28C157.646 31.28 158.786 30.42 159.206 29.46H159.246V31H161.526V21.4ZM164.447 31H166.847V21.4H164.447V31ZM164.107 18.14C164.107 18.9 164.747 19.58 165.627 19.58C166.507 19.58 167.187 18.96 167.187 18.14C167.187 17.32 166.507 16.7 165.627 16.7C164.747 16.7 164.107 17.38 164.107 18.14ZM177.958 22.62C177.198 21.68 175.738 21.12 174.338 21.12C171.518 21.12 169.198 23.08 169.198 26.2C169.198 29.4 171.558 31.28 174.398 31.28C175.818 31.28 177.138 30.8 177.938 29.94L176.438 28.42C175.978 28.98 175.158 29.28 174.418 29.28C172.598 29.28 171.698 27.7 171.698 26.2C171.698 24.7 172.578 23.12 174.338 23.12C175.118 23.12 175.938 23.52 176.318 24.06L177.958 22.62ZM179.564 31H181.964V26.08H182.024L185.824 31H189.004L184.584 25.74L188.744 21.4H185.664L182.024 25.44H181.964V15.88H179.564V31ZM190.503 31H195.603C198.283 31 200.963 29.96 200.963 26.88C200.963 24.98 199.683 23.78 197.903 23.54V23.5C199.363 23.06 200.363 22 200.363 20.4C200.363 17.82 198.163 16.84 196.023 16.84H190.503V31ZM193.023 18.92H195.043C196.943 18.92 197.843 19.42 197.843 20.68C197.843 21.9 196.943 22.6 195.263 22.6H193.023V18.92ZM193.023 24.76H195.383C197.423 24.76 198.443 25.28 198.443 26.76C198.443 28.62 196.583 28.88 195.283 28.88H193.023V24.76ZM202.773 26.16C202.773 29.18 205.093 31.28 207.993 31.28C210.893 31.28 213.213 29.18 213.213 26.16C213.213 23.14 210.893 21.12 207.993 21.12C205.093 21.12 202.773 23.14 202.773 26.16ZM205.213 26.16C205.213 24.66 206.093 23.08 207.993 23.08C209.893 23.08 210.773 24.66 210.773 26.16C210.773 27.66 209.893 29.28 207.993 29.28C206.093 29.28 205.213 27.66 205.213 26.16ZM214.98 26.16C214.98 29.18 217.3 31.28 220.2 31.28C223.1 31.28 225.42 29.18 225.42 26.16C225.42 23.14 223.1 21.12 220.2 21.12C217.3 21.12 214.98 23.14 214.98 26.16ZM217.42 26.16C217.42 24.66 218.3 23.08 220.2 23.08C222.1 23.08 222.98 24.66 222.98 26.16C222.98 27.66 222.1 29.28 220.2 29.28C218.3 29.28 217.42 27.66 217.42 26.16ZM227.787 31H230.187V26.08H230.247L234.047 31H237.227L232.807 25.74L236.967 21.4H233.887L230.247 25.44H230.187V15.88H227.787V31ZM245.309 22.58C244.529 21.6 243.089 21.12 241.709 21.12C239.809 21.12 237.889 22.04 237.889 24.18C237.889 25.98 239.309 26.56 240.729 26.9C242.189 27.24 242.929 27.48 242.929 28.28C242.929 29.14 242.089 29.42 241.389 29.42C240.349 29.42 239.449 28.9 238.929 28.22L237.349 29.7C238.269 30.72 239.809 31.28 241.289 31.28C243.389 31.28 245.289 30.42 245.289 28.08C245.289 26.2 243.609 25.56 242.189 25.22C240.849 24.9 240.109 24.7 240.109 23.96C240.109 23.2 240.889 22.92 241.649 22.92C242.529 22.92 243.329 23.4 243.749 23.96L245.309 22.58Z"></path></symbol><symbol id="configuration-active" width="20" height="20" viewBox="0 0 20 20" xmlns="http://www.w3.org/2000/svg"><path fill-rule="evenodd" clip-rule="evenodd" d="M5.39508 14.9032C5.63257 14.9032 5.87006 14.9312 6.10237 14.9891C6.80343 15.1648 7.4122 15.6011 7.7731 16.187C8.00748 16.5547 8.13711 16.9842 8.14126 17.4224C8.14126 18.0498 8.68262 18.5527 9.34842 18.5527H10.6479C11.3106 18.5527 11.8519 18.0527 11.855 17.4359C11.8509 16.7545 12.1371 16.1069 12.6608 15.6194C13.1773 15.1388 13.8991 14.8502 14.6209 14.8695C15.0938 14.8801 15.5491 14.9988 15.9505 15.2111C16.5281 15.519 17.2655 15.3357 17.5994 14.8048L18.288 13.7363C18.4415 13.4902 18.4861 13.1813 18.4042 12.8966C18.3233 12.6118 18.12 12.3648 17.8462 12.219C17.2053 11.8754 16.748 11.3214 16.5582 10.6573C16.3705 10.0058 16.4731 9.29444 16.8392 8.70856C17.0778 8.32248 17.4272 7.99721 17.8462 7.77328C18.4083 7.46731 18.6054 6.78298 18.2787 6.25019C18.2652 6.22895 18.2528 6.20675 18.2424 6.18359L17.6347 5.20294C17.3038 4.66725 16.5675 4.4829 15.9899 4.78887C15.3655 5.13248 14.623 5.23093 13.9095 5.05623C13.197 4.88442 12.5997 4.46456 12.2273 3.87192C11.9888 3.50128 11.8592 3.06984 11.855 2.63067C11.8644 2.30057 11.7399 2.00425 11.5138 1.78708C11.2888 1.57088 10.9725 1.44829 10.6479 1.44829H9.34842C9.02693 1.44829 8.72618 1.56508 8.49906 1.7755C8.27297 1.98688 8.14956 2.26775 8.15163 2.56697C8.12986 3.9781 6.89055 5.11414 5.3899 5.11414C4.90869 5.10932 4.44512 4.98866 4.04274 4.76474C3.47753 4.46552 2.73913 4.64988 2.4083 5.18557L1.7062 6.25984C1.38471 6.77912 1.58175 7.46538 2.15422 7.77521C3.00358 8.23272 3.53353 9.08596 3.53353 10.001C3.53353 10.916 3.00358 11.7683 2.15214 12.2267C1.58279 12.5337 1.38574 13.2161 1.71553 13.7469L2.36993 14.7971C2.53171 15.0683 2.79617 15.2642 3.10211 15.3443C3.40701 15.4235 3.74302 15.3897 4.02303 15.2449C4.43475 15.02 4.91388 14.9032 5.39508 14.9032ZM10.6479 20.0005H9.34842C7.82495 20.0005 6.58565 18.848 6.58565 17.4301C6.58357 17.2554 6.52965 17.074 6.42905 16.9167C6.26623 16.6522 6.00281 16.463 5.69895 16.3877C5.39716 16.3124 5.06633 16.3539 4.79462 16.5007C4.14333 16.8385 3.37693 16.9205 2.67587 16.7371C1.97584 16.5528 1.37123 16.1049 1.01654 15.5113L0.368372 14.4718C-0.389731 13.2479 0.0613971 11.6795 1.37434 10.9729C1.74665 10.7731 1.97792 10.4006 1.97792 10.001C1.97792 9.60138 1.74665 9.22784 1.37434 9.02804C0.0603601 8.31765 -0.389731 6.74534 0.367335 5.52146L1.07047 4.44718C1.81821 3.23682 3.50864 2.8102 4.82677 3.5148C5.00618 3.61421 5.20115 3.6644 5.39923 3.66633C6.04533 3.66633 6.58565 3.17022 6.59602 2.56021C6.59187 1.88746 6.87707 1.24174 7.39664 0.754313C7.91829 0.26785 8.61106 0.000488281 9.34842 0.000488281H10.6479C11.3904 0.000488281 12.1122 0.284258 12.6297 0.777478C13.1462 1.27359 13.4314 1.95406 13.4096 2.64418C13.4117 2.79958 13.4667 2.97911 13.5662 3.13644C13.7311 3.39704 13.9914 3.58043 14.3005 3.65572C14.6095 3.72714 14.9331 3.68853 15.2079 3.537C16.5354 2.83143 18.2248 3.25419 18.9829 4.48L19.629 5.52146C19.6456 5.54945 19.6601 5.57647 19.6725 5.60447C20.3591 6.81194 19.9007 8.33213 18.6251 9.02611C18.4394 9.12553 18.2891 9.26452 18.1854 9.43247C18.0246 9.69211 17.98 10.001 18.0609 10.2847C18.1439 10.5743 18.342 10.8146 18.6209 10.9633C19.2504 11.3001 19.7202 11.8677 19.9079 12.523C20.0956 13.1775 19.993 13.8878 19.6269 14.4737L18.9383 15.5412C18.1802 16.7535 16.4908 17.1734 15.1768 16.4669C15.0015 16.3732 14.7993 16.3221 14.5981 16.3173H14.5919C14.2922 16.3173 13.9842 16.436 13.7601 16.6435C13.533 16.8549 13.4086 17.1367 13.4107 17.4359C13.4034 18.8538 12.1641 20.0005 10.6479 20.0005Z"></path><path fill-rule="evenodd" clip-rule="evenodd" d="M10.0027 8.17974C8.92416 8.17974 8.04679 8.99727 8.04679 10.0011C8.04679 11.0049 8.92416 11.8205 10.0027 11.8205C11.0813 11.8205 11.9586 11.0049 11.9586 10.0011C11.9586 8.99727 11.0813 8.17974 10.0027 8.17974ZM10.0027 13.2683C8.06649 13.2683 6.49117 11.8031 6.49117 10.0011C6.49117 8.19904 8.06649 6.73193 10.0027 6.73193C11.9389 6.73193 13.5143 8.19904 13.5143 10.0011C13.5143 11.8031 11.9389 13.2683 10.0027 13.2683Z"></path></symbol><symbol id="connector-inactive" width="24" height="24" viewBox="0 0 24 24" xmlns="http://www.w3.org/2000/svg"><path fill-rule="evenodd" clip-rule="evenodd" d="M7 5.84615C7 3.72198 8.7673 2 10.9474 2L13.0526 2C15.2327 2 17 3.72198 17 5.84615V10.9744C17 13.0985 15.2327 14.8205 13.0526 14.8205H12C11.564 14.8205 11.2105 14.4761 11.2105 14.0513C11.2105 13.6264 11.564 13.2821 12 13.2821H13.0526C14.3607 13.2821 15.4211 12.2489 15.4211 10.9744V5.84615C15.4211 4.57165 14.3607 3.53846 13.0526 3.53846L10.9474 3.53846C9.63933 3.53846 8.57895 4.57165 8.57895 5.84615V7.89744C8.57895 8.32227 8.22549 8.66667 7.78947 8.66667C7.35346 8.66667 7 8.32227 7 7.89744V5.84615ZM7 13.0256C7 10.9015 8.7673 9.17949 10.9474 9.17949H12C12.436 9.17949 12.7895 9.52388 12.7895 9.94872C12.7895 10.3736 12.436 10.7179 12 10.7179H10.9474C9.63933 10.7179 8.57895 11.7511 8.57895 13.0256V18.1538C8.57895 19.4284 9.63933 20.4615 10.9474 20.4615H13.0526C14.3607 20.4615 15.4211 19.4284 15.4211 18.1538L15.4211 16.1026C15.4211 15.6777 15.7745 15.3333 16.2105 15.3333C16.6465 15.3333 17 15.6777 17 16.1026V18.1538C17 20.278 15.2327 22 13.0526 22H10.9474C8.7673 22 7 20.278 7 18.1538V13.0256Z"></path></symbol><symbol id="connector" width="25" height="25" viewBox="0 0 25 25" xmlns="http://www.w3.org/2000/svg"><g><path fill-rule="evenodd" clip-rule="evenodd" d="M7.5 6.15768C7.5 4.03351 9.2673 2.31152 11.4474 2.31152L13.5526 2.31152C15.7327 2.31152 17.5 4.03351 17.5 6.15768V11.2859C17.5 13.4101 15.7327 15.132 13.5526 15.132H12.5C12.064 15.132 11.7105 14.7876 11.7105 14.3628C11.7105 13.938 12.064 13.5936 12.5 13.5936H13.5526C14.8607 13.5936 15.9211 12.5604 15.9211 11.2859V6.15768C15.9211 4.88317 14.8607 3.84999 13.5526 3.84999L11.4474 3.84999C10.1393 3.84999 9.07895 4.88317 9.07895 6.15768V8.20896C9.07895 8.63379 8.72549 8.97819 8.28947 8.97819C7.85346 8.97819 7.5 8.63379 7.5 8.20896V6.15768ZM7.5 13.3372C7.5 11.213 9.2673 9.49101 11.4474 9.49101H12.5C12.936 9.49101 13.2895 9.83541 13.2895 10.2602C13.2895 10.6851 12.936 11.0295 12.5 11.0295H11.4474C10.1393 11.0295 9.07895 12.0627 9.07895 13.3372V18.4654C9.07895 19.7399 10.1393 20.7731 11.4474 20.7731H13.5526C14.8607 20.7731 15.9211 19.7399 15.9211 18.4654L15.9211 16.4141C15.9211 15.9893 16.2745 15.6449 16.7105 15.6449C17.1465 15.6449 17.5 15.9893 17.5 16.4141V18.4654C17.5 20.5895 15.7327 22.3115 13.5526 22.3115H11.4474C9.2673 22.3115 7.5 20.5895 7.5 18.4654V13.3372Z"></path></g></symbol><symbol id="export-setting-inactive" width="16" height="18" viewBox="0 0 16 18" xmlns="http://www.w3.org/2000/svg"><path d="M7.17715 17.2928C7.23213 17.6922 7.57953 18 7.99989 18C8.45846 18 8.83021 17.6337 8.83021 17.1818V2.80004L14.0813 7.99528L14.1743 8.07469C14.4989 8.31301 14.9602 8.28755 15.2556 7.99768C15.5805 7.67882 15.5816 7.16077 15.258 6.84059L8.59955 0.252234C8.56142 0.213015 8.51937 0.177529 8.47401 0.146389C8.14976 -0.0766617 7.69994 -0.0452419 7.41106 0.240643L0.741932 6.84064L0.661737 6.93258C0.421253 7.25339 0.449045 7.70788 0.744461 7.99772C1.06942 8.31656 1.59515 8.31544 1.91871 7.99523L7.16957 2.79875V17.1818L7.17715 17.2928Z"></path></symbol><symbol id="export-setting" width="16" height="18" viewBox="0 0 16 18" xmlns="http://www.w3.org/2000/svg"><path d="M7.17715 17.2928C7.23213 17.6922 7.57953 18 7.99989 18C8.45846 18 8.83021 17.6337 8.83021 17.1818V2.80004L14.0813 7.99528L14.1743 8.07469C14.4989 8.31301 14.9602 8.28755 15.2556 7.99768C15.5805 7.67882 15.5816 7.16077 15.258 6.84059L8.59955 0.252234C8.56142 0.213015 8.51937 0.177529 8.47401 0.146389C8.14976 -0.0766617 7.69994 -0.0452419 7.41106 0.240643L0.741932 6.84064L0.661737 6.93258C0.421253 7.25339 0.449045 7.70788 0.744461 7.99772C1.06942 8.31656 1.59515 8.31544 1.91871 7.99523L7.16957 2.79875V17.1818L7.17715 17.2928Z"></path></symbol><symbol id="configuration" width="20" height="20" viewBox="0 0 20 20" xmlns="http://www.w3.org/2000/svg"><path fill-rule="evenodd" clip-rule="evenodd" d="M5.39508 14.9032C5.63257 14.9032 5.87006 14.9312 6.10237 14.9891C6.80343 15.1648 7.4122 15.6011 7.7731 16.187C8.00748 16.5547 8.13711 16.9842 8.14126 17.4224C8.14126 18.0498 8.68262 18.5527 9.34842 18.5527H10.6479C11.3106 18.5527 11.8519 18.0527 11.855 17.4359C11.8509 16.7545 12.1371 16.1069 12.6608 15.6194C13.1773 15.1388 13.8991 14.8502 14.6209 14.8695C15.0938 14.8801 15.5491 14.9988 15.9505 15.2111C16.5281 15.519 17.2655 15.3357 17.5994 14.8048L18.288 13.7363C18.4415 13.4902 18.4861 13.1813 18.4042 12.8966C18.3233 12.6118 18.12 12.3648 17.8462 12.219C17.2053 11.8754 16.748 11.3214 16.5582 10.6573C16.3705 10.0058 16.4731 9.29444 16.8392 8.70856C17.0778 8.32248 17.4272 7.99721 17.8462 7.77328C18.4083 7.46731 18.6054 6.78298 18.2787 6.25019C18.2652 6.22895 18.2528 6.20675 18.2424 6.18359L17.6347 5.20294C17.3038 4.66725 16.5675 4.4829 15.9899 4.78887C15.3655 5.13248 14.623 5.23093 13.9095 5.05623C13.197 4.88442 12.5997 4.46456 12.2273 3.87192C11.9888 3.50128 11.8592 3.06984 11.855 2.63067C11.8644 2.30057 11.7399 2.00425 11.5138 1.78708C11.2888 1.57088 10.9725 1.44829 10.6479 1.44829H9.34842C9.02693 1.44829 8.72618 1.56508 8.49906 1.7755C8.27297 1.98688 8.14956 2.26775 8.15163 2.56697C8.12986 3.9781 6.89055 5.11414 5.3899 5.11414C4.90869 5.10932 4.44512 4.98866 4.04274 4.76474C3.47753 4.46552 2.73913 4.64988 2.4083 5.18557L1.7062 6.25984C1.38471 6.77912 1.58175 7.46538 2.15422 7.77521C3.00358 8.23272 3.53353 9.08596 3.53353 10.001C3.53353 10.916 3.00358 11.7683 2.15214 12.2267C1.58279 12.5337 1.38574 13.2161 1.71553 13.7469L2.36993 14.7971C2.53171 15.0683 2.79617 15.2642 3.10211 15.3443C3.40701 15.4235 3.74302 15.3897 4.02303 15.2449C4.43475 15.02 4.91388 14.9032 5.39508 14.9032ZM10.6479 20.0005H9.34842C7.82495 20.0005 6.58565 18.848 6.58565 17.4301C6.58357 17.2554 6.52965 17.074 6.42905 16.9167C6.26623 16.6522 6.00281 16.463 5.69895 16.3877C5.39716 16.3124 5.06633 16.3539 4.79462 16.5007C4.14333 16.8385 3.37693 16.9205 2.67587 16.7371C1.97584 16.5528 1.37123 16.1049 1.01654 15.5113L0.368372 14.4718C-0.389731 13.2479 0.0613971 11.6795 1.37434 10.9729C1.74665 10.7731 1.97792 10.4006 1.97792 10.001C1.97792 9.60138 1.74665 9.22784 1.37434 9.02804C0.0603601 8.31765 -0.389731 6.74534 0.367335 5.52146L1.07047 4.44718C1.81821 3.23682 3.50864 2.8102 4.82677 3.5148C5.00618 3.61421 5.20115 3.6644 5.39923 3.66633C6.04533 3.66633 6.58565 3.17022 6.59602 2.56021C6.59187 1.88746 6.87707 1.24174 7.39664 0.754313C7.91829 0.26785 8.61106 0.000488281 9.34842 0.000488281H10.6479C11.3904 0.000488281 12.1122 0.284258 12.6297 0.777478C13.1462 1.27359 13.4314 1.95406 13.4096 2.64418C13.4117 2.79958 13.4667 2.97911 13.5662 3.13644C13.7311 3.39704 13.9914 3.58043 14.3005 3.65572C14.6095 3.72714 14.9331 3.68853 15.2079 3.537C16.5354 2.83143 18.2248 3.25419 18.9829 4.48L19.629 5.52146C19.6456 5.54945 19.6601 5.57647 19.6725 5.60447C20.3591 6.81194 19.9007 8.33213 18.6251 9.02611C18.4394 9.12553 18.2891 9.26452 18.1854 9.43247C18.0246 9.69211 17.98 10.001 18.0609 10.2847C18.1439 10.5743 18.342 10.8146 18.6209 10.9633C19.2504 11.3001 19.7202 11.8677 19.9079 12.523C20.0956 13.1775 19.993 13.8878 19.6269 14.4737L18.9383 15.5412C18.1802 16.7535 16.4908 17.1734 15.1768 16.4669C15.0015 16.3732 14.7993 16.3221 14.5981 16.3173H14.5919C14.2922 16.3173 13.9842 16.436 13.7601 16.6435C13.533 16.8549 13.4086 17.1367 13.4107 17.4359C13.4034 18.8538 12.1641 20.0005 10.6479 20.0005Z"></path><path fill-rule="evenodd" clip-rule="evenodd" d="M10.0027 8.17974C8.92416 8.17974 8.04679 8.99727 8.04679 10.0011C8.04679 11.0049 8.92416 11.8205 10.0027 11.8205C11.0813 11.8205 11.9586 11.0049 11.9586 10.0011C11.9586 8.99727 11.0813 8.17974 10.0027 8.17974ZM10.0027 13.2683C8.06649 13.2683 6.49117 11.8031 6.49117 10.0011C6.49117 8.19904 8.06649 6.73193 10.0027 6.73193C11.9389 6.73193 13.5143 8.19904 13.5143 10.0011C13.5143 11.8031 11.9389 13.2683 10.0027 13.2683Z"></path></symbol><symbol id="import-setting" width="25" height="25" viewBox="0 0 25 25" xmlns="http://www.w3.org/2000/svg"><g><path fill-rule="evenodd" clip-rule="evenodd" d="M13.3229 4.01966C13.2679 3.6203 12.9205 3.3125 12.5001 3.3125C12.0415 3.3125 11.6698 3.67881 11.6698 4.13068V18.5124L6.41866 13.3172L6.3257 13.2378C6.00114 12.9995 5.5398 13.0249 5.24441 13.3148C4.91948 13.6337 4.91839 14.1517 5.24198 14.4719L11.9004 21.0602C11.9386 21.0995 11.9806 21.1349 12.026 21.1661C12.3502 21.3891 12.8001 21.3577 13.0889 21.0718L19.7581 14.4718L19.8383 14.3799C20.0787 14.0591 20.051 13.6046 19.7555 13.3148C19.4306 12.9959 18.9049 12.997 18.5813 13.3172L13.3304 18.5137V4.13068L13.3229 4.01966Z"></path></g></symbol><symbol id="import-setting-inactive" width="25" height="25" viewBox="0 0 25 25" xmlns="http://www.w3.org/2000/svg"><g><path fill-rule="evenodd" clip-rule="evenodd" d="M13.3229 4.01868C13.2679 3.61933 12.9205 3.31152 12.5001 3.31152C12.0415 3.31152 11.6698 3.67784 11.6698 4.12971V18.5115L6.41866 13.3162L6.3257 13.2368C6.00114 12.9985 5.5398 13.024 5.24441 13.3138C4.91948 13.6327 4.91839 14.1507 5.24198 14.4709L11.9004 21.0593C11.9386 21.0985 11.9806 21.134 12.026 21.1651C12.3502 21.3882 12.8001 21.3567 13.0889 21.0709L19.7581 14.4709L19.8383 14.3789C20.0787 14.0581 20.051 13.6036 19.7555 13.3138C19.4306 12.9949 18.9049 12.9961 18.5813 13.3163L13.3304 18.5128V4.12971L13.3229 4.01868Z"></path></g></symbol><symbol id="connect-to-qbo-active" width="274" height="48" viewBox="0 0 274 48" xmlns="http://www.w3.org/2000/svg"><rect width="274" height="48" rx="4"></rect><rect width="274" height="48" rx="4" fill-opacity="0.5"></rect><path d="M41.7645 18.64C40.6445 17.16 38.4645 16.48 36.6245 16.48C32.2645 16.48 28.9445 19.34 28.9445 23.88C28.9445 28.3 32.0845 31.36 36.5045 31.36C38.9045 31.36 40.7445 30.44 41.9845 28.88L39.9645 27.46C39.2445 28.44 38.0445 29.1 36.5245 29.1C33.6045 29.1 31.7245 26.96 31.7245 23.88C31.7245 20.96 33.7045 18.7 36.6245 18.7C37.7645 18.7 39.1045 19.14 39.8445 20.16L41.7645 18.64ZM42.6359 26.16C42.6359 29.18 44.9559 31.28 47.8559 31.28C50.7559 31.28 53.0759 29.18 53.0759 26.16C53.0759 23.14 50.7559 21.12 47.8559 21.12C44.9559 21.12 42.6359 23.14 42.6359 26.16ZM45.0759 26.16C45.0759 24.66 45.9559 23.08 47.8559 23.08C49.7559 23.08 50.6359 24.66 50.6359 26.16C50.6359 27.66 49.7559 29.28 47.8559 29.28C45.9559 29.28 45.0759 27.66 45.0759 26.16ZM55.4029 31H57.8029V25.72C57.8029 24.44 58.5229 23.12 60.0429 23.12C61.5829 23.12 61.8429 24.54 61.8429 25.68V31H64.2429V25C64.2429 23.04 63.2029 21.12 60.7029 21.12C59.2829 21.12 58.1429 21.98 57.7229 22.94H57.6829V21.4H55.4029V31ZM67.0435 31H69.4435V25.72C69.4435 24.44 70.1635 23.12 71.6835 23.12C73.2235 23.12 73.4835 24.54 73.4835 25.68V31H75.8835V25C75.8835 23.04 74.8435 21.12 72.3435 21.12C70.9235 21.12 69.7835 21.98 69.3635 22.94H69.3235V21.4H67.0435V31ZM80.5241 25.24C80.6241 23.9 81.7641 22.92 83.1841 22.92C84.7441 22.92 85.4441 24 85.4441 25.24H80.5241ZM87.8441 26.32C87.8441 22.86 85.8841 21.12 83.2041 21.12C80.3041 21.12 78.1241 23.16 78.1241 26.26C78.1241 29.38 80.3241 31.28 83.2841 31.28C85.1041 31.28 86.4641 30.64 87.4041 29.36L85.8041 28.08C85.2641 28.84 84.4641 29.32 83.2641 29.32C81.8641 29.32 80.6241 28.32 80.5241 26.96H87.8241C87.8441 26.74 87.8441 26.54 87.8441 26.32ZM98.3685 22.62C97.6085 21.68 96.1485 21.12 94.7485 21.12C91.9285 21.12 89.6085 23.08 89.6085 26.2C89.6085 29.4 91.9685 31.28 94.8085 31.28C96.2285 31.28 97.5485 30.8 98.3485 29.94L96.8485 28.42C96.3885 28.98 95.5685 29.28 94.8285 29.28C93.0085 29.28 92.1085 27.7 92.1085 26.2C92.1085 24.7 92.9885 23.12 94.7485 23.12C95.5285 23.12 96.3485 23.52 96.7285 24.06L98.3685 22.62ZM100.234 23.32V27.8C100.234 29.64 100.814 31.2 103.354 31.2C103.894 31.2 104.534 31.1 104.954 30.94L104.874 29.06C104.594 29.2 104.174 29.26 103.854 29.26C102.794 29.26 102.594 28.64 102.594 27.78V23.32H104.994V21.4H102.594V18.62H100.234V21.4H98.5541V23.32H100.234ZM112.031 23.32V27.8C112.031 29.64 112.611 31.2 115.151 31.2C115.691 31.2 116.331 31.1 116.751 30.94L116.671 29.06C116.391 29.2 115.971 29.26 115.651 29.26C114.591 29.26 114.391 28.64 114.391 27.78V23.32H116.791V21.4H114.391V18.62H112.031V21.4H110.351V23.32H112.031ZM117.968 26.16C117.968 29.18 120.288 31.28 123.188 31.28C126.088 31.28 128.408 29.18 128.408 26.16C128.408 23.14 126.088 21.12 123.188 21.12C120.288 21.12 117.968 23.14 117.968 26.16ZM120.408 26.16C120.408 24.66 121.288 23.08 123.188 23.08C125.088 23.08 125.968 24.66 125.968 26.16C125.968 27.66 125.088 29.28 123.188 29.28C121.288 29.28 120.408 27.66 120.408 26.16ZM151.115 28.96H147.615V28.92C148.875 28.02 150.135 26.28 150.135 23.74C150.135 19.44 146.955 16.48 142.615 16.48C138.275 16.48 135.035 19.44 135.035 23.74C135.035 28.34 138.055 31 142.575 31H151.115V28.96ZM142.615 18.74C145.475 18.74 147.395 20.86 147.395 23.74C147.395 26.76 145.375 28.8 142.575 28.8C139.735 28.8 137.795 26.76 137.795 23.74C137.795 20.86 139.875 18.74 142.615 18.74ZM161.526 21.4H159.126V26.68C159.126 27.96 158.406 29.28 156.886 29.28C155.346 29.28 155.086 27.86 155.086 26.72V21.4H152.686V27.4C152.686 29.36 153.726 31.28 156.226 31.28C157.646 31.28 158.786 30.42 159.206 29.46H159.246V31H161.526V21.4ZM164.447 31H166.847V21.4H164.447V31ZM164.107 18.14C164.107 18.9 164.747 19.58 165.627 19.58C166.507 19.58 167.187 18.96 167.187 18.14C167.187 17.32 166.507 16.7 165.627 16.7C164.747 16.7 164.107 17.38 164.107 18.14ZM177.958 22.62C177.198 21.68 175.738 21.12 174.338 21.12C171.518 21.12 169.198 23.08 169.198 26.2C169.198 29.4 171.558 31.28 174.398 31.28C175.818 31.28 177.138 30.8 177.938 29.94L176.438 28.42C175.978 28.98 175.158 29.28 174.418 29.28C172.598 29.28 171.698 27.7 171.698 26.2C171.698 24.7 172.578 23.12 174.338 23.12C175.118 23.12 175.938 23.52 176.318 24.06L177.958 22.62ZM179.564 31H181.964V26.08H182.024L185.824 31H189.004L184.584 25.74L188.744 21.4H185.664L182.024 25.44H181.964V15.88H179.564V31ZM190.503 31H195.603C198.283 31 200.963 29.96 200.963 26.88C200.963 24.98 199.683 23.78 197.903 23.54V23.5C199.363 23.06 200.363 22 200.363 20.4C200.363 17.82 198.163 16.84 196.023 16.84H190.503V31ZM193.023 18.92H195.043C196.943 18.92 197.843 19.42 197.843 20.68C197.843 21.9 196.943 22.6 195.263 22.6H193.023V18.92ZM193.023 24.76H195.383C197.423 24.76 198.443 25.28 198.443 26.76C198.443 28.62 196.583 28.88 195.283 28.88H193.023V24.76ZM202.773 26.16C202.773 29.18 205.093 31.28 207.993 31.28C210.893 31.28 213.213 29.18 213.213 26.16C213.213 23.14 210.893 21.12 207.993 21.12C205.093 21.12 202.773 23.14 202.773 26.16ZM205.213 26.16C205.213 24.66 206.093 23.08 207.993 23.08C209.893 23.08 210.773 24.66 210.773 26.16C210.773 27.66 209.893 29.28 207.993 29.28C206.093 29.28 205.213 27.66 205.213 26.16ZM214.98 26.16C214.98 29.18 217.3 31.28 220.2 31.28C223.1 31.28 225.42 29.18 225.42 26.16C225.42 23.14 223.1 21.12 220.2 21.12C217.3 21.12 214.98 23.14 214.98 26.16ZM217.42 26.16C217.42 24.66 218.3 23.08 220.2 23.08C222.1 23.08 222.98 24.66 222.98 26.16C222.98 27.66 222.1 29.28 220.2 29.28C218.3 29.28 217.42 27.66 217.42 26.16ZM227.787 31H230.187V26.08H230.247L234.047 31H237.227L232.807 25.74L236.967 21.4H233.887L230.247 25.44H230.187V15.88H227.787V31ZM245.309 22.58C244.529 21.6 243.089 21.12 241.709 21.12C239.809 21.12 237.889 22.04 237.889 24.18C237.889 25.98 239.309 26.56 240.729 26.9C242.189 27.24 242.929 27.48 242.929 28.28C242.929 29.14 242.089 29.42 241.389 29.42C240.349 29.42 239.449 28.9 238.929 28.22L237.349 29.7C238.269 30.72 239.809 31.28 241.289 31.28C243.389 31.28 245.289 30.42 245.289 28.08C245.289 26.2 243.609 25.56 242.189 25.22C240.849 24.9 240.109 24.7 240.109 23.96C240.109 23.2 240.889 22.92 241.649 22.92C242.529 22.92 243.329 23.4 243.749 23.96L245.309 22.58Z"></path></symbol><symbol id="field-mapping-inactive" width="20" height="21" viewBox="0 0 20 21" xmlns="http://www.w3.org/2000/svg"><path fill-rule="evenodd" clip-rule="evenodd" d="M0.0905131 2.33973C-0.0301711 2.25917 -0.0301711 2.0816 0.0905133 2.00104L2.56976 0.346048C2.70484 0.255878 2.88578 0.352837 2.88578 0.515394V1.40715H5.30661C5.98028 1.40715 6.59613 1.78826 6.8974 2.39159L10 8.60488L13.1026 2.39159C13.4039 1.78826 14.0197 1.40715 14.6934 1.40715H17.1142V0.515394C17.1142 0.352837 17.2952 0.255878 17.4302 0.346048L19.9095 2.00104C20.0302 2.0816 20.0302 2.25917 19.9095 2.33973L17.4302 3.99472C17.2952 4.08489 17.1142 3.98793 17.1142 3.82537V2.93361H14.6934C14.5972 2.93361 14.5092 2.98806 14.4661 3.07425L10.8522 10.3115L14.4661 17.5488C14.5092 17.635 14.5972 17.6894 14.6934 17.6894H17.1142V16.7977C17.1142 16.6351 17.2952 16.5382 17.4302 16.6283L19.9095 18.2833C20.0302 18.3639 20.0302 18.5414 19.9095 18.622L17.4302 20.277C17.2952 20.3672 17.1142 20.2702 17.1142 20.1077V19.2159H14.6934C14.0197 19.2159 13.4039 18.8348 13.1026 18.2315L10 12.0182L6.8974 18.2315C6.59613 18.8348 5.98028 19.2159 5.30661 19.2159H2.88578V20.1077C2.88578 20.2702 2.70484 20.3672 2.56976 20.277L0.0905131 18.622C-0.0301711 18.5414 -0.0301711 18.3639 0.0905133 18.2833L2.56976 16.6283C2.70484 16.5382 2.88578 16.6351 2.88578 16.7977V17.6894H5.30661C5.40285 17.6894 5.49083 17.635 5.53387 17.5488L9.14779 10.3115L5.53387 3.07425C5.49083 2.98806 5.40285 2.93361 5.30661 2.93361H2.88578V3.82537C2.88578 3.98793 2.70484 4.08489 2.56976 3.99472L0.0905131 2.33973Z"></path></symbol><symbol id="field-mapping" width="20" height="21" viewBox="0 0 20 21" xmlns="http://www.w3.org/2000/svg"><path fill-rule="evenodd" clip-rule="evenodd" d="M0.0905131 2.33973C-0.0301711 2.25917 -0.0301711 2.0816 0.0905133 2.00104L2.56976 0.346048C2.70484 0.255878 2.88578 0.352837 2.88578 0.515394V1.40715H5.30661C5.98028 1.40715 6.59613 1.78826 6.8974 2.39159L10 8.60488L13.1026 2.39159C13.4039 1.78826 14.0197 1.40715 14.6934 1.40715H17.1142V0.515394C17.1142 0.352837 17.2952 0.255878 17.4302 0.346048L19.9095 2.00104C20.0302 2.0816 20.0302 2.25917 19.9095 2.33973L17.4302 3.99472C17.2952 4.08489 17.1142 3.98793 17.1142 3.82537V2.93361H14.6934C14.5972 2.93361 14.5092 2.98806 14.4661 3.07425L10.8522 10.3115L14.4661 17.5488C14.5092 17.635 14.5972 17.6894 14.6934 17.6894H17.1142V16.7977C17.1142 16.6351 17.2952 16.5382 17.4302 16.6283L19.9095 18.2833C20.0302 18.3639 20.0302 18.5414 19.9095 18.622L17.4302 20.277C17.2952 20.3672 17.1142 20.2702 17.1142 20.1077V19.2159H14.6934C14.0197 19.2159 13.4039 18.8348 13.1026 18.2315L10 12.0182L6.8974 18.2315C6.59613 18.8348 5.98028 19.2159 5.30661 19.2159H2.88578V20.1077C2.88578 20.2702 2.70484 20.3672 2.56976 20.277L0.0905131 18.622C-0.0301711 18.5414 -0.0301711 18.3639 0.0905133 18.2833L2.56976 16.6283C2.70484 16.5382 2.88578 16.6351 2.88578 16.7977V17.6894H5.30661C5.40285 17.6894 5.49083 17.635 5.53387 17.5488L9.14779 10.3115L5.53387 3.07425C5.49083 2.98806 5.40285 2.93361 5.30661 2.93361H2.88578V3.82537C2.88578 3.98793 2.70484 4.08489 2.56976 3.99472L0.0905131 2.33973Z"></path></symbol></svg>