<svg width="720" height="420" viewBox="0 0 720 420" fill="none" xmlns="http://www.w3.org/2000/svg">
<g clip-path="url(#clip0_4529_107)">
<rect width="720" height="420" fill="white"/>
<rect width="720" height="96" transform="matrix(-1 0 0 1 720 324)" fill="url(#paint0_linear_4529_107)" style="mix-blend-mode:multiply"/>
<rect x="720" y="96" width="720" height="96" transform="rotate(180 720 96)" fill="url(#paint1_linear_4529_107)"/>
<path d="M25.936 32.46C24.856 33.012 23.68 33.288 22.408 33.288C20.644 33.288 19.276 32.718 18.304 31.578C17.344 30.438 16.864 28.812 16.864 26.7C16.864 24.624 17.35 23.01 18.322 21.858C19.294 20.694 20.656 20.112 22.408 20.112C23.644 20.112 24.796 20.388 25.864 20.94V22.938C25.288 22.662 24.778 22.47 24.334 22.362C23.89 22.242 23.398 22.182 22.858 22.182C21.79 22.182 20.98 22.566 20.428 23.334C19.888 24.09 19.618 25.212 19.618 26.7C19.618 29.712 20.698 31.218 22.858 31.218C23.374 31.218 23.866 31.158 24.334 31.038C24.814 30.918 25.348 30.726 25.936 30.462V32.46ZM33.4915 33.054L33.3475 32.46C32.4115 33.012 31.4755 33.288 30.5395 33.288C29.5795 33.288 28.8115 33.024 28.2355 32.496C27.6715 31.968 27.3895 31.254 27.3895 30.354C27.3895 29.43 27.7015 28.71 28.3255 28.194C28.9615 27.678 29.8495 27.42 30.9895 27.42C31.6615 27.42 32.3455 27.486 33.0415 27.618V26.898C33.0415 26.346 32.8795 25.944 32.5555 25.692C32.2315 25.428 31.7275 25.296 31.0435 25.296C30.1315 25.296 29.1235 25.5 28.0195 25.908V24.144C28.5355 23.94 29.1055 23.778 29.7295 23.658C30.3535 23.538 30.9415 23.478 31.4935 23.478C32.7655 23.478 33.7375 23.766 34.4095 24.342C35.0935 24.918 35.4355 25.746 35.4355 26.826V32.856L33.4915 33.054ZM31.2775 31.542C31.5415 31.542 31.8295 31.5 32.1415 31.416C32.4655 31.332 32.7655 31.224 33.0415 31.092V29.13C32.4895 28.998 31.9915 28.932 31.5475 28.932C30.3955 28.932 29.8195 29.376 29.8195 30.264C29.8195 30.684 29.9395 31.002 30.1795 31.218C30.4315 31.434 30.7975 31.542 31.2775 31.542ZM37.6837 37.122V23.91L39.6277 23.712L39.7717 24.306C40.2037 24.054 40.6597 23.856 41.1397 23.712C41.6197 23.556 42.0577 23.478 42.4537 23.478C43.6297 23.478 44.5477 23.898 45.2077 24.738C45.8797 25.578 46.2157 26.742 46.2157 28.23C46.2157 29.838 45.8197 31.086 45.0277 31.974C44.2477 32.85 43.1437 33.288 41.7157 33.288C41.1997 33.288 40.6657 33.222 40.1137 33.09V36.888L37.6837 37.122ZM41.7697 25.35C41.5177 25.35 41.2357 25.398 40.9237 25.494C40.6237 25.578 40.3537 25.692 40.1137 25.836V31.362C40.4977 31.446 40.8937 31.488 41.3017 31.488C42.1057 31.488 42.6997 31.23 43.0837 30.714C43.4797 30.186 43.6777 29.376 43.6777 28.284C43.6777 26.328 43.0417 25.35 41.7697 25.35ZM48.1075 33V23.946L50.5375 23.712V33H48.1075ZM49.3135 22.308C48.8575 22.308 48.5035 22.188 48.2515 21.948C47.9995 21.708 47.8735 21.378 47.8735 20.958C47.8735 20.538 47.9995 20.208 48.2515 19.968C48.5035 19.728 48.8575 19.608 49.3135 19.608C49.7695 19.608 50.1235 19.728 50.3755 19.968C50.6395 20.208 50.7715 20.538 50.7715 20.958C50.7715 21.378 50.6395 21.708 50.3755 21.948C50.1235 22.188 49.7695 22.308 49.3135 22.308ZM55.8772 25.476V30.102C55.8772 31.002 56.3032 31.452 57.1552 31.452C57.4672 31.452 57.8512 31.386 58.3072 31.254V32.892C57.7792 33.132 57.1732 33.252 56.4892 33.252C55.4932 33.252 54.7372 32.994 54.2212 32.478C53.7052 31.962 53.4472 31.212 53.4472 30.228V25.476H52.0792V23.856L53.5732 23.802L53.7352 21.48L55.8772 21.246V23.766H58.2532V25.476H55.8772ZM65.5716 33.054L65.4276 32.46C64.4916 33.012 63.5556 33.288 62.6196 33.288C61.6596 33.288 60.8916 33.024 60.3156 32.496C59.7516 31.968 59.4696 31.254 59.4696 30.354C59.4696 29.43 59.7816 28.71 60.4056 28.194C61.0416 27.678 61.9296 27.42 63.0696 27.42C63.7416 27.42 64.4256 27.486 65.1216 27.618V26.898C65.1216 26.346 64.9596 25.944 64.6356 25.692C64.3116 25.428 63.8076 25.296 63.1236 25.296C62.2116 25.296 61.2036 25.5 60.0996 25.908V24.144C60.6156 23.94 61.1856 23.778 61.8096 23.658C62.4336 23.538 63.0216 23.478 63.5736 23.478C64.8456 23.478 65.8176 23.766 66.4896 24.342C67.1736 24.918 67.5156 25.746 67.5156 26.826V32.856L65.5716 33.054ZM63.3576 31.542C63.6216 31.542 63.9096 31.5 64.2216 31.416C64.5456 31.332 64.8456 31.224 65.1216 31.092V29.13C64.5696 28.998 64.0716 28.932 63.6276 28.932C62.4756 28.932 61.8996 29.376 61.8996 30.264C61.8996 30.684 62.0196 31.002 62.2596 31.218C62.5116 31.434 62.8776 31.542 63.3576 31.542ZM69.7638 33V19.464L72.1938 19.23V33H69.7638ZM81.4394 26.7C81.4394 28.272 81.6734 29.424 82.1414 30.156C82.6094 30.888 83.3414 31.254 84.3374 31.254C85.3334 31.254 86.0654 30.888 86.5334 30.156C87.0014 29.424 87.2354 28.272 87.2354 26.7C87.2354 25.128 87.0014 23.976 86.5334 23.244C86.0654 22.512 85.3334 22.146 84.3374 22.146C83.3414 22.146 82.6094 22.512 82.1414 23.244C81.6734 23.976 81.4394 25.128 81.4394 26.7ZM78.7214 26.7C78.7214 24.552 79.2014 22.92 80.1614 21.804C81.1214 20.676 82.5134 20.112 84.3374 20.112C86.1614 20.112 87.5534 20.676 88.5134 21.804C89.4734 22.92 89.9534 24.552 89.9534 26.7C89.9534 28.848 89.4734 30.486 88.5134 31.614C87.5534 32.73 86.1614 33.288 84.3374 33.288C82.5134 33.288 81.1214 32.73 80.1614 31.614C79.2014 30.486 78.7214 28.848 78.7214 26.7ZM97.6345 33V26.934C97.6345 26.394 97.5145 25.998 97.2745 25.746C97.0345 25.482 96.6565 25.35 96.1405 25.35C95.8525 25.35 95.5525 25.398 95.2405 25.494C94.9285 25.578 94.6525 25.692 94.4125 25.836V33H91.9825V23.91L93.9265 23.712L94.0705 24.306C95.0065 23.754 95.9305 23.478 96.8425 23.478C97.8745 23.478 98.6665 23.754 99.2185 24.306C99.7825 24.846 100.064 25.614 100.064 26.61V33H97.6345ZM109.698 32.64C108.822 33.072 107.85 33.288 106.782 33.288C105.198 33.288 103.986 32.868 103.146 32.028C102.306 31.188 101.886 29.964 101.886 28.356C101.886 27.372 102.072 26.514 102.444 25.782C102.828 25.038 103.35 24.468 104.01 24.072C104.67 23.676 105.426 23.478 106.278 23.478C107.478 23.478 108.42 23.826 109.104 24.522C109.788 25.206 110.13 26.148 110.13 27.348C110.13 27.912 110.076 28.464 109.968 29.004H104.28C104.328 29.844 104.586 30.468 105.054 30.876C105.522 31.272 106.2 31.47 107.088 31.47C108 31.47 108.87 31.272 109.698 30.876V32.64ZM106.278 25.17C105.714 25.17 105.252 25.368 104.892 25.764C104.532 26.148 104.322 26.676 104.262 27.348H107.898V27.078C107.898 26.454 107.76 25.98 107.484 25.656C107.208 25.332 106.806 25.17 106.278 25.17ZM123.884 32.64C123.008 33.072 122.036 33.288 120.968 33.288C119.384 33.288 118.172 32.868 117.332 32.028C116.492 31.188 116.072 29.964 116.072 28.356C116.072 27.372 116.258 26.514 116.63 25.782C117.014 25.038 117.536 24.468 118.196 24.072C118.856 23.676 119.612 23.478 120.464 23.478C121.664 23.478 122.606 23.826 123.29 24.522C123.974 25.206 124.316 26.148 124.316 27.348C124.316 27.912 124.262 28.464 124.154 29.004H118.466C118.514 29.844 118.772 30.468 119.24 30.876C119.708 31.272 120.386 31.47 121.274 31.47C122.186 31.47 123.056 31.272 123.884 30.876V32.64ZM120.464 25.17C119.9 25.17 119.438 25.368 119.078 25.764C118.718 26.148 118.508 26.676 118.448 27.348H122.084V27.078C122.084 26.454 121.946 25.98 121.67 25.656C121.394 25.332 120.992 25.17 120.464 25.17ZM131.679 33L129.663 30.012L127.683 33H125.181L128.439 28.302L125.415 23.766H128.097L129.825 26.52L131.589 23.766H134.091L131.049 28.248L134.361 33H131.679ZM135.682 37.122V23.91L137.626 23.712L137.77 24.306C138.202 24.054 138.658 23.856 139.138 23.712C139.618 23.556 140.056 23.478 140.452 23.478C141.628 23.478 142.546 23.898 143.206 24.738C143.878 25.578 144.214 26.742 144.214 28.23C144.214 29.838 143.818 31.086 143.026 31.974C142.246 32.85 141.142 33.288 139.714 33.288C139.198 33.288 138.664 33.222 138.112 33.09V36.888L135.682 37.122ZM139.768 25.35C139.516 25.35 139.234 25.398 138.922 25.494C138.622 25.578 138.352 25.692 138.112 25.836V31.362C138.496 31.446 138.892 31.488 139.3 31.488C140.104 31.488 140.698 31.23 141.082 30.714C141.478 30.186 141.676 29.376 141.676 28.284C141.676 26.328 141.04 25.35 139.768 25.35ZM153.468 32.64C152.592 33.072 151.62 33.288 150.552 33.288C148.968 33.288 147.756 32.868 146.916 32.028C146.076 31.188 145.656 29.964 145.656 28.356C145.656 27.372 145.842 26.514 146.214 25.782C146.598 25.038 147.12 24.468 147.78 24.072C148.44 23.676 149.196 23.478 150.048 23.478C151.248 23.478 152.19 23.826 152.874 24.522C153.558 25.206 153.9 26.148 153.9 27.348C153.9 27.912 153.846 28.464 153.738 29.004H148.05C148.098 29.844 148.356 30.468 148.824 30.876C149.292 31.272 149.97 31.47 150.858 31.47C151.77 31.47 152.64 31.272 153.468 30.876V32.64ZM150.048 25.17C149.484 25.17 149.022 25.368 148.662 25.764C148.302 26.148 148.092 26.676 148.032 27.348H151.668V27.078C151.668 26.454 151.53 25.98 151.254 25.656C150.978 25.332 150.576 25.17 150.048 25.17ZM161.443 33V26.934C161.443 26.394 161.323 25.998 161.083 25.746C160.843 25.482 160.465 25.35 159.949 25.35C159.661 25.35 159.361 25.398 159.049 25.494C158.737 25.578 158.461 25.692 158.221 25.836V33H155.791V23.91L157.735 23.712L157.879 24.306C158.815 23.754 159.739 23.478 160.651 23.478C161.683 23.478 162.475 23.754 163.027 24.306C163.591 24.846 163.873 25.614 163.873 26.61V33H161.443ZM165.605 30.858C166.049 31.062 166.535 31.224 167.063 31.344C167.603 31.452 168.107 31.506 168.575 31.506C169.139 31.506 169.589 31.41 169.925 31.218C170.261 31.014 170.429 30.744 170.429 30.408C170.429 30.156 170.351 29.958 170.195 29.814C170.039 29.67 169.757 29.538 169.349 29.418L168.287 29.112C167.399 28.86 166.751 28.524 166.343 28.104C165.947 27.672 165.749 27.102 165.749 26.394C165.749 25.482 166.085 24.768 166.757 24.252C167.441 23.736 168.377 23.478 169.565 23.478C170.513 23.478 171.455 23.676 172.391 24.072V25.836C171.455 25.452 170.585 25.26 169.781 25.26C169.289 25.26 168.893 25.344 168.593 25.512C168.305 25.668 168.161 25.884 168.161 26.16C168.161 26.376 168.233 26.55 168.377 26.682C168.533 26.814 168.803 26.94 169.187 27.06L170.465 27.438C171.281 27.678 171.881 28.032 172.265 28.5C172.649 28.956 172.841 29.55 172.841 30.282C172.841 31.266 172.493 32.016 171.797 32.532C171.113 33.036 170.111 33.288 168.791 33.288C167.615 33.288 166.643 33.096 165.875 32.712L165.605 30.858ZM181.997 32.64C181.121 33.072 180.149 33.288 179.081 33.288C177.497 33.288 176.285 32.868 175.445 32.028C174.605 31.188 174.185 29.964 174.185 28.356C174.185 27.372 174.371 26.514 174.743 25.782C175.127 25.038 175.649 24.468 176.309 24.072C176.969 23.676 177.725 23.478 178.577 23.478C179.777 23.478 180.719 23.826 181.403 24.522C182.087 25.206 182.429 26.148 182.429 27.348C182.429 27.912 182.375 28.464 182.267 29.004H176.579C176.627 29.844 176.885 30.468 177.353 30.876C177.821 31.272 178.499 31.47 179.387 31.47C180.299 31.47 181.169 31.272 181.997 30.876V32.64ZM178.577 25.17C178.013 25.17 177.551 25.368 177.191 25.764C176.831 26.148 176.621 26.676 176.561 27.348H180.197V27.078C180.197 26.454 180.059 25.98 179.783 25.656C179.507 25.332 179.105 25.17 178.577 25.17ZM199.62 33V26.844C199.62 25.848 199.17 25.35 198.27 25.35C197.682 25.35 197.124 25.518 196.596 25.854C196.62 25.962 196.632 26.07 196.632 26.178C196.644 26.286 196.65 26.394 196.65 26.502V33H194.22V26.844C194.22 25.848 193.77 25.35 192.87 25.35C192.282 25.35 191.742 25.512 191.25 25.836V33H188.82V23.91L190.764 23.712L190.908 24.306C191.796 23.754 192.684 23.478 193.572 23.478C194.64 23.478 195.444 23.796 195.984 24.432C197.016 23.796 198.018 23.478 198.99 23.478C199.962 23.478 200.712 23.742 201.24 24.27C201.78 24.798 202.05 25.542 202.05 26.502V33H199.62ZM209.958 33.054L209.814 32.46C208.878 33.012 207.942 33.288 207.006 33.288C206.046 33.288 205.278 33.024 204.702 32.496C204.138 31.968 203.856 31.254 203.856 30.354C203.856 29.43 204.168 28.71 204.792 28.194C205.428 27.678 206.316 27.42 207.456 27.42C208.128 27.42 208.812 27.486 209.508 27.618V26.898C209.508 26.346 209.346 25.944 209.022 25.692C208.698 25.428 208.194 25.296 207.51 25.296C206.598 25.296 205.59 25.5 204.486 25.908V24.144C205.002 23.94 205.572 23.778 206.196 23.658C206.82 23.538 207.408 23.478 207.96 23.478C209.232 23.478 210.204 23.766 210.876 24.342C211.56 24.918 211.902 25.746 211.902 26.826V32.856L209.958 33.054ZM207.744 31.542C208.008 31.542 208.296 31.5 208.608 31.416C208.932 31.332 209.232 31.224 209.508 31.092V29.13C208.956 28.998 208.458 28.932 208.014 28.932C206.862 28.932 206.286 29.376 206.286 30.264C206.286 30.684 206.406 31.002 206.646 31.218C206.898 31.434 207.264 31.542 207.744 31.542ZM219.802 33V26.934C219.802 26.394 219.682 25.998 219.442 25.746C219.202 25.482 218.824 25.35 218.308 25.35C218.02 25.35 217.72 25.398 217.408 25.494C217.096 25.578 216.82 25.692 216.58 25.836V33H214.15V23.91L216.094 23.712L216.238 24.306C217.174 23.754 218.098 23.478 219.01 23.478C220.042 23.478 220.834 23.754 221.386 24.306C221.95 24.846 222.232 25.614 222.232 26.61V33H219.802ZM230.138 33.054L229.994 32.46C229.058 33.012 228.122 33.288 227.186 33.288C226.226 33.288 225.458 33.024 224.882 32.496C224.318 31.968 224.036 31.254 224.036 30.354C224.036 29.43 224.348 28.71 224.972 28.194C225.608 27.678 226.496 27.42 227.636 27.42C228.308 27.42 228.992 27.486 229.688 27.618V26.898C229.688 26.346 229.526 25.944 229.202 25.692C228.878 25.428 228.374 25.296 227.69 25.296C226.778 25.296 225.77 25.5 224.666 25.908V24.144C225.182 23.94 225.752 23.778 226.376 23.658C227 23.538 227.588 23.478 228.14 23.478C229.412 23.478 230.384 23.766 231.056 24.342C231.74 24.918 232.082 25.746 232.082 26.826V32.856L230.138 33.054ZM227.924 31.542C228.188 31.542 228.476 31.5 228.788 31.416C229.112 31.332 229.412 31.224 229.688 31.092V29.13C229.136 28.998 228.638 28.932 228.194 28.932C227.042 28.932 226.466 29.376 226.466 30.264C226.466 30.684 226.586 31.002 226.826 31.218C227.078 31.434 227.444 31.542 227.924 31.542ZM237.714 37.302C236.574 37.302 235.608 37.11 234.816 36.726L234.546 34.782C235.014 34.986 235.512 35.142 236.04 35.25C236.58 35.37 237.084 35.43 237.552 35.43C239.172 35.43 239.982 34.716 239.982 33.288V32.46C239.586 32.664 239.178 32.826 238.758 32.946C238.35 33.054 237.978 33.108 237.642 33.108C236.478 33.108 235.56 32.7 234.888 31.884C234.216 31.068 233.88 29.952 233.88 28.536C233.88 26.916 234.3 25.668 235.14 24.792C235.98 23.916 237.174 23.478 238.722 23.478C239.874 23.478 241.104 23.712 242.412 24.18V32.928C242.412 34.356 242.01 35.442 241.206 36.186C240.402 36.93 239.238 37.302 237.714 37.302ZM238.326 31.236C238.578 31.236 238.854 31.194 239.154 31.11C239.466 31.014 239.742 30.894 239.982 30.75V25.404C239.61 25.32 239.214 25.278 238.794 25.278C237.99 25.278 237.39 25.542 236.994 26.07C236.61 26.586 236.418 27.384 236.418 28.464C236.418 30.312 237.054 31.236 238.326 31.236ZM252.116 32.64C251.24 33.072 250.268 33.288 249.2 33.288C247.616 33.288 246.404 32.868 245.564 32.028C244.724 31.188 244.304 29.964 244.304 28.356C244.304 27.372 244.49 26.514 244.862 25.782C245.246 25.038 245.768 24.468 246.428 24.072C247.088 23.676 247.844 23.478 248.696 23.478C249.896 23.478 250.838 23.826 251.522 24.522C252.206 25.206 252.548 26.148 252.548 27.348C252.548 27.912 252.494 28.464 252.386 29.004H246.698C246.746 29.844 247.004 30.468 247.472 30.876C247.94 31.272 248.618 31.47 249.506 31.47C250.418 31.47 251.288 31.272 252.116 30.876V32.64ZM248.696 25.17C248.132 25.17 247.67 25.368 247.31 25.764C246.95 26.148 246.74 26.676 246.68 27.348H250.316V27.078C250.316 26.454 250.178 25.98 249.902 25.656C249.626 25.332 249.224 25.17 248.696 25.17ZM265.24 33V26.844C265.24 25.848 264.79 25.35 263.89 25.35C263.302 25.35 262.744 25.518 262.216 25.854C262.24 25.962 262.252 26.07 262.252 26.178C262.264 26.286 262.27 26.394 262.27 26.502V33H259.84V26.844C259.84 25.848 259.39 25.35 258.49 25.35C257.902 25.35 257.362 25.512 256.87 25.836V33H254.44V23.91L256.384 23.712L256.528 24.306C257.416 23.754 258.304 23.478 259.192 23.478C260.26 23.478 261.064 23.796 261.604 24.432C262.636 23.796 263.638 23.478 264.61 23.478C265.582 23.478 266.332 23.742 266.86 24.27C267.4 24.798 267.67 25.542 267.67 26.502V33H265.24ZM277.305 32.64C276.429 33.072 275.457 33.288 274.389 33.288C272.805 33.288 271.593 32.868 270.753 32.028C269.913 31.188 269.493 29.964 269.493 28.356C269.493 27.372 269.679 26.514 270.051 25.782C270.435 25.038 270.957 24.468 271.617 24.072C272.277 23.676 273.033 23.478 273.885 23.478C275.085 23.478 276.027 23.826 276.711 24.522C277.395 25.206 277.737 26.148 277.737 27.348C277.737 27.912 277.683 28.464 277.575 29.004H271.887C271.935 29.844 272.193 30.468 272.661 30.876C273.129 31.272 273.807 31.47 274.695 31.47C275.607 31.47 276.477 31.272 277.305 30.876V32.64ZM273.885 25.17C273.321 25.17 272.859 25.368 272.499 25.764C272.139 26.148 271.929 26.676 271.869 27.348H275.505V27.078C275.505 26.454 275.367 25.98 275.091 25.656C274.815 25.332 274.413 25.17 273.885 25.17ZM285.281 33V26.934C285.281 26.394 285.161 25.998 284.921 25.746C284.681 25.482 284.303 25.35 283.787 25.35C283.499 25.35 283.199 25.398 282.887 25.494C282.575 25.578 282.299 25.692 282.059 25.836V33H279.629V23.91L281.573 23.712L281.717 24.306C282.653 23.754 283.577 23.478 284.489 23.478C285.521 23.478 286.313 23.754 286.865 24.306C287.429 24.846 287.711 25.614 287.711 26.61V33H285.281ZM292.989 25.476V30.102C292.989 31.002 293.415 31.452 294.267 31.452C294.579 31.452 294.963 31.386 295.419 31.254V32.892C294.891 33.132 294.285 33.252 293.601 33.252C292.605 33.252 291.849 32.994 291.333 32.478C290.817 31.962 290.559 31.212 290.559 30.228V25.476H289.191V23.856L290.685 23.802L290.847 21.48L292.989 21.246V23.766H295.365V25.476H292.989ZM301.549 33V23.946L303.979 23.712V33H301.549ZM302.755 22.308C302.299 22.308 301.945 22.188 301.693 21.948C301.441 21.708 301.315 21.378 301.315 20.958C301.315 20.538 301.441 20.208 301.693 19.968C301.945 19.728 302.299 19.608 302.755 19.608C303.211 19.608 303.565 19.728 303.817 19.968C304.081 20.208 304.213 20.538 304.213 20.958C304.213 21.378 304.081 21.708 303.817 21.948C303.565 22.188 303.211 22.308 302.755 22.308ZM311.965 33V26.934C311.965 26.394 311.845 25.998 311.605 25.746C311.365 25.482 310.987 25.35 310.471 25.35C310.183 25.35 309.883 25.398 309.571 25.494C309.259 25.578 308.983 25.692 308.743 25.836V33H306.313V23.91L308.257 23.712L308.401 24.306C309.337 23.754 310.261 23.478 311.173 23.478C312.205 23.478 312.997 23.754 313.549 24.306C314.113 24.846 314.395 25.614 314.395 26.61V33H311.965ZM319.672 25.476V30.102C319.672 31.002 320.098 31.452 320.95 31.452C321.262 31.452 321.646 31.386 322.102 31.254V32.892C321.574 33.132 320.968 33.252 320.284 33.252C319.288 33.252 318.532 32.994 318.016 32.478C317.5 31.962 317.242 31.212 317.242 30.228V25.476H315.874V23.856L317.368 23.802L317.53 21.48L319.672 21.246V23.766H322.048V25.476H319.672ZM331.095 32.64C330.219 33.072 329.247 33.288 328.179 33.288C326.595 33.288 325.383 32.868 324.543 32.028C323.703 31.188 323.283 29.964 323.283 28.356C323.283 27.372 323.469 26.514 323.841 25.782C324.225 25.038 324.747 24.468 325.407 24.072C326.067 23.676 326.823 23.478 327.675 23.478C328.875 23.478 329.817 23.826 330.501 24.522C331.185 25.206 331.527 26.148 331.527 27.348C331.527 27.912 331.473 28.464 331.365 29.004H325.677C325.725 29.844 325.983 30.468 326.451 30.876C326.919 31.272 327.597 31.47 328.485 31.47C329.397 31.47 330.267 31.272 331.095 30.876V32.64ZM327.675 25.17C327.111 25.17 326.649 25.368 326.289 25.764C325.929 26.148 325.719 26.676 325.659 27.348H329.295V27.078C329.295 26.454 329.157 25.98 328.881 25.656C328.605 25.332 328.203 25.17 327.675 25.17ZM336.802 37.302C335.662 37.302 334.696 37.11 333.904 36.726L333.634 34.782C334.102 34.986 334.6 35.142 335.128 35.25C335.668 35.37 336.172 35.43 336.64 35.43C338.26 35.43 339.07 34.716 339.07 33.288V32.46C338.674 32.664 338.266 32.826 337.846 32.946C337.438 33.054 337.066 33.108 336.73 33.108C335.566 33.108 334.648 32.7 333.976 31.884C333.304 31.068 332.968 29.952 332.968 28.536C332.968 26.916 333.388 25.668 334.228 24.792C335.068 23.916 336.262 23.478 337.81 23.478C338.962 23.478 340.192 23.712 341.5 24.18V32.928C341.5 34.356 341.098 35.442 340.294 36.186C339.49 36.93 338.326 37.302 336.802 37.302ZM337.414 31.236C337.666 31.236 337.942 31.194 338.242 31.11C338.554 31.014 338.83 30.894 339.07 30.75V25.404C338.698 25.32 338.302 25.278 337.882 25.278C337.078 25.278 336.478 25.542 336.082 26.07C335.698 26.586 335.506 27.384 335.506 28.464C335.506 30.312 336.142 31.236 337.414 31.236ZM343.842 33V23.91L345.786 23.712L345.984 24.558C346.74 23.874 347.574 23.532 348.486 23.532C348.774 23.532 349.074 23.574 349.386 23.658V25.656C349.026 25.572 348.708 25.53 348.432 25.53C347.604 25.53 346.884 25.758 346.272 26.214V33H343.842ZM356.314 33.054L356.17 32.46C355.234 33.012 354.298 33.288 353.362 33.288C352.402 33.288 351.634 33.024 351.058 32.496C350.494 31.968 350.212 31.254 350.212 30.354C350.212 29.43 350.524 28.71 351.148 28.194C351.784 27.678 352.672 27.42 353.812 27.42C354.484 27.42 355.168 27.486 355.864 27.618V26.898C355.864 26.346 355.702 25.944 355.378 25.692C355.054 25.428 354.55 25.296 353.866 25.296C352.954 25.296 351.946 25.5 350.842 25.908V24.144C351.358 23.94 351.928 23.778 352.552 23.658C353.176 23.538 353.764 23.478 354.316 23.478C355.588 23.478 356.56 23.766 357.232 24.342C357.916 24.918 358.258 25.746 358.258 26.826V32.856L356.314 33.054ZM354.1 31.542C354.364 31.542 354.652 31.5 354.964 31.416C355.288 31.332 355.588 31.224 355.864 31.092V29.13C355.312 28.998 354.814 28.932 354.37 28.932C353.218 28.932 352.642 29.376 352.642 30.264C352.642 30.684 352.762 31.002 353.002 31.218C353.254 31.434 353.62 31.542 354.1 31.542ZM363.512 25.476V30.102C363.512 31.002 363.938 31.452 364.79 31.452C365.102 31.452 365.486 31.386 365.942 31.254V32.892C365.414 33.132 364.808 33.252 364.124 33.252C363.128 33.252 362.372 32.994 361.856 32.478C361.34 31.962 361.082 31.212 361.082 30.228V25.476H359.714V23.856L361.208 23.802L361.37 21.48L363.512 21.246V23.766H365.888V25.476H363.512ZM367.572 33V23.946L370.002 23.712V33H367.572ZM368.778 22.308C368.322 22.308 367.968 22.188 367.716 21.948C367.464 21.708 367.338 21.378 367.338 20.958C367.338 20.538 367.464 20.208 367.716 19.968C367.968 19.728 368.322 19.608 368.778 19.608C369.234 19.608 369.588 19.728 369.84 19.968C370.104 20.208 370.236 20.538 370.236 20.958C370.236 21.378 370.104 21.708 369.84 21.948C369.588 22.188 369.234 22.308 368.778 22.308ZM376.278 31.416C376.938 31.416 377.412 31.182 377.7 30.714C377.988 30.246 378.132 29.466 378.132 28.374C378.132 27.294 377.988 26.52 377.7 26.052C377.412 25.584 376.938 25.35 376.278 25.35C375.618 25.35 375.144 25.584 374.856 26.052C374.568 26.52 374.424 27.294 374.424 28.374C374.424 29.466 374.568 30.246 374.856 30.714C375.144 31.182 375.618 31.416 376.278 31.416ZM376.278 33.288C374.85 33.288 373.758 32.874 373.002 32.046C372.258 31.206 371.886 29.982 371.886 28.374C371.886 26.778 372.258 25.566 373.002 24.738C373.746 23.898 374.838 23.478 376.278 23.478C377.718 23.478 378.81 23.898 379.554 24.738C380.298 25.566 380.67 26.778 380.67 28.374C380.67 29.982 380.292 31.206 379.536 32.046C378.792 32.874 377.706 33.288 376.278 33.288ZM388.218 33V26.934C388.218 26.394 388.098 25.998 387.858 25.746C387.618 25.482 387.24 25.35 386.724 25.35C386.436 25.35 386.136 25.398 385.824 25.494C385.512 25.578 385.236 25.692 384.996 25.836V33H382.566V23.91L384.51 23.712L384.654 24.306C385.59 23.754 386.514 23.478 387.426 23.478C388.458 23.478 389.25 23.754 389.802 24.306C390.366 24.846 390.648 25.614 390.648 26.61V33H388.218ZM404.89 33L403.126 26.304L401.38 33H399.166L396.376 23.766H398.806L400.372 30.012L401.92 23.766H404.422L405.952 30.012L407.536 23.766H409.894L407.104 33H404.89ZM411.184 33V23.946L413.614 23.712V33H411.184ZM412.39 22.308C411.934 22.308 411.58 22.188 411.328 21.948C411.076 21.708 410.95 21.378 410.95 20.958C410.95 20.538 411.076 20.208 411.328 19.968C411.58 19.728 411.934 19.608 412.39 19.608C412.846 19.608 413.2 19.728 413.452 19.968C413.716 20.208 413.848 20.538 413.848 20.958C413.848 21.378 413.716 21.708 413.452 21.948C413.2 22.188 412.846 22.308 412.39 22.308ZM418.953 25.476V30.102C418.953 31.002 419.379 31.452 420.231 31.452C420.543 31.452 420.927 31.386 421.383 31.254V32.892C420.855 33.132 420.249 33.252 419.565 33.252C418.569 33.252 417.813 32.994 417.297 32.478C416.781 31.962 416.523 31.212 416.523 30.228V25.476H415.155V23.856L416.649 23.802L416.811 21.48L418.953 21.246V23.766H421.329V25.476H418.953ZM423.014 33V19.464L425.444 19.23V24.126C426.272 23.694 427.082 23.478 427.874 23.478C428.906 23.478 429.698 23.754 430.25 24.306C430.814 24.846 431.096 25.614 431.096 26.61V33H428.666V26.934C428.666 26.394 428.546 25.998 428.306 25.746C428.066 25.482 427.688 25.35 427.172 25.35C426.884 25.35 426.584 25.398 426.272 25.494C425.96 25.578 425.684 25.692 425.444 25.836V33H423.014ZM444.959 33L442.349 28.5L439.757 33H436.931L440.963 26.628L437.219 20.4H440.135L442.457 24.594L444.779 20.4H447.605L443.807 26.556L447.875 33H444.959ZM456.286 32.64C455.41 33.072 454.438 33.288 453.37 33.288C451.786 33.288 450.574 32.868 449.734 32.028C448.894 31.188 448.474 29.964 448.474 28.356C448.474 27.372 448.66 26.514 449.032 25.782C449.416 25.038 449.938 24.468 450.598 24.072C451.258 23.676 452.014 23.478 452.866 23.478C454.066 23.478 455.008 23.826 455.692 24.522C456.376 25.206 456.718 26.148 456.718 27.348C456.718 27.912 456.664 28.464 456.556 29.004H450.868C450.916 29.844 451.174 30.468 451.642 30.876C452.11 31.272 452.788 31.47 453.676 31.47C454.588 31.47 455.458 31.272 456.286 30.876V32.64ZM452.866 25.17C452.302 25.17 451.84 25.368 451.48 25.764C451.12 26.148 450.91 26.676 450.85 27.348H454.486V27.078C454.486 26.454 454.348 25.98 454.072 25.656C453.796 25.332 453.394 25.17 452.866 25.17ZM458.609 33V23.91L460.553 23.712L460.751 24.558C461.507 23.874 462.341 23.532 463.253 23.532C463.541 23.532 463.841 23.574 464.153 23.658V25.656C463.793 25.572 463.475 25.53 463.199 25.53C462.371 25.53 461.651 25.758 461.039 26.214V33H458.609ZM469.565 31.416C470.225 31.416 470.699 31.182 470.987 30.714C471.275 30.246 471.419 29.466 471.419 28.374C471.419 27.294 471.275 26.52 470.987 26.052C470.699 25.584 470.225 25.35 469.565 25.35C468.905 25.35 468.431 25.584 468.143 26.052C467.855 26.52 467.711 27.294 467.711 28.374C467.711 29.466 467.855 30.246 468.143 30.714C468.431 31.182 468.905 31.416 469.565 31.416ZM469.565 33.288C468.137 33.288 467.045 32.874 466.289 32.046C465.545 31.206 465.173 29.982 465.173 28.374C465.173 26.778 465.545 25.566 466.289 24.738C467.033 23.898 468.125 23.478 469.565 23.478C471.005 23.478 472.097 23.898 472.841 24.738C473.585 25.566 473.957 26.778 473.957 28.374C473.957 29.982 473.579 31.206 472.823 32.046C472.079 32.874 470.993 33.288 469.565 33.288Z" fill="#121212"/>
<g opacity="0.5">
<path d="M308.441 234.176C308.865 234.425 309.319 234.62 309.802 234.762C310.285 234.904 310.751 234.975 311.199 234.975C311.859 234.975 312.378 234.833 312.755 234.549C313.132 234.265 313.321 233.874 313.321 233.377C313.321 233.07 313.244 232.821 313.091 232.632C312.937 232.43 312.684 232.253 312.33 232.099L311.128 231.584C310.527 231.324 310.091 231.028 309.82 230.697C309.549 230.365 309.413 229.963 309.413 229.49C309.413 228.673 309.731 228.004 310.368 227.484C311.004 226.951 311.818 226.685 312.808 226.685C313.279 226.685 313.751 226.75 314.222 226.88C314.706 226.998 315.148 227.176 315.548 227.413L315.318 228.62C314.458 228.17 313.656 227.945 312.914 227.945C312.325 227.945 311.859 228.069 311.517 228.318C311.187 228.555 311.022 228.886 311.022 229.312C311.022 229.561 311.093 229.768 311.234 229.933C311.388 230.087 311.653 230.247 312.03 230.413L313.232 230.927C313.81 231.176 314.234 231.49 314.505 231.868C314.788 232.235 314.929 232.691 314.929 233.235C314.929 234.135 314.594 234.862 313.922 235.419C313.262 235.963 312.389 236.235 311.305 236.235C310.763 236.235 310.238 236.17 309.731 236.04C309.236 235.922 308.806 235.756 308.441 235.543V234.176Z" fill="#013D5B"/>
<path d="M300.654 234.176C301.078 234.425 301.532 234.62 302.015 234.762C302.499 234.904 302.964 234.975 303.412 234.975C304.072 234.975 304.591 234.833 304.968 234.549C305.345 234.265 305.534 233.874 305.534 233.377C305.534 233.07 305.457 232.821 305.304 232.632C305.151 232.43 304.897 232.253 304.544 232.099L303.341 231.584C302.74 231.324 302.304 231.028 302.033 230.697C301.762 230.365 301.626 229.963 301.626 229.49C301.626 228.673 301.945 228.004 302.581 227.484C303.218 226.951 304.031 226.685 305.021 226.685C305.492 226.685 305.964 226.75 306.435 226.88C306.919 226.998 307.361 227.176 307.761 227.413L307.532 228.62C306.671 228.17 305.87 227.945 305.127 227.945C304.538 227.945 304.072 228.069 303.73 228.318C303.4 228.555 303.235 228.886 303.235 229.312C303.235 229.561 303.306 229.768 303.447 229.933C303.601 230.087 303.866 230.247 304.243 230.413L305.445 230.927C306.023 231.176 306.447 231.49 306.718 231.868C307.001 232.235 307.143 232.691 307.143 233.235C307.143 234.135 306.807 234.862 306.135 235.419C305.475 235.963 304.602 236.235 303.518 236.235C302.976 236.235 302.451 236.17 301.945 236.04C301.449 235.922 301.019 235.756 300.654 235.543V234.176Z" fill="#013D5B"/>
<path d="M298.515 235.632C298.138 235.821 297.708 235.969 297.225 236.076C296.741 236.182 296.27 236.235 295.81 236.235C294.632 236.235 293.724 235.922 293.088 235.294C292.463 234.655 292.15 233.744 292.15 232.561C292.15 231.413 292.363 230.389 292.787 229.49C293.211 228.59 293.771 227.898 294.467 227.413C295.174 226.927 295.952 226.685 296.8 226.685C297.767 226.685 298.521 226.945 299.063 227.466C299.617 227.987 299.894 228.703 299.894 229.614C299.894 230.253 299.777 230.981 299.541 231.797H293.795C293.783 231.939 293.771 232.087 293.759 232.241C293.748 232.383 293.742 232.525 293.742 232.667C293.742 234.194 294.52 234.957 296.076 234.957C296.547 234.957 297.018 234.91 297.49 234.815C297.973 234.709 298.398 234.573 298.763 234.407L298.515 235.632ZM296.712 227.874C296.076 227.874 295.522 228.117 295.05 228.602C294.59 229.087 294.249 229.768 294.025 230.643H298.286C298.356 230.3 298.392 229.963 298.392 229.632C298.392 229.052 298.25 228.614 297.967 228.318C297.684 228.022 297.266 227.874 296.712 227.874Z" fill="#013D5B"/>
<path d="M287.871 235.969L289.02 230.04C289.068 229.756 289.091 229.513 289.091 229.312C289.091 228.874 288.956 228.543 288.684 228.318C288.413 228.081 288.019 227.963 287.5 227.963C287.158 227.963 286.793 228.022 286.404 228.14C286.015 228.247 285.661 228.395 285.343 228.584L283.911 235.969H282.302L284.035 227.058L285.361 226.916V227.519C286.327 226.963 287.241 226.685 288.101 226.685C288.938 226.685 289.586 226.898 290.046 227.324C290.506 227.738 290.735 228.318 290.735 229.064C290.735 229.371 290.706 229.661 290.647 229.933L289.48 235.969H287.871Z" fill="#013D5B"/>
<path d="M278.296 235.969L280.011 227.111L281.655 226.916L279.905 235.969H278.296ZM281.266 225.105C280.972 225.105 280.736 225.034 280.559 224.892C280.394 224.738 280.312 224.531 280.312 224.271C280.312 223.892 280.418 223.596 280.63 223.383C280.854 223.158 281.155 223.046 281.532 223.046C281.826 223.046 282.056 223.123 282.221 223.276C282.398 223.418 282.486 223.62 282.486 223.88C282.486 224.259 282.374 224.561 282.15 224.785C281.938 224.998 281.644 225.105 281.266 225.105Z" fill="#013D5B"/>
<path d="M270.439 234.176C270.863 234.425 271.317 234.62 271.8 234.762C272.283 234.904 272.749 234.975 273.197 234.975C273.857 234.975 274.375 234.833 274.753 234.549C275.13 234.265 275.318 233.874 275.318 233.377C275.318 233.07 275.242 232.821 275.088 232.632C274.935 232.43 274.682 232.253 274.328 232.099L273.126 231.584C272.525 231.324 272.089 231.028 271.818 230.697C271.547 230.365 271.411 229.963 271.411 229.49C271.411 228.673 271.729 228.004 272.366 227.484C273.002 226.951 273.815 226.685 274.806 226.685C275.277 226.685 275.749 226.75 276.22 226.88C276.703 226.998 277.145 227.176 277.546 227.413L277.316 228.62C276.456 228.17 275.654 227.945 274.912 227.945C274.322 227.945 273.857 228.069 273.515 228.318C273.185 228.555 273.02 228.886 273.02 229.312C273.02 229.561 273.091 229.768 273.232 229.933C273.385 230.087 273.65 230.247 274.028 230.413L275.23 230.927C275.807 231.176 276.232 231.49 276.503 231.868C276.786 232.235 276.927 232.691 276.927 233.235C276.927 234.135 276.591 234.862 275.919 235.419C275.259 235.963 274.387 236.235 273.303 236.235C272.761 236.235 272.236 236.17 271.729 236.04C271.234 235.922 270.804 235.756 270.439 235.543V234.176Z" fill="#013D5B"/>
<path d="M264.39 226.951L263.24 232.88C263.193 233.164 263.17 233.407 263.17 233.608C263.17 234.034 263.299 234.365 263.559 234.602C263.83 234.839 264.207 234.957 264.69 234.957C265.032 234.957 265.397 234.904 265.786 234.797C266.175 234.679 266.529 234.525 266.847 234.336L268.279 226.951H269.888L268.155 235.862L266.829 236.005V235.401C265.863 235.957 264.949 236.235 264.089 236.235C263.299 236.235 262.675 236.028 262.215 235.614C261.755 235.188 261.525 234.602 261.525 233.857C261.525 233.549 261.555 233.259 261.614 232.987L262.781 226.951H264.39Z" fill="#013D5B"/>
<path d="M250.763 235.969L253.114 223.809C253.503 223.702 254.016 223.614 254.653 223.543C255.301 223.46 255.884 223.418 256.403 223.418C257.652 223.418 258.607 223.673 259.267 224.182C259.927 224.679 260.257 225.401 260.257 226.348C260.257 227.117 260.033 227.774 259.585 228.318C259.137 228.862 258.501 229.253 257.676 229.49C258.136 229.608 258.525 229.791 258.843 230.04C259.173 230.288 259.42 230.59 259.585 230.945C259.75 231.288 259.833 231.673 259.833 232.099C259.833 233.33 259.414 234.283 258.578 234.957C257.752 235.632 256.591 235.969 255.095 235.969H250.763ZM255.095 234.673C256.049 234.673 256.792 234.448 257.322 233.999C257.864 233.537 258.136 232.904 258.136 232.099C258.136 231.496 257.941 231.034 257.552 230.714C257.175 230.383 256.639 230.217 255.943 230.217H253.503L252.637 234.673H255.095ZM256.332 224.679C255.613 224.679 255.018 224.738 254.546 224.856L253.733 228.975H255.802C256.65 228.975 257.328 228.756 257.835 228.318C258.354 227.868 258.613 227.277 258.613 226.543C258.613 225.3 257.853 224.679 256.332 224.679Z" fill="#013D5B"/>
<path d="M300.871 209.361C300.871 209.361 300.863 209.369 300.859 209.369C296.6 212.395 291.556 215.574 286.13 218.911L285.914 219.038C285.843 219.089 285.823 219.192 285.874 219.263C285.925 219.338 286.028 219.353 286.098 219.302L286.279 219.207C290.88 216.797 296.168 213.933 301.484 210.998C301.512 210.982 301.539 210.967 301.57 210.951C301.28 210.469 301.04 209.941 300.867 209.361H300.871ZM328.818 186.643C322.107 179.21 278.92 185.897 260.552 189.925L260.124 190.019C260.038 190.035 259.979 190.122 259.99 190.209C260.006 190.299 260.089 190.359 260.179 190.343L260.603 190.26C275.82 187.542 307.464 183.767 314.273 190.548C316.351 192.615 315.856 195.282 313.448 198.422C314.748 199.258 315.672 200.576 316.088 202.225C325.49 195.945 331.808 189.956 328.818 186.647V186.643Z" fill="#CC2427"/>
<path d="M303.586 207.408C303.672 210.024 305.319 212.166 307.472 212.166C311.636 212.166 313.412 207.03 313.287 203.598C313.2 200.974 311.507 198.84 309.361 198.84C305.778 198.84 303.464 203.953 303.586 207.408ZM301.386 207.266C301.232 202.805 304.714 198.24 309.774 198.24C313.157 198.24 315.373 200.505 315.495 203.972C315.656 208.678 312.403 213.002 307.106 213.002C303.723 213.002 301.508 210.742 301.386 207.27V207.266Z" fill="#013D5B"/>
<path d="M253.464 206.087C253.284 206.154 253.052 206.225 252.761 206.284C252.474 206.351 251.944 206.442 251.178 206.564C250.651 206.647 250.286 206.757 250.074 206.907C249.873 207.057 249.755 207.235 249.724 207.448C249.681 207.677 249.759 207.862 249.956 208.008C250.156 208.15 250.498 208.221 250.973 208.221C251.331 208.221 251.684 208.162 252.022 208.055C252.368 207.941 252.655 207.787 252.883 207.598C253.048 207.456 253.166 207.274 253.252 207.057C253.303 206.915 253.374 206.592 253.46 206.087H253.464ZM257.861 203.341C257.841 203.751 257.774 204.11 257.664 204.738L256.918 208.931C256.855 209.302 256.993 209.594 257.334 209.795L257.311 209.961L253.052 209.953L253.012 208.888C252.392 209.262 251.645 209.582 250.965 209.767C250.29 209.941 249.744 210.02 248.922 210.02C247.547 210.02 246.758 209.878 246.215 209.396C245.661 208.903 245.394 208.576 245.422 207.893C245.441 207.503 245.646 207.002 245.936 206.651C246.231 206.296 246.632 206.063 247.072 205.854C247.512 205.645 248.027 205.491 248.781 205.373C249.535 205.25 250.584 205.128 251.991 205.01C252.73 204.947 253.178 204.777 253.39 204.69C253.684 204.576 253.798 204.45 253.841 204.209C253.92 203.779 253.783 203.53 253.213 203.42C251.677 203.116 248.801 203.617 247.319 203.988L248.125 201.807C250.081 201.519 251.912 201.337 253.841 201.337C256.906 201.337 257.888 202.217 257.857 203.345L257.861 203.341Z" fill="#013D5B"/>
<path d="M270.21 209.961L271.687 201.582H275.765L274.288 209.961H270.21ZM271.915 199.641C272.036 198.95 273.121 198.394 274.327 198.394C275.533 198.394 276.421 198.954 276.307 199.641C276.182 200.331 275.097 200.887 273.887 200.887C272.677 200.887 271.793 200.331 271.915 199.641Z" fill="#013D5B"/>
<path d="M290.251 206.11C290.066 206.174 289.831 206.241 289.544 206.308C289.257 206.375 288.731 206.461 287.961 206.588C287.438 206.671 287.065 206.781 286.864 206.931C286.668 207.073 286.554 207.254 286.511 207.471C286.467 207.704 286.554 207.89 286.743 208.028C286.947 208.17 287.289 208.241 287.768 208.241C288.122 208.241 288.471 208.185 288.813 208.079C289.159 207.961 289.45 207.815 289.674 207.621C289.831 207.479 289.952 207.294 290.035 207.077C290.086 206.935 290.157 206.615 290.247 206.11H290.251ZM294.648 203.357C294.632 203.767 294.557 204.13 294.447 204.753L293.709 208.951C293.646 209.322 293.779 209.613 294.125 209.819L294.101 209.965L289.842 209.972L289.811 208.903C289.19 209.282 288.436 209.598 287.764 209.779C287.084 209.957 286.538 210.032 285.713 210.032C284.338 210.032 283.556 209.894 283.01 209.412C282.456 208.915 282.185 208.592 282.216 207.913C282.232 207.519 282.436 207.014 282.731 206.667C283.026 206.304 283.426 206.079 283.867 205.87C284.307 205.661 284.825 205.507 285.568 205.385C286.326 205.266 287.379 205.14 288.782 205.022C289.512 204.959 289.964 204.793 290.173 204.714C290.471 204.6 290.589 204.469 290.632 204.229C290.707 203.807 290.573 203.554 290.007 203.44C288.463 203.136 285.595 203.637 284.114 204.008L284.916 201.826C286.88 201.538 288.703 201.353 290.632 201.353C293.697 201.353 294.675 202.237 294.648 203.361V203.357Z" fill="#013D5B"/>
<path d="M244.868 206.947C243.54 207.211 242.793 207.314 241.481 207.314C239.532 207.314 237.984 206.343 238.067 204.56C238.126 203.373 239.524 200.872 243.08 200.872C244.2 200.872 245.072 201.069 246.251 201.743L246.765 198.832C245.166 198.225 244.106 198.134 242.734 198.15C238.075 198.201 233.596 200.327 233.042 204.655C232.476 209.049 237.823 210.154 240.196 210.146C241.567 210.142 242.99 210.087 244.322 209.949L244.864 206.951L244.868 206.947Z" fill="#013D5B"/>
<path d="M278.016 201.534L278.311 199.83L282.578 198.899L282.122 201.538H284.212L283.815 203.227H281.788L280.558 209.961C280.558 209.961 276.453 209.933 276.437 209.961L277.663 203.239H276.111L276.425 201.538H278.016V201.534Z" fill="#013D5B"/>
<path d="M298.789 209.953L294.636 209.961L296.726 198.272L300.773 198.386L298.789 209.953Z" fill="#013D5B"/>
<path d="M264.815 203.546C264.281 203.546 263.797 203.708 263.365 204.035C262.941 204.363 262.67 204.836 262.56 205.471C262.43 206.201 262.505 206.726 262.796 207.053C263.086 207.377 263.507 207.538 264.057 207.538C264.426 207.538 264.811 207.471 265.094 207.333C265.444 207.148 265.683 206.951 265.892 206.643C266.116 206.319 266.265 205.957 266.339 205.538C266.457 204.876 266.359 204.383 266.053 204.055C265.754 203.72 265.345 203.554 264.815 203.554V203.546ZM257.385 212.852L259.37 201.625H262.953L262.674 203.057C262.984 202.631 263.483 202.276 264.167 201.992C264.858 201.708 265.636 201.499 266.481 201.499C267.416 201.499 267.994 201.55 268.693 201.913C269.388 202.28 269.872 202.809 270.139 203.503C270.406 204.185 270.465 204.951 270.32 205.783C270.076 207.168 269.404 208.26 268.304 209.061C267.212 209.862 266.226 210.075 264.823 210.079C264.324 210.079 263.907 210.028 263.562 209.941C263.224 209.85 262.957 209.744 262.748 209.613C262.552 209.479 262.344 209.298 262.077 209.006L261.409 212.856H257.385V212.852Z" fill="#013D5B"/>
<path d="M331.438 204.576C331.415 203.901 331.077 203.448 330.381 203.448C328.708 203.448 326.928 206.738 326.621 208.063C329.368 208.063 331.501 206.422 331.434 204.576H331.438ZM331.8 209.732L332.122 209.953C331.305 211.621 329.643 212.963 327.69 212.963C326.095 212.963 324.787 211.897 324.716 209.894C324.586 206.304 327.938 202.966 330.68 202.966C331.859 202.966 332.947 203.483 332.998 204.753C333.1 207.609 329.104 208.481 326.476 208.54C326.39 208.84 326.358 209.14 326.374 209.594C326.417 210.777 327.132 211.775 328.606 211.775C329.878 211.775 331.155 210.746 331.8 209.728V209.732Z" fill="#013D5B"/>
<path d="M315.432 204.481C315.715 204.442 316.17 204.394 316.367 204.394C316.669 204.394 316.948 204.45 316.964 204.749C316.968 204.927 316.65 206.197 316.583 206.493L315.946 209.31C315.691 210.462 315.412 211.669 315.165 212.623H316.799L317.718 208.162C320.524 205.231 321.6 204.272 322.264 204.272C322.563 204.272 322.767 204.43 322.783 204.785C322.799 205.302 322.48 206.473 322.37 206.809L321.431 210.063C321.219 210.793 321.062 211.452 321.074 211.925C321.101 212.639 321.533 212.959 322.17 212.959C323.364 212.959 324.233 211.708 324.991 210.481L324.771 210.079C324.464 210.572 323.757 211.649 323.195 211.649C323.019 211.649 322.854 211.531 322.846 211.235C322.83 210.852 322.987 210.284 323.097 209.909L324.138 206.099C324.417 205.049 324.551 204.375 324.543 204.012C324.515 203.302 324.103 202.966 323.47 202.966C322.398 202.966 320.968 203.755 317.942 207.25H317.899L318.28 205.546C318.488 204.615 318.689 203.641 318.885 202.97C317.84 203.349 316.339 203.771 315.416 203.953L315.432 204.485V204.481Z" fill="#013D5B"/>
<g clip-path="url(#clip1_4529_107)">
<path d="M418.999 235.665C433.304 235.665 444.9 224.069 444.9 209.764C444.9 195.459 433.304 183.863 418.999 183.863C404.695 183.863 393.098 195.459 393.098 209.764C393.098 224.069 404.695 235.665 418.999 235.665Z" fill="#1AB4D7"/>
<path d="M405.497 209.69L409.917 205.259C410.063 205.109 410.145 204.911 410.145 204.702C410.145 204.265 409.79 203.91 409.353 203.91C409.14 203.91 408.94 203.993 408.79 204.146C408.789 204.146 404.374 208.56 404.374 208.56L399.938 204.139C399.788 203.991 399.589 203.91 399.379 203.91C398.942 203.91 398.587 204.264 398.587 204.701C398.587 204.914 398.672 205.114 398.824 205.265L403.244 209.683L398.827 214.109C398.671 214.262 398.587 214.462 398.587 214.676C398.587 215.113 398.942 215.468 399.379 215.468C399.589 215.468 399.788 215.386 399.938 215.236L404.367 210.813L408.779 215.22C408.935 215.382 409.137 215.468 409.353 215.468C409.789 215.468 410.145 215.113 410.145 214.676C410.145 214.465 410.063 214.267 409.914 214.118L405.497 209.69Z" fill="white"/>
<path d="M431.774 209.688C431.774 210.481 432.42 211.127 433.214 211.127C434.007 211.127 434.652 210.481 434.652 209.688C434.652 208.894 434.007 208.248 433.214 208.248C432.42 208.248 431.774 208.894 431.774 209.688Z" fill="white"/>
<path d="M429.044 209.688C429.044 207.39 430.914 205.52 433.212 205.52C435.51 205.52 437.38 207.39 437.38 209.688C437.38 211.986 435.51 213.855 433.212 213.855C430.914 213.855 429.044 211.986 429.044 209.688ZM427.405 209.688C427.405 212.89 430.01 215.495 433.212 215.495C436.415 215.495 439.021 212.89 439.021 209.688C439.021 206.486 436.415 203.881 433.212 203.881C430.01 203.881 427.405 206.486 427.405 209.688Z" fill="white"/>
<path d="M426.993 203.98L426.749 203.98C426.018 203.98 425.312 204.21 424.723 204.664C424.645 204.309 424.328 204.042 423.95 204.042C423.514 204.042 423.165 204.391 423.164 204.827C423.164 204.828 423.167 214.608 423.167 214.608C423.168 215.043 423.523 215.397 423.959 215.397C424.395 215.397 424.75 215.043 424.751 214.607C424.751 214.605 424.751 208.593 424.751 208.593C424.751 206.588 424.934 205.779 426.652 205.564C426.81 205.544 426.983 205.548 426.984 205.548C427.453 205.531 427.787 205.209 427.787 204.772C427.787 204.336 427.431 203.98 426.993 203.98Z" fill="white"/>
<path d="M411.786 208.733C411.786 208.711 411.788 208.688 411.789 208.666C412.248 206.848 413.895 205.503 415.855 205.503C417.839 205.503 419.5 206.881 419.937 208.733H411.786ZM421.558 208.583C421.217 206.967 420.333 205.64 418.986 204.788C417.016 203.537 414.416 203.607 412.514 204.959C410.963 206.063 410.067 207.868 410.067 209.728C410.067 210.194 410.124 210.665 410.241 211.129C410.826 213.433 412.807 215.177 415.169 215.467C415.87 215.551 416.552 215.511 417.259 215.328C417.866 215.18 418.453 214.934 418.995 214.587C419.556 214.226 420.026 213.75 420.48 213.18C420.489 213.169 420.499 213.16 420.508 213.149C420.823 212.758 420.765 212.201 420.418 211.936C420.126 211.712 419.635 211.621 419.249 212.116C419.166 212.234 419.073 212.355 418.971 212.477C418.664 212.817 418.283 213.145 417.826 213.4C417.245 213.711 416.583 213.888 415.88 213.892C413.576 213.866 412.343 212.258 411.905 211.111C411.828 210.896 411.769 210.674 411.728 210.445C411.723 210.402 411.719 210.361 411.717 210.323C412.193 210.323 419.984 210.322 419.984 210.322C421.117 210.298 421.727 209.498 421.558 208.583Z" fill="white"/>
</g>
</g>
<path d="M393.316 196.353C393.316 196.353 392.653 191.651 390.611 189.578C388.026 186.862 385.125 186.851 383.8 186.687C374.284 186 360.011 186 360.011 186H359.978C359.978 186 345.705 186 336.189 186.687C334.864 186.851 331.964 186.862 329.378 189.578C327.336 191.651 326.673 196.353 326.673 196.353C326.673 196.353 326 201.873 326 207.404V212.585C326 218.105 326.684 223.625 326.684 223.625C326.684 223.625 327.347 228.327 329.389 230.4C331.974 233.116 335.374 233.029 336.884 233.313C342.316 233.836 360 234 360 234C360 234 374.284 233.978 383.8 233.291C385.125 233.127 388.026 233.116 390.611 230.4C392.653 228.327 393.316 223.625 393.316 223.625C393.316 223.625 394 218.105 394 212.585V207.404C394 201.873 393.316 196.353 393.316 196.353Z" fill="#CC2427"/>
<path d="M352.983 199.669V218.847L371.351 209.291L352.983 199.669Z" fill="#EAEAEA"/>
<g opacity="0.6">
<path d="M0 382H171C173.209 382 175 383.791 175 386V420H4C1.79086 420 0 418.209 0 416V382Z" fill="#121212"/>
<path d="M25 393.5C20.875 393.5 17.5 396.875 17.5 401C17.5 405.125 20.875 408.5 25 408.5C29.125 408.5 32.5 405.125 32.5 401C32.5 396.875 29.125 393.5 25 393.5ZM28 401.675L23.875 404.075C23.725 404.15 23.65 404.15 23.5 404.15C23.35 404.15 23.275 404.15 23.125 404.075C22.9 403.925 22.75 403.7 22.75 403.475V398.6C22.75 398.3 22.9 398.075 23.125 397.925C23.35 397.775 23.65 397.775 23.875 397.925L28 400.325C28.225 400.475 28.375 400.7 28.375 401C28.375 401.3 28.225 401.525 28 401.675Z" fill="white"/>
<path d="M50.465 406L48.701 398.566L46.937 406H44.921L42.541 396.2H44.571L45.999 403.2L47.595 396.2H49.849L51.431 403.2L52.873 396.2H54.861L52.481 406H50.465ZM60.0117 406.042L59.8997 405.58C59.1717 406.009 58.4437 406.224 57.7157 406.224C56.9691 406.224 56.3717 406.019 55.9237 405.608C55.4851 405.197 55.2657 404.642 55.2657 403.942C55.2657 403.223 55.5084 402.663 55.9937 402.262C56.4884 401.861 57.1791 401.66 58.0657 401.66C58.5884 401.66 59.1204 401.711 59.6617 401.814V401.254C59.6617 400.825 59.5357 400.512 59.2837 400.316C59.0317 400.111 58.6397 400.008 58.1077 400.008C57.3984 400.008 56.6144 400.167 55.7557 400.484V399.112C56.1571 398.953 56.6004 398.827 57.0857 398.734C57.5711 398.641 58.0284 398.594 58.4577 398.594C59.4471 398.594 60.2031 398.818 60.7257 399.266C61.2577 399.714 61.5237 400.358 61.5237 401.198V405.888L60.0117 406.042ZM58.2897 404.866C58.4951 404.866 58.7191 404.833 58.9617 404.768C59.2137 404.703 59.4471 404.619 59.6617 404.516V402.99C59.2324 402.887 58.8451 402.836 58.4997 402.836C57.6037 402.836 57.1557 403.181 57.1557 403.872C57.1557 404.199 57.2491 404.446 57.4357 404.614C57.6317 404.782 57.9164 404.866 58.2897 404.866ZM65.6103 400.148V403.746C65.6103 404.446 65.9416 404.796 66.6043 404.796C66.847 404.796 67.1456 404.745 67.5003 404.642V405.916C67.0896 406.103 66.6183 406.196 66.0863 406.196C65.3116 406.196 64.7236 405.995 64.3223 405.594C63.921 405.193 63.7203 404.609 63.7203 403.844V400.148H62.6563V398.888L63.8183 398.846L63.9443 397.04L65.6103 396.858V398.818H67.4583V400.148H65.6103ZM74.0744 405.734C73.3651 406.061 72.6231 406.224 71.8484 406.224C70.7471 406.224 69.8977 405.897 69.3004 405.244C68.7124 404.591 68.4184 403.653 68.4184 402.43C68.4184 401.198 68.7124 400.251 69.3004 399.588C69.8977 398.925 70.7517 398.594 71.8624 398.594C72.5811 398.594 73.3044 398.757 74.0324 399.084V400.47C73.3604 400.199 72.7631 400.064 72.2404 400.064C71.0084 400.064 70.3924 400.843 70.3924 402.402C70.3924 403.177 70.5464 403.765 70.8544 404.166C71.1717 404.558 71.6337 404.754 72.2404 404.754C72.7631 404.754 73.3744 404.619 74.0744 404.348V405.734ZM75.4676 406V395.472L77.3576 395.29V399.098C78.0016 398.762 78.6316 398.594 79.2476 398.594C80.0503 398.594 80.6663 398.809 81.0956 399.238C81.5343 399.658 81.7536 400.255 81.7536 401.03V406H79.8636V401.282C79.8636 400.862 79.7703 400.554 79.5836 400.358C79.397 400.153 79.103 400.05 78.7016 400.05C78.4776 400.05 78.2443 400.087 78.0016 400.162C77.759 400.227 77.5443 400.316 77.3576 400.428V406H75.4676ZM90.0864 404.768C90.5997 404.768 90.9684 404.586 91.1924 404.222C91.4164 403.858 91.5284 403.251 91.5284 402.402C91.5284 401.562 91.4164 400.96 91.1924 400.596C90.9684 400.232 90.5997 400.05 90.0864 400.05C89.573 400.05 89.2044 400.232 88.9804 400.596C88.7564 400.96 88.6444 401.562 88.6444 402.402C88.6444 403.251 88.7564 403.858 88.9804 404.222C89.2044 404.586 89.573 404.768 90.0864 404.768ZM90.0864 406.224C88.9757 406.224 88.1264 405.902 87.5384 405.258C86.9597 404.605 86.6704 403.653 86.6704 402.402C86.6704 401.161 86.9597 400.218 87.5384 399.574C88.117 398.921 88.9664 398.594 90.0864 398.594C91.2064 398.594 92.0557 398.921 92.6344 399.574C93.213 400.218 93.5024 401.161 93.5024 402.402C93.5024 403.653 93.2084 404.605 92.6204 405.258C92.0417 405.902 91.197 406.224 90.0864 406.224ZM99.3734 406V401.282C99.3734 400.862 99.28 400.554 99.0934 400.358C98.9067 400.153 98.6127 400.05 98.2114 400.05C97.9874 400.05 97.754 400.087 97.5114 400.162C97.2687 400.227 97.054 400.316 96.8674 400.428V406H94.9774V398.93L96.4894 398.776L96.6014 399.238C97.3294 398.809 98.048 398.594 98.7574 398.594C99.56 398.594 100.176 398.809 100.605 399.238C101.044 399.658 101.263 400.255 101.263 401.03V406H99.3734ZM108.966 406V402.738L105.676 396.2H107.818L109.974 401.016L112.158 396.2H114.244L110.954 402.738V406H108.966ZM117.444 404.768C117.957 404.768 118.326 404.586 118.55 404.222C118.774 403.858 118.886 403.251 118.886 402.402C118.886 401.562 118.774 400.96 118.55 400.596C118.326 400.232 117.957 400.05 117.444 400.05C116.93 400.05 116.562 400.232 116.338 400.596C116.114 400.96 116.002 401.562 116.002 402.402C116.002 403.251 116.114 403.858 116.338 404.222C116.562 404.586 116.93 404.768 117.444 404.768ZM117.444 406.224C116.333 406.224 115.484 405.902 114.896 405.258C114.317 404.605 114.028 403.653 114.028 402.402C114.028 401.161 114.317 400.218 114.896 399.574C115.474 398.921 116.324 398.594 117.444 398.594C118.564 398.594 119.413 398.921 119.992 399.574C120.57 400.218 120.86 401.161 120.86 402.402C120.86 403.653 120.566 404.605 119.978 405.258C119.399 405.902 118.554 406.224 117.444 406.224ZM127.011 406.042L126.899 405.58C126.171 406.009 125.452 406.224 124.743 406.224C123.959 406.224 123.352 406.014 122.923 405.594C122.493 405.165 122.279 404.563 122.279 403.788V398.818H124.169V403.536C124.169 404.357 124.542 404.768 125.289 404.768C125.513 404.768 125.746 404.735 125.989 404.67C126.231 404.595 126.446 404.502 126.633 404.39V398.818H128.523V405.888L127.011 406.042ZM132.685 400.148V403.746C132.685 404.446 133.016 404.796 133.679 404.796C133.921 404.796 134.22 404.745 134.575 404.642V405.916C134.164 406.103 133.693 406.196 133.161 406.196C132.386 406.196 131.798 405.995 131.397 405.594C130.995 405.193 130.795 404.609 130.795 403.844V400.148H129.731V398.888L130.893 398.846L131.019 397.04L132.685 396.858V398.818H134.533V400.148H132.685ZM140.519 406.042L140.407 405.58C139.679 406.009 138.96 406.224 138.251 406.224C137.467 406.224 136.86 406.014 136.431 405.594C136.001 405.165 135.787 404.563 135.787 403.788V398.818H137.677V403.536C137.677 404.357 138.05 404.768 138.797 404.768C139.021 404.768 139.254 404.735 139.497 404.67C139.739 404.595 139.954 404.502 140.141 404.39V398.818H142.031V405.888L140.519 406.042ZM145.744 399.098C146.052 398.939 146.365 398.818 146.682 398.734C147.009 398.641 147.303 398.594 147.564 398.594C148.479 398.594 149.193 398.921 149.706 399.574C150.229 400.227 150.49 401.133 150.49 402.29C150.49 403.569 150.159 404.544 149.496 405.216C148.843 405.888 147.891 406.224 146.64 406.224C146.239 406.224 145.782 406.191 145.268 406.126C144.764 406.07 144.293 405.991 143.854 405.888V395.472L145.744 395.29V399.098ZM147.032 400.05C146.836 400.05 146.617 400.087 146.374 400.162C146.141 400.227 145.931 400.316 145.744 400.428V404.726C146.043 404.791 146.351 404.824 146.668 404.824C147.294 404.824 147.756 404.623 148.054 404.222C148.362 403.811 148.516 403.181 148.516 402.332C148.516 400.811 148.022 400.05 147.032 400.05ZM157.688 405.72C157.006 406.056 156.25 406.224 155.42 406.224C154.188 406.224 153.245 405.897 152.592 405.244C151.938 404.591 151.612 403.639 151.612 402.388C151.612 401.623 151.756 400.955 152.046 400.386C152.344 399.807 152.75 399.364 153.264 399.056C153.777 398.748 154.365 398.594 155.028 398.594C155.961 398.594 156.694 398.865 157.226 399.406C157.758 399.938 158.024 400.671 158.024 401.604C158.024 402.043 157.982 402.472 157.898 402.892H153.474C153.511 403.545 153.712 404.031 154.076 404.348C154.44 404.656 154.967 404.81 155.658 404.81C156.367 404.81 157.044 404.656 157.688 404.348V405.72ZM155.028 399.91C154.589 399.91 154.23 400.064 153.95 400.372C153.67 400.671 153.506 401.081 153.46 401.604H156.288V401.394C156.288 400.909 156.18 400.54 155.966 400.288C155.751 400.036 155.438 399.91 155.028 399.91Z" fill="white"/>
</g>
<path d="M693.219 24.0489C693.219 24.7224 692.673 25.2684 692 25.2684C691.326 25.2684 690.78 24.7224 690.78 24.0489C690.78 23.3754 691.326 22.8293 692 22.8293C692.673 22.8293 693.219 23.3754 693.219 24.0489Z" fill="#6E6E6E"/>
<path fill-rule="evenodd" clip-rule="evenodd" d="M682.244 27.7074C682.244 22.3221 686.614 17.9513 692 17.9513C697.385 17.9513 701.756 22.3221 701.756 27.7074C701.756 33.0928 697.385 37.4635 692 37.4635C686.614 37.4635 682.244 33.0928 682.244 27.7074ZM684.195 27.7074C684.195 32.0099 687.697 35.5123 692 35.5123C696.302 35.5123 699.805 32.0099 699.805 27.7074C699.805 23.405 696.302 19.9025 692 19.9025C687.697 19.9025 684.195 23.405 684.195 27.7074Z" fill="#6E6E6E"/>
<path d="M691.024 27.7074C691.024 27.1686 691.461 26.7318 692 26.7318C692.539 26.7318 692.975 27.1686 692.975 27.7074V31.6098C692.975 32.1487 692.539 32.5855 692 32.5855C691.461 32.5855 691.024 32.1487 691.024 31.6098V27.7074Z" fill="#6E6E6E"/>
</g>
<defs>
<linearGradient id="paint0_linear_4529_107" x1="360" y1="0" x2="360" y2="96" gradientUnits="userSpaceOnUse">
<stop stop-opacity="0"/>
<stop offset="1" stop-opacity="0.5"/>
</linearGradient>
<linearGradient id="paint1_linear_4529_107" x1="1080" y1="96" x2="1080" y2="192" gradientUnits="userSpaceOnUse">
<stop stop-opacity="0"/>
<stop offset="1" stop-opacity="0.25"/>
</linearGradient>
<clipPath id="clip0_4529_107">
<rect width="720" height="420" rx="8" fill="white"/>
</clipPath>
<clipPath id="clip1_4529_107">
<rect width="52" height="52" fill="white" transform="translate(393 183.765)"/>
</clipPath>
</defs>
</svg>
