<svg width="24" height="24" viewBox="0 0 24 24" fill="none" xmlns="http://www.w3.org/2000/svg">
<g id="arrow_tail">
<path id="Vector" d="M11.1771 20.2931C11.2321 20.6924 11.5795 21.0002 11.9999 21.0002C12.4585 21.0002 12.8302 20.6339 12.8302 20.182V5.80028L18.0813 10.9955L18.1743 11.0749C18.4989 11.3133 18.9602 11.2878 19.2556 10.9979C19.5805 10.6791 19.5816 10.161 19.258 9.84084L12.5996 3.25248C12.5614 3.21326 12.5194 3.17777 12.474 3.14663C12.1498 2.92358 11.6999 2.955 11.4111 3.24089L4.74193 9.84089L4.66174 9.93282C4.42125 10.2536 4.44905 10.7081 4.74446 10.998C5.06942 11.3168 5.59515 11.3157 5.91871 10.9955L11.1696 5.79899V20.182L11.1771 20.2931Z" fill="#2C304E"/>
</g>
</svg>
