<svg width="24" height="24" viewBox="0 0 24 24" fill="none" xmlns="http://www.w3.org/2000/svg">
<g id="gear">
<g id="Vector">
<path fill-rule="evenodd" clip-rule="evenodd" d="M12.0008 13.5C12.8293 13.5 13.5008 12.8284 13.5008 12C13.5008 11.1716 12.8293 10.5 12.0008 10.5C11.1724 10.5 10.5008 11.1716 10.5008 12C10.5008 12.8284 11.1724 13.5 12.0008 13.5ZM12.0008 15C13.6577 15 15.0008 13.6569 15.0008 12C15.0008 10.3431 13.6577 9 12.0008 9C10.344 9 9.00083 10.3431 9.00083 12C9.00083 13.6569 10.344 15 12.0008 15Z" fill="url(#paint0_linear_2753_6187)"/>
<path fill-rule="evenodd" clip-rule="evenodd" d="M2.84055 7.86603C2.28826 8.82261 2.61601 10.0458 3.5726 10.5981L4.53396 11.1531C4.83283 11.3257 5.00083 11.6549 5.00083 12C5.00083 12.3451 4.83283 12.6744 4.53394 12.8469L3.57265 13.4019C2.61606 13.9542 2.28831 15.1774 2.8406 16.134L3.8406 17.866C4.39288 18.8226 5.61606 19.1504 6.57265 18.5981L7.53291 18.0437C7.83217 17.8709 8.20075 17.8899 8.49984 18.063C8.7985 18.2358 9.00083 18.5463 9.00083 18.8913V20C9.00083 21.1046 9.89626 22 11.0008 22H13.0008C14.1054 22 15.0008 21.1046 15.0008 20V18.8913C15.0008 18.5463 15.2031 18.2358 15.5018 18.063C15.8009 17.8899 16.1695 17.8709 16.4687 18.0437L17.429 18.5981C18.3856 19.1504 19.6088 18.8226 20.1611 17.866L21.1611 16.134C21.7133 15.1774 21.3856 13.9542 20.429 13.4019L19.4677 12.8469C19.1688 12.6744 19.0008 12.3451 19.0008 12C19.0008 11.6549 19.1688 11.3257 19.4677 11.1531L20.4291 10.5981C21.3856 10.0458 21.7134 8.82261 21.1611 7.86603L20.1611 6.13398C19.6088 5.17739 18.3856 4.84964 17.4291 5.40192L16.4688 5.95634C16.1695 6.12912 15.8009 6.11014 15.5018 5.93705C15.2032 5.76421 15.0008 5.45373 15.0008 5.10865V4C15.0008 2.89543 14.1054 2 13.0008 2H11.0008C9.89626 2 9.00083 2.89543 9.00083 4V5.10865C9.00083 5.45373 8.7985 5.76421 8.49983 5.93705C8.20073 6.11014 7.83214 6.12912 7.53287 5.95634L6.5726 5.40192C5.61601 4.84964 4.39283 5.17739 3.84055 6.13398L2.84055 7.86603ZM11.0008 3.5C10.7247 3.5 10.5008 3.72386 10.5008 4V5.10865C10.5008 6.05683 9.9514 6.8301 9.25113 7.23534C8.54537 7.64376 7.60164 7.72809 6.78287 7.25538L5.8226 6.70096C5.58345 6.56289 5.27766 6.64483 5.13959 6.88398L4.13959 8.61603C4.00152 8.85517 4.08345 9.16097 4.3226 9.29904L5.28396 9.85408C6.10274 10.3268 6.50083 11.1867 6.50083 12C6.50083 12.8133 6.10274 13.6732 5.28394 14.146L4.32265 14.701C4.0835 14.839 4.00156 15.1448 4.13964 15.384L5.13964 17.116C5.27771 17.3552 5.5835 17.4371 5.82265 17.299L6.78291 16.7446C7.60166 16.2719 8.54538 16.3563 9.25114 16.7647C9.9514 17.1699 10.5008 17.9432 10.5008 18.8913V20C10.5008 20.2761 10.7247 20.5 11.0008 20.5H13.0008C13.277 20.5 13.5008 20.2761 13.5008 20V18.8913C13.5008 17.9432 14.0503 17.1699 14.7505 16.7647C15.4563 16.3563 16.4 16.2719 17.2187 16.7446L18.179 17.299C18.4182 17.4371 18.7239 17.3552 18.862 17.116L19.862 15.384C20.0001 15.1448 19.9182 14.839 19.679 14.701L18.7177 14.146C17.8989 13.6732 17.5008 12.8133 17.5008 12C17.5008 11.1867 17.8989 10.3268 18.7177 9.85408L19.6791 9.29904C19.9182 9.16097 20.0001 8.85517 19.8621 8.61603L18.8621 6.88397C18.724 6.64483 18.4182 6.56289 18.1791 6.70096L17.2188 7.25538C16.4 7.72809 15.4563 7.64376 14.7505 7.23534C14.0503 6.8301 13.5008 6.05682 13.5008 5.10865V4C13.5008 3.72386 13.277 3.5 13.0008 3.5H11.0008Z" fill="url(#paint1_linear_2753_6187)"/>
</g>
</g>
<defs>
<linearGradient id="paint0_linear_2753_6187" x1="9.49323" y1="0.461538" x2="18.1423" y2="26.1375" gradientUnits="userSpaceOnUse">
<stop stop-color="#FF3366"/>
<stop offset="1" stop-color="#FE5196"/>
</linearGradient>
<linearGradient id="paint1_linear_2753_6187" x1="9.49323" y1="0.461538" x2="18.1423" y2="26.1375" gradientUnits="userSpaceOnUse">
<stop stop-color="#FF3366"/>
<stop offset="1" stop-color="#FE5196"/>
</linearGradient>
</defs>
</svg>
