<svg width="60" height="60" viewBox="0 0 60 60" fill="none" xmlns="http://www.w3.org/2000/svg">
<path fill-rule="evenodd" clip-rule="evenodd" d="M40.002 23.2967C40.4153 23.734 40.4153 24.4429 40.002 24.8802L26.5318 37.9533C26.1186 38.3905 25.4485 38.3906 25.0351 37.9535L18.7472 31.8465C18.3337 31.4093 18.3336 30.7003 18.7469 30.263C19.1601 29.8256 19.8303 29.8254 20.2438 30.2626L25.7832 35.5782L38.5051 23.2967C38.9184 22.8594 39.5886 22.8594 40.002 23.2967Z" fill="white"/>
<circle cx="30" cy="30" r="30" fill="#039855"/>
<path fill-rule="evenodd" clip-rule="evenodd" d="M42.1457 22.6248C42.6181 23.1245 42.6181 23.9348 42.1457 24.4345L26.7512 39.3752C26.2789 39.8749 25.5131 39.8749 25.0407 39.3754L17.8545 32.396C17.382 31.8963 17.3818 31.0861 17.8541 30.5862C18.3264 30.0864 19.0924 30.0862 19.5649 30.5859L25.8957 36.6608L40.4349 22.6248C40.9074 22.1251 41.6733 22.1251 42.1457 22.6248Z" fill="#FCFCFD"/>
</svg>
