<svg width="18" height="18" viewBox="0 0 18 18" fill="none" xmlns="http://www.w3.org/2000/svg">
<g id="error_outlined">
<g id="Vector">
<path fill-rule="evenodd" clip-rule="evenodd" d="M9.00012 2.625C5.47903 2.625 2.62512 5.47891 2.62512 9C2.62512 12.5204 5.47907 15.375 9.00012 15.375C12.5205 15.375 15.3751 12.5203 15.3751 9C15.3751 5.47895 12.5205 2.625 9.00012 2.625ZM1.50012 9C1.50012 4.85759 4.85771 1.5 9.00012 1.5C13.1417 1.5 16.5001 4.85755 16.5001 9C16.5001 13.1417 13.1418 16.5 9.00012 16.5C4.85767 16.5 1.50012 13.1416 1.50012 9Z" fill="#DA1E28"/>
<path fill-rule="evenodd" clip-rule="evenodd" d="M8.99645 5.59057C9.30711 5.59057 9.55895 5.84241 9.55895 6.15307V9.46733C9.55895 9.77799 9.30711 10.0298 8.99645 10.0298C8.68579 10.0298 8.43395 9.77799 8.43395 9.46733V6.15307C8.43395 5.84241 8.68579 5.59057 8.99645 5.59057Z" fill="#DA1E28"/>
<path fill-rule="evenodd" clip-rule="evenodd" d="M8.2463 11.847C8.2463 11.4328 8.58208 11.097 8.9963 11.097H9.0038C9.41801 11.097 9.7538 11.4328 9.7538 11.847C9.7538 12.2612 9.41801 12.597 9.0038 12.597H8.9963C8.58208 12.597 8.2463 12.2612 8.2463 11.847Z" fill="#DA1E28"/>
</g>
</g>
</svg>
