<svg width="18" height="18" viewBox="0 0 18 18" fill="none" xmlns="http://www.w3.org/2000/svg">
<path fill-rule="evenodd" clip-rule="evenodd" d="M8.78185 1.91602C4.99602 1.91602 1.91602 4.99518 1.91602 8.78102C1.91602 12.5668 4.99602 15.6468 8.78185 15.6468C12.5668 15.6468 15.6468 12.5668 15.6468 8.78102C15.6468 4.99518 12.5668 1.91602 8.78185 1.91602ZM8.78185 16.8968C4.30685 16.8968 0.666016 13.256 0.666016 8.78102C0.666016 4.30602 4.30685 0.666016 8.78185 0.666016C13.2568 0.666016 16.8968 4.30602 16.8968 8.78102C16.8968 13.256 13.2568 16.8968 8.78185 16.8968Z" fill="#A9ACBC"/>
<path fill-rule="evenodd" clip-rule="evenodd" d="M16.9281 17.9341C16.7689 17.9341 16.6089 17.8733 16.4864 17.7516L13.5498 14.8233C13.3056 14.5791 13.3048 14.1833 13.5489 13.9391C13.7923 13.6933 14.1881 13.695 14.4331 13.9374L17.3698 16.8666C17.6139 17.1108 17.6148 17.5058 17.3706 17.75C17.2489 17.8733 17.0881 17.9341 16.9281 17.9341Z" fill="#A9ACBC"/>
</svg>
